<svg width="157" height="156" viewBox="0 0 157 156" fill="none" xmlns="http://www.w3.org/2000/svg">
<g clip-path="url(#453534534534)">
<path d="M72.3398 152.975C110.37 152.975 141.199 122.145 141.199 84.1152C141.199 46.0853 110.37 15.2559 72.3398 15.2559C34.3099 15.2559 3.48047 46.0853 3.48047 84.1152C3.48047 122.145 34.3099 152.975 72.3398 152.975Z" fill="#FF833D"/>
<path d="M72.3398 133.475C99.6003 133.475 121.699 111.376 121.699 84.1152C121.699 56.8548 99.6003 34.7559 72.3398 34.7559C45.0794 34.7559 22.9805 56.8548 22.9805 84.1152C22.9805 111.376 45.0794 133.475 72.3398 133.475Z" fill="white"/>
<path d="M72.3398 113.975C88.8307 113.975 102.199 100.606 102.199 84.1152C102.199 67.6244 88.8307 54.2559 72.3398 54.2559C55.849 54.2559 42.4805 67.6244 42.4805 84.1152C42.4805 100.606 55.849 113.975 72.3398 113.975Z" fill="#FF833D"/>
<path d="M72.3398 94.4746C78.0612 94.4746 82.6992 89.8366 82.6992 84.1152C82.6992 78.3939 78.0612 73.7559 72.3398 73.7559C66.6185 73.7559 61.9805 78.3939 61.9805 84.1152C61.9805 89.8366 66.6185 94.4746 72.3398 94.4746Z" fill="white"/>
<path d="M90.6328 55.3832L119.517 26.5293L129.968 36.9801L101.084 65.834L90.6328 55.3832Z" fill="#FDE49D"/>
<path d="M90.1648 76.7809L79.7141 76.7504L79.6836 66.2996L90.6219 55.3613L101.073 65.8121L90.1648 76.7809Z" fill="#FDE49D"/>
<path d="M141.624 39.2648L121.484 35.0388L138.699 17.8239C140.315 16.2078 142.507 15.2998 144.793 15.2998C147.079 15.2998 149.271 16.2078 150.887 17.8239C152.503 19.4401 153.411 21.6321 153.411 23.9177C153.411 26.2033 152.503 28.3953 150.887 30.0114L141.624 39.2648Z" fill="#A4C0EF"/>
<path d="M117.219 14.8599L121.454 34.9997L138.669 17.7849C140.285 16.1687 141.193 13.9767 141.193 11.6911C141.193 9.40551 140.285 7.21352 138.669 5.59736C137.053 3.98119 134.861 3.07324 132.575 3.07324C130.289 3.07324 128.097 3.98119 126.481 5.59736L117.219 14.8599Z" fill="#A4C0EF"/>
<path d="M140.985 42.2209C141.197 42.2563 141.411 42.2767 141.625 42.2818C142.435 42.2842 143.212 41.9666 143.789 41.3982L153.051 32.1357C154.685 30.5037 155.798 28.4234 156.25 26.1583C156.701 23.8932 156.47 21.5452 155.586 19.4115C154.701 17.2778 153.204 15.4545 151.283 14.1724C149.362 12.8903 147.104 12.207 144.794 12.2092H144.258V11.6607C144.259 9.35141 143.576 7.09354 142.293 5.17297C141.011 3.25239 139.188 1.75548 137.054 0.871719C134.921 -0.0120371 132.573 -0.242894 130.308 0.208374C128.043 0.659642 125.963 1.77274 124.331 3.40676L115.069 12.6693C114.711 13.0257 114.448 13.4663 114.304 13.9507C114.16 14.4351 114.14 14.9478 114.246 15.4419L116.318 25.3443L115.282 26.3802C102.852 17.1948 87.8074 12.2298 72.3516 12.2122C62.9087 12.2122 53.5583 14.0721 44.8342 17.6858C36.1102 21.2994 28.1833 26.596 21.5062 33.2731C14.8291 39.9502 9.53248 47.8771 5.91885 56.6012C2.30522 65.3252 0.445313 74.6756 0.445312 84.1185C0.445313 93.5613 2.30522 102.912 5.91885 111.636C9.53248 120.36 14.8291 128.287 21.5062 134.964C28.1833 141.641 36.1102 146.938 44.8342 150.551C53.5583 154.165 62.9087 156.025 72.3516 156.025C85.6796 156.025 98.7455 152.321 110.09 145.326C121.436 138.331 130.613 128.321 136.599 116.412C142.585 104.504 145.143 91.1663 143.988 77.8884C142.833 64.6104 138.011 51.9147 130.059 41.2185L131.126 40.1521L140.985 42.2209ZM101.102 61.5472L94.9472 55.3925L117.829 32.5105L118.5 35.6488C118.616 36.2274 118.901 36.7586 119.318 37.176C119.736 37.5933 120.267 37.8782 120.846 37.9949L123.984 38.6652L101.102 61.5472ZM99.1519 84.1246C99.1519 89.4276 97.5794 94.6115 94.6332 99.0208C91.687 103.43 87.4994 106.867 82.6001 108.896C77.7007 110.925 72.3096 111.456 67.1085 110.422C61.9074 109.387 57.1299 106.834 53.3801 103.084C49.6303 99.3341 47.0766 94.5565 46.0421 89.3554C45.0075 84.1543 45.5385 78.7632 47.5679 73.8639C49.5972 68.9645 53.0339 64.777 57.4431 61.8308C61.8524 58.8846 67.0364 57.3121 72.3394 57.3121C75.7983 57.3063 79.2247 57.9792 82.4245 59.2925L77.5495 64.1675C77.2658 64.4512 77.0415 64.7887 76.8897 65.1601C76.738 65.5316 76.6619 65.9296 76.6659 66.3308V71.4496C75.273 70.9727 73.8117 70.7258 72.3394 70.7183C69.5074 70.7229 66.7499 71.6255 64.4635 73.2964C62.177 74.9673 60.4794 77.3204 59.6149 80.0171C58.7504 82.7139 58.7635 85.6154 59.6523 88.3042C60.5411 90.993 62.2599 93.3307 64.5613 94.9809C66.8628 96.6311 69.6283 97.5088 72.4602 97.4878C75.292 97.4668 78.0443 96.5481 80.321 94.864C82.5977 93.1798 84.2816 90.8169 85.1304 88.1152C85.9792 85.4134 85.9493 82.5121 85.0448 79.8285H90.1636C90.9714 79.8225 91.7459 79.5061 92.3269 78.9449L97.2019 74.0699C98.491 77.2653 99.153 80.6789 99.1519 84.1246ZM88.9144 73.7347H82.7902V67.6105L90.6816 59.7191L96.8362 65.8738L88.9144 73.7347ZM79.6641 84.1154C79.6641 85.5617 79.2352 86.9755 78.4317 88.178C77.6282 89.3806 76.4861 90.3178 75.1499 90.8713C73.8138 91.4248 72.3434 91.5696 70.925 91.2874C69.5065 91.0053 68.2035 90.3088 67.1808 89.2862C66.1582 88.2635 65.4617 86.9605 65.1796 85.542C64.8974 84.1236 65.0422 82.6532 65.5957 81.3171C66.1492 79.9809 67.0864 78.8388 68.289 78.0353C69.4915 77.2318 70.9053 76.8029 72.3516 76.8029C73.2254 76.7984 74.0927 76.9533 74.9109 77.26L71.407 80.7639C70.8395 81.3347 70.521 82.107 70.521 82.9119C70.521 83.7169 70.8395 84.4891 71.407 85.06C71.6899 85.3448 72.0272 85.5699 72.3988 85.7217C72.7705 85.8735 73.1689 85.9489 73.5703 85.9436C74.3786 85.9404 75.1542 85.6236 75.7336 85.06L79.2375 81.5561C79.5171 82.3805 79.6612 83.2449 79.6641 84.1154ZM144.806 18.3029C145.538 18.2981 146.264 18.4414 146.94 18.7242C147.615 19.0069 148.226 19.4233 148.737 19.9482C149.776 20.9985 150.359 22.4164 150.359 23.8939C150.359 25.3715 149.776 26.7894 148.737 27.8397L140.62 35.9535L127.579 33.2113L140.803 19.9879C141.323 19.4568 141.944 19.035 142.629 18.7473C143.315 18.4595 144.051 18.3115 144.794 18.3121L144.806 18.3029ZM128.658 7.76075C129.708 6.72139 131.126 6.13838 132.604 6.13838C134.081 6.13838 135.499 6.72139 136.549 7.76075C137.069 8.27474 137.483 8.88673 137.765 9.56135C138.048 10.236 138.193 10.9599 138.195 11.6912C138.196 12.423 138.052 13.1477 137.769 13.8228C137.487 14.4978 137.072 15.1094 136.549 15.6217L123.326 28.8451L120.584 15.8045L128.658 7.76075ZM138.164 84.1154C138.164 120.404 108.64 149.928 72.3516 149.928C36.0633 149.928 6.53906 120.404 6.53906 84.1154C6.53906 47.8272 36.0633 18.3029 72.3516 18.3029C86.2135 18.2405 99.7313 22.6183 110.925 30.7951L101.297 40.4232C92.7234 34.7181 82.6497 31.6854 72.3516 31.7092C43.4672 31.7092 19.9453 55.2311 19.9453 84.1154C19.9501 93.0163 22.2145 101.77 26.5266 109.557C26.7871 110.031 27.1711 110.426 27.6378 110.699C28.1044 110.973 28.6364 111.115 29.1773 111.111C29.7086 111.108 30.23 110.967 30.6907 110.703C31.1514 110.438 31.5356 110.059 31.8057 109.601C32.0759 109.144 32.2228 108.624 32.232 108.093C32.2413 107.562 32.1126 107.037 31.8586 106.571C28.0378 99.6959 26.0348 91.9595 26.0391 84.0941C26.0391 58.5613 46.8187 37.7816 72.3516 37.7816C81.0298 37.7515 89.5372 40.1927 96.8789 44.8199L87.0375 54.6613C80.0689 51.2059 72.0988 50.3406 64.5511 52.2202C57.0034 54.0998 50.3698 58.6016 45.8356 64.9215C41.3013 71.2414 39.1617 78.9676 39.7991 86.7197C40.4366 94.4717 43.8094 101.745 49.3151 107.239C54.8208 112.733 62.1007 116.091 69.854 116.713C77.6074 117.334 85.3291 115.179 91.6397 110.631C97.9502 106.084 102.438 99.441 104.302 91.8895C106.166 84.3379 105.285 76.3696 101.815 69.4082L111.656 59.5668C116.261 66.9168 118.691 75.4206 118.664 84.0941C118.664 109.627 97.8844 130.407 72.3516 130.407C64.484 130.405 56.7462 128.402 49.8656 124.587C49.5155 124.393 49.1306 124.27 48.7329 124.225C48.3352 124.179 47.9324 124.213 47.5476 124.323C47.1629 124.433 46.8036 124.618 46.4903 124.868C46.1771 125.117 45.9159 125.425 45.7219 125.775C45.5278 126.125 45.4046 126.51 45.3593 126.908C45.314 127.306 45.3475 127.709 45.4578 128.093C45.5682 128.478 45.7532 128.837 46.0024 129.151C46.2516 129.464 46.5601 129.725 46.9102 129.919C54.6968 134.231 63.4507 136.496 72.3516 136.5C101.236 136.5 124.758 112.978 124.758 84.0941C124.781 73.8054 121.748 63.7416 116.044 55.1793L125.672 45.5511C133.774 56.7796 138.143 70.2693 138.164 84.1154Z" fill="black"/>
<path d="M37.4533 115.955C36.6467 115.967 35.8742 116.283 35.29 116.839C35.0062 117.123 34.7819 117.46 34.6302 117.831C34.4785 118.203 34.4024 118.601 34.4064 119.002C34.4182 119.809 34.7337 120.581 35.29 121.165C35.5719 121.452 35.909 121.677 36.2809 121.829C36.6528 121.981 37.0516 122.056 37.4533 122.049C38.2599 122.037 39.0323 121.722 39.6166 121.165C39.9003 120.882 40.1246 120.544 40.2763 120.173C40.4281 119.801 40.5042 119.403 40.5002 119.002C40.5042 118.601 40.4282 118.203 40.2765 117.831C40.1248 117.46 39.9006 117.122 39.6168 116.839C39.3331 116.555 38.9956 116.331 38.6241 116.179C38.2526 116.027 37.8545 115.951 37.4533 115.955Z" fill="black"/>
<path d="M19.9453 85.4248C20.6766 113.639 43.8328 136.369 72.1992 136.429V130.336C47.1844 130.275 26.7703 110.287 26.0391 85.4248H19.9453Z" fill="black"/>
</g>
<defs>
<clipPath id="453534534534">
<rect width="156" height="156" fill="white" transform="translate(0.445312)"/>
</clipPath>
</defs>
</svg>
