<svg width="157" height="156" viewBox="0 0 157 156" fill="none" xmlns="http://www.w3.org/2000/svg">
<g clip-path="url(#dsasdas)">
<path d="M146.238 146.555H10.6523C8.55133 146.555 6.53637 145.72 5.05073 144.234C3.56509 142.749 2.73047 140.734 2.73047 138.633V132.539C2.73047 132.216 2.85887 131.906 3.08743 131.677C3.31599 131.449 3.62599 131.32 3.94922 131.32H152.941C153.265 131.32 153.575 131.449 153.803 131.677C154.032 131.906 154.16 132.216 154.16 132.539V138.633C154.16 140.734 153.326 142.749 151.84 144.234C150.354 145.72 148.339 146.555 146.238 146.555Z" fill="#A4C0EF"/>
<path d="M152.941 131.32H143.801C144.124 131.32 144.434 131.449 144.663 131.677C144.891 131.906 145.02 132.216 145.02 132.539V138.633C145.02 140.734 144.185 142.749 142.699 144.234C141.214 145.72 139.199 146.555 137.098 146.555H146.238C148.339 146.555 150.354 145.72 151.84 144.234C153.326 142.749 154.16 140.734 154.16 138.633V132.539C154.16 132.216 154.032 131.906 153.803 131.677C153.575 131.449 153.265 131.32 152.941 131.32Z" fill="#88C3E0"/>
<path d="M137.859 131.32H19.0312C17.4166 131.315 15.8694 130.672 14.7276 129.53C13.5859 128.388 12.9423 126.841 12.9375 125.227V46.0078C12.9423 44.3931 13.5859 42.846 14.7276 41.7042C15.8694 40.5625 17.4166 39.9189 19.0312 39.9141H137.859C139.474 39.9189 141.021 40.5625 142.163 41.7042C143.305 42.846 143.948 44.3931 143.953 46.0078V125.227C143.948 126.841 143.305 128.388 142.163 129.53C141.021 130.672 139.474 131.315 137.859 131.32Z" fill="#80A8E8"/>
<path d="M143.953 125.227C143.953 126.843 143.311 128.393 142.168 129.536C141.026 130.678 139.476 131.32 137.859 131.32H128.719C130.335 131.32 131.885 130.678 133.028 129.536C134.17 128.393 134.812 126.843 134.812 125.227V46.0078C134.813 44.397 134.175 42.8516 133.038 41.7097C131.902 40.5677 130.36 39.9222 128.749 39.9141H137.859C138.66 39.9113 139.454 40.067 140.195 40.3722C140.935 40.6775 141.608 41.1262 142.175 41.6926C142.741 42.2591 143.19 42.9319 143.495 43.6725C143.8 44.4131 143.956 45.2068 143.953 46.0078V125.227Z" fill="#3B7191"/>
<path d="M133.32 122.18H20.5859V49.0547H133.32V122.18Z" fill="#F3F3F3"/>
<path d="M125.672 49.0244H134.812V122.149H125.672V49.0244Z" fill="#E4E4E4"/>
<path d="M88.8047 138.633H68.0859C67.1162 138.633 66.1863 138.248 65.5006 137.562C64.8149 136.876 64.4297 135.946 64.4297 134.977V131.32H92.4609V134.977C92.4609 135.946 92.0757 136.876 91.39 137.562C90.7044 138.248 89.7744 138.633 88.8047 138.633Z" fill="#88C3E0"/>
<path d="M110.893 54.3258C110.711 55.5141 110.315 57.2508 109.949 58.6523C109.785 59.2878 109.415 59.8509 108.897 60.2534C108.378 60.6559 107.741 60.8751 107.085 60.8766H102.941C102.285 60.8751 101.648 60.6559 101.129 60.2534C100.611 59.8509 100.241 59.2878 100.077 58.6523C99.7114 57.2508 99.3153 55.5445 99.1325 54.3258C99.0663 53.8827 98.9003 53.4604 98.6469 53.0909C98.3935 52.7214 98.0595 52.4144 97.67 52.193L93.8614 49.9992C93.4769 49.7758 93.0464 49.6432 92.6029 49.6115C92.1593 49.5798 91.7144 49.6499 91.302 49.8164C90.1747 50.2734 88.4684 50.7914 87.0669 51.1875C86.4353 51.363 85.7632 51.3236 85.1565 51.0754C84.5498 50.8272 84.0428 50.3843 83.7153 49.8164L81.6434 46.2516C81.3206 45.6813 81.1936 45.0211 81.2816 44.3718C81.3696 43.7225 81.668 43.1199 82.1309 42.6562C83.1669 41.6508 84.4465 40.432 85.4215 39.6703C85.7725 39.3949 86.0564 39.0433 86.2516 38.6422C86.4469 38.2411 86.5486 37.8008 86.5489 37.3547V32.9672C86.5553 32.5199 86.4566 32.0774 86.2608 31.6752C86.065 31.273 85.7776 30.9224 85.4215 30.6516C84.2709 29.7171 83.1724 28.7203 82.1309 27.6656C81.6606 27.2064 81.3573 26.6032 81.2689 25.9518C81.1806 25.3004 81.3124 24.6382 81.6434 24.0703L83.7153 20.5055C84.0428 19.9376 84.5498 19.4947 85.1565 19.2465C85.7632 18.9983 86.4353 18.9589 87.0669 19.1344C88.4684 19.5305 90.1747 20.0484 91.302 20.5055C91.7141 20.6731 92.1592 20.7438 92.603 20.7121C93.0468 20.6804 93.4773 20.5472 93.8614 20.3227L97.67 18.1289C98.0553 17.9024 98.386 17.5939 98.6387 17.2254C98.8915 16.8568 99.06 16.4371 99.1325 15.9961C99.3153 14.8078 99.7114 13.0711 100.077 11.6695C100.241 11.0341 100.611 10.471 101.129 10.0685C101.648 9.66594 102.285 9.44677 102.941 9.44531H107.085C107.741 9.44677 108.378 9.66594 108.897 10.0685C109.415 10.471 109.785 11.0341 109.949 11.6695C110.315 13.0711 110.711 14.7773 110.893 15.9961C110.96 16.4392 111.126 16.8615 111.379 17.231C111.632 17.6004 111.966 17.9075 112.356 18.1289L116.165 20.3227C116.549 20.5461 116.979 20.6787 117.423 20.7104C117.867 20.7421 118.312 20.672 118.724 20.5055C119.851 20.0484 121.557 19.5305 122.959 19.1344C123.591 18.9589 124.263 18.9983 124.869 19.2465C125.476 19.4947 125.983 19.9376 126.311 20.5055L128.382 24.0703C128.712 24.6385 128.844 25.3005 128.755 25.9516C128.667 26.6027 128.364 27.2058 127.895 27.6656C126.859 28.6711 125.579 29.8898 124.604 30.6516C124.253 30.927 123.97 31.2785 123.774 31.6797C123.579 32.0808 123.477 32.521 123.477 32.9672V37.3547C123.471 37.802 123.569 38.2445 123.765 38.6467C123.961 39.0489 124.248 39.3995 124.604 39.6703C125.755 40.6048 126.853 41.6016 127.895 42.6562C128.365 43.1155 128.669 43.7187 128.757 44.3701C128.845 45.0214 128.713 45.6837 128.382 46.2516L126.311 49.8164C125.983 50.3843 125.476 50.8272 124.869 51.0754C124.263 51.3236 123.591 51.363 122.959 51.1875C121.557 50.7914 119.851 50.2734 118.724 49.8164C118.312 49.6488 117.867 49.5781 117.423 49.6098C116.979 49.6415 116.549 49.7747 116.165 49.9992L112.356 52.193C111.966 52.4144 111.632 52.7214 111.379 53.0909C111.126 53.4604 110.96 53.8827 110.893 54.3258ZM115.22 35.1609C115.226 33.1469 114.634 31.1764 113.52 29.4989C112.405 27.8213 110.818 26.5122 108.959 25.7373C107.1 24.9624 105.053 24.7565 103.077 25.1457C101.101 25.535 99.2846 26.5018 97.8584 27.9238C96.4321 29.3458 95.4598 31.159 95.0647 33.1339C94.6695 35.1088 94.8693 37.1565 95.6386 39.0178C96.408 40.8791 97.7123 42.4703 99.3865 43.5898C101.061 44.7094 103.029 45.307 105.043 45.307C107.738 45.3095 110.323 44.2422 112.231 42.3398C114.139 40.4374 115.214 37.8554 115.22 35.1609Z" fill="#F4A71E"/>
<path d="M75.0653 93.9654C74.8825 95.1537 74.4864 96.8904 74.1208 98.292C73.9569 98.9274 73.5868 99.4906 73.0685 99.8931C72.5502 100.296 71.9129 100.515 71.2567 100.516H67.113C66.4567 100.515 65.8195 100.296 65.3012 99.8931C64.7829 99.4906 64.4128 98.9274 64.2489 98.292C63.8833 96.8904 63.4872 95.1842 63.3044 93.9654C63.2382 93.5223 63.0721 93.1001 62.8188 92.7306C62.5654 92.3611 62.2313 92.054 61.8419 91.8326L58.0333 89.6389C57.6488 89.4155 57.2183 89.2828 56.7747 89.2511C56.3312 89.2195 55.8862 89.2896 55.4739 89.4561C54.3466 89.9131 52.6403 90.4311 51.2387 90.8271C50.6071 91.0027 49.9351 90.9632 49.3284 90.715C48.7217 90.4668 48.2147 90.0239 47.8872 89.4561L45.8153 85.8912C45.4925 85.321 45.3654 84.6607 45.4535 84.0114C45.5415 83.3621 45.8398 82.7596 46.3028 82.2959C47.3387 81.2904 48.6184 80.0717 49.5934 79.31C49.9444 79.0345 50.2282 78.683 50.4235 78.2818C50.6188 77.8807 50.7204 77.4405 50.7208 76.9943V72.6068C50.7272 72.1596 50.6285 71.717 50.4327 71.3148C50.2369 70.9126 49.9494 70.562 49.5934 70.2912C48.4428 69.3568 47.3443 68.36 46.3028 67.3053C45.8325 66.846 45.5291 66.2428 45.4408 65.5914C45.3525 64.9401 45.4843 64.2779 45.8153 63.71L47.8872 60.1451C48.2147 59.5772 48.7217 59.1344 49.3284 58.8862C49.9351 58.638 50.6071 58.5985 51.2387 58.774C52.6403 59.1701 54.3466 59.6881 55.4739 60.1451C55.886 60.3127 56.3311 60.3834 56.7749 60.3518C57.2186 60.3201 57.6492 60.1868 58.0333 59.9623L61.8419 57.7686C62.2271 57.5421 62.5579 57.2336 62.8106 56.865C63.0634 56.4964 63.2319 56.0768 63.3044 55.6357C63.4872 54.4475 63.8833 52.7107 64.2489 51.3092C64.4128 50.6737 64.7829 50.1106 65.3012 49.7081C65.8195 49.3056 66.4567 49.0864 67.113 49.085H71.2567C71.9129 49.0864 72.5502 49.3056 73.0685 49.7081C73.5868 50.1106 73.9569 50.6737 74.1208 51.3092C74.4864 52.7107 74.8825 54.417 75.0653 55.6357C75.1315 56.0788 75.2975 56.5011 75.5509 56.8706C75.8043 57.2401 76.1383 57.5472 76.5278 57.7686L80.3364 59.9623C80.7209 60.1857 81.1513 60.3183 81.5949 60.35C82.0385 60.3817 82.4834 60.3116 82.8958 60.1451C84.0231 59.6881 85.7294 59.1701 87.1309 58.774C87.7625 58.5985 88.4346 58.638 89.0413 58.8862C89.648 59.1344 90.155 59.5772 90.4825 60.1451L92.5544 63.71C92.8771 64.2802 93.0042 64.9404 92.9162 65.5897C92.8281 66.239 92.5298 66.8416 92.0669 67.3053C91.0309 68.3107 89.7512 69.5295 88.7762 70.2912C88.4253 70.5666 88.1414 70.9182 87.9461 71.3193C87.7509 71.7204 87.6492 72.1607 87.6489 72.6068V76.9943C87.6425 77.4416 87.7411 77.8841 87.9369 78.2863C88.1327 78.6885 88.4202 79.0391 88.7762 79.31C89.9268 80.2444 91.0254 81.2412 92.0669 82.2959C92.5371 82.7552 92.8405 83.3583 92.9288 84.0097C93.0172 84.6611 92.8854 85.3233 92.5544 85.8912L90.4825 89.4561C90.155 90.0239 89.648 90.4668 89.0413 90.715C88.4346 90.9632 87.7625 91.0027 87.1309 90.8271C85.7294 90.4311 84.0231 89.9131 82.8958 89.4561C82.4837 89.2884 82.0386 89.2177 81.5948 89.2494C81.151 89.2811 80.7205 89.4144 80.3364 89.6389L76.5278 91.8326C76.1383 92.054 75.8043 92.3611 75.5509 92.7306C75.2975 93.1001 75.1315 93.5223 75.0653 93.9654ZM79.3614 74.7396C79.3674 72.7256 78.7757 70.7551 77.6612 69.0776C76.5466 67.4 74.9594 66.0909 73.1004 65.316C71.2414 64.5411 69.1943 64.3352 67.2182 64.7245C65.2422 65.1137 63.426 66.0805 61.9998 67.5025C60.5735 68.9245 59.6012 70.7377 59.2061 72.7126C58.811 74.6875 59.0107 76.7352 59.78 78.5965C60.5494 80.4578 61.8537 82.049 63.5279 83.1685C65.2021 84.2881 67.1708 84.8857 69.1848 84.8857C71.8793 84.8882 74.4645 83.821 76.3727 81.9185C78.2808 80.0161 79.3557 77.4341 79.3614 74.7396Z" fill="#FDE49D"/>
<path d="M152.941 129.035H145.324C145.923 127.854 146.236 126.55 146.238 125.226V63.192C146.238 62.5859 145.998 62.0047 145.569 61.5761C145.14 61.1476 144.559 60.9068 143.953 60.9068C143.347 60.9068 142.766 61.1476 142.337 61.5761C141.909 62.0047 141.668 62.5859 141.668 63.192V125.226C141.668 126.236 141.267 127.205 140.552 127.919C139.838 128.634 138.869 129.035 137.859 129.035H19.0312C18.0211 129.035 17.0524 128.634 16.3382 127.919C15.6239 127.205 15.2227 126.236 15.2227 125.226V46.0076C15.2227 44.9975 15.6239 44.0288 16.3382 43.3145C17.0524 42.6003 18.0211 42.199 19.0312 42.199H79.6641C79.2683 42.8878 79.0376 43.659 78.99 44.452C78.9424 45.2449 79.0793 46.0382 79.3898 46.7693H22.0781C21.4733 46.7733 20.8944 47.0154 20.4667 47.4431C20.039 47.8707 19.797 48.4497 19.793 49.0545V97.317C19.793 97.9231 20.0337 98.5043 20.4623 98.9329C20.8908 99.3614 21.4721 99.6022 22.0781 99.6022C22.6842 99.6022 23.2654 99.3614 23.694 98.9329C24.1225 98.5043 24.3633 97.9231 24.3633 97.317V51.3092H61.9008C61.5961 52.5584 61.2305 54.0818 61.0781 55.2397C61.0613 55.3365 61.0223 55.4282 60.9642 55.5075C60.906 55.5868 60.8303 55.6516 60.743 55.6967L56.9344 57.8904C56.7567 57.9853 56.549 58.0072 56.3555 57.9514C55.0453 57.4334 53.2172 56.885 51.8766 56.5193C50.7562 56.2074 49.5638 56.2777 48.4878 56.7192C47.4119 57.1606 46.5137 57.9479 45.9352 58.9568L43.8633 62.5217C43.2792 63.5296 43.0489 64.7039 43.2091 65.8577C43.3692 67.0116 43.9105 68.0788 44.7469 68.8897C45.8461 69.9988 47.0057 71.0465 48.2203 72.0279C48.2977 72.09 48.3598 72.169 48.4021 72.2587C48.4443 72.3485 48.4655 72.4467 48.4641 72.5459V76.9334C48.4655 77.0326 48.4443 77.1308 48.4021 77.2206C48.3598 77.3103 48.2977 77.3893 48.2203 77.4514C47.1234 78.3045 45.7219 79.6451 44.7469 80.5897C43.9169 81.4044 43.3801 82.4711 43.2203 83.6231C43.0604 84.7751 43.2865 85.9476 43.8633 86.9576L45.9352 90.5225C46.5137 91.5314 47.4119 92.3187 48.4878 92.7602C49.5638 93.2016 50.7562 93.2719 51.8766 92.96C53.2172 92.5943 55.0453 92.0459 56.3555 91.5279C56.4501 91.4928 56.5516 91.48 56.6521 91.4906C56.7525 91.5011 56.8491 91.5348 56.9344 91.5889L60.743 93.7826C60.8303 93.8278 60.906 93.8925 60.9642 93.9718C61.0223 94.0511 61.0613 94.1428 61.0781 94.2397C61.3238 95.7789 61.6493 97.3044 62.0531 98.81C62.3456 99.9365 63.0041 100.934 63.9252 101.645C64.8462 102.357 65.9776 102.742 67.1414 102.74H71.2852C72.4478 102.737 73.5769 102.35 74.497 101.64C75.4171 100.929 76.0767 99.9341 76.3734 98.81C76.7086 97.4693 77.1656 95.6107 77.3484 94.2397C77.3652 94.1428 77.4042 94.0511 77.4624 93.9718C77.5205 93.8925 77.5962 93.8278 77.6836 93.7826L81.4922 91.5889C81.6699 91.494 81.8775 91.4721 82.0711 91.5279C83.3812 92.0459 85.2094 92.5943 86.55 92.96C87.6704 93.2719 88.8628 93.2016 89.9387 92.7602C91.0147 92.3187 91.9129 91.5314 92.4914 90.5225L94.5633 86.9576C95.1473 85.9497 95.3776 84.7754 95.2175 83.6216C95.0574 82.4677 94.5161 81.4005 93.6797 80.5897C92.5805 79.4805 91.4209 78.4328 90.2063 77.4514C90.1289 77.3893 90.0667 77.3103 90.0245 77.2206C89.9822 77.1308 89.961 77.0326 89.9625 76.9334V72.5459C89.961 72.4467 89.9822 72.3485 90.0245 72.2587C90.0667 72.169 90.1289 72.09 90.2063 72.0279C91.3031 71.1748 92.7047 69.8342 93.6797 68.8897C94.5096 68.0749 95.0464 67.0082 95.2063 65.8562C95.3661 64.7042 95.14 63.5317 94.5633 62.5217L92.4914 58.9568C91.9129 57.9479 91.0147 57.1606 89.9387 56.7192C88.8628 56.2777 87.6704 56.2074 86.55 56.5193C85.2094 56.885 83.3812 57.4334 82.0711 57.9514C81.9764 57.9865 81.8749 57.9993 81.7745 57.9887C81.6741 57.9782 81.5775 57.9445 81.4922 57.8904L77.6836 55.6967C77.5962 55.6516 77.5205 55.5868 77.4624 55.5075C77.4042 55.4282 77.3652 55.3365 77.3484 55.2397C77.1443 53.9158 76.8697 52.6038 76.5258 51.3092H82.0102C82.6259 52.2038 83.5074 52.8823 84.5298 53.2486C85.5523 53.615 86.664 53.6506 87.7078 53.3506C89.0484 52.985 90.8766 52.4365 92.1867 51.9186C92.2814 51.8834 92.3829 51.8706 92.4833 51.8812C92.5837 51.8918 92.6804 51.9254 92.7656 51.9795L96.5742 54.1732C96.6616 54.2184 96.7373 54.2831 96.7954 54.3624C96.8536 54.4417 96.8926 54.5334 96.9094 54.6303C97.1551 56.1696 97.4805 57.695 97.8844 59.2006C98.1768 60.3271 98.8354 61.3244 99.7564 62.0359C100.677 62.7474 101.809 63.1326 102.973 63.1311H107.116C108.279 63.1279 109.408 62.7409 110.328 62.0302C111.248 61.3195 111.908 60.3247 112.205 59.2006C112.54 57.86 112.997 56.0014 113.18 54.6303C113.196 54.5334 113.235 54.4417 113.294 54.3624C113.352 54.2831 113.427 54.2184 113.515 54.1732L117.323 51.9795C117.501 51.8846 117.709 51.8628 117.902 51.9186C119.213 52.4365 121.041 52.985 122.381 53.3506C123.425 53.6436 124.535 53.6045 125.556 53.2388C126.577 52.873 127.458 52.1986 128.079 51.3092H132.527V119.864H24.3633V107.158C24.3633 106.552 24.1225 105.971 23.694 105.543C23.2654 105.114 22.6842 104.873 22.0781 104.873C21.4721 104.873 20.8908 105.114 20.4623 105.543C20.0337 105.971 19.793 106.552 19.793 107.158V122.179C19.797 122.784 20.039 123.363 20.4667 123.791C20.8944 124.219 21.4733 124.461 22.0781 124.465H134.812C135.418 124.464 135.999 124.223 136.427 123.794C136.856 123.366 137.097 122.785 137.098 122.179V49.0545C137.094 48.4497 136.852 47.8707 136.424 47.4431C135.996 47.0154 135.417 46.7733 134.812 46.7693H130.699C130.995 46.0348 131.124 45.2437 131.076 44.4533C131.029 43.6629 130.806 42.8929 130.425 42.199H137.89C138.9 42.199 139.869 42.6003 140.583 43.3145C141.297 44.0288 141.698 44.9975 141.698 46.0076V53.5334C141.698 54.1395 141.939 54.7207 142.368 55.1493C142.796 55.5778 143.378 55.8186 143.984 55.8186C144.59 55.8186 145.171 55.5778 145.599 55.1493C146.028 54.7207 146.269 54.1395 146.269 53.5334V46.0076C146.27 44.9071 146.053 43.8171 145.633 42.8002C145.212 41.7833 144.595 40.8593 143.816 40.0811C143.038 39.3028 142.114 38.6857 141.097 38.2649C140.08 37.8441 138.99 37.6279 137.89 37.6287H125.855C125.82 37.5517 125.8 37.4692 125.794 37.385V32.9975C125.792 32.8983 125.813 32.8001 125.856 32.7103C125.898 32.6205 125.96 32.5416 126.038 32.4795C127.134 31.6264 128.536 30.2857 129.511 29.3412C130.341 28.5264 130.878 27.4598 131.038 26.3078C131.197 25.1557 130.971 23.9832 130.395 22.9732L128.323 19.4084C127.744 18.3995 126.846 17.6121 125.77 17.1707C124.694 16.7293 123.502 16.659 122.381 16.9709C120.864 17.37 119.369 17.848 117.902 18.4029C117.808 18.4381 117.706 18.4509 117.606 18.4403C117.505 18.4297 117.409 18.3961 117.323 18.342L113.515 16.1482C113.427 16.1031 113.352 16.0384 113.294 15.9591C113.235 15.8798 113.196 15.7881 113.18 15.6912C112.934 14.1519 112.609 12.6264 112.205 11.1209C111.912 9.99442 111.254 8.99706 110.333 8.28559C109.412 7.57412 108.28 7.18888 107.116 7.19043H102.973C101.81 7.19356 100.681 7.58055 99.7608 8.29129C98.8407 9.00204 98.1811 9.99675 97.8844 11.1209C97.4805 12.6264 97.1551 14.1519 96.9094 15.6912C96.8926 15.7881 96.8536 15.8798 96.7954 15.9591C96.7373 16.0384 96.6616 16.1031 96.5742 16.1482L92.7656 18.3115C92.5879 18.4064 92.3803 18.4283 92.1867 18.3725C90.7197 17.8175 89.2247 17.3395 87.7078 16.9404C86.5874 16.6285 85.3951 16.6988 84.3191 17.1402C83.2431 17.5817 82.3449 18.369 81.7664 19.3779L79.6945 22.9428C79.1105 23.9507 78.8802 25.125 79.0403 26.2788C79.2004 27.4327 79.7417 28.4999 80.5781 29.3107C81.6774 30.4199 82.8369 31.4676 84.0516 32.449C84.1289 32.5111 84.1911 32.5901 84.2333 32.6798C84.2756 32.7696 84.2968 32.8678 84.2953 32.967V37.3545C84.2933 37.4393 84.2725 37.5225 84.2344 37.5982H19.0312C17.9307 37.5974 16.8408 37.8136 15.8238 38.2344C14.8069 38.6552 13.8829 39.2724 13.1047 40.0506C12.3265 40.8288 11.7093 41.7528 11.2885 42.7697C10.8677 43.7867 10.6515 44.8766 10.6523 45.9771V125.196C10.6548 126.519 10.9679 127.824 11.5664 129.005H3.94922C3.02011 129.022 2.13437 129.401 1.48013 130.061C0.825882 130.721 0.454664 131.61 0.445313 132.539L0.445312 138.633C0.445313 141.34 1.52069 143.936 3.43488 145.85C5.34907 147.764 7.94527 148.84 10.6523 148.84H117.415C118.021 148.84 118.602 148.599 119.031 148.17C119.459 147.742 119.7 147.161 119.7 146.555C119.7 145.948 119.459 145.367 119.031 144.939C118.602 144.51 118.021 144.269 117.415 144.269H10.6523C9.15789 144.268 7.7251 143.673 6.66836 142.617C5.61162 141.56 5.01724 140.127 5.01562 138.633V133.605H62.1445V134.976C62.1429 135.757 62.2955 136.53 62.5935 137.252C62.8915 137.974 63.3291 138.629 63.8811 139.181C64.4332 139.733 65.0888 140.171 65.8104 140.469C66.5319 140.767 67.3053 140.919 68.0859 140.918H88.8047C89.5854 140.919 90.3587 140.767 91.0803 140.469C91.8018 140.171 92.4575 139.733 93.0095 139.181C93.5615 138.629 93.9991 137.974 94.2971 137.252C94.5951 136.53 94.7477 135.757 94.7461 134.976V133.605H151.875V138.633C151.873 140.127 151.279 141.56 150.222 142.617C149.166 143.673 147.733 144.268 146.238 144.269H127.256C126.65 144.269 126.069 144.51 125.64 144.939C125.212 145.367 124.971 145.948 124.971 146.555C124.971 147.161 125.212 147.742 125.64 148.17C126.069 148.599 126.65 148.84 127.256 148.84H146.238C148.945 148.84 151.542 147.764 153.456 145.85C155.37 143.936 156.445 141.34 156.445 138.633V132.539C156.44 131.611 156.069 130.723 155.413 130.067C154.757 129.412 153.869 129.041 152.941 129.035ZM71.925 51.8272C72.2993 53.1696 72.5944 54.5329 72.8086 55.91C72.914 56.6987 73.1997 57.4526 73.6435 58.1131C74.0874 58.7736 74.6775 59.323 75.368 59.7186L79.1766 61.9123C79.8634 62.3103 80.6315 62.5472 81.4232 62.6052C82.2148 62.6633 83.0093 62.541 83.7469 62.2475C84.6 61.9123 86.032 61.4553 87.7383 60.9678C87.8808 60.9213 88.0352 60.9263 88.1744 60.982C88.3136 61.0377 88.4289 61.1405 88.5 61.2725L90.5719 64.8373C90.6435 64.9691 90.6704 65.1206 90.6484 65.269C90.6264 65.4174 90.5568 65.5546 90.45 65.66C89.1703 66.9092 88.0734 67.8842 87.3422 68.4631C86.7151 68.9495 86.2077 69.5732 85.8591 70.2862C85.5105 70.9993 85.33 71.7827 85.3313 72.5764V76.9639C85.3267 77.7581 85.5059 78.5426 85.8547 79.2562C86.2036 79.9697 86.7126 80.5929 87.3422 81.0772C88.0734 81.6561 89.1703 82.6311 90.45 83.8803C90.5568 83.9856 90.6264 84.1228 90.6484 84.2712C90.6704 84.4196 90.6435 84.5711 90.5719 84.7029L88.5 88.2678C88.4289 88.3998 88.3136 88.5026 88.1744 88.5583C88.0352 88.614 87.8808 88.619 87.7383 88.5725C86.3862 88.2166 85.0538 87.7894 83.7469 87.2928C83.011 86.9918 82.2153 86.8654 81.4224 86.9236C80.6294 86.9817 79.8607 87.2228 79.1766 87.6279L75.368 89.8217C74.6775 90.2172 74.0874 90.7666 73.6435 91.4271C73.1997 92.0876 72.914 92.8415 72.8086 93.6303C72.6867 94.5443 72.3516 95.9764 71.925 97.7131C71.8897 97.8576 71.808 97.9864 71.6925 98.08C71.5769 98.1736 71.4338 98.2266 71.2852 98.2311H67.1414C66.9915 98.2315 66.846 98.1802 66.7294 98.0858C66.6129 97.9915 66.5324 97.8598 66.5016 97.7131C66.1273 96.3707 65.8322 95.0074 65.618 93.6303C65.5084 92.8428 65.221 92.0907 64.7776 91.4308C64.3341 90.7709 63.7463 90.2206 63.0586 89.8217L59.25 87.6279C58.5617 87.234 57.7938 86.9994 57.0029 86.9414C56.212 86.8834 55.4181 87.0035 54.6797 87.2928C53.8266 87.6279 52.3945 88.085 50.6883 88.5725C50.5457 88.619 50.3914 88.614 50.2522 88.5583C50.1129 88.5026 49.9977 88.3998 49.9266 88.2678L47.8547 84.7029C47.783 84.5711 47.7562 84.4196 47.7782 84.2712C47.8002 84.1228 47.8698 83.9856 47.9766 83.8803C49.2562 82.6311 50.3531 81.6561 51.0844 81.0772C51.7115 80.5907 52.2188 79.967 52.5674 79.254C52.916 78.541 53.0966 77.7576 53.0953 76.9639V72.5764C53.0998 71.7821 52.9207 70.9976 52.5718 70.2841C52.223 69.5706 51.7139 68.9473 51.0844 68.4631C50.3531 67.8842 49.2562 66.9092 47.9766 65.66C47.8698 65.5546 47.8002 65.4174 47.7782 65.269C47.7562 65.1206 47.783 64.9691 47.8547 64.8373L49.9266 61.2725C49.9977 61.1405 50.1129 61.0377 50.2522 60.982C50.3914 60.9263 50.5457 60.9213 50.6883 60.9678C52.3945 61.4553 53.8266 61.9123 54.6797 62.2475C55.4156 62.5485 56.2113 62.6748 57.0042 62.6167C57.7972 62.5585 58.5659 62.3174 59.25 61.9123L63.0586 59.7186C63.7491 59.323 64.3392 58.7736 64.783 58.1131C65.2269 57.4526 65.5126 56.6987 65.618 55.91C65.7398 54.9959 66.075 53.5639 66.5016 51.8272C66.5368 51.6827 66.6185 51.5538 66.7341 51.4602C66.8497 51.3667 66.9928 51.3136 67.1414 51.3092H71.2852C71.4325 51.3179 71.5735 51.3725 71.6883 51.4654C71.803 51.5583 71.8858 51.6848 71.925 51.8272ZM83.7469 26.0506C83.6401 25.9452 83.5705 25.808 83.5485 25.6596C83.5265 25.5112 83.5534 25.3597 83.625 25.2279L85.6969 21.6631C85.768 21.5311 85.8833 21.4283 86.0225 21.3726C86.1617 21.3169 86.316 21.3119 86.4586 21.3584C88.1648 21.8459 89.5969 22.3029 90.45 22.6381C91.1859 22.9391 91.9816 23.0655 92.7745 23.0073C93.5675 22.9492 94.3362 22.7081 95.0203 22.3029L98.8289 20.1092C99.5194 19.7136 100.109 19.1643 100.553 18.5038C100.997 17.8433 101.283 17.0894 101.388 16.3006C101.51 15.3865 101.845 13.9545 102.272 12.2178C102.307 12.0733 102.389 11.9444 102.504 11.8509C102.62 11.7573 102.763 11.7042 102.912 11.6998H107.055C107.205 11.6994 107.351 11.7507 107.467 11.8451C107.584 11.9394 107.664 12.071 107.695 12.2178C108.07 13.5602 108.365 14.9235 108.579 16.3006C108.684 17.0894 108.97 17.8433 109.414 18.5038C109.858 19.1643 110.448 19.7136 111.138 20.1092L114.947 22.3029C115.634 22.7009 116.402 22.9378 117.194 22.9959C117.985 23.0539 118.78 22.9316 119.517 22.6381C120.37 22.3029 121.802 21.8459 123.509 21.3584C123.651 21.3119 123.805 21.3169 123.945 21.3726C124.084 21.4283 124.199 21.5311 124.27 21.6631L126.342 25.2279C126.414 25.3597 126.441 25.5112 126.419 25.6596C126.397 25.808 126.327 25.9452 126.22 26.0506C124.941 27.2998 123.844 28.2748 123.113 28.8537C122.485 29.3402 121.978 29.9638 121.629 30.6769C121.281 31.3899 121.1 32.1733 121.102 32.967V37.3545C121.097 38.1487 121.276 38.9332 121.625 39.6468C121.974 40.3603 122.483 40.9835 123.113 41.4678C123.844 42.0467 124.941 43.0217 126.22 44.2709C126.327 44.3763 126.397 44.5135 126.419 44.6619C126.441 44.8103 126.414 44.9618 126.342 45.0936L124.27 48.6584C124.199 48.7904 124.084 48.8932 123.945 48.9489C123.805 49.0046 123.651 49.0096 123.509 48.9631C121.802 48.4756 120.37 48.0186 119.517 47.6834C118.781 47.3824 117.986 47.256 117.193 47.3142C116.4 47.3723 115.631 47.6134 114.947 48.0186L111.138 50.2123C110.448 50.6079 109.858 51.1572 109.414 51.8177C108.97 52.4782 108.684 53.2321 108.579 54.0209C108.457 54.935 108.122 56.367 107.695 58.1037C107.66 58.2482 107.578 58.3771 107.463 58.4706C107.347 58.5642 107.204 58.6173 107.055 58.6217H102.912C102.762 58.6221 102.616 58.5708 102.5 58.4764C102.383 58.3821 102.303 58.2505 102.272 58.1037C101.898 56.7613 101.603 55.398 101.388 54.0209C101.279 53.2335 100.991 52.4813 100.548 51.8214C100.104 51.1615 99.5166 50.6113 98.8289 50.2123L95.0203 48.0186C94.332 47.6246 93.5641 47.39 92.7732 47.332C91.9823 47.274 91.1884 47.3941 90.45 47.6834C89.5969 48.0186 88.1648 48.4756 86.4586 48.9631C86.316 49.0096 86.1617 49.0046 86.0225 48.9489C85.8833 48.8932 85.768 48.7904 85.6969 48.6584L85.3008 47.9576C85.2976 47.9345 85.2869 47.9131 85.2703 47.8967L83.6555 45.0936C83.5838 44.9618 83.557 44.8103 83.579 44.6619C83.6009 44.5135 83.6706 44.3763 83.7773 44.2709C85.057 43.0217 86.1539 42.0467 86.8852 41.4678C87.5123 40.9813 88.0196 40.3577 88.3682 39.6446C88.7168 38.9316 88.8974 38.1482 88.8961 37.3545V32.967C88.9006 32.1728 88.7215 31.3882 88.3726 30.6747C88.0238 29.9612 87.5147 29.3379 86.8852 28.8537C85.7872 27.9791 84.7394 27.0433 83.7469 26.0506ZM90.1758 134.976C90.1766 135.157 90.1417 135.335 90.0731 135.502C90.0044 135.669 89.9035 135.82 89.776 135.948C89.6485 136.075 89.497 136.176 89.3303 136.245C89.1636 136.313 88.985 136.348 88.8047 136.347H68.0859C67.9057 136.348 67.727 136.313 67.5603 136.245C67.3936 136.176 67.2421 136.075 67.1146 135.948C66.9872 135.82 66.8862 135.669 66.8176 135.502C66.7489 135.335 66.714 135.157 66.7148 134.976V133.605H90.1758V134.976Z" fill="black"/>
<path d="M105.013 47.592C107.47 47.5859 109.87 46.8517 111.911 45.4821C113.951 44.1125 115.54 42.1689 116.476 39.8969C117.412 37.6248 117.654 35.1263 117.171 32.7169C116.688 30.3075 115.501 28.0953 113.761 26.3598C112.022 24.6243 109.807 23.4433 107.396 22.9661C104.985 22.4889 102.488 22.7369 100.218 23.6787C97.9481 24.6205 96.0084 26.2138 94.6437 28.2575C93.2791 30.3011 92.5508 32.7033 92.5508 35.1607C92.5556 38.4615 93.8711 41.6252 96.2079 43.9564C98.5448 46.2875 101.712 47.5952 105.013 47.592ZM101.448 42.1685H108.577C107.474 42.7325 106.252 43.0249 105.013 43.0216C103.774 43.0214 102.552 42.7291 101.448 42.1685ZM105.013 27.2998C107.101 27.2981 109.104 28.1249 110.584 29.5985C112.063 31.0722 112.897 33.0726 112.904 35.1607C112.896 35.9986 112.763 36.8305 112.508 37.6287H97.4867C97.2271 36.8316 97.0935 35.999 97.0906 35.1607C97.1067 33.0703 97.9484 31.0709 99.4323 29.5984C100.916 28.126 102.922 27.2997 105.013 27.2998Z" fill="black"/>
<path d="M56.7227 74.7398C56.7167 77.2058 57.4424 79.6182 58.808 81.6715C60.1737 83.7248 62.1178 85.3268 64.3944 86.2747C66.6709 87.2225 69.1775 87.4737 71.5968 86.9963C74.0162 86.5189 76.2395 85.3344 77.9853 83.5929C79.7312 81.8513 80.9211 79.6309 81.4044 77.2127C81.8877 74.7945 81.6427 72.2873 80.7004 70.0085C79.7581 67.7296 78.1609 65.7816 76.1109 64.4109C74.061 63.0402 71.6504 62.3086 69.1844 62.3086C65.8854 62.311 62.7217 63.6205 60.3861 65.9504C58.0504 68.2804 56.7332 71.4408 56.7227 74.7398ZM77.0758 74.7398C77.0818 76.3019 76.6242 77.8306 75.7607 79.1323C74.8973 80.4341 73.6669 81.4503 72.2255 82.0522C70.7841 82.6542 69.1964 82.8148 67.6636 82.5138C66.1309 82.2127 64.7219 81.4636 63.6152 80.3612C62.5085 79.2588 61.7539 77.8527 61.4469 76.3211C61.14 74.7895 61.2945 73.2012 61.8908 71.7575C62.4872 70.3137 63.4986 69.0795 64.797 68.211C66.0954 67.3425 67.6223 66.8789 69.1844 66.8789C71.2726 66.8773 73.2761 67.704 74.7555 69.1777C76.2349 70.6514 77.0694 72.6517 77.0758 74.7398Z" fill="black"/>
</g>
<defs>
<clipPath id="dsasdas">
<rect width="156" height="156" fill="white" transform="translate(0.445312)"/>
</clipPath>
</defs>
</svg>
