<svg width="157" height="156" viewBox="0 0 157 156" fill="none" xmlns="http://www.w3.org/2000/svg">
<path d="M78.4437 147.225C116.676 147.225 147.669 116.232 147.669 78.0004C147.669 39.7685 116.676 8.77539 78.4437 8.77539C40.2118 8.77539 9.21875 39.7685 9.21875 78.0004C9.21875 116.232 40.2118 147.225 78.4437 147.225Z" fill="#A4C0EF"/>
<path d="M78.4453 124.922C52.5773 124.922 31.5234 103.868 31.5234 78C31.5234 52.132 52.5773 31.0781 78.4453 31.0781C104.313 31.0781 125.367 52.132 125.367 78C125.367 103.868 104.313 124.922 78.4453 124.922Z" fill="#FFEFEE"/>
<path d="M105.808 65.9645L90.8175 63.8012C90.2624 63.7277 89.7345 63.5164 89.2821 63.1864C88.8297 62.8564 88.4672 62.4183 88.2277 61.9121L81.5246 48.3535C81.2423 47.7781 80.8042 47.2933 80.2603 46.9543C79.7163 46.6153 79.0882 46.4355 78.4472 46.4355C77.8063 46.4355 77.1781 46.6153 76.6342 46.9543C76.0902 47.2933 75.6522 47.7781 75.3699 48.3535L68.6668 61.9121C68.4179 62.4114 68.0528 62.8436 67.6021 63.1724C67.1514 63.5011 66.6283 63.7168 66.0769 63.8012L51.0863 65.9645C50.4486 66.0551 49.8491 66.3226 49.3558 66.7366C48.8624 67.1506 48.495 67.6946 48.2951 68.3069C48.0953 68.9192 48.071 69.5752 48.225 70.2006C48.3791 70.8259 48.7053 71.3956 49.1668 71.8449L60.0136 82.4176C60.4172 82.804 60.7178 83.2851 60.8881 83.8172C61.0584 84.3493 61.0929 84.9156 60.9886 85.4645L58.4293 100.394C58.3201 101.028 58.3906 101.679 58.6326 102.274C58.8747 102.87 59.2788 103.385 59.799 103.763C60.3191 104.14 60.9347 104.364 61.5758 104.41C62.2169 104.455 62.8579 104.32 63.4261 104.02L76.8324 96.9817C77.327 96.7265 77.8754 96.5933 78.432 96.5933C78.9885 96.5933 79.537 96.7265 80.0316 96.9817L93.4379 104.02C94.0061 104.32 94.6471 104.455 95.2882 104.41C95.9293 104.364 96.5448 104.14 97.065 103.763C97.5852 103.385 97.9892 102.87 98.2313 102.274C98.4734 101.679 98.5439 101.028 98.4347 100.394L95.8754 85.4645C95.7843 84.9157 95.8253 84.3531 95.9948 83.8233C96.1644 83.2935 96.4576 82.8116 96.8503 82.4176L107.697 71.8449C108.157 71.3971 108.483 70.8299 108.637 70.2071C108.792 69.5843 108.77 68.9306 108.574 68.3196C108.378 67.7085 108.015 67.1644 107.526 66.7483C107.038 66.3323 106.443 66.0608 105.808 65.9645Z" fill="#FDE49D"/>
<path d="M78.4437 129.096C106.627 129.096 129.54 106.184 129.54 78.0004C129.54 49.8168 106.627 26.9043 78.4437 26.9043C50.2602 26.9043 27.3477 49.8168 27.3477 78.0004C27.3477 106.184 50.2602 129.096 78.4437 129.096ZM78.4437 35.2527C89.7811 35.2527 100.654 39.7565 108.671 47.7732C116.688 55.79 121.191 66.663 121.191 78.0004C121.191 89.3378 116.688 100.211 108.671 108.228C100.654 116.244 89.7811 120.748 78.4437 120.748C54.8914 120.748 35.6961 101.583 35.6961 78.0004C35.6961 54.4176 54.8914 35.2527 78.4437 35.2527Z" fill="black"/>
<path d="M54.3422 99.633C53.2758 105.849 59.7961 110.602 65.4024 107.677L78.443 100.821L91.4836 107.677C97.0594 110.632 103.61 105.879 102.544 99.633L100.045 85.0994L110.618 74.801C111.644 73.8159 112.368 72.5599 112.708 71.1791C113.048 69.7984 112.989 68.3495 112.538 67.001C110.435 60.4807 103.001 61.8213 99.2227 60.7853L101.447 57.7994C101.775 57.3593 102.013 56.8588 102.148 56.3266C102.283 55.7944 102.311 55.2409 102.232 54.6977C102.153 54.1545 101.967 53.6322 101.686 53.1606C101.405 52.6891 101.034 52.2775 100.594 51.9494C100.154 51.6213 99.6532 51.3831 99.121 51.2484C98.5888 51.1137 98.0353 51.0852 97.4921 51.1644C96.9489 51.2436 96.4266 51.4291 95.955 51.7101C95.4835 51.9912 95.0719 52.3624 94.7438 52.8025L90.9352 57.9213L85.2985 46.4955C82.4953 40.8283 74.4211 40.8283 71.618 46.4955L65.0977 59.7189L50.5032 61.8518C44.2571 62.7658 41.7586 70.4439 46.268 74.8619L56.8407 85.1603L54.3422 99.633ZM53.1844 69.8955L66.6821 67.9455C67.9037 67.7661 69.0633 67.2924 70.0612 66.5652C71.0591 65.838 71.8652 64.8792 72.4102 63.7713L78.443 51.5533C84.7196 64.1369 84.4149 64.0455 85.4508 65.2642L76.0055 77.9088L74.1469 75.4713C73.8148 75.0351 73.4001 74.6687 72.9263 74.3929C72.4526 74.117 71.9292 73.9372 71.386 73.8636C70.8428 73.7901 70.2904 73.8242 69.7603 73.9641C69.2303 74.104 68.733 74.347 68.2969 74.6791C67.8608 75.0112 67.4943 75.4259 67.2185 75.8997C66.9426 76.3734 66.7628 76.8968 66.6892 77.44C66.6157 77.9832 66.6498 78.5356 66.7898 79.0657C66.9297 79.5957 67.1726 80.093 67.5047 80.5291L72.7453 87.3541C73.1347 87.8657 73.637 88.2805 74.2131 88.5659C74.7892 88.8513 75.4235 88.9997 76.0664 88.9994H76.0969C76.742 88.994 77.3772 88.84 77.9532 88.5494C78.5291 88.2588 79.0304 87.8393 79.418 87.3236L93.5555 68.4025L103.732 69.8955L93.9821 79.4017C93.0959 80.2608 92.4328 81.3231 92.0505 82.4966C91.6682 83.6701 91.5782 84.9192 91.7883 86.1353L94.1039 99.5721L82.0383 93.2346C80.9421 92.6642 79.7245 92.3664 78.4887 92.3664C77.2529 92.3664 76.0354 92.6642 74.9391 93.2346L62.8735 99.5721L65.1891 86.1353C65.3992 84.9192 65.3092 83.6701 64.9269 82.4966C64.5446 81.3231 63.8815 80.2608 62.9953 79.4017L53.1844 69.8955Z" fill="black"/>
<path d="M78.4461 151.399C118.909 151.399 151.845 118.462 151.845 77.9998C151.845 37.5373 118.909 4.60059 78.4461 4.60059C37.9836 4.60059 5.04688 37.5373 5.04688 77.9998C5.04688 118.462 37.9836 151.399 78.4461 151.399ZM78.4461 12.949C114.308 12.949 143.497 42.1381 143.497 77.9998C143.497 113.862 114.308 143.051 78.4461 143.051C42.5844 143.051 13.3953 113.862 13.3953 77.9998C13.3953 42.1381 42.5844 12.949 78.4461 12.949Z" fill="black"/>
</svg>
