<svg width="157" height="156" viewBox="0 0 157 156" fill="none" xmlns="http://www.w3.org/2000/svg">
<g clip-path="url(#cli5456vp0)">
<path d="M109.625 45.4955L137.86 81.3877L153.217 68.1643L127.166 34.3135L109.625 45.4955Z" fill="#FDE49D"/>
<path d="M49.9953 45.4963L19.0086 83.2775L3.65234 70.0541L32.4758 34.3447L49.9953 45.4963Z" fill="#A4C0EF"/>
<path d="M137.859 81.3885L109.614 45.4963H86.7625L68.9078 50.6455L49.9867 45.4658L19 83.2471L34.3258 103.905L32.7109 105.52C31.3671 106.865 30.5662 108.659 30.4613 110.558C30.3565 112.457 30.955 114.328 32.1426 115.813C33.3302 117.298 35.0235 118.294 36.8988 118.61C38.7742 118.926 40.7002 118.539 42.3086 117.524V117.89C40.9001 119.346 40.119 121.296 40.133 123.322C40.147 125.348 40.955 127.287 42.3834 128.724C43.8118 130.16 45.7467 130.979 47.7723 131.004C49.7979 131.029 51.7526 130.259 53.2164 128.859V128.889C52.4749 129.602 51.8831 130.456 51.4755 131.4C51.068 132.345 50.8529 133.361 50.8428 134.39C50.8327 135.418 51.0279 136.439 51.4169 137.391C51.8059 138.343 52.3809 139.208 53.1083 139.936C53.8356 140.663 54.7008 141.238 55.653 141.627C56.6053 142.016 57.6256 142.211 58.6542 142.201C59.6828 142.191 60.6991 141.976 61.6435 141.568C62.588 141.161 63.4417 140.569 64.1547 139.828L65.6477 138.328V138.481C64.9062 139.194 64.3144 140.048 63.9068 140.992C63.4992 141.936 63.2841 142.953 63.2741 143.981C63.264 145.01 63.4592 146.03 63.8481 146.982C64.2371 147.935 64.8121 148.8 65.5395 149.527C66.2669 150.255 67.132 150.83 68.0843 151.219C69.0365 151.608 70.0568 151.803 71.0854 151.793C72.114 151.783 73.1303 151.568 74.0748 151.16C75.0193 150.752 75.873 150.161 76.5859 149.419L80.1813 145.824C80.7327 145.202 81.2225 144.529 81.6438 143.813C81.2682 144.558 80.7743 145.237 80.1813 145.824L80.1508 145.854L83.1063 148.231C84.5663 149.635 86.5186 150.41 88.544 150.39C90.5694 150.37 92.5063 149.557 93.9385 148.125C95.3707 146.693 96.1841 144.756 96.2039 142.73C96.2238 140.705 95.4485 138.753 94.0445 137.293C95.5045 138.696 97.4569 139.472 99.4823 139.452C101.508 139.432 103.445 138.619 104.877 137.186C106.309 135.754 107.122 133.817 107.142 131.792C107.162 129.767 106.387 127.814 104.983 126.354C106.443 127.758 108.395 128.533 110.421 128.514C112.446 128.494 114.383 127.68 115.815 126.248C117.247 124.816 118.061 122.879 118.081 120.854C118.1 118.828 117.325 116.876 115.921 115.416C116.634 116.157 117.488 116.749 118.432 117.157C119.377 117.564 120.393 117.779 121.422 117.79C122.45 117.8 123.47 117.604 124.423 117.215C125.375 116.826 126.24 116.251 126.968 115.524C127.695 114.797 128.27 113.932 128.659 112.979C129.048 112.027 129.243 111.007 129.233 109.978C129.223 108.95 129.008 107.933 128.6 106.989C128.193 106.044 127.601 105.191 126.859 104.478L137.859 81.3885Z" fill="#FCC89D"/>
<path d="M155.633 66.306L129.582 32.4552C129.116 31.8534 128.442 31.4477 127.692 31.318C126.942 31.1883 126.17 31.344 125.53 31.7544L108.711 42.4489H86.7733C86.4827 42.4551 86.1949 42.5065 85.9201 42.6013L68.9186 47.5068L51.2772 42.6927L34.1233 31.7849C33.4873 31.384 32.7262 31.2307 31.9847 31.3543C31.2432 31.4779 30.5729 31.8697 30.1014 32.4552L1.27794 68.1646C0.777586 68.7816 0.53802 69.5697 0.610303 70.3608C0.682586 71.152 1.061 71.8836 1.66489 72.3997L16.7774 85.4099L30.336 103.661C28.9587 105.13 28.0197 106.955 27.625 108.929C27.2303 110.904 27.3956 112.95 28.1024 114.836C28.8091 116.721 30.029 118.372 31.6244 119.6C33.2197 120.829 35.1269 121.588 37.1305 121.79C37.0445 122.334 37.0037 122.884 37.0086 123.435C37.0175 126.293 38.1567 129.031 40.1775 131.052C42.1984 133.073 44.9367 134.212 47.7946 134.221H47.9165V134.434C47.9253 137.292 49.0645 140.03 51.0854 142.051C53.1062 144.072 55.8445 145.211 58.7024 145.22C59.2628 145.211 59.8223 145.17 60.3782 145.098C60.6296 147.583 61.7267 149.906 63.486 151.679C64.4841 152.684 65.671 153.48 66.9782 154.024C68.2855 154.568 69.6873 154.848 71.1032 154.848C72.519 154.848 73.9209 154.568 75.2281 154.024C76.5354 153.48 77.7222 152.684 78.7204 151.679L80.3657 150.034L81.0665 150.583C83.1024 152.544 85.8272 153.627 88.6539 153.598C91.4806 153.57 94.183 152.432 96.179 150.43C97.2006 149.407 98.0073 148.19 98.5515 146.85C99.0956 145.511 99.3664 144.076 99.3477 142.63C100.793 142.657 102.229 142.393 103.57 141.853C104.911 141.313 106.129 140.509 107.153 139.488C108.176 138.467 108.984 137.251 109.527 135.912C110.071 134.572 110.339 133.137 110.316 131.692C111.764 131.725 113.203 131.46 114.545 130.915C115.886 130.37 117.102 129.556 118.116 128.523C119.138 127.5 119.945 126.283 120.489 124.943C121.033 123.604 121.304 122.169 121.285 120.723C123.24 120.751 125.166 120.247 126.858 119.266C128.549 118.285 129.943 116.864 130.891 115.154C131.838 113.443 132.304 111.508 132.238 109.554C132.172 107.599 131.577 105.7 130.517 104.057L140.42 83.338L155.288 70.5411C155.859 70.0025 156.21 69.2717 156.273 68.4896C156.337 67.7076 156.109 66.9297 155.633 66.306ZM33.1178 38.3661L45.4576 46.1966L18.6147 78.8896L7.85919 69.6271L33.1178 38.3661ZM34.8545 107.683L38.5717 103.965C38.6859 103.855 38.8081 103.753 38.9373 103.661C39.6643 103.081 40.5417 102.722 41.4662 102.625H41.5576C41.6795 102.625 41.8318 102.594 41.9537 102.594C43.2205 102.619 44.4259 103.145 45.3053 104.057C47.042 105.885 46.9506 108.871 45.092 110.699L41.4967 114.294C40.6178 115.165 39.4303 115.652 38.1932 115.651C36.9561 115.649 35.7699 115.159 34.8931 114.286C34.0164 113.413 33.5203 112.229 33.513 110.992C33.5058 109.755 33.988 108.565 34.8545 107.683ZM44.4522 126.695C43.574 125.813 43.0809 124.619 43.0809 123.374C43.0809 122.129 43.574 120.935 44.4522 120.053L51.6733 112.832C52.3627 112.154 53.243 111.703 54.1961 111.54C55.1491 111.376 56.1294 111.508 57.0053 111.918C57.8922 112.35 58.6201 113.05 59.0851 113.92C59.5502 114.79 59.7287 115.785 59.5951 116.762C59.4454 117.833 58.9538 118.827 58.1936 119.596L51.0943 126.695C50.6584 127.131 50.1406 127.477 49.5706 127.712C49.0007 127.947 48.3899 128.068 47.7733 128.066C47.1562 128.071 46.5446 127.951 45.9742 127.716C45.4039 127.481 44.8864 127.133 44.4522 126.695ZM55.3295 137.694C54.4513 136.812 53.9583 135.618 53.9583 134.373C53.9583 133.128 54.4513 131.934 55.3295 131.052L62.5506 123.831C63.2874 123.11 64.2392 122.648 65.2617 122.516C66.2843 122.384 67.322 122.589 68.2178 123.1C69.0192 123.573 69.6598 124.277 70.0564 125.119C70.453 125.961 70.5873 126.903 70.442 127.822C70.291 128.866 69.7981 129.831 69.0404 130.565L61.9412 137.664C61.5053 138.1 60.9874 138.445 60.4175 138.681C59.8476 138.916 59.2367 139.036 58.6201 139.035C58.0099 139.042 57.4044 138.928 56.8392 138.697C56.274 138.467 55.7607 138.126 55.3295 137.694ZM67.7607 147.292C67.3261 146.858 66.9813 146.343 66.746 145.776C66.5107 145.208 66.3896 144.6 66.3896 143.986C66.3896 143.372 66.5107 142.764 66.746 142.197C66.9813 141.629 67.3261 141.114 67.7607 140.68L71.4779 136.963C71.5921 136.853 71.7144 136.751 71.8436 136.658C72.4458 136.172 73.1565 135.837 73.9154 135.683H73.9764C74.0983 135.653 74.2506 135.653 74.3725 135.622H74.86C76.1268 135.647 77.3321 136.173 78.2115 137.085C78.322 137.199 78.4238 137.321 78.5162 137.451C79.2004 138.389 79.5244 139.543 79.4293 140.7C79.3343 141.858 78.8264 142.943 77.9983 143.758L74.4029 147.353C73.5056 148.209 72.3098 148.682 71.0695 148.67C69.8292 148.659 68.6422 148.164 67.7607 147.292ZM124.707 113.197C124.273 113.632 123.758 113.977 123.19 114.212C122.623 114.447 122.015 114.569 121.401 114.569C120.787 114.569 120.179 114.447 119.612 114.212C119.044 113.977 118.529 113.632 118.095 113.197C118.031 113.129 117.959 113.068 117.882 113.015L98.2508 93.1794C97.6811 92.6016 96.9053 92.2738 96.0939 92.2681C95.2825 92.2624 94.5021 92.5793 93.9243 93.1489C93.3465 93.7186 93.0187 94.4945 93.013 95.3059C93.0073 96.1173 93.3241 96.8977 93.8938 97.4755L113.729 117.524C114.595 118.407 115.078 119.597 115.07 120.834C115.063 122.071 114.567 123.255 113.69 124.127C112.814 125 111.627 125.491 110.39 125.492C109.153 125.494 107.966 125.006 107.087 124.136L93.8024 110.729C93.2327 110.152 92.4568 109.824 91.6454 109.818C90.834 109.812 90.0536 110.129 89.4758 110.699C88.8981 111.269 88.5703 112.045 88.5645 112.856C88.5588 113.667 88.8757 114.448 89.4454 115.026L102.516 128.218C102.577 128.31 102.669 128.371 102.73 128.462C103.164 128.896 103.508 129.412 103.743 129.979C103.978 130.546 104.099 131.154 104.099 131.768C104.099 132.382 103.978 132.99 103.743 133.557C103.508 134.124 103.164 134.64 102.73 135.074C102.296 135.508 101.78 135.852 101.213 136.087C100.646 136.322 100.038 136.443 99.4239 136.443C98.8099 136.443 98.202 136.322 97.6348 136.087C97.0675 135.852 96.5522 135.508 96.118 135.074L88.8665 127.761C88.2968 127.184 87.5209 126.856 86.7095 126.85C85.8981 126.844 85.1177 127.161 84.5399 127.731C83.9621 128.301 83.6343 129.077 83.6286 129.888C83.6229 130.699 83.9397 131.48 84.5094 132.058L91.5477 139.187C91.6087 139.279 91.7001 139.34 91.761 139.431C92.6378 140.308 93.1303 141.497 93.1303 142.737C93.1303 143.977 92.6378 145.166 91.761 146.043C90.8842 146.919 89.6951 147.412 88.4551 147.412C87.2152 147.412 86.026 146.919 85.1493 146.043C84.9292 145.843 84.695 145.66 84.4485 145.494C84.2352 145.342 84.2048 145.251 84.2962 145.007C84.406 144.767 84.528 144.533 84.6618 144.306C84.7816 144.028 84.8833 143.743 84.9665 143.453C85.4311 141.935 85.5661 140.335 85.3626 138.761C85.1713 137.268 84.6649 135.834 83.8769 134.552C83.089 133.27 82.0375 132.171 80.7922 131.326C79.4291 130.407 77.8782 129.803 76.2524 129.559C76.6217 127.996 76.6351 126.369 76.2916 124.8C75.9482 123.231 75.2567 121.758 74.2682 120.492C73.2797 119.226 72.0194 118.197 70.5804 117.483C69.1413 116.769 67.5603 116.387 65.954 116.366H65.6188C65.6573 114.947 65.4132 113.534 64.9008 112.21C64.3885 110.886 63.618 109.678 62.6342 108.654C61.6504 107.631 60.4729 106.813 59.1702 106.249C57.8675 105.684 56.4657 105.385 55.0461 105.367C54.1755 105.364 53.3071 105.456 52.4563 105.641C52.0842 103.103 50.8205 100.781 48.8915 99.0904C46.9841 97.4203 44.5406 96.4904 42.0055 96.47C39.286 96.4316 36.6524 97.4219 34.6321 99.2427L22.8407 83.338L51.0852 48.9388L60.0735 51.4068L48.3126 72.156C46.9047 74.6494 46.5438 77.5996 47.3093 80.3589C48.0748 83.1181 49.9041 85.4607 52.3954 86.8724C52.5482 86.9716 52.7118 87.0534 52.8829 87.1161C52.8909 87.1161 52.8987 87.1193 52.9044 87.1251C52.9101 87.1308 52.9133 87.1385 52.9133 87.1466C53.3285 87.355 53.7558 87.5381 54.193 87.695C56.5807 88.5086 59.1774 88.4638 61.5356 87.5683C63.8938 86.6729 65.8658 84.9829 67.1118 82.7896L74.7594 69.3224L88.4094 70.2974L124.698 106.586C125.133 107.019 125.479 107.534 125.715 108.101C125.951 108.668 126.073 109.276 126.073 109.89C126.074 110.504 125.954 111.112 125.72 111.68C125.485 112.247 125.141 112.763 124.707 113.197ZM125.956 99.2122L91.9225 65.1482C91.8581 65.0798 91.7866 65.0186 91.7092 64.9654C91.219 64.554 90.6109 64.3086 89.9725 64.2646L73.2665 63.0702C72.6909 63.0315 72.1163 63.157 71.6093 63.4321C71.1022 63.7072 70.6837 64.1206 70.4024 64.6241L61.8102 79.7671C61.51 80.3048 61.1043 80.7763 60.6174 81.1533C60.1305 81.5302 59.5724 81.8049 58.9766 81.9608C58.3835 82.1274 57.7634 82.1754 57.1517 82.1022C56.5401 82.029 55.9488 81.836 55.4118 81.5343C54.8741 81.2341 54.4026 80.8284 54.0256 80.3414C53.6486 79.8545 53.3739 79.2964 53.218 78.7007C53.0515 78.1076 53.0034 77.4875 53.0766 76.8758C53.1498 76.2641 53.3428 75.6729 53.6446 75.1358L65.1008 54.9046L69.7321 53.5639C69.7626 53.5639 69.793 53.5335 69.8235 53.5335L87.1602 48.5366H108.092L134.234 81.778L125.956 99.2122ZM138.296 77.0005L114.095 46.2575L126.434 38.3966L149.042 67.738L138.296 77.0005Z" fill="black"/>
<path d="M94.9008 36.7213C95.7091 36.7181 96.4846 36.4013 97.0641 35.8377L117.905 14.9971C118.479 14.4245 118.803 13.6472 118.804 12.8361C118.806 12.025 118.485 11.2466 117.912 10.672C117.34 10.0975 116.562 9.77389 115.751 9.77247C114.94 9.77104 114.162 10.0919 113.587 10.6644L92.7466 31.505C92.1758 32.0803 91.8555 32.8579 91.8555 33.6683C91.8555 34.4787 92.1758 35.2563 92.7466 35.8316C93.3228 36.3953 94.0948 36.7141 94.9008 36.7213Z" fill="black"/>
<path d="M59.7757 35.8379C60.0586 36.1228 60.3959 36.3478 60.7676 36.4996C61.1392 36.6514 61.5376 36.7269 61.939 36.7215C62.7474 36.7183 63.5229 36.4015 64.1023 35.8379C64.6731 35.2626 64.9935 34.485 64.9935 33.6746C64.9935 32.8642 64.6731 32.0866 64.1023 31.5113L43.2617 10.6646C42.6879 10.0909 41.9098 9.76855 41.0984 9.76855C40.287 9.76855 39.5089 10.0909 38.9351 10.6646C38.3614 11.2384 38.0391 12.0165 38.0391 12.8279C38.0391 13.6393 38.3614 14.4174 38.9351 14.9912L59.7757 35.8379Z" fill="black"/>
<path d="M78.4258 36.7211C79.2339 36.7211 80.0089 36.4001 80.5803 35.8287C81.1517 35.2573 81.4727 34.4823 81.4727 33.6742V16.3984C81.4727 15.5904 81.1517 14.8154 80.5803 14.244C80.0089 13.6726 79.2339 13.3516 78.4258 13.3516C77.6177 13.3516 76.8428 13.6726 76.2714 14.244C75.7 14.8154 75.3789 15.5904 75.3789 16.3984V33.6437C75.3769 34.0459 75.4542 34.4445 75.6062 34.8167C75.7582 35.189 75.9821 35.5277 76.265 35.8135C76.548 36.0992 76.8844 36.3265 77.2552 36.4822C77.6259 36.6379 78.0237 36.7191 78.4258 36.7211Z" fill="black"/>
<path d="M75.6221 5.33766C75.7955 5.7759 76.0681 6.16796 76.4187 6.483C76.7692 6.79804 77.188 7.02747 77.6422 7.15325C78.0964 7.27903 78.5736 7.29773 79.0362 7.20788C79.4989 7.11803 79.9344 6.92208 80.3085 6.63544C80.6826 6.3488 80.9851 5.97928 81.1922 5.55595C81.3994 5.13261 81.5055 4.66699 81.5022 4.19571C81.4989 3.72443 81.3863 3.26034 81.1734 2.83992C80.9604 2.4195 80.6527 2.05423 80.2747 1.77281C79.7642 1.39059 79.1488 1.174 78.5114 1.15221C77.874 1.13042 77.2453 1.30448 76.7099 1.65094C76.1326 2.04698 75.7094 2.62971 75.5113 3.30113C75.3132 3.97255 75.3523 4.6917 75.6221 5.33766Z" fill="black"/>
</g>
<defs>
<clipPath id="cli5456vp0">
<rect width="156" height="156" fill="white" transform="translate(0.445312)"/>
</clipPath>
</defs>
</svg>
