<svg width="156" height="156" viewBox="0 0 156 156" fill="none" xmlns="http://www.w3.org/2000/svg">
<g clip-path="url(#64tgdfvx)">
<path d="M41.3148 76.7814C40.6445 67.3666 33.6672 59.6885 24.2219 59.6885C14.7766 59.6885 7.79922 67.3514 7.12891 76.7814C6.73281 82.3877 7.12891 91.4369 4.69141 96.3119C4.69141 96.3119 7.12891 101.187 16.1477 103.655H32.3875C41.3453 101.217 43.7828 96.3424 43.7828 96.3424C41.3148 91.4217 41.7109 82.3725 41.3148 76.7814Z" fill="#694B4B"/>
<path d="M21.7844 76.7814C12.3695 72.0893 14.3195 62.8572 21.0227 59.9932C13.2531 61.5166 7.73828 68.4635 7.12891 76.7814C6.73281 82.3877 7.12891 91.4369 4.69141 96.3119C4.69141 96.3119 7.12891 101.187 16.1477 103.655H23.8563L21.7844 76.7814Z" fill="#5A4146"/>
<path d="M42.1367 109.52L34.2453 105.559C33.4358 105.153 32.7541 104.532 32.2756 103.763C31.7971 102.994 31.5403 102.108 31.5336 101.202V93.8896H16.8781V101.202C16.8816 102.11 16.6291 103 16.1494 103.771C15.6697 104.542 14.9824 105.161 14.1664 105.559L6.275 109.52C5.05837 110.133 4.03548 111.071 3.32008 112.23C2.60467 113.389 2.22479 114.724 2.22266 116.086V132.966H46.1891V116.086C46.1975 114.722 45.822 113.383 45.1054 112.221C44.3888 111.06 43.3601 110.124 42.1367 109.52Z" fill="#E6AF78"/>
<path d="M46.1891 116.086C46.19 114.725 45.8113 113.391 45.0954 112.234C44.3795 111.076 43.3548 110.142 42.1367 109.535L34.2453 105.574C33.7903 105.353 33.3777 105.054 33.0266 104.69L30.2234 107.798C26.9023 111.485 21.5094 111.485 18.1883 107.798L15.3852 104.69C15.018 105.035 14.6085 105.332 14.1664 105.574L6.275 109.535C5.06067 110.146 4.03931 111.082 3.32406 112.238C2.60881 113.395 2.2276 114.726 2.22266 116.086V132.965H46.1891V116.086Z" fill="#FF833D"/>
<path d="M24.2233 98.7346C21.5706 98.7376 18.9669 98.019 16.6913 96.6557C14.4156 95.2925 12.5536 93.3359 11.3046 90.9956C9.62878 87.8573 10.7257 83.9268 13.6202 81.8854C14.1686 81.4893 14.7475 81.0323 15.3264 80.5448C16.7244 79.3079 17.8635 77.8064 18.678 76.1268C18.9115 75.6223 19.3116 75.2136 19.811 74.9695C20.3104 74.7253 20.8787 74.6606 21.4202 74.7862C27.5192 76.3483 33.1924 79.2525 38.0257 83.287C38.3021 83.5214 38.5202 83.8168 38.663 84.1499C38.8058 84.483 38.8692 84.8447 38.8483 85.2065C38.5579 88.8872 36.8916 92.3234 34.1812 94.8305C31.4708 97.3376 27.9154 98.7315 24.2233 98.7346Z" fill="#F0C087"/>
<path d="M37.9976 83.2865C33.1802 79.2456 27.5153 76.3402 21.4226 74.7857C20.881 74.6571 20.3116 74.7205 19.8115 74.965C19.3114 75.2095 18.9116 75.62 18.6804 76.1263C18.0993 77.3142 17.3502 78.4121 16.4562 79.3865C16.1211 79.7521 15.7554 80.1482 15.3593 80.5138C14.8335 80.9783 14.2844 81.4155 13.714 81.824C10.2711 84.2006 9.75309 88.5881 11.8554 91.9092C12.98 93.6779 14.4699 95.1856 16.2251 96.3312C17.9803 97.4769 19.9602 98.2338 22.032 98.5514C19.107 96.5709 16.9132 93.8592 16.9132 88.9842V87.0951C17.4937 86.687 18.053 86.2498 18.589 85.7849C19.9343 84.5753 21.1126 83.1921 22.0929 81.6717C26.7499 83.1217 31.0769 85.4716 34.8289 88.5881C35.2859 88.9842 35.9257 89.5631 37.2968 90.8428C38.15 89.4717 38.7593 86.8209 38.8812 85.267C38.8873 84.8924 38.8113 84.521 38.6587 84.1789C38.506 83.8368 38.2804 83.5322 37.9976 83.2865Z" fill="#E6AF78"/>
<path d="M3.71564 111.652C2.74418 112.926 2.21946 114.484 2.22267 116.086V132.965H12.0031V120.656C12.0063 119.924 11.8434 119.201 11.5267 118.541C11.2101 117.882 10.7479 117.303 10.175 116.847L3.71564 111.652Z" fill="#DE6C35"/>
<path d="M112.156 69.4234V71.1297C112.155 73.2321 112.495 75.3209 113.162 77.3148L117.031 88.9691H124.344V62.0957H119.469C117.531 62.1085 115.676 62.8851 114.307 64.257C112.938 65.6289 112.165 67.4853 112.156 69.4234Z" fill="#5A4146"/>
<path d="M145.763 73.8412L141.437 88.9689L121.906 71.876C120.613 71.876 119.373 71.3624 118.459 70.4481C117.545 69.5339 117.031 68.2939 117.031 67.001C117.031 65.0616 117.802 63.2016 119.173 61.8303C120.544 60.4589 122.404 59.6885 124.344 59.6885H146.312V69.8346C146.342 71.1907 146.157 72.5431 145.763 73.8412Z" fill="#694B4B"/>
<path d="M136.562 96.2969H121.906V110.952H136.562V96.2969Z" fill="#E6AF78"/>
<path d="M148.353 105.59L136.562 102.238L129.249 110.952L121.937 102.238L110.145 105.59C108.619 106.031 107.277 106.956 106.321 108.225C105.365 109.494 104.847 111.039 104.844 112.628V132.92H153.685V112.628C153.67 111.038 153.143 109.495 152.183 108.227C151.223 106.96 149.88 106.035 148.353 105.59Z" fill="#FF833D"/>
<path d="M129.249 98.7339C127.325 98.7355 125.42 98.358 123.642 97.623C121.865 96.888 120.249 95.81 118.888 94.4504C117.527 93.0908 116.447 91.4763 115.71 89.6993C114.974 87.9222 114.594 86.0174 114.594 84.0937C114.598 80.9662 115.835 77.9665 118.037 75.7452L120.444 73.3382C120.906 72.8731 121.457 72.5064 122.064 72.2603C122.672 72.0141 123.323 71.8937 123.978 71.9062C131.778 72.1499 138.695 73.8257 142.473 77.5124C142.924 77.9704 143.28 78.513 143.52 79.1091C143.761 79.7053 143.881 80.3431 143.874 80.9858V84.0937C143.88 86.0165 143.505 87.9216 142.773 89.6994C142.04 91.4771 140.963 93.0926 139.604 94.453C138.245 95.8134 136.631 96.8919 134.854 97.6265C133.077 98.3612 131.172 98.7375 129.249 98.7339Z" fill="#F0C087"/>
<path d="M121.902 84.0931C121.901 83.4264 122.037 82.7666 122.3 82.1543C122.564 81.5421 122.951 80.9905 123.436 80.5336C123.922 80.0767 124.496 79.7242 125.123 79.4979C125.75 79.2717 126.417 79.1764 127.082 79.2181C132.018 79.5228 139.331 80.3454 143.809 82.5087C143.657 81.4728 143.231 78.2431 142.469 77.5118C138.691 73.8251 131.774 72.1493 123.974 71.9056C123.319 71.8904 122.667 72.0097 122.059 72.2559C121.451 72.5022 120.9 72.8703 120.44 73.3376L118.033 75.7446C116.937 76.8405 116.069 78.1423 115.478 79.575C114.887 81.0078 114.585 82.5433 114.59 84.0931C114.594 87.2714 115.629 90.3626 117.542 92.9013C119.454 95.44 122.139 97.2889 125.193 98.1696C123.073 95.5726 121.921 92.3203 121.933 88.9681L121.902 84.0931Z" fill="#E6AF78"/>
<path d="M143.902 119.91C143.9 118.949 144.087 117.996 144.453 117.108C144.819 116.219 145.357 115.411 146.035 114.73L152.342 108.469C153.218 109.695 153.687 111.166 153.683 112.673V132.966H143.902V119.925V119.91Z" fill="#DE6C35"/>
<path d="M113.039 106.169L92.5945 98.7344L77.9391 103.609L63.2836 98.7344L42.8391 106.169C40.9548 106.851 39.3267 108.098 38.1764 109.739C37.026 111.38 36.4093 113.336 36.4102 115.34V132.92H119.438V115.34C119.449 113.338 118.839 111.381 117.694 109.739C116.548 108.097 114.922 106.85 113.039 106.169Z" fill="#A4C0EF"/>
<path d="M104.814 48.3693V27.9248C104.814 26.6319 104.3 25.3919 103.386 24.4777C102.472 23.5634 101.232 23.0498 99.9391 23.0498H70.6281C65.4483 23.0498 60.4807 25.1075 56.818 28.7701C53.1553 32.4328 51.0977 37.4005 51.0977 42.5803V48.3998C51.0986 51.0197 51.5203 53.6223 52.3469 56.1084L53.1695 58.5459C53.4119 59.2939 53.5353 60.0753 53.5352 60.8615V62.1107H102.377V60.8615C102.374 60.0751 102.498 59.2933 102.742 58.5459L103.565 56.1084C104.389 53.6113 104.811 50.999 104.814 48.3693Z" fill="#5A4146"/>
<path d="M63.3126 32.9524C63.3134 35.5865 64.3601 38.1124 66.2227 39.975C68.0853 41.8376 70.6113 42.8844 73.2454 42.8852H74.6165L75.2868 62.111H102.404V60.8617C102.401 60.0753 102.525 59.2935 102.77 58.5461L103.592 56.1086C104.416 53.622 104.838 51.0197 104.841 48.4V27.925C104.841 26.6321 104.328 25.3921 103.414 24.4779C102.499 23.5636 101.259 23.05 99.9665 23.05H73.2454C71.9412 23.0415 70.6482 23.2917 69.4413 23.7859C68.2344 24.2802 67.1374 25.0088 66.2137 25.9296C65.2901 26.8504 64.5581 27.9452 64.0602 29.1506C63.5622 30.356 63.3081 31.6481 63.3126 32.9524Z" fill="#694B4B"/>
<path d="M92.5961 81.6406H63.2852V103.609H92.5961V81.6406Z" fill="#D3A575"/>
<path d="M63.3125 92.7012C67.8365 95.0631 72.8644 96.2967 77.968 96.2967C83.0715 96.2967 88.0994 95.0631 92.6234 92.7012V81.6562H63.3125V92.7164V92.7012Z" fill="#AA7F57"/>
<path d="M77.9398 103.639L70.1398 111.439C69.8904 111.682 69.5925 111.87 69.2655 111.991C68.9386 112.112 68.5899 112.162 68.2421 112.139C67.8944 112.116 67.5554 112.02 67.2472 111.858C66.9389 111.695 66.6684 111.469 66.4531 111.195L58.3789 100.562L60.4812 96.1132C60.6277 95.8043 60.8374 95.5297 61.0968 95.3071C61.3563 95.0846 61.6596 94.9191 61.9872 94.8214C62.3147 94.7237 62.6592 94.696 62.9981 94.7401C63.3371 94.7842 63.663 94.899 63.9547 95.0772L77.9398 103.639Z" fill="#A4C0EF"/>
<path d="M77.9375 103.64L85.7375 111.44C85.987 111.683 86.2849 111.871 86.6118 111.992C86.9388 112.112 87.2875 112.163 87.6352 112.14C87.9829 112.117 88.3219 112.021 88.6302 111.858C88.9384 111.696 89.2089 111.47 89.4242 111.196L97.4984 100.547L95.3961 96.0985C95.2497 95.7897 95.0399 95.515 94.7805 95.2925C94.5211 95.0699 94.2177 94.9044 93.8902 94.8068C93.5626 94.7091 93.2182 94.6814 92.8792 94.7254C92.5402 94.7695 92.2143 94.8844 91.9227 95.0626L77.9375 103.64Z" fill="#A4C0EF"/>
<path d="M77.9398 88.9838C74.7308 88.9842 71.553 88.3525 68.5881 87.1246C65.6233 85.8967 62.9293 84.0968 60.6601 81.8276C58.391 79.5584 56.591 76.8645 55.3632 73.8996C54.1353 70.9347 53.5035 67.757 53.5039 64.5479V62.1104L57.5562 59.3987C58.5579 58.7283 59.3791 57.8218 59.9477 56.7591C60.5162 55.6964 60.8146 54.5101 60.8164 53.3049V45.0174C60.8164 45.0174 80.3469 37.7049 95.0023 49.8924V53.3202C95.0012 54.5259 95.2983 55.7133 95.8671 56.7765C96.4359 57.8397 97.2588 58.7457 98.2625 59.4139L102.315 62.1256V64.5631C102.325 67.7692 101.702 70.9457 100.482 73.9103C99.2609 76.8749 97.4665 79.5691 95.2016 81.8383C92.9367 84.1074 90.2459 85.9068 87.2836 87.133C84.3213 88.3593 81.1459 88.9883 77.9398 88.9838Z" fill="#D3A575"/>
<path d="M39.0617 108.697C37.378 110.499 36.4414 112.873 36.4414 115.339V132.92H51.0969V124.754C51.0945 122.161 50.0647 119.674 48.2328 117.838L39.0617 108.697Z" fill="#80A8E8"/>
<path d="M72.4836 50.8829C77.7851 50.2126 87.0781 49.847 95.0609 53.2899V49.8774C80.4055 37.6595 60.875 45.0024 60.875 45.0024V53.3204C60.8732 54.5256 60.5748 55.7119 60.0063 56.7746C59.4377 57.8373 58.6165 58.7438 57.6148 59.4142L53.5625 62.1259V64.5634C53.5662 70.5278 55.7531 76.2846 59.7104 80.7472C63.6677 85.2097 69.1217 88.0692 75.043 88.786C70.6658 84.2447 68.2194 78.1833 68.218 71.8759V55.7274C68.2094 54.5369 68.6396 53.3849 69.4264 52.4913C70.2132 51.5977 71.3015 51.0252 72.4836 50.8829Z" fill="#AA7F57"/>
<path d="M135.555 76.3695C135.869 76.5218 136.212 76.6049 136.561 76.6133C137.076 76.6143 137.577 76.4405 137.981 76.1203C138.385 75.8 138.669 75.3523 138.785 74.8501C138.902 74.348 138.845 73.8211 138.624 73.3555C138.402 72.8899 138.03 72.5131 137.566 72.2867C132.265 69.6359 122.302 69.6055 121.875 69.6055C121.269 69.6055 120.688 69.8462 120.259 70.2748C119.831 70.7033 119.59 71.2846 119.59 71.8906C119.59 72.4967 119.831 73.0779 120.259 73.5065C120.688 73.935 121.269 74.1758 121.875 74.1758C124.465 74.1758 131.93 74.5414 135.555 76.3695Z" fill="black"/>
<path d="M148.991 104.812L139.545 102.101C139.347 102.042 139.172 101.922 139.046 101.758C138.92 101.593 138.85 101.393 138.845 101.187V98.0482C139.624 97.5106 140.358 96.9093 141.038 96.2506C142.673 94.6772 143.973 92.7887 144.858 90.6993C145.743 88.6098 146.195 86.3627 146.188 84.0936V79.7365L147.102 77.9084C148.106 75.8926 148.628 73.6707 148.625 71.4186V59.6576C148.621 59.0528 148.379 58.4739 147.951 58.0462C147.524 57.6185 146.945 57.3765 146.34 57.3725H124.341C120.498 57.3813 116.814 58.9122 114.096 61.6301C111.378 64.3481 109.847 68.0318 109.838 71.8756V71.9975C109.835 73.8708 110.273 75.7185 111.118 77.3904L112.276 79.7365V83.4842C112.278 86.295 112.944 89.0656 114.22 91.5701C115.496 94.0745 117.346 96.2421 119.619 97.8959V101.187C119.619 101.704 119.619 101.918 117.73 102.436L113.129 103.746L99.8141 98.9014C99.8467 98.5849 99.809 98.2651 99.7037 97.9649C99.5983 97.6646 99.4279 97.3914 99.2048 97.1646L94.9391 92.6858V85.1904C95.3962 84.8248 95.8227 84.4287 96.2493 84.0326C98.9105 81.5289 101.032 78.5076 102.483 75.1543C103.935 71.8011 104.685 68.1865 104.689 64.5326V58.5303C106.298 55.0435 107.129 51.249 107.127 47.4092V23.0342C107.123 22.4294 106.881 21.8504 106.453 21.4227C106.025 20.9951 105.446 20.753 104.841 20.749H70.6251C64.8326 20.7539 59.2788 23.0571 55.1829 27.1529C51.087 31.2488 48.7838 36.8027 48.779 42.5951V47.4701C48.7797 51.3096 49.6112 55.1034 51.2165 58.5912V63.7404C51.2048 67.7873 52.0735 71.7882 53.7623 75.4659C55.4512 79.1435 57.9198 82.4097 60.9969 85.0381V92.7162L56.7313 97.1951C56.5122 97.4247 56.3445 97.6983 56.2394 97.9978C56.1343 98.2973 56.0943 98.6157 56.1219 98.9318L42.0758 104.051C41.0687 104.419 40.1157 104.921 39.2422 105.544L37.0485 104.447C43.6297 101.583 45.7016 97.5608 45.793 97.3779C45.9582 97.0631 46.0446 96.7128 46.0446 96.3572C46.0446 96.0017 45.9582 95.6514 45.793 95.3365C44.1477 92.0459 43.9344 86.0131 43.7821 81.1381C43.7212 79.5232 43.6907 77.9998 43.5688 76.6287C42.7766 65.66 34.4587 57.4029 24.1907 57.4029C13.9227 57.4029 5.57428 65.66 4.81256 76.6287C4.72115 77.9998 4.66022 79.5232 4.59928 81.1381C4.44694 85.9826 4.23365 92.0154 2.58834 95.3365C2.42313 95.6514 2.33682 96.0017 2.33682 96.3572C2.33682 96.7128 2.42313 97.0631 2.58834 97.3779C2.67975 97.5912 4.75162 101.583 11.3633 104.447L5.23912 107.524C3.64206 108.315 2.29875 109.538 1.36165 111.054C0.424549 112.57 -0.0688104 114.319 -0.0624391 116.101V132.981C-0.0624524 133.588 0.177817 134.171 0.605935 134.602C1.03405 135.033 1.61526 135.277 2.22272 135.281C2.82755 135.277 3.40647 135.035 3.83415 134.607C4.26184 134.18 4.50388 133.601 4.50787 132.996V116.086C4.5038 115.147 4.76464 114.225 5.26047 113.428C5.7563 112.63 6.467 111.988 7.311 111.576L14.9587 107.768L17.6094 110.297C19.3901 111.998 21.7582 112.948 24.2212 112.948C26.6841 112.948 29.0522 111.998 30.8329 110.297L33.4837 107.768L35.9821 109.017C34.7964 110.93 34.1636 113.134 34.154 115.385V132.965C34.154 133.571 34.3947 134.153 34.8233 134.581C35.2518 135.01 35.8331 135.251 36.4391 135.251C37.0452 135.251 37.6264 135.01 38.055 134.581C38.4835 134.153 38.7243 133.571 38.7243 132.965V115.385C38.7265 113.847 39.2012 112.348 40.084 111.089C40.9669 109.83 42.2153 108.873 43.6602 108.347L58.4985 102.954L64.6837 112.216C65.0674 112.803 65.5796 113.294 66.1814 113.653C66.7832 114.012 67.4588 114.229 68.1571 114.288C68.308 114.313 68.4611 114.324 68.6141 114.319C69.8674 114.316 71.0701 113.824 71.9657 112.947L75.7438 109.169V132.965C75.7438 133.571 75.9846 134.153 76.4131 134.581C76.8417 135.01 77.4229 135.251 78.029 135.251C78.635 135.251 79.2163 135.01 79.6448 134.581C80.0734 134.153 80.3141 133.571 80.3141 132.965V109.169L84.0922 112.947C84.9846 113.829 86.1894 114.322 87.4438 114.319C87.5968 114.324 87.7499 114.313 87.9008 114.288C88.5947 114.213 89.2641 113.988 89.8635 113.631C90.4629 113.273 90.9782 112.791 91.3743 112.216L97.5594 102.954L112.398 108.347C113.843 108.873 115.091 109.83 115.974 111.089C116.857 112.348 117.331 113.847 117.334 115.385V132.965C117.334 133.571 117.574 134.153 118.003 134.581C118.432 135.01 119.013 135.251 119.619 135.251C120.225 135.251 120.806 135.01 121.235 134.581C121.663 134.153 121.904 133.571 121.904 132.965V115.385C121.905 112.268 120.692 109.274 118.522 107.037L119.101 106.884C119.832 106.692 120.546 106.437 121.234 106.122L127.053 111.942V132.996C127.053 133.602 127.294 134.183 127.722 134.612C128.151 135.04 128.732 135.281 129.338 135.281C129.944 135.281 130.526 135.04 130.954 134.612C131.383 134.183 131.624 133.602 131.624 132.996V111.942L137.413 106.153C137.73 106.303 138.055 106.436 138.388 106.549L147.833 109.261C148.885 109.564 149.81 110.2 150.469 111.073C151.128 111.947 151.486 113.011 151.489 114.105V132.996C151.489 133.602 151.73 134.183 152.158 134.612C152.587 135.04 153.168 135.281 153.774 135.281C154.38 135.281 154.962 135.04 155.39 134.612C155.819 134.183 156.059 133.602 156.059 132.996V114.105C156.008 112.01 155.297 109.984 154.028 108.316C152.759 106.647 150.996 105.422 148.991 104.812ZM33.8493 100.79V98.0787C36.5318 96.2307 38.626 93.6499 39.8821 90.6443C40.1026 92.5075 40.5424 94.3382 41.1922 96.0982C40.2782 97.1951 38.1149 99.2518 33.8493 100.775V100.79ZM9.41334 76.9334C9.71803 72.8201 11.3329 69.042 14.0446 66.2693C15.3691 64.9008 16.9552 63.8126 18.7087 63.0695C20.4621 62.3263 22.3472 61.9433 24.2516 61.9433C26.1561 61.9433 28.0411 62.3263 29.7946 63.0695C31.5481 63.8126 33.1342 64.9008 34.4587 66.2693C37.2002 69.1743 38.8386 72.947 39.0899 76.9334C39.1813 78.2131 39.2422 79.6756 39.2727 81.26V81.6561C36.7743 77.817 32.9352 75.0139 27.9993 73.399C25.191 72.5042 22.263 72.0419 19.3157 72.0279C18.7182 72.0539 18.1525 72.3041 17.7313 72.7287L13.618 76.9943C12.7344 77.9084 16.0251 81.0772 16.9087 80.1631L20.3516 76.5982C23.3071 76.7506 32.8133 77.8475 36.5001 85.9826C36.0133 89.0557 34.3863 91.8325 31.9434 93.7595C29.5006 95.6865 26.4213 96.6222 23.3193 96.3801C20.2173 96.1379 17.3205 94.7357 15.2063 92.4529C13.0921 90.1702 11.9158 87.1745 11.9118 84.0631C11.9078 83.4583 11.6657 82.8793 11.2381 82.4517C10.8104 82.024 10.2315 81.7819 9.62662 81.7779C9.50396 81.7729 9.38114 81.7832 9.261 81.8084C9.25594 81.6149 9.26613 81.4214 9.29147 81.2295C9.261 79.6908 9.32194 78.1979 9.41334 76.9182V76.9334ZM7.28053 96.0678C7.91261 94.2919 8.35186 92.4532 8.59069 90.5834C9.84923 93.5834 11.9432 96.1586 14.6235 98.0025V100.745C10.3274 99.2213 8.19459 97.1951 7.28053 96.0525V96.0678ZM20.7477 106.976L18.6149 104.965C18.9813 104.281 19.1699 103.516 19.1633 102.74V100.303C22.4587 101.319 25.9836 101.319 29.279 100.303V102.74C29.2724 103.516 29.461 104.281 29.8274 104.965L27.6946 106.976C26.7576 107.868 25.5122 108.365 24.2181 108.362C22.924 108.359 21.6808 107.857 20.7477 106.96V106.976ZM55.8477 63.71V58.0428C55.8355 57.6978 55.7634 57.3575 55.6344 57.0373C54.1784 54.0469 53.418 50.7657 53.4102 47.4397V42.5646C53.4167 37.9848 55.2389 33.5944 58.4773 30.356C61.7157 27.1175 66.1062 25.2953 70.686 25.2889H102.617V47.4397C102.624 50.7674 101.863 54.0517 100.393 57.0373C100.244 57.351 100.171 57.6955 100.18 58.0428V64.5631C100.19 67.5928 99.5727 70.5918 98.3666 73.371C97.1605 76.1503 95.3918 78.6497 93.1719 80.7115C92.593 81.2295 92.0141 81.7475 91.4047 82.2045L91.3743 82.235C87.1278 85.4587 81.8542 87.0289 76.536 86.6529C64.8969 85.9217 55.8477 75.8213 55.8477 63.6947V63.71ZM76.2008 91.2232C76.8102 91.2537 77.3891 91.2842 77.9985 91.2842C82.2956 91.2948 86.5307 90.2596 90.3383 88.2678V92.442L77.968 100.912L65.5977 92.442V88.1764C68.8755 89.9315 72.4907 90.9652 76.2008 91.208V91.2232ZM68.7055 109.718C68.6751 109.748 68.6446 109.779 68.5837 109.748C68.5227 109.718 68.4922 109.687 68.4618 109.687L61.3626 99.0232L63.6477 96.6162L74.4337 103.99L68.7055 109.718ZM87.5048 109.687C87.5048 109.718 87.4743 109.748 87.3829 109.748C87.3406 109.747 87.2991 109.736 87.261 109.718L81.5329 103.99L92.3188 96.6162L94.604 99.0232L87.5048 109.687ZM116.846 83.4842V79.2186C116.841 78.8596 116.758 78.506 116.602 78.1826L115.201 75.349C114.681 74.3081 114.41 73.1609 114.409 71.9975V71.9061C114.409 69.272 115.456 66.746 117.319 64.8834C119.181 63.0208 121.707 61.974 124.341 61.9732H144.055V71.449C144.049 72.9909 143.694 74.5115 143.019 75.8975L141.861 78.2131C141.702 78.5353 141.618 78.8896 141.617 79.249V84.124C141.619 85.7786 141.288 87.4167 140.643 88.9406C139.999 90.4646 139.054 91.8433 137.866 92.9946C136.678 94.146 135.27 95.0465 133.726 95.6425C132.183 96.2385 130.535 96.5178 128.881 96.4639C122.239 96.2811 116.846 90.4463 116.846 83.4842ZM128.729 101.034H129.247C130.951 101.029 132.645 100.772 134.274 100.272V101.187C134.278 101.638 134.329 102.087 134.427 102.527L129.216 107.737L124.037 102.558C124.139 102.108 124.19 101.648 124.189 101.187V100.212C125.648 100.728 127.182 101.001 128.729 101.019V101.034Z" fill="black"/>
<path d="M143.902 116.01C143.298 116.014 142.719 116.256 142.291 116.683C141.863 117.111 141.621 117.69 141.617 118.295V132.95C141.617 133.556 141.858 134.138 142.286 134.566C142.715 134.995 143.296 135.236 143.902 135.236C144.508 135.236 145.09 134.995 145.518 134.566C145.947 134.138 146.188 133.556 146.188 132.95V118.295C146.184 117.69 145.941 117.111 145.514 116.683C145.086 116.256 144.507 116.014 143.902 116.01Z" fill="black"/>
<path d="M12.0039 119.026C11.3991 119.03 10.8202 119.272 10.3925 119.7C9.96478 120.128 9.72274 120.707 9.71875 121.312V132.951C9.71875 133.557 9.95951 134.138 10.3881 134.566C10.8166 134.995 11.3978 135.236 12.0039 135.236C12.61 135.236 13.1912 134.995 13.6198 134.566C14.0483 134.138 14.2891 133.557 14.2891 132.951V121.312C14.2895 121.011 14.2306 120.714 14.1159 120.437C14.0012 120.159 13.8329 119.907 13.6207 119.695C13.4084 119.483 13.1563 119.314 12.8789 119.2C12.6014 119.085 12.3041 119.026 12.0039 119.026Z" fill="black"/>
<path d="M63.1633 47.0589C63.1599 47.0226 63.1706 46.9864 63.1934 46.958C63.2161 46.9296 63.2491 46.9111 63.2852 46.9065C68.1926 46.1492 73.1654 45.9042 78.1235 46.1753C85.2532 46.6628 90.4024 48.4299 93.4493 51.5073C93.8824 51.9109 94.4554 52.1307 95.0474 52.1202C95.6394 52.1098 96.2043 51.87 96.6229 51.4513C97.0416 51.0326 97.2814 50.4678 97.2919 49.8758C97.3023 49.2837 97.0826 48.7108 96.6789 48.2776C88.0258 39.6245 69.9578 41.3003 62.5844 42.3971C61.4649 42.5594 60.4416 43.1203 59.7027 43.9768C58.9638 44.8332 58.5589 45.9277 58.5625 47.0589V52.3299C58.5625 52.936 58.8033 53.5172 59.2318 53.9458C59.6604 54.3743 60.2416 54.6151 60.8477 54.6151C61.4537 54.6151 62.035 54.3743 62.4635 53.9458C62.8921 53.5172 63.1328 52.936 63.1328 52.3299L63.1633 47.0589Z" fill="black"/>
<path d="M51.0977 120.915C50.4928 120.919 49.9139 121.161 49.4862 121.589C49.0585 122.017 48.8165 122.595 48.8125 123.2V132.981C48.8125 133.587 49.0533 134.168 49.4818 134.597C49.9104 135.025 50.4916 135.266 51.0977 135.266C51.7037 135.266 52.285 135.025 52.7135 134.597C53.1421 134.168 53.3828 133.587 53.3828 132.981V123.2C53.3857 122.899 53.3285 122.601 53.2147 122.322C53.1008 122.044 52.9326 121.791 52.7199 121.578C52.5071 121.365 52.254 121.197 51.9755 121.083C51.697 120.969 51.3985 120.912 51.0977 120.915Z" fill="black"/>
<path d="M104.875 120.915C104.27 120.919 103.691 121.161 103.264 121.589C102.836 122.016 102.594 122.595 102.59 123.2V132.981C102.59 133.587 102.831 134.168 103.259 134.597C103.688 135.025 104.269 135.266 104.875 135.266C105.481 135.266 106.062 135.025 106.491 134.597C106.919 134.168 107.16 133.587 107.16 132.981V123.2C107.161 122.9 107.102 122.603 106.987 122.325C106.872 122.048 106.704 121.796 106.492 121.583C106.279 121.371 106.027 121.203 105.75 121.088C105.473 120.973 105.175 120.915 104.875 120.915Z" fill="black"/>
<path d="M14.2609 76.3086L9.20312 81.8539L11.732 84.4742L16.8813 80.1781L14.2609 76.3086Z" fill="black"/>
<path d="M58.6516 52.7871C58.6516 52.7871 59.4742 55.4074 55.6047 57.0223C51.7352 58.6371 54.6297 61.6231 54.6297 61.6231H55.8484C55.8484 61.6231 62.9781 59.3379 63.1914 52.3301C63.3742 45.0481 58.6516 52.7871 58.6516 52.7871Z" fill="black"/>
<path d="M92.8707 50.9281C92.8707 50.9281 94.6379 51.507 95.0645 54.6148C95.3387 56.5648 99.4215 62.2929 101.311 61.2265C103.2 60.1601 102.407 57.0218 102.407 57.0218C102.407 57.0218 101.768 57.2047 100.61 56.0468C99.3233 54.7335 98.5458 53.0056 98.416 51.1718C98.2941 49.8617 96.9231 47.4547 95.0949 46.8148C91.8652 45.7179 92.8707 50.9281 92.8707 50.9281Z" fill="black"/>
<path d="M114.594 75.5629C115.203 75.3801 120.413 70.1699 120.413 70.1699L121.906 74.1918L116.818 78.7317L114.594 75.5629Z" fill="black"/>
<path d="M137.596 72.2871L144.421 76.248L142.623 79.5387L135.555 76.3699L137.596 72.2871Z" fill="black"/>
</g>
<defs>
<clipPath id="64tgdfvx">
<rect width="156" height="156" fill="white"/>
</clipPath>
</defs>
</svg>
