<svg width="158" height="156" viewBox="0 0 158 156" fill="none" xmlns="http://www.w3.org/2000/svg">
<g clip-path="url(#657yu6hrgdf)">
<path d="M84.3365 52.4395L83.9379 52.927L77.8357 58.777L84.7045 65.602L91.3586 59.2645L91.3279 59.4168L84.772 65.6324L91.61 72.427L98.2641 66.059L98.3255 66.1199L91.6714 72.5184L98.5708 79.3738L113.688 64.9316C118.502 70.2941 114.731 76.3574 110.959 79.5566C109.119 81.1715 108.015 83.7613 108.997 85.8941C109.978 88.027 113.627 88.3926 116.479 85.9855C124.543 79.1301 132.976 65.0535 125.708 52.5309L132.455 46.0715L111.174 24.1035L104.881 30.1637C104.881 30.1637 97.7674 26.1114 88.1082 35.3739C81.8834 41.3153 74.984 47.8966 70.875 51.827L77.8051 58.713L84.3365 52.4395Z" fill="#E2A975"/>
<path d="M114.174 82.8473C119.142 78.0941 120.46 71.0254 113.714 64.9316C115.646 67.0949 116.198 69.7457 115.922 71.4824C115.401 74.7121 113.377 77.5762 111.384 79.2215C108.961 81.2019 107.428 84.4012 109.667 86.7473C110.266 87.3052 111.053 87.6204 111.874 87.6308C111.813 85.9215 112.825 84.1269 114.174 82.8473Z" fill="#C38C66"/>
<path d="M91.2973 38.6676C100.956 29.4355 108.071 33.4574 108.071 33.4574L114.418 27.3941L111.229 24.1035L104.881 30.1637C98.902 27.452 92.3398 31.2911 88.1082 35.3739C87.7709 35.7091 76.7625 46.1903 70.875 51.827L74.1254 55.0567C78.357 51.0074 85.4711 44.2434 91.2973 38.6676Z" fill="#C38C66"/>
<path d="M108.011 20.6613C107.852 20.8109 107.76 21.0168 107.754 21.2339C107.748 21.451 107.83 21.6615 107.98 21.8191L134.627 49.3019C134.778 49.4593 134.985 49.551 135.203 49.5567C135.422 49.5624 135.634 49.4817 135.792 49.3324L154.773 31.173C154.852 31.102 154.915 31.0161 154.959 30.9204C155.003 30.8246 155.027 30.7211 155.03 30.6158C155.033 30.5106 155.014 30.4059 154.975 30.3079C154.937 30.2099 154.878 30.1207 154.804 30.0457L128.126 2.53239C127.976 2.37497 127.768 2.28334 127.55 2.27763C127.331 2.27192 127.12 2.35259 126.961 2.50192L108.011 20.6613Z" fill="#FDE49D"/>
<path d="M108.011 20.6604C107.852 20.81 107.76 21.016 107.754 21.233C107.748 21.4501 107.83 21.6606 107.98 21.8183L114.327 28.3355C114.195 28.1793 114.128 27.9788 114.139 27.775C114.151 27.5711 114.24 27.3793 114.389 27.2386L133.37 9.07927C133.528 8.92993 133.74 8.84926 133.959 8.85497C134.177 8.86068 134.384 8.95231 134.535 9.10974L128.126 2.52849C127.976 2.37106 127.768 2.27943 127.55 2.27372C127.331 2.26801 127.12 2.34868 126.961 2.49802L108.011 20.6604Z" fill="#FFD064"/>
<path d="M63.2391 89.8551C64.0743 89.0535 64.5994 87.9857 64.7227 86.8384C64.846 85.6912 64.5597 84.5373 63.9137 83.5785L53.3959 72.7012L53.8865 73.0973L63.4231 82.9387C63.607 83.1519 63.791 83.3652 63.9443 83.5785L67.6547 87.4176L70.3838 76.2051L60.2401 65.7238L60.3934 65.7543L70.3899 76.0832L73.0884 64.9926L67.1089 58.8379L67.1702 58.777L73.0884 64.9012L75.8175 53.6887L65.9436 43.5121C71.3405 38.7285 77.4427 42.4762 80.6624 46.2238C82.2876 48.052 84.894 49.1488 87.0405 48.1738C89.187 47.1988 89.555 43.573 87.1325 40.7395C80.2331 32.7262 66.0663 24.3473 53.4634 31.5684L46.9626 24.8652L24.8477 46.0075L30.9498 52.3145C30.9498 52.3145 26.8715 59.3833 36.1934 68.9809C45.4539 78.5481 56.2783 89.7606 56.2783 89.7606C57.1899 90.6883 58.4343 91.2192 59.7391 91.2369C61.0438 91.2546 62.3024 90.7577 63.2391 89.8551Z" fill="#FFE4C2"/>
<path d="M63.2391 89.8553C63.8179 89.3097 64.2501 88.6289 64.4963 87.8748C63.6364 88.127 62.7231 88.1381 61.8573 87.9069C60.9915 87.6757 60.2068 87.2111 59.59 86.5646C59.59 86.5646 48.1217 74.6818 39.5051 65.785C30.2139 56.1873 34.2615 49.1186 34.2615 49.1186L28.1594 42.8115L24.8477 45.9803L30.9498 52.2873C28.2207 58.2287 32.0844 64.749 36.1934 68.9537C36.6533 69.4412 56.2783 89.7334 56.2783 89.7334C56.7242 90.2008 57.2594 90.5752 57.8525 90.8347C58.4457 91.0943 59.0849 91.2338 59.733 91.2452C60.381 91.2565 61.0248 91.1395 61.6268 90.9008C62.2288 90.6622 62.7769 90.3067 63.2391 89.8553Z" fill="#F2D0A5"/>
<path d="M83.968 43.0551C79.1844 38.1191 72.0703 36.809 65.9375 43.5121C68.1146 41.5926 70.7824 41.0441 72.5303 41.3183C75.7807 41.8363 78.6631 43.8472 80.3189 45.8277C82.3121 48.2347 85.5318 49.7582 87.893 47.534C88.4545 46.9386 88.7717 46.1561 88.7822 45.3402C87.0344 45.3981 85.2559 44.3957 83.968 43.0551Z" fill="#F2D0A5"/>
<path d="M21.3534 49.2103C21.5039 49.3678 21.7112 49.4594 21.9296 49.4651C22.1481 49.4708 22.3599 49.3902 22.5186 49.2408L50.1776 22.7635C50.336 22.6139 50.4282 22.408 50.434 22.1909C50.4397 21.9738 50.3585 21.7633 50.2082 21.6057L31.9325 2.74246C31.861 2.6647 31.7746 2.60205 31.6782 2.55826C31.5819 2.51447 31.4776 2.49043 31.3717 2.48759C31.2658 2.48475 31.1604 2.50315 31.0618 2.54171C30.9632 2.58026 30.8734 2.63818 30.7979 2.71199L3.10825 29.1924C2.94981 29.342 2.8576 29.5479 2.85185 29.765C2.8461 29.9821 2.92729 30.1925 3.07758 30.3502L21.3534 49.2103Z" fill="#A4C0EF"/>
<path d="M21.3534 49.21C21.5039 49.3674 21.7112 49.459 21.9296 49.4647C22.1481 49.4704 22.3599 49.3898 22.5186 49.2404L29.1114 42.9334C28.9542 43.0649 28.7524 43.1318 28.5473 43.1205C28.3421 43.1091 28.149 43.0204 28.0075 42.8725L9.73168 24.0123C9.58139 23.8547 9.5002 23.6442 9.50595 23.4271C9.5117 23.21 9.60391 23.0041 9.76235 22.8545L3.10825 29.192C2.94981 29.3416 2.8576 29.5475 2.85185 29.7646C2.8461 29.9817 2.92729 30.1922 3.07758 30.3498L21.3534 49.21Z" fill="#80A8E8"/>
<path d="M100.312 126.814C100.313 126.706 100.292 126.599 100.25 126.499C100.209 126.399 100.148 126.308 100.071 126.231C99.9938 126.155 99.9023 126.094 99.8017 126.053C99.7011 126.012 99.5932 125.991 99.4844 125.991L61.0623 126.022C60.9535 126.021 60.8456 126.042 60.745 126.083C60.6444 126.125 60.5529 126.185 60.476 126.262C60.399 126.338 60.338 126.429 60.2966 126.529C60.2551 126.629 60.234 126.736 60.2344 126.844V153.017C60.2347 153.124 60.2566 153.229 60.2987 153.327C60.3408 153.425 60.4023 153.513 60.4796 153.587C60.5568 153.661 60.6482 153.719 60.7483 153.757C60.8484 153.795 60.9552 153.813 61.0623 153.809L99.4844 153.779C99.5932 153.779 99.7011 153.758 99.8017 153.717C99.9023 153.676 99.9938 153.615 100.071 153.539C100.148 153.462 100.209 153.371 100.25 153.271C100.292 153.171 100.313 153.064 100.312 152.956V126.814Z" fill="#C3DDFF"/>
<path d="M83.8782 88.1488V53.6887C83.8786 53.0444 83.7512 52.4063 83.5032 51.811C83.2552 51.2156 82.8916 50.6747 82.4331 50.2191C81.9746 49.7635 81.4302 49.4022 80.831 49.1558C80.2319 48.9094 79.5897 48.7828 78.9413 48.7832C78.2928 48.7828 77.6507 48.9094 77.0515 49.1558C76.4524 49.4022 75.9079 49.7635 75.4494 50.2191C74.9909 50.6747 74.6273 51.2156 74.3793 51.811C74.1314 52.4063 74.0039 53.0444 74.0043 53.6887V88.3591H74.0963V57.9512C74.0967 57.3069 73.9693 56.6689 73.7214 56.0735C73.4734 55.4782 73.1098 54.9373 72.6512 54.4817C72.1927 54.0261 71.6483 53.6648 71.0492 53.4184C70.45 53.172 69.8079 53.0454 69.1594 53.0458C68.511 53.0454 67.8688 53.172 67.2697 53.4184C66.6705 53.6648 66.1261 54.0261 65.6676 54.4817C65.2091 54.9373 64.8454 55.4782 64.5975 56.0735C64.3495 56.6689 64.2221 57.3069 64.2225 57.9512V100.211C56.9858 99.9372 55.2073 93.0513 55.4832 88.1153C55.6059 85.6778 54.4713 83.088 52.2329 82.3263C50.025 81.5341 47.2039 83.9106 46.9893 87.6278C46.376 98.1395 50.7303 113.953 64.8664 117.457V126.75H95.5305V118.005C95.5305 118.005 103.381 115.72 103.381 102.375C103.381 89.1208 103.411 73.5817 103.411 73.5817C103.412 72.9374 103.284 72.2993 103.036 71.704C102.788 71.1087 102.425 70.5677 101.966 70.1121C101.508 69.6565 100.963 69.2952 100.364 69.0488C99.7649 68.8025 99.1227 68.6758 98.4743 68.6762C97.8258 68.6758 97.1837 68.8025 96.5845 69.0488C95.9854 69.2952 95.441 69.6565 94.9825 70.1121C94.5239 70.5677 94.1603 71.1087 93.9123 71.704C93.6644 72.2993 93.5369 72.9374 93.5374 73.5817V87.2317L93.5987 87.8411V60.1145C93.5991 59.4702 93.4717 58.8322 93.2237 58.2368C92.9757 57.6415 92.6121 57.1005 92.1536 56.6449C91.6951 56.1894 91.1507 55.828 90.5515 55.5817C89.9524 55.3353 89.3102 55.2087 88.6618 55.2091C88.0133 55.2087 87.3712 55.3353 86.772 55.5817C86.1729 55.828 85.6285 56.1894 85.1699 56.6449C84.7114 57.1005 84.3478 57.6415 84.0998 58.2368C83.8519 58.8322 83.7244 59.4702 83.7248 60.1145V88.0239" fill="#FFE4C2"/>
<path d="M98.5316 68.6788C97.7285 68.6788 96.9381 68.8777 96.2318 69.2577C97.0277 69.6702 97.6943 70.2917 98.1593 71.0546C98.6243 71.8174 98.8697 72.6924 98.869 73.5843C98.869 73.5843 98.8383 90.0679 98.8383 102.377C98.8383 115.723 90.9883 118.008 90.9883 118.008V126.749H95.5879V118.005C101.69 115.598 103.438 108.224 103.438 102.374C103.438 101.704 103.469 73.5812 103.469 73.5812C103.472 72.9362 103.347 72.2968 103.1 71.7001C102.853 71.1035 102.49 70.5615 102.031 70.1055C101.571 69.6495 101.026 69.2886 100.425 69.0437C99.8244 68.7988 99.1808 68.6748 98.5316 68.6788Z" fill="#F2D0A5"/>
<path d="M89.0668 60.0875V87.814H93.6664V60.0875C93.6728 59.2405 93.457 58.4064 93.0403 57.6675C92.6235 56.9286 92.0202 56.3103 91.2898 55.8736C90.5593 55.4369 89.727 55.1969 88.8748 55.1771C88.0225 55.1573 87.1798 55.3586 86.4297 55.7609C87.2222 56.1774 87.8861 56.7998 88.3506 57.5617C88.815 58.3237 89.0625 59.1967 89.0668 60.0875Z" fill="#F2D0A5"/>
<path d="M79.309 53.6887V87.7832H83.9086V53.6887C83.909 53.0444 83.7816 52.4063 83.5336 51.811C83.2857 51.2156 82.922 50.6747 82.4635 50.2191C82.005 49.7635 81.4606 49.4022 80.8614 49.1558C80.2623 48.9094 79.6201 48.7828 78.9717 48.7832C78.1686 48.7832 77.3781 48.9821 76.6719 49.3621C77.4629 49.7804 78.1255 50.4032 78.5897 51.1648C79.0539 51.9263 79.3024 52.7983 79.309 53.6887Z" fill="#F2D0A5"/>
<path d="M69.6176 57.9241V87.814H74.1252V56.9766C73.9005 55.8628 73.2956 54.8603 72.4128 54.1385C71.53 53.4168 70.4235 53.0201 69.2803 53.0156H69.0656C68.3393 53.0493 67.6285 53.2362 66.9805 53.5641C67.7772 53.9842 68.4436 54.6121 68.9083 55.3803C69.3729 56.1485 69.6181 57.0279 69.6176 57.9241Z" fill="#F2D0A5"/>
<path d="M50.9141 88.1189C50.9141 94.9744 55.115 100.794 64.2529 100.215C61.3398 100.093 59.04 98.6307 57.9668 97.2596C55.9736 94.6697 55.299 91.1963 55.5137 88.6369C55.759 85.5291 54.5018 82.208 51.2514 82.208C50.5154 82.208 49.7488 82.6041 49.0742 83.183C50.3314 84.3104 50.9141 86.2603 50.9141 88.1189Z" fill="#F2D0A5"/>
<path d="M100.312 126.814C100.313 126.706 100.292 126.599 100.25 126.499C100.209 126.399 100.148 126.308 100.071 126.231C99.9938 126.155 99.9023 126.094 99.8017 126.053C99.7011 126.012 99.5932 125.991 99.4844 125.991L61.0623 126.022C60.9535 126.021 60.8456 126.042 60.745 126.083C60.6444 126.125 60.5529 126.185 60.476 126.262C60.399 126.338 60.338 126.429 60.2966 126.529C60.2551 126.629 60.234 126.736 60.2344 126.844V153.017C60.2347 153.124 60.2566 153.229 60.2987 153.327C60.3408 153.425 60.4023 153.513 60.4796 153.587C60.5568 153.661 60.6482 153.719 60.7483 153.757C60.8484 153.795 60.9552 153.813 61.0623 153.809L99.4844 153.779C99.5932 153.779 99.7011 153.758 99.8017 153.717C99.9023 153.676 99.9938 153.615 100.071 153.539C100.148 153.462 100.209 153.371 100.25 153.271C100.292 153.171 100.313 153.064 100.312 152.956V126.814Z" fill="#FF833D"/>
<path d="M100.312 126.814C100.313 126.706 100.292 126.599 100.25 126.499C100.209 126.399 100.148 126.308 100.071 126.231C99.9937 126.155 99.9023 126.094 99.8017 126.053C99.701 126.012 99.5932 125.991 99.4844 125.991H90.3465C90.5518 126.001 90.7455 126.089 90.888 126.236C91.0305 126.383 91.111 126.579 91.1131 126.783V152.953C91.1135 153.061 91.0924 153.168 91.0509 153.268C91.0094 153.368 90.9485 153.459 90.8715 153.536C90.7945 153.612 90.7031 153.673 90.6025 153.714C90.5018 153.755 90.394 153.776 90.2852 153.776H99.4844C99.5932 153.776 99.701 153.755 99.8017 153.714C99.9023 153.673 99.9937 153.612 100.071 153.536C100.148 153.459 100.209 153.368 100.25 153.268C100.292 153.168 100.313 153.061 100.312 152.953V126.814Z" fill="#DE6C35"/>
<path d="M156.58 28.4919L130.056 0.978666C129.481 0.388059 128.694 0.0470927 127.867 0.0299739C127.04 0.0128551 126.24 0.320969 125.64 0.88726L106.567 18.9857C106.045 19.4945 105.717 20.1675 105.639 20.8898C105.561 21.6121 105.737 22.3391 106.138 22.9466C106.58 23.5175 107.072 24.0478 107.61 24.531L104.482 27.4865C101.937 26.7248 99.177 26.8466 96.6012 27.5474C91.8177 28.888 88.2913 32.1482 84.7036 35.4084C81.1772 32.3615 77.1296 29.863 73.0206 28.3396C66.2132 25.8107 59.5897 25.9326 53.7022 28.6748L50.5132 25.3537C51.7704 24.1654 53.0889 22.8857 52.353 20.9662C52.1077 20.3263 34.1692 1.70992 33.6479 1.16148C32.4214 -0.118209 30.4589 -0.422896 29.079 0.88726L13.2257 15.9693C11.0792 18.0107 14.2682 21.3013 16.4147 19.2599L31.1641 5.21382L47.3241 22.0326L21.7809 46.3466L5.62098 29.5553L9.27 26.0819C11.4165 24.0405 8.22742 20.7498 6.08094 22.7912L1.38934 27.2732C0.070783 28.5224 0.224103 30.4724 1.38934 31.7521C1.75731 32.1787 19.5425 50.7341 20.0331 51.0388C20.5839 51.403 21.2368 51.5845 21.8979 51.5571C22.559 51.5298 23.1943 51.295 23.7128 50.8865C24.2034 50.4904 24.6327 50.0334 25.0927 49.6068L28.0671 52.7146C27.1778 55.7005 26.5032 62.4037 34.2612 70.4779C35.2731 71.5443 45.5149 82.1474 46.1895 82.8177C45.2872 84.1806 44.7684 85.7587 44.687 87.388C44.319 93.756 45.6376 100.551 48.3054 106.065C51.4638 112.555 56.37 117.034 62.5335 119.045V123.615H61.0309C60.2041 123.624 59.4137 123.954 58.829 124.535C58.2443 125.116 57.912 125.902 57.9032 126.723V152.896C57.9081 153.716 58.2401 154.5 58.8265 155.077C59.4129 155.654 60.2057 155.976 61.0309 155.973H82.2811C85.2555 155.973 85.2555 151.403 82.2811 151.403H62.5028V128.186L97.9505 128.155V151.372H93.3202C90.3458 151.372 90.3458 155.943 93.3202 155.943H99.4223C100.249 155.934 101.04 155.604 101.624 155.023C102.209 154.442 102.541 153.656 102.55 152.835V126.662C102.541 125.841 102.209 125.055 101.624 124.474C101.04 123.893 100.249 123.563 99.4223 123.554H97.7972V119.258C100.526 117.704 105.647 113.347 105.647 102.196C105.647 100.703 105.678 75.5357 105.678 75.5357L113.221 68.406C113.526 69.1488 113.652 69.9523 113.589 70.7521C113.436 73.0373 111.841 75.6271 109.357 77.7294C106.536 80.1669 105.463 83.8537 106.782 86.7177C108.744 91.1357 114.816 90.2216 117.851 87.6318C122.758 83.5185 126.805 77.8513 128.952 72.1232C131.497 65.3591 131.374 58.7779 128.615 52.9279L131.957 49.7591L132.999 50.8255C133.579 51.409 134.364 51.7449 135.189 51.762C136.013 51.7791 136.812 51.4759 137.415 50.917L156.488 32.8185C157.075 32.2554 157.414 31.4845 157.431 30.6741C157.449 29.8636 157.143 29.0792 156.58 28.4919ZM37.5729 67.2787C29.8763 59.2654 32.5134 53.6896 32.728 53.263C32.9845 52.8385 33.0906 52.3409 33.0295 51.8494C32.9683 51.358 32.7435 50.9011 32.3907 50.5513L28.7417 46.7427L47.5388 28.8576L51.5557 33.0623C51.9093 33.4289 52.3763 33.6671 52.8821 33.7389C53.388 33.8107 53.9035 33.7119 54.3462 33.4584C59.4364 30.5638 65.1706 30.2896 71.3647 32.5748C76.3323 34.4334 81.4839 38.0591 85.0716 42.2943C85.6849 43.0255 86.9421 45.2802 85.8382 46.1334C84.7343 46.9865 82.8024 45.5849 82.0972 44.7927C80.7173 43.1779 76.9456 39.3693 71.9167 39.0037C69.0956 38.7904 66.4278 39.7654 64.128 41.7763C63.8992 41.9818 63.7136 42.2303 63.582 42.5075C63.4504 42.7847 63.3754 43.085 63.3614 43.3912C63.3457 43.697 63.3919 44.0029 63.4973 44.2908C63.6026 44.5786 63.7649 44.8425 63.9747 45.067L69.2182 50.5818H69.0956C67.1767 50.5858 65.3368 51.3412 63.9747 52.6841C63.2998 53.3503 62.7651 54.1433 62.4018 55.0169C62.0386 55.8905 61.854 56.8272 61.8589 57.7724V78.3998L55.1741 71.4529C54.1622 70.4169 52.5677 69.8685 51.4331 71.0263C50.2065 72.2146 50.8198 73.7685 51.9544 74.713L61.8589 84.981C61.8589 85.8037 61.9815 86.7482 61.6749 87.5404C61.5191 87.8938 61.2782 88.2038 60.9733 88.4429C60.6685 88.682 60.3092 88.8429 59.927 88.9115C59.3751 89.0029 57.6886 88.8505 57.7499 88.0584C57.9339 84.3412 55.9714 81.0201 52.9663 80.0146C51.9471 79.6592 50.8402 79.6379 49.8079 79.9537C49.8692 79.9841 41.4673 71.331 37.5729 67.2787ZM73.7872 48.4795L73.6645 48.6013L69.2489 43.9701C69.9965 43.6668 70.8051 43.5416 71.61 43.6045C73.4806 43.7263 75.5657 44.7927 77.4055 46.5294C76.033 46.8127 74.7747 47.4908 73.7872 48.4795ZM61.8895 97.3209C61.1367 97.0222 60.4646 96.5527 59.927 95.9498C59.2969 95.2229 58.8082 94.3861 58.4858 93.4818C58.7706 93.5183 59.0573 93.5387 59.3444 93.5427H59.4977C60.3139 93.5397 61.1233 93.3954 61.8895 93.1162V97.3209ZM101.078 102.226C101.078 105.426 100.649 108.777 99.0544 111.611C98.2863 113.046 97.1715 114.27 95.8101 115.172C94.6756 115.873 93.2037 116.239 93.2037 117.854V123.094H67.1392V117.305C67.1368 116.795 66.9639 116.299 66.6476 115.897C66.3313 115.494 65.8894 115.207 65.3914 115.081C59.6879 113.68 55.3336 109.962 52.4511 104.021C50.1207 99.2678 48.9554 93.1436 49.2621 87.5983C49.3234 86.6233 49.9367 84.3381 51.2552 84.3077C52.7271 84.2467 53.2177 86.8061 53.1564 87.842C53.0337 89.9444 53.0951 95.2764 56.4988 98.9936C58.4 101.065 61.0064 102.223 64.1035 102.345C64.4119 102.352 64.7187 102.299 65.0061 102.188C65.2936 102.077 65.5561 101.91 65.7785 101.698C66.0008 101.485 66.1787 101.231 66.3017 100.95C66.4247 100.669 66.4905 100.366 66.4953 100.06V57.8029C66.4953 54.817 70.8802 54.2685 71.6775 57.1021V88.2107C71.6815 88.8155 71.9251 89.3945 72.3555 89.8221C72.786 90.2498 73.3686 90.4919 73.9773 90.4959H74.0693C74.678 90.4919 75.2606 90.2498 75.6911 89.8221C76.1215 89.3945 76.3651 88.8155 76.3691 88.2107L76.2771 53.5373C76.2771 50.1552 81.5513 50.1857 81.5513 53.5373L81.4593 87.8755C81.4626 88.3838 81.6351 88.8766 81.95 89.2771C82.1574 89.5888 82.44 89.8441 82.7721 90.0197C83.1041 90.1953 83.475 90.2857 83.8511 90.2826C84.4598 90.2786 85.0425 90.0365 85.4729 89.6089C85.9033 89.1812 86.1469 88.6022 86.1509 87.9974V59.2349C86.2974 58.7565 86.5775 58.3292 86.9586 58.0027C87.3398 57.6761 87.8065 57.4638 88.3043 57.3904C88.8021 57.317 89.3107 57.3856 89.7709 57.588C90.231 57.7905 90.6239 58.1186 90.9039 58.5341C91.3025 59.1435 91.3332 59.7834 91.3332 60.4841C91.3332 62.3123 91.2718 85.6513 91.2718 87.0834C91.2718 88.3021 91.7625 89.5818 93.081 89.9169C93.4201 89.9978 93.7732 90.0015 94.1139 89.9276C94.4546 89.8537 94.774 89.7041 95.0483 89.4902C95.3226 89.2763 95.5446 89.0034 95.6978 88.6922C95.851 88.3809 95.9313 88.0392 95.9328 87.6927V72.7935C96.4541 70.6607 99.6125 70.0209 100.686 72.0623C101.514 73.6466 101.115 75.688 101.115 77.3943C101.078 82.2998 101.078 98.8748 101.078 102.226ZM123.8 53.6256C126.713 58.6834 126.989 64.3811 124.69 70.5358C122.819 75.4717 119.17 80.5905 114.908 84.1553C114.172 84.7647 111.903 86.0139 111.044 84.917C110.185 83.8202 111.596 81.9006 112.393 81.1998C114.018 79.8287 117.851 76.0811 118.219 71.0842C118.434 68.2811 117.453 65.6303 115.429 63.3451C115.007 62.8913 114.424 62.6181 113.804 62.5834C113.494 62.5734 113.185 62.6249 112.896 62.7347C112.606 62.8446 112.342 63.0107 112.117 63.2233L104.911 70.0483C104.293 68.9008 103.373 67.941 102.25 67.2705C101.128 66.6 99.8431 66.2438 98.5331 66.2397C97.6637 66.2352 96.8008 66.3901 95.988 66.6967V59.9631C95.9847 58.057 95.2212 56.2299 93.8648 54.8821C92.5084 53.5343 90.6696 52.7757 88.7513 52.7725C87.8818 52.768 87.019 52.9229 86.2061 53.2295C86.177 52.4232 86.0025 51.6286 85.691 50.8834C86.9721 50.805 88.1853 50.2838 89.1205 49.4102C90.0557 48.5366 90.654 47.3656 90.8119 46.0998C91.2412 43.2358 89.892 40.6764 88.0214 38.6045C88.5734 38.117 89.1254 37.5991 89.8306 36.9287C97.8953 29.2811 103.507 31.9014 103.936 32.1147C104.363 32.3695 104.864 32.4749 105.359 32.4142C105.853 32.3535 106.313 32.1301 106.665 31.7795L110.498 28.1537L128.498 46.8311L124.266 50.8225C123.87 51.1613 123.607 51.6277 123.521 52.14C123.436 52.6524 123.535 53.1782 123.8 53.6256ZM135.299 46.6483L110.836 21.2709L127.762 5.21382L152.232 30.5943L135.299 46.6483Z" fill="black"/>
<path d="M136.901 39.0334C137.496 39.0327 138.067 38.8035 138.495 38.3936L143.003 34.128C145.15 32.0866 141.96 28.7959 139.814 30.8069L135.306 35.0725C133.859 36.5045 134.871 39.0334 136.901 39.0334Z" fill="black"/>
<path d="M37.388 22.7328C37.8359 22.7257 38.2721 22.5897 38.6438 22.3412C39.0154 22.0927 39.3065 21.7424 39.4818 21.3328C39.6571 20.9232 39.709 20.4719 39.6313 20.0335C39.5535 19.5952 39.3495 19.1886 39.0439 18.8632L34.7509 14.3843C32.6964 12.2515 29.3847 15.4203 31.4086 17.5531L35.7015 22.032C36.1483 22.478 36.7547 22.7299 37.388 22.7328Z" fill="black"/>
<path d="M66.3359 136.168V142.353C66.3359 145.308 70.9355 145.308 70.9355 142.353V136.168C70.9355 133.212 66.3359 133.212 66.3359 136.168Z" fill="black"/>
</g>
<defs>
<clipPath id="657yu6hrgdf">
<rect width="157" height="156" fill="white" transform="translate(0.445312)"/>
</clipPath>
</defs>
</svg>
