<svg width="90" height="87" viewBox="0 0 90 87" fill="none" xmlns="http://www.w3.org/2000/svg">
<g clip-path="url(#clip0)">
<path d="M0.000781247 60.767C0.29375 60.5996 0.249219 60.2694 0.342969 60.0137C0.78125 58.8395 1.45625 57.8234 2.50859 57.1282C3.11562 56.7259 3.28906 56.4515 2.84844 55.7563C2.04922 54.5031 1.81484 53.0568 1.8125 51.5827C1.8125 49.2575 1.80078 46.9324 1.8125 44.6072C1.83359 41.2102 4.07656 39.0059 7.50312 38.999C9.40625 38.999 11.3117 38.985 13.2148 38.999C16.3766 39.0245 18.6336 41.2381 18.6664 44.3747C18.6922 46.844 18.6664 49.3157 18.6664 51.785C18.6915 53.2144 18.3254 54.6239 17.607 55.8633C17.3891 56.233 17.3562 56.4329 17.7875 56.6678C18.4367 57.0235 18.9078 57.5978 19.3531 58.1721C21.3406 60.7949 23.3375 63.4061 25.3203 66.0358C25.4468 66.243 25.6289 66.4111 25.8462 66.5216C26.0635 66.632 26.3074 66.6804 26.5508 66.6613C27.8375 66.6124 29.1289 66.6194 30.418 66.6613C30.9758 66.6799 31.1211 66.4892 31.0953 65.9637C31.0602 64.5989 31.1352 63.2294 31.0719 61.8668C30.9875 60.0672 31.7305 58.6651 33.0078 57.4769C33.9797 56.5926 35.0944 55.8766 36.3055 55.3587C36.7742 55.1541 37.0086 54.9913 36.7578 54.4124C36.3758 53.5218 36.3312 52.5523 36.3336 51.5873C36.3336 49.2343 36.3336 46.8789 36.3336 44.5258C36.3523 41.2218 38.5836 39.0083 41.9 38.9966C45.0641 38.9966 48.2281 38.9966 51.3922 38.9966C52.7562 38.9966 53.2109 39.4221 53.1945 40.7637C53.1477 44.8025 53.3281 48.8413 53.0961 52.8778C53.0887 53.0516 53.0699 53.2249 53.0398 53.3963C52.7562 54.8751 52.7539 54.8751 54.0758 55.5354C55.0513 56.004 55.9613 56.5965 56.7828 57.2979C58.1891 58.5349 59.0141 60.0137 58.9133 61.9482C58.843 63.3107 58.9133 64.6803 58.8922 66.0451C58.8922 66.4846 58.9977 66.6613 59.4758 66.652C60.882 66.6241 62.2883 66.6171 63.6945 66.652C64.2125 66.6659 64.4094 66.3427 64.6531 66.0242C66.6109 63.4526 68.5641 60.8794 70.5125 58.3047C71.0094 57.649 71.5273 57.0142 72.2586 56.6143C72.6195 56.4167 72.5937 56.2539 72.4086 55.9423C71.5719 54.5263 71.2766 52.9824 71.3023 51.3502C71.3352 49.0552 71.3023 46.758 71.3141 44.4631C71.3375 41.2218 73.5828 39.0059 76.8453 38.9897C78.807 38.9897 80.7711 38.9734 82.7328 38.9897C85.6648 39.0176 87.9594 40.9846 88.1234 43.8888C88.2758 46.7557 88.1703 49.6388 88.1234 52.5151C88.1 53.8125 87.6219 55.0099 86.9656 56.1283C86.8344 56.3609 86.6117 56.5376 86.9867 56.7515C88.6273 57.6955 89.443 59.2138 89.9937 60.9368V71.2256C89.7055 71.6906 89.3727 72.0952 88.7727 72.1556C87.7016 71.9743 87.3664 71.6045 87.3664 70.5536C87.3664 67.7494 87.3664 64.9445 87.3664 62.1389C87.3792 61.661 87.2942 61.1854 87.1166 60.741C86.9389 60.2966 86.6723 59.8926 86.3328 59.5533C85.3273 58.5349 84.8633 58.493 83.6445 59.2743C80.6516 60.6391 77.7523 60.5368 74.9726 58.6976C74.5742 58.4326 74.2555 58.5581 73.9086 58.6976C73.4023 58.9046 73.0672 59.3045 72.7367 59.7277C70.5898 62.5551 68.4101 65.3615 66.2984 68.2145C66.0595 68.5748 65.7276 68.8649 65.3372 69.0547C64.9468 69.2445 64.5123 69.3269 64.0789 69.2933C61.3273 69.2492 58.5758 69.2631 55.8242 69.2933C54.3641 69.2933 53.3422 70.3141 53.3398 71.6696C53.3375 73.0252 54.3758 74.0506 55.9039 74.0599C59.3 74.0762 62.7008 74.0181 66.0898 74.0901C67.4094 74.118 68.3023 73.6251 69.0547 72.6067C70.7492 70.3141 72.4906 68.054 74.2109 65.7824C74.8719 64.9128 75.6172 64.7012 76.2875 65.1848C76.9578 65.6684 76.9906 66.4636 76.3344 67.3239C75.0547 69.0198 73.7695 70.7117 72.4789 72.3997C72.2411 72.654 72.1017 72.9834 72.0852 73.3298C72.0992 76.785 72.0992 80.2409 72.0852 83.6977C72.0852 84.1325 72.1836 84.3115 72.6664 84.3092C76.5594 84.2813 80.45 84.2766 84.343 84.265C85.0695 84.2766 85.8008 84.251 86.5227 84.3138C87.1555 84.3673 87.3711 84.1999 87.3547 83.5233C87.3055 81.3865 87.3312 79.2473 87.3383 77.1082C87.3383 76.02 87.6172 75.6991 88.707 75.4643C89.219 75.5721 89.671 75.8678 89.9726 76.292V86.0577C89.5344 86.725 88.918 86.9226 88.1187 86.9226C59.3547 86.9071 30.5914 86.9071 1.82891 86.9226C1.02969 86.9226 0.422656 86.7273 -0.0273438 86.0577V76.292C0.328906 75.8572 0.734375 75.4992 1.32266 75.4131C2.31875 75.6457 2.64219 76.2874 2.62578 77.2733C2.58828 79.5612 2.62578 81.8515 2.62578 84.1418C2.61172 84.2603 2.65859 84.3138 2.78047 84.2859L14.893 84.272C15.6242 84.272 16.3555 84.2603 17.082 84.3138C17.6937 84.3603 17.8766 84.1557 17.8719 83.5395C17.8438 80.2053 17.8578 76.871 17.8578 73.5414C17.8993 73.2246 17.8244 72.9035 17.6469 72.6369C16.7281 71.4743 15.8258 70.3118 14.9164 69.1352C14.4008 68.4377 13.8781 67.7401 13.3742 67.0263C13.2208 66.8291 13.1303 66.5909 13.1144 66.3423C13.0986 66.0937 13.158 65.8461 13.2852 65.6312C13.3912 65.4222 13.5551 65.2475 13.7577 65.1277C13.9603 65.0078 14.1931 64.9478 14.4289 64.9546C15.0312 64.9546 15.3781 65.322 15.7063 65.7521C17.518 68.1424 19.3438 70.521 21.1461 72.9159C21.4006 73.288 21.7461 73.5898 22.1503 73.7931C22.5545 73.9965 23.0041 74.0947 23.457 74.0785C26.9398 74.0576 30.425 74.0785 33.9078 74.0785C34.2883 74.1022 34.6699 74.0549 35.0328 73.939C35.5599 73.7466 36.0017 73.3762 36.2807 72.8927C36.5598 72.4092 36.6582 71.8436 36.5586 71.2953C36.4851 70.7421 36.2094 70.235 35.7838 69.8702C35.3582 69.5054 34.8124 69.3084 34.25 69.3166C31.4117 69.2887 28.5711 69.2817 25.7305 69.3166C25.3386 69.3463 24.9458 69.2716 24.5927 69.1004C24.2396 68.9291 23.939 68.6674 23.7219 68.3424C22.6297 66.8333 21.4789 65.3662 20.3516 63.8827C19.2594 62.4458 18.1766 61.0019 17.0703 59.5789C16.2336 58.507 15.6219 58.4163 14.4922 59.0418C11.7617 60.5764 8.98672 60.6275 6.2 59.1952C5.02813 58.5884 4.55937 58.6325 3.62187 59.5789C3.28115 59.9197 3.01383 60.3257 2.83615 60.7721C2.65847 61.2186 2.57414 61.6963 2.58828 62.1761C2.58828 64.9662 2.58828 67.7564 2.58828 70.5466C2.58828 71.4767 2.21797 72.037 1.28516 72.2021C0.703906 72.1277 0.300781 71.751 0.000781247 71.2302V60.767ZM47.7969 41.6427C45.8352 41.6427 43.8734 41.6171 41.9117 41.6217C40.0367 41.6217 38.9375 42.7843 38.9727 44.6444C38.9727 45.0746 39.0617 45.2513 39.5469 45.2466C42.2984 45.2187 45.0523 45.2234 47.8039 45.2164C48.3559 45.2036 48.9082 45.2191 49.4586 45.2629C50.3445 45.3745 50.6305 45.0978 50.6141 44.1608C50.5461 41.4171 50.593 41.4148 47.7969 41.6427ZM82.6133 51.1758C83.3586 51.4711 84.1039 51.2874 84.8609 51.2176C85.4352 51.1641 85.5945 50.9247 85.5875 50.3875C85.5641 48.6181 85.5875 46.8487 85.5875 45.0792C85.5875 42.4774 84.3383 41.3776 81.7273 41.6799C80.007 41.6636 78.2844 41.6031 76.5711 41.6427C76.011 41.6598 75.4706 41.8514 75.0264 42.1903C74.5822 42.5292 74.2567 42.9981 74.0961 43.5307C73.9039 44.1538 74.0328 44.7979 73.9883 45.4303C73.9461 46.0023 74.2226 46.1069 74.7383 46.0558C75.732 45.9581 76.5641 45.5419 77.3703 44.9816C78.3078 44.3375 79.3461 44.8653 79.4797 45.9814C79.5383 46.4976 79.5828 47.0184 79.6672 47.5299C79.9953 49.6109 80.9961 50.8316 82.6133 51.1641V51.1758ZM66.6102 76.7524C66.2609 76.7338 65.907 76.699 65.5625 76.699C59.2687 76.699 52.975 76.699 46.6812 76.699C38.2437 76.699 29.8133 76.6935 21.3898 76.6827C20.6867 76.6827 20.4969 76.864 20.5133 77.5523C20.5602 79.4682 20.5789 81.3865 20.5133 83.3024C20.4805 84.1673 20.7477 84.3347 21.5797 84.3347C36.275 84.3084 50.9703 84.3014 65.6656 84.3138C65.9867 84.3138 66.3078 84.2906 66.6289 84.2766C67.3859 84.2882 68.1406 84.2906 68.8977 84.3185C69.2844 84.3324 69.4859 84.2348 69.4836 83.7976C69.4695 81.6027 69.4836 79.4054 69.4836 77.2105C69.4836 76.8478 69.3523 76.6804 68.975 76.6966C68.1805 76.7083 67.3953 76.7082 66.6125 76.7338L66.6102 76.7524ZM51.1859 74.0785C51.1856 73.9772 51.177 73.8761 51.1602 73.7762C49.8594 70.056 51.7742 67.0728 55.7398 66.6775C56.1734 66.6357 56.2742 66.4939 56.2672 66.1009C56.2484 64.9104 56.1477 63.706 56.2859 62.5318C56.5203 60.6182 55.5242 59.4696 54.05 58.5442C53.3302 58.1015 52.5753 57.7173 51.793 57.3956C51.4086 57.2328 51.1859 57.2886 50.8812 57.5792C47.1687 61.0925 42.5469 61.1228 38.7336 57.6653C38.4992 57.449 38.3211 57.3235 37.9859 57.4723C36.725 58.0326 35.5156 58.6604 34.5453 59.6695C34.2719 59.9318 34.0569 60.2478 33.914 60.5974C33.7711 60.947 33.7036 61.3224 33.7156 61.6994C33.7531 63.0945 33.7695 64.4896 33.7156 65.8847C33.6852 66.5659 33.9312 66.6799 34.55 66.7101C35.2229 66.7465 35.8815 66.9168 36.4868 67.2108C37.092 67.5048 37.6315 67.9165 38.0732 68.4215C38.5148 68.9265 38.8496 69.5144 39.0577 70.1502C39.2658 70.7861 39.3429 71.457 39.2844 72.1231C39.2352 72.7904 38.5344 73.6298 39.0148 73.9832C39.4953 74.3366 40.4211 74.0715 41.1523 74.0785H51.1883H51.1859ZM44.7664 47.8624C43.0414 47.8624 41.3141 47.881 39.5891 47.8624C39.0805 47.8624 38.9492 48.0136 38.9633 48.4995C38.9984 49.6877 38.9516 50.8782 38.9914 52.0686C39.0437 53.5182 39.6469 54.8945 40.6798 55.921C41.7128 56.9475 43.0991 57.5482 44.5602 57.6025C47.4969 57.7257 50.1289 55.4727 50.4781 52.5244C50.6352 51.1944 50.4922 49.8551 50.5648 48.5251C50.5953 47.9508 50.3633 47.8601 49.8617 47.8694C48.1672 47.8764 46.4703 47.8624 44.7664 47.8624ZM4.45391 47.3393C4.45391 48.3856 4.45391 49.4319 4.45391 50.4759C4.45391 50.727 4.40469 50.9898 4.72344 51.1409C6.26094 51.8687 8.82031 51.0432 9.66172 49.5365C10.257 48.4693 10.4445 47.2997 10.5453 46.1093C10.6555 44.8118 11.6891 44.3096 12.7602 45.042C13.2081 45.369 13.7005 45.6312 14.2227 45.821C15.8352 46.3534 16.0414 46.2162 16.0297 44.5863C16.0156 42.6797 14.9586 41.631 13.0391 41.6241C11.1953 41.6241 9.35078 41.6241 7.50547 41.6241C5.55312 41.6241 4.47266 42.6983 4.45859 44.6467C4.4375 45.5396 4.45391 46.4394 4.45391 47.3393ZM4.92266 53.8148C5.62578 56.026 7.94609 57.6164 10.2805 57.5862C11.5178 57.5709 12.7185 57.1674 13.7104 56.4336C14.7024 55.6997 15.4347 54.6731 15.8023 53.5009C16.2406 52.0245 15.9805 50.5015 16.0367 48.9994C16.0508 48.6437 15.8023 48.6786 15.568 48.6693C14.9844 48.6437 14.3844 48.6437 13.843 48.4135C13.1258 48.1089 12.8633 48.2763 12.657 49.039C12.0359 51.3781 10.6484 53.0708 8.20391 53.7172C7.12495 53.9874 5.99953 54.0207 4.90625 53.8148H4.92266ZM85.1867 53.845C84.807 53.8822 84.582 53.9101 84.3523 53.9288C81.0406 54.1985 78.5398 52.5778 77.4594 49.4598C77.3506 49.1906 77.2674 48.912 77.2109 48.6274C77.1523 48.2275 76.9766 48.1624 76.618 48.2949C75.9597 48.5435 75.2598 48.6658 74.5555 48.6553C74.075 48.6553 73.9625 48.8413 73.9766 49.2715C74.0023 50.1411 73.9766 51.013 73.9906 51.8849C74.075 55.5447 77.2719 58.1396 80.8906 57.4421C82.9062 57.0491 84.2797 55.8214 85.168 53.845H85.1867Z" fill="#040303"/>
<path d="M49.2992 34.7882C49.1094 35.6694 48.5445 36.0182 47.6586 36.0112C45.1977 35.9903 42.7367 36.0112 40.2781 35.9973C37.4117 35.9694 35.0797 34.2952 34.2008 31.5911C34.0273 31.0563 33.7977 30.9494 33.2914 30.9494C27.6102 30.9649 21.9281 30.9649 16.2453 30.9494C16.044 30.9441 15.844 30.9831 15.6597 31.0635C15.4753 31.1439 15.3111 31.2637 15.1789 31.4144C13.4492 33.1443 11.6961 34.8556 9.96875 36.5971C9.45781 37.111 8.90703 37.4621 8.18047 37.1459C7.49375 36.8459 7.37187 36.2321 7.38359 35.5439C7.40703 34.2069 7.38359 32.8699 7.39766 31.5353C7.39766 31.0703 7.33906 30.8587 6.79531 30.7192C3.13672 29.7775 0.74375 26.7176 0.725 22.9415C0.698437 18.1192 0.698437 13.296 0.725 8.47211C0.755469 3.91249 4.28047 0.459635 8.89297 0.443359C18.4117 0.443359 27.9305 0.443359 37.4492 0.443359C42.0852 0.443359 45.5492 3.83111 45.6711 8.42328C45.6711 8.50931 45.6711 8.59767 45.6711 8.6837C45.7273 9.38124 45.357 10.3113 45.8258 10.6787C46.2945 11.0461 47.1664 10.7973 47.8648 10.7996C54.4836 10.7996 61.1023 10.7996 67.7211 10.7996C71.0961 10.7996 73.5805 12.7434 74.2555 15.8545C74.3495 16.3683 74.3904 16.8903 74.3773 17.4123C74.3867 21.393 74.3867 25.3736 74.3773 29.3543C74.3773 32.5026 72.8789 34.613 69.882 35.6857C69.7159 35.7185 69.5689 35.8137 69.4719 35.9515C69.375 36.0894 69.3355 36.259 69.3617 36.4251C69.3852 37.8202 69.3617 39.2153 69.3617 40.6104C69.3617 41.2916 69.2328 41.9055 68.5226 42.1868C67.8125 42.4682 67.2969 42.1264 66.8117 41.6381C65.0797 39.9035 63.3266 38.1922 61.6039 36.4507C61.4601 36.2937 61.2828 36.1706 61.0849 36.0901C60.8871 36.0097 60.6736 35.974 60.4601 35.9856C58.3508 36.0089 56.2414 36.0042 54.132 35.9856C53.2203 35.9856 52.6953 35.5532 52.557 34.7649C52.8687 33.5861 53.1477 33.3698 54.3969 33.3698C55.6461 33.3698 56.9352 33.5186 58.168 33.3396C61.1164 32.9095 63.3898 33.8395 65.1312 36.2251C65.5481 36.8122 66.0908 37.3005 66.7203 37.6551C66.7203 36.739 66.7203 35.9275 66.7203 35.1184C66.7203 33.8046 67.0203 33.4907 68.3328 33.3582C69.2454 33.2892 70.099 32.884 70.7257 32.2222C71.3525 31.5605 71.707 30.6901 71.7195 29.7821C71.7461 25.5131 71.7461 21.2449 71.7195 16.9775C71.7078 15.2243 70.4984 13.8944 68.7219 13.5316C68.4031 13.4991 68.0844 13.441 67.7656 13.4386C60.65 13.4386 53.5367 13.4386 46.4211 13.42C45.8094 13.42 45.6406 13.5712 45.6477 14.1827C45.6828 16.8543 45.6195 19.5305 45.6734 22.1998C45.7461 25.8596 44.2531 28.5777 40.9578 30.2844C39.807 30.7168 38.6305 31.0307 37.3859 30.9563C36.7625 30.9191 36.7602 31.147 37.0391 31.5864C37.3732 32.1506 37.8541 32.6154 38.4313 32.932C39.0086 33.2486 39.661 33.4054 40.3203 33.3861C42.7414 33.3861 45.1625 33.3861 47.5859 33.3861C48.7508 33.3884 49.0906 33.693 49.2992 34.7882ZM40.0789 3.71717C39.3266 3.20331 38.4617 3.06613 37.5828 3.06613C27.9797 3.05683 18.3758 3.05683 8.77109 3.06613C5.66328 3.06613 3.36172 5.42151 3.35 8.51164C3.33125 13.3038 3.35 18.0982 3.35 22.8904C3.31368 23.7643 3.52651 24.6306 3.96406 25.3899C4.87812 27.2128 6.3875 28.1615 8.41719 28.3243C9.62422 28.4219 10.025 28.8125 10.032 30.01C10.032 30.8866 10.032 31.7608 10.032 32.8629C11.368 31.5213 12.5422 30.3843 13.6625 29.1962C13.9215 28.9049 14.2433 28.6753 14.604 28.5244C14.9647 28.3734 15.3551 28.305 15.7461 28.3243C23.0102 28.3522 30.2758 28.3522 37.543 28.3243C40.6039 28.3243 42.9641 26.1433 43.0109 23.1252C43.0875 18.1866 43.0875 13.2472 43.0109 8.30702C42.9758 6.27019 42.0266 4.64956 40.0789 3.71717Z" fill="#040404"/>
<path d="M68.7289 13.5312C70.5079 13.8916 71.7196 15.2216 71.7196 16.9748C71.7493 21.2438 71.7493 25.512 71.7196 29.7794C71.7112 30.6894 71.3592 31.5632 70.733 32.2283C70.1069 32.8934 69.2521 33.3014 68.3375 33.3718C67.025 33.5043 66.7344 33.8182 66.725 35.1319C66.725 35.9411 66.725 36.7595 66.725 37.6686C66.1044 37.315 65.5692 36.8309 65.1571 36.2503C63.4157 33.8647 61.1422 32.9346 58.1938 33.3648C56.961 33.5438 55.6813 33.3927 54.4227 33.395C53.1641 33.3973 52.8946 33.6089 52.5829 34.7901H49.3016C49.093 33.6833 48.7415 33.395 47.593 33.395C45.1719 33.395 42.7508 33.395 40.3274 33.395C39.6681 33.4143 39.0156 33.2575 38.4384 32.9409C37.8611 32.6243 37.3803 32.1595 37.0461 31.5954C36.7649 31.1559 36.7696 30.928 37.393 30.9652C38.6375 31.0396 39.8141 30.7327 40.9649 30.2933C41.1852 30.5002 41.4618 30.4305 41.7172 30.4305C49.1844 30.4305 56.6516 30.4305 64.1188 30.4305C66.4954 30.4305 68.7266 28.1751 68.7289 25.8313C68.7336 21.7266 68.7336 17.6266 68.7289 13.5312Z" fill="#80A8E8"/>
<path d="M1.34961 75.408C1.34961 74.3307 1.34961 73.2533 1.34961 72.176C2.28711 72.0109 2.65977 71.4483 2.65273 70.5205C2.63164 67.7303 2.65273 64.9402 2.65273 62.15C2.63859 61.6702 2.72292 61.1925 2.9006 60.746C3.07828 60.2996 3.34561 59.8936 3.68633 59.5528C4.62383 58.6064 5.07617 58.5646 6.26445 59.1691C9.05117 60.5991 11.8238 60.5503 14.5566 59.0157C15.677 58.3856 16.2887 58.4786 17.1348 59.5528C18.2457 60.9758 19.3285 62.4197 20.416 63.8566C21.5434 65.3401 22.6941 66.8072 23.7863 68.3163C24.0034 68.6413 24.304 68.903 24.6571 69.0743C25.0102 69.2455 25.403 69.3202 25.7949 69.2905C28.6332 69.2556 31.4738 69.2626 34.3145 69.2905C34.8768 69.2823 35.4227 69.4793 35.8483 69.8441C36.2738 70.2089 36.5496 70.716 36.623 71.2692C36.722 71.822 36.6198 72.3917 36.3348 72.8767C36.0498 73.3618 35.6004 73.7306 35.0668 73.9176C34.7039 74.0335 34.3223 74.0808 33.9418 74.0571C30.459 74.0571 26.9738 74.0454 23.491 74.0571C23.0381 74.0732 22.5885 73.975 22.1843 73.7717C21.7801 73.5683 21.4346 73.2665 21.1801 72.8945C19.3777 70.4973 17.552 68.1186 15.7402 65.7307C15.4145 65.3006 15.0652 64.9285 14.4629 64.9332C14.2271 64.9263 13.9943 64.9864 13.7917 65.1062C13.5891 65.2261 13.4252 65.4008 13.3191 65.6098C13.192 65.8246 13.1326 66.0723 13.1484 66.3209C13.1643 66.5695 13.2548 66.8077 13.4082 67.0049C13.9121 67.7164 14.4348 68.4116 14.9504 69.1138L14.9246 84.2552L2.81211 84.2761L2.65742 84.1319C2.65742 81.8417 2.61289 79.5537 2.65742 77.2635C2.6668 76.2822 2.34336 75.6405 1.34961 75.408Z" fill="#FF833D"/>
<path d="M84.3762 84.2575C80.4832 84.2691 76.5926 84.2738 72.6996 84.3017C72.2168 84.3017 72.116 84.125 72.1184 83.6902C72.1324 80.235 72.1324 76.779 72.1184 73.3223C72.1349 72.9759 72.2743 72.6465 72.5121 72.3922C73.7996 70.7026 75.0848 69.0107 76.3676 67.3164C77.0168 66.4561 76.9934 65.6679 76.3207 65.1773C75.648 64.6867 74.9144 64.9053 74.2441 65.7749C72.5191 68.0465 70.7777 70.3042 69.0879 72.5992C68.3355 73.6176 67.4473 74.1082 66.123 74.0826C62.7293 74.0129 59.3262 74.071 55.9371 74.0524C54.4113 74.0524 53.373 73.0479 53.373 71.6621C53.373 70.2763 54.3973 69.2975 55.8574 69.2858C58.609 69.2649 61.3605 69.2486 64.1121 69.2858C64.5455 69.3194 64.98 69.237 65.3704 69.0472C65.7608 68.8574 66.0927 68.5673 66.3316 68.207C68.441 65.354 70.6207 62.5475 72.7699 59.7202C73.091 59.297 73.4262 58.8971 73.9418 58.6901C74.2887 58.5483 74.6051 58.4227 75.0058 58.6901C77.7738 60.5293 80.6754 60.6316 83.6777 59.2668C84.0152 60.0643 84.416 60.8339 84.4137 61.7384C84.3887 69.2471 84.3762 76.7534 84.3762 84.2575Z" fill="#FF833D"/>
<path d="M66.6221 84.2551C66.301 84.269 65.98 84.2923 65.6589 84.2923C50.9636 84.2923 36.2682 84.2993 21.5729 84.3132C20.7433 84.3132 20.4737 84.1481 20.5065 83.2809C20.5792 81.3673 20.5604 79.4467 20.5065 77.5308C20.4901 76.8332 20.6917 76.6588 21.3831 76.6612C29.8206 76.6844 38.2511 76.6898 46.6745 76.6774C52.9682 76.6774 59.262 76.6774 65.5557 76.6774C65.905 76.6774 66.2589 76.7123 66.6034 76.7309C66.6128 79.239 66.619 81.747 66.6221 84.2551Z" fill="#FDE49D"/>
<path d="M51.1873 74.0624H41.1443C40.413 74.0624 39.4779 74.3182 39.0068 73.9671C38.5357 73.616 39.2271 72.7696 39.2763 72.107C39.3348 71.4409 39.2577 70.7701 39.0497 70.1342C38.8416 69.4983 38.5068 68.9104 38.0651 68.4054C37.6235 67.9005 37.084 67.4887 36.4787 67.1947C35.8735 66.9007 35.2149 66.7305 34.542 66.694C33.9232 66.6638 33.6771 66.5499 33.7076 65.8686C33.7685 64.4735 33.7521 63.0784 33.7076 61.6833C33.6955 61.3063 33.7631 60.9309 33.906 60.5813C34.0489 60.2317 34.2639 59.9157 34.5373 59.6535C35.5076 58.6444 36.717 58.0259 37.9779 57.4562C38.313 57.3074 38.4865 57.433 38.7255 57.6492C42.5365 61.1067 47.163 61.0765 50.8732 57.5632C51.1779 57.2748 51.4005 57.219 51.7849 57.3795C52.5673 57.7012 53.3221 58.0854 54.042 58.5281C55.5162 59.4582 56.5005 60.5998 56.2779 62.5157C56.1396 63.6899 56.2404 64.8944 56.2591 66.0848C56.2591 66.4778 56.163 66.6196 55.7318 66.6615C51.7662 67.0568 49.8513 70.0422 51.1521 73.7602C51.1721 73.8598 51.1839 73.9609 51.1873 74.0624Z" fill="#A4C0EF"/>
<path d="M44.7662 47.8628C46.4631 47.8628 48.16 47.8791 49.8545 47.8628C50.3631 47.8628 50.5928 47.9442 50.5576 48.5185C50.485 49.8508 50.6303 51.1878 50.4709 52.5178C50.1217 55.4661 47.4897 57.7191 44.5529 57.5959C43.0919 57.5416 41.7056 56.9409 40.6726 55.9144C39.6396 54.8879 39.0364 53.5116 38.9842 52.062C38.9444 50.8739 38.9842 49.6834 38.9561 48.4929C38.942 48.0093 39.0733 47.8465 39.5819 47.8558C41.3069 47.8861 43.0319 47.8558 44.7592 47.8558L44.7662 47.8628Z" fill="#D3A575"/>
<path d="M84.3746 84.2575C84.3746 76.7535 84.3746 69.2502 84.3746 61.7477C84.3746 60.8456 83.9738 60.0736 83.6387 59.2761C84.8574 58.4948 85.3215 58.5367 86.327 59.5551C86.6665 59.8944 86.9331 60.2985 87.1107 60.7429C87.2884 61.1873 87.3734 61.6628 87.3606 62.1407C87.3606 64.9448 87.3606 67.7497 87.3606 70.5554C87.3606 71.6064 87.7027 71.9761 88.7668 72.1574C88.7512 73.258 88.7363 74.3586 88.7223 75.4592C87.6324 75.6917 87.3559 76.0149 87.3535 77.103C87.3535 79.2422 87.3207 81.379 87.3699 83.5181C87.3863 84.1948 87.1707 84.3622 86.5379 84.3087C85.8254 84.2436 85.0965 84.2692 84.3746 84.2575Z" fill="#DE6C35"/>
<path d="M4.45305 47.3397C4.45305 46.4399 4.45305 45.5401 4.45305 44.6379C4.4718 42.6895 5.55227 41.6152 7.49992 41.6152C9.34367 41.6152 11.1882 41.6152 13.0335 41.6152C14.9554 41.6152 16.0101 42.6732 16.0241 44.5775C16.0359 46.2051 15.832 46.3446 14.2171 45.8121C13.6949 45.6224 13.2025 45.3601 12.7546 45.0332C11.6835 44.3031 10.6452 44.8007 10.5398 46.1004C10.439 47.2932 10.2515 48.4628 9.65617 49.5277C8.81476 51.0344 6.25539 51.8529 4.71789 51.1321C4.3968 50.9809 4.44836 50.7182 4.44836 50.4671C4.44133 49.4301 4.45305 48.3861 4.45305 47.3397Z" fill="#C38985"/>
<path d="M4.90625 53.8149C6.00021 54.0178 7.12564 53.9813 8.20391 53.708C10.6555 53.0592 12.043 51.3642 12.657 49.039C12.8563 48.2857 13.1258 48.1276 13.8148 48.4229C14.3563 48.6554 14.9563 48.6554 15.5398 48.6787C15.7742 48.6787 16.0297 48.6531 16.0086 49.0088C15.95 50.5109 16.2102 52.0315 15.7742 53.5103C15.4066 54.6825 14.6743 55.7091 13.6823 56.443C12.6904 57.1768 11.4897 57.5803 10.2523 57.5956C7.92969 57.6165 5.62578 56.0261 4.90625 53.8149Z" fill="#D3A575"/>
<path d="M85.1676 53.8454C84.2793 55.8218 82.9036 57.0494 80.8739 57.4424C77.2528 58.1399 74.0582 55.5451 73.9739 51.8853C73.9528 51.0157 73.9856 50.1437 73.9598 49.2718C73.9481 48.8417 74.0582 48.651 74.5387 48.6556C75.243 48.6661 75.9429 48.5438 76.6012 48.2952C76.9692 48.1557 77.1356 48.2255 77.1942 48.6277C77.2506 48.9123 77.3338 49.191 77.4426 49.4601C78.5231 52.5759 81.0239 54.1965 84.3356 53.9291C84.5629 53.9105 84.7903 53.8826 85.1676 53.8454Z" fill="#EBB77F"/>
<path d="M82.6128 51.1644C80.9956 50.8342 79.9948 49.6135 79.6456 47.5209C79.5589 47.007 79.5167 46.4885 79.4581 45.9723C79.3315 44.8539 78.2862 44.3285 77.3487 44.9725C76.5424 45.5306 75.7081 45.9491 74.7167 46.0467C74.2034 46.0956 73.9268 45.9933 73.9667 45.4213C74.0135 44.7888 73.8823 44.1448 74.0745 43.5216C74.2351 42.989 74.5606 42.5201 75.0048 42.1812C75.449 41.8424 75.9894 41.6508 76.5495 41.6336C78.2698 41.5941 79.9901 41.6522 81.7057 41.6708C82.4815 42.852 82.6713 44.1494 82.6221 45.5422C82.5682 47.4116 82.6151 49.288 82.6128 51.1644Z" fill="#46799C"/>
<path d="M14.9277 84.2625L14.9535 69.1211C15.8629 70.2837 16.7652 71.4625 17.684 72.6228C17.8615 72.8893 17.9364 73.2104 17.8949 73.5273C17.8949 76.8615 17.8785 80.1981 17.909 83.5254C17.909 84.1392 17.7309 84.3438 17.1191 84.2997C16.3902 84.2508 15.659 84.2741 14.9277 84.2625Z" fill="#DE6C35"/>
<path d="M47.8125 45.2187C45.061 45.2187 42.3071 45.2187 39.5555 45.2489C39.0704 45.2489 38.9883 45.0769 38.9813 44.6467C38.9461 42.7866 40.0383 41.624 41.9204 41.624C43.8821 41.624 45.8438 41.638 47.8055 41.6449C47.8008 42.8354 47.8032 44.0267 47.8125 45.2187Z" fill="#694B4B"/>
<path d="M82.6121 51.1639C82.6121 49.2875 82.5676 47.4111 82.6332 45.5393C82.6824 44.1442 82.4926 42.8491 81.7168 41.668C84.3277 41.3657 85.5746 42.4632 85.577 45.0673C85.577 46.8368 85.5629 48.6062 85.577 50.3756C85.577 50.9128 85.4246 51.1522 84.8504 51.2057C84.1027 51.2755 83.3574 51.4568 82.6121 51.1639Z" fill="#345B79"/>
<path d="M66.6211 84.2556C66.6211 81.7491 66.6211 79.2426 66.6211 76.7361C67.4062 76.7175 68.1891 76.7035 68.9648 76.6756C69.3422 76.6617 69.4758 76.8268 69.4734 77.1895C69.4734 79.3844 69.4734 81.5817 69.4734 83.7766C69.4734 84.2161 69.2742 84.3114 68.8875 84.2975C68.1328 84.2696 67.3781 84.2673 66.6211 84.2556Z" fill="#F7D379"/>
<path d="M47.8125 45.2188C47.8125 44.0268 47.8125 42.8348 47.8125 41.6427C50.6086 41.4102 50.5641 41.4102 50.625 44.1632C50.6484 45.0933 50.3531 45.3746 49.4695 45.2653C48.9184 45.2214 48.3653 45.2059 47.8125 45.2188Z" fill="#3F2D2D"/>
<path d="M2.66062 84.1328L2.8153 84.277C2.69343 84.3026 2.64655 84.2514 2.66062 84.1328Z" fill="#CB4350"/>
<path d="M3.97096 25.3945C3.53341 24.6352 3.32058 23.7689 3.3569 22.895C3.3569 18.1028 3.34049 13.3084 3.3569 8.51623C3.36862 5.42611 5.67018 3.08003 8.77799 3.07073C18.3811 3.04283 27.985 3.04283 37.5897 3.07073C38.4686 3.07073 39.3335 3.20791 40.0858 3.72177C40.0858 8.54259 40.0858 13.3634 40.0858 18.1842C40.0937 18.9068 40.0324 19.6285 39.903 20.3396C39.4014 22.9694 36.521 25.3689 33.8303 25.3689C27.01 25.3689 20.1897 25.3689 13.3694 25.3689C10.2358 25.3689 7.10221 25.3852 3.97096 25.3945ZM23.1756 10.1508C27.0663 10.1508 30.9577 10.1508 34.8499 10.1508C35.1409 10.1628 35.4324 10.1378 35.7171 10.0764C36.0253 10.0201 36.2994 9.84733 36.4817 9.59446C36.664 9.34159 36.7403 9.02839 36.6944 8.72085C36.6847 8.41074 36.5543 8.11642 36.3306 7.89965C36.1068 7.68288 35.8071 7.56053 35.4944 7.55827C35.26 7.53967 35.0256 7.55827 34.7913 7.55827H11.621C11.3576 7.54962 11.0939 7.55505 10.8311 7.57455C10.5343 7.58965 10.2537 7.71324 10.0434 7.92148C9.83304 8.12972 9.70789 8.40786 9.69206 8.70225C9.61237 9.34864 9.92643 9.81367 10.5475 10.0625C10.8843 10.1639 11.2379 10.1986 11.5882 10.1648L23.1756 10.1508ZM23.2038 17.01C27.2132 17.01 31.2217 17.01 35.2296 17.01C36.1085 17.01 36.6897 16.4845 36.7038 15.7382C36.7178 14.9918 36.1366 14.4523 35.2717 14.4012C35.096 14.4012 34.9202 14.4012 34.7444 14.4012H11.5811C11.2894 14.3861 10.9969 14.404 10.7092 14.4547C10.521 14.4901 10.3431 14.5669 10.1888 14.6796C10.0345 14.7923 9.90768 14.938 9.81769 15.1058C9.72771 15.2736 9.67686 15.4594 9.66891 15.6493C9.66096 15.8392 9.6961 16.0285 9.77174 16.2032C10.053 16.8589 10.5897 17.0263 11.2671 17.024C15.2538 17.003 19.2335 17.01 23.2038 17.01ZM17.1405 21.2953C15.2092 21.2953 13.278 21.2953 11.3491 21.2953C10.285 21.2953 9.70846 21.7394 9.67565 22.5415C9.64284 23.3437 10.2639 23.9064 11.3327 23.9087C15.1655 23.9165 18.9975 23.9165 22.8288 23.9087C23.9233 23.9087 24.5092 23.4112 24.4905 22.5555C24.4717 21.6998 23.9233 21.2976 22.8499 21.2953C20.9444 21.2883 19.0413 21.2953 17.1405 21.2953Z" fill="#A4C0EF"/>
<path d="M68.7289 13.5319C68.7289 17.6288 68.7289 21.725 68.7289 25.8204C68.7289 28.1641 66.4953 30.4149 64.1188 30.4195C56.6516 30.4335 49.1844 30.4335 41.7172 30.4195C41.4617 30.4195 41.1852 30.4893 40.9648 30.2823C44.2602 28.5757 45.7531 25.8645 45.6805 22.1978C45.6266 19.5262 45.6805 16.8499 45.6547 14.1806C45.6547 13.5691 45.8164 13.4157 46.4281 13.418C53.5438 13.4412 60.657 13.4319 67.7727 13.4366C68.0914 13.4389 68.4102 13.4994 68.7289 13.5319Z" fill="#A4C0EF"/>
<path d="M3.96875 25.3944C7.1 25.3944 10.2312 25.3712 13.3648 25.3688C20.1852 25.3688 27.0055 25.3688 33.8258 25.3688C36.5164 25.3688 39.3992 22.9693 39.8984 20.3395C40.0279 19.6284 40.0891 18.9067 40.0812 18.1841C40.0734 13.3633 40.0734 8.54249 40.0812 3.72168C42.0195 4.65174 42.9688 6.27935 42.9969 8.32315C43.0656 13.2618 43.0656 18.2012 42.9969 23.1413C42.95 26.164 40.5875 28.3357 37.5289 28.3404C30.2648 28.3543 22.9992 28.3543 15.732 28.3404C15.341 28.3211 14.9507 28.3895 14.5899 28.5405C14.2292 28.6914 13.9074 28.9211 13.6484 29.2123C12.5305 30.4005 11.3539 31.5375 10.018 32.8791C10.018 31.777 10.018 30.9027 10.018 30.0261C10.018 28.831 9.61016 28.438 8.40312 28.3404C6.39219 28.1637 4.88281 27.2173 3.96875 25.3944Z" fill="#80A8E8"/>
<path d="M23.174 10.1505H11.5865C11.2362 10.1844 10.8827 10.1496 10.5459 10.0482C9.92716 9.79942 9.60841 9.33439 9.69044 8.688C9.70627 8.39362 9.83142 8.11548 10.0418 7.90723C10.2521 7.69899 10.5327 7.5754 10.8295 7.5603C11.0923 7.54081 11.356 7.53537 11.6193 7.54403H34.7897C35.024 7.54403 35.2584 7.54403 35.4928 7.54403C35.8055 7.54628 36.1052 7.66863 36.3289 7.8854C36.5527 8.10217 36.6831 8.3965 36.6928 8.7066C36.7387 9.01415 36.6624 9.32735 36.4801 9.58021C36.2978 9.83308 36.0236 10.0059 35.7154 10.0622C35.4308 10.1235 35.1393 10.1485 34.8482 10.1366C30.9561 10.149 27.0647 10.1536 23.174 10.1505Z" fill="#040404"/>
<path d="M23.2024 17.0095C19.218 17.0095 15.2336 17.0095 11.2633 17.0095C10.5883 17.0095 10.0516 16.8444 9.768 16.1888C9.69236 16.0141 9.65721 15.8248 9.66517 15.6349C9.67312 15.445 9.72396 15.2592 9.81395 15.0914C9.90394 14.9236 10.0308 14.7779 10.1851 14.6652C10.3394 14.5525 10.5172 14.4756 10.7055 14.4402C10.9942 14.3917 11.2875 14.3761 11.5797 14.3937H34.7547C34.9305 14.3937 35.1063 14.3937 35.2821 14.3937C36.1446 14.4449 36.7282 14.9936 36.7141 15.7307C36.7 16.4678 36.1188 17.0002 35.2399 17.0026C31.2289 17.0119 27.2164 17.0142 23.2024 17.0095Z" fill="#040303"/>
<path d="M17.1407 21.296C19.0415 21.296 20.9446 21.296 22.8454 21.296C23.9235 21.296 24.4696 21.7308 24.486 22.5562C24.5024 23.3817 23.9188 23.9072 22.8243 23.9095C18.9915 23.9095 15.1594 23.9095 11.3282 23.9095C10.2594 23.9095 9.63835 23.3747 9.67116 22.5423C9.70397 21.7099 10.2805 21.3007 11.3446 21.296C13.2805 21.2914 15.2094 21.296 17.1407 21.296Z" fill="#040404"/>
<path d="M90.0004 65.5918H87.3613V79.3102H90.0004V65.5918Z" fill="#040303"/>
<path d="M2.66719 65.5918H0V79.3102H2.66719V65.5918Z" fill="#040303"/>
</g>
<defs>
<clipPath id="clip0">
<rect width="90" height="85.6098" fill="white" transform="translate(0 0.443359)"/>
</clipPath>
</defs>
</svg>
