<svg width="60" height="71" viewBox="0 0 60 71" fill="none" xmlns="http://www.w3.org/2000/svg">
<path d="M51.4075 27.9485H38.2168C37.2718 27.9485 36.5058 27.1825 36.5058 26.2375V24.2803C36.5058 23.3354 37.2718 22.5693 38.2168 22.5693H51.4075C52.3524 22.5693 53.1185 23.3354 53.1185 24.2803V26.2375C53.1185 27.1825 52.3524 27.9485 51.4075 27.9485Z" fill="#F7A405"/>
<path d="M49.6291 60.2234H36.4384C35.4935 60.2234 34.7274 59.4574 34.7274 58.5124V56.5552C34.7274 55.6102 35.4935 54.8442 36.4384 54.8442H49.6291C50.5741 54.8442 51.3401 55.6102 51.3401 56.5552V58.5124C51.3401 59.4574 50.5741 60.2234 49.6291 60.2234Z" fill="#F7A405"/>
<path d="M49.6291 49.4651H36.4384C35.4935 49.4651 34.7274 48.699 34.7274 47.7541V45.7969C34.7274 44.8519 35.4935 44.0859 36.4384 44.0859H49.6291C50.5741 44.0859 51.3401 44.8519 51.3401 45.7969V47.7541C51.3401 48.699 50.5741 49.4651 49.6291 49.4651Z" fill="#F7A405"/>
<path d="M56.8834 38.7067H43.6926C42.7477 38.7067 41.9817 37.9407 41.9817 36.9957V35.0385C41.9817 34.0936 42.7477 33.3275 43.6926 33.3275H56.8834C57.8283 33.3275 58.5943 34.0936 58.5943 35.0385V36.9957C58.5943 37.9407 57.8283 38.7067 56.8834 38.7067Z" fill="#F7A405"/>
<path d="M30.9391 62.8935C36.6537 62.8935 41.2863 58.2609 41.2863 52.5462C41.2863 46.8316 36.6537 42.1989 30.9391 42.1989C25.2244 42.1989 20.5918 46.8316 20.5918 52.5462C20.5918 58.2609 25.2244 62.8935 30.9391 62.8935Z" fill="#F7A405"/>
<path d="M49.6283 65.6032H36.4375C35.4926 65.6032 34.7266 64.8372 34.7266 63.8922V61.935C34.7266 60.9901 35.4926 60.224 36.4375 60.224H49.6283C50.5732 60.224 51.3392 60.9901 51.3392 61.935V63.8922C51.3392 64.8372 50.5732 65.6032 49.6283 65.6032Z" fill="#FFBE2D"/>
<path d="M51.8172 54.8448H38.6265C37.6816 54.8448 36.9155 54.0787 36.9155 53.1338V51.1766C36.9155 50.2316 37.6816 49.4656 38.6265 49.4656H51.8172C52.7622 49.4656 53.5282 50.2316 53.5282 51.1766V53.1338C53.5282 54.0787 52.7622 54.8448 51.8172 54.8448Z" fill="#FFBE2D"/>
<path d="M51.8205 44.0866H38.6297C37.6848 44.0866 36.9188 43.3205 36.9188 42.3756V40.4184C36.9188 39.4734 37.6848 38.7074 38.6297 38.7074H51.8205C52.7654 38.7074 53.5314 39.4734 53.5314 40.4184V42.3756C53.5314 43.3205 52.7654 44.0866 51.8205 44.0866Z" fill="#FFBE2D"/>
<path d="M49.6283 33.3284H36.4375C35.4926 33.3284 34.7266 32.5624 34.7266 31.6174V29.6602C34.7266 28.7152 35.4926 27.9492 36.4375 27.9492H49.6283C50.5732 27.9492 51.3392 28.7152 51.3392 29.6602V31.6174C51.3392 32.5624 50.5732 33.3284 49.6283 33.3284Z" fill="#FFBE2D"/>
<path d="M49.6296 60.224H46.8945C47.8395 60.224 48.6055 60.99 48.6055 61.9349V63.8922C48.6055 64.8371 47.8395 65.6032 46.8945 65.6032H49.6296C50.5745 65.6032 51.3405 64.8371 51.3405 63.8922V61.9349C51.3405 60.99 50.5745 60.224 49.6296 60.224Z" fill="#E49542"/>
<path d="M51.8181 49.4658H49.0831C50.028 49.4658 50.7941 50.2318 50.7941 51.1768V53.134C50.7941 54.0789 50.028 54.845 49.0831 54.845H51.8181C52.7631 54.845 53.5291 54.0789 53.5291 53.134V51.1768C53.5291 50.2317 52.7631 49.4658 51.8181 49.4658Z" fill="#E49542"/>
<path d="M51.8207 38.7074H49.0857C50.0306 38.7074 50.7966 39.4734 50.7966 40.4184V42.3756C50.7966 43.3206 50.0306 44.0866 49.0857 44.0866H51.8207C52.7656 44.0866 53.5317 43.3206 53.5317 42.3756V40.4184C53.5317 39.4734 52.7656 38.7074 51.8207 38.7074Z" fill="#E49542"/>
<path d="M49.6296 27.9492H46.8945C47.8395 27.9492 48.6055 28.7152 48.6055 29.6602V31.6174C48.6055 32.5624 47.8395 33.3284 46.8945 33.3284H49.6296C50.5745 33.3284 51.3405 32.5624 51.3405 31.6174V29.6602C51.3405 28.7152 50.5745 27.9492 49.6296 27.9492Z" fill="#E49542"/>
<path d="M51.407 22.5693H48.672C49.6169 22.5693 50.383 23.3354 50.383 24.2803V26.2375C50.383 27.1825 49.6169 27.9485 48.672 27.9485H51.407C52.352 27.9485 53.118 27.1825 53.118 26.2375V24.2803C53.118 23.3354 52.352 22.5693 51.407 22.5693Z" fill="#ECBE6B"/>
<path d="M49.6293 54.8442H46.8942C47.8392 54.8442 48.6052 55.6102 48.6052 56.5552V58.5124C48.6052 59.4574 47.8392 60.2234 46.8942 60.2234H49.6293C50.5742 60.2234 51.3403 59.4574 51.3403 58.5124V56.5552C51.3403 55.6102 50.5742 54.8442 49.6293 54.8442Z" fill="#ECBE6B"/>
<path d="M49.6293 44.0859H46.8942C47.8392 44.0859 48.6052 44.8519 48.6052 45.7969V47.7541C48.6052 48.699 47.8392 49.4651 46.8942 49.4651H49.6293C50.5742 49.4651 51.3403 48.699 51.3403 47.7541V45.7969C51.3403 44.8519 50.5742 44.0859 49.6293 44.0859Z" fill="#ECBE6B"/>
<path d="M56.8829 33.3277H54.1478C55.0928 33.3277 55.8588 34.0937 55.8588 35.0387V36.9959C55.8588 37.9408 55.0928 38.7069 54.1478 38.7069H56.8829C57.8278 38.7069 58.5938 37.9408 58.5938 36.9959V35.0387C58.5938 34.0936 57.8278 33.3277 56.8829 33.3277Z" fill="#ECBE6B"/>
<path d="M30.9391 42.1989C30.2135 42.1989 29.5056 42.2744 28.8223 42.4165C33.5215 43.3936 37.0527 47.5572 37.0527 52.5462C37.0527 57.5353 33.5215 61.6989 28.8223 62.676C29.5058 62.8181 30.2136 62.8935 30.9391 62.8935C36.6538 62.8935 41.2864 58.2609 41.2864 52.5462C41.2864 46.8315 36.6537 42.1989 30.9391 42.1989Z" fill="#ECBE6B"/>
<path d="M56.8827 32.3013H52.2768C52.3335 32.0822 52.3669 31.8537 52.3669 31.617V29.6597C52.3669 29.3757 52.3234 29.1017 52.2427 28.8439C53.3447 28.4898 54.1448 27.4559 54.1448 26.2379V24.2806C54.1448 22.7712 52.9167 21.543 51.4072 21.543H47.2749C46.7078 21.543 46.2483 22.0025 46.2483 22.5696C46.2483 23.1368 46.7078 23.5963 47.2749 23.5963H51.4072C51.7846 23.5963 52.0915 23.9032 52.0915 24.2806V26.2379C52.0915 26.6153 51.7846 26.9222 51.4072 26.9222C49.8274 26.9222 40.5874 26.9222 38.729 26.9222V23.5963H43.17C43.7372 23.5963 44.1967 23.1368 44.1967 22.5696C44.1967 22.0025 43.7372 21.543 43.17 21.543H38.729V1.42611C38.729 1.02106 38.4908 0.653787 38.121 0.488563C37.7513 0.323749 37.3189 0.391235 37.0172 0.66159L33.1212 4.15403L29.2251 0.66159C28.8352 0.312113 28.2445 0.311976 27.8544 0.661727L23.9592 4.15389L20.0638 0.661727C19.6737 0.311976 19.0831 0.311976 18.693 0.661727L14.798 4.15389L10.9028 0.661727C10.5127 0.311976 9.92214 0.311976 9.532 0.661727L5.63752 4.15389L1.74318 0.661727C1.44161 0.391098 1.00918 0.323612 0.639309 0.488563C0.269436 0.653787 0.03125 1.02106 0.03125 1.42611V11.7975C0.03125 12.3646 0.490785 12.8241 1.05791 12.8241C1.62504 12.8241 2.08458 12.3646 2.08458 11.7975V3.7257L4.95226 6.29716C5.34239 6.64691 5.9332 6.64691 6.32306 6.29716L10.2175 2.80499L14.1127 6.29716C14.5028 6.64691 15.0934 6.64691 15.4835 6.29716L19.3785 2.80499L23.274 6.29716C23.6641 6.64691 24.2546 6.64691 24.6448 6.29716L28.5399 2.80485L32.4359 6.29729C32.8258 6.64677 33.4166 6.64677 33.8065 6.29729L36.6758 3.72516V42.7314C34.9903 41.7425 33.0306 41.1727 30.9392 41.1727C27.5082 41.1727 24.4297 42.7019 22.3426 45.1118H10.2968C9.72967 45.1118 9.27013 45.5713 9.27013 46.1384C9.27013 46.7056 9.72967 47.1651 10.2968 47.1651H20.9218C20.1814 48.538 19.7176 50.0799 19.5989 51.7162H10.2969C9.72981 51.7162 9.27027 52.1758 9.27027 52.7429C9.27027 53.31 9.72981 53.7696 10.2969 53.7696H19.6303C19.7657 55.0433 20.1134 56.2734 20.6701 57.4398C20.9144 57.9518 21.5277 58.1686 22.0388 57.9241C22.5505 57.6799 22.7674 57.0671 22.5231 56.5554C21.9229 55.2979 21.6187 53.9492 21.6187 52.5466C21.6187 47.4073 25.8 43.226 30.9393 43.226C36.0787 43.226 40.2599 47.4073 40.2599 52.5466C40.2599 57.686 36.0787 61.8672 30.9393 61.8672C28.6651 61.8672 26.4737 61.0371 24.7692 59.5296C24.3443 59.1539 23.6956 59.1938 23.32 59.6184C22.9443 60.0433 22.9842 60.692 23.4088 61.0676C25.4891 62.9073 28.1635 63.9205 30.9393 63.9205C33.0307 63.9205 34.9904 63.3507 36.6759 62.3618V67.1608L33.8066 64.5887C33.4167 64.2392 32.8259 64.2392 32.4361 64.5887L28.5401 68.0811L24.6449 64.5888C24.2548 64.2391 23.6642 64.2391 23.2741 64.5888L19.3787 68.081L15.4836 64.5888C15.0935 64.2391 14.503 64.2391 14.1128 64.5888L10.2177 68.081L6.3232 64.5888C5.93306 64.2391 5.34253 64.2391 4.95239 64.5888L2.08472 67.1603V15.9024C2.08472 15.3352 1.62518 14.8757 1.05805 14.8757C0.490922 14.8757 0.0313868 15.3352 0.0313868 15.9024V69.4597C0.0313868 69.8648 0.269573 70.2321 0.639446 70.3973C1.00959 70.5622 1.44175 70.4943 1.74332 70.2241L5.63752 66.732L9.532 70.2241C9.92214 70.5739 10.5127 70.5739 10.9028 70.2241L14.798 66.732L18.693 70.2241C19.0831 70.5739 19.6737 70.5739 20.0638 70.2241L23.9592 66.7318L27.8544 70.2241C28.2445 70.5739 28.8352 70.5737 29.2251 70.2243L33.1211 66.7318L37.017 70.2243C37.3186 70.4946 37.751 70.5622 38.1208 70.3973C38.4906 70.2321 38.7288 69.8648 38.7288 69.4597V66.6294H49.6293C51.1387 66.6294 52.3669 65.4013 52.3669 63.8918V61.9344C52.3669 61.2872 52.1399 60.6927 51.763 60.2236C52.1399 59.7545 52.3669 59.1598 52.3669 58.5126V56.5553C52.3669 56.3042 52.3301 56.062 52.2666 55.831C53.5628 55.6158 54.5553 54.4897 54.5553 53.1334V51.1762C54.5553 49.8199 53.5628 48.6937 52.2664 48.4787C52.3301 48.2475 52.3668 48.0053 52.3668 47.7543V45.7972C52.3668 45.5463 52.3299 45.3042 52.2666 45.0733C53.5643 44.8595 54.5584 43.7329 54.5584 42.3754V40.418C54.5584 40.1813 54.525 39.953 54.4683 39.7338H56.8825C58.3919 39.7338 59.6201 38.5057 59.6201 36.9962V35.0388C59.6204 33.5294 58.3922 32.3013 56.8827 32.3013ZM49.6293 28.9755C50.0067 28.9755 50.3136 29.2824 50.3136 29.6597V31.617C50.3136 31.9944 50.0067 32.3013 49.6293 32.3013C47.3981 32.3013 40.9578 32.3013 38.7288 32.3013V28.9755H49.6293ZM41.0444 37.6805H38.729V34.3547H41.0446C40.9879 34.5738 40.9545 34.8023 40.9545 35.0388V36.9962C40.9544 37.2327 40.9878 37.4613 41.0444 37.6805ZM50.3136 45.7972V47.7544C50.3136 48.1318 50.0067 48.4387 49.6293 48.4387H41.542C41.0655 47.2132 40.383 46.0907 39.5365 45.1129H49.6293C50.0067 45.1129 50.3136 45.4198 50.3136 45.7972ZM50.3136 56.5553V58.5126C50.3136 58.89 50.0067 59.1969 49.6293 59.1969H40.1573C40.8804 58.1972 41.4465 57.0771 41.8159 55.8711H49.6293C50.0067 55.8711 50.3136 56.1781 50.3136 56.5553ZM50.3136 63.8918C50.3136 64.2692 50.0067 64.5761 49.6293 64.5761H38.7288V61.2503H49.6293C50.0067 61.2503 50.3136 61.5572 50.3136 61.9344V63.8918ZM52.5022 51.1763V53.1336C52.5022 53.511 52.1953 53.8179 51.8178 53.8179C49.047 53.8179 45.3623 53.8179 42.24 53.8179C42.2867 53.4002 42.3129 52.9766 42.3129 52.5466C42.3129 51.8449 42.2456 51.159 42.1234 50.492H51.8177C52.1952 50.492 52.5022 50.799 52.5022 51.1763ZM52.5052 40.418V42.3754C52.5052 42.7526 52.1983 43.0595 51.821 43.0595C49.7931 43.0595 40.3031 43.0595 38.7288 43.0595V39.7338H51.821C52.1983 39.7338 52.5052 40.0407 52.5052 40.418ZM57.567 36.9962C57.567 37.3736 57.2601 37.6805 56.8827 37.6805C55.2557 37.6805 45.1215 37.6805 43.692 37.6805C43.3147 37.6805 43.0078 37.3736 43.0078 36.9962V35.0388C43.0078 34.6616 43.3147 34.3547 43.692 34.3547H56.8827C57.2601 34.3547 57.567 34.6616 57.567 35.0388V36.9962Z" fill="black"/>
<path d="M6.40149 20.9584C5.9269 20.648 5.29064 20.781 4.98018 21.2555C4.66971 21.7299 4.80277 22.3662 5.27722 22.6768C6.18822 23.2728 6.8524 23.5039 7.68277 23.5822V24.1768C7.68277 24.744 8.1423 25.2035 8.70943 25.2035C9.27656 25.2035 9.73609 24.744 9.73609 24.1768V23.485C11.3926 23.0546 12.4542 21.6356 12.6895 20.2361C12.9938 18.4259 12.011 16.7901 10.244 16.1656C10.0767 16.1064 9.90652 16.0451 9.73609 15.982V12.7364C10.5392 12.8527 11.1459 13.1418 11.1697 13.1536C11.6765 13.4055 12.2908 13.2006 12.5446 12.6946C12.7988 12.1879 12.5941 11.5709 12.0873 11.3167C12.026 11.2858 11.0445 10.8028 9.73609 10.6704V10.2152C9.73609 9.64803 9.27656 9.18849 8.70943 9.18849C8.1423 9.18849 7.68277 9.64803 7.68277 10.2152V10.8142C7.62774 10.8287 7.57271 10.8433 7.51768 10.8599C6.32497 11.2192 5.43437 12.2371 5.19345 13.5162C4.97224 14.6909 5.35429 15.828 6.19027 16.4837C6.57903 16.7888 7.05226 17.0685 7.68277 17.3587V21.517C7.25294 21.4511 6.92153 21.2989 6.40149 20.9584ZM10.6646 19.8958C10.5775 20.414 10.2624 20.958 9.73623 21.2789V18.1732C10.7533 18.626 10.7281 19.5182 10.6646 19.8958ZM7.45758 14.8683C7.23035 14.69 7.13371 14.3085 7.21132 13.8965C7.26484 13.6123 7.41446 13.2865 7.68277 13.0587V15.0287C7.60282 14.976 7.52685 14.9226 7.45758 14.8683Z" fill="black"/>
<path d="M20.6451 15.9439H25.4628C26.0299 15.9439 26.4894 15.4844 26.4894 14.9173C26.4894 14.3501 26.0299 13.8906 25.4628 13.8906H20.6451C20.078 13.8906 19.6185 14.3501 19.6185 14.9173C19.6185 15.4844 20.078 15.9439 20.6451 15.9439Z" fill="black"/>
<path d="M20.6451 20.9123H30.9383C31.5055 20.9123 31.965 20.4528 31.965 19.8856C31.965 19.3185 31.5055 18.859 30.9383 18.859H20.6451C20.078 18.859 19.6185 19.3185 19.6185 19.8856C19.6185 20.4528 20.078 20.9123 20.6451 20.9123Z" fill="black"/>
<path d="M9.26984 32.9295C9.26984 33.4967 9.72938 33.9562 10.2965 33.9562H28.4634C29.0305 33.9562 29.4901 33.4967 29.4901 32.9295C29.4901 32.3624 29.0305 31.9029 28.4634 31.9029H10.2965C9.72951 31.9029 9.26984 32.3624 9.26984 32.9295Z" fill="black"/>
<path d="M28.4634 38.5073H10.2965C9.72938 38.5073 9.26984 38.9668 9.26984 39.534C9.26984 40.1011 9.72938 40.5606 10.2965 40.5606H28.4634C29.0305 40.5606 29.4901 40.1011 29.4901 39.534C29.4901 38.9668 29.0305 38.5073 28.4634 38.5073Z" fill="black"/>
</svg>
