<svg xmlns="http://www.w3.org/2000/svg" width="637.362" height="355.295" viewBox="0 0 637.362 355.295">
    <defs>
        <style>
            .cls-8{fill:none;stroke:#fff;stroke-linecap:round;stroke-linejoin:round;stroke-width:.5px}.cls-10{fill:#a7d4c8}.cls-11{fill:#fbdcc3}.cls-12{fill:#72af9e}.cls-13{fill:#5a90ce}.cls-15,.cls-18{fill:#fff}.cls-15{opacity:.41}
        </style>
    </defs>
    <g id="Grupo_2309">
        <g id="Grupo_2285" transform="translate(10.959)">
            <path id="Caminho_387" fill="#b2efff" d="M991.79 104.134c-.355 14.554 16.8 23.045 28.55 10.749 16.091-16.829 20.783.129 28.511-9.78 3.764-4.83.043-20.471-20.408-24.742-22.435-4.684-36.289 8.77-36.653 23.773z" opacity="0.3" transform="translate(-962.993 192.165)"/>
            <path id="Caminho_388" fill="#fbf3e7" d="M1067.526-56.589c-.368-25.484-30.948-39.172-50.677-16.866-27.005 30.531-36.368 1.187-49.212 19.047-6.259 8.7 1.311 35.815 37.377 41.895 39.568 6.672 62.886-17.806 62.512-44.076z" opacity="0.3" transform="translate(-965.658 175.43)"/>
            <path id="Caminho_389" fill="#fdf6fd" d="M1288.711-161.733c-24.011 12.634-22.264 48.256 8.42 56.23 42 10.913 18.656 33.944 41.8 37.527 11.276 1.746 33.36-18.508 21.746-55.671-12.74-40.77-47.216-51.108-71.966-38.086z" opacity="0.72" transform="translate(-934.394 167.033)"/>
            <path id="Caminho_1903" fill="#fdf6fd" stroke="#fdf8fd" d="M1288.711-161.733c-24.011 12.634-22.264 48.256 8.42 56.23 42 10.913 18.656 33.944 41.8 37.527 11.276 1.746 33.36-18.508 21.746-55.671-12.74-40.77-47.216-51.108-71.966-38.086z" opacity="0.72" transform="translate(-800.942 368.631)"/>
            <path id="Caminho_390" fill="#e8faff" d="M1585.5-5.817s-128.482-34.8-194.825 49.971c-33.561 42.882-93.934 133.726-244.629 122.706-68.52-5.011-141.157-55.856-87.7-125.877 57.8-75.714-42.426-87.212-26.7-127.547 15.781-40.492 111.2-49.358 183.9 28.611 105.9 113.57 369.957-90.75 369.957-90.75z" transform="translate(-959.101 168.902)"/>
            <path id="Caminho_391" fill="#f5d3f4" d="M1249.62 130.324c1.908 28.627 37.085 42.223 57.957 15.993 28.568-35.9 40.812-3.465 54.206-24.292 6.525-10.148-3.571-40.184-44.471-44.909-44.871-5.182-69.657 23.702-67.692 53.208z" opacity="0.4" transform="translate(-936.711 191.868)"/>
            <g id="Grupo_2871" transform="translate(489.631 188.563)">
                <path id="Caminho_471" fill="#c2cfff" d="M609.956 411.791c-4.151-7.216-8.462-15.873-5.664-23.84 3.668-10.449 17.213-12.852 21.7-22.9 4.528-10.135-2.264-23.133 2.208-33.3 2.551-5.79 8.183-9.136 13.737-11.169s11.45-3.181 16.533-6.373c7.713-4.842 12.534-13.712 19.223-20.133a39.276 39.276 0 0 1 20.661-10.5c6.785-1.115 15.534 1.288 16.805 8.7.888 5.168-2.455 10.014-5.961 13.593s-7.588 7.035-8.914 12.087c-2.1 8.015 3.558 15.757 5.314 23.871 1.5 6.914-.42 15.129-5.928 18.855-5.233 3.539-13.541 3.552-15.233 10.045-1.361 5.22 3.165 10.378 2.647 15.776-.934 9.75-15.668 10.341-18.668 19.575-1.921 5.922 1.875 13.35-1.49 18.435-1.55 2.341-4.211 3.406-6.741 4.211-10.618 3.387-22.309 4.765-33.307 3.088-9.286-1.426-12.243-11.883-16.922-20.021z" transform="translate(-603.4 -283.31)"/>
                <path id="Caminho_472" d="M616.128 428.522c3.123-38.884 20.5-92.417 64.813-137.6" class="cls-8" transform="translate(-589.646 -275.083)"/>
                <path id="Caminho_473" d="M633.019 311.088a46.861 46.861 0 0 1 15.884-4.442" class="cls-8" transform="translate(-571.392 -258.092)"/>
                <path id="Caminho_474" d="M624.185 327.8a46.908 46.908 0 0 1 15.882-4.442" class="cls-8" transform="translate(-580.939 -240.035)"/>
                <path id="Caminho_475" d="M618.451 345.6a46.925 46.925 0 0 1 15.884-4.444" class="cls-8" transform="translate(-587.135 -220.797)"/>
                <path id="Caminho_476" d="M616.752 331.348a50.466 50.466 0 0 1 6.818 11.477" class="cls-8" transform="translate(-588.971 -231.397)"/>
                <path id="Caminho_477" d="M626.085 309.373a50.467 50.467 0 0 1 6.815 11.477" class="cls-8" transform="translate(-578.885 -255.145)"/>
            </g>
            <g id="Grupo_2872" transform="translate(522.66 268.502)">
                <path id="Caminho_478" fill="#ffc4fa" d="M619.86 375.676c-.793-5.31-1.34-11.508 2.23-15.5 4.682-5.235 13.41-3.221 18.5-8.015 5.125-4.831 4.109-14.219 9.209-19.082 2.907-2.771 7.091-3.319 10.917-3.111s7.651 1.024 11.467.431c5.793-.905 10.794-4.917 16.346-7.01a25.437 25.437 0 0 1 14.929-.961c4.353 1.061 9.055 4.692 8.067 9.388-.687 3.273-3.847 5.285-6.806 6.508s-6.236 2.226-8.231 4.873c-3.163 4.195-1.586 10.2-2.447 15.428-.734 4.457-3.835 8.82-8.031 9.621-3.991.764-9-1.334-11.554 2.068-2.054 2.736-.552 6.922-2.139 9.979-2.871 5.512-11.887 2.129-15.878 6.816-2.559 3.009-2.031 8.352-5.262 10.5a7.649 7.649 0 0 1-5.056.776 49.708 49.708 0 0 1-20.794-6.614c-5.267-3.191-4.574-10.111-5.467-16.095z" transform="translate(-619.274 -321.73)"/>
                <path id="Caminho_479" d="M622.486 390.793c11.084-22.147 34.223-49.326 71.606-64.757" class="cls-8" transform="translate(-615.804 -317.077)"/>
                <path id="Caminho_480" d="M644.086 332.979a30.886 30.886 0 0 1 10.618 1.4" class="cls-8" transform="translate(-592.461 -309.615)"/>
                <path id="Caminho_481" d="M634.81 340.6a30.884 30.884 0 0 1 10.618 1.4" class="cls-8" transform="translate(-602.486 -301.38)"/>
                <path id="Caminho_482" d="M627.144 349.649a30.89 30.89 0 0 1 10.618 1.4" class="cls-8" transform="translate(-610.77 -291.6)"/>
                <path id="Caminho_483" d="M628.946 342.151a32.662 32.662 0 0 1 1.392 8.5" class="cls-8" transform="translate(-608.823 -299.662)"/>
                <path id="Caminho_484" d="M639.769 331.552a32.713 32.713 0 0 1 1.39 8.5" class="cls-8" transform="translate(-597.126 -311.116)"/>
            </g>
            <g id="Grupo_2873" transform="translate(418.354 147.455)">
                <path id="Caminho_499" d="M666.081 431.4c5.949-7.832 12.334-17.338 10.636-27.24-2.23-12.983-16.968-18.135-20.187-30.792-3.248-12.761 6.7-26.98 3.518-39.764-1.812-7.287-7.517-12.205-13.372-15.555s-12.251-5.714-17.369-10.353c-7.769-7.043-11.569-18.356-17.908-27.092a43.656 43.656 0 0 0-21.248-15.942c-7.4-2.476-17.627-1.128-20.388 7.42-1.923 5.963.951 12.268 4.232 17.1s7.232 9.613 7.807 15.815c.913 9.835-6.818 18.035-10.245 27.33-2.923 7.925-2.253 17.971 3.244 23.316 5.224 5.081 14.527 6.51 15.251 14.481.585 6.406-5.41 11.735-5.8 18.21-.707 11.693 15.688 14.9 17.384 26.335 1.086 7.332-4.5 15.472-1.648 22.059 1.315 3.036 4.1 4.75 6.791 6.134 11.284 5.815 24.13 9.438 36.749 9.328 10.656-.097 15.851-11.965 22.553-20.79z" class="cls-10" transform="translate(-569.143 -263.553)"/>
                <path id="Caminho_500" d="M627.691 447.054c3.5-46.528-6.331-112.816-47.828-173.813" class="cls-8" transform="translate(-557.559 -253.083)"/>
                <path id="Caminho_501" d="M601.443 300.93a50.931 50.931 0 0 0-16.989-7.961" class="cls-8" transform="translate(-552.597 -231.764)"/>
                <path id="Caminho_502" d="M608.33 322.2a50.954 50.954 0 0 0-16.988-7.961" class="cls-8" transform="translate(-545.155 -208.776)"/>
                <path id="Caminho_503" d="M611.548 344.239a50.958 50.958 0 0 0-16.989-7.963" class="cls-8" transform="translate(-541.677 -184.963)"/>
                <path id="Caminho_504" d="M611.815 326.263a61.219 61.219 0 0 0-9.7 12.411" class="cls-8" transform="translate(-533.514 -195.784)"/>
                <path id="Caminho_505" d="M605.317 298.678a61.31 61.31 0 0 0-9.7 12.413" class="cls-8" transform="translate(-540.536 -225.594)"/>
            </g>
        </g>
        <g id="Grupo_2286" transform="translate(0 1.196)">
            <g id="Grupo_2300" transform="translate(88.793 44.062)">
                <g id="Grupo_2289" transform="translate(48.985 107.775)">
                    <path id="Caminho_351" d="M1187.5 434.343s-74.533 17.335-104.472-12.6l10.715-71.509c3.257-20.553 1.31-60.106 17.052-74.139a27.409 27.409 0 0 1 5.976-4.067c11.045-5.33 30.694-8.21 49.552-8.285 22.917-.086 46.5 17.238 52.515 39.347l-24.8 58.014z" class="cls-10" transform="translate(-1004.091 -260.557)"/>
                    <g id="Grupo_2285-2" transform="translate(103.877 42.532)">
                        <path id="Caminho_352" d="M1164.178 286.833s33.388 64.315 16.81 67.741c-54.535 11.264-86.191 20.5-86.191 20.5l-2.78 21.183c.813 3.2 110.337.427 123.3-14.283 9.164-10.388 21.338-34.4-4.564-86.371l-7.871-17.682z" class="cls-11" transform="translate(-1092.017 -277.924)"/>
                    </g>
                    <path id="Caminho_353" d="M1167.914 280.908l-83.158 32.2-2.6-43.628-17.806-6.886s-25.817 70.027 6.47 83.064 68.668-11.053 68.668-11.053z" class="cls-11" transform="translate(-1054.577 -262.594)"/>
                    <path id="Caminho_354" d="M1154.907 265.342c-29.029 9.25-46.336 20.087-87.2 37.13l20.983 46.791 36.17-11.608z" class="cls-10" transform="translate(-1031.279 -257.718)"/>
                    <path id="Caminho_355" d="M1117.077 287.434l21.09 49.014 47.573-8.686-32.047-55.2-37.948 14.869" class="cls-10" transform="translate(-946.04 -244.902)"/>
                    <g id="Grupo_2286-2" transform="translate(145.575 73.903)">
                        <path id="Caminho_356" d="M1107.62 291.279c10.132-.563 20.137-.125 30.258.006.885.017.835-1.237 0-1.34-9.974-1.19-20.276-.716-30.258.147-.755.067-.774 1.229 0 1.188z" class="cls-12" transform="translate(-1107.047 -289.231)"/>
                    </g>
                    <g id="Grupo_2287" transform="translate(173.491 19.103)">
                        <path id="Caminho_357" d="M1135.142 269.481c-34.226 3.091-10.815 53.561-2.042 68.842a.763.763 0 0 0 1.318-.769c-8.721-15.44-32.053-62.408.838-67.239.471-.069.363-.877-.114-.835z" class="cls-12" transform="translate(-1117.108 -269.479)"/>
                    </g>
                    <g id="Grupo_2288" transform="translate(88.566 47.638)">
                        <path id="Caminho_358" d="M1094.59 280.083a284.08 284.08 0 0 0-8.09 51.6c-.045.713 1.171.9 1.273.172 2.45-17.21 4.911-34.373 7.669-51.538.092-.547-.71-.8-.852-.233z" class="cls-12" transform="translate(-1086.499 -279.764)"/>
                    </g>
                </g>
                <g id="Grupo_2298" transform="translate(153.954)">
                    <path id="Caminho_359" d="M1164.217 286.253l1.571-21.682c5.679-1.6 8.634-8.867 6.367-14.316s-8.706-8.512-14.549-7.677c3.69-2.508 3.4-8.5.38-11.78s-7.771-4.339-12.224-4.511-8.97.369-13.359-.447c-3.884-.721-7.688-2.5-11.611-2.006s-7.669 4.908-5.555 8.246c-5.657-.832-11.775-1.584-16.8 1.14s-7.544 10.487-3.23 14.236c-2.849 1.451-3.56 5.582-1.956 8.354s4.883 4.223 8.079 4.456 6.357-.58 9.456-1.382" class="cls-13" transform="translate(-1092.411 -223.749)"/>
                    <path id="Caminho_360" d="M1155.448 258.15l-1.143 15.024s12.776 1.72 9.136 13.37-12.382 6.559-12.382 6.559-2.184 29.85-32.769 20.384c-24.34-7.533-22.85-39.05-19.762-65.921A18 18 0 0 1 1119.857 232l18.392 3.582a21.346 21.346 0 0 1 17.199 22.568z" class="cls-11" transform="translate(-1084.563 -209.701)"/>
                    <path id="Caminho_361" d="M1145.172 251.119l-8.237 43.947a17.626 17.626 0 0 1-21.416 13.895 17.624 17.624 0 0 1-13.265-20.226l4.469-25.184z" class="cls-11" transform="translate(-1075.43 -175.181)"/>
                    <g id="Grupo_2290" transform="translate(31.936 49.678)">
                        <path id="Caminho_362" d="M1107.9 268.414c.039-.022.116.608-.772 1.04-.926.444-2.441-.513-2.788-1.981a13.663 13.663 0 0 1-.369-4.95c.1-1.9.2-3.834.311-5.862.519-8.315 1.265-15.032 1.662-15.007s.3 6.783-.222 15.1c-.144 2.025-.286 3.959-.424 5.854a15.045 15.045 0 0 0 .022 4.567c.194 1.24 1.082 1.845 1.662 1.737s.808-.579.918-.498z" class="cls-13" transform="translate(-1103.922 -241.654)"/>
                    </g>
                    <g id="Grupo_2291" transform="translate(25.989 100.692)">
                        <path id="Caminho_363" d="M1101.784 260.069c.144-.2 1.639.719 4.114 1.9a29.437 29.437 0 0 0 10.418 2.408 29.894 29.894 0 0 0 10.363-1.953c2.553-1.093 4.109-1.962 4.22-1.742.075.136-1.249 1.287-3.74 2.647a23.1 23.1 0 0 1-21.716-.447c-2.463-1.473-3.759-2.697-3.659-2.813z" class="cls-13" transform="translate(-1101.778 -260.041)"/>
                    </g>
                    <g id="Grupo_2292" transform="translate(31.945 78.602)">
                        <path id="Caminho_364" d="M1103.948 256.08c.175-.155.854.486 2.131 1.06a7.471 7.471 0 0 0 5.252.375 7.557 7.557 0 0 0 3.942-3.327c.691-1.151.891-2.167 1.115-2.106.15.036.377.957-.192 2.541a7.266 7.266 0 0 1-4.534 4.3 7.738 7.738 0 0 1-3.457.18 7.141 7.141 0 0 1-2.625-1.068c-1.338-.92-1.763-1.867-1.632-1.955z" class="cls-13" transform="translate(-1103.925 -252.079)"/>
                    </g>
                    <g id="Grupo_2293" transform="translate(70.707 70.657)">
                        <path id="Caminho_365" d="M1117.9 256.86c-.008-.211.558-.355 1.263-.719a3.035 3.035 0 0 0 .5-.325c.111-.075.428-.391.339-.344a2.771 2.771 0 0 0-.511-1.107l-.341-.544-.208-.33.161-.344a17.745 17.745 0 0 0 .583-2.78c.236-.891.613-1.19.768-1.149.194.047.111.6.183 1.251a7.079 7.079 0 0 1-.225 3.26l-.05-.671.352.538a2.6 2.6 0 0 1 .485 2.461 1.954 1.954 0 0 1-.891.769 3.161 3.161 0 0 1-.824.283c-1.013.179-1.584-.071-1.584-.249z" class="cls-13" transform="translate(-1117.896 -249.216)"/>
                    </g>
                    <g id="Grupo_2294" transform="translate(47.146 47.89)">
                        <path id="Caminho_366" d="M1109.412 241.813c-.138-.316 1.432-1.126 3.46-.663 2.158.691 2.844 2 2.686 2.278-.216.386-1.662-.516-3.052-.879-1.581-.365-2.957-.298-3.094-.736z" class="cls-13" transform="translate(-1109.404 -241.01)"/>
                    </g>
                    <g id="Grupo_2295" transform="translate(20.705 43.305)">
                        <path id="Caminho_367" d="M1099.886 240.556c-.167-.3 1.406-1.315 3.623-1.188 2.361.314 3.463 1.484 3.363 1.8-.136.424-1.842-.2-3.487-.358-1.815-.11-3.322.165-3.499-.254z" class="cls-13" transform="translate(-1099.874 -239.357)"/>
                    </g>
                    <path id="Caminho_368" d="M1154.575 278.328c-8.534-8.321-11.045-22.187-13.365-33.882a29.885 29.885 0 0 1-27.889 3.632 45.1 45.1 0 0 1-9.938 8.681c-1.057.677-2.308 1.337-3.512.974-1.432-.433-2.07-2.075-2.411-3.532a25.06 25.06 0 0 1 .5-14.161 17.044 17.044 0 0 1 9.5-10.193c4.775-1.848 10.152-1.046 15.11.241a84 84 0 0 1 21.316 8.809c6.531 3.826 12.807 8.889 15.582 15.934s2.757 20.739-3.924 24.3" class="cls-13" transform="translate(-1084.833 -214.855)"/>
                    <g id="Grupo_2296" transform="translate(47.325 56.314)">
                        <path id="Caminho_369" d="M1111.216 248.657c-.817-.028-1.33-1.085-1.148-2.356s1-2.283 1.815-2.256 1.335 1.082 1.153 2.356-.998 2.284-1.82 2.256z" class="cls-13" transform="translate(-1110.032 -244.046)"/>
                    </g>
                    <g id="Grupo_2297" transform="translate(22.674 53.179)">
                        <path id="Caminho_370" d="M1102.4 247.528c-.847-.028-1.376-1.082-1.176-2.355s1.03-2.283 1.877-2.256 1.371 1.085 1.178 2.358-1.037 2.28-1.879 2.253z" class="cls-13" transform="translate(-1101.181 -242.916)"/>
                    </g>
                </g>
                <path id="Caminho_371" d="M1057.774 289.308s3.7-22.681 8.107-22.437 13.24 0 13.24 0 .735-21.574 3.185-18.142 3.224 32.458-6.231 46.386z" class="cls-11" transform="translate(-999.918 -180.079)"/>
                <path id="Caminho_372" d="M1117.842 312.941s-39.569 6.928-38.8 12.063a37.217 37.217 0 0 0 3.554 10.307l35.247-.83z" class="cls-11" transform="translate(-962.201 -65.481)"/>
                <g id="Grupo_2299" transform="translate(0 187.502)">
                    <path id="Caminho_373" fill="#9bc7fb" d="M1235.511 374.9l-.3-5.478-81.5-4.985-27.333-73.111-89.454 4.92 30.519 79.061z" transform="translate(-1036.921 -291.33)"/>
                    <path id="Caminho_374" d="M1054.7 310.123a6.633 6.633 0 1 0 6.254-6.983 6.632 6.632 0 0 0-6.254 6.983z" class="cls-15" transform="translate(-1005.383 -270.393)"/>
                    <path id="Caminho_375" d="M1053.752 311.967a9.286 9.286 0 1 0 8.761-9.78 9.285 9.285 0 0 0-8.761 9.78z" class="cls-15" transform="translate(-1007.08 -272.09)"/>
                </g>
            </g>
            <path id="Caminho_376" fill="#fff3f9" d="M1032.136 324.83l349.839-4.367 20.489 10.762s-268.564 73.712-370.328-6.395z" transform="translate(-956.619 -8.071)"/>
            <g id="Grupo_2304" transform="translate(115.589)">
                <path id="Caminho_377" fill="#ffe28e" d="M1128.1 267.45a46.6 46.6 0 1 1 29.981 43.545l-15.995 10 1.62-18.753a46.494 46.494 0 0 1-15.606-34.792z" opacity="0.8" transform="translate(-901.922 -184.844)"/>
                <g id="Grupo_2301" transform="translate(255.249 55.134)">
                    <path id="Caminho_378" d="M1167.489 239.245a14.623 14.623 0 0 0-28.91 3.113 2.923 2.923 0 0 0 5.846 0 8.774 8.774 0 1 1 14.718 6.437 26.261 26.261 0 0 0-8.87 19.285 2.9 2.9 0 0 0 2.922 2.9 2.942 2.942 0 0 0 2.924-2.946 20.46 20.46 0 0 1 7-14.952 14.639 14.639 0 0 0 4.37-13.837z" class="cls-18" transform="translate(-1138.579 -227.739)"/>
                    <path id="Caminho_379" d="M1146.348 244.9a4.083 4.083 0 1 0 4.081 4.081 4.08 4.08 0 0 0-4.081-4.081z" class="cls-18" transform="translate(-1132.031 -197.286)"/>
                </g>
                <g id="Grupo_2303">
                    <path id="Caminho_380" fill="#9bced4" d="M1144.931 257.044a49.176 49.176 0 1 0-31.634 45.939l16.874 10.557-1.712-19.787a49.031 49.031 0 0 0 16.472-36.709z" opacity="0.8" transform="translate(-1046.579 -207.867)"/>
                    <g id="Grupo_2302" transform="translate(34.556 20.172)">
                        <path id="Caminho_381" d="M1087.944 226.639a14.623 14.623 0 0 0-28.91 3.11 2.924 2.924 0 1 0 5.849 0 8.776 8.776 0 0 1 17.34-1.917 8.823 8.823 0 0 1-2.619 8.362 26.231 26.231 0 0 0-8.87 19.285 2.9 2.9 0 0 0 2.916 2.9 2.941 2.941 0 0 0 2.924-2.949 20.475 20.475 0 0 1 7-14.954 14.6 14.6 0 0 0 4.37-13.837z" class="cls-18" transform="translate(-1059.034 -215.138)"/>
                        <path id="Caminho_382" d="M1066.808 232.3a4.083 4.083 0 1 0 4.076 4.081 4.08 4.08 0 0 0-4.076-4.081z" class="cls-18" transform="translate(-1052.487 -184.685)"/>
                    </g>
                </g>
            </g>
            <path id="Caminho_383" fill="#9bc7fb" d="M1117.452 296.3a56.261 56.261 0 1 0-36.193 52.568l19.307 12.08-1.961-22.642a56.1 56.1 0 0 0 18.847-42.006z" opacity="0.8" transform="translate(-1004.917 -150.788)"/>
            <g id="Grupo_2305" transform="translate(25.292 124.803)">
                <path id="Caminho_384" d="M1017.387 259.786h54.813c4.473 0 4.473-6.936 0-6.936h-54.818c-4.472 0-4.472 6.936 0 6.936z" class="cls-18" transform="translate(-1014.033 -252.85)"/>
            </g>
            <g id="Grupo_2306" transform="translate(25.292 143.076)">
                <path id="Caminho_385" d="M1017.387 266.372h54.813c4.473 0 4.473-6.936 0-6.936h-54.818c-4.472 0-4.472 6.936 0 6.936z" class="cls-18" transform="translate(-1014.033 -259.436)"/>
            </g>
            <g id="Grupo_2307" transform="translate(25.292 161.356)">
                <path id="Caminho_386" d="M1017.387 272.961h38.684c4.475 0 4.475-6.936 0-6.936h-38.684c-4.472 0-4.472 6.936 0 6.936z" class="cls-18" transform="translate(-1014.033 -266.025)"/>
            </g>
        </g>
    </g>
</svg>
