<svg xmlns="http://www.w3.org/2000/svg" id="Grupo_2058" width="207.56" height="182.101" viewBox="0 0 207.56 182.101">
    <defs>
        <style>
            .cls-3{fill:#adc9fa}.cls-6{fill:#e8faff}.cls-7{fill:#c8e3f2}.cls-9{fill:#fb6a90}.cls-10{fill:#fff}
        </style>
    </defs>
    <path id="Caminho_251" d="M1482.712 704.952l-82.083-44.052c-24.583-13.194-64.305-13.194-88.725 0s-24.293 34.584.29 47.778l82.083 44.057c24.58 13.192 64.3 13.191 88.724 0s24.291-34.59-.289-47.783z" transform="translate(-1293.672 -580.522)" style="mix-blend-mode:multiply;isolation:isolate" fill="#f5d3f4" opacity="0.2"/>
    <g id="Grupo_2070" transform="translate(.912)">
        <g id="Grupo_2078" transform="translate(59.038 9.395)">
            <g id="Grupo_2077">
                <path id="Caminho_224" fill="#5f72a1" d="M1024.91 149.221l-.3-.157c-.078-.04-.157-.083-.234-.121-.125-.061-.248-.117-.372-.175-.089-.042-.179-.086-.267-.126l-.11-.052q-.372-.167-.74-.314-.376-.15-.746-.28c-.032-.012-.064-.02-.1-.031-.089-.031-.178-.058-.267-.087-.126-.041-.253-.086-.378-.124-.062-.019-.124-.033-.186-.051-.109-.032-.218-.061-.327-.09-.084-.023-.168-.049-.252-.07s-.173-.038-.26-.058c-.109-.025-.217-.05-.325-.072l-.172-.039c-.1-.02-.2-.032-.3-.05-.125-.022-.251-.044-.375-.062-.044-.006-.089-.016-.132-.022-.1-.014-.2-.02-.306-.031-.134-.015-.267-.03-.4-.041-.039 0-.078-.009-.117-.012-.09-.006-.177 0-.267-.009-.158-.008-.315-.015-.47-.016h-.132q-.258 0-.512.014h-.065c-.129.007-.257.015-.383.026-.081.008-.16.019-.239.028-.061.007-.121.013-.181.022-.218.029-.435.062-.647.1h-.02c-.058.012-.115.028-.172.041-.176.039-.351.08-.523.128-.084.024-.166.052-.249.078-.11.034-.221.065-.329.1-.027.01-.053.023-.08.033-.167.061-.328.13-.49.2-.078.034-.159.064-.236.1-.236.11-.467.229-.692.36l-2.145 1.247c.225-.13.456-.25.692-.36.077-.037.158-.067.237-.1.161-.07.323-.139.489-.2.135-.049.272-.093.41-.136.083-.026.165-.055.249-.078.172-.048.347-.09.523-.129.058-.013.114-.029.172-.041.218-.044.441-.08.666-.11l.18-.021c.205-.023.412-.043.622-.055h.065c.211-.011.427-.012.643-.01.156 0 .313.008.471.016.128.006.255.01.384.021s.266.026.4.041.291.032.439.053c.124.018.25.04.375.062.158.027.316.055.476.088.108.023.217.047.325.072.169.039.341.082.513.128.109.029.217.058.326.09q.281.081.565.175c.089.029.177.056.267.087q.834.288 1.693.678c.089.04.178.084.267.126.2.095.4.193.606.3l.3.157c.269.142.538.287.81.444l2.145-1.247q-.3-.171-.589-.329c-.075-.03-.149-.069-.223-.109z" transform="translate(-1010.408 -132.846)"/>
                <path id="Caminho_225" d="M1174.233 198.72c0-.042 0-.085-.005-.127 0-.091-.009-.182-.013-.273s-.008-.212-.015-.319l-.02-.246-.023-.288-.015-.189c-.013-.137-.03-.274-.046-.411l-.027-.239c0-.026-.006-.053-.009-.079q-.047-.373-.106-.747v-.016c-.005-.036-.013-.072-.018-.107-.034-.209-.069-.419-.109-.628l-.023-.112c-.019-.1-.041-.2-.061-.3-.025-.122-.047-.243-.074-.365l-.047-.2-.075-.325c-.02-.084-.038-.167-.059-.251-.025-.1-.053-.2-.079-.3l-.086-.327-.042-.161c-.039-.143-.083-.285-.125-.428-.027-.093-.053-.186-.081-.278l-.023-.079q-.118-.385-.247-.769v-.009l-.023-.066q-.116-.341-.238-.683l-.04-.107c-.031-.085-.064-.17-.1-.255-.046-.122-.09-.244-.138-.366-.03-.078-.062-.155-.093-.232q-.056-.142-.114-.283l-.083-.207c-.057-.138-.117-.275-.177-.413l-.093-.217-.034-.079q-.159-.36-.327-.718l-.015-.03c-.032-.068-.065-.135-.1-.2-.088-.184-.176-.369-.267-.552l-.044-.086c-.075-.149-.153-.3-.23-.446-.063-.12-.122-.241-.186-.361l-.036-.064q-.31-.578-.642-1.145c-.019-.032-.036-.065-.055-.1-.056-.1-.116-.19-.173-.286-.093-.155-.186-.309-.281-.463-.085-.137-.172-.272-.259-.408-.1-.151-.193-.3-.293-.452-.032-.05-.064-.1-.1-.15l-.1-.139c-.275-.407-.555-.809-.844-1.2l-.006-.008q-.309-.418-.627-.824l-.028-.036c-.156-.2-.316-.394-.477-.589l-.091-.113-.005-.007q-.284-.341-.575-.673l-.03-.033c-.058-.067-.118-.131-.177-.2-.123-.138-.246-.277-.371-.411l-.072-.075c-.084-.09-.17-.178-.255-.267l-.282-.3-.107-.106c-.092-.093-.186-.184-.279-.276s-.159-.16-.24-.238l-.14-.13c-.1-.1-.2-.189-.3-.282l-.211-.2c-.055-.05-.113-.1-.168-.147-.1-.09-.2-.179-.307-.267-.062-.054-.124-.11-.186-.163s-.137-.111-.206-.168q-.15-.124-.3-.245c-.052-.042-.1-.086-.156-.128-.085-.067-.172-.131-.258-.2s-.187-.144-.281-.214c-.038-.029-.076-.059-.115-.087-.115-.085-.233-.166-.349-.249-.078-.055-.156-.113-.235-.167l-.062-.044q-.314-.215-.632-.418h-.006l-.045-.028c-.192-.121-.385-.24-.578-.354l-.146-.085-6.424-3.709-.026-.1c-.031-.109-.065-.219-.1-.329-.075-.259-.148-.519-.228-.778l-.027-.093c-.038-.125-.081-.25-.12-.375-.07-.224-.141-.447-.215-.671l-.042-.132c-.042-.124-.087-.247-.129-.37-.072-.208-.143-.416-.217-.624-.02-.054-.037-.109-.057-.163-.044-.122-.092-.244-.138-.366-.071-.191-.141-.381-.214-.571l-.067-.177c-.047-.12-.1-.24-.145-.36-.073-.184-.147-.368-.222-.551l-.073-.182c-.05-.121-.1-.241-.155-.362-.075-.178-.151-.356-.229-.533l-.077-.181c-.051-.114-.1-.228-.156-.342-.087-.192-.173-.384-.262-.576l-.088-.193c-.047-.1-.1-.2-.144-.3q-.154-.325-.314-.649l-.11-.229c-.037-.076-.078-.148-.115-.223q-.206-.409-.42-.815c-.046-.088-.09-.178-.137-.266-.028-.052-.057-.1-.085-.156-.088-.165-.178-.328-.268-.492q-.148-.269-.3-.537c-.092-.163-.186-.326-.28-.488-.068-.118-.134-.237-.2-.354l-.076-.125q-.4-.671-.81-1.33c-.048-.076-.1-.151-.145-.227q-.363-.571-.74-1.132c-.042-.062-.082-.127-.123-.189s-.081-.115-.12-.174l-.3-.438c-.12-.171-.239-.341-.36-.511l-.311-.431c-.069-.094-.136-.191-.206-.285-.039-.053-.079-.1-.118-.156q-.373-.5-.754-.988c-.033-.043-.066-.087-.1-.129l-.026-.032q-.4-.508-.812-1l-.037-.047c-.067-.08-.136-.158-.2-.238-.19-.225-.38-.45-.573-.671-.03-.034-.059-.07-.089-.1-.073-.083-.148-.163-.222-.246q-.262-.295-.527-.584c-.047-.051-.093-.1-.14-.156-.065-.069-.131-.135-.2-.2q-.265-.283-.534-.56l-.19-.2c-.049-.05-.1-.1-.149-.147q-.3-.3-.6-.589c-.074-.072-.146-.147-.22-.218l-.087-.081q-.4-.383-.81-.753l-.1-.092-.013-.011q-.462-.417-.933-.815l-.063-.055c-.076-.064-.153-.124-.229-.187q-.324-.27-.653-.533l-.132-.108c-.077-.061-.155-.117-.232-.177q-.286-.223-.575-.439c-.064-.047-.126-.1-.19-.145l-.2-.141q-.272-.2-.546-.388c-.079-.055-.157-.114-.236-.168-.054-.037-.108-.071-.162-.107-.177-.12-.356-.237-.535-.353-.092-.059-.182-.123-.274-.181l-.131-.08c-.172-.108-.345-.213-.518-.317-.1-.062-.2-.127-.307-.188l-.222-.129q-.362-.209-.722-.4l-.021-.011q-.429-.231-.853-.441l-.049-.026c-.063-.031-.125-.058-.188-.088-.2-.1-.408-.2-.61-.288l-.116-.054c-.062-.028-.122-.051-.184-.078q-.279-.122-.555-.236l-.17-.072c-.056-.023-.087-.032-.13-.049q-.3-.118-.6-.225l-.183-.069-.058-.019q-.42-.147-.834-.273l-.025-.008q-.333-.1-.661-.188l-.022-.08c-.033-.118-.07-.236-.1-.353-.092-.325-.186-.65-.285-.975-.01-.032-.018-.064-.028-.1-.045-.149-.1-.3-.143-.446-.086-.27-.17-.54-.26-.81-.016-.047-.029-.095-.045-.142-.05-.148-.1-.3-.155-.444-.086-.25-.172-.5-.261-.75-.022-.06-.041-.119-.062-.179-.054-.149-.113-.3-.168-.446-.084-.226-.168-.453-.255-.678l-.074-.2c-.057-.147-.119-.293-.177-.44-.087-.219-.175-.439-.264-.657-.028-.067-.054-.135-.082-.2-.061-.147-.126-.293-.189-.44-.09-.213-.18-.426-.273-.638-.029-.067-.057-.135-.087-.2-.061-.139-.127-.277-.189-.415-.1-.229-.206-.457-.312-.685-.034-.072-.065-.144-.1-.216-.056-.121-.117-.24-.174-.36q-.183-.385-.372-.769c-.042-.086-.083-.173-.126-.259s-.095-.183-.142-.275q-.24-.476-.488-.948c-.054-.1-.106-.209-.161-.313-.037-.068-.075-.136-.112-.2-.1-.192-.208-.382-.312-.573-.118-.214-.235-.428-.355-.641q-.161-.285-.325-.568l-.223-.391c-.033-.056-.068-.11-.1-.166q-.473-.8-.967-1.592l-.14-.218q-.445-.7-.907-1.389c-.049-.073-.095-.148-.144-.22s-.1-.15-.156-.226c-.121-.177-.244-.353-.366-.529l-.421-.6q-.187-.263-.377-.522c-.078-.107-.154-.215-.232-.32-.047-.064-.1-.126-.145-.19q-.436-.586-.885-1.16c-.043-.055-.084-.113-.128-.168l-.036-.044q-.477-.6-.967-1.195l-.042-.052c-.079-.095-.161-.186-.24-.281-.226-.268-.452-.534-.682-.8-.034-.039-.068-.08-.1-.12-.087-.1-.177-.2-.265-.294-.207-.233-.416-.465-.626-.694-.055-.059-.108-.121-.163-.18-.077-.083-.156-.163-.233-.245q-.316-.336-.636-.666c-.074-.077-.147-.157-.222-.233-.059-.06-.12-.117-.179-.177-.233-.236-.469-.468-.705-.7-.087-.085-.173-.174-.261-.257-.035-.034-.071-.065-.106-.1q-.47-.448-.947-.881c-.043-.039-.085-.081-.129-.12l-.018-.015q-.55-.495-1.109-.968l-.072-.063c-.089-.075-.179-.145-.268-.219-.259-.216-.52-.429-.782-.638-.052-.041-.1-.085-.155-.126-.091-.072-.184-.139-.276-.21q-.341-.265-.685-.522c-.074-.056-.148-.115-.223-.17s-.157-.11-.235-.167q-.324-.235-.649-.461c-.093-.065-.185-.134-.278-.2-.064-.044-.128-.084-.192-.127-.212-.143-.425-.283-.638-.422-.108-.07-.214-.144-.322-.213-.052-.033-.1-.063-.155-.095-.205-.129-.412-.254-.618-.378-.121-.073-.241-.15-.361-.222l-.264-.153c-.264-.152-.527-.3-.789-.442l-.068-.038-.116-.06q-.442-.236-.88-.456l-.108-.056-.047-.022q-.478-.236-.952-.448l-.092-.043-.117-.05c-.317-.14-.633-.275-.946-.4l-.014-.006c-.326-.131-.65-.251-.972-.366l-.113-.042-.084-.027q-.471-.164-.937-.307l-.057-.019-.1-.028c-.329-.1-.655-.189-.979-.27l-.032-.009h-.01c-.341-.085-.678-.158-1.013-.225l-.1-.022-.1-.017-.262-.047c-.115-.02-.23-.04-.345-.058l-.264-.04-.191-.029-.137-.016q-.152-.02-.3-.036l-.31-.032c-.1-.01-.2-.018-.3-.026-.055 0-.112-.011-.168-.014l-.129-.007q-.17-.01-.338-.017l-.281-.01h-.601c-.151 0-.3.006-.45.011l-.194.006c-.212.011-.423.025-.631.043h-.04c-.224.021-.445.047-.665.077l-.2.029q-.282.042-.559.1l-.1.018-.031.007c-.281.056-.557.122-.831.195l-.146.039q-.4.111-.792.245l-.058.018-.131.05q-.172.062-.342.128l-.214.086c-.112.047-.224.095-.334.145-.068.03-.136.06-.2.091-.119.055-.236.114-.353.173-.056.028-.113.055-.168.085-.171.089-.341.182-.508.279l-2.145 1.247c.167-.1.336-.19.507-.279l.168-.084c.117-.059.234-.117.353-.173l.2-.091c.11-.049.222-.1.334-.144l.214-.086c.113-.044.227-.087.342-.128l.189-.067q.39-.134.792-.245l.146-.039c.273-.072.55-.138.831-.195l.135-.025q.276-.053.558-.1l.2-.029c.22-.03.442-.057.665-.077h.04c.208-.019.419-.033.631-.043.064 0 .13 0 .194-.007.149-.005.3-.01.449-.011h.601l.281.01c.112 0 .225.01.338.017l.3.021.3.026.309.032.3.036.328.045.264.04c.115.018.23.038.345.058.087.015.175.03.262.047l.195.039c.335.067.672.14 1.013.225l.042.011c.324.081.651.173.979.27l.158.046q.465.142.938.307l.2.07c.323.115.646.235.973.366l.016.007c.314.126.63.261.947.4l.208.093q.474.214.952.449l.155.078q.437.218.879.455l.184.1q.393.214.789.441c.209.121.417.25.625.376s.413.249.617.378c.16.1.319.2.478.308.213.138.426.278.637.421.158.107.314.216.471.325q.326.227.649.461.23.167.459.338.343.256.684.522c.144.112.289.223.431.337.262.209.522.422.781.638.113.094.227.186.34.282q.559.474 1.109.968l.149.137q.476.432.945.879c.123.117.245.237.366.356q.355.344.705.7.2.2.4.411.319.329.634.665l.4.426q.315.343.625.693c.123.138.246.274.368.414.229.263.455.529.681.8.094.111.189.22.282.332q.491.59.967 1.195l.163.212q.449.573.885 1.16.189.254.376.51c.126.173.252.346.376.521.142.2.282.4.422.6q.184.263.365.528c.1.148.2.3.3.446q.461.688.906 1.387c.047.074.095.146.141.22q.495.787.967 1.59.164.279.326.559c.108.188.217.376.323.566q.181.32.357.643c.1.19.209.38.312.572.092.172.182.345.273.518q.248.472.488.948l.267.534q.189.384.372.77c.091.191.183.383.272.575.105.228.209.457.312.686.092.205.185.411.276.617s.183.425.273.638.181.428.27.643.177.438.265.657.168.424.25.636.171.451.254.676c.078.209.156.418.231.627.089.249.175.5.26.746.068.2.137.394.2.59.089.269.174.538.259.808.057.181.117.362.172.543.1.325.192.65.285.975.041.145.085.289.125.434.227.06.456.126.686.2q.414.126.834.273c.08.028.161.059.241.088.2.072.4.146.6.225.1.039.2.08.3.121q.277.113.555.236l.3.132c.2.092.406.188.611.288l.237.114q.424.21.852.441.37.2.743.415c.177.1.353.211.529.317s.346.209.518.317c.135.085.27.173.4.261.179.116.358.233.535.353.133.09.266.183.4.275q.274.191.545.387.2.141.389.286c.193.143.383.29.574.438.122.095.244.189.366.286.218.174.435.352.651.532.1.081.2.16.292.243q.471.4.934.815c.038.034.075.069.113.1q.408.37.809.753c.1.1.2.2.307.3q.3.291.6.589c.114.114.226.23.339.346q.268.277.533.559.17.18.337.362c.177.192.352.387.526.583.1.117.208.233.311.351.193.221.383.445.573.67.08.095.161.188.241.284q.411.495.812 1l.124.161q.383.489.754.989.163.219.324.439t.313.432c.121.169.24.339.359.51l.3.437c.083.121.163.243.245.364q.376.56.739 1.13c.048.076.1.151.145.227q.414.659.809 1.33.142.239.28.48c.094.162.188.324.279.487l.3.537.269.493c.075.139.148.28.221.42q.213.406.42.815l.226.452q.16.324.314.65.117.244.231.488.134.289.263.578c.078.174.156.347.232.521s.154.357.229.535.153.361.228.543.148.368.222.551.142.358.211.538.144.381.215.571.131.352.194.528c.075.208.146.417.218.625l.171.5c.074.223.144.447.215.671.049.156.1.311.147.467.079.261.154.521.228.782.04.14.083.28.121.42l6.424 3.709c.243.14.484.288.724.439l.046.028q.352.224.7.465c.078.054.157.111.235.167.155.11.31.221.464.336.094.07.187.142.28.214.138.107.277.214.414.325.1.08.2.162.3.245.132.109.262.219.392.331q.153.132.306.267c.127.113.254.228.38.344l.3.282c.128.121.255.244.381.368l.279.276c.131.132.26.266.389.4.085.089.171.177.255.267.15.16.3.323.443.487.059.066.119.13.177.2q.309.351.61.712l.09.112q.256.31.506.627.315.4.62.815l.012.016c.29.393.57.8.844 1.2.065.1.13.191.195.288.1.15.2.3.292.452.087.136.174.271.259.408.095.153.187.307.28.462l.229.383q.331.567.642 1.145c.076.141.149.283.223.425l.231.447q.158.316.31.635l.1.205q.193.411.375.826l.094.22q.133.308.26.618l.113.283q.119.3.231.6c.032.085.065.17.1.256q.144.394.278.789l.023.066c.1.286.186.572.273.857.028.092.053.184.08.275q.087.3.168.592c.03.109.057.218.086.327q.071.276.137.552c.026.109.052.218.076.326q.063.284.12.566c.021.1.042.2.061.3q.072.373.132.744c.005.034.012.069.018.1.044.282.083.563.118.843.01.079.018.159.027.239.023.2.044.4.061.6q.013.144.022.288.021.284.035.566c0 .091.009.182.012.272.01.268.016.534.015.8v1.165c0 .278-.008.549-.021.817 0 .075-.01.149-.013.223-.011.184-.023.367-.039.547-.009.1-.021.205-.032.307-.016.152-.034.3-.054.45-.015.109-.031.217-.048.324q-.032.2-.07.4-.034.18-.072.355t-.081.356c-.033.138-.069.274-.107.407-.029.1-.058.209-.09.311-.049.161-.1.318-.156.472-.03.084-.058.168-.089.25-.1.26-.2.513-.318.755-.088.187-.18.37-.277.546-.1.18-.2.354-.313.523l-.067.1q-.124.187-.255.365l-.108.141c-.083.107-.169.211-.256.313-.033.039-.066.079-.1.117-.12.134-.243.264-.37.388l-.055.051q-.167.158-.342.3c-.042.036-.085.07-.128.1q-.15.12-.3.231l-.128.092c-.144.1-.29.193-.441.281l2.145-1.247c.151-.087.3-.182.441-.281.044-.03.086-.061.129-.092.1-.074.2-.151.3-.231l.128-.1q.175-.147.341-.3l.055-.051q.191-.186.37-.388c.035-.038.067-.078.1-.117.087-.1.172-.205.256-.313l.108-.141c.088-.118.173-.24.255-.365.022-.033.046-.065.067-.1l.021-.03q.152-.239.293-.494.139-.252.267-.52l.011-.026c.114-.242.219-.495.318-.755.008-.022.019-.042.027-.065.023-.06.04-.124.062-.185.055-.155.108-.312.157-.473.013-.043.029-.082.042-.125.018-.06.031-.125.048-.186.037-.134.073-.27.106-.408.013-.056.03-.109.043-.166s.025-.127.038-.189q.037-.177.072-.356c.011-.061.026-.121.036-.183l.033-.221c.017-.107.033-.215.048-.324.008-.056.018-.109.025-.165.012-.093.019-.191.03-.285s.022-.2.032-.307c0-.042.01-.082.013-.123.011-.139.018-.282.026-.423 0-.075.01-.148.014-.223v-.056c.01-.236.016-.476.017-.719v-1.208c.01-.21.008-.434.001-.659z" class="cls-3" transform="translate(-1058.385 -100.206)"/>
            </g>
        </g>
        <g id="Grupo_2080" opacity="0.8" transform="translate(0 41.806)">
            <g id="Grupo_2079">
                <path id="Caminho_227" fill="#9bc7fb" d="M862.04 210.395c11.5 6.642 21.3 20.6 25.13 34.486a24.71 24.71 0 0 1 5.957 2.531c9.7 5.6 17.959 17.371 21.182 29.087l6.426 3.71c8.212 4.741 14.848 16.235 14.821 25.671v1.168c-.027 9.436-6.706 13.245-14.918 8.5l-89.379-51.6c-8.212-4.741-14.848-16.237-14.821-25.674v-1.168c0-.482.024-.948.06-1.4-.033-.541-.053-1.077-.052-1.609.033-11.745 8.346-16.481 18.566-10.58 1.135-15.406 12.813-21.329 27.028-13.122z" transform="translate(-816.434 -206.697)"/>
            </g>
        </g>
        <path id="Caminho_228" d="M1146.576 110.077a11.512 11.512 0 0 0-5.223-9.046l-53.647-30.973c-2.894-1.671-5.247-.33-5.256 3l-.231 81.687.053.041c.219.174.436.353.652.533.1.081.2.16.292.242q.471.4.934.814l.115.107q.406.368.806.749c.1.1.206.2.308.3q.3.291.595.588l.34.347q.268.277.533.558c.112.12.225.24.336.361.177.192.352.387.526.583.1.117.208.233.312.351.193.221.383.446.573.671.08.095.161.188.24.283q.41.495.811 1l.126.163q.382.488.753.987l.323.439c.107.147.21.288.313.432l.358.509.3.44.244.362q.376.561.74 1.132c.048.075.1.15.145.226q.415.659.81 1.33.141.239.279.479c.094.163.187.325.279.488l.3.536c.1.179.181.328.269.493.075.14.148.28.221.421q.214.405.42.815.114.225.225.451.16.325.315.651.117.244.231.488.133.289.263.578c.078.174.156.347.232.521s.153.356.229.534.154.362.228.543.149.368.222.552.142.358.211.537.144.381.215.572.131.352.194.529c.074.208.146.416.218.625l.171.5c.074.224.145.448.216.672.049.156.1.311.147.466.078.258.152.517.227.776.041.142.084.285.123.427l6.426 3.71q.363.21.723.438l.047.029c.234.149.467.3.7.464.08.055.158.113.238.169q.232.164.462.334c.094.07.188.142.281.214q.208.159.414.324.151.121.3.246.2.162.391.329.154.132.307.268.191.169.379.343.153.14.3.282c.128.121.254.244.38.367.094.092.187.183.28.277.131.131.26.266.388.4.085.089.171.177.255.268.149.159.3.322.443.485.059.066.119.131.178.2q.309.351.609.712l.094.116c.169.2.337.412.5.622q.318.4.625.82l.008.011c.29.393.57.8.844 1.2.065.1.13.191.194.288.1.15.2.3.293.453.087.135.173.27.258.407.1.153.188.308.281.463.076.127.153.254.228.382q.331.567.642 1.145c.075.141.149.283.222.424l.231.447c.106.211.208.422.31.635l.1.205q.194.411.375.826l.094.219q.133.308.26.618c.039.094.076.189.114.283.079.2.156.4.231.6l.1.256q.144.394.278.789l.023.067c.1.285.186.571.273.857l.081.278c.058.2.114.393.167.589.03.109.058.219.087.328q.072.275.137.551l.076.326c.042.189.082.378.121.567.02.1.042.2.061.3.039.2.074.405.108.607l10.55 6.091 15.706-9.127z" class="cls-6" transform="translate(-1001.323 -69.34)"/>
        <g id="Grupo_2081" transform="translate(90.214 20.127)">
            <path id="Caminho_229" d="M1157.48 160.326l-43.558-24.711c-.6-.344-1.082-.068-1.084.618a2.374 2.374 0 0 0 1.077 1.865l43.558 24.711c.6.345 1.082.068 1.084-.618a2.374 2.374 0 0 0-1.077-1.865z" class="cls-7" transform="translate(-1112.838 -135.467)"/>
            <path id="Caminho_230" d="M1157.48 210.356l-43.558-24.711c-.6-.345-1.082-.068-1.084.618a2.375 2.375 0 0 0 1.077 1.865l43.558 24.71c.6.344 1.082.068 1.084-.618a2.374 2.374 0 0 0-1.077-1.864z" class="cls-7" transform="translate(-1112.838 -170.27)"/>
            <path id="Caminho_231" d="M1157.48 260.386l-43.558-24.71c-.6-.345-1.082-.068-1.084.618a2.375 2.375 0 0 0 1.077 1.865l43.558 24.71c.6.345 1.082.068 1.084-.618a2.374 2.374 0 0 0-1.077-1.865z" class="cls-7" transform="translate(-1112.838 -205.073)"/>
            <path id="Caminho_232" d="M1157.48 310.416l-43.558-24.71c-.6-.344-1.082-.068-1.084.618a2.375 2.375 0 0 0 1.077 1.865l43.558 24.71c.6.344 1.082.068 1.084-.618a2.375 2.375 0 0 0-1.077-1.865z" class="cls-7" transform="translate(-1112.838 -239.876)"/>
            <path id="Caminho_233" d="M1157.48 360.446l-43.558-24.711c-.6-.344-1.082-.068-1.084.618a2.373 2.373 0 0 0 1.077 1.865l43.558 24.711c.6.345 1.082.068 1.084-.617a2.374 2.374 0 0 0-1.077-1.866z" class="cls-7" transform="translate(-1112.838 -274.679)"/>
        </g>
        <path id="Caminho_234" fill="#fb6a90" d="M1100.718 126.12a11.512 11.512 0 0 0-5.224-9.046L1041.847 86.1c-2.893-1.671-5.247-.33-5.256 3l-.14 61.6c.079.163.159.325.236.488.092.192.183.384.273.577.106.227.209.456.312.684.092.206.186.411.276.618s.183.425.273.638.182.427.27.641.177.438.265.657.169.424.25.636.171.451.254.677c.077.208.156.417.231.626.089.249.174.5.26.747.067.2.136.393.2.59.089.268.173.537.258.806.057.181.116.362.172.544.1.322.19.644.282.966l.129.445c.224.06.45.125.677.194q.415.127.838.275l.231.084c.2.073.406.149.61.23l.3.121q.277.113.557.236c.1.044.2.087.3.133.2.092.405.188.609.287l.241.116q.424.21.852.442.37.2.744.415c.177.1.352.211.528.317s.346.209.519.317c.135.085.27.173.405.261.178.116.357.233.534.353.133.09.266.183.4.275q.274.191.546.388l.388.285q.289.216.575.438c.122.095.244.189.365.286.219.174.436.352.652.533.1.081.2.16.293.242q.471.4.934.814l.115.107q.406.368.806.749c.1.1.206.2.309.3q.3.291.594.588.17.172.34.347.268.276.532.558l.337.361q.265.289.526.583c.1.117.209.233.312.351.193.221.383.445.573.671.08.095.161.188.24.284q.411.495.811 1l.126.163q.382.488.753.986.163.219.324.439c.1.144.209.287.313.432.121.168.24.338.359.509l.3.44c.082.12.163.242.244.363q.377.561.74 1.132c.048.076.1.15.145.226q.415.659.81 1.33l.279.479c.094.163.188.325.28.488l.3.536c.1.179.181.328.27.493l.221.42q.213.406.42.815l.226.451q.159.325.315.651l.23.488c.089.192.176.385.263.578.078.173.156.347.232.521s.153.356.229.534.154.362.228.543.149.368.222.552.142.358.211.537.144.381.215.572.131.352.194.528c.075.208.146.417.218.625.057.167.115.333.171.5.074.224.145.448.216.672.049.156.1.311.147.466.079.258.153.517.226.776.041.142.084.285.123.428l6.427 3.71q.364.21.723.438l.047.029c.234.149.467.3.7.464.08.055.158.113.238.169.155.11.309.22.462.335.094.07.188.142.281.214.139.107.276.214.414.324q.151.121.3.246.2.162.39.329.154.132.307.268.191.169.379.342l.3.282c.128.121.254.243.38.367.094.092.187.183.28.277.131.131.259.266.388.4.085.089.171.177.256.268.149.159.3.322.442.485.059.066.12.131.178.2q.308.351.61.712l.094.116c.169.205.337.412.5.623q.318.4.625.82l.008.011c.29.393.57.8.844 1.2.065.1.13.191.194.287.1.15.2.3.293.453.086.135.173.27.258.407.1.153.188.308.281.463.076.127.153.254.228.382q.331.567.642 1.145c.076.141.148.283.222.424s.156.3.231.447q.158.316.31.635l.1.205q.193.411.375.826l.094.22q.133.308.259.618c.039.094.077.188.114.283q.119.3.231.6c.032.085.065.17.1.256q.144.394.278.789l.023.067q.143.428.273.857l.081.278c.057.2.114.393.167.589.03.109.057.219.086.328.048.184.093.367.137.551.026.108.052.217.076.326.043.189.083.378.121.567l.061.3q.071.371.132.741l.018.106c.045.282.083.562.118.842.01.079.017.159.026.238q.035.3.061.6l.023.287q.021.284.034.566c0 .091.01.182.013.272.009.267.016.534.015.8v1.168c0 .278-.008.549-.02.817 0 .076-.009.149-.014.224-.011.184-.023.366-.039.545-.009.1-.021.205-.032.307-.016.152-.034.3-.054.45-.015.109-.032.217-.049.324-.022.136-.045.271-.07.4s-.046.239-.071.356-.053.238-.081.355q-.05.207-.106.408c-.029.1-.058.209-.09.311-.049.161-.1.318-.156.472-.03.084-.058.169-.089.251-.1.26-.2.513-.318.755-.089.188-.181.372-.279.549-.048.086-.1.166-.15.25l1.018.588 12.317-7.168z" opacity="0.5" transform="translate(-969.486 -80.499)"/>
        <g id="Grupo_2082" transform="translate(54.914 13.095)">
            <path id="Caminho_235" d="M1055.88 224.249c.086.135.173.27.258.407.095.153.188.308.281.463.077.127.153.254.228.382q.331.567.642 1.145c.076.141.148.283.222.424s.156.3.231.447q.159.316.31.635c.033.069.068.137.1.205.129.274.254.55.375.826l.094.219q.133.308.26.618c.039.094.076.189.114.283q.118.3.231.6l.1.256q.144.394.278.789l.023.067q.143.428.273.857l.081.278c.058.2.114.393.167.589.03.109.058.218.086.328q.072.275.137.551c.026.109.052.217.076.326.043.189.083.378.122.567.02.1.042.2.061.3q.071.372.131.741c.006.035.013.07.018.106.038.239.07.476.1.714l.191-84.265a11.512 11.512 0 0 0-5.224-9.046l-53.647-30.973c-2.894-1.671-5.247-.33-5.256 2.995l-.082 35.978.14.138q.2.2.4.411.319.329.634.665l.4.427c.21.229.418.46.625.693.122.138.246.275.367.414.23.263.456.53.682.8l.281.331q.49.59.967 1.195l.164.212q.449.574.885 1.161.189.253.375.509t.378.521c.141.2.282.4.421.6q.184.263.365.527c.1.148.2.3.3.446q.461.688.906 1.388l.14.219q.5.788.968 1.591.163.277.324.556c.109.189.218.378.325.568.12.213.238.428.356.643q.157.285.312.572c.093.172.183.345.274.519q.247.471.487.946c.09.178.18.356.267.535q.189.383.372.768c.092.192.184.384.273.577.105.227.208.456.311.684.093.206.185.411.276.618s.183.425.273.638.181.427.269.641.177.438.265.657.169.424.251.636.171.451.255.677c.077.208.155.417.23.626.089.249.175.5.26.747.068.2.136.393.2.59.089.268.174.538.259.806.057.181.116.362.172.544.1.322.19.644.282.966l.129.445c.224.06.45.125.676.194q.416.126.837.275c.076.026.154.056.231.084.2.073.406.149.61.23l.3.121q.277.113.557.236c.1.044.2.087.3.133.2.092.405.188.609.287.08.039.16.076.24.116q.424.211.852.442.371.2.743.415c.177.1.352.211.529.317s.346.209.518.317c.136.085.27.174.4.261.179.116.357.233.535.353.133.09.266.183.4.275q.274.191.546.388l.388.285q.289.216.575.439l.366.285c.219.174.436.353.653.533.1.081.2.16.292.242q.471.4.934.814l.115.107q.406.368.806.749c.1.1.206.2.308.3q.3.291.594.588.17.172.34.347.268.277.533.559c.113.12.226.24.337.361.177.192.351.387.526.583.1.117.208.233.311.351.193.221.384.446.573.671.08.095.161.188.24.283q.411.495.812 1l.126.163q.381.488.753.987.163.218.323.439l.313.433.358.509.3.44.244.362q.376.561.74 1.132c.048.075.1.15.145.226q.415.659.81 1.33c.094.159.186.319.279.479s.188.325.28.488l.3.536c.1.179.181.328.269.493.075.14.148.28.221.421q.213.405.42.815l.225.451q.16.325.315.651l.231.488q.133.289.263.578l.233.521c.077.174.153.356.229.534s.154.362.228.543.148.368.222.552.142.358.211.537.144.381.215.572.131.352.194.529c.074.208.146.416.218.625l.171.5c.074.224.145.448.216.672.049.156.1.311.147.466.078.258.152.517.226.776.041.142.084.285.124.427l6.426 3.71q.364.21.723.438l.047.029c.234.149.467.3.7.464.08.055.158.113.237.169q.232.164.462.335c.094.07.187.142.281.214q.208.159.414.324.151.121.3.246.2.162.39.329c.1.088.205.177.307.268q.19.169.379.343.152.14.3.282c.127.121.254.244.38.367.094.092.187.183.28.277.131.131.259.266.388.4.085.089.171.177.255.268.149.159.3.322.442.485.059.066.12.131.178.2q.309.351.61.712l.094.116c.168.2.337.412.5.622q.318.4.625.82l.008.011c.29.393.57.8.845 1.2.065.1.13.191.193.288.106.145.203.299.3.448z" class="cls-9" transform="translate(-996.857 -112.366)"/>
            <path id="Caminho_236" d="M1197.689 545.059c0 .011 0 .024-.006.035-.021.136-.045.271-.07.4s-.047.239-.072.356-.053.238-.081.355c-.034.138-.069.273-.107.408-.029.1-.058.209-.09.311-.049.161-.1.317-.157.472-.029.083-.057.169-.089.251-.1.26-.2.513-.318.755-.089.188-.181.372-.28.549-.1.18-.2.354-.313.522l-.068.1c-.083.125-.168.246-.255.364l-.108.141c-.083.107-.169.212-.256.313-.034.039-.066.079-.1.117-.12.134-.243.264-.371.388l-.055.051c-.111.106-.225.207-.341.3-.042.036-.085.069-.128.1-.1.08-.2.157-.3.231l-.128.092c-.144.1-.291.194-.441.281l4.125-2.4z" class="cls-9" transform="translate(-1133.686 -413.364)"/>
        </g>
        <g id="Grupo_2083" transform="translate(64.08 33.222)">
            <path id="Caminho_237" d="M1071.615 203.352l-43.558-24.71c-.6-.344-1.082-.068-1.084.618a2.373 2.373 0 0 0 1.077 1.865l43.558 24.71c.6.345 1.082.068 1.084-.618a2.375 2.375 0 0 0-1.077-1.865z" class="cls-10" transform="translate(-1026.973 -178.494)"/>
            <path id="Caminho_238" d="M1071.615 253.382l-43.558-24.711c-.6-.345-1.082-.068-1.084.618a2.372 2.372 0 0 0 1.077 1.865l43.558 24.711c.6.344 1.082.068 1.084-.618a2.374 2.374 0 0 0-1.077-1.865z" class="cls-10" transform="translate(-1026.973 -213.296)"/>
            <path id="Caminho_239" d="M1071.615 303.412l-43.558-24.71c-.6-.344-1.082-.068-1.084.618a2.373 2.373 0 0 0 1.077 1.865l43.558 24.71c.6.345 1.082.068 1.084-.618a2.375 2.375 0 0 0-1.077-1.865z" class="cls-10" transform="translate(-1026.973 -248.099)"/>
            <path id="Caminho_240" d="M1071.615 353.442l-43.558-24.711c-.6-.344-1.082-.068-1.084.618a2.373 2.373 0 0 0 1.077 1.865l43.558 24.71c.6.344 1.082.068 1.084-.617a2.375 2.375 0 0 0-1.077-1.865z" class="cls-10" transform="translate(-1026.973 -282.902)"/>
            <path id="Caminho_241" d="M1071.615 403.472l-43.558-24.71c-.6-.345-1.082-.068-1.084.618a2.373 2.373 0 0 0 1.077 1.865l43.558 24.71c.6.345 1.082.068 1.084-.617a2.375 2.375 0 0 0-1.077-1.866z" class="cls-10" transform="translate(-1026.973 -317.705)"/>
        </g>
        <g id="Grupo_2086" transform="translate(0 40.578)">
            <g id="Grupo_2084" transform="translate(5.41)">
                <path id="Caminho_242" d="M848.711 251.676l-.3-.156c-.078-.04-.156-.083-.234-.121-.125-.062-.248-.117-.372-.176-.089-.042-.179-.086-.267-.126l-.11-.052q-.372-.167-.74-.314-.375-.15-.746-.281l-.1-.031c-.089-.031-.178-.058-.267-.087-.126-.041-.253-.086-.379-.124-.062-.019-.124-.034-.186-.051-.109-.032-.218-.061-.327-.09-.083-.022-.169-.049-.252-.069s-.174-.038-.261-.058c-.109-.025-.217-.05-.325-.072-.057-.012-.116-.027-.172-.038-.1-.02-.2-.033-.3-.05-.125-.022-.251-.044-.375-.062-.044-.006-.089-.016-.132-.022-.1-.014-.2-.02-.306-.031-.134-.015-.267-.03-.4-.041-.039 0-.079-.009-.117-.012-.09-.006-.177 0-.267-.009-.157-.007-.315-.014-.47-.016h-.132c-.172 0-.343.006-.512.014h-.065c-.128.007-.256.015-.383.026-.081.007-.159.019-.239.028l-.18.021c-.218.029-.435.063-.647.105h-.02c-.058.012-.115.028-.172.041-.176.039-.352.08-.523.128-.084.024-.166.052-.249.079-.11.034-.221.065-.329.1-.028.009-.053.023-.08.033-.166.061-.328.129-.49.2-.078.034-.159.065-.236.1-.236.11-.467.229-.692.36l-2.145 1.246c.225-.13.456-.249.692-.36.077-.036.158-.067.237-.1.161-.07.323-.139.489-.2.135-.049.272-.093.41-.136.083-.026.165-.055.249-.079.172-.048.347-.089.523-.129.058-.013.114-.029.172-.04.218-.044.442-.08.667-.11l.18-.022c.2-.023.412-.043.622-.055h.065c.212-.011.427-.012.643-.01.155 0 .313.008.471.016.128.006.255.011.384.021s.266.026.4.041.291.032.438.053c.124.018.25.04.375.061.158.027.316.055.476.088.108.023.217.047.325.072.169.039.341.082.513.128.109.029.217.058.326.09q.281.081.565.175c.089.029.177.056.267.087q.834.288 1.693.678c.089.04.178.084.268.126.2.095.4.193.606.3l.3.157c.269.142.538.287.81.444l2.145-1.247q-.3-.171-.588-.329c-.076-.037-.149-.073-.224-.112z" class="cls-6" transform="translate(-834.209 -235.301)"/>
                <path id="Caminho_243" d="M998.034 301.174c0-.042 0-.085-.006-.127 0-.091-.008-.182-.013-.272-.005-.107-.008-.213-.015-.32-.005-.082-.014-.164-.02-.246l-.023-.288-.015-.189c-.013-.136-.03-.274-.046-.411l-.026-.239c0-.026-.006-.053-.009-.079q-.048-.372-.106-.747v-.016l-.018-.107c-.034-.209-.069-.419-.109-.629l-.023-.112c-.019-.1-.041-.2-.061-.3-.025-.122-.047-.243-.074-.365l-.047-.2c-.024-.108-.05-.216-.076-.325-.02-.084-.038-.168-.059-.251-.025-.1-.053-.2-.079-.3s-.056-.218-.086-.328l-.042-.161c-.039-.143-.083-.285-.125-.428l-.081-.278c-.008-.026-.015-.053-.024-.079q-.118-.385-.246-.769v-.009l-.023-.066q-.115-.341-.238-.683l-.04-.107c-.031-.085-.064-.17-.1-.255-.045-.122-.09-.244-.137-.366-.03-.078-.062-.155-.093-.232l-.113-.283-.084-.207c-.057-.138-.118-.275-.177-.413l-.094-.217-.034-.079q-.159-.36-.327-.718l-.015-.031c-.032-.068-.065-.135-.1-.2-.088-.185-.176-.369-.268-.553l-.044-.086c-.075-.15-.153-.3-.23-.446-.063-.12-.123-.241-.186-.361l-.036-.065q-.311-.578-.642-1.145c-.019-.032-.036-.065-.054-.1-.057-.1-.116-.19-.174-.286-.093-.155-.186-.309-.281-.462-.085-.137-.172-.273-.259-.408q-.145-.227-.292-.452c-.033-.05-.064-.1-.1-.15l-.1-.139c-.275-.407-.555-.809-.844-1.2l-.006-.008q-.308-.418-.627-.824l-.028-.036c-.156-.2-.316-.394-.476-.589l-.091-.113-.006-.007q-.284-.341-.574-.672l-.03-.033c-.058-.066-.119-.131-.177-.2-.123-.138-.246-.277-.372-.411l-.071-.075c-.084-.09-.17-.178-.255-.267s-.186-.2-.281-.3l-.107-.106c-.092-.093-.186-.184-.279-.276s-.16-.16-.241-.238l-.14-.13c-.1-.1-.2-.189-.3-.282-.07-.065-.139-.132-.21-.2-.056-.05-.113-.1-.169-.147q-.153-.136-.307-.267c-.062-.054-.124-.11-.187-.163s-.137-.111-.205-.168q-.15-.124-.3-.245c-.052-.042-.1-.086-.156-.128-.086-.068-.172-.131-.258-.2s-.187-.144-.281-.214l-.115-.087c-.116-.085-.233-.166-.349-.248-.078-.056-.156-.113-.235-.167l-.062-.044q-.314-.215-.632-.418h-.006l-.045-.028q-.289-.183-.579-.355l-.146-.085-6.424-3.709-.027-.1c-.03-.11-.064-.219-.1-.329-.074-.259-.148-.519-.227-.778l-.027-.093c-.038-.125-.081-.25-.12-.375-.071-.224-.141-.447-.215-.67l-.042-.132c-.042-.124-.087-.247-.13-.37-.071-.208-.143-.416-.217-.624-.02-.054-.038-.109-.057-.163l-.138-.366c-.071-.19-.141-.381-.215-.571l-.066-.177c-.047-.12-.1-.24-.145-.36-.073-.184-.146-.368-.222-.551l-.073-.182c-.05-.121-.1-.241-.155-.362-.076-.178-.151-.356-.229-.533l-.077-.181c-.051-.114-.1-.228-.156-.342-.086-.192-.173-.384-.262-.576l-.088-.193c-.047-.1-.1-.2-.144-.3q-.155-.325-.314-.649c-.037-.076-.072-.153-.11-.229s-.077-.148-.115-.223q-.206-.409-.42-.815c-.046-.089-.09-.178-.137-.266-.028-.052-.057-.1-.085-.155-.088-.165-.178-.328-.268-.492l-.3-.536c-.1-.178-.186-.326-.28-.489-.068-.118-.134-.236-.2-.354l-.076-.125q-.4-.671-.809-1.33c-.048-.076-.1-.151-.146-.227q-.363-.571-.74-1.132c-.042-.063-.081-.127-.123-.189l-.12-.174-.3-.438c-.119-.171-.238-.341-.36-.511l-.311-.431-.206-.285c-.039-.052-.08-.1-.119-.155q-.372-.5-.754-.989c-.033-.043-.065-.087-.1-.13l-.026-.031q-.4-.508-.811-1l-.038-.047c-.067-.08-.136-.158-.2-.238-.19-.225-.38-.45-.573-.67l-.089-.1c-.073-.083-.149-.163-.222-.246q-.262-.295-.527-.584c-.047-.051-.094-.1-.141-.156-.065-.07-.131-.136-.2-.2q-.266-.283-.534-.56l-.19-.2c-.049-.05-.1-.1-.149-.147q-.3-.3-.6-.589c-.074-.072-.146-.147-.221-.218l-.087-.081q-.4-.383-.809-.753l-.1-.092-.013-.011q-.463-.417-.934-.815l-.063-.055c-.076-.064-.153-.124-.229-.187-.217-.18-.434-.358-.653-.533l-.132-.108c-.077-.061-.155-.117-.232-.177-.192-.148-.383-.3-.576-.439-.063-.047-.126-.1-.19-.145l-.2-.141q-.272-.2-.546-.388c-.079-.055-.157-.114-.236-.168-.053-.037-.108-.071-.162-.107-.178-.12-.356-.237-.535-.353-.091-.059-.182-.122-.274-.181-.043-.028-.087-.053-.131-.08-.172-.108-.345-.213-.518-.317-.1-.062-.2-.127-.306-.188l-.222-.129q-.362-.209-.722-.4l-.021-.012q-.429-.231-.853-.441l-.05-.026c-.063-.031-.125-.058-.187-.088-.2-.1-.408-.2-.611-.288l-.115-.054c-.061-.027-.122-.051-.184-.078q-.278-.122-.555-.235c-.057-.023-.114-.05-.17-.072l-.13-.049c-.2-.079-.4-.153-.6-.225l-.183-.069-.058-.019q-.42-.146-.834-.273l-.024-.008q-.333-.1-.662-.188l-.022-.08c-.033-.118-.07-.236-.1-.353-.093-.325-.186-.65-.285-.975l-.028-.1c-.045-.149-.1-.3-.143-.446-.085-.27-.17-.54-.26-.81l-.046-.142c-.05-.148-.1-.3-.155-.444-.086-.25-.172-.5-.262-.75-.021-.059-.04-.119-.062-.179-.054-.149-.112-.3-.167-.446-.084-.226-.168-.452-.255-.678l-.074-.2c-.057-.147-.119-.293-.177-.44-.088-.219-.174-.438-.265-.657-.027-.067-.053-.135-.081-.2-.061-.147-.126-.293-.189-.44-.09-.213-.18-.425-.273-.637-.029-.068-.057-.135-.087-.2-.061-.139-.126-.276-.189-.415-.1-.229-.206-.457-.312-.685-.033-.072-.065-.145-.1-.217-.056-.12-.117-.24-.174-.36q-.184-.385-.372-.769c-.043-.086-.083-.173-.126-.26s-.1-.183-.142-.275q-.24-.476-.488-.948c-.055-.1-.106-.209-.161-.313-.036-.069-.075-.136-.112-.205-.1-.192-.207-.382-.312-.573q-.176-.321-.355-.641-.161-.285-.325-.568c-.075-.13-.148-.261-.224-.39-.032-.056-.068-.11-.1-.166q-.474-.8-.968-1.592l-.14-.218q-.445-.7-.907-1.388c-.049-.073-.095-.148-.144-.22s-.1-.15-.156-.225q-.182-.266-.366-.529-.209-.3-.421-.6-.187-.263-.378-.522c-.077-.107-.153-.214-.231-.32-.047-.064-.1-.126-.145-.19q-.437-.586-.885-1.16c-.043-.055-.084-.112-.128-.168l-.036-.044q-.477-.6-.967-1.195l-.042-.052c-.079-.095-.161-.186-.24-.281-.226-.268-.452-.534-.681-.8l-.1-.12c-.087-.1-.177-.2-.265-.294-.208-.233-.415-.465-.626-.694-.055-.059-.108-.121-.162-.18-.077-.083-.156-.163-.234-.245q-.316-.336-.636-.666c-.074-.077-.148-.157-.222-.233-.059-.06-.12-.117-.179-.177q-.35-.353-.705-.7c-.087-.085-.173-.174-.26-.258-.035-.034-.071-.065-.106-.1q-.469-.448-.947-.881l-.129-.12-.018-.015q-.55-.495-1.109-.968l-.072-.063c-.089-.075-.179-.145-.267-.219-.26-.215-.52-.429-.782-.638-.052-.041-.1-.086-.155-.127-.091-.072-.184-.139-.275-.21q-.342-.265-.685-.522c-.075-.056-.149-.115-.223-.17s-.157-.111-.236-.167q-.323-.235-.649-.461c-.093-.065-.185-.134-.278-.2-.064-.044-.128-.084-.192-.127-.212-.143-.424-.283-.638-.422-.108-.07-.214-.144-.322-.213-.051-.033-.1-.063-.155-.095-.2-.129-.411-.254-.617-.378-.121-.073-.241-.15-.362-.221l-.264-.154q-.4-.229-.789-.441l-.068-.038-.116-.06q-.442-.237-.88-.456l-.108-.056-.047-.022q-.478-.236-.951-.448l-.092-.043c-.039-.018-.078-.032-.118-.05-.317-.14-.633-.275-.946-.4l-.014-.006c-.326-.131-.65-.251-.972-.366l-.113-.042-.085-.027q-.471-.164-.937-.307l-.057-.019-.1-.028c-.328-.1-.655-.189-.978-.27l-.033-.009h-.01c-.341-.085-.677-.158-1.013-.225l-.1-.022-.1-.017-.262-.047s-.23-.04-.345-.058l-.263-.04-.191-.029-.137-.016-.3-.036-.31-.032-.3-.026c-.056 0-.112-.011-.167-.014l-.129-.007c-.114-.007-.226-.012-.338-.017-.094 0-.187-.008-.281-.01-.112 0-.223 0-.335-.005h-.267c-.151 0-.3.006-.45.011l-.194.007q-.318.016-.631.043h-.04c-.224.021-.445.047-.665.077l-.2.029q-.282.042-.559.095c-.034.007-.069.011-.1.018l-.031.007c-.281.057-.558.123-.831.2l-.146.039q-.4.111-.792.245l-.058.018-.132.05q-.172.062-.342.128l-.213.086q-.169.07-.335.145c-.068.03-.135.06-.2.091-.119.055-.236.113-.353.172-.056.029-.113.055-.168.085q-.257.134-.508.279l-2.145 1.247c.167-.1.336-.19.508-.279.055-.029.112-.056.168-.084.117-.059.235-.117.354-.173l.2-.091c.11-.049.222-.1.334-.144.071-.03.142-.058.214-.086q.169-.067.342-.128l.189-.068q.39-.134.792-.245l.146-.039c.273-.072.55-.138.831-.195l.135-.025q.277-.053.558-.1l.2-.029c.22-.03.441-.057.665-.077h.04q.313-.028.631-.043c.064 0 .13 0 .194-.007.149-.005.3-.01.449-.011h.601c.093 0 .187.006.281.01.112 0 .225.01.338.017l.3.021.3.026.309.032.3.036.327.045.264.04c.114.018.23.038.345.058l.262.047.194.039c.335.067.672.14 1.013.225l.043.011c.324.081.65.173.979.27l.158.047q.466.141.938.307l.2.07c.323.115.646.235.972.366l.016.007c.314.126.63.261.947.4l.209.093q.473.214.952.449l.155.078q.438.219.879.455l.185.1q.393.214.789.441c.209.121.417.25.625.376s.412.249.617.378c.16.1.319.2.478.309.213.138.425.278.637.421.158.107.314.216.471.325q.326.227.649.461.23.167.459.338.344.256.684.522c.144.112.288.223.432.337.261.208.522.422.781.638.113.094.227.186.34.282q.559.474 1.109.968l.149.137q.476.432.945.879c.123.117.244.237.367.356q.354.345.7.7.2.2.4.411.319.329.634.665l.4.426q.315.343.625.693c.122.138.246.275.368.414.229.263.455.529.681.8.094.111.189.22.282.332q.49.59.967 1.195c.055.07.108.142.164.212q.449.573.885 1.16l.377.51c.126.173.252.346.377.521q.213.3.422.6c.122.176.244.351.365.528.1.148.2.3.3.447q.461.687.906 1.387c.047.074.095.146.141.22q.5.787.967 1.591.164.279.326.559c.108.188.217.376.323.566.12.214.239.428.357.643.1.19.209.38.312.572.092.172.182.345.273.518q.248.472.488.948l.267.534q.189.384.373.77c.091.191.183.383.272.575.106.228.209.457.312.686.093.205.185.411.276.617s.183.425.273.638.182.428.27.643.177.438.264.657.169.424.251.636.17.451.254.677c.078.209.156.418.23.627.089.249.175.5.261.746.068.2.136.394.2.59.089.269.174.538.259.808.057.181.117.362.172.543.1.325.192.65.284.975.041.145.086.289.125.434q.341.09.686.2.414.126.834.273c.08.028.161.059.242.088.2.072.4.146.6.225.1.039.2.08.3.121q.277.113.555.235l.3.132c.2.092.406.189.61.288l.237.114q.423.211.852.441.37.2.743.415c.177.1.352.211.528.317s.346.209.519.317c.135.086.27.173.4.261.179.116.358.233.535.353.133.09.266.183.4.275q.274.191.545.387.195.142.389.286.288.216.574.438c.122.095.244.189.365.286.219.174.436.352.652.532.1.081.2.16.293.242q.47.4.934.815l.112.1q.409.37.81.753c.1.1.2.2.307.3q.3.291.6.589.17.172.339.347.268.276.533.559.169.18.337.362c.177.192.352.387.526.583.1.117.208.233.311.351.193.221.383.445.573.671.08.095.161.188.241.284q.411.495.812 1l.124.161q.382.489.755.989c.108.145.216.292.323.439l.313.433c.121.169.24.339.359.51q.152.218.3.437c.083.121.163.243.245.365q.375.56.739 1.13l.146.227q.414.658.809 1.33.142.239.279.48c.094.162.187.324.279.487l.3.537c.09.164.181.328.269.493.075.139.148.28.221.42q.213.406.42.815l.226.452q.16.324.315.65c.077.162.155.325.23.488q.134.289.263.578c.078.173.156.347.232.521s.154.357.23.535.153.362.228.543.149.368.222.551.142.358.211.538.144.381.215.571.131.352.194.528c.075.208.146.417.218.625.058.167.116.334.171.5.074.224.145.447.215.671.049.156.1.311.147.467.079.26.154.521.228.782.04.14.083.28.121.42l6.424 3.709c.243.14.485.288.725.44l.046.028c.234.149.468.3.7.465.079.054.157.112.236.167.155.11.31.221.464.335.094.07.187.142.281.214.138.107.277.214.414.325.1.08.2.163.3.245q.2.163.392.331.153.132.306.267c.127.113.254.228.38.344l.3.282c.128.121.255.244.381.368.093.092.187.183.279.276.131.132.26.266.389.4.085.089.171.177.255.267.149.16.3.323.443.487.059.066.119.13.177.2q.309.351.61.712l.09.112q.256.309.505.627.315.4.621.815l.012.017c.29.393.57.8.844 1.2.065.1.13.191.194.288.1.149.2.3.292.452.087.135.174.271.259.408.095.153.188.307.281.462.076.128.153.255.228.383q.331.567.642 1.145c.076.141.148.283.222.425l.23.447q.159.316.31.635l.1.2q.193.411.375.826l.094.22q.133.308.26.618c.039.094.076.188.113.283q.118.3.231.6c.032.086.064.17.1.256q.144.394.278.789l.023.067q.144.428.273.857c.028.092.053.184.08.275.058.2.115.4.168.593l.086.326q.072.276.137.551l.076.327q.064.283.121.566c.02.1.042.2.061.3q.071.373.132.744c.005.034.012.069.018.1.045.282.083.563.118.843.01.079.018.159.026.239.023.2.043.4.061.6l.023.287c.014.189.025.378.035.566 0 .091.009.182.013.272.01.268.016.534.015.8v1.165c0 .278-.009.55-.02.818 0 .075-.009.149-.014.223-.011.184-.023.367-.039.547-.009.1-.02.205-.031.307-.016.152-.034.3-.054.45-.015.109-.031.217-.048.324-.022.137-.045.271-.07.4s-.047.238-.072.355-.053.239-.081.356c-.034.138-.069.274-.106.408-.029.1-.058.209-.09.311-.049.161-.1.318-.157.473-.029.083-.058.168-.089.25-.1.26-.2.513-.318.755-.088.187-.18.37-.277.546-.1.18-.2.354-.313.523l-.067.1q-.124.187-.255.365l-.108.141c-.083.107-.169.211-.255.313-.034.039-.066.079-.1.117-.12.134-.243.264-.371.388l-.055.051q-.167.158-.341.3c-.042.036-.086.07-.128.1q-.15.12-.3.231l-.128.092c-.144.1-.29.194-.441.281l2.145-1.247c.151-.087.3-.182.441-.281l.128-.092c.1-.074.2-.151.3-.231.043-.035.086-.069.128-.1.117-.1.23-.2.341-.3l.055-.051c.127-.124.25-.254.37-.388l.1-.116c.087-.1.172-.206.255-.313l.108-.141c.088-.118.173-.24.255-.365.022-.033.046-.065.067-.1l.02-.03q.153-.239.293-.494.139-.253.266-.52c0-.008.007-.017.011-.025.114-.243.22-.5.318-.755.009-.022.019-.043.027-.065.022-.06.04-.124.062-.185.055-.155.108-.312.156-.473.013-.043.029-.082.042-.125.018-.06.031-.125.048-.186.037-.135.073-.27.106-.408.013-.056.03-.109.043-.166s.025-.127.038-.189q.038-.176.071-.356c.012-.061.026-.12.037-.183s.022-.148.033-.221c.017-.107.034-.215.048-.324.008-.055.018-.109.025-.165.012-.093.02-.19.03-.285s.023-.2.032-.307c0-.042.01-.082.013-.123.011-.139.018-.282.026-.423 0-.075.01-.148.014-.223v-.055q.015-.354.017-.719v-1.208q.014-.32.004-.658z" class="cls-6" transform="translate(-882.186 -202.66)"/>
            </g>
            <g id="Grupo_2085" transform="translate(0 1.247)">
                <path id="Caminho_244" d="M862.038 210.452c11.506 6.643 21.3 20.6 25.132 34.489a24.624 24.624 0 0 1 5.957 2.529c9.7 5.6 17.959 17.374 21.182 29.087l6.424 3.709c8.214 4.742 14.85 16.236 14.823 25.675v1.165c-.027 9.439-6.706 13.245-14.92 8.5l-89.378-51.6c-8.212-4.741-14.848-16.235-14.821-25.674v-1.166c0-.485.024-.95.058-1.4-.032-.541-.052-1.079-.05-1.61.033-11.743 8.344-16.482 18.566-10.58 1.136-15.404 12.814-21.33 27.027-13.124z" class="cls-6" transform="translate(-816.434 -206.755)"/>
                <path id="Caminho_250" d="M862.038 210.452c11.506 6.643 21.3 20.6 25.132 34.489a24.624 24.624 0 0 1 5.957 2.529c9.7 5.6 17.959 17.374 21.182 29.087l6.424 3.709c8.214 4.742 14.85 16.236 14.823 25.675v1.165c-.027 9.439-6.706 13.245-14.92 8.5l-89.378-51.6c-8.212-4.741-14.848-16.235-14.821-25.674v-1.166c0-.485.024-.95.058-1.4-.032-.541-.052-1.079-.05-1.61.033-11.743 8.344-16.482 18.566-10.58 1.136-15.404 12.814-21.33 27.027-13.124z" class="cls-10" transform="translate(-814.611 -206.755)"/>
            </g>
        </g>
        <g id="Grupo_2089" transform="translate(131.232 47.309)">
            <g id="Grupo_2087" transform="translate(.464)">
                <path id="Caminho_245" d="M1353.459 416.322a.933.933 0 0 1-.264.013h-.006a1.229 1.229 0 0 1-.29-.062 1.794 1.794 0 0 1-.317-.146l-6.575-3.8-.052-.029-.067-.035-.065-.031-.065-.028-.064-.024h-.01l-.05-.016-.065-.018c-.021-.006-.043-.011-.064-.014l-.067-.011H1345.216a.846.846 0 0 0-.087.013h-.006a.731.731 0 0 0-.1.025.754.754 0 0 0-.128.059l-12.444 7.232a.756.756 0 0 1 .224-.086.886.886 0 0 1 .259-.013h.008a1.216 1.216 0 0 1 .29.064 1.808 1.808 0 0 1 .324.15l6.574 3.8.05.027.064.034.063.03.063.027.063.024h.013l.046.015.065.018.064.015.069.011.047.005h.097a.746.746 0 0 0 .081 0 .647.647 0 0 0 .091-.014h.006a.915.915 0 0 0 .1-.029.855.855 0 0 0 .127-.059l12.443-7.232a.766.766 0 0 1-.23.088z" class="cls-3" transform="translate(-1332.448 -376.595)"/>
                <path id="Caminho_246" d="M1400.988 416.954v-.073-.075c0-.026 0-.05-.006-.076s0-.051-.008-.076-.007-.054-.012-.08v-.022c0-.018-.006-.036-.009-.054l-.017-.083-.02-.084-.022-.086-.024-.084c-.008-.027-.017-.057-.027-.084l-.017-.048v-.006c0-.009-.006-.018-.01-.028l-.029-.077-.032-.078-.034-.078-.035-.078-.038-.078-.054-.106c-.03-.055-.061-.11-.094-.164s-.065-.105-.1-.156-.057-.084-.087-.124l-.033-.045-.007-.009-.03-.04-.059-.073-.06-.07-.062-.067-.062-.065-.066-.065-.047-.044-.016-.015-.07-.061c-.022-.019-.045-.038-.069-.056l-.071-.054c-.024-.017-.046-.034-.07-.049l-.069-.045c-.022-.015-.046-.03-.07-.043l-.016-.009-6.574-3.8a2.391 2.391 0 0 1-.312-.216l-.008-.007a2.984 2.984 0 0 1-.287-.268l-.005-.005a3.59 3.59 0 0 1-.264-.317 3.78 3.78 0 0 1-.228-.347l-.01-.018a3.622 3.622 0 0 1-.184-.364v-.005a3.61 3.61 0 0 1-.142-.384v-.005a2.977 2.977 0 0 1-.089-.387 2.283 2.283 0 0 1-.032-.381l.1-35.989v-.168c0-.056 0-.12-.008-.181s-.009-.121-.015-.182l-.02-.183c-.007-.061-.016-.125-.026-.187v-.008c-.009-.06-.019-.12-.031-.181s-.025-.129-.04-.195l-.045-.2c-.016-.07-.033-.132-.052-.2l-.044-.153v-.012c0-.011-.005-.021-.009-.032-.02-.064-.04-.128-.062-.193s-.043-.127-.066-.19l-.069-.183-.073-.18-.058-.136v-.01l-.014-.032c-.026-.061-.054-.12-.082-.18l-.095-.2c-.032-.069-.076-.149-.116-.223s-.087-.157-.132-.235l-.023-.042-.029-.051c-.089-.15-.181-.3-.278-.442-.075-.113-.151-.222-.232-.33-.053-.073-.109-.145-.164-.216s-.1-.118-.144-.177-.1-.113-.143-.167-.1-.108-.145-.16l-.027-.029-.012-.012-.113-.119c-.051-.052-.1-.1-.157-.154s-.109-.1-.163-.152-.11-.1-.165-.144c-.027-.024-.056-.046-.083-.068l-.019-.015c-.021-.017-.042-.036-.064-.052-.053-.042-.108-.084-.163-.125s-.107-.078-.161-.114-.1-.071-.158-.1-.1-.065-.157-.1l-.036-.021-22.4-12.936-.119-.066q-.077-.042-.153-.08l-.1-.046-.022-.011-.029-.014-.15-.063c-.05-.02-.1-.039-.149-.056l-.025-.009-.023-.007-.1-.033c-.051-.016-.1-.03-.154-.043-.024-.007-.049-.011-.073-.017l-.031-.007-.048-.011c-.054-.011-.109-.02-.162-.027l-.1-.009h-.066c-.06 0-.119-.006-.175-.006h-.193a2.012 2.012 0 0 0-.215.031c-.017 0-.031.009-.049.013a1.854 1.854 0 0 0-.208.057l-.015.008a1.779 1.779 0 0 0-.287.132l-12.443 7.231a1.788 1.788 0 0 1 .285-.132 1.765 1.765 0 0 1 .224-.064c.016 0 .032-.011.048-.014a2.007 2.007 0 0 1 .278-.034h.059a2.373 2.373 0 0 1 .283.005h.034a2.762 2.762 0 0 1 .309.048l.032.007c.107.024.216.055.328.091l.022.008q.175.06.354.142l.022.01c.122.057.245.12.37.192l22.406 12.936a5.769 5.769 0 0 1 .741.513l.018.015a7.231 7.231 0 0 1 .682.638l.012.013a8.178 8.178 0 0 1 .625.753 8.921 8.921 0 0 1 .538.822l.024.042a8.88 8.88 0 0 1 .437.865l.005.013a8.022 8.022 0 0 1 .337.914v.013a6.985 6.985 0 0 1 .212.921 5.614 5.614 0 0 1 .073.906l-.1 35.989V415.108c0 .025 0 .051.005.076l.009.077c0 .027.008.053.012.079 0 .025.008.049.014.074s.011.054.016.081.013.055.02.083l.022.084.019.065v.012c.008.027.016.054.026.081l.027.08c.009.027.02.051.03.076l.031.076.025.059.005.012c.01.025.022.051.034.076l.04.083.049.094c.017.031.036.067.056.1l.01.017.012.021c.036.063.076.124.116.186s.066.1.1.142c.023.031.047.062.071.091l.06.075.061.071.061.068.012.011.005.006.047.049.066.065.069.064.07.061.036.028.008.007.027.022.069.053.068.048.066.044.067.041.015.009 6.574 3.8a2.572 2.572 0 0 1 .451.334 3.281 3.281 0 0 1 .385.424l.006.009a3.736 3.736 0 0 1 .314.49 3.758 3.758 0 0 1 .232.524v.006a3.052 3.052 0 0 1 .136.521v.005a2.272 2.272 0 0 1 .031.493 1.173 1.173 0 0 1-.3.775l-23.173 23.416a.788.788 0 0 1-.158.124l12.443-7.232a.736.736 0 0 0 .16-.124l23.172-23.416a.933.933 0 0 0 .117-.146 1.008 1.008 0 0 0 .061-.11c.014-.028.026-.057.037-.086s.02-.057.029-.087l.02-.075.016-.077c.005-.026.008-.048.011-.073l.007-.072c.002-.024 0-.032 0-.049v-.024c-.016-.005-.016-.027-.016-.051z" class="cls-3" transform="translate(-1339.726 -351.862)"/>
            </g>
            <g id="Grupo_2088" transform="translate(0 7.231)">
                <path id="Caminho_247" d="M1367.63 377.576a8.185 8.185 0 0 1 3.712 6.434l-.1 35.989a3.448 3.448 0 0 0 1.564 2.709l6.574 3.8c1.28.739 2.016 2.83 1.264 3.589l-23.173 23.416a1.018 1.018 0 0 1-1.276.011 3.335 3.335 0 0 1-1.272-1.482l-22.963-50.053c-.746-1.624 0-2.86 1.279-2.12l6.574 3.8c.866.5 1.571.1 1.574-.9l.1-35.988c.007-2.367 1.68-3.322 3.736-2.134z" class="cls-10" transform="translate(-1331.661 -364.129)"/>
            </g>
        </g>
    </g>
</svg>
