<svg xmlns="http://www.w3.org/2000/svg" xmlns:xlink="http://www.w3.org/1999/xlink" width="272.35" height="273.624" viewBox="0 0 272.35 273.624">
    <defs>
        <linearGradient id="linear-gradient" x1="-.002" x2="1.002" y1=".5" y2=".5" gradientUnits="objectBoundingBox">
            <stop offset="0" stop-color="#4f52ff"/>
            <stop offset="1" stop-color="#4042e2"/>
        </linearGradient>
        <linearGradient id="linear-gradient-2" x1="1.13" x2=".236" y1="1.295" y2=".19" gradientUnits="objectBoundingBox">
            <stop offset="0" stop-color="#dae3fe"/>
            <stop offset="1" stop-color="#e9effd"/>
        </linearGradient>
        <linearGradient id="linear-gradient-3" x1="0" x2="1" y1=".5" y2=".5" xlink:href="#linear-gradient-2"/>
        <linearGradient id="linear-gradient-7" x1="-.651" x2="-.428" y1=".932" y2="-.163" gradientUnits="objectBoundingBox">
            <stop offset="0" stop-color="#09005d"/>
            <stop offset="1" stop-color="#1a0f91"/>
        </linearGradient>
        <linearGradient id="linear-gradient-8" x1=".497" x2=".515" y1=".841" y2="-1.504" xlink:href="#linear-gradient-7"/>
        <linearGradient id="linear-gradient-9" x1="-15.535" x2="-14.877" y1=".417" y2="1.226" xlink:href="#linear-gradient-7"/>
        <linearGradient id="linear-gradient-10" x1=".27" x2="1.344" y1="-.321" y2="4.24" xlink:href="#linear-gradient-7"/>
        <linearGradient id="linear-gradient-11" x1="-15.074" x2="-13.714" y1=".26" y2="1.995" xlink:href="#linear-gradient-7"/>
        <linearGradient id="linear-gradient-12" x1=".666" x2=".449" y1="-1.553" y2="1.191" xlink:href="#linear-gradient-7"/>
        <linearGradient id="linear-gradient-13" x1="-14.928" x2="-14.75" y1="-.473" y2=".954" xlink:href="#linear-gradient-7"/>
        <linearGradient id="linear-gradient-14" x1="-120.373" x2="-121.846" y1="2.058" y2="-.895" gradientUnits="objectBoundingBox">
            <stop offset="0" stop-color="#febbba"/>
            <stop offset="1" stop-color="#ff928e"/>
        </linearGradient>
        <linearGradient id="linear-gradient-15" x1="-12.044" x2="-12.139" y1="-5.442" y2="-3.888" xlink:href="#linear-gradient"/>
        <linearGradient id="linear-gradient-16" x1="-12.826" x2="-12.914" y1="-60.501" y2="-45.739" xlink:href="#linear-gradient"/>
        <linearGradient id="linear-gradient-17" x1="-62.546" x2="-61.399" y1="4.137" y2="3.383" xlink:href="#linear-gradient"/>
        <linearGradient id="linear-gradient-19" x1="0" x2="1" y1=".5" y2=".5" xlink:href="#linear-gradient"/>
        <linearGradient id="linear-gradient-172" x1="0" x2="1" y1=".5" y2=".5" xlink:href="#linear-gradient"/>
        <linearGradient id="linear-gradient-173" x1="-38.144" x2="-43.456" y1="2.847" y2="3.986" xlink:href="#linear-gradient"/>
        <linearGradient id="linear-gradient-174" x1="-72.783" x2="-78.08" y1="2.821" y2="3.384" xlink:href="#linear-gradient"/>
        <linearGradient id="linear-gradient-175" x1="2.045" x2="5.453" y1="-.556" y2="-2.782" xlink:href="#linear-gradient"/>
        <clipPath id="clip-path">
            <rect id="Retângulo_672" width="1.8" height="1.08" class="cls-1" rx=".54" transform="rotate(-4.614 1.8 .072)"/>
        </clipPath>
        <style>
            .cls-1{fill:url(#linear-gradient)}.cls-3{opacity:.3}.cls-4{fill:#bdd0fb}.cls-5{fill:url(#linear-gradient-3)}.cls-6{fill:#fff;mix-blend-mode:soft-light;isolation:isolate}.cls-7{fill:#91b3fa}.cls-19{fill:#c2cfff}.cls-21{fill:#fbdcc3}.cls-23{fill:#dbb294}.cls-28{fill:#4b3162}.cls-31{fill:url(#linear-gradient-19)}
        </style>
    </defs>
    <g id="Grupo_2122" transform="translate(-448.088 -448.518)">
        <path id="Caminho_253" fill="url(#linear-gradient-2)" d="M703.594 690.136a98.449 98.449 0 0 1-15.065 12.684c-49.144 35.262-107.295 24.983-119.653 22.473-18.25-3.707-53.526-10.872-79.031-40.864-38.586-45.376-32.578-116.865-2.648-164.056 5.475-8.632 34.393-56.542 93.17-64.225 35.571-4.65 77.036 4.728 107.063 29.885 63.031 52.807 58.544 159.486 16.164 204.103z" transform="translate(-14.725 -6.482)"/>
        <g id="Grupo_2103" transform="translate(549.937 491.24)">
            <g id="Grupo_2098" transform="translate(30.808)">
                <g id="Grupo_2095" class="cls-3" transform="translate(3.587)">
                    <path id="Caminho_254" d="M1889.61 850.231a.783.783 0 0 1-.183-1.031c.467-.751.974-1.492 1.506-2.2a.783.783 0 0 1 1.1-.158l.012.009a.783.783 0 0 1 .146 1.087c-.506.676-.987 1.381-1.431 2.094a.783.783 0 0 1-1.078.251.744.744 0 0 1-.072-.052zm4.228-5.352a.766.766 0 0 1-.07-.061.783.783 0 0 1-.007-1.107c.624-.632 1.281-1.244 1.953-1.818a.783.783 0 1 1 1.017 1.19c-.639.546-1.263 1.127-1.856 1.728a.783.783 0 0 1-1.037.068zm5.3-4.288a.783.783 0 0 1 .06-1.278c.747-.476 1.525-.926 2.311-1.337a.783.783 0 1 1 .725 1.388c-.746.39-1.484.817-2.194 1.27a.783.783 0 0 1-.901-.043zm6.128-3a.783.783 0 0 1 .219-1.355c.836-.3 1.694-.562 2.552-.787a.783.783 0 1 1 .4 1.515c-.814.214-1.63.465-2.424.748a.782.782 0 0 1-.746-.117zm6.642-1.554a.783.783 0 0 1 .389-1.4c.878-.1 1.774-.172 2.661-.2a.783.783 0 1 1 .053 1.565c-.844.028-1.694.093-2.53.192a.78.78 0 0 1-.571-.153zm6.82-.046a.783.783 0 0 1 .562-1.4c.881.093 1.77.225 2.64.392a.783.783 0 0 1-.3 1.538c-.827-.159-1.671-.284-2.508-.372a.778.778 0 0 1-.392-.149zm23.788 16.145a.78.78 0 0 1-.212-.254c-.391-.745-.819-1.483-1.274-2.193a.783.783 0 0 1 1.319-.844c.479.748.93 1.525 1.342 2.309a.783.783 0 0 1-1.175.982zm-17.132-14.679a.783.783 0 0 1 .734-1.359c.839.286 1.675.613 2.486.97a.783.783 0 1 1-.631 1.433c-.77-.339-1.564-.649-2.361-.921a.784.784 0 0 1-.226-.119zm13.3 9.035a.775.775 0 0 1-.114-.109c-.548-.639-1.131-1.263-1.732-1.854a.783.783 0 1 1 1.1-1.117c.633.622 1.246 1.279 1.823 1.951a.783.783 0 0 1-1.074 1.128zm-7.141-6.119a.783.783 0 0 1 .894-1.283c.752.466 1.495.971 2.206 1.5l.013.01a.783.783 0 0 1-.949 1.246c-.676-.5-1.381-.983-2.1-1.426l-.059-.043z" class="cls-4" transform="translate(-1889.308 -834.443)"/>
                    <path id="Caminho_255" d="M2461.83 1048.408a.778.778 0 0 1-.266-.385c-.12-.385-.25-.775-.386-1.157a.783.783 0 1 1 1.475-.526c.144.4.281.812.407 1.217a.783.783 0 0 1-1.229.85z" class="cls-4" transform="translate(-2406.517 -1025.632)"/>
                </g>
                <g id="Grupo_2096" class="cls-3" transform="translate(0 38.207)">
                    <path id="Caminho_256" d="M2440.837 1297.835a.783.783 0 0 1-.205-.994c.194-.354.385-.717.565-1.081a.783.783 0 1 1 1.4.7c-.19.383-.391.766-.595 1.138a.783.783 0 0 1-1.063.309.761.761 0 0 1-.102-.072z" class="cls-4" transform="translate(-2384.301 -1289.513)"/>
                    <path id="Caminho_257" d="M1880.229 1300.6q-.427-.332-.845-.681a.783.783 0 0 1 1-1.2c.644.537 1.308 1.046 1.981 1.519a.783.783 0 1 1-.9 1.282c-.414-.293-.83-.601-1.236-.92zm-3.832-3.538a.8.8 0 0 1-.1-.091c-.589-.645-1.157-1.322-1.689-2.012a.783.783 0 1 1 1.24-.955c.505.656 1.045 1.3 1.6 1.912a.783.783 0 0 1-1.058 1.146zm8.6 6.582a.783.783 0 0 1 .84-1.314c.735.379 1.5.73 2.264 1.046a.783.783 0 1 1-.6 1.448c-.808-.332-1.61-.7-2.385-1.1a.8.8 0 0 1-.116-.077zm-12.554-12.007a.782.782 0 0 1-.2-.23c-.433-.758-.838-1.543-1.205-2.335a.783.783 0 0 1 1.42-.659c.348.751.734 1.5 1.145 2.217a.783.783 0 0 1-1.161 1.006zm18.823 14.4a.783.783 0 0 1 .677-1.376c.8.207 1.621.383 2.439.523a.783.783 0 0 1-.263 1.543c-.861-.147-1.725-.332-2.568-.55a.779.779 0 0 1-.287-.141zm6.641.956a.783.783 0 0 1 .506-1.4c.829.027 1.668.02 2.5-.022a.783.783 0 1 1 .079 1.564c-.87.044-1.754.052-2.626.023a.779.779 0 0 1-.461-.166zm6.691-.515a.783.783 0 0 1 .336-1.387c.816-.154 1.634-.344 2.431-.565a.783.783 0 1 1 .418 1.509c-.839.232-1.7.432-2.558.594a.781.781 0 0 1-.625-.152zm6.419-1.962a.783.783 0 0 1 .171-1.336c.762-.328 1.518-.693 2.248-1.084a.783.783 0 1 1 .739 1.38c-.769.411-1.565.8-2.367 1.141a.783.783 0 0 1-.793-.102zm5.834-3.324a.783.783 0 0 1 .02-1.251c.669-.487 1.326-1.009 1.953-1.552a.783.783 0 0 1 1.025 1.184c-.66.571-1.352 1.121-2.056 1.634a.784.784 0 0 1-.944-.016zm4.958-4.522l-.037-.031a.783.783 0 0 1-.07-1.1c.4-.458.8-.934 1.171-1.415l.4-.525a.783.783 0 0 1 1.1-.161.774.774 0 0 1 .161 1.1q-.206.278-.42.553c-.393.506-.808 1.006-1.232 1.488a.783.783 0 0 1-1.075.09z" class="cls-4" transform="translate(-1869.13 -1282.855)"/>
                    <path id="Caminho_258" d="M1852.4 1237.082a.78.78 0 0 1-.267-.388c-.124-.405-.242-.821-.35-1.235a.783.783 0 1 1 1.515-.4c.1.394.215.788.333 1.173a.783.783 0 0 1-1.23.846z" class="cls-4" transform="translate(-1851.753 -1234.477)"/>
                </g>
                <g id="Grupo_2097" transform="translate(6.929 7.565)">
                    <path id="Caminho_259" d="M1924.423 940.379a.366.366 0 0 0 .255.34l4.243 1.353a19.4 19.4 0 0 0 2.538 5.75l-1.856 4.045a.366.366 0 0 0 .08.417l3.864 3.688a.366.366 0 0 0 .42.061l3.955-2.042a19.4 19.4 0 0 0 5.862 2.267l1.549 4.175a.366.366 0 0 0 .352.239l5.341-.125a.365.365 0 0 0 .34-.254l1.354-4.243a19.4 19.4 0 0 0 5.75-2.538l4.046 1.856a.366.366 0 0 0 .417-.08l3.688-3.864a.366.366 0 0 0 .06-.42l-2.042-3.955a19.4 19.4 0 0 0 2.267-5.862l4.176-1.55a.366.366 0 0 0 .238-.351l-.125-5.341a.365.365 0 0 0-.255-.34l-4.243-1.354a19.4 19.4 0 0 0-2.538-5.75l1.856-4.045a.366.366 0 0 0-.08-.417l-3.864-3.688a.366.366 0 0 0-.421-.06l-3.955 2.042a19.4 19.4 0 0 0-5.862-2.268l-1.549-4.175a.366.366 0 0 0-.352-.239l-5.341.125a.366.366 0 0 0-.34.255l-1.353 4.243a19.4 19.4 0 0 0-5.75 2.538l-4.046-1.856a.366.366 0 0 0-.417.08L1929 922.9a.366.366 0 0 0-.06.421l2.042 3.955a19.406 19.406 0 0 0-2.268 5.862l-4.176 1.549a.366.366 0 0 0-.239.352z" class="cls-4" transform="translate(-1924.299 -913.651)"/>
                    <path id="Caminho_260" d="M2116.324 1113.215a5.373 5.373 0 1 1 .656.437 5.378 5.378 0 0 1-.656-.437zm5.835-7.481a4.168 4.168 0 0 0-.508-.339 4.1 4.1 0 1 0 .508.339z" class="cls-5" transform="translate(-2096.113 -1085.466)"/>
                    <path id="Caminho_261" d="M2041.525 1045.156a13.462 13.462 0 0 1-1.028-.886q-.156-.148-.307-.3a13.311 13.311 0 0 1-1.357-1.621l-.017-.023-.047-.067-.09-.131a.313.313 0 1 1 .518-.352 12.591 12.591 0 0 0 13.438 5.15 12.5 12.5 0 0 0 6.075-3.521 12.769 12.769 0 0 0 .846-.98 12.578 12.578 0 1 0-22.211-10.485.308.308 0 0 1-.058.123.313.313 0 0 1-.552-.261 13.166 13.166 0 0 1 2.452-5.181 13.206 13.206 0 0 1 19.544-1.451 13.207 13.207 0 0 1 1.322 17.639 13.491 13.491 0 0 1-.887 1.029 13.206 13.206 0 0 1-17.64 1.321z" class="cls-5" transform="translate(-2025.989 -1011.219)"/>
                </g>
            </g>
            <g id="Grupo_2102" transform="translate(0 1.89)">
                <g id="Grupo_2099" class="cls-3" transform="translate(.753)">
                    <path id="Caminho_262" d="M1537.262 979.775a.483.483 0 0 1-.153-.559c.151-.382.315-.764.488-1.137a.484.484 0 1 1 .877.408c-.165.355-.322.72-.465 1.084a.483.483 0 0 1-.747.2z" class="cls-4" transform="translate(-1537.076 -965.998)"/>
                    <path id="Caminho_263" d="M1554.819 864.689a.483.483 0 0 1-.112-.638 21.041 21.041 0 0 1 1.219-1.743q.137-.176.279-.35a.5.5 0 0 1 .68-.071.484.484 0 0 1 .071.68q-.135.167-.266.335a20.074 20.074 0 0 0-1.163 1.663.484.484 0 0 1-.667.153zm3.166-3.9a.468.468 0 0 1-.052-.046.484.484 0 0 1 .013-.684 20.982 20.982 0 0 1 1.96-1.669.484.484 0 0 1 .581.774 20.019 20.019 0 0 0-1.869 1.592.484.484 0 0 1-.633.036zm4.017-3.013a.489.489 0 0 1-.123-.142.484.484 0 0 1 .18-.66 20.888 20.888 0 0 1 2.311-1.137.484.484 0 0 1 .372.893 19.863 19.863 0 0 0-2.2 1.084.484.484 0 0 1-.542-.035zm4.634-1.933a.483.483 0 0 1 .168-.847 20.966 20.966 0 0 1 2.518-.536.484.484 0 0 1 .142.957 19.962 19.962 0 0 0-2.4.511.483.483 0 0 1-.428-.082zm4.966-.742a.484.484 0 0 1 .284-.865 21.157 21.157 0 0 1 2.572.091.484.484 0 1 1-.093.963 20.171 20.171 0 0 0-2.454-.087.483.483 0 0 1-.311-.103zm4.995.485a.484.484 0 0 1 .4-.854 20.846 20.846 0 0 1 2.471.716.484.484 0 0 1-.326.911 19.846 19.846 0 0 0-2.356-.682.48.48 0 0 1-.186-.088zm4.724 1.691a.484.484 0 0 1 .515-.813 20.96 20.96 0 0 1 2.221 1.3.484.484 0 0 1-.54.8 19.893 19.893 0 0 0-2.118-1.241.48.48 0 0 1-.079-.043zm5.963 4.562a.479.479 0 0 1-.062-.058 20.066 20.066 0 0 0-1.513-1.507c-.08-.072-.16-.143-.24-.212a.484.484 0 0 1-.049-.682.479.479 0 0 1 .682-.05c.085.074.17.148.254.225a21 21 0 0 1 1.585 1.578.484.484 0 0 1-.656.706z" class="cls-4" transform="translate(-1552.956 -854.232)"/>
                </g>
                <g id="Grupo_2100" class="cls-3" transform="translate(0 25.578)">
                    <path id="Caminho_264" d="M1548.723 1166.968a.484.484 0 0 1 .589-.767 20.024 20.024 0 0 0 2.009 1.339.484.484 0 1 1-.486.836 21.046 21.046 0 0 1-2.106-1.4zm-1.879-1.609a.461.461 0 0 1-.04-.034 21.158 21.158 0 0 1-1.712-1.865.484.484 0 0 1 .75-.61 20.232 20.232 0 0 0 1.634 1.78.484.484 0 0 1-.632.73zm6.147 4.092a.484.484 0 0 1 .487-.826 20.043 20.043 0 0 0 2.274.813.484.484 0 0 1-.27.929 21.009 21.009 0 0 1-2.384-.853.487.487 0 0 1-.107-.063zm-9.26-7.928a.485.485 0 0 1-.113-.125 20.683 20.683 0 0 1-1.212-2.225.484.484 0 1 1 .876-.41 19.848 19.848 0 0 0 1.155 2.121.484.484 0 0 1-.707.638zm14 9.3a.484.484 0 0 1 .374-.859 19.931 19.931 0 0 0 2.4.243.484.484 0 0 1-.039.967 21.043 21.043 0 0 1-2.519-.254.482.482 0 0 1-.215-.092zm4.933.2a.484.484 0 0 1 .258-.864 20.2 20.2 0 0 0 2.392-.339.484.484 0 0 1 .193.948 21.157 21.157 0 0 1-2.507.355.482.482 0 0 1-.335-.095zm4.84-.988a.478.478 0 0 1-.161-.228.483.483 0 0 1 .305-.612 19.8 19.8 0 0 0 2.241-.9.484.484 0 0 1 .415.873 20.853 20.853 0 0 1-2.35.947.483.483 0 0 1-.454-.075z" class="cls-4" transform="translate(-1541.102 -1155.004)"/>
                    <path id="Caminho_265" d="M1529.718 1124.061a.482.482 0 0 1-.163-.232c-.128-.393-.245-.793-.348-1.186a.484.484 0 1 1 .936-.245c.1.375.21.756.332 1.132a.484.484 0 0 1-.757.531z" class="cls-4" transform="translate(-1529.192 -1122.037)"/>
                </g>
                <g id="Grupo_2101" transform="translate(4.596 5.033)">
                    <path id="Caminho_266" d="M1577.4 924.814a.245.245 0 0 0 .17.228l2.839.906a12.986 12.986 0 0 0 1.7 3.848l-1.242 2.707a.244.244 0 0 0 .054.279l2.586 2.468a.245.245 0 0 0 .281.04l2.646-1.366a12.984 12.984 0 0 0 3.923 1.517l1.037 2.794a.245.245 0 0 0 .235.16l3.574-.083a.245.245 0 0 0 .228-.17l.906-2.839a12.98 12.98 0 0 0 3.848-1.7l2.707 1.242a.245.245 0 0 0 .279-.054l2.468-2.586a.245.245 0 0 0 .041-.281l-1.366-2.646a12.975 12.975 0 0 0 1.517-3.923l2.794-1.037a.245.245 0 0 0 .16-.235l-.083-3.574a.245.245 0 0 0-.17-.227l-2.839-.906a12.982 12.982 0 0 0-1.7-3.848l1.241-2.707a.245.245 0 0 0-.053-.279l-2.586-2.468a.245.245 0 0 0-.281-.04l-2.646 1.366a12.979 12.979 0 0 0-3.923-1.517l-1.037-2.794a.245.245 0 0 0-.235-.16l-3.574.083a.245.245 0 0 0-.227.17l-.906 2.839a12.981 12.981 0 0 0-3.848 1.7l-2.707-1.242a.245.245 0 0 0-.279.054l-2.468 2.586a.245.245 0 0 0-.04.281l1.366 2.646a12.976 12.976 0 0 0-1.517 3.923l-2.794 1.037a.245.245 0 0 0-.16.235z" class="cls-4" transform="translate(-1577.316 -906.929)"/>
                    <path id="Caminho_267" d="M1705.135 1039.9a3.666 3.666 0 1 1 .451.3 3.738 3.738 0 0 1-.451-.3zm3.906-5.005a2.73 2.73 0 0 0-.329-.219 2.691 2.691 0 0 0-2.65 4.684 2.691 2.691 0 0 0 2.979-4.465z" class="cls-5" transform="translate(-1691.654 -1021.289)"/>
                    <path id="Caminho_268" d="M1652.988 992.5a9.189 9.189 0 0 1-1.908-2.016l-.047-.069a.484.484 0 0 1 .018-.568.49.49 0 0 1 .111-.1.484.484 0 0 1 .671.129 8.166 8.166 0 0 0 1.121 1.323l.069.065a8.063 8.063 0 0 0 3.492 1.926 8.182 8.182 0 0 0 2.177.261h.073a8.091 8.091 0 0 0 5.7-2.518 8.238 8.238 0 0 0 .547-.634 8.143 8.143 0 1 0-14.379-6.788.484.484 0 1 1-.943-.213 9.088 9.088 0 0 1 1.691-3.574q.284-.364.6-.7a9.11 9.11 0 0 1 13.792 11.869 9.307 9.307 0 0 1-.612.71 9.122 9.122 0 0 1-12.173.897z" class="cls-5" transform="translate(-1642.768 -969.579)"/>
                </g>
            </g>
        </g>
        <g id="Grupo_2104" transform="translate(648.361 472.772)">
            <path id="Caminho_269" d="M2626.443 642.624c.381-1.076-1.092-1.981-2.129-1.314-10.523 6.774-36.318 27.688-35.036 69.329 1.608 52.245-12.865 69.654-29.571 79.408 0 0 21.808-3.055 37.249-20.637 37.91-43.169 22.715-107.651 29.487-126.786z" class="cls-4" transform="translate(-2559.707 -641.082)"/>
            <path id="Caminho_270" d="M2687.368 813.264c-1.838 5.595-3.546 11.221-5.013 16.9q-2.251 8.506-3.893 17.129c-1.066 5.75-2.007 11.519-2.662 17.322-.685 5.8-1.081 11.626-1.454 17.478a158.543 158.543 0 0 1-1.862 17.595 52.451 52.451 0 0 1-6.033 16.954c-.767 1.321-1.566 2.634-2.448 3.891-.855 1.272-1.776 2.51-2.723 3.733a63.271 63.271 0 0 1-6.31 6.938 69.559 69.559 0 0 1-15.82 11.045 1.454 1.454 0 0 1-1.8-.408 1.03 1.03 0 0 1 .381-1.534c1.391-.765 2.769-1.543 4.1-2.373.674-.406 1.324-.837 1.984-1.257.64-.442 1.3-.861 1.924-1.32a63.107 63.107 0 0 0 18.121-19.875 51.166 51.166 0 0 0 3.633-7.9 56.321 56.321 0 0 0 2.251-8.352 156.707 156.707 0 0 0 1.981-17.348c.469-5.842.986-11.708 1.782-17.539q.583-4.374 1.348-8.723c.245-1.451.522-2.9.8-4.341q.436-2.164.9-4.322 1.9-8.626 4.414-17.115c1.709-5.647 3.591-11.248 5.723-16.77a.357.357 0 0 1 .444-.181.308.308 0 0 1 .232.373z" class="cls-6" transform="translate(-2629.751 -796.461)"/>
        </g>
        <g id="Grupo_2106" transform="translate(652.791 481.761)">
            <g id="Grupo_2105">
                <path id="Caminho_271" d="M2620.6 871.99a2.96 2.96 0 0 0 4.883.548 90.243 90.243 0 0 0 19.267-75.067c-6.136-33.243-6.3-51.852-5.8-60.3a1.855 1.855 0 0 0-3.277-1.3c-12.667 15.158-49.923 68.407-15.073 136.119z" class="cls-7" transform="translate(-2606.09 -735.197)"/>
                <path id="Caminho_272" d="M2783.214 1236.273a.8.8 0 0 0 .148.056.821.821 0 0 0 1.007-.577c.135-.5 13.389-50.108 6.946-96.715a.821.821 0 1 0-1.626.225c6.4 46.268-6.77 95.568-6.9 96.06a.821.821 0 0 0 .425.951z" class="cls-6" transform="translate(-2765.884 -1099.826)"/>
            </g>
        </g>
        <g id="Grupo_2110" transform="translate(451.401 522.642)">
            <g id="Grupo_2108">
                <path id="Caminho_273" fill="url(#linear-gradient-7)" d="M658.135 1303.6a4.14 4.14 0 0 0 4.13 4.126H885.61a4.14 4.14 0 0 0 4.13-4.126l1.859-128.35a7.193 7.193 0 0 0-7.574-6.367l-218.277-5.648a10.408 10.408 0 0 0-10.68 10.645z" transform="translate(-640.017 -1163.229)"/>
                <path id="Caminho_274" d="M700.417 1345.99a3.919 3.919 0 0 0 3.908 3.907h214.1a3.919 3.919 0 0 0 3.907-3.907l1.754-116.517c-.207-7.012-6.354-9.532-10.08-9.383l-209.2-5.613a7.315 7.315 0 0 0-7.5 7.485z" class="cls-7" transform="translate(-678.221 -1209.58)"/>
                <g id="Grupo_2107" transform="translate(166.453 10.983)">
                    <path id="Caminho_275" d="M3024.185 1911.929h-.008a.53.53 0 0 1-.522-.538l.139-9.449a.544.544 0 0 1 .537-.521.529.529 0 0 1 .522.537l-.138 9.449a.53.53 0 0 1-.53.522z" class="cls-7" transform="translate(-2948.837 -1841.899)"/>
                    <path id="Caminho_276" d="M2315.982 1325.093h-.008a.53.53 0 0 1-.522-.538l.531-36.191a6.836 6.836 0 0 0-1.953-5.121c-2.4-2.3-6.2-2.177-6.36-2.172l-66.862-1.793a.529.529 0 0 1 .014-1.059h.015l66.825 1.793c.415-.019 4.43-.093 7.1 2.466a7.865 7.865 0 0 1 2.279 5.892l-.532 36.2a.53.53 0 0 1-.527.523z" class="cls-7" transform="translate(-2240.294 -1278.219)"/>
                </g>
                <path id="Retângulo_670" fill="url(#linear-gradient-8)" d="M2.62 0H260.7a2.619 2.619 0 0 1 2.619 2.619v6.039a2.619 2.619 0 0 1-2.619 2.619H2.619A2.619 2.619 0 0 1 0 8.658V2.62A2.62 2.62 0 0 1 2.62 0z" transform="rotate(180 131.657 77.575)"/>
                <path id="Caminho_277" fill="#7d97f4" d="M1057.917 1529.576H891.9a10.062 10.062 0 0 1-10.062-10.062v-80.63a10.062 10.062 0 0 1 10.225-10.061l166.016 2.69a10.062 10.062 0 0 1 9.9 10.061v77.94a10.062 10.062 0 0 1-10.062 10.062z" transform="translate(-845.131 -1403.455)"/>
            </g>
            <g id="Grupo_2109" transform="translate(93.548 37.798)">
                <path id="Caminho_278" d="M1512.457 1629.955a35.486 35.486 0 1 1 35.486-35.486 35.526 35.526 0 0 1-35.486 35.486zm0-65.025a29.539 29.539 0 1 0 29.543 29.539 29.573 29.573 0 0 0-29.543-29.539z" class="cls-4" transform="translate(-1476.971 -1558.983)"/>
                <path id="Caminho_279" fill="#fff" fill-rule="evenodd" d="M1732.124 1798.654v-25.512a3.517 3.517 0 0 1 5.312-3.024l21.5 12.756a3.517 3.517 0 0 1 0 6.049l-21.5 12.756a3.517 3.517 0 0 1-5.312-3.025z" transform="translate(-1707.754 -1749.502)"/>
            </g>
            <path id="Caminho_280" fill="#fff" d="M1194.993 2439.436h-160.077a2.875 2.875 0 0 1-2.956-2.788 2.843 2.843 0 0 1 2.817-2.788h160.077a2.915 2.915 0 0 1 3.095 2.788 2.875 2.875 0 0 1-2.956 2.788z" opacity="0.58" transform="translate(-980.914 -2312.503)"/>
            <path id="Caminho_281" fill="#ffacc6" d="M1100.805 2439.436h-66.057a2.788 2.788 0 1 1 0-5.576h66.057a2.788 2.788 0 1 1 0 5.576z" transform="translate(-980.914 -2312.503)"/>
            <circle id="Elipse_25" cx="5.505" cy="5.505" r="5.505" fill="#fa5e83" transform="rotate(-45 205.432 -73.684)"/>
        </g>
        <g id="Grupo_2121" transform="translate(598.721 592.29)">
            <g id="Grupo_2113">
                <path id="Caminho_288" fill="#5a90ce" d="M2297.7 2066.17s10.6 5.873 11.479 15.813.073 51.194-21.186 61.348-49.4 7.814-60.17 6.7-16.743-8.43-18.078-13.471-3.489-23.815 7.842-29.872 23.232-15.335 35.124-24.37 32.27-23.779 44.989-16.148z" transform="translate(-2192.538 -2047.661)"/>
                <path id="Caminho_289" fill="url(#linear-gradient-9)" d="M2218.357 2546.391s2.861.151 3.212 6.038a34 34 0 0 1-15.6 7.364c-.673.106.941-4.593 1.183-5.23 1.158-3.029 4.793-4.98 11.205-8.172z" transform="translate(-2189.969 -2483.934)"/>
                <path id="Caminho_290" fill="url(#linear-gradient-10)" d="M2292.407 2260.532h-6.038s-18.533-20.468-30.688-22.533c0 0-8.461 10.8.451 30.981a2.945 2.945 0 0 0 4.218 1.389 2.415 2.415 0 0 0 .964-1.148l-.717-17.231s15.808 13.826 18.556 16.495 16.715 1.041 13.254-7.953z" transform="translate(-2231.795 -2204.996)"/>
                <path id="Caminho_291" fill="url(#linear-gradient-11)" d="M2062.7 2872.537a22.7 22.7 0 0 1 12.382-5.419l1.969 1.2a21.457 21.457 0 0 1-3.548 3.807c-2.107 1.224-5.361 2.882-8.059 3.241-2.62.353-3.006-1.232-2.744-2.829z" transform="translate(-2060.467 -2774.028)"/>
                <path id="Caminho_292" d="M2195.59 2603.227c1.559.5 2.244 2.713 6.2 1.253a35 35 0 0 0 8.135-4.286c.032.285.06.583.079.9 0 0-7 6.654-15.958 8.07a.892.892 0 0 1-.964-1.2 22.518 22.518 0 0 1 2.508-4.737z" class="cls-19" transform="translate(-2178.404 -2532.598)"/>
                <path id="Caminho_293" d="M2040.293 2921.883a20.859 20.859 0 0 1 1.906-1.894c-.266 1.6.12 3.183 2.743 2.833 2.7-.359 5.952-2.017 8.059-3.241a17.421 17.421 0 0 1-11.732 4.5 1.33 1.33 0 0 1-.976-2.198z" class="cls-19" transform="translate(-2039.963 -2821.481)"/>
                <path id="Caminho_294" fill="url(#linear-gradient-12)" d="M2223.548 2519.661l-28.276.306s-16.148 13.36-19.077 33.732c0 0-.486 1.5 2.433 1.754a56.049 56.049 0 0 0 16.128-17.65c7.805-13.823 23.269-7.6 23.269-7.6 5.081-3.664 12.26-4.409 17.669-5.629z" transform="translate(-2163.156 -2459.756)"/>
                <path id="Caminho_295" d="M2433.116 2281.174s-3.044 15.255-17.959 21.29l-5.305-.625-1.252 2 12.444.4a34.036 34.036 0 0 0 16.274-15.694c.182-.387 3.29-6.795-4.202-7.371z" class="cls-21" transform="translate(-2373.392 -2244.047)"/>
                <path id="Caminho_296" fill="#63457c" d="M2643.741 2165.078a81.485 81.485 0 0 0 4.206-18.552 39.978 39.978 0 0 0-4.115-3.115 1.144 1.144 0 0 1-.447-1.484c1.164-2.411 8.2-11.876 8.728-12.008 2.865-.715 14.617-6.3 22.894 5.019 3.552 4.858-.705 19.814-16.819 35.3l-3.325.636z" transform="translate(-2585.648 -2105.423)"/>
                <path id="Caminho_297" d="M2474.808 2344.394s-9.617 11.387-21.913 13.052c0 0-3.178-2.9-5.541-1.863s-5.6 5.6-5.6 5.6h15.788s14.928-.526 22.387-9.578c-.603-3.168-2.4-5.059-5.121-7.211z" class="cls-23" transform="translate(-2403.377 -2301.229)"/>
                <path id="Caminho_298" d="M2782.927 2065.3l2.1 7.018a.771.771 0 0 1-.3.859 7.84 7.84 0 0 1-7.293.733 1.145 1.145 0 0 1-.736-.983l-.5-6.114z" class="cls-23" transform="translate(-2705.885 -2048.79)"/>
                <g id="Grupo_2112" transform="translate(60.125)">
                    <path id="Caminho_299" d="M2717.59 1960.361s1.035 7.275 3.829 9.513 8.239.552 10.079-4.932l-3.665-9.377z" class="cls-21" transform="translate(-2712.996 -1949.536)"/>
                    <path id="Caminho_300" fill="url(#linear-gradient-13)" d="M2684.736 1904.546a.36.36 0 0 1-.468-.288 9.409 9.409 0 0 0-.862-2.906s.266-.955-2.413.487-6.7 3.56-9.072 2.3c-2.309-1.23-4.649-7.419 1.455-6.272a.36.36 0 0 0 .428-.377c-.075-1.017.026-3.357 2.4-4.108 2.218-.7 1.027.436 1.527 1.041.147.178-.186-.605 2.965-.147 1.081.157 2.469-2.713 5.124-1.543 2.187.964 2.528 2.312 2.491 3.151a.359.359 0 0 0 .511.342 2.161 2.161 0 0 1 2.78.825c1.427 1.788-.612 3.339-1.224 3.745a.36.36 0 0 0-.163.3c-.006.93-.151 4.986-2.184 7.274a.363.363 0 0 1-.6-.1l-1.565-3.73a.362.362 0 0 0-.445-.2z" transform="translate(-2669.485 -1892.45)"/>
                    <path id="Caminho_301" fill="url(#linear-gradient-14)" d="M2828.818 1999.738s.956-3.893 2.407-2.629-.378 4.046-2.042 4.576z" transform="translate(-2813.601 -1986.885)"/>
                </g>
                <path id="Caminho_302" fill="url(#linear-gradient-15)" d="M2258.2 2283.061l-7.088-23.64a2.418 2.418 0 0 0-2.15-1.718l-9.571-.655a1.357 1.357 0 0 0-1.373 1.8l7.924 22.576a1.989 1.989 0 0 0 1.675 1.319l9.425 1.046z" transform="translate(-2219.03 -2222.223)"/>
                <path id="Caminho_303" d="M2309.756 2341.709c.53 1.068 1.443 1.694 2.042 1.4s.654-1.4.125-2.471-1.443-1.694-2.041-1.4-.655 1.403-.126 2.471z" class="cls-7" transform="translate(-2283.66 -2296.499)"/>
                <path id="Caminho_304" fill="url(#linear-gradient-16)" d="M2429.424 2510.436h.046l20.082-1.015a.9.9 0 1 0-.091-1.8l-20.081 1.015a.9.9 0 0 0 .045 1.8z" transform="translate(-2391.413 -2448.866)"/>
                <path id="Caminho_305" d="M2690.726 2228.025a.159.159 0 0 0 .159-.16 42.6 42.6 0 0 1 1.623-9.821.159.159 0 1 0-.306-.089 42.949 42.949 0 0 0-1.635 9.911.159.159 0 0 0 .159.159z" class="cls-28" transform="translate(-2628.428 -2186.763)"/>
                <path id="Caminho_306" d="M2786.346 2253.783a.16.16 0 0 0 .125-.06c.044-.056 4.436-5.639 5.946-9.466a.159.159 0 0 0-.3-.117c-1.493 3.783-5.856 9.33-5.9 9.385a.16.16 0 0 0 .027.224.158.158 0 0 0 .102.034z" class="cls-28" transform="translate(-2714.915 -2210.459)"/>
                <path id="Caminho_307" d="M2844.678 2334.437l.119-.051c6.354-2.72 10.279-10.307 10.318-10.383a.159.159 0 0 0-.284-.145c-.039.075-3.863 7.467-10.042 10.184l-.654-.925a.159.159 0 1 0-.26.184z" class="cls-28" transform="translate(-2767.066 -2282.576)"/>
            </g>
            <g id="Grupo_2120" transform="translate(68.368 1.366)">
                <g id="Grupo_2118" transform="translate(2.188 11.266)">
                    <g id="Grupo_2114" transform="translate(1.201)">
                        <path id="Caminho_308" fill="url(#linear-gradient-17)" d="M2791.325 2030.616c4.315-.763 5.656-5.771 5.669-5.821l-.323-.083c-.013.048-1.3 4.85-5.4 5.576z" transform="translate(-2791.267 -2024.712)"/>
                    </g>
                    <g id="Grupo_2117" transform="translate(0 5.082)">
                        <g id="Grupo_2116">
                            <rect id="Retângulo_671" width="1.8" height="1.08" class="cls-1" rx=".54" transform="rotate(-4.614 1.8 .072)"/>
                            <g id="Grupo_2115" clip-path="url(#clip-path)">
                                <path id="Caminho_309" d="M2797.274 2085.271l.018.57h.027z" class="cls-31" transform="translate(-2795.5 -2084.57)"/>
                                <path id="Caminho_310" d="M2796.444 2077.933l.1 1.437h.012l.043-.748-.056-.7z" class="cls-31" transform="translate(-2794.749 -2077.925)"/>
                                <path id="Caminho_311" d="M2796.313 2078.01l.1 1.437h.013l-.1-1.437z" class="cls-31" transform="translate(-2794.631 -2078.001)"/>
                                <path id="Caminho_312" d="M2796.185 2078.021l.1 1.437h.012l-.1-1.437z" class="cls-31" transform="translate(-2794.514 -2078.01)"/>
                                <path id="Caminho_313" d="M2796.054 2078.03l.1 1.437h.012l-.1-1.437z" class="cls-31" transform="translate(-2794.396 -2078.019)"/>
                                <path id="Caminho_314" d="M2795.924 2078.041l.1 1.437h.012l-.1-1.437z" class="cls-31" transform="translate(-2794.278 -2078.029)"/>
                                <path id="Caminho_315" d="M2795.794 2078.052l.1 1.437h.012l-.1-1.437z" class="cls-31" transform="translate(-2794.161 -2078.039)"/>
                                <path id="Caminho_316" d="M2795.663 2078.062l.1 1.437h.013l-.1-1.437z" class="cls-31" transform="translate(-2794.042 -2078.048)"/>
                                <path id="Caminho_317" d="M2795.533 2078.073l.1 1.437h.012l-.1-1.437z" class="cls-31" transform="translate(-2793.925 -2078.058)"/>
                                <path id="Caminho_318" d="M2795.4 2078.083l.1 1.437h.012l-.1-1.437z" class="cls-31" transform="translate(-2793.807 -2078.067)"/>
                                <path id="Caminho_319" d="M2795.273 2078.094l.1 1.437h.012l-.1-1.437z" class="cls-31" transform="translate(-2793.69 -2078.077)"/>
                                <path id="Caminho_320" d="M2795.144 2078.1l.1 1.437h.012l-.1-1.437z" class="cls-31" transform="translate(-2793.573 -2078.087)"/>
                                <path id="Caminho_321" d="M2795.014 2078.115l.1 1.437h.012l-.1-1.437z" class="cls-31" transform="translate(-2793.455 -2078.096)"/>
                                <path id="Caminho_322" d="M2794.883 2078.125l.1 1.437h.012l-.1-1.437z" class="cls-31" transform="translate(-2793.337 -2078.105)"/>
                                <path id="Caminho_323" d="M2794.753 2078.136l.1 1.436h.013l-.1-1.437z" class="cls-31" transform="translate(-2793.219 -2078.115)"/>
                                <path id="Caminho_324" d="M2794.623 2078.146l.1 1.437h.012l-.1-1.437z" class="cls-31" transform="translate(-2793.102 -2078.125)"/>
                                <path id="Caminho_325" d="M2794.493 2078.157l.1 1.437h.012l-.1-1.437z" class="cls-31" transform="translate(-2792.984 -2078.134)"/>
                                <path id="Caminho_326" d="M2794.363 2078.167l.1 1.437h.012l-.1-1.437z" class="cls-31" transform="translate(-2792.867 -2078.143)"/>
                                <path id="Caminho_327" d="M2794.232 2078.178l.1 1.437h.013l-.1-1.437z" class="cls-31" transform="translate(-2792.748 -2078.153)"/>
                                <path id="Caminho_328" d="M2794.1 2078.188l.1 1.437h.012l-.1-1.437z" class="cls-31" transform="translate(-2792.631 -2078.162)"/>
                                <path id="Caminho_329" d="M2793.974 2078.2l.1 1.437h.012l-.1-1.437z" class="cls-31" transform="translate(-2792.514 -2078.171)"/>
                                <path id="Caminho_330" d="M2793.843 2078.209l.1 1.437h.012l-.1-1.437z" class="cls-31" transform="translate(-2792.396 -2078.181)"/>
                                <path id="Caminho_331" d="M2793.713 2078.22l.1 1.437h.013l-.1-1.437z" class="cls-31" transform="translate(-2792.279 -2078.191)"/>
                                <path id="Caminho_332" d="M2793.583 2078.23l.1 1.437h.012l-.1-1.437z" class="cls-31" transform="translate(-2792.161 -2078.2)"/>
                                <path id="Caminho_333" d="M2793.452 2078.241l.1 1.437h.012l-.1-1.437z" class="cls-31" transform="translate(-2792.042 -2078.21)"/>
                                <path id="Caminho_334" d="M2793.322 2078.251l.1 1.437h.012l-.1-1.437z" class="cls-31" transform="translate(-2791.925 -2078.219)"/>
                                <path id="Caminho_335" d="M2793.192 2078.262l.1 1.437h.013l-.1-1.437z" class="cls-31" transform="translate(-2791.808 -2078.229)"/>
                                <path id="Caminho_336" d="M2793.063 2078.272l.1 1.437h.012l-.1-1.437z" class="cls-31" transform="translate(-2791.69 -2078.238)"/>
                                <path id="Caminho_337" d="M2792.933 2078.282l.1 1.437h.012l-.1-1.437z" class="cls-31" transform="translate(-2791.573 -2078.247)"/>
                                <path id="Caminho_338" d="M2792.8 2078.294l.1 1.437h.012l-.1-1.437z" class="cls-31" transform="translate(-2791.455 -2078.258)"/>
                                <path id="Caminho_339" d="M2792.672 2078.3l.1 1.437h.012l-.1-1.437z" class="cls-31" transform="translate(-2791.337 -2078.267)"/>
                                <path id="Caminho_340" d="M2792.543 2078.314l.1 1.437h.012l-.1-1.437z" class="cls-31" transform="translate(-2791.22 -2078.277)"/>
                                <path id="Caminho_341" d="M2792.412 2078.325l.1 1.437h.012l-.1-1.437z" class="cls-31" transform="translate(-2791.102 -2078.286)"/>
                                <path id="Caminho_342" d="M2792.282 2078.335l.1 1.437h.012l-.1-1.437z" class="cls-31" transform="translate(-2790.985 -2078.295)"/>
                                <path id="Caminho_343" d="M2792.153 2078.346l.1 1.436h.012l-.1-1.437z" class="cls-31" transform="translate(-2790.867 -2078.305)"/>
                                <path id="Caminho_344" d="M2792.021 2078.356l.1 1.437h.012l-.1-1.437z" class="cls-31" transform="translate(-2790.749 -2078.314)"/>
                                <path id="Caminho_345" d="M2791.892 2078.366l.1 1.437h.008l-.1-1.437z" class="cls-31" transform="translate(-2790.631 -2078.323)"/>
                                <path id="Caminho_346" d="M2791.762 2078.377l.1 1.437h.012l-.1-1.437z" class="cls-31" transform="translate(-2790.514 -2078.333)"/>
                                <path id="Caminho_347" d="M2791.632 2078.388l.1 1.437h.012l-.1-1.437z" class="cls-31" transform="translate(-2790.396 -2078.343)"/>
                                <path id="Caminho_348" d="M2791.5 2078.4l.1 1.437h.012l-.1-1.437z" class="cls-31" transform="translate(-2790.279 -2078.353)"/>
                                <path id="Caminho_349" d="M2791.372 2078.409l.1 1.437h.012l-.1-1.437z" class="cls-31" transform="translate(-2790.161 -2078.362)"/>
                                <path id="Caminho_350" d="M2791.241 2078.419l.1 1.437h.012l-.1-1.437z" class="cls-31" transform="translate(-2790.043 -2078.371)"/>
                                <path id="Caminho_351" d="M2791.111 2078.429l.1 1.437h.012l-.1-1.437z" class="cls-31" transform="translate(-2789.926 -2078.381)"/>
                                <path id="Caminho_352" d="M2790.981 2078.44l.1 1.437h.012l-.1-1.437z" class="cls-31" transform="translate(-2789.808 -2078.39)"/>
                                <path id="Caminho_353" d="M2790.852 2078.45l.1 1.437h.012l-.1-1.437z" class="cls-31" transform="translate(-2789.69 -2078.399)"/>
                                <path id="Caminho_354" d="M2790.722 2078.461l.1 1.437h.012l-.1-1.437z" class="cls-31" transform="translate(-2789.573 -2078.409)"/>
                                <path id="Caminho_355" d="M2790.591 2078.472l.1 1.437h.012l-.1-1.437z" class="cls-31" transform="translate(-2789.455 -2078.419)"/>
                                <path id="Caminho_356" d="M2790.461 2078.483l.1 1.437h.012l-.1-1.437z" class="cls-31" transform="translate(-2789.337 -2078.428)"/>
                                <path id="Caminho_357" d="M2790.331 2078.493l.1 1.437h.012l-.1-1.437z" class="cls-31" transform="translate(-2789.219 -2078.438)"/>
                                <path id="Caminho_358" d="M2790.2 2078.5l.1 1.437h.012l-.1-1.437z" class="cls-31" transform="translate(-2789.102 -2078.447)"/>
                                <path id="Caminho_359" d="M2790.071 2078.514l.1 1.437h.013l-.1-1.437z" class="cls-31" transform="translate(-2788.985 -2078.457)"/>
                                <path id="Caminho_360" d="M2789.94 2078.524l.1 1.437h.012l-.1-1.437z" class="cls-31" transform="translate(-2788.866 -2078.466)"/>
                                <path id="Caminho_361" d="M2789.811 2078.534l.1 1.436h.013l-.1-1.437z" class="cls-31" transform="translate(-2788.749 -2078.475)"/>
                                <path id="Caminho_362" d="M2789.681 2078.545l.1 1.436h.012l-.1-1.437z" class="cls-31" transform="translate(-2788.632 -2078.485)"/>
                                <path id="Caminho_363" d="M2789.551 2078.556l.1 1.437h.012l-.1-1.437z" class="cls-31" transform="translate(-2788.514 -2078.495)"/>
                                <path id="Caminho_364" d="M2789.42 2078.566l.1 1.437h.012l-.1-1.437z" class="cls-31" transform="translate(-2788.396 -2078.504)"/>
                                <path id="Caminho_365" d="M2789.291 2078.577l.1 1.437h.012l-.1-1.437z" class="cls-31" transform="translate(-2788.279 -2078.514)"/>
                                <path id="Caminho_366" d="M2789.16 2078.587l.1 1.437h.012l-.1-1.437z" class="cls-31" transform="translate(-2788.16 -2078.523)"/>
                                <path id="Caminho_367" d="M2789.03 2078.6l.1 1.437h.012l-.1-1.437z" class="cls-31" transform="translate(-2788.043 -2078.532)"/>
                                <path id="Caminho_368" d="M2788.9 2078.608l.1 1.437h.012l-.1-1.437z" class="cls-31" transform="translate(-2787.926 -2078.542)"/>
                                <path id="Caminho_369" d="M2788.771 2078.618l.1 1.437h.012l-.1-1.437z" class="cls-31" transform="translate(-2787.808 -2078.551)"/>
                                <path id="Caminho_370" d="M2788.641 2078.63l.1 1.437h.012l-.1-1.437z" class="cls-31" transform="translate(-2787.691 -2078.562)"/>
                                <path id="Caminho_371" d="M2788.51 2078.64l.1 1.437h.012l-.1-1.437z" class="cls-31" transform="translate(-2787.572 -2078.571)"/>
                                <path id="Caminho_372" d="M2788.38 2078.651l.1 1.437h.013l-.1-1.437z" class="cls-31" transform="translate(-2787.455 -2078.58)"/>
                                <path id="Caminho_373" d="M2788.25 2078.661l.1 1.437h.012l-.1-1.437z" class="cls-31" transform="translate(-2787.337 -2078.59)"/>
                                <path id="Caminho_374" d="M2788.12 2078.671l.1 1.437h.012l-.1-1.437z" class="cls-31" transform="translate(-2787.22 -2078.599)"/>
                                <path id="Caminho_375" d="M2787.989 2078.682l.1 1.437h.012l-.1-1.437z" class="cls-31" transform="translate(-2787.101 -2078.608)"/>
                                <path id="Caminho_376" d="M2787.859 2078.692l.1 1.437h.013l-.1-1.437z" class="cls-31" transform="translate(-2786.984 -2078.618)"/>
                                <path id="Caminho_377" d="M2787.73 2078.7l.1 1.437h.012l-.1-1.437z" class="cls-31" transform="translate(-2786.867 -2078.628)"/>
                                <path id="Caminho_378" d="M2787.6 2078.713l.1 1.437h.012l-.1-1.437z" class="cls-31" transform="translate(-2786.749 -2078.637)"/>
                                <path id="Caminho_379" d="M2787.47 2078.724l.1 1.437h.012l-.1-1.437z" class="cls-31" transform="translate(-2786.632 -2078.646)"/>
                                <path id="Caminho_380" d="M2787.34 2078.734l.1 1.437h.012l-.1-1.437z" class="cls-31" transform="translate(-2786.514 -2078.656)"/>
                                <path id="Caminho_381" d="M2787.209 2078.745l.1 1.437h.012l-.1-1.437z" class="cls-31" transform="translate(-2786.396 -2078.666)"/>
                                <path id="Caminho_382" d="M2787.08 2078.755l.1 1.436h.012l-.1-1.437z" class="cls-31" transform="translate(-2786.279 -2078.675)"/>
                                <path id="Caminho_383" d="M2786.949 2078.766l.1 1.437h.012l-.1-1.437z" class="cls-31" transform="translate(-2786.161 -2078.685)"/>
                                <path id="Caminho_384" d="M2786.819 2078.776l.1 1.437h.012l-.1-1.437z" class="cls-31" transform="translate(-2786.043 -2078.694)"/>
                                <path id="Caminho_385" d="M2786.69 2078.787l.1 1.437h.012l-.1-1.437z" class="cls-31" transform="translate(-2785.926 -2078.704)"/>
                                <path id="Caminho_386" d="M2786.56 2078.8l.1 1.437h.013l-.1-1.437z" class="cls-31" transform="translate(-2785.808 -2078.713)"/>
                                <path id="Caminho_387" d="M2786.429 2078.808l.1 1.437h.013l-.1-1.437z" class="cls-31" transform="translate(-2785.69 -2078.723)"/>
                                <path id="Caminho_388" d="M2786.3 2078.819l.1 1.437h.012l-.1-1.437z" class="cls-31" transform="translate(-2785.573 -2078.732)"/>
                                <path id="Caminho_389" d="M2786.17 2078.829l.1 1.437h.012l-.1-1.437z" class="cls-31" transform="translate(-2785.456 -2078.742)"/>
                                <path id="Caminho_390" d="M2786.039 2078.839l.1 1.437h.012l-.1-1.437z" class="cls-31" transform="translate(-2785.337 -2078.751)"/>
                                <path id="Caminho_391" d="M2785.909 2078.85l.1 1.437h.012l-.1-1.437z" class="cls-31" transform="translate(-2785.22 -2078.76)"/>
                                <path id="Caminho_392" d="M2785.779 2078.86l.1 1.437h.012l-.1-1.437z" class="cls-31" transform="translate(-2785.102 -2078.77)"/>
                                <path id="Caminho_393" d="M2785.648 2078.87l.1 1.437h.012l-.1-1.437z" class="cls-31" transform="translate(-2784.984 -2078.779)"/>
                                <path id="Caminho_394" d="M2785.519 2078.882l.1 1.437h.012l-.1-1.437z" class="cls-31" transform="translate(-2784.867 -2078.79)"/>
                                <path id="Caminho_395" d="M2785.389 2078.892l.1 1.437h.013l-.1-1.437z" class="cls-31" transform="translate(-2784.749 -2078.799)"/>
                                <path id="Caminho_396" d="M2785.259 2078.9l.1 1.437h.012l-.1-1.437z" class="cls-31" transform="translate(-2784.632 -2078.808)"/>
                                <path id="Caminho_397" d="M2785.128 2078.913l.1 1.437h.012l-.1-1.437z" class="cls-31" transform="translate(-2784.513 -2078.818)"/>
                                <path id="Caminho_398" d="M2785 2078.923l.1 1.436h.012l-.1-1.437z" class="cls-31" transform="translate(-2784.396 -2078.827)"/>
                                <path id="Caminho_399" d="M2784.868 2078.934l.1 1.437h.012l-.1-1.437z" class="cls-31" transform="translate(-2784.278 -2078.836)"/>
                                <path id="Caminho_400" d="M2784.739 2078.944l.1 1.437h.012l-.1-1.437z" class="cls-31" transform="translate(-2784.161 -2078.846)"/>
                                <path id="Caminho_401" d="M2784.608 2078.954l.1 1.437h.012l-.1-1.437z" class="cls-31" transform="translate(-2784.043 -2078.855)"/>
                                <path id="Caminho_402" d="M2784.479 2078.966l.1 1.437h.012l-.1-1.437z" class="cls-31" transform="translate(-2783.926 -2078.866)"/>
                                <path id="Caminho_403" d="M2784.349 2078.976l.1 1.437h.012l-.1-1.437z" class="cls-31" transform="translate(-2783.809 -2078.875)"/>
                                <path id="Caminho_404" d="M2784.218 2078.986l.1 1.437h.012l-.1-1.437z" class="cls-31" transform="translate(-2783.69 -2078.884)"/>
                                <path id="Caminho_405" d="M2784.088 2079l.1 1.437h.012l-.1-1.437z" class="cls-31" transform="translate(-2783.573 -2078.894)"/>
                                <path id="Caminho_406" d="M2783.959 2079.007l.1 1.437h.012l-.1-1.437z" class="cls-31" transform="translate(-2783.456 -2078.903)"/>
                                <path id="Caminho_407" d="M2783.828 2079.018l.1 1.437h.012l-.1-1.437z" class="cls-31" transform="translate(-2783.338 -2078.912)"/>
                                <path id="Caminho_408" d="M2783.7 2079.028l.1 1.437h.012l-.1-1.437z" class="cls-31" transform="translate(-2783.219 -2078.922)"/>
                                <path id="Caminho_409" d="M2783.567 2079.038l.1 1.437h.012l-.1-1.437z" class="cls-31" transform="translate(-2783.102 -2078.931)"/>
                                <path id="Caminho_410" d="M2783.438 2079.049l.1 1.437h.013l-.1-1.437z" class="cls-31" transform="translate(-2782.984 -2078.941)"/>
                                <path id="Caminho_411" d="M2783.308 2079.06l.1 1.437h.012l-.1-1.437z" class="cls-31" transform="translate(-2782.867 -2078.95)"/>
                                <path id="Caminho_412" d="M2783.178 2079.07l.1 1.437h.012l-.1-1.437z" class="cls-31" transform="translate(-2782.75 -2078.96)"/>
                                <path id="Caminho_413" d="M2783.048 2079.081l.1 1.437h.012l-.1-1.437z" class="cls-31" transform="translate(-2782.632 -2078.97)"/>
                                <path id="Caminho_414" d="M2782.917 2079.091l.1 1.437h.013l-.1-1.437z" class="cls-31" transform="translate(-2782.514 -2078.979)"/>
                                <path id="Caminho_415" d="M2782.787 2079.1l.1 1.437h.012l-.1-1.437z" class="cls-31" transform="translate(-2782.396 -2078.988)"/>
                                <path id="Caminho_416" d="M2782.657 2079.112l.1 1.437h.012l-.1-1.437z" class="cls-31" transform="translate(-2782.279 -2078.998)"/>
                                <path id="Caminho_417" d="M2782.527 2079.123l.1 1.437h.012l-.1-1.437z" class="cls-31" transform="translate(-2782.161 -2079.008)"/>
                                <path id="Caminho_418" d="M2782.4 2079.133l.1 1.436h.012l-.1-1.437z" class="cls-31" transform="translate(-2782.044 -2079.017)"/>
                                <path id="Caminho_419" d="M2782.268 2079.144l.1 1.437h.012l-.1-1.437z" class="cls-31" transform="translate(-2781.927 -2079.026)"/>
                                <path id="Caminho_420" d="M2782.137 2079.154l.1 1.437h.012l-.1-1.437z" class="cls-31" transform="translate(-2781.808 -2079.036)"/>
                                <path id="Caminho_421" d="M2782.007 2079.165l.1 1.437h.012l-.1-1.437z" class="cls-31" transform="translate(-2781.69 -2079.046)"/>
                                <path id="Caminho_422" d="M2781.877 2079.175l.1 1.437h.013l-.1-1.437z" class="cls-31" transform="translate(-2781.573 -2079.055)"/>
                                <path id="Caminho_423" d="M2781.747 2079.186l.1 1.437h.012l-.1-1.437z" class="cls-31" transform="translate(-2781.456 -2079.064)"/>
                                <path id="Caminho_424" d="M2781.617 2079.2l.1 1.437h.012l-.1-1.437z" class="cls-31" transform="translate(-2781.338 -2079.074)"/>
                                <path id="Caminho_425" d="M2781.486 2079.206l.1 1.437h.013l-.1-1.437z" class="cls-31" transform="translate(-2781.219 -2079.083)"/>
                                <path id="Caminho_426" d="M2781.357 2079.218l.1 1.437h.012l-.1-1.437z" class="cls-31" transform="translate(-2781.102 -2079.094)"/>
                                <path id="Caminho_427" d="M2781.227 2079.228l.1 1.437h.012l-.1-1.437z" class="cls-31" transform="translate(-2780.985 -2079.102)"/>
                                <path id="Caminho_428" d="M2781.1 2079.238l.1 1.437h.012l-.1-1.437z" class="cls-31" transform="translate(-2780.867 -2079.112)"/>
                                <path id="Caminho_429" d="M2780.967 2079.249l.1 1.437h.012l-.1-1.437z" class="cls-31" transform="translate(-2780.75 -2079.122)"/>
                                <path id="Caminho_430" d="M2780.836 2079.259l.1 1.437h.012l-.1-1.437z" class="cls-31" transform="translate(-2780.632 -2079.13)"/>
                                <path id="Caminho_431" d="M2780.706 2079.27l.1 1.437h.012l-.1-1.437z" class="cls-31" transform="translate(-2780.514 -2079.14)"/>
                                <path id="Caminho_432" d="M2780.576 2079.28l.1 1.437h.012l-.1-1.437z" class="cls-31" transform="translate(-2780.396 -2079.15)"/>
                                <path id="Caminho_433" d="M2780.446 2079.29l.1 1.437h.013l-.1-1.437z" class="cls-31" transform="translate(-2780.279 -2079.159)"/>
                                <path id="Caminho_434" d="M2780.315 2079.3l.1 1.437h.012l-.1-1.437z" class="cls-31" transform="translate(-2780.161 -2079.17)"/>
                                <path id="Caminho_435" d="M2780.187 2079.312l.1 1.437h.012l-.1-1.437z" class="cls-31" transform="translate(-2780.044 -2079.178)"/>
                                <path id="Caminho_436" d="M2780.057 2079.322l.1 1.437h.012l-.1-1.437z" class="cls-31" transform="translate(-2779.927 -2079.188)"/>
                                <path id="Caminho_437" d="M2779.926 2079.333l.1 1.437h.013l-.1-1.437z" class="cls-31" transform="translate(-2779.808 -2079.198)"/>
                                <path id="Caminho_438" d="M2779.8 2079.343l.1 1.437h.012l-.1-1.437z" class="cls-31" transform="translate(-2779.691 -2079.207)"/>
                                <path id="Caminho_439" d="M2779.666 2079.353l.1 1.437h.012l-.1-1.437z" class="cls-31" transform="translate(-2779.573 -2079.216)"/>
                                <path id="Caminho_440" d="M2779.535 2079.364l.1 1.437h.013l-.1-1.437z" class="cls-31" transform="translate(-2779.455 -2079.226)"/>
                                <path id="Caminho_441" d="M2779.406 2079.375l.1 1.437h.012l-.1-1.437z" class="cls-31" transform="translate(-2779.338 -2079.236)"/>
                                <path id="Caminho_442" d="M2779.275 2079.385l.1 1.437h.012l-.1-1.437z" class="cls-31" transform="translate(-2779.22 -2079.245)"/>
                                <path id="Caminho_443" d="M2779.146 2079.4l.1 1.437h.012l-.1-1.437z" class="cls-31" transform="translate(-2779.103 -2079.254)"/>
                                <path id="Caminho_444" d="M2779.016 2079.406l.1 1.437h.013l-.1-1.437z" class="cls-31" transform="translate(-2778.985 -2079.264)"/>
                                <path id="Caminho_445" d="M2778.885 2079.417l.1 1.437h.015l-.1-1.437z" class="cls-31" transform="translate(-2778.867 -2079.274)"/>
                                <path id="Caminho_446" d="M2778.755 2079.427l.1 1.437h.012l-.1-1.437z" class="cls-31" transform="translate(-2778.749 -2079.282)"/>
                                <path id="Caminho_447" d="M2778.625 2079.438l.1 1.437h.012l-.1-1.437z" class="cls-31" transform="translate(-2778.632 -2079.292)"/>
                                <path id="Caminho_448" d="M2778.5 2079.448l.1 1.437h.013l-.1-1.437z" class="cls-31" transform="translate(-2778.514 -2079.302)"/>
                                <path id="Caminho_449" d="M2778.365 2079.459l.1 1.437h.012l-.1-1.437z" class="cls-31" transform="translate(-2778.397 -2079.312)"/>
                                <path id="Caminho_450" d="M2778.235 2079.469l.1 1.437h.012l-.1-1.437z" class="cls-31" transform="translate(-2778.279 -2079.32)"/>
                                <path id="Caminho_451" d="M2778.1 2079.479l.1 1.437h.012l-.1-1.437z" class="cls-31" transform="translate(-2778.161 -2079.33)"/>
                                <path id="Caminho_452" d="M2777.976 2079.49l.1 1.437h.012l-.1-1.437z" class="cls-31" transform="translate(-2778.044 -2079.34)"/>
                                <path id="Caminho_453" d="M2777.845 2079.5l.1 1.437h.012l-.1-1.437z" class="cls-31" transform="translate(-2777.926 -2079.35)"/>
                                <path id="Caminho_454" d="M2777.715 2079.511l.1 1.437h.012l-.1-1.437z" class="cls-31" transform="translate(-2777.809 -2079.358)"/>
                                <path id="Caminho_455" d="M2777.585 2079.521l.1 1.437h.012l-.1-1.437z" class="cls-31" transform="translate(-2777.691 -2079.368)"/>
                                <path id="Caminho_456" d="M2777.454 2079.532l.1 1.437h.012l-.1-1.437z" class="cls-31" transform="translate(-2777.573 -2079.378)"/>
                                <path id="Caminho_457" d="M2777.324 2079.542l.1 1.437h.012l-.1-1.437z" class="cls-31" transform="translate(-2777.455 -2079.387)"/>
                                <path id="Caminho_458" d="M2777.194 2079.553l.1 1.437h.012l-.1-1.437z" class="cls-31" transform="translate(-2777.338 -2079.397)"/>
                                <path id="Caminho_459" d="M2777.064 2079.563l.1 1.437h.012l-.1-1.437z" class="cls-31" transform="translate(-2777.22 -2079.406)"/>
                                <path id="Caminho_460" d="M2776.935 2079.574l.1 1.436h.012l-.1-1.437z" class="cls-31" transform="translate(-2777.103 -2079.416)"/>
                                <path id="Caminho_461" d="M2776.8 2079.585l.231.618.065.8-.185.015-.1-1.437z" class="cls-31" transform="translate(-2776.985 -2079.426)"/>
                                <path id="Caminho_462" fill="url(#linear-gradient-172)" d="M2777 2081.565l-.074-.485h.035z" transform="translate(-2777.096 -2080.776)"/>
                            </g>
                        </g>
                    </g>
                </g>
                <g id="Grupo_2119">
                    <path id="Caminho_463" fill="url(#linear-gradient-173)" d="M2763.436 1913.345s-3.26-6.371-7.653-5.987a3.156 3.156 0 0 1 2.454-.542c1.408.3 5.447 2.806 6.3 6.441-.781.488-1.101.088-1.101.088z" transform="translate(-2755.783 -1906.752)"/>
                    <path id="Caminho_464" fill="url(#linear-gradient-174)" d="M2827.865 1969.544c2.448-.123 2.915 2.893 2.915 2.893.714 2.093.362 3.311-.308 4.02a1.9 1.9 0 0 1-3.177-.7c-.192-.57-.382-1.11-.476-1.3-.226-.444-1.402-4.79 1.046-4.913z" transform="translate(-2819.6 -1963.544)"/>
                </g>
                <path id="Caminho_465" fill="url(#linear-gradient-175)" d="M2837.278 1977.028a1.092 1.092 0 0 1 1.313.328c2.215 2.866 1.044 5.4.217 5.657-.872.272-1.942-3.984-2.033-5.122a.8.8 0 0 1 .503-.863z" transform="translate(-2829.036 -1970.229)"/>
            </g>
        </g>
    </g>
</svg>
