<svg width="77" height="76" viewBox="0 0 77 76" fill="none" xmlns="http://www.w3.org/2000/svg">
<g clip-path="url(#clipSDASDAS)">
<path d="M76.0631 11.7344H5.28516V46.583H76.0631V11.7344Z" fill="#EF882B"/>
<path d="M47.9799 58.5746L45.8706 56.0928L42.0038 54.4911L38.5898 54.0903L33.5429 55.9325L32.1847 52.891C32.1847 52.891 30.9823 48.3265 30.9823 48.0875C30.9823 47.8486 27.457 47.4463 27.457 47.4463L40.6768 9.1791L39.7209 5.89715L38.5898 4.19605L36.4226 3.1748L25.1339 34.3971L16.6952 56.4134L14.7344 55.4515L9.26742 54.3278L5.28633 56.0393L1.59766 60.4598V66.1791L4.88109 71.6238L9.84336 73.7628L15.9293 72.1923L18.898 69.2072C18.898 69.2072 24.6574 53.2903 24.6574 53.0498L27.457 58.735L31.3 68.1815L33.5429 71.6238L37.7867 73.3041L42.0038 73.2239L46.9023 70.5031L48.9373 65.9386V62.3435L47.9799 58.5746ZM10.7221 67.6204C9.88257 67.6201 9.06198 67.3708 8.36415 66.9041C7.66633 66.4373 7.12262 65.7741 6.80182 64.9982C6.48102 64.2224 6.39753 63.3689 6.56193 62.5456C6.72633 61.7223 7.13122 60.9663 7.72538 60.3731C8.31955 59.78 9.07628 59.3764 9.89985 59.2135C10.7234 59.0505 11.5768 59.1355 12.3521 59.4577C13.1274 59.7798 13.7897 60.3247 14.2552 61.0233C14.7207 61.722 14.9686 62.543 14.9674 63.3825C14.9658 64.5068 14.5182 65.5845 13.7229 66.379C12.9275 67.1736 11.8493 67.62 10.7251 67.6204H10.7221ZM40.1424 67.6204C39.3029 67.6201 38.4823 67.3708 37.7845 66.9041C37.0866 66.4373 36.5429 65.7741 36.2221 64.9982C35.9013 64.2224 35.8178 63.3689 35.9822 62.5456C36.1466 61.7223 36.5515 60.9663 37.1457 60.3731C37.7399 59.78 38.4966 59.3764 39.3202 59.2135C40.1437 59.0505 40.9971 59.1355 41.7724 59.4577C42.5477 59.7798 43.21 60.3247 43.6755 61.0233C44.141 61.722 44.3889 62.543 44.3877 63.3825C44.3862 64.5068 43.9386 65.5845 43.1432 66.379C42.3478 67.1736 41.2696 67.62 40.1454 67.6204H40.1424Z" fill="#79AAE8"/>
<path d="M16.217 10.2998H9.26562L10.0019 5.89715L12.1394 3.1748H13.3076L16.217 10.2998Z" fill="#79AAE8"/>
<path d="M15.7102 61.4535C15.1804 60.3056 14.2688 59.3769 13.1309 58.8257C11.993 58.2746 10.6992 58.1352 9.47005 58.4311C8.24084 58.7271 7.15233 59.4402 6.39002 60.4489C5.62771 61.4575 5.2388 62.6994 5.28957 63.9627C5.34033 65.226 5.82764 66.4326 6.66842 67.3769C7.50921 68.3211 8.65143 68.9446 9.90042 69.141C11.1494 69.3373 12.4278 69.0945 13.5178 68.4539C14.6078 67.8132 15.4419 66.8144 15.8779 65.6276C16.127 64.9552 16.2403 64.2402 16.2115 63.5238C16.1828 62.8074 16.0124 62.1037 15.7102 61.4535ZM13.8666 64.8884C13.5625 65.7139 12.9433 66.385 12.1449 66.7546C11.3465 67.1241 10.4341 67.1619 9.60794 66.8596C8.87638 66.591 8.26265 66.0736 7.87429 65.3979C7.48593 64.7223 7.3477 63.9315 7.48382 63.1642C7.61994 62.3969 8.02173 61.7019 8.61879 61.2011C9.21585 60.7002 9.97011 60.4254 10.7494 60.4249C11.1405 60.4253 11.5284 60.4946 11.8954 60.6297C12.3045 60.7798 12.68 61.0091 13.0005 61.3044C13.321 61.5996 13.5802 61.9552 13.7633 62.3507C13.9463 62.7461 14.0497 63.1738 14.0674 63.6092C14.0851 64.0447 14.0169 64.4793 13.8666 64.8884Z" fill="black"/>
<path d="M75.0724 36.9147C75.3568 36.9143 75.6294 36.8011 75.8303 36.5999C76.0313 36.3987 76.1441 36.1259 76.1441 35.8415V12.3958C76.1429 11.6515 75.8466 10.938 75.3202 10.4118C74.7937 9.88559 74.08 9.58965 73.3357 9.58887H41.7853C42.0277 7.93027 41.6866 6.23896 40.8202 4.80401C39.9538 3.36905 38.616 2.27954 37.0353 1.72168C36.77 1.62859 36.4788 1.6433 36.2243 1.76266C35.9697 1.88202 35.7722 2.09649 35.6741 2.35996L32.98 9.58887H17.2901L14.599 2.35996C14.5009 2.09649 14.3034 1.88202 14.0488 1.76266C13.7943 1.6433 13.5031 1.62859 13.2378 1.72168C11.6571 2.27954 10.3193 3.36905 9.45288 4.80401C8.58649 6.23896 8.24536 7.93027 8.48779 9.58887H6.27014C5.52579 9.58965 4.81214 9.88559 4.28567 10.4118C3.75919 10.938 3.46288 11.6515 3.4617 12.3958V45.9189C3.46288 46.6633 3.75919 47.3768 4.28567 47.903C4.81214 48.4292 5.52579 48.7251 6.27014 48.7259H18.4019L16.1962 54.65C14.9308 53.8909 13.5208 53.4042 12.0566 53.2212C10.5923 53.0383 9.10596 53.163 7.69267 53.5874C6.27938 54.0119 4.97026 54.7267 3.8491 55.6862C2.72794 56.6456 1.81943 57.8286 1.18171 59.1593C0.543995 60.4901 0.191116 61.9393 0.145657 63.4142C0.100198 64.8892 0.363162 66.3574 0.917719 67.7249C1.47228 69.0924 2.30621 70.329 3.36616 71.3557C4.42611 72.3824 5.68871 73.1765 7.07319 73.6872C8.23283 74.1173 9.45969 74.338 10.6965 74.3388C12.2272 74.3358 13.739 74.0005 15.1274 73.3561C16.4231 72.7626 17.5879 71.9174 18.5542 70.8699C19.5204 69.8223 20.2689 68.5932 20.7562 67.2539L25.1351 55.3403L29.5125 67.2539C29.9999 68.593 30.7485 69.8221 31.7147 70.8696C32.681 71.9172 33.8457 72.7624 35.1412 73.3561C36.5302 74.0005 38.0424 74.3358 39.5736 74.3388C41.3017 74.3311 43.0017 73.9007 44.5253 73.0852C46.0489 72.2697 47.3499 71.0939 48.3148 69.6603C49.2798 68.2266 49.8793 66.5787 50.0613 64.8602C50.2432 63.1417 50.0019 61.4047 49.3586 59.8008C48.788 58.3771 47.9153 57.094 46.8007 56.0403C45.6861 54.9867 44.3561 54.1874 42.9025 53.6977C41.449 53.208 39.9064 53.0395 38.3814 53.204C36.8564 53.3684 35.3853 53.8618 34.0695 54.65L31.8637 48.7259H73.3357C74.08 48.7251 74.7937 48.4292 75.3202 47.903C75.8466 47.3768 76.1429 46.6633 76.1441 45.9189V42.6697C76.1338 42.3921 76.0163 42.1294 75.8163 41.9367C75.6163 41.744 75.3494 41.6364 75.0717 41.6364C74.7939 41.6364 74.527 41.744 74.327 41.9367C74.127 42.1294 74.0095 42.3921 73.9992 42.6697V45.9189C73.9988 46.0947 73.9287 46.2631 73.8043 46.3872C73.6799 46.5113 73.5114 46.581 73.3357 46.581H28.3472L41.1589 11.7338H73.3357C73.5114 11.7338 73.6799 11.8035 73.8043 11.9276C73.9287 12.0517 73.9988 12.2201 73.9992 12.3958V35.8489C74.0012 36.1323 74.1151 36.4034 74.3161 36.603C74.5172 36.8027 74.7891 36.9147 75.0724 36.9147ZM11.0394 6.37371C11.4617 5.47072 12.142 4.713 12.9944 4.19614L15.0027 9.58887H10.6624C10.431 8.50486 10.5635 7.37477 11.0394 6.37371ZM6.27014 46.581C6.09442 46.581 5.92588 46.5113 5.80149 46.3872C5.6771 46.2631 5.60702 46.0947 5.60662 45.9189V12.3958C5.60702 12.2201 5.6771 12.0517 5.80149 11.9276C5.92588 11.8035 6.09442 11.7338 6.27014 11.7338H23.4889V14.5897C23.4835 14.7339 23.5073 14.8777 23.5588 15.0125C23.6103 15.1473 23.6884 15.2704 23.7885 15.3743C23.8886 15.4782 24.0087 15.5608 24.1415 15.6173C24.2742 15.6737 24.4171 15.7028 24.5613 15.7028C24.7056 15.7028 24.8485 15.6737 24.9812 15.6173C25.114 15.5608 25.2341 15.4782 25.3342 15.3743C25.4343 15.2704 25.5125 15.1473 25.5639 15.0125C25.6154 14.8777 25.6392 14.7339 25.6338 14.5897V11.7338H32.1755L25.6397 29.2984V21.3318C25.6294 21.0542 25.5119 20.7915 25.3119 20.5988C25.1119 20.4061 24.845 20.2985 24.5673 20.2985C24.2896 20.2985 24.0227 20.4061 23.8227 20.5988C23.6227 20.7915 23.5052 21.0542 23.4948 21.3318V35.0593L19.205 46.581H6.27014ZM29.5748 48.7259L32.5436 56.6925C32.603 56.8517 32.6992 56.9944 32.8245 57.109C32.9498 57.2237 33.1005 57.307 33.2643 57.352C33.428 57.3971 33.6001 57.4027 33.7664 57.3683C33.9327 57.3339 34.0885 57.2605 34.2209 57.1542C35.1758 56.3804 36.2878 55.8239 37.4796 55.5235C38.6714 55.2231 39.9143 55.1859 41.1219 55.4146C42.3296 55.6432 43.4728 56.1323 44.4723 56.8476C45.4717 57.563 46.3033 58.4875 46.9092 59.5568C47.5151 60.6262 47.8807 61.8147 47.9807 63.0397C48.0806 64.2647 47.9125 65.4967 47.488 66.6502C47.0635 67.8036 46.3928 68.8507 45.5225 69.7186C44.6523 70.5865 43.6034 71.2544 42.4488 71.6758C41.4157 72.0581 40.3169 72.2311 39.2163 72.185C38.1157 72.1389 37.0353 71.8745 36.0378 71.4072C34.9982 70.9307 34.0637 70.2523 33.2888 69.4113C32.5138 68.5704 31.9139 67.5837 31.5238 66.5087L26.2751 52.2261L27.562 48.7215L29.5748 48.7259ZM39.4044 10.291L18.7433 66.5132C18.353 67.588 17.7529 68.5745 16.978 69.4155C16.2031 70.2564 15.2688 70.9349 14.2294 71.4116C12.6962 72.1133 10.9878 72.3391 9.325 72.0597C7.6622 71.7803 6.12142 71.0085 4.90182 69.8442C3.68223 68.6799 2.83988 67.1766 2.48365 65.5285C2.12743 63.8805 2.27371 62.1635 2.90358 60.5994C3.39526 59.3728 4.16743 58.2784 5.15822 57.4039C6.149 56.5294 7.33085 55.8992 8.60905 55.5637C9.88725 55.2282 11.2263 55.1968 12.5188 55.472C13.8113 55.7471 15.0215 56.3212 16.0522 57.1482C16.1845 57.2546 16.3401 57.328 16.5063 57.3624C16.6726 57.3968 16.8446 57.3912 17.0082 57.3461C17.1718 57.3011 17.3224 57.2178 17.4476 57.1031C17.5727 56.9884 17.6688 56.8457 17.728 56.6866L20.9551 48.0223L37.2832 4.1902C38.2882 4.80309 39.0497 5.74549 39.4378 6.85683C39.8259 7.96818 39.8167 9.17972 39.4118 10.285L39.4044 10.291Z" fill="black"/>
<path d="M44.6479 61.8611C44.2122 60.6744 43.3785 59.6755 42.2889 59.0346C41.1993 58.3937 39.9212 58.1504 38.6723 58.3462C37.4235 58.542 36.2811 59.1648 35.44 60.1084C34.5988 61.0521 34.1108 62.2582 34.0592 63.5212C34.0076 64.7843 34.3956 66.0262 35.157 67.0353C35.9184 68.0444 37.0061 68.7583 38.2348 69.0553C39.4636 69.3523 40.7573 69.2141 41.8955 68.6642C43.0338 68.1143 43.9461 67.1868 44.4772 66.0396C45.0853 64.7243 45.1467 63.2215 44.6479 61.8611ZM42.5312 65.1386C42.2089 65.836 41.6548 66.4001 40.9632 66.7347C40.2716 67.0694 39.4854 67.1538 38.7385 66.9738C37.9917 66.7937 37.3304 66.3602 36.8673 65.7472C36.4042 65.1341 36.168 64.3795 36.199 63.6119C36.23 62.8442 36.5262 62.111 37.0371 61.5373C37.5481 60.9636 38.2422 60.5848 39.0012 60.4655C39.7601 60.3462 40.537 60.4937 41.1993 60.883C41.8617 61.2723 42.3686 61.8792 42.6336 62.6003C42.7855 63.0091 42.8546 63.444 42.837 63.8797C42.8195 64.3154 42.7155 64.7433 42.5312 65.1386Z" fill="black"/>
<path d="M15.7672 28.1003V23.1559C17.4727 23.2776 18.1051 24.0569 18.6899 24.0569C19.4202 24.0569 19.7616 23.1321 19.7616 22.669C19.7616 21.4815 17.4237 20.9649 15.7672 20.9159V20.2584C15.7672 19.9615 15.402 19.6973 15.0369 19.6973C14.6227 19.6973 14.3303 19.9659 14.3303 20.2584V20.9649C12.0177 21.2084 9.70352 22.4255 9.70352 25.4938C9.70352 28.6109 12.1394 29.4882 14.3303 30.2675V35.9898C11.847 35.7953 11.1894 34.0913 10.3848 34.0913C9.77625 34.0913 9.26562 34.8943 9.26562 35.4791C9.26562 36.6666 11.3111 38.2995 14.3303 38.3529V39.1084C14.3303 39.4053 14.6272 39.6681 15.0369 39.6681C15.402 39.6681 15.7672 39.3994 15.7672 39.1084V38.2802C18.3975 37.915 20.1995 36.2584 20.1995 33.263C20.1995 29.9513 17.8869 28.8796 15.7672 28.1003ZM14.4773 27.6372C13.1859 27.1503 12.1394 26.6382 12.1394 25.2503C12.1394 23.9841 13.1131 23.3755 14.4773 23.2048V27.6372ZM15.6217 35.9423V30.8034C16.8092 31.314 17.7652 31.9909 17.7652 33.5302C17.7652 34.9195 16.9369 35.6988 15.6217 35.9423Z" fill="black"/>
</g>
<defs>
<clipPath id="clipSDASDAS">
<rect width="76" height="76" fill="white" transform="translate(0.144531)"/>
</clipPath>
</defs>
</svg>
