<svg width="77" height="77" viewBox="0 0 77 77" fill="none" xmlns="http://www.w3.org/2000/svg">
<g clip-path="url(#clip0)">
<path d="M76.11 12.2158H5.33203V47.0645H76.11V12.2158Z" fill="#EF882B"/>
<path d="M48.0248 59.0571L45.9155 56.5752L42.0487 54.9736L38.6347 54.5728L33.5878 56.4149L32.2296 53.3734C32.2296 53.3734 31.0273 48.8089 31.0273 48.57C31.0273 48.331 27.5019 47.9287 27.5019 47.9287L40.7217 9.66152L39.7658 6.37957L38.6347 4.67848L36.4675 3.65723L25.1788 34.8796L16.7402 56.8958L14.7793 55.9339L9.31234 54.8103L5.33125 56.5218L1.64258 60.9422V66.6615L4.92602 72.1062L9.88828 74.2452L15.9742 72.6747L18.943 69.6896C18.943 69.6896 24.7023 53.7727 24.7023 53.5322L27.5019 59.2174L31.3449 68.6639L33.5878 72.1062L37.8316 73.7865L42.0487 73.7064L46.9472 70.9855L48.9823 66.4211V62.8259L48.0248 59.0571ZM10.767 68.1028C9.92749 68.1025 9.1069 67.8532 8.40908 67.3865C7.71125 66.9197 7.16754 66.2565 6.84674 65.4807C6.52594 64.7048 6.44245 63.8513 6.60685 63.028C6.77125 62.2047 7.17614 61.4487 7.77031 60.8556C8.36447 60.2624 9.1212 59.8589 9.94478 59.6959C10.7683 59.5329 11.6218 59.6179 12.397 59.9401C13.1723 60.2622 13.8346 60.8071 14.3001 61.5058C14.7657 62.2044 15.0135 63.0254 15.0123 63.865C15.0108 64.9892 14.5632 66.0669 13.7678 66.8614C12.9724 67.656 11.8942 68.1024 10.77 68.1028H10.767ZM40.1873 68.1028C39.3478 68.1025 38.5272 67.8532 37.8294 67.3865C37.1316 66.9197 36.5879 66.2565 36.2671 65.4807C35.9463 64.7048 35.8628 63.8513 36.0272 63.028C36.1916 62.2047 36.5965 61.4487 37.1906 60.8556C37.7848 60.2624 38.5415 59.8589 39.3651 59.6959C40.1887 59.5329 41.0421 59.6179 41.8173 59.9401C42.5926 60.2622 43.2549 60.8071 43.7204 61.5058C44.186 62.2044 44.4338 63.0254 44.4327 63.865C44.4311 64.9892 43.9835 66.0669 43.1881 66.8614C42.3927 67.656 41.3146 68.1024 40.1903 68.1028H40.1873Z" fill="#79AAE8"/>
<path d="M16.2638 10.7822H9.3125L10.0487 6.37957L12.1863 3.65723H13.3545L16.2638 10.7822Z" fill="#79AAE8"/>
<path d="M15.7551 61.935C15.2253 60.787 14.3137 59.8583 13.1759 59.3072C12.038 58.7561 10.7442 58.6166 9.51497 58.9126C8.28577 59.2085 7.19725 59.9216 6.43494 60.9303C5.67263 61.939 5.28372 63.1808 5.33449 64.4441C5.38525 65.7074 5.87256 66.9141 6.71334 67.8583C7.55413 68.8026 8.69635 69.426 9.94534 69.6224C11.1943 69.8188 12.4728 69.576 13.5628 68.9353C14.6528 68.2946 15.4868 67.2958 15.9229 66.109C16.1719 65.4367 16.2853 64.7216 16.2565 64.0052C16.2277 63.2888 16.0573 62.5852 15.7551 61.935ZM13.9115 65.3698C13.6074 66.1953 12.9882 66.8665 12.1898 67.236C11.3914 67.6056 10.4791 67.6434 9.65286 67.3411C8.9213 67.0725 8.30757 66.555 7.91921 65.8794C7.53085 65.2037 7.39262 64.413 7.52874 63.6456C7.66486 62.8783 8.06665 62.1833 8.66371 61.6825C9.26077 61.1817 10.015 60.9069 10.7943 60.9063C11.1854 60.9067 11.5733 60.9761 11.9403 61.1111C12.3494 61.2613 12.7249 61.4905 13.0454 61.7858C13.3659 62.0811 13.6251 62.4366 13.8082 62.8321C13.9912 63.2276 14.0946 63.6552 14.1123 64.0907C14.1301 64.5261 14.0618 64.9608 13.9115 65.3698Z" fill="black"/>
<path d="M75.1173 37.3967C75.4017 37.3963 75.6743 37.283 75.8752 37.0818C76.0762 36.8806 76.189 36.6078 76.189 36.3235V12.8778C76.1879 12.1334 75.8916 11.4199 75.3651 10.8937C74.8386 10.3675 74.125 10.0716 73.3806 10.0708H41.8302C42.0726 8.41221 41.7315 6.72089 40.8651 5.28594C39.9987 3.85099 38.6609 2.76147 37.0802 2.20362C36.8149 2.11052 36.5237 2.12523 36.2692 2.24459C36.0147 2.36395 35.8171 2.57842 35.719 2.8419L33.0249 10.0708H17.3351L14.6439 2.8419C14.5458 2.57842 14.3483 2.36395 14.0937 2.24459C13.8392 2.12523 13.548 2.11052 13.2827 2.20362C11.702 2.76147 10.3642 3.85099 9.4978 5.28594C8.63141 6.72089 8.29028 8.41221 8.53272 10.0708H6.31506C5.57071 10.0716 4.85706 10.3675 4.33059 10.8937C3.80412 11.4199 3.5078 12.1334 3.50662 12.8778V46.4009C3.5078 47.1452 3.80412 47.8587 4.33059 48.3849C4.85706 48.9111 5.57071 49.2071 6.31506 49.2078H18.4469L16.2411 55.132C14.9757 54.3728 13.5658 53.8861 12.1015 53.7032C10.6372 53.5202 9.15088 53.6449 7.73759 54.0694C6.3243 54.4938 5.01518 55.2087 3.89402 56.1681C2.77286 57.1276 1.86435 58.3105 1.22664 59.6413C0.588917 60.972 0.236037 62.4212 0.190579 63.8962C0.14512 65.3711 0.408084 66.8393 0.962641 68.2068C1.5172 69.5743 2.35114 70.811 3.41108 71.8376C4.47103 72.8643 5.73364 73.6584 7.11811 74.1691C8.27775 74.5993 9.50461 74.8199 10.7415 74.8207C12.2721 74.8177 13.7839 74.4824 15.1723 73.8381C16.468 73.2445 17.6328 72.3994 18.5991 71.3518C19.5654 70.3042 20.3139 69.0751 20.8011 67.7358L25.18 55.8222L29.5574 67.7358C30.0448 69.075 30.7934 70.304 31.7597 71.3516C32.7259 72.3991 33.8906 73.2443 35.1862 73.8381C36.5751 74.4825 38.0874 74.8177 39.6185 74.8207C41.3466 74.813 43.0466 74.3826 44.5702 73.5671C46.0938 72.7517 47.3948 71.5759 48.3598 70.1422C49.3247 68.7086 49.9243 67.0606 50.1062 65.3421C50.2881 63.6236 50.0469 61.8867 49.4035 60.2828C48.8329 58.859 47.9602 57.576 46.8456 56.5223C45.731 55.4686 44.401 54.6693 42.9474 54.1796C41.4939 53.6899 39.9514 53.5215 38.4264 53.6859C36.9014 53.8503 35.4302 54.3437 34.1144 55.132L31.9087 49.2078H73.3806C74.125 49.2071 74.8386 48.9111 75.3651 48.3849C75.8916 47.8587 76.1879 47.1452 76.189 46.4009V43.1516C76.1787 42.8741 76.0612 42.6113 75.8612 42.4186C75.6612 42.2259 75.3943 42.1183 75.1166 42.1183C74.8389 42.1183 74.572 42.2259 74.372 42.4186C74.172 42.6113 74.0544 42.8741 74.0441 43.1516V46.4009C74.0437 46.5766 73.9736 46.745 73.8493 46.8691C73.7249 46.9932 73.5563 47.0629 73.3806 47.0629H28.3922L41.2038 12.2157H73.3806C73.5563 12.2157 73.7249 12.2854 73.8493 12.4095C73.9736 12.5337 74.0437 12.702 74.0441 12.8778V36.3309C74.0461 36.6142 74.16 36.8853 74.3611 37.085C74.5621 37.2846 74.834 37.3967 75.1173 37.3967ZM11.0844 6.85565C11.5066 5.95265 12.1869 5.19493 13.0393 4.67807L15.0476 10.0708H10.7073C10.4759 8.98679 10.6084 7.85671 11.0844 6.85565ZM6.31506 47.0629C6.13934 47.0629 5.9708 46.9932 5.84641 46.8691C5.72202 46.745 5.65194 46.5766 5.65155 46.4009V12.8778C5.65194 12.702 5.72202 12.5337 5.84641 12.4095C5.9708 12.2854 6.13934 12.2157 6.31506 12.2157H23.5338V15.0717C23.5284 15.2159 23.5522 15.3597 23.6037 15.4945C23.6552 15.6293 23.7333 15.7523 23.8334 15.8562C23.9335 15.9601 24.0536 16.0428 24.1864 16.0992C24.3192 16.1557 24.462 16.1848 24.6063 16.1848C24.7506 16.1848 24.8934 16.1557 25.0262 16.0992C25.159 16.0428 25.279 15.9601 25.3791 15.8562C25.4792 15.7523 25.5574 15.6293 25.6089 15.4945C25.6603 15.3597 25.6841 15.2159 25.6787 15.0717V12.2157H32.2204L25.6847 29.7803V21.8137C25.6743 21.5362 25.5568 21.2734 25.3568 21.0808C25.1568 20.8881 24.8899 20.7804 24.6122 20.7804C24.3345 20.7804 24.0676 20.8881 23.8676 21.0808C23.6676 21.2734 23.5501 21.5362 23.5397 21.8137V35.5412L19.2499 47.0629H6.31506ZM29.6198 49.2078L32.5885 57.1745C32.6479 57.3336 32.7442 57.4763 32.8695 57.591C32.9947 57.7056 33.1454 57.7889 33.3092 57.834C33.4729 57.879 33.645 57.8846 33.8113 57.8502C33.9776 57.8158 34.1334 57.7424 34.2658 57.6361C35.2207 56.8623 36.3328 56.3059 37.5246 56.0054C38.7163 55.705 39.9593 55.6678 41.1669 55.8965C42.3745 56.1252 43.5178 56.6142 44.5172 57.3296C45.5166 58.0449 46.3482 58.9694 46.9541 60.0388C47.56 61.1081 47.9256 62.2966 48.0256 63.5216C48.1256 64.7466 47.9574 65.9787 47.5329 67.1321C47.1084 68.2855 46.4377 69.3326 45.5674 70.2005C44.6972 71.0684 43.6483 71.7363 42.4937 72.1578C41.4606 72.54 40.3618 72.7131 39.2613 72.667C38.1607 72.6208 37.0802 72.3564 36.0827 71.8891C35.0431 71.4127 34.1087 70.7342 33.3337 69.8933C32.5588 69.0523 31.9588 68.0656 31.5687 66.9906L26.32 52.708L27.6069 49.2034L29.6198 49.2078ZM39.4493 10.7729L18.7883 66.9951C18.3979 68.0699 17.7978 69.0565 17.0229 69.8974C16.248 70.7383 15.3137 71.4168 14.2743 71.8935C12.7411 72.5953 11.0327 72.821 9.36993 72.5416C7.70712 72.2622 6.16634 71.4905 4.94675 70.3262C3.72715 69.1619 2.8848 67.6585 2.52858 66.0105C2.17235 64.3624 2.31863 62.6454 2.9485 61.0814C3.44018 59.8547 4.21236 58.7603 5.20314 57.8859C6.19392 57.0114 7.37577 56.3811 8.65397 56.0456C9.93218 55.7101 11.2712 55.6787 12.5637 55.9539C13.8563 56.229 15.0664 56.8031 16.0971 57.6302C16.2294 57.7365 16.3851 57.8099 16.5513 57.8443C16.7175 57.8787 16.8895 57.8731 17.0531 57.8281C17.2168 57.783 17.3673 57.6997 17.4925 57.585C17.6176 57.4704 17.7138 57.3276 17.773 57.1685L21 48.5042L37.3281 4.67213C38.3331 5.28502 39.0946 6.22742 39.4827 7.33876C39.8709 8.45011 39.8617 9.66165 39.4567 10.767L39.4493 10.7729Z" fill="black"/>
<path d="M44.6928 62.3435C44.2571 61.1568 43.4234 60.1579 42.3338 59.517C41.2442 58.8761 39.9661 58.6328 38.7172 58.8287C37.4684 59.0245 36.3261 59.6472 35.4849 60.5909C34.6437 61.5345 34.1558 62.7406 34.1042 64.0037C34.0526 65.2667 34.4405 66.5086 35.2019 67.5177C35.9633 68.5268 37.051 69.2407 38.2798 69.5377C39.5085 69.8347 40.8022 69.6965 41.9404 69.1466C43.0787 68.5967 43.9911 67.6692 44.5221 66.522C45.1302 65.2068 45.1916 63.704 44.6928 62.3435ZM42.5761 65.621C42.2538 66.3184 41.6997 66.8825 41.0081 67.2171C40.3166 67.5518 39.5303 67.6363 38.7835 67.4562C38.0366 67.2761 37.3753 66.8426 36.9122 66.2296C36.4491 65.6166 36.2129 64.8619 36.2439 64.0943C36.2749 63.3266 36.5711 62.5935 37.0821 62.0197C37.593 61.446 38.2871 61.0672 39.0461 60.9479C39.805 60.8286 40.5819 60.9761 41.2442 61.3654C41.9066 61.7547 42.4135 62.3616 42.6785 63.0827C42.8304 63.4915 42.8995 63.9264 42.882 64.3621C42.8644 64.7979 42.7604 65.2258 42.5761 65.621Z" fill="black"/>
<path d="M15.8141 28.5827V23.6383C17.5196 23.76 18.152 24.5393 18.7368 24.5393C19.4671 24.5393 19.8085 23.6145 19.8085 23.1514C19.8085 21.9639 17.4706 21.4473 15.8141 21.3984V20.7408C15.8141 20.4439 15.4489 20.1797 15.0837 20.1797C14.6696 20.1797 14.3772 20.4484 14.3772 20.7408V21.4473C12.0645 21.6908 9.75039 22.908 9.75039 25.9762C9.75039 29.0934 12.1862 29.9706 14.3772 30.7499V36.4722C11.8938 36.2777 11.2362 34.5737 10.4317 34.5737C9.82313 34.5737 9.3125 35.3767 9.3125 35.9616C9.3125 37.1491 11.358 38.7819 14.3772 38.8353V39.5909C14.3772 39.8877 14.6741 40.1505 15.0837 40.1505C15.4489 40.1505 15.8141 39.8818 15.8141 39.5909V38.7626C18.4444 38.3974 20.2464 36.7409 20.2464 33.7454C20.2464 30.4338 17.9337 29.362 15.8141 28.5827ZM14.5241 28.1196C13.2327 27.6327 12.1862 27.1206 12.1862 25.7327C12.1862 24.4666 13.16 23.858 14.5241 23.6873V28.1196ZM15.6686 36.4247V31.2858C16.8561 31.7964 17.812 32.4733 17.812 34.0126C17.812 35.402 16.9837 36.1813 15.6686 36.4247Z" fill="black"/>
</g>
<defs>
<clipPath id="clip0">
<rect width="76" height="76" fill="white" transform="translate(0.189453 0.481934)"/>
</clipPath>
</defs>
</svg>
