<svg width="61" height="61" viewBox="0 0 61 61" fill="none" xmlns="http://www.w3.org/2000/svg">
<g clip-path="url(#clipXX)">
<path d="M9.94631 36.2295H2.39477C1.99377 36.2295 1.6092 36.388 1.32565 36.6702C1.04211 36.9524 0.882813 37.3351 0.882812 37.7342V60.0748H11.4594V37.7342C11.4594 37.5365 11.4203 37.3407 11.3442 37.1581C11.2682 36.9755 11.1567 36.8095 11.0162 36.6698C10.8757 36.5301 10.7088 36.4192 10.5253 36.3437C10.3417 36.2681 10.145 36.2293 9.94631 36.2295Z" fill="#EF882B"/>
<path d="M5.92738 36.2295H2.39477C1.99377 36.2295 1.6092 36.388 1.32565 36.6702C1.04211 36.9524 0.882813 37.3351 0.882812 37.7342V60.0748H4.41542V37.7342C4.41542 37.3351 4.57472 36.9524 4.85826 36.6702C5.14181 36.388 5.52638 36.2295 5.92738 36.2295Z" fill="#CC6611"/>
<path d="M25.9307 30.335H18.3791C17.9781 30.335 17.5936 30.4935 17.31 30.7757C17.0265 31.0579 16.8672 31.4406 16.8672 31.8396V60.0748H27.4379V31.8396C27.4379 31.4414 27.2793 31.0594 26.9968 30.7773C26.7142 30.4953 26.3309 30.3362 25.9307 30.335Z" fill="#EF882B"/>
<path d="M21.9118 30.335H18.3791C17.9782 30.335 17.5936 30.4935 17.31 30.7757C17.0265 31.0579 16.8672 31.4406 16.8672 31.8396V60.0748H20.3998V31.8396C20.3998 31.4406 20.5591 31.0579 20.8426 30.7757C21.1262 30.4935 21.5108 30.335 21.9118 30.335Z" fill="#CC6611"/>
<path d="M41.9103 24.4414H34.3588C33.9586 24.4427 33.5753 24.6017 33.2927 24.8838C33.0102 25.1658 32.8516 25.5478 32.8516 25.9461V60.0746H43.427V25.9461C43.427 25.7481 43.3878 25.5521 43.3115 25.3692C43.2352 25.1863 43.1234 25.0202 42.9825 24.8805C42.8416 24.7407 42.6744 24.6299 42.4904 24.5546C42.3064 24.4793 42.1093 24.4408 41.9103 24.4414Z" fill="#EF882B"/>
<path d="M37.8914 24.4414H34.3588C33.9586 24.4426 33.5753 24.6017 33.2927 24.8838C33.0102 25.1658 32.8516 25.5478 32.8516 25.9461V60.0746H36.3842V25.9461C36.3842 25.5478 36.5428 25.1658 36.8253 24.8838C37.1079 24.6017 37.4912 24.4426 37.8914 24.4414Z" fill="#CC6611"/>
<path d="M57.8955 18.5469H50.344C50.1449 18.5469 49.9479 18.586 49.764 18.662C49.5802 18.738 49.4133 18.8493 49.2728 18.9897C49.1323 19.13 49.0211 19.2966 48.9454 19.4798C48.8698 19.663 48.8313 19.8593 48.832 20.0574V60.0746H59.4075V20.0574C59.4083 19.8593 59.3697 19.663 59.2941 19.4798C59.2185 19.2966 59.1072 19.13 58.9667 18.9897C58.8263 18.8493 58.6593 18.738 58.4755 18.662C58.2917 18.586 58.0946 18.5469 57.8955 18.5469Z" fill="#EF882B"/>
<path d="M53.8766 18.5469H50.344C50.145 18.5469 49.9479 18.586 49.764 18.662C49.5802 18.738 49.4133 18.8493 49.2728 18.9897C49.1323 19.13 49.0211 19.2966 48.9454 19.4798C48.8698 19.663 48.8313 19.8593 48.832 20.0574V60.0746H52.3647V20.0574C52.3639 19.8593 52.4024 19.663 52.478 19.4798C52.5537 19.2966 52.6649 19.13 52.8054 18.9897C52.9459 18.8493 53.1128 18.738 53.2966 18.662C53.4805 18.586 53.6776 18.5469 53.8766 18.5469Z" fill="#CC6611"/>
<path d="M56.688 2.40647L47.1347 2.06897C46.9565 2.06264 46.7801 2.10575 46.6252 2.19349C46.4703 2.28123 46.3429 2.41014 46.2574 2.56579C46.1718 2.72144 46.1315 2.89771 46.1409 3.07487C46.1502 3.25203 46.2089 3.42311 46.3104 3.56897L47.8518 5.77678C42.6636 8.8717 26.058 17.5694 3.4375 17.5694V23.8846C18.7667 23.8846 31.4299 20.1065 39.3524 16.9365C45.1494 14.6174 49.3061 12.2971 51.481 10.9764L52.8481 12.9334C52.9496 13.0791 53.0899 13.1939 53.2533 13.2647C53.4167 13.3356 53.5966 13.3598 53.773 13.3346C53.9494 13.3094 54.1152 13.2358 54.252 13.1221C54.3887 13.0084 54.491 12.8591 54.5473 12.6908L57.5653 3.66741C57.6134 3.52623 57.6275 3.37582 57.6067 3.22821C57.5859 3.0806 57.5306 2.9399 57.4454 2.81735C57.3601 2.6948 57.2472 2.59381 57.1157 2.52246C56.9842 2.45112 56.8377 2.41139 56.688 2.40647Z" fill="#79AAE8"/>
<path d="M11.4598 60.9561C11.694 60.9561 11.9186 60.8635 12.0843 60.6986C12.2499 60.5338 12.3429 60.3102 12.3429 60.0771V37.7342C12.342 37.1021 12.0892 36.4962 11.64 36.0493C11.1908 35.6025 10.5818 35.3512 9.94665 35.3506H2.39511C1.76008 35.3512 1.15124 35.6025 0.702203 36.0494C0.253168 36.4963 0.000626637 37.1022 3.14038e-06 37.7342V60.0748C-0.000306661 60.1904 0.0223081 60.305 0.066552 60.4119C0.110796 60.5188 0.175799 60.6159 0.257838 60.6978C0.339877 60.7797 0.43734 60.8446 0.544643 60.8889C0.651946 60.9332 0.76698 60.9561 0.883155 60.9561H11.4598ZM1.76631 37.7342C1.76631 37.5682 1.83256 37.409 1.95048 37.2917C2.0684 37.1743 2.22834 37.1084 2.39511 37.1084H9.94665C10.0292 37.1084 10.111 37.1246 10.1873 37.156C10.2636 37.1875 10.3329 37.2336 10.3913 37.2917C10.4497 37.3498 10.496 37.4188 10.5276 37.4947C10.5592 37.5706 10.5755 37.652 10.5755 37.7342V59.1982H1.76631V37.7342Z" fill="black"/>
<path d="M18.3795 29.4561C17.7445 29.4567 17.1356 29.708 16.6866 30.1549C16.2375 30.6018 15.985 31.2077 15.9844 31.8396V60.0748C15.9844 60.3079 16.0774 60.5315 16.243 60.6963C16.4087 60.8611 16.6333 60.9537 16.8675 60.9537H27.4383C27.5543 60.9539 27.6692 60.9312 27.7764 60.8871C27.8836 60.843 27.9811 60.7783 28.0631 60.6966C28.1451 60.615 28.2102 60.518 28.2545 60.4113C28.2988 60.3046 28.3216 60.1903 28.3214 60.0748V31.8396C28.3208 31.2085 28.0689 30.6033 27.6209 30.1565C27.1729 29.7098 26.5652 29.4579 25.931 29.4561H18.3795ZM26.5598 31.8396V59.1982H17.7507V31.8396C17.751 31.6738 17.8173 31.5148 17.9352 31.3975C18.0531 31.2802 18.2128 31.2142 18.3795 31.2139H25.931C26.0977 31.2142 26.2575 31.2802 26.3753 31.3975C26.4932 31.5148 26.5595 31.6738 26.5598 31.8396Z" fill="black"/>
<path d="M44.3066 60.0746V25.9461C44.306 25.3141 44.0534 24.7082 43.6044 24.2613C43.1554 23.8144 42.5465 23.5631 41.9115 23.5625H34.36C33.7249 23.5631 33.1161 23.8144 32.667 24.2613C32.218 24.7082 31.9655 25.3141 31.9648 25.9461V60.0746C31.9645 60.1906 31.9873 60.3056 32.0318 60.4128C32.0764 60.52 32.1418 60.6174 32.2243 60.6993C32.3069 60.7812 32.4049 60.8461 32.5127 60.8901C32.6206 60.9341 32.7361 60.9565 32.8527 60.9559H43.4282C43.662 60.9546 43.8858 60.8612 44.0504 60.696C44.2151 60.5308 44.3072 60.3073 44.3066 60.0746ZM42.5403 59.1957H33.7312V25.9461C33.7312 25.7801 33.7974 25.621 33.9153 25.5036C34.0332 25.3862 34.1932 25.3203 34.36 25.3203H41.9115C42.0783 25.3203 42.2382 25.3862 42.3561 25.5036C42.4741 25.621 42.5403 25.7801 42.5403 25.9461V59.1981V59.1957Z" fill="black"/>
<path d="M48.8324 60.9559H59.4078C59.6421 60.9559 59.8667 60.8633 60.0323 60.6984C60.1979 60.5336 60.291 60.3101 60.291 60.077V20.0574C60.2904 19.4254 60.0378 18.8195 59.5888 18.3727C59.1398 17.9258 58.5309 17.6744 57.8959 17.6738H50.3443C49.7093 17.6744 49.1005 17.9258 48.6514 18.3727C48.2024 18.8195 47.9498 19.4254 47.9492 20.0574V60.0746C47.9488 60.1903 47.9713 60.3049 48.0155 60.4118C48.0596 60.5188 48.1246 60.6161 48.2067 60.6979C48.2888 60.7798 48.3863 60.8448 48.4937 60.889C48.6011 60.9333 48.7162 60.956 48.8324 60.9559ZM49.7155 20.0574C49.7158 19.8915 49.7822 19.7326 49.9 19.6153C50.0179 19.498 50.1777 19.432 50.3443 19.4316H57.8959C58.0626 19.432 58.2223 19.498 58.3402 19.6153C58.458 19.7326 58.5244 19.8915 58.5247 20.0574V59.198H49.7155V20.0574Z" fill="black"/>
<path d="M52.1207 13.4367C52.3161 13.7161 52.5858 13.9359 52.8996 14.0715C53.2134 14.2071 53.5589 14.2531 53.8975 14.2045C54.2361 14.1559 54.5544 14.0144 54.8169 13.7961C55.0793 13.5777 55.2756 13.291 55.3836 12.968L58.4017 3.94452C58.4921 3.67404 58.5179 3.38631 58.477 3.10417C58.4362 2.82202 58.3298 2.55324 58.1664 2.31915C58.0029 2.08506 57.7869 1.89211 57.5355 1.75561C57.284 1.61911 57.004 1.54282 56.7178 1.53281L47.1632 1.19062C46.8213 1.17848 46.4828 1.26132 46.1855 1.42984C45.8882 1.59837 45.6439 1.84594 45.48 2.14482C45.3161 2.4437 45.239 2.78209 45.2574 3.12209C45.2758 3.4621 45.3889 3.79029 45.5842 4.06992L46.5815 5.4996C41.4192 8.46445 29.2494 14.4492 12.6685 16.2023C12.4454 16.228 12.2405 16.3373 12.0954 16.508C11.9504 16.6787 11.8762 16.898 11.8879 17.1212C11.8996 17.3445 11.9964 17.5549 12.1584 17.7096C12.3205 17.8644 12.5358 17.9519 12.7604 17.9543C12.7917 17.956 12.8232 17.956 12.8546 17.9543C30.7331 16.0617 43.6012 9.33632 48.3043 6.53202C48.4072 6.46936 48.4962 6.38657 48.566 6.28866C48.6357 6.19076 48.6848 6.07978 48.7103 5.96244C48.7357 5.8451 48.7369 5.72385 48.7139 5.60602C48.6909 5.48819 48.6441 5.37624 48.5763 5.27695L47.0349 3.06562C47.0274 3.054 47.0233 3.04059 47.0229 3.02681C47.0225 3.01303 47.0258 2.9994 47.0326 2.98737C47.0394 2.97534 47.0493 2.96537 47.0613 2.95851C47.0733 2.95165 47.087 2.94817 47.1008 2.94843L56.6554 3.28593C56.6672 3.2862 56.6789 3.28926 56.6894 3.29486C56.6998 3.30045 56.7088 3.30843 56.7156 3.31815C56.7223 3.32786 56.7267 3.33902 56.7283 3.35074C56.7299 3.36245 56.7287 3.37437 56.7248 3.38554L53.7068 12.409C53.7024 12.4224 53.6943 12.4344 53.6834 12.4435C53.6725 12.4526 53.6594 12.4585 53.6453 12.4606C53.6312 12.4626 53.6169 12.4608 53.6038 12.4552C53.5908 12.4496 53.5796 12.4405 53.5714 12.4289L52.2043 10.4754C52.0759 10.2911 51.8816 10.1626 51.6611 10.1164C51.4405 10.0702 51.2106 10.1098 51.0185 10.2269C48.959 11.4785 45.5135 13.391 40.794 15.3914C40.5785 15.4828 40.4083 15.6556 40.3208 15.8719C40.2334 16.0881 40.2358 16.3301 40.3277 16.5445C40.4195 16.759 40.5931 16.9283 40.8104 17.0154C41.0277 17.1024 41.2709 17.1 41.4863 17.0086C44.8344 15.603 48.0866 13.9812 51.2222 12.1535L52.1207 13.4367Z" fill="black"/>
<path d="M9.28747 18.2549C9.40344 18.2472 9.51676 18.2168 9.62095 18.1656C9.72514 18.1143 9.81816 18.0431 9.8947 17.956C9.97125 17.869 10.0298 17.7678 10.067 17.6582C10.1043 17.5486 10.1195 17.4328 10.1117 17.3174C10.104 17.202 10.0735 17.0892 10.022 16.9855C9.97046 16.8818 9.89892 16.7892 9.81144 16.7131C9.72397 16.6369 9.62227 16.5786 9.51216 16.5415C9.40205 16.5045 9.28569 16.4894 9.16971 16.4971C7.25268 16.6225 5.3227 16.6857 3.43393 16.6857C3.19971 16.6857 2.97507 16.7783 2.80945 16.9432C2.64383 17.108 2.55078 17.3315 2.55078 17.5646V23.8799C2.55078 24.113 2.64383 24.3365 2.80945 24.5014C2.97507 24.6662 3.19971 24.7588 3.43393 24.7588C18.0566 24.7588 30.2582 21.317 37.9193 18.4307C38.1246 18.3388 38.2869 18.1725 38.3731 17.9655C38.4593 17.7586 38.4628 17.5267 38.383 17.3173C38.3032 17.1078 38.146 16.9366 37.9436 16.8386C37.7412 16.7406 37.5088 16.7233 37.294 16.79C29.925 19.5662 18.2815 22.8662 4.32297 23.001V18.4436C5.9621 18.4271 7.6295 18.3639 9.28747 18.2549Z" fill="black"/>
</g>
<defs>
<clipPath id="clipXX">
<rect width="60.2899" height="60" fill="white" transform="translate(0 0.956055)"/>
</clipPath>
</defs>
</svg>
