<svg width="61" height="61" viewBox="0 0 61 61" fill="none" xmlns="http://www.w3.org/2000/svg">
<g clip-path="url(#clip0)">
<path d="M10.1358 36.0571H2.58422C2.18323 36.0571 1.79865 36.2157 1.51511 36.4978C1.23156 36.78 1.07227 37.1627 1.07227 37.5618V59.9024H11.6489V37.5618C11.6489 37.3641 11.6097 37.1684 11.5337 36.9857C11.4576 36.8031 11.3462 36.6372 11.2056 36.4974C11.0651 36.3577 10.8983 36.2469 10.7147 36.1713C10.5311 36.0958 10.3344 36.057 10.1358 36.0571Z" fill="#EF882B"/>
<path d="M6.11683 36.0571H2.58422C2.18323 36.0571 1.79865 36.2157 1.51511 36.4978C1.23156 36.78 1.07227 37.1627 1.07227 37.5618V59.9024H4.60487V37.5618C4.60487 37.1627 4.76417 36.78 5.04772 36.4978C5.33126 36.2157 5.71583 36.0571 6.11683 36.0571Z" fill="#CC6611"/>
<path d="M26.1182 30.1626H18.5666C18.1656 30.1626 17.7811 30.3211 17.4975 30.6033C17.214 30.8855 17.0547 31.2682 17.0547 31.6673V59.9024H27.6254V31.6673C27.6254 31.269 27.4668 30.887 27.1843 30.605C26.9017 30.3229 26.5184 30.1638 26.1182 30.1626Z" fill="#EF882B"/>
<path d="M22.0993 30.1626H18.5666C18.1657 30.1626 17.7811 30.3211 17.4975 30.6033C17.214 30.8855 17.0547 31.2682 17.0547 31.6673V59.9024H20.5873V31.6673C20.5873 31.2682 20.7466 30.8855 21.0301 30.6033C21.3137 30.3211 21.6983 30.1626 22.0993 30.1626Z" fill="#CC6611"/>
<path d="M42.1018 24.2691H34.5502C34.15 24.2703 33.7667 24.4294 33.4841 24.7114C33.2016 24.9935 33.043 25.3755 33.043 25.7737V59.9023H43.6184V25.7737C43.6184 25.5757 43.5792 25.3797 43.5029 25.1968C43.4266 25.014 43.3148 24.8479 43.1739 24.7081C43.033 24.5683 42.8658 24.4576 42.6818 24.3822C42.4978 24.3069 42.3007 24.2684 42.1018 24.2691Z" fill="#EF882B"/>
<path d="M38.0828 24.269H34.5502C34.15 24.2703 33.7667 24.4294 33.4841 24.7114C33.2016 24.9935 33.043 25.3755 33.043 25.7737V59.9022H36.5756V25.7737C36.5756 25.3755 36.7342 24.9935 37.0168 24.7114C37.2993 24.4294 37.6826 24.2703 38.0828 24.269Z" fill="#CC6611"/>
<path d="M58.085 18.3745H50.5335C50.3344 18.3745 50.1373 18.4136 49.9535 18.4896C49.7697 18.5656 49.6027 18.677 49.4622 18.8173C49.3218 18.9576 49.2105 19.1242 49.1349 19.3074C49.0593 19.4907 49.0207 19.687 49.0215 19.8851V59.9023H59.5969V19.8851C59.5977 19.687 59.5592 19.4907 59.4835 19.3074C59.4079 19.1242 59.2967 18.9576 59.1562 18.8173C59.0157 18.677 58.8488 18.5656 58.665 18.4896C58.4811 18.4136 58.284 18.3745 58.085 18.3745Z" fill="#EF882B"/>
<path d="M54.0661 18.3745H50.5335C50.3344 18.3745 50.1373 18.4136 49.9535 18.4896C49.7697 18.5656 49.6027 18.677 49.4622 18.8173C49.3218 18.9576 49.2105 19.1242 49.1349 19.3074C49.0593 19.4907 49.0207 19.687 49.0215 19.8851V59.9023H52.5541V19.8851C52.5533 19.687 52.5919 19.4907 52.6675 19.3074C52.7431 19.1242 52.8544 18.9576 52.9949 18.8173C53.1353 18.677 53.3023 18.5656 53.4861 18.4896C53.6699 18.4136 53.867 18.3745 54.0661 18.3745Z" fill="#CC6611"/>
<path d="M56.8755 2.23459L47.3222 1.89709C47.144 1.89076 46.9676 1.93388 46.8127 2.02162C46.6578 2.10936 46.5304 2.23826 46.4449 2.39391C46.3593 2.54957 46.319 2.72583 46.3284 2.903C46.3377 3.08016 46.3964 3.25124 46.4979 3.39709L48.0393 5.60491C42.8511 8.69983 26.2455 17.3975 3.625 17.3975V23.7127C18.9542 23.7127 31.6174 19.9346 39.5399 16.7647C45.3369 14.4455 49.4936 12.1252 51.6685 10.8045L53.0356 12.7615C53.1371 12.9073 53.2774 13.022 53.4408 13.0928C53.6042 13.1637 53.7841 13.1879 53.9605 13.1627C54.1369 13.1375 54.3027 13.064 54.4395 12.9503C54.5762 12.8366 54.6785 12.6872 54.7348 12.519L57.7528 3.49553C57.8009 3.35435 57.815 3.20394 57.7942 3.05634C57.7734 2.90873 57.7181 2.76802 57.6329 2.64547C57.5476 2.52292 57.4347 2.42194 57.3032 2.35059C57.1717 2.27924 57.0252 2.23952 56.8755 2.23459Z" fill="#79AAE8"/>
<path d="M11.6492 60.7837C11.8835 60.7837 12.1081 60.6911 12.2737 60.5263C12.4393 60.3614 12.5324 60.1379 12.5324 59.9048V37.5618C12.5315 36.9297 12.2787 36.3238 11.8294 35.877C11.3802 35.4301 10.7712 35.1788 10.1361 35.1782H2.58456C1.94953 35.1788 1.34069 35.4302 0.891656 35.877C0.442621 36.3239 0.19008 36.9298 0.189456 37.5618V59.9024C0.189146 60.0181 0.211761 60.1326 0.256005 60.2395C0.300249 60.3464 0.365252 60.4436 0.447291 60.5254C0.529331 60.6073 0.626793 60.6722 0.734096 60.7166C0.841399 60.7609 0.956433 60.7837 1.07261 60.7837H11.6492ZM1.95576 37.5618C1.95576 37.3958 2.02201 37.2367 2.13993 37.1193C2.25786 37.002 2.4178 36.936 2.58456 36.936H10.1361C10.2187 36.936 10.3004 36.9522 10.3767 36.9837C10.453 37.0151 10.5223 37.0612 10.5807 37.1193C10.6391 37.1774 10.6854 37.2464 10.717 37.3223C10.7486 37.3983 10.7649 37.4796 10.7649 37.5618V59.0259H1.95576V37.5618Z" fill="black"/>
<path d="M18.567 29.2837C17.932 29.2843 17.3231 29.5356 16.8741 29.9825C16.425 30.4294 16.1725 31.0353 16.1719 31.6673V59.9024C16.1719 60.1355 16.2649 60.3591 16.4305 60.5239C16.5962 60.6887 16.8208 60.7813 17.055 60.7813H27.6258C27.7418 60.7815 27.8567 60.7589 27.9639 60.7148C28.0711 60.6706 28.1686 60.6059 28.2506 60.5243C28.3326 60.4426 28.3977 60.3457 28.442 60.239C28.4863 60.1323 28.5091 60.0179 28.5089 59.9024V31.6673C28.5083 31.0361 28.2564 30.4309 27.8084 29.9842C27.3604 29.5374 26.7527 29.2856 26.1185 29.2837H18.567ZM26.7473 31.6673V59.0259H17.9382V31.6673C17.9385 31.5014 18.0048 31.3424 18.1227 31.2251C18.2406 31.1078 18.4003 31.0418 18.567 31.0415H26.1185C26.2852 31.0418 26.445 31.1078 26.5628 31.2251C26.6807 31.3424 26.747 31.5014 26.7473 31.6673Z" fill="black"/>
<path d="M44.4961 59.9023V25.7737C44.4954 25.1418 44.2429 24.5358 43.7939 24.089C43.3448 23.6421 42.736 23.3908 42.101 23.3901H34.5494C33.9144 23.3908 33.3055 23.6421 32.8565 24.089C32.4075 24.5358 32.1549 25.1418 32.1543 25.7737V59.9023C32.154 60.0183 32.1768 60.1332 32.2213 60.2404C32.2658 60.3476 32.3313 60.445 32.4138 60.5269C32.4963 60.6088 32.5944 60.6737 32.7022 60.7177C32.81 60.7618 32.9256 60.7841 33.0422 60.7835H43.6176C43.8514 60.7823 44.0752 60.6888 44.2399 60.5236C44.4046 60.3584 44.4967 60.135 44.4961 59.9023ZM42.7298 59.0233H33.9206V25.7737C33.9206 25.6078 33.9869 25.4486 34.1048 25.3312C34.2227 25.2139 34.3826 25.1479 34.5494 25.1479H42.101C42.2677 25.1479 42.4277 25.2139 42.5456 25.3312C42.6635 25.4486 42.7298 25.6078 42.7298 25.7737V59.0257V59.0233Z" fill="black"/>
<path d="M49.0199 60.7835H59.5953C59.8296 60.7835 60.0542 60.6909 60.2198 60.5261C60.3854 60.3612 60.4785 60.1377 60.4785 59.9046V19.8851C60.4779 19.2531 60.2253 18.6472 59.7763 18.2003C59.3273 17.7534 58.7184 17.5021 58.0834 17.5015H50.5318C49.8968 17.5021 49.288 17.7534 48.8389 18.2003C48.3899 18.6472 48.1373 19.2531 48.1367 19.8851V59.9022C48.1363 60.0179 48.1588 60.1325 48.203 60.2395C48.2471 60.3465 48.3121 60.4437 48.3942 60.5256C48.4763 60.6075 48.5738 60.6724 48.6812 60.7167C48.7886 60.7609 48.9037 60.7836 49.0199 60.7835ZM49.903 19.8851C49.9033 19.7192 49.9697 19.5602 50.0875 19.4429C50.2054 19.3256 50.3652 19.2596 50.5318 19.2593H58.0834C58.2501 19.2596 58.4098 19.3256 58.5277 19.4429C58.6455 19.5602 58.7119 19.7192 58.7122 19.8851V59.0257H49.903V19.8851Z" fill="black"/>
<path d="M52.3101 13.2643C52.5056 13.5438 52.7753 13.7635 53.0891 13.8991C53.4029 14.0347 53.7484 14.0808 54.087 14.0321C54.4256 13.9835 54.7439 13.8421 55.0063 13.6237C55.2688 13.4053 55.465 13.1186 55.5731 12.7956L58.5911 3.77216C58.6815 3.50168 58.7073 3.21395 58.6665 2.9318C58.6256 2.64966 58.5193 2.38088 58.3558 2.14679C58.1924 1.9127 57.9764 1.71974 57.7249 1.58324C57.4735 1.44675 57.1935 1.37046 56.9072 1.36044L47.3527 1.01826C47.0108 1.00612 46.6722 1.08895 46.3749 1.25748C46.0776 1.42601 45.8333 1.67357 45.6694 1.97245C45.5055 2.27133 45.4284 2.60972 45.4468 2.94973C45.4652 3.28973 45.5784 3.61793 45.7736 3.89755L46.771 5.32724C41.6087 8.29208 29.4388 14.2768 12.858 16.03C12.6348 16.0556 12.4299 16.1649 12.2849 16.3356C12.1399 16.5063 12.0657 16.7256 12.0774 16.9489C12.0891 17.1721 12.1858 17.3825 12.3479 17.5373C12.51 17.692 12.7252 17.7795 12.9498 17.7819C12.9812 17.7837 13.0126 17.7837 13.044 17.7819C30.9225 15.8893 43.7907 9.16396 48.4937 6.35966C48.5966 6.297 48.6856 6.2142 48.7554 6.1163C48.8252 6.01839 48.8743 5.90741 48.8997 5.79008C48.9252 5.67274 48.9264 5.55148 48.9034 5.43366C48.8803 5.31583 48.8335 5.20388 48.7657 5.10458L47.2244 2.89326C47.2169 2.88164 47.2127 2.86823 47.2123 2.85445C47.2119 2.84067 47.2153 2.82704 47.2221 2.81501C47.2288 2.80298 47.2387 2.793 47.2508 2.78615C47.2628 2.77929 47.2764 2.77581 47.2903 2.77607L56.8448 3.11357C56.8567 3.11384 56.8683 3.11689 56.8788 3.12249C56.8893 3.12809 56.8983 3.13607 56.905 3.14578C56.9118 3.15549 56.9162 3.16666 56.9178 3.17837C56.9194 3.19009 56.9182 3.20201 56.9143 3.21318L53.8963 12.2366C53.8918 12.25 53.8837 12.262 53.8729 12.2711C53.862 12.2802 53.8488 12.2861 53.8347 12.2882C53.8207 12.2903 53.8063 12.2884 53.7933 12.2828C53.7802 12.2772 53.769 12.2681 53.7609 12.2565L52.3937 10.303C52.2654 10.1187 52.071 9.99025 51.8505 9.94405C51.63 9.89786 51.4001 9.9374 51.208 10.0546C49.1484 11.3061 45.703 13.2186 40.9834 15.219C40.7679 15.3104 40.5977 15.4832 40.5103 15.6995C40.4228 15.9157 40.4253 16.1577 40.5171 16.3722C40.6089 16.5866 40.7826 16.756 40.9999 16.843C41.2172 16.93 41.4603 16.9276 41.6758 16.8362C45.0239 15.4306 48.2761 13.8088 51.4117 11.9811L52.3101 13.2643Z" fill="black"/>
<path d="M9.47692 18.083C9.5929 18.0753 9.70622 18.045 9.81041 17.9937C9.9146 17.9424 10.0076 17.8712 10.0842 17.7841C10.1607 17.6971 10.2193 17.5959 10.2565 17.4863C10.2937 17.3767 10.3089 17.2609 10.3012 17.1455C10.2935 17.0301 10.263 16.9173 10.2114 16.8136C10.1599 16.7099 10.0884 16.6174 10.0009 16.5412C9.91342 16.465 9.81172 16.4067 9.70162 16.3697C9.59151 16.3326 9.47514 16.3175 9.35917 16.3252C7.44214 16.4506 5.51215 16.5139 3.62339 16.5139C3.38916 16.5139 3.16453 16.6065 2.9989 16.7713C2.83328 16.9361 2.74023 17.1597 2.74023 17.3928V23.708C2.74023 23.9411 2.83328 24.1647 2.9989 24.3295C3.16453 24.4943 3.38916 24.5869 3.62339 24.5869C18.246 24.5869 30.4477 21.1451 38.1087 18.2588C38.314 18.167 38.4764 18.0006 38.5626 17.7937C38.6487 17.5867 38.6523 17.3549 38.5725 17.1454C38.4926 16.936 38.3355 16.7648 38.1331 16.6668C37.9307 16.5688 37.6983 16.5514 37.4834 16.6182C30.1144 19.3943 18.4709 22.6943 4.51243 22.8291V18.2717C6.15156 18.2553 7.81895 18.192 9.47692 18.083Z" fill="black"/>
</g>
<defs>
<clipPath id="clip0">
<rect width="60.2899" height="60" fill="white" transform="translate(0.189453 0.783691)"/>
</clipPath>
</defs>
</svg>
