<svg width="77" height="76" viewBox="0 0 77 76" fill="none" xmlns="http://www.w3.org/2000/svg">
<path d="M12.026 45.793H5.78125V71.2916H12.026V45.793Z" fill="#79AAE8"/>
<path d="M13.1664 48.4619H21.6322L39.9598 54.3712C39.9598 54.3712 41.2081 58.8392 38.3848 59.6615C35.5616 60.4839 25.7142 59.6615 25.7142 59.6615L34.4186 64.8182H44.928L61.74 59.6615L64.2634 61.2157L64.7429 63.6411L63.3238 66.1393L43.1363 72.7433H26.5692L12.625 67.6964L13.1664 48.4619Z" fill="#AA694D"/>
<path d="M64.0823 61.1045L63.3223 62.4419L43.1348 69.0474H26.5692L12.8284 64.0762L12.625 67.7011L26.5692 72.7435H43.1348L63.3223 66.1395L64.7414 63.6413L64.262 61.2158L64.0823 61.1045Z" fill="#8C5B49"/>
<path d="M9.6243 32.3491V39.9609H16.9497V32.3491H21.6329L13.448 24.1523L5.78125 31.4362L9.6243 32.3491Z" fill="#EF882B"/>
<path d="M24.2532 43.5698V51.1816H31.5771V43.5698H36.2603L28.077 35.373L20.4102 42.6569L24.2532 43.5698Z" fill="#EF882B"/>
<path d="M61.6165 42.3032V54.0698H68.9404V42.3032H73.6236L65.4402 34.1064L57.7734 41.3903L61.6165 42.3032Z" fill="#EF882B"/>
<path d="M43.804 50.2075V64.9384L51.1279 62.8974V50.2075H55.8111L47.6277 42.0107L39.9609 49.2946L43.804 50.2075Z" fill="#EF882B"/>
<path d="M41.9472 37.0692C51.2486 37.0692 58.7889 29.5289 58.7889 20.2275C58.7889 10.926 51.2486 3.38574 41.9472 3.38574C32.6458 3.38574 25.1055 10.926 25.1055 20.2275C25.1055 29.5289 32.6458 37.0692 41.9472 37.0692Z" fill="#F7B24D"/>
<path d="M64.2742 59.7359C63.8292 59.4046 63.3135 59.1808 62.7676 59.0819C62.2217 58.983 61.6603 59.0118 61.1274 59.1659L52.6367 61.6715V51.1028H56.1992C56.435 51.1038 56.6654 51.0334 56.8604 50.9009C57.0554 50.7685 57.2058 50.5801 57.2917 50.3606C57.3827 50.1444 57.4075 49.906 57.3631 49.6756C57.3187 49.4453 57.2071 49.2332 57.0424 49.0662L48.7299 40.7537C48.5057 40.5311 48.2026 40.4062 47.8867 40.4062C47.5708 40.4062 47.2677 40.5311 47.0436 40.7537L38.7311 49.0662C38.5663 49.2332 38.4547 49.4453 38.4103 49.6756C38.3659 49.906 38.3908 50.1444 38.4817 50.3606C38.5677 50.5801 38.718 50.7685 38.913 50.9009C39.108 51.0334 39.3385 51.1038 39.5742 51.1028H43.1367V64.1653H35.133L28.7205 60.6028H38.3867C39.3307 60.6001 40.2353 60.2238 40.9028 59.5563C41.5703 58.8888 41.9465 57.9843 41.9492 57.0403V56.4465C41.9456 55.679 41.6956 54.933 41.2359 54.3183C40.7762 53.7037 40.1313 53.2529 39.3961 53.0325L32.4492 50.99V45.1712H36.0117C36.2474 45.1722 36.4779 45.1018 36.6729 44.9694C36.8679 44.8369 37.0183 44.6485 37.1042 44.4291C37.1952 44.2128 37.22 43.9744 37.1756 43.7441C37.1312 43.5137 37.0196 43.3017 36.8549 43.1347L28.5423 34.8222C28.3182 34.5996 28.0151 34.4746 27.6992 34.4746C27.3833 34.4746 27.0802 34.5996 26.8561 34.8222L18.5436 43.1347C18.3788 43.3017 18.2672 43.5137 18.2228 43.7441C18.1784 43.9744 18.2033 44.2128 18.2942 44.4291C18.3802 44.6485 18.5305 44.8369 18.7255 44.9694C18.9205 45.1018 19.151 45.1722 19.3867 45.1712H22.9492V48.1994L20.9067 47.5937C20.7992 47.5601 20.6869 47.5441 20.5742 47.5462H13.4492V45.1712C13.4492 44.8563 13.3241 44.5542 13.1014 44.3315C12.8787 44.1088 12.5767 43.9837 12.2617 43.9837H5.13672C4.82177 43.9837 4.51973 44.1088 4.29703 44.3315C4.07433 44.5542 3.94922 44.8563 3.94922 45.1712V71.2962C3.94922 71.6112 4.07433 71.9132 4.29703 72.1359C4.51973 72.3586 4.82177 72.4837 5.13672 72.4837H12.2617C12.5767 72.4837 12.8787 72.3586 13.1014 72.1359C13.3241 71.9132 13.4492 71.6112 13.4492 71.2962V69.3784L26.1258 73.6059C26.249 73.6435 26.377 73.6634 26.5058 73.6653H44.3183C44.4522 73.6662 44.5851 73.6421 44.7102 73.594L63.3242 67.0272C64.0191 66.7815 64.6207 66.3264 65.046 65.7245C65.4714 65.1226 65.6996 64.4036 65.6992 63.6665V62.5859C65.7007 62.0326 65.5726 61.4866 65.3252 60.9917C65.0777 60.4968 64.7178 60.0667 64.2742 59.7359ZM11.0742 70.1028H6.32422V46.3528H11.0742V70.1028ZM42.4361 48.7278L47.8867 43.2772L53.3374 48.7278H51.4492C51.1343 48.7278 50.8322 48.8529 50.6095 49.0756C50.3868 49.2983 50.2617 49.6004 50.2617 49.9153V62.3722L45.5117 63.7615V49.9153C45.5117 49.6004 45.3866 49.2983 45.1639 49.0756C44.9412 48.8529 44.6392 48.7278 44.3242 48.7278H42.4361ZM22.2486 42.7903L27.6992 37.3397L33.1498 42.7903H31.2617C30.9468 42.7903 30.6447 42.9154 30.422 43.1381C30.1993 43.3608 30.0742 43.6629 30.0742 43.9778V50.2834L25.3242 48.8822V43.9837C25.3242 43.6688 25.1991 43.3667 24.9764 43.144C24.7537 42.9213 24.4517 42.7962 24.1367 42.7962L22.2486 42.7903ZM63.3242 63.6665C63.3257 63.914 63.2498 64.1558 63.1072 64.3581C62.9645 64.5604 62.7622 64.713 62.5286 64.7947L44.1223 71.2903H26.7017L13.4492 66.8728V49.9153H20.408L38.7192 55.3065C38.9649 55.3802 39.1805 55.5306 39.3344 55.7358C39.4883 55.941 39.5723 56.1901 39.5742 56.4465V57.0403C39.5742 57.3552 39.4491 57.6573 39.2264 57.88C39.0037 58.1027 38.7017 58.2278 38.3867 58.2278H24.1367C23.8729 58.2262 23.616 58.3126 23.4067 58.4733C23.1974 58.6339 23.0475 58.8597 22.9808 59.115C22.9141 59.3703 22.9343 59.6406 23.0382 59.8831C23.1422 60.1256 23.324 60.3266 23.5548 60.4544L34.2423 66.3919C34.419 66.4937 34.6203 66.545 34.8242 66.5403H44.3242C44.4369 66.5432 44.5493 66.5271 44.6567 66.4928L61.8042 61.4459C61.9539 61.4023 62.1108 61.3885 62.2658 61.4055C62.4208 61.4224 62.571 61.4697 62.7077 61.5447C62.8445 61.6197 62.9651 61.7209 63.0627 61.8425C63.1603 61.9641 63.2331 62.1037 63.2767 62.2534C63.308 62.3615 63.324 62.4734 63.3242 62.5859V63.6665Z" fill="black"/>
<path d="M41.9492 2.41504C38.4263 2.41504 34.9824 3.45972 32.0531 5.41699C29.1239 7.37425 26.8408 10.1562 25.4926 13.411C24.1444 16.6658 23.7917 20.2473 24.479 23.7026C25.1663 27.1579 26.8628 30.3318 29.3539 32.8229C31.845 35.314 35.0189 37.0105 38.4742 37.6978C41.9295 38.3851 45.511 38.0323 48.7658 36.6842C52.0206 35.336 54.8025 33.0529 56.7598 30.1236C58.7171 27.1944 59.7617 23.7505 59.7617 20.2275C59.7617 15.5034 57.8851 10.9727 54.5446 7.6322C51.2041 4.29171 46.6734 2.41504 41.9492 2.41504ZM57.3274 19.04H54.9524C54.8123 17.5603 54.4228 16.1149 53.8005 14.765L55.8549 13.5657C56.6784 15.2843 57.1776 17.1402 57.3274 19.04ZM50.6655 7.49754C52.2328 8.58014 53.5907 9.93806 54.6733 11.5054L52.607 12.6929C51.7409 11.4831 50.6818 10.424 49.472 9.55785L50.6655 7.49754ZM43.1367 4.84941C45.0366 4.99913 46.8925 5.49833 48.6111 6.32191L47.4117 8.37629C46.0617 7.75458 44.6164 7.36515 43.1367 7.22441V4.84941ZM40.7617 4.84941V7.22441C39.2821 7.36515 37.8368 7.75458 36.4867 8.37629L35.2874 6.32191C37.006 5.49833 38.8619 4.99913 40.7617 4.84941ZM33.233 7.49754L34.4205 9.56379C33.2107 10.4299 32.1516 11.489 31.2855 12.6988L29.2192 11.5113C30.303 9.94134 31.663 8.58135 33.233 7.49754ZM28.0377 13.5657L30.092 14.765C29.4697 16.1149 29.0803 17.5603 28.9402 19.04H26.5711C26.7208 17.1402 27.22 15.2843 28.0436 13.5657H28.0377ZM26.5711 21.415H28.9461C29.086 22.8948 29.4755 24.3403 30.098 25.69L28.0436 26.8894C27.2198 25.1709 26.7206 23.3149 26.5711 21.415ZM33.233 32.9531C31.665 31.8713 30.307 30.5132 29.2252 28.9453L31.2914 27.7578C32.1567 28.9682 33.216 30.0275 34.4264 30.8928L33.233 32.9531ZM40.7617 35.6012C38.8625 35.4559 37.0065 34.9607 35.2874 34.1406L36.4867 32.0862C37.8363 32.7094 39.2818 33.0989 40.7617 33.2381V35.6012ZM31.2617 20.2231C31.2617 18.1093 31.8885 16.043 33.0629 14.2854C34.2373 12.5279 35.9064 11.158 37.8593 10.3491C39.8122 9.54021 41.9611 9.32857 44.0343 9.74094C46.1074 10.1533 48.0118 11.1712 49.5064 12.6659C51.0011 14.1606 52.019 16.0649 52.4314 18.1381C52.8438 20.2112 52.6321 22.3601 51.8232 24.313C51.0143 26.2659 49.6444 27.9351 47.8869 29.1094C46.1293 30.2838 44.063 30.9106 41.9492 30.9106C39.1155 30.9106 36.3978 29.7852 34.3936 27.7819C32.3894 25.7785 31.2629 23.0613 31.2617 20.2275V20.2231ZM43.1367 35.6012V33.2262C44.6167 33.087 46.0622 32.6975 47.4117 32.0743L48.6111 34.1406C46.8923 34.9623 45.0362 35.459 43.1367 35.6057V35.6012ZM50.6655 32.9531L49.478 30.8868C50.6879 30.0233 51.7472 28.9661 52.613 27.7578L54.6792 28.9453C53.5974 30.5132 52.2394 31.8713 50.6714 32.9531H50.6655ZM55.8608 26.885L53.8064 25.6856C54.4289 24.3358 54.8184 22.8904 54.9583 21.4106H57.3333C57.1825 23.3124 56.6812 25.1699 55.8549 26.8894L55.8608 26.885Z" fill="black"/>
<path d="M40.7617 28.54H43.1367V26.165C43.7666 26.165 44.3707 25.9148 44.8161 25.4694C45.2615 25.024 45.5117 24.4199 45.5117 23.79V21.415C45.5117 20.7852 45.2615 20.1811 44.8161 19.7357C44.3707 19.2903 43.7666 19.04 43.1367 19.04H40.7617V16.665H45.5117V14.29H43.1367V11.915H40.7617V14.29C40.1318 14.29 39.5277 14.5403 39.0823 14.9857C38.6369 15.4311 38.3867 16.0352 38.3867 16.665V19.04C38.3867 19.6699 38.6369 20.274 39.0823 20.7194C39.5277 21.1648 40.1318 21.415 40.7617 21.415H43.1367V23.79H38.3867V26.165H40.7617V28.54Z" fill="black"/>
<path d="M74.8513 40.7643L66.5388 32.4518C66.4285 32.3414 66.2976 32.2538 66.1534 32.194C66.0092 32.1343 65.8547 32.1035 65.6987 32.1035C65.5426 32.1035 65.3881 32.1343 65.2439 32.194C65.0998 32.2538 64.9688 32.3414 64.8585 32.4518L56.546 40.7643C56.3803 40.9304 56.2675 41.142 56.2219 41.3722C56.1762 41.6024 56.1999 41.841 56.2898 42.0578C56.3797 42.2746 56.5318 42.4599 56.7269 42.5903C56.9221 42.7207 57.1515 42.7904 57.3862 42.7905H60.9487V54.6655C60.9487 54.9804 61.0738 55.2824 61.2965 55.5051C61.5192 55.7278 61.8212 55.853 62.1362 55.853H69.2612C69.5761 55.853 69.8782 55.7278 70.1009 55.5051C70.3236 55.2824 70.4487 54.9804 70.4487 54.6655V42.7905H74.0112C74.2459 42.7904 74.4753 42.7207 74.6704 42.5903C74.8655 42.4599 75.0177 42.2746 75.1076 42.0578C75.1974 41.841 75.2211 41.6024 75.1755 41.3722C75.1299 41.142 75.0171 40.9304 74.8513 40.7643ZM69.2612 40.4155C68.9462 40.4155 68.6442 40.5406 68.4215 40.7633C68.1988 40.986 68.0737 41.288 68.0737 41.603V53.478H63.3237V41.603C63.3237 41.288 63.1986 40.986 62.9759 40.7633C62.7532 40.5406 62.4511 40.4155 62.1362 40.4155H60.2525L65.6987 34.9708L71.1448 40.4155H69.2612Z" fill="black"/>
<path d="M5.13617 33.2905H8.69867V40.4155C8.69867 40.7304 8.82378 41.0325 9.04648 41.2552C9.26918 41.4779 9.57122 41.603 9.88617 41.603H17.0112C17.3261 41.603 17.6282 41.4779 17.8509 41.2552C18.0736 41.0325 18.1987 40.7304 18.1987 40.4155V33.2905H21.7612C21.9959 33.2904 22.2253 33.2207 22.4204 33.0903C22.6155 32.9599 22.7677 32.7746 22.8576 32.5578C22.9475 32.341 22.9711 32.1024 22.9255 31.8722C22.8799 31.642 22.7671 31.4304 22.6013 31.2643L14.2888 22.9518C14.1785 22.8414 14.0476 22.7538 13.9034 22.694C13.7592 22.6343 13.6047 22.6035 13.4487 22.6035C13.2926 22.6035 13.1381 22.6343 12.9939 22.694C12.8498 22.7538 12.7188 22.8414 12.6085 22.9518L4.29601 31.2643C4.13026 31.4304 4.01746 31.642 3.97185 31.8722C3.92625 32.1024 3.94989 32.341 4.03978 32.5578C4.12968 32.7746 4.2818 32.9599 4.47694 33.0903C4.67207 33.2207 4.90147 33.2904 5.13617 33.2905ZM13.4487 25.4708L18.8948 30.9155H17.0112C16.6962 30.9155 16.3942 31.0406 16.1715 31.2633C15.9488 31.486 15.8237 31.788 15.8237 32.103V39.228H11.0737V32.103C11.0737 31.788 10.9486 31.486 10.7259 31.2633C10.5032 31.0406 10.2011 30.9155 9.88617 30.9155H8.0025L13.4487 25.4708Z" fill="black"/>
</svg>
