<svg width="65" height="65" viewBox="0 0 65 65" fill="none" xmlns="http://www.w3.org/2000/svg">
<path d="M35.0319 3.03516H10.9159C9.80601 3.03516 8.90625 3.93059 8.90625 5.03516V47.0352C8.90625 48.1397 9.80601 49.0352 10.9159 49.0352H35.0319C36.1418 49.0352 37.0415 48.1397 37.0415 47.0352V5.03516C37.0415 3.93059 36.1418 3.03516 35.0319 3.03516Z" fill="#EF882B"/>
<path d="M37.0407 29.0352V12.0352C37.0407 11.2395 37.3583 10.4764 37.9236 9.91384C38.489 9.35123 39.2557 9.03516 40.0552 9.03516C40.8547 9.03516 41.6214 9.35123 42.1868 9.91384C42.7521 10.4764 43.0697 11.2395 43.0697 12.0352V32.0352C43.0697 31.2395 43.3873 30.4764 43.9526 29.9138C44.5179 29.3512 45.2847 29.0352 46.0842 29.0352C46.8837 29.0352 47.6504 29.3512 48.2158 29.9138C48.7811 30.4764 49.0987 31.2395 49.0987 32.0352V33.0352C49.0969 32.6407 49.1737 32.2498 49.3246 31.8851C49.4755 31.5203 49.6975 31.189 49.9779 30.9102C50.2934 30.5906 50.6809 30.3507 51.1083 30.2102C51.4291 30.0886 51.7699 30.0275 52.1132 30.0302C52.509 30.0302 52.901 30.1078 53.2668 30.2585C53.6325 30.4093 53.9648 30.6303 54.2447 30.9088C54.5247 31.1874 54.7467 31.5181 54.8982 31.8821C55.0497 32.2461 55.1277 32.6362 55.1277 33.0302V34.0302C55.1277 33.2345 55.4453 32.4714 56.0106 31.9088C56.5759 31.3462 57.3427 31.0302 58.1422 31.0302C58.9417 31.0302 59.7084 31.3462 60.2737 31.9088C60.8391 32.4714 61.1567 33.2345 61.1567 34.0302V38.0002C61.1551 38.6884 61.0362 39.3715 60.805 40.0202L56.1325 53.0402H36.0359L34.599 49.0402L31.3634 40.0202C31.131 39.3718 31.012 38.6886 31.0117 38.0002V29.0252C31.0117 28.6325 31.0894 28.2437 31.2404 27.8809C31.3914 27.5182 31.6127 27.1886 31.8917 26.9109C32.1707 26.6333 32.5019 26.413 32.8664 26.2628C33.2309 26.1125 33.6216 26.0352 34.0162 26.0352C34.8157 26.0367 35.5826 26.351 36.1514 26.9102C36.4311 27.1895 36.6527 27.5209 36.8036 27.8856C36.9545 28.2502 37.0316 28.6408 37.0307 29.0352H37.0407Z" fill="#FFC477"/>
<path d="M61.1558 34.0352V38.0002C61.1543 38.6885 61.0354 39.3716 60.8041 40.0202L56.1317 53.0403H53.1172L57.7897 40.0202C58.0209 39.3716 58.1398 38.6885 58.1413 38.0002V34.0352C58.1423 33.6409 58.0652 33.2503 57.9143 32.8856C57.7634 32.521 57.5418 32.1896 57.2621 31.9102C57.0732 31.7254 56.8623 31.5642 56.6341 31.4302C57.0925 31.1669 57.6125 31.0282 58.1418 31.0283C58.6711 31.0284 59.1911 31.1672 59.6494 31.4307C60.1077 31.6943 60.4883 32.0732 60.7527 32.5296C61.0171 32.9859 61.1562 33.5035 61.1558 34.0302V34.0352Z" fill="#FFA733"/>
<path d="M51.1094 53.0352H56.1335V61.0352H51.1094V53.0352Z" fill="#57A4FF"/>
<path d="M46.082 53.0352H51.1062V61.0352H46.082V53.0352Z" fill="#2488FF"/>
<path d="M41.0586 53.0352H46.0827V61.0352H41.0586V53.0352Z" fill="#57A4FF"/>
<path d="M36.0352 53.0352H41.0593V61.0352H36.0352V53.0352Z" fill="#2488FF"/>
<path d="M31.219 49.0352L26.9988 55.0352H4.89247L2.88281 34.0352V30.0352C2.88281 28.9743 3.30628 27.9569 4.06005 27.2067C4.81381 26.4566 5.83614 26.0352 6.90214 26.0352H13.936C15.0019 26.0352 16.0243 26.4566 16.778 27.2067C17.5318 27.9569 17.9553 28.9743 17.9553 30.0352C17.9553 31.096 17.5318 32.1134 16.778 32.8636C16.0243 33.6137 15.0019 34.0352 13.936 34.0352H8.9118V47.0352C8.9118 47.5656 9.12353 48.0743 9.50041 48.4494C9.8773 48.8244 10.3885 49.0352 10.9215 49.0352H31.219Z" fill="#FFC477"/>
<path d="M4.88672 55.0352H26.993V61.0352H4.88672V55.0352Z" fill="#2488FF"/>
<path d="M43.0686 12.0351V32.0351H40.0541V12.0351C40.0545 11.5082 39.9153 10.9905 39.6507 10.534C39.3861 10.0776 39.0054 9.6986 38.5469 9.43513C39.0053 9.17174 39.5253 9.03312 40.0546 9.0332C40.5839 9.03329 41.1039 9.17208 41.5622 9.43561C42.0205 9.69914 42.401 10.0781 42.6655 10.5345C42.9299 10.9908 43.069 11.5084 43.0686 12.0351Z" fill="#FFA733"/>
<path d="M56.4272 14.3281L57.8478 15.7419L61.8671 11.7419C62.0554 11.5544 62.1612 11.3001 62.1612 11.035C62.1612 10.7699 62.0554 10.5156 61.8671 10.3281L57.8478 6.32812L56.4272 7.74187L58.727 10.0356H47.0898V12.0356H58.727L56.4272 14.3281Z" fill="black"/>
<path d="M50.3954 23.7419L51.816 22.3281L49.5124 20.0356H61.1547V18.0356H49.5124L51.816 15.7419L50.3954 14.3281L46.3761 18.3281C46.1878 18.5156 46.082 18.7699 46.082 19.035C46.082 19.3001 46.1878 19.5544 46.3761 19.7419L50.3954 23.7419Z" fill="black"/>
<path d="M60.9866 31.2052C60.2737 30.494 59.3169 30.0776 58.3083 30.0396C57.2997 30.0016 56.314 30.3447 55.5492 31.0002C55.1976 30.4038 54.6956 29.9092 54.0928 29.5654C53.49 29.2216 52.8074 29.0405 52.1126 29.0402C51.6632 29.0335 51.2166 29.1116 50.7963 29.2702C50.3313 29.4308 49.9016 29.6786 49.5302 30.0002C49.1766 29.4026 48.673 28.9069 48.0687 28.5615C47.4645 28.2161 46.7804 28.033 46.0837 28.0302C45.3764 28.0314 44.6824 28.2213 44.074 28.5802V12.0352C44.074 10.9743 43.6505 9.95687 42.8968 9.20673C42.143 8.45658 41.1207 8.03516 40.0547 8.03516C39.3474 8.03638 38.6534 8.22631 38.045 8.58516V5.03516C38.0424 4.24032 37.7239 3.47879 37.1592 2.91675C36.5944 2.35471 35.8292 2.03779 35.0305 2.03516H10.9146C10.1157 2.03714 9.3501 2.35384 8.7852 2.91602C8.22031 3.4782 7.90207 4.24012 7.90008 5.03516V25.0352H6.89525C5.56276 25.0352 4.28485 25.5619 3.34263 26.4996C2.40042 27.4373 1.87109 28.7091 1.87109 30.0352V34.1252L3.88076 55.0852V61.0352C3.88076 61.3004 3.98662 61.5547 4.17506 61.7423C4.36351 61.9298 4.61909 62.0352 4.88559 62.0352H26.9919C27.2584 62.0352 27.5139 61.9298 27.7024 61.7423C27.8908 61.5547 27.9967 61.3004 27.9967 61.0352V55.3552L31.7347 50.0352H33.8951L35.0255 53.2052V61.0352C35.0255 61.3004 35.1314 61.5547 35.3198 61.7423C35.5082 61.9298 35.7638 62.0352 36.0303 62.0352H56.1269C56.3934 62.0352 56.649 61.9298 56.8375 61.7423C57.0259 61.5547 57.1318 61.3004 57.1318 61.0352V53.2052L61.7439 40.3452C62.0151 39.591 62.1545 38.7962 62.1559 37.9952V34.0352C62.1576 32.975 61.7371 31.9574 60.9866 31.2052ZM25.987 60.0352H5.89042V56.0352H25.987V60.0352ZM26.4694 54.0352H5.79998L3.88076 34.0352V30.0352C3.88275 29.2401 4.20098 28.4782 4.76588 27.916C5.33077 27.3538 6.09637 27.0371 6.89525 27.0352H13.9291C14.7286 27.0352 15.4953 27.3512 16.0606 27.9138C16.626 28.4764 16.9436 29.2395 16.9436 30.0352C16.9436 30.8308 16.626 31.5939 16.0606 32.1565C15.4953 32.7191 14.7286 33.0352 13.9291 33.0352H8.90491C8.63841 33.0352 8.38283 33.1405 8.19439 33.328C8.00595 33.5156 7.90008 33.7699 7.90008 34.0352V47.0352C7.9024 47.8301 8.22074 48.5918 8.78557 49.1539C9.35039 49.716 10.1158 50.0328 10.9146 50.0352H29.2829L26.4694 54.0352ZM10.9146 48.0352C10.6481 48.0352 10.3925 47.9298 10.2041 47.7423C10.0156 47.5547 9.90974 47.3004 9.90974 47.0352V44.0352V42.0352V35.0352H13.9291C15.2616 35.0352 16.5395 34.5084 17.4817 33.5707C18.4239 32.633 18.9532 31.3612 18.9532 30.0352C18.9532 28.7091 18.4239 27.4373 17.4817 26.4996C16.5395 25.5619 15.2616 25.0352 13.9291 25.0352H9.90974V5.03516C9.90974 4.76994 10.0156 4.51559 10.2041 4.32805C10.3925 4.14051 10.6481 4.03516 10.9146 4.03516H35.0305C35.297 4.03516 35.5526 4.14051 35.741 4.32805C35.9295 4.51559 36.0353 4.76994 36.0353 5.03516V25.5952C35.4254 25.2302 34.7274 25.0367 34.0156 25.0352C32.9531 25.0378 31.9349 25.459 31.1836 26.2067C30.4323 26.9544 30.009 27.9678 30.0064 29.0252V38.0002C30.0078 38.8044 30.1471 39.6025 30.4183 40.3602L33.1716 48.0402L10.9146 48.0352ZM40.0547 60.0352H37.0402V54.0352H40.0547V60.0352ZM45.0788 60.0352H42.0643V54.0352H45.0788V60.0352ZM50.103 60.0352H47.0885V54.0352H50.103V60.0352ZM55.1271 60.0352H52.1126V54.0352H55.1271V60.0352ZM60.1513 37.9952C60.1483 38.5677 60.0486 39.1356 59.8561 39.6752L55.4248 52.0352H36.745L32.3137 39.6852C32.1209 39.1439 32.0203 38.5744 32.016 38.0002V29.0252C32.0174 28.4947 32.2304 27.9865 32.6082 27.6124C32.7953 27.4272 33.0172 27.2804 33.2613 27.1805C33.5053 27.0806 33.7668 27.0295 34.0307 27.0302C34.2946 27.0308 34.5558 27.0832 34.7994 27.1843C35.043 27.2854 35.2641 27.4333 35.4503 27.6195C35.6364 27.8057 35.7839 28.0265 35.8843 28.2694C35.9847 28.5123 36.036 28.7725 36.0353 29.0352V37.0352H38.045V12.0352C38.045 11.5047 38.2567 10.996 38.6336 10.6209C39.0105 10.2459 39.5217 10.0352 40.0547 10.0352C40.5877 10.0352 41.0988 10.2459 41.4757 10.6209C41.8526 10.996 42.0643 11.5047 42.0643 12.0352V37.0352H44.074V32.0352C44.074 31.5047 44.2857 30.996 44.6626 30.6209C45.0395 30.2459 45.5507 30.0352 46.0837 30.0352C46.6166 30.0352 47.1278 30.2459 47.5047 30.6209C47.8816 30.996 48.0933 31.5047 48.0933 32.0352V37.0352H50.103V33.0352C50.1029 32.7728 50.1553 32.513 50.2571 32.2709C50.3589 32.0288 50.508 31.8093 50.6958 31.6252C50.908 31.4016 51.1745 31.2363 51.4696 31.1452C51.6758 31.0712 51.8935 31.034 52.1126 31.0352C52.6456 31.0352 53.1568 31.2459 53.5337 31.6209C53.9106 31.996 54.1223 32.5047 54.1223 33.0352V38.0352H56.132V34.0352C56.132 33.5047 56.3437 32.996 56.7206 32.6209C57.0975 32.2459 57.6086 32.0352 58.1416 32.0352C58.6746 32.0352 59.1858 32.2459 59.5627 32.6209C59.9396 32.996 60.1513 33.5047 60.1513 34.0352V37.9952Z" fill="black"/>
<path d="M31.7946 43.0975H14.4612C12.954 43.0975 11.7344 41.9725 11.7344 40.5788V34.5625H13.8696V40.5788C13.8696 40.765 14.1208 40.9725 14.4612 40.9725H31.1289C31.1304 40.9632 31.1325 40.954 31.1351 40.945L31.2607 40.9725H31.8021C31.6954 40.972 31.5893 40.9889 31.4881 41.0225L33.2239 41.41C33.0921 41.9575 32.8358 43.0975 31.7946 43.0975Z" fill="black"/>
<path d="M34.5214 25.3956H32.3862V7.97938C32.3862 7.82323 32.3238 7.67348 32.2129 7.56307C32.1019 7.45265 31.9515 7.39063 31.7946 7.39063H14.4612C14.3043 7.39063 14.1539 7.45265 14.0429 7.56307C13.932 7.67348 13.8696 7.82323 13.8696 7.97938V25.3956H11.7344V7.97938C11.7354 7.25995 12.023 6.57027 12.5342 6.06156C13.0453 5.55285 13.7383 5.26662 14.4612 5.26562H31.7946C32.5175 5.26662 33.2105 5.55285 33.7217 6.06156C34.2328 6.57027 34.5204 7.25995 34.5214 7.97938V25.3956Z" fill="black"/>
<path d="M23.025 47.3622C23.9428 47.3622 24.6868 46.6218 24.6868 45.7084C24.6868 44.7951 23.9428 44.0547 23.025 44.0547C22.1073 44.0547 21.3633 44.7951 21.3633 45.7084C21.3633 46.6218 22.1073 47.3622 23.025 47.3622Z" fill="black"/>
</svg>
