<svg fill="currentColor" xmlns="http://www.w3.org/2000/svg" viewBox="0 0 9 15"><path d="M1.167 0h6.666C8.478 0 9 .522 9 1.167v12c0 .644-.522 1.166-1.167 1.166H1.167A1.167 1.167 0 0 1 0 13.167v-12C0 .522.522 0 1.167 0zm2.166 1.167V1H1v12.333h7V1H5.667v.167a.5.5 0 0 1-.5.5H3.833a.5.5 0 0 1-.5-.5z"/><path d="M5.033 10.5v-.952H6.1V7.643h1.067v1.905a.961.961 0 0 1-.97.952H5.033zM3.967 10.5H2.803a.961.961 0 0 1-.97-.952V7.643H2.9v1.905h1.067v.952zM5.033 3.833v.953H6.1V6.69h1.067V4.786a.961.961 0 0 0-.97-.953H5.033zM3.967 3.833v.953H2.9V6.69H1.833V4.786c0-.526.434-.953.97-.953h1.164z"/></svg>