<svg fill="currentColor" xmlns="http://www.w3.org/2000/svg" viewBox="0 0 15 12"><path d="M12.273 1.09H2.455v2.728H1.364v-2.59C1.364.552 1.916 0 2.59 0h9.545c.675 0 1.228.553 1.228 1.227v2.591h-1.091V1.091zM2.455 8.182v1.09H1.364v-1.09h1.09zM10.636 10.91V12h-1.09v-1.09h1.09zM13.356 10.91a1.233 1.233 0 0 1-1.083 1.082V10.91h1.083zM14.727 6.545H0v-1.09h14.727v1.09zM5.182 10.91V12H4.09v-1.09h1.09zM13.364 8.182v1.09h-1.091v-1.09h1.09zM7.91 10.91V12H6.817v-1.09H7.91zM1.371 10.91h1.084v1.082A1.233 1.233 0 0 1 1.37 10.91z"/></svg>