<svg fill="currentColor" xmlns="http://www.w3.org/2000/svg" viewBox="0 0 13 13"><path d="m8.98 4.392-.101.274h2.287c.582 0 1.037.205 1.347.528.311.325.486.782.486 1.306 0 1.973-.207 3.617-.634 4.76C11.937 12.408 11.313 13 10.5 13l-4.643-.001h-.003a4.325 4.325 0 0 1-1.522-.244 3.093 3.093 0 0 1-.638-.311l-.137-.089-.092.135c-.21.308-.563.51-.964.51H1.167A1.167 1.167 0 0 1 0 11.833v-6c0-.644.522-1.166 1.167-1.166H2.5c.116 0 .227.017.333.048l.116.035.069-.1c.457-.666 1.623-2 2.572-3.084l.002-.002.002-.002C6.103.98 6.548.472 6.776.187L6.926 0h.24c.4 0 .735.03 1.12.142.424.123.768.326 1.006.604.235.275.374.633.374 1.087 0 .327-.058.682-.168 1.083-.073.265-.164.534-.29.872l-.106.281-.001.002-.121.32zm-.938-.347c.02-.056.076-.203.129-.341v-.001l.1-.265c.115-.309.198-.554.263-.788a3.16 3.16 0 0 0 .132-.817.652.652 0 0 0-.173-.472c-.117-.122-.286-.2-.487-.26a2.5 2.5 0 0 0-.52-.09L7.4 1.004l-.055.066c-.35.417-.85.989-1.367 1.58h-.001c-.5.57-1.016 1.159-1.421 1.638-.203.24-.379.454-.512.626a5.032 5.032 0 0 0-.168.228c-.043.062-.08.122-.102.172a1.276 1.276 0 0 0-.107.52v4.665c0 .33.083.606.26.829.175.22.43.373.741.485.405.145.835.192 1.143.187H10.5c.261 0 .473-.203.636-.463.169-.27.32-.655.446-1.13.254-.952.418-2.3.418-3.907 0-.238-.057-.453-.207-.61-.15-.156-.368-.224-.626-.224H8.5c-.35 0-.525-.13-.611-.3-.095-.186-.103-.46-.025-.775.037-.148.092-.314.178-.546zM2.667 5.667H1V12h1.667V5.667z"/></svg>