<svg xmlns="http://www.w3.org/2000/svg" viewBox="0 0 14 14" fill="currentColor"><path d="m7.818 9.652 5.049-.883a.964.964 0 0 1 .788.214.973.973 0 0 1-.135 1.584l-5.624 3.3a.96.96 0 0 1-.92.03l-2.73-1.373h-.558v.134c0 .212-.171.384-.383.384H.383A.383.383 0 0 1 0 12.658V8.51c0-.212.17-.384.383-.384H6.14c.101 0 .2.04.27.113l1.407 1.414zm-.873 2.285-1.42-1.43.54-.543 1.422 1.43a.343.343 0 0 0 .245.102.348.348 0 0 0 .246-.595l.001-.002h-.002L5.982 8.895H3.688v2.861h.648c.06 0 .118.014.172.041l2.81 1.413a.2.2 0 0 0 .192-.006l5.624-3.3a.206.206 0 0 0 .028-.332.2.2 0 0 0-.164-.045l-4.52.79.04.04a1.116 1.116 0 0 1 .326.79c0 .616-.498 1.118-1.112 1.118-.297 0-.577-.116-.787-.327zM2.922 8.894H.766v3.38h2.156v-3.38z"/><path d="M9.813 8.375a4.188 4.188 0 1 1 0-8.375 4.188 4.188 0 0 1 0 8.375zm3.335-4.187a3.336 3.336 0 1 0-6.671 0 3.336 3.336 0 0 0 6.671 0z"/><path d="M8.798 5.727c.183.093.403.155.66.184l.034.004v.372c0 .028.01.048.025.063a.107.107 0 0 0 .07.025h.44c.03 0 .052-.009.069-.024a.082.082 0 0 0 .026-.064V5.91l.033-.004c.377-.045.674-.159.893-.337a.842.842 0 0 0 .327-.685c0-.2-.045-.36-.132-.484a.928.928 0 0 0-.414-.309 3.401 3.401 0 0 0-.777-.21 4.112 4.112 0 0 1-.473-.114h-.001a.747.747 0 0 1-.247-.137v-.001a.27.27 0 0 1-.08-.197c0-.113.048-.202.145-.262a.738.738 0 0 1 .387-.085c.143 0 .266.027.365.084.1.055.165.123.19.208a.166.166 0 0 0 .053.048c.021.01.05.015.088.015h.7a.073.073 0 0 0 .052-.018.073.073 0 0 0 .022-.049.714.714 0 0 0-.137-.362 1.141 1.141 0 0 0-.376-.33 1.568 1.568 0 0 0-.586-.202l-.032-.005v-.386a.082.082 0 0 0-.026-.064.095.095 0 0 0-.069-.024h-.44a.107.107 0 0 0-.07.025.082.082 0 0 0-.025.063v.377l-.033.004c-.348.042-.619.155-.817.336a.837.837 0 0 0-.296.646c0 .288.1.506.299.66.202.156.513.274.939.353.23.046.406.088.525.124a.76.76 0 0 1 .268.131.253.253 0 0 1 .098.205c0 .116-.062.207-.178.272-.115.064-.277.094-.482.094a.907.907 0 0 1-.433-.089.58.58 0 0 1-.23-.222.246.246 0 0 0-.07-.053l-.003-.001-.003-.002a.141.141 0 0 0-.078-.018h-.67c-.02 0-.039.007-.057.024a.057.057 0 0 0-.021.043.82.82 0 0 0 .143.422c.091.129.226.24.405.333z"/></svg>