<svg fill="currentColor" xmlns="http://www.w3.org/2000/svg" viewBox="0 0 15 12"><path d="M13.333 6.333V3.667H1v7h4v1H1.167A1.167 1.167 0 0 1 0 10.5V1.167C0 .522.522 0 1.167 0h12c.644 0 1.166.522 1.166 1.167v5.166h-1zM1 2.667h12.333V1H1v1.667z"/><path d="M10.59 9.607V7.05h-.845v2.556h.846zM10.167 10.632a.423.423 0 1 0 0-.845.423.423 0 0 0 0 .845z"/><path d="M13.813 11.262a1.454 1.454 0 0 0-.015-1.451L11.41 5.716a1.435 1.435 0 0 0-2.485 0l-2.39 4.097A1.451 1.451 0 0 0 7.77 12h4.79a1.45 1.45 0 0 0 1.253-.738zm-.743-1.023v.001a.607.607 0 0 1-.515.914H7.773a.605.605 0 0 1-.511-.911l2.393-4.1a.592.592 0 0 1 1.023-.002l2.392 4.098z"/></svg>