<svg fill="currentColor" xmlns="http://www.w3.org/2000/svg" viewBox="0 0 15 13"><path d="M2.733 3.417h1.709v1.708H2.733V3.417zM2.733 7.859V6.834H3.76v1.025H2.733zM6.492 7.859V6.834H4.784v1.025h1.708zM9.996 10.738c.2.102.44.17.722.201l.037.004v.407c0 .03.01.052.027.07a.117.117 0 0 0 .076.027h.482c.033 0 .056-.01.075-.027a.09.09 0 0 0 .028-.07v-.412l.037-.004c.412-.05.736-.174.976-.37a.92.92 0 0 0 .357-.748.904.904 0 0 0-.144-.53 1.014 1.014 0 0 0-.452-.336 3.718 3.718 0 0 0-.85-.23 4.493 4.493 0 0 1-.517-.126h-.002a.819.819 0 0 1-.27-.15.294.294 0 0 1-.087-.216c0-.123.053-.22.158-.286.103-.064.246-.093.424-.093.156 0 .29.03.399.092.108.06.18.135.208.227.02.026.039.043.057.053.023.01.055.017.096.017h.767a.08.08 0 0 0 .056-.02.08.08 0 0 0 .024-.054.78.78 0 0 0-.15-.396 1.248 1.248 0 0 0-.411-.36h-.001a1.713 1.713 0 0 0-.64-.222l-.035-.005v-.422a.09.09 0 0 0-.028-.07.104.104 0 0 0-.075-.026h-.482a.117.117 0 0 0-.076.027.09.09 0 0 0-.027.069v.412l-.037.005c-.38.046-.676.169-.893.367a.915.915 0 0 0-.324.707c0 .315.11.553.327.72.22.171.561.3 1.027.387.252.05.444.096.574.136a.83.83 0 0 1 .293.143.277.277 0 0 1 .107.224c0 .127-.068.227-.195.298-.125.07-.302.102-.526.102a.991.991 0 0 1-.474-.097.634.634 0 0 1-.252-.243.268.268 0 0 0-.077-.058l-.003-.001-.002-.002a.154.154 0 0 0-.086-.02h-.732a.09.09 0 0 0-.063.026.063.063 0 0 0-.023.048c.008.162.06.315.156.46.1.142.248.263.444.365z"/><path d="M13.62 0H1.073C.495 0 0 .52 0 1.196v8.2c0 .676.495 1.196 1.072 1.196h6.453a3.896 3.896 0 0 0 7.168-3.057v-6.34C14.693.52 14.198 0 13.62 0zM7.21 9.055c0 .173.01.344.033.512H1.025V1.025h12.642v5.096A3.895 3.895 0 0 0 7.21 9.055zm.956 0a2.939 2.939 0 1 1 5.877 0 2.939 2.939 0 0 1-5.877 0z"/></svg>