<svg fill="currentColor" xmlns="http://www.w3.org/2000/svg" viewBox="0 0 14 14"><path d="M3.978 10.74.718 14 0 13.283 13.283 0 14 .717 6.772 7.945l.142.118c.365.305.707.534.969.68.13.074.243.129.331.162.043.016.087.03.126.037.02.003.046.006.074.003a.195.195 0 0 0 .12-.055l.518-.518c.284-.285.425-.412.617-.538.2-.131.397-.206.578-.214a.7.7 0 0 1 .516.194l.007.006.008.005c1.3.93 2.02 1.49 2.366 1.85.632.656.552 1.675.003 2.255-.208.22-.472.484-.785.786l-.002.002c-.844.844-2.15 1.063-3.642.719-1.49-.343-3.138-1.243-4.621-2.59l-.12-.108zm2.194-1.971-.12-.104-1.357 1.357.133.12c1.274 1.143 2.657 1.91 3.876 2.245 1.207.331 2.304.248 2.947-.394.31-.299.563-.553.76-.76a.638.638 0 0 0 .16-.414.605.605 0 0 0-.157-.44c-.282-.293-.954-.816-2.085-1.628l-.105-.075-.1.08c-.09.073-.198.176-.355.333l-.518.518c-.334.334-.774.406-1.305.252-.538-.157-1.15-.541-1.774-1.09zM2.771 1.574c-.327.323-.436.43-.775.775-.558.56-.689 1.47-.492 2.49.19.993.696 2.126 1.479 3.235l-.727.727C1.286 7.467.668 6.071.472 4.818c-.203-1.302.05-2.427.804-3.183h.001c.34-.346.452-.457.783-.784.558-.549 1.625-.633 2.266 0 .363.36.953 1.117 1.843 2.363l.006.007.006.008a.692.692 0 0 1 .198.56c-.022.197-.122.41-.288.634-.077.105-.168.21-.28.328-.055.057-.097.1-.187.19l-.519.519a.193.193 0 0 0-.053.11.26.26 0 0 0 0 .068.56.56 0 0 0 .027.11c.016.047.039.101.068.162l-.752.751c-.198-.368-.312-.712-.332-1.017-.023-.35.077-.653.326-.902l.518-.518.17-.172c.063-.067.117-.128.162-.184l.08-.1-.074-.104c-.786-1.095-1.33-1.793-1.631-2.09a.598.598 0 0 0-.437-.15c-.14.005-.302.048-.406.15z"/></svg>