<svg fill="currentColor" xmlns="http://www.w3.org/2000/svg" viewBox="0 0 13 13"><path d="M11.833 2.333a1.167 1.167 0 1 1 0-2.333 1.167 1.167 0 0 1 0 2.333zM11.833 7.667a1.167 1.167 0 1 1 0-2.334 1.167 1.167 0 0 1 0 2.334zM11.833 13a1.167 1.167 0 1 1 0-2.333 1.167 1.167 0 0 1 0 2.333zM6.5 13a1.167 1.167 0 1 1 0-2.333A1.167 1.167 0 0 1 6.5 13zM6.5 7.667a1.167 1.167 0 1 1 0-2.334 1.167 1.167 0 0 1 0 2.334zM6.5 2.333A1.167 1.167 0 1 1 6.5 0a1.167 1.167 0 0 1 0 2.333zM1.167 13a1.167 1.167 0 1 1 0-2.333 1.167 1.167 0 0 1 0 2.333zM1.167 7.667a1.167 1.167 0 1 1 0-2.334 1.167 1.167 0 0 1 0 2.334zM1.167 2.333a1.167 1.167 0 1 1 0-2.333 1.167 1.167 0 0 1 0 2.333z"/></svg>