<svg xmlns="http://www.w3.org/2000/svg" viewBox="0 0 15 15" fill="currentColor"><path d="M8.026 6.278v3.488h.697v1.047H6.281V9.766h.698V7.324H6.28V6.278h1.745zM8.023 4.36a.872.872 0 1 1-1.744 0 .872.872 0 0 1 1.744 0z"/><path d="M7.5 15a7.5 7.5 0 1 1 0-15 7.5 7.5 0 0 1 0 15zm0-1.046a6.453 6.453 0 1 0 0-12.907 6.453 6.453 0 0 0 0 12.906z"/><path d="M8.026 6.278v3.488h.697v1.047H6.281V9.766h.698V7.324H6.28V6.278h1.745zM8.023 4.36a.872.872 0 1 1-1.744 0 .872.872 0 0 1 1.744 0z"/><path d="M7.5 15a7.5 7.5 0 1 1 0-15 7.5 7.5 0 0 1 0 15zm0-1.046a6.453 6.453 0 1 0 0-12.907 6.453 6.453 0 0 0 0 12.906z"/><path d="M8.026 6.278v3.488h.697v1.047H6.281V9.766h.698V7.324H6.28V6.278h1.745zM8.023 4.36a.872.872 0 1 1-1.744 0 .872.872 0 0 1 1.744 0z"/><path d="M7.5 15a7.5 7.5 0 1 1 0-15 7.5 7.5 0 0 1 0 15zm0-1.046a6.453 6.453 0 1 0 0-12.907 6.453 6.453 0 0 0 0 12.906z"/><path d="M8.026 6.278v3.488h.697v1.047H6.281V9.766h.698V7.324H6.28V6.278h1.745zM8.023 4.36a.872.872 0 1 1-1.744 0 .872.872 0 0 1 1.744 0z"/><path d="M7.5 15a7.5 7.5 0 1 1 0-15 7.5 7.5 0 0 1 0 15zm0-1.046a6.453 6.453 0 1 0 0-12.907 6.453 6.453 0 0 0 0 12.906z"/></svg>