<svg fill="currentColor" xmlns="http://www.w3.org/2000/svg" viewBox="0 0 13 13"><path d="M7 9.166a.5.5 0 1 1-1 0 .5.5 0 0 1 1 0z"/><path d="m12.38 12.38-2.677-.223-.044.025a6.5 6.5 0 1 1 2.524-2.524l-.025.045.223 2.678zm-1.162-3.05a5.5 5.5 0 1 0-1.888 1.888l.137-.084 1.819.152-.152-1.819.084-.138z"/><path d="M7 7.167v.5H6v-.5c0-.423.216-.755.589-1.05.112-.09.142-.11.356-.246A.832.832 0 0 0 6.5 4.333.834.834 0 0 0 5.683 5H4.674a1.834 1.834 0 1 1 2.807 1.716 2.517 2.517 0 0 0-.27.184c-.088.069-.157.145-.157.145L7 7.167z"/></svg>