<svg fill="currentColor" xmlns="http://www.w3.org/2000/svg" viewBox="0 0 15 15"><path d="M10.29 11.512a1.919 1.919 0 1 1 0-3.838 1.919 1.919 0 0 1 0 3.838zm0-1.047a.872.872 0 1 0 0-1.744.872.872 0 0 0 0 1.744zM4.71 7.326a1.919 1.919 0 1 1 0-3.838 1.919 1.919 0 0 1 0 3.838zm0-1.047a.872.872 0 1 0 0-1.744.872.872 0 0 0 0 1.744zM6.08 11.512l4.01-8.024H8.92l-4.01 8.024h1.17z"/><path d="M7.5 15a7.5 7.5 0 1 1 0-15 7.5 7.5 0 0 1 0 15zm0-1.046a6.453 6.453 0 1 0 0-12.907 6.453 6.453 0 0 0 0 12.906z"/></svg>