<svg fill="currentColor" xmlns="http://www.w3.org/2000/svg" viewBox="0 0 13 14"><path d="m7.408.728.03.075.077.022c1.807.528 3.224 2.291 3.224 4.87 0 1.73.351 2.739 1.03 3.48.113.123.41.397.602.575l.007.006.174.162.14.142v1.99h-3.95l-.032.123a2.446 2.446 0 0 1-3.638 1.469c-.65-.396-.99-.824-1.112-1.46l-.026-.132H0v-1.99l.14-.142a11 11 0 0 1 .181-.168l.007-.006c.193-.178.485-.446.596-.568.678-.737 1.029-1.744 1.029-3.48 0-2.587 1.415-4.347 3.225-4.872l.077-.022.03-.075a1.139 1.139 0 0 1 2.124.001zM5.161 12.213c.092.171.248.3.504.457a1.307 1.307 0 0 0 1.811-.457H5.161zm6.392-1.667a13.293 13.293 0 0 1-.625-.602C10.06 8.995 9.6 7.718 9.6 5.695c0-2.453-1.523-3.897-3.254-3.897-1.736 0-3.254 1.437-3.254 3.897 0 2.03-.46 3.306-1.33 4.252-.136.149-.43.422-.623.599v.365h10.414v-.365z"/></svg>