<svg fill="currentColor" xmlns="http://www.w3.org/2000/svg" viewBox="0 0 14 14"><path d="M12.881 5.186V2.21L7.17 7.56H4.758L1.3 9.031l-.644-.787 3.738-1.703h2.334l5.145-4.745H9.492V.78h4.406v4.406h-1.017zM0 11.458c0-.656.531-1.187 1.186-1.187h4.068c.655 0 1.187.531 1.187 1.187v1.356c0 .655-.532 1.186-1.187 1.186H1.186A1.186 1.186 0 0 1 0 12.814v-1.356zm1.017-.17v1.695h4.407v-1.695H1.017zM7.458 8.746c0-.655.53-1.187 1.186-1.187h4.068c.655 0 1.186.532 1.186 1.187v4.068c0 .655-.53 1.186-1.186 1.186H8.644a1.186 1.186 0 0 1-1.186-1.186V8.746zm5.423-.17H8.475v4.407h4.406V8.576zM1.56 4.073c.018.01.04.025.066.053a.85.85 0 0 0 .32.329h.001c.158.093.361.134.599.134.272 0 .497-.042.662-.14a.495.495 0 0 0 .264-.44.431.431 0 0 0-.15-.335 1.031 1.031 0 0 0-.373-.196 7.02 7.02 0 0 0-.69-.176h-.001c-.55-.109-.942-.271-1.192-.478-.24-.2-.365-.482-.365-.868 0-.335.12-.617.365-.853.245-.24.583-.392 1.025-.45L2.193.64V.055c0-.021.006-.031.012-.039A.065.065 0 0 1 2.249 0h.573c.024 0 .034.006.042.014.007.008.013.018.013.04V.65l.099.017c.29.048.535.14.735.271l.003.002c.21.13.364.278.468.44a.973.973 0 0 1 .166.476.055.055 0 0 1-.008.013c-.004.003-.008.004-.018.004H3.41a.202.202 0 0 1-.083-.013.15.15 0 0 1-.038-.038.578.578 0 0 0-.275-.318.962.962 0 0 0-.51-.127c-.218 0-.404.039-.542.13a.481.481 0 0 0-.218.422c0 .123.039.233.121.321l.003.003c.081.08.2.148.344.205l.004.002c.15.053.359.107.624.163h.003c.423.077.753.174.993.287h.002c.238.109.405.245.51.406.104.16.16.37.16.639 0 .371-.133.67-.402.903-.273.238-.645.392-1.126.455l-.103.013v.585c0 .023-.006.034-.013.041-.008.008-.018.014-.042.014H2.25a.065.065 0 0 1-.044-.016c-.006-.008-.012-.018-.012-.039v-.58L2.09 5.32a2.316 2.316 0 0 1-.835-.248 1.407 1.407 0 0 1-.504-.443 1.13 1.13 0 0 1-.175-.551l.001-.004.006-.008c.013-.012.02-.014.028-.014h.87c.04 0 .058.009.064.013l.007.005.008.004z"/></svg>