<svg xmlns="http://www.w3.org/2000/svg" viewBox="0 0 22 22" fill="currentColor"><path fill-rule="evenodd" d="M16.866 6.203a3.535 3.535 0 1 0-4.637 0h-.393c-1.02 0-1.866.23-2.54.658a3.564 3.564 0 0 0-.708.59A6.12 6.12 0 1 0 9.73 17.997l4.003 4.004 1.334-1.334-4.003-4.003a6.088 6.088 0 0 0 1.112-2.713c3.836.6 7.34-.49 8.959-1.333l.466-.243v-.526c0-2.046-.497-3.453-1.235-4.367-.735-.91-1.673-1.278-2.412-1.278h-1.087zm-4.686 5.988c3.129.561 6.066-.18 7.672-.883-.077-1.44-.46-2.273-.836-2.738-.423-.524-.875-.634-1.063-.634h-6.117c-.758 0-1.266.169-1.61.388a1.87 1.87 0 0 0-.122.084 6.11 6.11 0 0 1 2.076 3.783zm4.169-8.656a1.801 1.801 0 1 1-3.603 0 1.801 1.801 0 0 1 3.603 0zm-5.996 9.519a4.233 4.233 0 1 0-8.466 0 4.233 4.233 0 0 0 8.466 0z" clip-rule="evenodd"/></svg>