<svg fill="currentColor" xmlns="http://www.w3.org/2000/svg" viewBox="0 0 13 14"><path d="M11.123 0H4.086A1.85 1.85 0 0 0 2.76.584c-.351.37-.549.87-.55 1.392v.629h-.332a1.85 1.85 0 0 0-1.323.58c-.351.367-.55.864-.554 1.383v7.468c.004.52.203 1.017.554 1.385A1.85 1.85 0 0 0 1.877 14h9.246a1.85 1.85 0 0 0 1.323-.58c.351-.367.55-.864.554-1.384V1.971c-.002-.52-.2-1.02-.551-1.389A1.85 1.85 0 0 0 11.123 0zm1.173 12.029a1.271 1.271 0 0 1-.347.863c-.22.23-.516.36-.826.364H1.877a1.161 1.161 0 0 1-.826-.364c-.219-.229-.344-.539-.347-.863V4.583c0-.329.126-.644.348-.877a1.16 1.16 0 0 1 .839-.362h.312v8.007a.59.59 0 0 1-.172.415.532.532 0 0 1-.405.157.345.345 0 0 0-.23.104.38.38 0 0 0-.034.487.35.35 0 0 0 .212.138c.17.01.34-.018.499-.08.159-.061.305-.156.428-.278.123-.123.221-.27.289-.433.067-.164.102-.34.102-.517V1.976c0-.162.031-.323.09-.472.06-.15.148-.286.258-.4.11-.114.24-.204.384-.265.144-.061.298-.092.453-.09h7.037c.312.004.61.136.83.368.219.232.342.545.343.871l.01 10.04zM10.8 2.359H7.574a.344.344 0 0 0-.248.108.377.377 0 0 0-.104.26v2.048c0 .097.038.191.104.26.066.07.155.108.248.108H10.8a.344.344 0 0 0 .248-.108.377.377 0 0 0 .104-.26V2.727a.377.377 0 0 0-.103-.26.344.344 0 0 0-.25-.108zm-.352 2.047H7.926v-1.31h2.522v1.31zM4.05 2.727c0-.097.037-.191.103-.26a.344.344 0 0 1 .249-.108H5.87c.094 0 .183.039.25.108a.377.377 0 0 1 0 .52.344.344 0 0 1-.25.109H4.403a.344.344 0 0 1-.249-.108.377.377 0 0 1-.103-.26zm0 2.048c0-.098.037-.192.103-.26a.344.344 0 0 1 .249-.109H5.87c.094 0 .183.04.25.108a.377.377 0 0 1 0 .521.344.344 0 0 1-.25.108H4.403a.344.344 0 0 1-.249-.108.377.377 0 0 1-.103-.26zm7.098 2.047a.377.377 0 0 1-.103.26.344.344 0 0 1-.249.108H4.403a.344.344 0 0 1-.249-.108.377.377 0 0 1 0-.52.344.344 0 0 1 .249-.108h6.394c.094 0 .183.039.25.108a.377.377 0 0 1 .102.26zm0 2.047a.377.377 0 0 1-.103.26.344.344 0 0 1-.249.109H4.403a.344.344 0 0 1-.249-.108.377.377 0 0 1 0-.521.344.344 0 0 1 .249-.108h6.394c.094 0 .183.039.25.108.065.07.102.163.102.26zm0 2.048a.377.377 0 0 1-.103.26.344.344 0 0 1-.249.108H4.403a.338.338 0 0 1-.249-.108.37.37 0 0 1-.103-.26.383.383 0 0 1 .103-.26.351.351 0 0 1 .249-.108h6.394c.094 0 .183.038.25.107.065.07.102.163.102.26z"/></svg>