<svg fill="currentColor" xmlns="http://www.w3.org/2000/svg" viewBox="0 0 14 11"><path d="M11.465 0a.917.917 0 0 1 .443.318l1.805 2.469c.387.53.382 1.25-.013 1.774l-1.79 2.377a.923.923 0 0 1-.73.352H6.12l5.1-6.403c.208-.262.287-.582.245-.887zM2.78 9.833l5.1-6.402H2.82a.923.923 0 0 0-.73.352L.3 6.159a1.489 1.489 0 0 0-.013 1.775l1.805 2.468c.112.15.268.26.443.318a1.165 1.165 0 0 1 .245-.887zm5.1.887L5.225 7.504 3.26 9.852c-.21.256-.407.57-.365.868h4.984zM11.104 0H6.121l2.653 3.216L10.74.868c.21-.256.407-.57.365-.868z"/></svg>