<svg fill="currentColor" xmlns="http://www.w3.org/2000/svg" viewBox="0 0 13 14"><path d="M6.418 3.976c.195.099.43.164.705.196l.036.004v.397c0 .03.009.05.026.067a.114.114 0 0 0 .074.027h.47c.032 0 .056-.01.073-.026a.087.087 0 0 0 .028-.068V4.17l.036-.005c.402-.048.718-.169.952-.36a.898.898 0 0 0 .349-.73.882.882 0 0 0-.141-.516.99.99 0 0 0-.441-.33 3.627 3.627 0 0 0-.829-.223h-.001a4.388 4.388 0 0 1-.504-.123H7.25a.797.797 0 0 1-.263-.146h-.001a.287.287 0 0 1-.085-.21.31.31 0 0 1 .154-.28c.1-.062.24-.09.414-.09.152 0 .283.028.39.089.104.058.175.132.202.222a.177.177 0 0 0 .056.05c.023.011.053.018.094.018h.747c.024 0 .041-.007.055-.02a.078.078 0 0 0 .023-.052.76.76 0 0 0-.146-.386 1.218 1.218 0 0 0-.4-.352h-.002A1.671 1.671 0 0 0 7.864.51L7.83.505V.094c0-.03-.01-.052-.028-.068A.101.101 0 0 0 7.73 0h-.47a.114.114 0 0 0-.074.027.087.087 0 0 0-.026.067v.402L7.123.5c-.37.045-.66.165-.871.359a.892.892 0 0 0-.317.69c0 .306.108.539.32.702.215.167.547.293 1 .377.247.05.434.094.56.133a.81.81 0 0 1 .287.14.27.27 0 0 1 .104.218c0 .124-.066.221-.19.29-.122.069-.295.1-.513.1a.967.967 0 0 1-.463-.094.618.618 0 0 1-.245-.238.263.263 0 0 0-.075-.056l-.003-.001-.002-.002a.15.15 0 0 0-.084-.02h-.714a.087.087 0 0 0-.062.026.061.061 0 0 0-.022.046.874.874 0 0 0 .152.45c.098.137.242.256.433.356z"/><path d="M6.277 8.167a2.333 2.333 0 1 0-2.887 0h-.456c-.692 0-1.258.143-1.706.407A2.354 2.354 0 0 0 .282 9.61c-.372.785-.316 1.686-.17 2.268l.057.227.211.101c3.613 1.737 7.494.726 9.003 0l.284-.136v-.314c0-.208-.009-.405-.025-.592 1.332-.031 2.465-.372 3.068-.651l.29-.134v-.32c0-.916-.252-1.562-.636-1.984-.378-.416-.85-.576-1.212-.576h-.37a1.733 1.733 0 1 0-2.564 0h-.033c-.497 0-.914.1-1.252.29-.186.105-.34.234-.464.377h-.192zm-.11-1.834a1.333 1.333 0 1 1-2.667 0 1.333 1.333 0 0 1 2.667 0zm5.818 3.399a7.572 7.572 0 0 1-2.528.434 3.21 3.21 0 0 0-.645-1.21 2.461 2.461 0 0 0-.526-.456h2.866c.087 0 .289.046.472.248.15.164.313.46.361.984zm-10.95 1.677c-.067-.423-.05-.946.15-1.37.114-.24.288-.45.549-.603.264-.155.646-.27 1.2-.27H7.22c.18 0 .53.093.841.448.276.316.548.871.598 1.822-1.48.611-4.653 1.293-7.622-.027zm7.58-5.076a.886.886 0 1 1 1.77 0 .886.886 0 0 1-1.77 0z"/></svg>