<svg fill="currentColor" xmlns="http://www.w3.org/2000/svg" viewBox="0 0 14 14"><path d="M12.263 5.11H1.022v7.153h5.45v1.022h-5.28A1.192 1.192 0 0 1 0 12.092V1.873C0 1.215.534.681 1.192.681h1.533V0h1.022v.681h5.79V0h1.023v.681h1.532c.659 0 1.193.534 1.193 1.192v4.599h-1.022V5.109zM3.747 1.702v.681H2.725v-.68H1.022v2.384h11.24V1.703H10.56v.681H9.538v-.68H3.747z"/><path d="M14 10.39a3.61 3.61 0 1 1-7.221 0 3.61 3.61 0 0 1 7.221 0zm-3.61 2.656a2.657 2.657 0 1 0 0-5.314 2.657 2.657 0 0 0 0 5.314z"/><path d="M10.423 8.788v1.227h1.227v.749H9.674V8.788h.75z"/></svg>