<svg fill="currentColor" xmlns="http://www.w3.org/2000/svg" viewBox="0 0 11 15"><path d="M2.79 11.163h1.047v1.046H2.791v-1.046zM5.93 12.21H4.884v-1.047H5.93v1.046zM6.977 9.07h1.046v3.14H6.977V9.07zM3.837 10.116H2.791V9.07h1.046v1.046zM4.884 9.07H5.93v1.046H4.884V9.07zM2.79 6.977h1.047v1.046H2.791V6.977zM5.93 8.023H4.884V6.977H5.93v1.046zM6.977 6.977h1.046v1.046H6.977V6.977z"/><path d="M1.22 0h8.373c.674 0 1.221.547 1.221 1.22v12.56c0 .673-.547 1.22-1.221 1.22H1.221A1.22 1.22 0 0 1 0 13.78V1.22C0 .548.547 0 1.22 0zm8.547 1.047h-8.72v3.139h8.72v-3.14zm0 4.186h-8.72v8.72h8.72v-8.72z"/></svg>