<svg fill="currentColor" xmlns="http://www.w3.org/2000/svg" viewBox="0 0 15 12"><path d="m3.895 6.42-.067.048c-.364.25-.663.59-.87.986a2.807 2.807 0 0 0-.317 1.22h.96c.035-.94.782-1.683 1.713-1.683.932 0 1.679.743 1.713 1.683h.96a2.807 2.807 0 0 0-.316-1.22 2.736 2.736 0 0 0-.87-.986l-.068-.047.058-.058c.396-.396.649-.942.649-1.547 0-1.198-.958-2.176-2.126-2.176-1.167 0-2.125.978-2.125 2.176 0 .604.253 1.15.648 1.547l.058.058zm1.42-2.795c.651 0 1.165.527 1.165 1.19 0 .664-.514 1.191-1.166 1.191-.652 0-1.165-.527-1.165-1.19 0-.664.513-1.191 1.165-1.191zM8.811 4.011h3.292v1.235H8.81V4.01zM12.103 6.754H9.669V7.99h2.434V6.754z"/><path d="M0 1.275C0 .579.593 0 1.337 0h12.069c.744 0 1.337.579 1.337 1.275v9.45c0 .696-.593 1.275-1.337 1.275H1.337C.593 12 0 11.421 0 10.725v-9.45zm1.166 9.516 12.411.01V1.208l-12.411-.01v9.592z"/></svg>