<svg fill="currentColor" xmlns="http://www.w3.org/2000/svg" viewBox="0 0 13 14"><path d="M9.442 1.14v.813h2.116c.63 0 1.14.51 1.14 1.14v1.302c0 .63-.51 1.14-1.14 1.14h-.202l-.612 7.319v.007c0 .629-.51 1.139-1.14 1.139H3.094c-.634 0-1.14-.515-1.137-1.085v-.007L1.34 5.535H1.14c-.63 0-1.14-.51-1.14-1.14V3.093c0-.63.51-1.14 1.14-1.14h2.116V1.14c0-.63.51-1.14 1.14-1.14h3.906c.63 0 1.14.51 1.14 1.14zm2.279 1.79H.977v1.628H11.72V2.93zm-1.345 2.605H2.321l.622 7.488h6.818l.008-.207.607-7.281zm-1.91-3.582V.977H4.232v.976h4.232z"/></svg>