<svg fill="currentColor" xmlns="http://www.w3.org/2000/svg" viewBox="0 0 20 20"><path fill-rule="evenodd" d="m8.744 4.257.008.011.01.011c.253.281.33.565.3.85-.033.299-.185.623-.436.962a5.34 5.34 0 0 1-.427.498c-.082.086-.146.15-.283.288l-.786.787a.302.302 0 0 0-.085.212c0 .046.008.09.016.125.017.072.048.156.087.246.08.183.207.422.378.697.343.55.872 1.259 1.57 1.957a11.292 11.292 0 0 0 1.954 1.57c.275.171.514.299.697.378.09.04.175.07.247.087a.52.52 0 0 0 .125.016.303.303 0 0 0 .212-.085l.786-.787c.43-.43.644-.624.936-.815.303-.2.601-.313.876-.325.268-.013.532.069.784.294l.01.01.011.007c1.971 1.41 3.063 2.26 3.589 2.806.959.996.838 2.54.004 3.421-.314.333-.715.733-1.19 1.191l-.003.004c-1.351 1.351-3.482 1.646-5.9.996-2.414-.648-5.063-2.227-7.37-4.535C2.558 12.824.98 10.174.331 7.76c-.65-2.419-.356-4.549.991-5.897l.002-.002c.515-.524.685-.693 1.187-1.188.846-.833 2.464-.96 3.437.001.55.544 1.445 1.692 2.796 3.583zm-6.807 3.52c-.627-1.98-.554-3.8.477-4.831.515-.523.679-.687 1.175-1.176.158-.155.405-.22.617-.227.214-.006.48.045.662.226.456.45 1.281 1.51 2.474 3.17l.113.159-.122.152c-.068.084-.15.176-.247.278-.071.075-.13.135-.257.261l-.785.786c-.57.57-.64 1.351-.272 2.304.37.958 1.166 2.038 2.236 3.11 1.07 1.07 2.149 1.867 3.107 2.237.952.367 1.733.298 2.303-.272l.786-.786c.238-.238.401-.394.539-.504l.152-.123.158.114c1.717 1.233 2.736 2.025 3.163 2.469a.917.917 0 0 1 .24.668.969.969 0 0 1-.245.629c-.297.314-.682.7-1.152 1.152-1.039 1.037-2.86 1.114-4.84.489-2.003-.632-4.258-2.004-6.267-4.016-2.01-2.012-3.382-4.268-4.015-6.27z" clip-rule="evenodd"/></svg>