<svg fill="currentColor" width="15" height="13" fill="none" xmlns="http://www.w3.org/2000/svg"><path d="M7.668 9.833a.5.5 0 1 1-1 0 .5.5 0 0 1 1 0zM6.67 4h1v4.333h-1V3.999z" fill="#212121"/><path d="M7.17 0a2.48 2.48 0 0 1 2.144 1.235l4.672 7.985v.001A2.504 2.504 0 0 1 11.842 13H2.484A2.505 2.505 0 0 1 .347 9.224l4.674-7.988A2.483 2.483 0 0 1 7.17 0zm5.97 11.235a1.505 1.505 0 0 0-.016-1.507L8.45 1.738a1.481 1.481 0 0 0-2.566.002L1.21 9.732A1.503 1.503 0 0 0 2.488 12h9.35a1.507 1.507 0 0 0 1.303-.765z" fill="#212121"/></svg>