<svg fill="currentColor" xmlns="http://www.w3.org/2000/svg" viewBox="0 0 12 15"><path d="M1.2 0h7.07L12 3.73v9.813a1.2 1.2 0 0 1-1.2 1.2H1.2a1.2 1.2 0 0 1-1.2-1.2V1.2A1.2 1.2 0 0 1 1.2 0zm5.657 1.029H1.03v12.685h9.942V5.143H8.057a1.2 1.2 0 0 1-1.2-1.2V1.029zm4.073 3.085L7.886 1.07v3.044h3.044z"/><path d="m8.055 6.182 3.667 2.567-.472.674L8.06 7.19 5.643 8.916 3.926 7.542.75 9.766l-.472-.674L3.96 6.515l1.712 1.37 2.384-1.703zM3.943 4.629a.686.686 0 1 1 0-1.372.686.686 0 0 1 0 1.372zm0 .685a1.371 1.371 0 1 0 0-2.743 1.371 1.371 0 0 0 0 2.743zM3.775 12.202c-.159 0-.306-.027-.442-.08a.774.774 0 0 1-.324-.244.656.656 0 0 1-.126-.385c0-.019.006-.034.018-.047a.062.062 0 0 1 .05-.021h.416c.027 0 .048.007.062.021.016.015.03.036.043.065.033.165.139.247.318.247a.29.29 0 0 0 .238-.102.452.452 0 0 0 .083-.293v-.892h-1a.082.082 0 0 1-.055-.021.082.082 0 0 1-.022-.056v-.305c0-.023.007-.042.022-.056a.082.082 0 0 1 .055-.022h1.494c.022 0 .04.008.055.022a.07.07 0 0 1 .025.056v1.29a.836.836 0 0 1-.114.447.724.724 0 0 1-.321.28 1.12 1.12 0 0 1-.475.096zM5.175 12.171a.082.082 0 0 1-.055-.021.082.082 0 0 1-.022-.056V10.09c0-.023.007-.042.022-.056a.082.082 0 0 1 .055-.022h.864c.263 0 .47.061.62.183.153.12.229.298.229.53 0 .23-.075.405-.226.522-.15.115-.357.172-.623.172h-.367v.676a.07.07 0 0 1-.025.056.075.075 0 0 1-.055.021h-.417zm.849-1.178c.09 0 .161-.023.213-.068.051-.048.077-.116.077-.207a.271.271 0 0 0-.074-.2c-.048-.052-.12-.078-.216-.078h-.361v.553h.36zM8.075 12.202c-.296 0-.528-.072-.694-.216-.167-.146-.255-.353-.266-.62a9.243 9.243 0 0 1-.003-.284c0-.13.001-.224.003-.284.01-.261.1-.463.269-.604.17-.143.401-.213.691-.213.196 0 .365.031.51.095a.828.828 0 0 1 .332.244c.079.099.12.2.124.306a.059.059 0 0 1-.022.046.063.063 0 0 1-.046.018h-.45a.11.11 0 0 1-.05-.009.072.072 0 0 1-.03-.034.38.38 0 0 0-.367-.222c-.246 0-.374.13-.387.389a8.33 8.33 0 0 0 0 .537c.013.271.144.407.395.407a.43.43 0 0 0 .29-.093c.074-.063.111-.16.111-.29v-.058h-.29a.075.075 0 0 1-.055-.022.086.086 0 0 1-.022-.059v-.228c0-.022.007-.041.022-.055a.07.07 0 0 1 .055-.025h.778a.07.07 0 0 1 .056.025.075.075 0 0 1 .021.055v.352c0 .175-.04.326-.12.454a.78.78 0 0 1-.343.29 1.236 1.236 0 0 1-.512.098z"/></svg>