<svg fill="currentColor" xmlns="http://www.w3.org/2000/svg" viewBox="0 0 13 15"><path d="M1.04 13.857h3.463v1.04h-3.29c-.67 0-1.213-.544-1.213-1.213V1.212C0 .542.543 0 1.212 0h7.144l3.769 3.769v2.813h-1.04V5.196H8.141c-.67 0-1.213-.543-1.213-1.212V1.039H1.04v12.818zm10.003-9.7L7.968 1.081v3.076h3.075z"/><path d="m9.443 8.64-2.625 2.548a1.716 1.716 0 0 0 0 2.478 1.839 1.839 0 0 0 2.547 0l2.926-2.84.6.582-2.923 2.838a2.711 2.711 0 0 1-3.753 0 2.519 2.519 0 0 1 0-3.638L8.84 8.061a1.953 1.953 0 0 1 2.703 0 1.813 1.813 0 0 1 0 2.618l-2.625 2.548a1.195 1.195 0 0 1-1.653 0 1.107 1.107 0 0 1 0-1.6l2.576-2.5.6.582-2.573 2.498a.305.305 0 0 0 0 .44c.124.12.323.12.447 0l2.624-2.548a1.01 1.01 0 0 0 0-1.458 1.08 1.08 0 0 0-1.496 0z"/></svg>