<svg fill="currentColor" xmlns="http://www.w3.org/2000/svg" viewBox="0 0 15 15"><path d="m12.76 10.931.005-.008-.006.008zM7.5 9.419c-.738 0-1.385-.258-1.85-.788-.467-.533-.766-1.36-.766-2.526 0-1.475 1.028-2.617 2.616-2.617 1.573 0 2.616 1.248 2.616 2.756 0 1.113-.302 1.904-.769 2.415-.466.51-1.114.76-1.847.76zM5.93 6.105c0 .806.145 1.375.424 1.745.287.38.695.522 1.146.522.447 0 .853-.135 1.142-.493.282-.35.428-.885.428-1.635 0-.472-.148-.898-.424-1.21a1.494 1.494 0 0 0-1.146-.5c-.48 0-.877.157-1.154.442-.276.284-.416.68-.416 1.129z"/><path d="M7.5 15a7.5 7.5 0 1 1 0-15 7.5 7.5 0 0 1 0 15zm5.023-3.82.146.192.137-.197a6.453 6.453 0 1 0-10.611 0l.136.197.146-.191c.36-.476.976-.832 1.833-1.068.855-.235 1.932-.346 3.19-.346s2.335.111 3.19.346c.857.236 1.473.592 1.833 1.068zm-.746 1.153.082-.072-.03-.106c-.128-.461-.63-.788-1.34-1.002-.727-.219-1.735-.339-2.989-.339-1.254 0-2.262.12-2.988.339-.711.214-1.213.541-1.341 1.002l-.03.106.082.072a6.43 6.43 0 0 0 4.277 1.62 6.43 6.43 0 0 0 4.277-1.62z"/></svg>