<svg fill="currentColor" xmlns="http://www.w3.org/2000/svg" viewBox="0 0 13 13"><path d="M9.43 0c.473 0 .927.19 1.257.523l1.792 1.79a1.78 1.78 0 0 1 0 2.518l-7.097 7.093-.01.01c-.536.62-1.297 1.003-2.177 1.066H0v-.535L.003 9.74a3.13 3.13 0 0 1 1.02-2.07l.005-.005L8.17.524A1.776 1.776 0 0 1 9.43 0zM3.167 11.932c.542-.039 1.039-.29 1.429-.733L9.98 5.817 7.184 3.022 1.762 8.44c-.397.355-.65.852-.691 1.327l-.001.009v2.155l2.083.002.015-.001zm5.76-10.654-.988.987 2.796 2.796.986-.986a.71.71 0 0 0 0-1.005L9.93 1.278a.706.706 0 0 0-1.002 0z"/></svg>