<svg fill="currentColor" xmlns="http://www.w3.org/2000/svg" viewBox="0 0 13 13"><path d="M5.833 2a1.833 1.833 0 1 1 0 3.667 1.833 1.833 0 0 1 0-3.667zm0 1a.833.833 0 1 0 0 1.667.833.833 0 0 0 0-1.667z"/><path d="M1.167 0h10.666C12.478 0 13 .522 13 1.167v10.666c0 .645-.522 1.167-1.167 1.167H1.167A1.167 1.167 0 0 1 0 11.833V1.167C0 .522.522 0 1.167 0zM1 1v8.293L3.833 6.46l2.334 2.333L10.5 4.46l1.5 1.5V1H1zm2.833 6.874L1 10.707V12h6.96L3.833 7.874zM6.873 9.5l2.5 2.5H12V7.374l-1.5-1.5L6.874 9.5z"/></svg>