<svg fill="currentColor" xmlns="http://www.w3.org/2000/svg" viewBox="0 0 15 13"><path d="M4.884 3.14V2.093h5.232V3.14H4.884zM4.884 5.233V4.186h5.232v1.047H4.884z"/><path d="M12.907 1.22v.873h.872c.674 0 1.221.547 1.221 1.221v8.372c0 .674-.547 1.221-1.22 1.221H1.22c-.673 0-1.22-.547-1.22-1.221V3.314c0-.674.547-1.221 1.22-1.221h.873v-.872C2.093.508 2.549 0 3.035 0h8.93c.486 0 .942.508.942 1.22zM3.14 6.13 7.5 8.31l4.36-2.18V1.047H3.14V6.13zm9.767-.523 1.046-.523V3.14h-1.046v2.467zm-11.86-.523 1.046.523V3.14H1.047v1.944zM7.5 9.48 1.047 6.254v5.607h12.906V6.253L7.5 9.481z"/></svg>