<svg fill="currentColor" xmlns="http://www.w3.org/2000/svg" viewBox="0 0 15 15"><path d="M10.22 3.49a1.291 1.291 0 1 1 2.581 0 1.291 1.291 0 0 1-2.582 0zm1.29-.594a.594.594 0 1 0 0 1.187.594.594 0 0 0 0-1.187z"/><path d="M10.541.811 11.002 0h1.025l.46.814.232.097.899-.247.725.724-.25.9.096.233.811.46v1.026l-.814.459-.097.233.247.899-.725.725-.9-.25-.232.095-.462.81h-1.024l-.46-.813-.232-.097-.9.247-.724-.724.25-.9-.096-.233-.81-.462V2.972l.814-.46.097-.232-.247-.9.724-.724.9.251.232-.096zM11.62.697h-.212l-.38.667-.676.28-.738-.207-.15.15.204.74-.283.675-.667.377v.212l.667.38.278.676-.205.738.15.15.74-.203.675.283.376.666h.213l.38-.666.676-.279.738.206.15-.15-.204-.74.283-.676.668-.377v-.212l-.668-.379-.278-.676.205-.738-.15-.15-.74.203-.676-.283-.376-.667zM3.528 8.985a1.906 1.906 0 1 1 3.528 1.446 1.906 1.906 0 0 1-3.528-1.446zm2.184-.303a1.109 1.109 0 1 0-.84 2.052 1.109 1.109 0 0 0 .84-2.052z"/><path d="m5.536 5.314 1.145-.898 1.346.551.181 1.445.363.363 1.444.175.563 1.341-.893 1.15v.512l.899 1.145-.552 1.346-1.445.181-.363.364-.174 1.443-1.342.562-1.15-.893-.512.001L3.9 15l-1.345-.551-.182-1.445-.363-.363-1.444-.174-.561-1.342.893-1.15-.002-.512L0 8.317.551 6.97l1.445-.182.363-.362.175-1.444 1.34-.562 1.15.894.512-.001zm1.758.214-.486-.198-.995.78-1.062.003-.998-.776-.483.202-.152 1.257-.75.75-1.255.158-.199.486.78.996.002 1.061-.775.999.202.483 1.257.152.75.751.158 1.254.486.199.996-.78 1.06-.002 1 .775.483-.202.152-1.257.752-.751 1.254-.158.199-.485-.781-.996-.003-1.061.776-.998-.203-.484-1.257-.152-.751-.752-.157-1.254z"/></svg>