<svg fill="currentColor" xmlns="http://www.w3.org/2000/svg" viewBox="0 0 35 24"><path fill-rule="evenodd" d="M29.358.2c2.093.119 3.12.428 4.067 2.113.987 1.682 1.484 4.58 1.484 9.683v.017c0 5.08-.497 7.999-1.481 9.663-.947 1.685-1.975 1.99-4.067 2.132-2.093.12-7.349.192-11.902.192-4.562 0-9.82-.072-11.91-.194-2.089-.142-3.116-.448-4.072-2.132C.502 20.01 0 17.09 0 12.011v-.018c0-5.1.502-7.998 1.477-9.68C2.433.626 3.463.319 5.551.199 7.639.059 12.897 0 17.459 0c4.553 0 9.81.059 11.9.2zM24.003 12l-10.91-6.545v13.091l10.91-6.545z" clip-rule="evenodd"/></svg>