<svg fill="currentColor" xmlns="http://www.w3.org/2000/svg" viewBox="0 0 14 14"><path d="M6.652.009C2.927.184-.011 3.263 0 6.965a6.872 6.872 0 0 0 .761 3.132L.02 13.675a.271.271 0 0 0 .33.317l3.53-.83c.936.462 1.962.71 3.006.724 3.806.058 6.98-2.943 7.098-6.72.128-4.05-3.239-7.351-7.331-7.158zm4.213 10.779a5.46 5.46 0 0 1-3.872 1.592 5.451 5.451 0 0 1-2.437-.567l-.491-.243-2.166.509.456-2.196-.242-.472a5.345 5.345 0 0 1-.595-2.466A5.38 5.38 0 0 1 3.12 3.1a5.506 5.506 0 0 1 3.872-1.593c1.463 0 2.838.565 3.872 1.592a5.382 5.382 0 0 1 1.604 3.844c0 1.44-.578 2.826-1.604 3.844z"/><path d="m10.387 8.45-1.354-.387a.507.507 0 0 0-.5.13l-.331.336a.496.496 0 0 1-.537.112c-.64-.257-1.988-1.447-2.333-2.042a.487.487 0 0 1 .04-.543l.289-.372a.498.498 0 0 0 .062-.51l-.57-1.279a.507.507 0 0 0-.789-.18c-.378.319-.827.8-.88 1.336-.097.942.31 2.13 1.849 3.556 1.778 1.648 3.203 1.866 4.13 1.642.525-.126.946-.633 1.21-1.048a.5.5 0 0 0-.286-.752z"/></svg>