<svg fill="currentColor" xmlns="http://www.w3.org/2000/svg" viewBox="0 0 14 14"><path d="M13.83 3.086 10.915.169A.583.583 0 0 0 10.5 0H1.167A1.167 1.167 0 0 0 0 1.167v11.666A1.167 1.167 0 0 0 1.167 14h11.666A1.167 1.167 0 0 0 14 12.833V3.5a.585.585 0 0 0-.17-.414zm-9.163-1.92h4.666V3.5H4.667V1.167zm4.666 11.667H4.667V8.167h4.666v4.666zm1.167 0V8.167A1.167 1.167 0 0 0 9.333 7H4.667A1.167 1.167 0 0 0 3.5 8.167v4.666H1.167V1.167H3.5V3.5a1.167 1.167 0 0 0 1.167 1.167h4.666A1.167 1.167 0 0 0 10.5 3.5V1.406l2.333 2.333v9.094H10.5z"/></svg>