<svg fill="currentColor" xmlns="http://www.w3.org/2000/svg" viewBox="0 0 9 15"><path d="m4.867 7.227-.002-2.56h-.733v.992l.001 1.545v.052l-.03.043a.265.265 0 0 1-.061.063l-.044.032h-.242v.758h.21a.89.89 0 0 0 .625-.28.937.937 0 0 0 .276-.645zM4.5 10.333c-1.673 0-2.396-1.086-2.49-1.848h.746c.04.17.143.39.335.587.272.278.717.504 1.409.504.692 0 1.137-.226 1.409-.504.192-.197.294-.417.335-.587h.745c-.093.762-.816 1.848-2.489 1.848zM6.267 4.667H7V5.97h-.733V4.667zM2 4.667h.733V5.97H2V4.667z"/><path d="M1.167 0h6.666C8.478 0 9 .522 9 1.167v12c0 .644-.522 1.166-1.167 1.166H1.167A1.167 1.167 0 0 1 0 13.167v-12C0 .522.522 0 1.167 0zm2.166 1H1v12.333h7V1H5.667v.167a.5.5 0 0 1-.5.5H3.833a.5.5 0 0 1-.5-.5V1z"/></svg>