<svg fill="currentColor" xmlns="http://www.w3.org/2000/svg" viewBox="0 0 15 14"><path d="M4.2.917v3.416h-.867V1.005C3.333.455 3.793 0 4.367 0h9.6C14.54 0 15 .455 15 1.005v7.656c0 .551-.46 1.006-1.033 1.006h-2.634v-.919l2.8.002V.924L4.2.917z"/><path d="M12.818 3H5.515v-.778h7.303V3zM12.818 5.222h-1.03v-.778h1.03v.778zM.867 12.743l9.933.007V4.924L.867 4.917v7.826zM1.033 4h9.6c.574 0 1.034.455 1.034 1.005v7.657c0 .55-.46 1.005-1.034 1.005h-9.6C.46 13.667 0 13.212 0 12.662V5.005C0 4.455.46 4 1.033 4z"/><path d="M2.213 7.888c0-.76.653-1.388 1.457-1.388s1.457.628 1.457 1.388c0 .384-.172.732-.443.985l-.063.059.072.046c.25.161.455.378.597.632.131.234.205.493.216.757h-.629c-.035-.615-.561-1.091-1.207-1.091s-1.172.476-1.208 1.09h-.629c.012-.263.086-.522.216-.756.142-.254.347-.47.598-.632l.071-.046-.062-.059a1.35 1.35 0 0 1-.443-.985zm1.457-.794c-.46 0-.829.348-.829.794 0 .446.37.794.829.794.46 0 .828-.348.828-.794 0-.446-.369-.794-.828-.794zM6.784 8.144V7.39h2.914v.755H6.784zM7.38 9.922v-.755h2.318v.755H7.38z"/></svg>