<svg xmlns="http://www.w3.org/2000/svg" viewBox="0 0 20 20" fill="currentColor"><path d="m8.744 4.257.008.011.01.011c.253.281.33.565.3.85-.033.299-.185.623-.436.962a5.34 5.34 0 0 1-.427.498c-.082.086-.146.15-.283.288l-.786.787a.302.302 0 0 0-.085.212c0 .046.008.09.016.125.017.072.048.156.087.246.08.183.207.422.378.697.343.55.872 1.259 1.57 1.957a11.292 11.292 0 0 0 1.954 1.57c.275.171.514.299.697.378.09.04.175.07.247.087a.52.52 0 0 0 .125.016.303.303 0 0 0 .212-.085l.786-.787c.43-.43.644-.624.936-.815.303-.2.601-.313.876-.325.268-.013.532.069.784.294l.01.01.011.007c1.971 1.41 3.063 2.26 3.589 2.806.959.996.838 2.54.004 3.421-.314.333-.715.733-1.19 1.191l-.003.004c-1.351 1.351-3.482 1.646-5.9.996-2.414-.648-5.063-2.227-7.37-4.535C2.558 12.824.98 10.174.331 7.76c-.65-2.419-.356-4.549.991-5.897l.002-.002c.515-.524.685-.693 1.187-1.188.846-.833 2.464-.96 3.437.001.55.544 1.445 1.692 2.796 3.583zm-6.807 3.52c.633 2.001 2.005 4.257 4.015 6.27 2.009 2.01 4.264 3.383 6.266 4.015 1.982.625 3.802.548 4.84-.489.47-.453.855-.838 1.153-1.152a.969.969 0 0 0 .245-.63.917.917 0 0 0-.24-.667c-.427-.444-1.446-1.236-3.163-2.469l-.159-.114-.151.123c-.138.11-.301.266-.539.504l-.786.786c-.57.57-1.35.64-2.303.272-.958-.37-2.037-1.167-3.107-2.238-1.07-1.07-1.867-2.15-2.236-3.11-.367-.952-.298-1.733.272-2.303l.785-.786c.126-.126.186-.186.257-.26.097-.103.18-.195.247-.28l.122-.151-.113-.159C6.149 3.28 5.324 2.22 4.868 1.77c-.183-.18-.448-.232-.662-.226-.212.006-.46.072-.617.227-.496.489-.66.653-1.175 1.176-1.03 1.031-1.104 2.85-.477 4.83z"/></svg>