<svg fill="currentColor" xmlns="http://www.w3.org/2000/svg" viewBox="0 0 14 13"><path d="M2.857 3.825 8.595.075V.073a.449.449 0 0 1 .692.375v11.778a.449.449 0 0 1-.692.375l-5.738-3.75H.189A.19.19 0 0 1 0 8.662V4.014a.19.19 0 0 1 .19-.19h2.667zm.577 4.18 4.83 3.157V1.515L3.16 4.849H1.024v2.978h2.137l.273.178zM12.59 10.927l-1.779-1.028a.19.19 0 0 1-.068-.258l.32-.557a.189.189 0 0 1 .257-.07l1.78 1.028a.19.19 0 0 1 .068.258l-.32.557a.189.189 0 0 1-.188.093.19.19 0 0 1-.07-.023zM11.11 3.648a.189.189 0 0 1-.048-.055l-.32-.556a.19.19 0 0 1 .07-.258l1.779-1.027a.188.188 0 0 1 .256.07l.32.555a.19.19 0 0 1-.069.258l-1.78 1.027a.188.188 0 0 1-.208-.014zM11.745 5.826h2.066a.19.19 0 0 1 .189.19v.645a.19.19 0 0 1-.19.19h-2.065a.19.19 0 0 1-.19-.19v-.645a.19.19 0 0 1 .19-.19z"/></svg>