<svg fill="currentColor" xmlns="http://www.w3.org/2000/svg" viewBox="0 0 15 14"><path d="M7.343 4.598h4.804v.882H7.343v-.882zM7.343 6.363h3.363v.882H7.343v-.882zM7.343 8.127h4.804v.883H7.343v-.883zM7.343 10.774h3.363v-.882H7.343v.883zM3.64 8.64a.218.218 0 0 0-.055-.049l-.011-.006-.01-.007c-.001-.001-.012-.007-.04-.007h-.877a.053.053 0 0 0-.004.004c.009.214.066.416.173.608.111.186.275.35.5.488.225.137.5.23.83.273l.133.018v.675c0 .012.002.019.003.022l.002.005.002.002a.033.033 0 0 0 .007.004l.008.002h.58c.008 0 .011-.002.011-.002l.003-.002.002-.002.001-.003.001-.002v-.001a.07.07 0 0 0 .004-.023v-.681l.132-.02c.48-.068.85-.238 1.12-.5.265-.257.399-.586.399-1 0-.3-.057-.533-.16-.708a1.168 1.168 0 0 0-.502-.444h-.003c-.239-.126-.569-.233-.995-.32H4.89a4.813 4.813 0 0 1-.637-.185l-.006-.003a1.056 1.056 0 0 1-.36-.239l-.003-.004a.57.57 0 0 1-.128-.376c0-.204.074-.377.232-.493.148-.11.345-.154.572-.154.203 0 .386.047.538.15.14.092.244.214.289.369.011.016.02.025.026.03.01.004.03.01.063.01h.916v-.003a1.155 1.155 0 0 0-.166-.517 1.524 1.524 0 0 0-.465-.484l-.003-.002a1.756 1.756 0 0 0-.729-.3l-.126-.022V4.05a.07.07 0 0 0-.003-.023.022.022 0 0 0-.005-.008l-.002-.002v-.001a.03.03 0 0 0-.012-.001H4.3l-.006.001a.037.037 0 0 0-.009.006.023.023 0 0 0-.002.005.07.07 0 0 0-.003.023v.68l-.132.02c-.44.063-.773.23-1.015.494H3.13c-.242.26-.363.571-.363.944 0 .43.126.742.361.959.156.143.369.268.643.37.16.061.343.114.547.159h.002c.305.073.54.14.703.2.162.06.298.133.39.229.108.104.16.24.16.393 0 .219-.101.394-.28.513-.176.117-.413.165-.692.165-.246 0-.46-.047-.628-.156l-.002-.002a.947.947 0 0 1-.332-.378z"/><path d="M14 13.52V3.02h.686V0H0v3.02h.686v10.5a.48.48 0 0 0 .784.372l1.24-1.008 1.242 1.008a.48.48 0 0 0 .606 0l1.241-1.008 1.241 1.008a.48.48 0 0 0 .606 0l1.241-1.008 1.241 1.008a.48.48 0 0 0 .606 0l1.242-1.008 1.24 1.008A.48.48 0 0 0 14 13.52zM.96.96h12.765V2.06H.962V.96zm.687 2.06H13.04v9.49l-.76-.618a.48.48 0 0 0-.607 0l-1.24 1.009-1.242-1.01a.48.48 0 0 0-.606 0l-1.24 1.01-1.242-1.01a.48.48 0 0 0-.606 0l-1.241 1.01-1.241-1.01a.48.48 0 0 0-.606 0l-.76.62V3.02z"/></svg>