<svg fill="currentColor" xmlns="http://www.w3.org/2000/svg" viewBox="0 0 15 11"><path d="M13.469 5.935 15 4.213l-.646-.777-1.627 1.82-.813-.776a14.663 14.663 0 0 0-1.172-.97L9.354 2.49c-.478-.34-1.244-.364-1.746-.073l-.503.316a.337.337 0 0 1-.143.048c-.096 0-.216-.048-.263-.121l-.12-.146a.413.413 0 0 1-.048-.121c0-.049.024-.121.096-.194L8.134 1.13A.939.939 0 0 1 8.9 1.06l1.22.606a1.875 1.875 0 0 0 1.746-.097l.622-.388-.646-.752-.502.315c-.072.049-.263.097-.455.097-.167 0-.287-.024-.335-.073L9.33.161a1.727 1.727 0 0 0-.718-.146c-.382 0-.741.097-1.004.291L7.56.331 7.177.185C6.699-.058 5.981-.058 5.478.161l-.837.364c-.12.048-.287.073-.478.073a1.42 1.42 0 0 1-.479-.073L3.23.33l-.67.776.741.316c.479.218 1.22.218 1.723 0l.837-.364c.096-.049.263-.073.43-.073.097 0 .24.024.336.048l-.527.389a1.235 1.235 0 0 0-.502.994c0 .267.072.51.24.728l.119.146c.383.51 1.148.655 1.699.34l.502-.316a.592.592 0 0 1 .31-.073c.168 0 .312.049.36.097l1.387 1.02c.311.218.814.63 1.077.897l1.603 1.504c.072.049.072.122.072.17 0 .049 0 .097-.072.17l-.12.145c-.072.073-.191.146-.335.025l-2.296-2.16-.67.728 2.464 2.305a.222.222 0 0 1 .072.17c0 .049 0 .097-.072.17l-.12.145a.254.254 0 0 1-.335.025l-2.296-2.16-.67.728 2.057 1.941a.222.222 0 0 1 .072.17.222.222 0 0 1-.072.17l-.12.145c-.071.073-.19.146-.334 0L8.062 7.731l-.526.558-.144.17 1.1 1.043a.222.222 0 0 1 .073.17c0 .048 0 .097-.072.17l-.12.024c-.072.073-.191.145-.335.024l-.837-.776-.12-.073h-.024a1.236 1.236 0 0 0-.358-.752l-.144-.122c-.191-.194-.455-.29-.718-.34a2.179 2.179 0 0 0-.335-.679l-.143-.12a.935.935 0 0 0-.383-.244c0-.072.024-.12.024-.194 0-.34-.144-.655-.383-.897l-.143-.122a1.178 1.178 0 0 0-.742-.34 1.122 1.122 0 0 0-.359-.63L3.23 4.48c-.407-.389-1.077-.437-1.555-.097L.598 3.46 0 4.164l1.005.874-.503.533a1.222 1.222 0 0 0-.335.85c0 .34.144.655.383.897l.144.122c.095.097.191.145.31.218-.023.121-.047.243-.047.364 0 .34.143.655.383.898l.095.097c.287.267.718.388 1.1.315.073.146.144.267.264.364l.144.121c.335.316.86.413 1.291.243.048.097.12.194.216.291l.143.121c.455.437 1.268.437 1.723-.048l.43-.461.646.606a1.203 1.203 0 0 0 1.722-.049l.12-.145c.048-.048.096-.121.144-.194l.096.073a1.247 1.247 0 0 0 1.722-.073l.12-.145c.12-.122.215-.291.263-.461.383.048.718-.122.98-.389l.12-.145c.216-.218.335-.534.335-.825v-.049a1.46 1.46 0 0 0 .527-.315l.12-.146c.215-.218.334-.533.334-.824 0-.34-.143-.68-.383-.898l-.143-.049zM6.077 9.162c0 .049 0 .122-.072.17l-.455.437a.229.229 0 0 1-.335 0l-.143-.122C5 9.6 5 9.527 5 9.477c0-.048 0-.096.072-.17l.454-.46a.216.216 0 0 1 .168-.073c.048 0 .12 0 .167.073l.144.121c.048.073.072.121.072.194zM3.42 8.677l.933-.97a.216.216 0 0 1 .168-.073c.047 0 .12 0 .167.072l.144.122a.222.222 0 0 1 .071.17c0 .048 0 .097-.071.17l-.886.921c-.071.073-.191.146-.335 0l-.143-.12c-.072-.05-.072-.122-.072-.17 0-.05 0-.098.024-.122zM1.124 6.42c0-.049 0-.122.072-.17L2.25 5.159c.12-.121.215-.121.335 0l.095.097c.048.073.096.17.096.218 0 .049-.024.097-.024.097L1.627 6.736c-.096.073-.216.048-.311-.024l-.12-.122c-.024-.048-.072-.12-.072-.17zm2.871.145c0 .049 0 .121-.072.17L2.416 8.289c-.143.145-.263.073-.335 0l-.143-.122c-.024-.048-.048-.097-.048-.17 0-.072.024-.12.072-.17 1.411-1.455 1.507-1.576 1.507-1.576.072-.073.191-.122.335 0l.143.121c.048.073.048.146.048.194z"/></svg>