<svg fill="currentColor" xmlns="http://www.w3.org/2000/svg" viewBox="0 0 15 15"><path d="m12.471 3.456-.133-.172c-.676-.773-1.387-1.302-2.182-1.636-.794-.335-1.665-.473-2.656-.473a6.325 6.325 0 1 0 6.324 6.429H15A7.5 7.5 0 1 1 7.5 0c2.197 0 3.931.62 5.455 2.219l.179.187V.686h1.175V4.63h-3.94V3.456h2.102z"/><path d="M6.874 10.768c-.457-.056-.846-.173-1.169-.349a2.004 2.004 0 0 1-.718-.632 1.628 1.628 0 0 1-.252-.799c0-.03.011-.057.037-.082a.14.14 0 0 1 .102-.046h1.184c.066 0 .11.014.139.034l.004.003.005.003a.44.44 0 0 1 .124.1c.088.171.225.312.407.422.196.115.454.169.768.169.362 0 .649-.057.852-.178.205-.123.315-.297.315-.517a.494.494 0 0 0-.173-.388c-.104-.096-.265-.178-.475-.248a9.46 9.46 0 0 0-.928-.236c-.754-.149-1.305-.374-1.662-.67-.351-.29-.53-.704-.53-1.25 0-.48.175-.888.525-1.225.35-.344.83-.557 1.446-.637l.059-.008V3.52c0-.052.015-.09.044-.12a.182.182 0 0 1 .123-.046h.78c.053 0 .091.016.12.045a.16.16 0 0 1 .047.121v.732l.056.01c.406.067.75.195 1.036.382l.001.001c.294.183.515.392.665.626.151.235.23.463.243.686 0 .03-.011.06-.038.093a.124.124 0 0 1-.092.035H8.68a.356.356 0 0 1-.156-.03.303.303 0 0 1-.092-.09c-.045-.161-.162-.292-.337-.395a1.217 1.217 0 0 0-.646-.16c-.288 0-.52.051-.686.161a.562.562 0 0 0-.255.497.53.53 0 0 0 .14.374l.002.001c.097.097.244.183.436.259h.002c.199.071.478.144.836.219h.002c.58.106 1.036.239 1.373.398H9.3c.336.152.578.348.733.584.153.236.233.54.233.919 0 .53-.193.961-.578 1.298-.388.338-.913.553-1.58.64l-.06.007v.715a.16.16 0 0 1-.045.12.162.162 0 0 1-.121.046H7.1a.182.182 0 0 1-.123-.047.16.16 0 0 1-.044-.12v-.705l-.06-.008z"/></svg>