<svg fill="currentColor" xmlns="http://www.w3.org/2000/svg" viewBox="0 0 15 12"><path d="M12.273 10.91H2.455V8.181H1.364v2.59c0 .675.552 1.228 1.227 1.228h9.545c.675 0 1.228-.553 1.228-1.227V8.182h-1.091v2.727zM2.455 3.818v-1.09H1.364v1.09h1.09zM10.636 1.09V0h-1.09v1.09h1.09zM13.356 1.09A1.233 1.233 0 0 0 12.273.009V1.09h1.083zM14.727 5.455H0v1.09h14.727v-1.09zM5.182 1.09V0H4.09v1.09h1.09zM13.364 3.818v-1.09h-1.091v1.09h1.09zM7.91 1.09V0H6.817v1.09H7.91zM1.371 1.09h1.084V.009A1.233 1.233 0 0 0 1.37 1.09z"/></svg>