<svg fill="currentColor" xmlns="http://www.w3.org/2000/svg" viewBox="0 0 14 16"><path d="M1.052 14.02h1.401v1.052H1.227c-.678 0-1.227-.55-1.227-1.227V1.227C0 .549.55 0 1.227 0h7.227l3.813 3.813v2.846h-1.051V5.257h-2.98c-.677 0-1.226-.549-1.226-1.226V1.05H1.052V14.02zm10.121-9.814L8.061 1.094v3.112h3.112z"/><path d="M13.777 9.748c-.277-1.074-1.102-1.803-2.189-2.14-1.084-.338-2.435-.291-3.806.177l-.22.08c-.097.021-.184.05-.269.085l-.136.065-.098.056c-1.281.578-2.343 1.454-3.023 2.44-.68.986-.987 2.097-.72 3.129.285 1.108 1.154 1.848 2.29 2.171 1.135.323 2.546.237 3.962-.3 1.412-.537 2.598-1.432 3.365-2.462.766-1.028 1.126-2.208.844-3.3zm-3.899-.95c-.18-.12-.351-.229-.516-.325.808-.103 1.542-.026 2.126.197.7.267 1.178.738 1.338 1.359.163.631-.009 1.368-.467 2.091-.382.604-.958 1.187-1.676 1.668.03-.07.064-.144.101-.223l.193-.395.464-.9c.439-.86.612-1.293.665-1.787a.515.515 0 0 0-.364-.559l-.126-.036c-.182-.056-.326-.129-.73-.4h-.001l-1.005-.69h-.002zm-2.268.155.12-.047c.504.11.976.344 1.634.783l.997.684.001.002c.302.202.494.32.67.4a5.988 5.988 0 0 1-.272.633l-.192.385-.467.905v.001c-.392.776-.597 1.28-.64 1.737-.152.063-.335.13-.478.174-.466-.159-.877-.408-1.354-.793l-.743-.617-.232-.172-.005-.004a2.099 2.099 0 0 0-.484-.255c.062-.346.226-.775.557-1.5l.368-.805v-.002c.274-.621.428-1.062.496-1.498l.024-.01zM4.265 13.36c-.161-.624.006-1.353.454-2.07.375-.599.94-1.178 1.647-1.66a9.985 9.985 0 0 1-.071.175l-.199.454-.374.815v.002c-.441.989-.599 1.521-.569 2.169.013.279.241.517.533.489a.305.305 0 0 1 .069.001c.105.014.248.08.479.254l.242.197.312.26.012.012c.104.086.191.16.227.188l.25.195.003.002.143.104c-.74.054-1.404-.047-1.933-.273-.639-.274-1.073-.727-1.225-1.314z"/></svg>