<svg fill="currentColor" xmlns="http://www.w3.org/2000/svg" viewBox="0 0 14 14"><path d="M6.936 9.36v.379l-1.999 3.107a.467.467 0 0 1-.362.188H0c.12 0 .33-.066.423-.2l2.02-3.142a.762.762 0 0 0 .113-.333h4.38zm-.014-3.32L6.02 7.454H3.705a.46.46 0 0 1-.274-.081c.118.08.34.062.506-.147l2.106-3.11a.762.762 0 0 0 .115-.386h.778v2.285a.487.487 0 0 0-.014.025zm.014 3.699.033-.05c.062-.096.099-.211.108-.33h-.14v.38zm0 3.295c.126-.005.342-.082.41-.204l2.02-3.142c.065-.11.1-.221.11-.329h4.522a.698.698 0 0 1-.113.337l-2.024 3.147a.475.475 0 0 1-.364.191h-4.56zm0-9.304h3.745a.686.686 0 0 1-.101.367L9.626 5.58H7.599c-.296 0-.482.139-.648.413l-.015.021V3.73zm.079 2.166c-.022.03-.043.063-.064.098a.396.396 0 0 1 .064-.072v-.026zm0-5.896v3.73h-.857a.74.74 0 0 0-.114-.394L4.028.203C3.94.068 3.726 0 3.606 0h3.409zM.025 5.582H2.16l.942 1.396c.125.19.22.32.329.395a.46.46 0 0 0 .274.08h2.316l.951 1.477c.016.025.03.05.043.077v.352H2.556a.713.713 0 0 0-.11-.43L.417 5.773c-.066-.107-.267-.182-.39-.19zm6.99-1.852V0H8.18c.104 0 .264.047.37.2l2.028 3.153c.07.11.103.244.103.377H7.015zm0 2.192c.15-.13.367-.1.5.126l1.852 2.88a.67.67 0 0 1 .109.431h4.522a.702.702 0 0 0-.114-.44l-2.021-3.143a.474.474 0 0 0-.366-.195H7.599c-.259 0-.433.106-.584.315v.026zm0 3.085c.052.11.071.233.062.352h-.062v-.352z"/></svg>