<svg fill="currentColor" xmlns="http://www.w3.org/2000/svg" viewBox="0 0 16 15"><path fill-rule="evenodd" d="M5.45 4.938 0 5.729l3.943 3.844L3.013 15l4.873-2.562L12.76 15l-.931-5.427 3.943-3.844-5.45-.791L7.887 0 5.449 4.938zm-2.3 9.873.904-5.274-.904 5.274zm12.4-9.01-5.296-.769 5.296.77zM7.886.235 5.518 5.032l-5.296.77 5.296-.77L7.886.234zm2.721 8.942.643 3.746-3.364-1.769-3.364 1.769 3.364-1.769 3.364 1.769-.643-3.746 2.722-2.653-2.722 2.653zm-1.04-3.2L7.887 2.57l1.682 3.408zm-1.681 5.06-3.227 1.697.617-3.593-2.61-2.544 3.607-.525 1.613-3.268L9.499 6.07l3.608.525-2.61 2.544.616 3.593-3.227-1.697z" clip-rule="evenodd"/></svg>