<svg fill="currentColor" xmlns="http://www.w3.org/2000/svg" viewBox="0 0 14 14"><path d="M12.263 5.11H1.022v7.153h5.45v1.022h-5.28A1.192 1.192 0 0 1 0 12.092V1.873C0 1.215.534.681 1.192.681h1.533V0h1.022v.681h5.79V0h1.023v.681h1.532c.659 0 1.193.534 1.193 1.192v4.599h-1.022V5.109zM3.747 1.702v.681H2.725v-.68H1.022v2.384h11.24V1.703H10.56v.681H9.538v-.68H3.747z"/><path d="M14 10.39a3.61 3.61 0 1 1-7.221 0 3.61 3.61 0 0 1 7.221 0zm-3.61 2.656a2.657 2.657 0 1 0 0-5.314 2.657 2.657 0 0 0 0 5.314z"/><path d="m9.697 11.218.007.003a.145.145 0 0 1 .038.03c.051.097.13.175.229.236.116.067.261.096.43.096.19 0 .352-.03.471-.101a.368.368 0 0 0 .195-.325.323.323 0 0 0-.111-.25.739.739 0 0 0-.268-.142 4.895 4.895 0 0 0-.482-.123h-.002c-.38-.076-.65-.189-.82-.33-.16-.134-.246-.325-.246-.589 0-.228.082-.42.247-.58.167-.163.398-.268.701-.307l.091-.012v-.428c0-.007.002-.01.002-.01v-.002a.022.022 0 0 1 .014-.005h.4c.006 0 .01.002.01.002l.003.002a.009.009 0 0 1 .002.002v.445l.088.015c.2.033.367.096.503.186l.002.001c.144.09.249.19.32.3.07.11.105.214.112.311h-.631a.125.125 0 0 1-.047-.007.086.086 0 0 1-.017-.017.427.427 0 0 0-.2-.23.69.69 0 0 0-.367-.092.698.698 0 0 0-.39.094.358.358 0 0 0-.161.313c0 .09.029.173.09.24l.003.002c.06.06.144.107.246.148l.004.002c.106.037.253.075.437.114h.003c.293.054.521.121.686.2h.002a.78.78 0 0 1 .345.274c.07.108.108.25.108.434 0 .254-.09.456-.272.615-.186.163-.44.269-.772.312l-.091.012v.428c0 .006-.002.01-.002.01l-.001.003a.009.009 0 0 1-.003.002l-.01.001h-.4c-.004 0-.008 0-.014-.005 0 0-.002-.005-.002-.011v-.424l-.091-.011a1.587 1.587 0 0 1-.574-.171.96.96 0 0 1-.342-.302.77.77 0 0 1-.118-.367l.001-.002h.606c.023 0 .031.005.031.005l.007.005z"/></svg>