<svg fill="currentColor" xmlns="http://www.w3.org/2000/svg" viewBox="0 0 22 22"><path fill-rule="evenodd" d="M16.866 6.203a3.535 3.535 0 1 0-4.638 0h-.392c-1.02 0-1.866.23-2.54.658a3.666 3.666 0 0 0-1.46 1.81 5.114 5.114 0 0 1 1.477 1.09 2.9 2.9 0 0 1 .175-.552c.16-.365.397-.668.739-.886.343-.218.85-.387 1.609-.387h6.117c.188 0 .64.11 1.063.634.376.465.759 1.298.836 2.738-1.896.829-5.647 1.713-9.378.444a5.097 5.097 0 0 1 .212 1.878c4.395 1.205 8.621-.062 10.447-1.013l.467-.243v-.526c0-2.046-.497-3.454-1.236-4.367-.734-.91-1.672-1.278-2.411-1.278h-1.087zm-.517-2.668a1.801 1.801 0 1 1-3.603 0 1.801 1.801 0 0 1 3.603 0z" clip-rule="evenodd"/><path fill-rule="evenodd" d="M6.12 6.934a6.12 6.12 0 0 1 4.943 9.729l4.003 4.003L13.732 22l-4.003-4.003A6.12 6.12 0 1 1 6.12 6.934zm4.233 6.12a4.233 4.233 0 1 0-8.466 0 4.233 4.233 0 0 0 8.466 0z" clip-rule="evenodd"/></svg>