<svg fill="currentColor" xmlns="http://www.w3.org/2000/svg" viewBox="0 0 13 15"><path d="M1 13.333h2v1H1.167A1.167 1.167 0 0 1 0 13.167v-12C0 .522.522 0 1.167 0H8.04l3.627 3.626v2.707h-1V5H7.833a1.167 1.167 0 0 1-1.166-1.167V1H1v12.333zM10.626 4l-2.96-2.96V4h2.96z"/><path d="m7.048 11.122 2.361-1.417-.027-.119a1.833 1.833 0 1 1 .661 1.029l-.09-.07-2.362 1.417.027.118a1.833 1.833 0 1 1-.661-1.029l.09.07zM11.167 10a.833.833 0 1 0 0-1.667.833.833 0 0 0 0 1.667zm-5.334 3.333a.833.833 0 1 0 0-1.666.833.833 0 0 0 0 1.666z"/></svg>