<svg fill="currentColor" xmlns="http://www.w3.org/2000/svg" viewBox="0 0 16 15"><path d="M12.198.996c.144-.227.245-.544.245-.996h.682c0 .378.008.817.274 1.173.25.338.804.689 2.112.689v.682c-.352 0-.775.003-1.167.121l-.018.006c-.12.038-.24.086-.351.15a1.425 1.425 0 0 0-.576.597c-.165.31-.274.742-.274 1.355h-.682c0-.44-.007-.984-.287-1.423-.259-.407-.81-.806-2.1-.806l-.045-.68.228-.028c.442-.054.942-.115 1.37-.328.242-.12.444-.283.589-.512zM12.776 12.842c.09-.13.152-.31.152-.57h.422c0 .207.005.446.15.645a.821.821 0 0 0 .324.253l.01.004.021.01c.168.071.399.126.718.145.08.005.165.008.256.008v.39c-.164 0-.353 0-.54.03l-.026.004a1.312 1.312 0 0 0-.416.14.857.857 0 0 0-.259.223c-.14.18-.238.453-.238.876h-.422c0-.252-.005-.562-.179-.813a.789.789 0 0 0-.11-.129.981.981 0 0 0-.284-.181l-.016-.008a2.115 2.115 0 0 0-.731-.14 3.834 3.834 0 0 0-.14-.003h-.02l-.027-.388.05-.006.03-.003.06-.007c.257-.029.545-.062.799-.165l.005-.003.037-.015.009-.005a.993.993 0 0 0 .229-.142.76.76 0 0 0 .136-.15zM8.234.682c0 .194-.038.33-.091.427a.56.56 0 0 1-.22.219c-.158.091-.345.118-.509.14l-.016.003a5.114 5.114 0 0 0-.068.01l.016.291c.48 0 .685.171.781.345.07.128.095.277.103.418.004.067.004.132.004.192h.254c0-.064.002-.123.006-.178a1.3 1.3 0 0 1 .067-.333.617.617 0 0 1 .242-.325c.178-.116.398-.119.572-.119V1.48c-.487 0-.693-.15-.786-.295-.098-.153-.101-.341-.101-.503h-.254zM7.346 2.454l-.252-.238H1.33C.59 2.216 0 2.79 0 3.484v9.396c0 .692.59 1.268 1.33 1.268h9.839l-.4-.372-.029-.388.357-.435-9.938-.007V3.409l7.329.005V3.41h-.254l-.682-.682a1.734 1.734 0 0 0-.015-.253.72.72 0 0 0-.19-.02z"/><path d="m13.807 4.773-.307.307v6.66l.532.533c0 .11.003.167.011.212a.157.157 0 0 0 .008.03c.028.024.17.117.608.136V3.484c0-.066-.005-.13-.015-.193a1.226 1.226 0 0 0-.334.123.77.77 0 0 0-.317.339c-.096.187-.186.5-.186 1.02zM3.806 8.647a2.72 2.72 0 0 0-.865.98c-.195.375-.303.79-.315 1.214h.955c.034-.935.777-1.674 1.703-1.674.927 0 1.669.74 1.703 1.674h.955a2.791 2.791 0 0 0-.315-1.213 2.72 2.72 0 0 0-.865-.981L6.695 8.6l.058-.057c.393-.394.645-.937.645-1.539 0-1.19-.953-2.163-2.114-2.163-1.16 0-2.114.972-2.114 2.163 0 .602.252 1.145.645 1.539l.058.057-.067.047zm2.637-1.643c0 .66-.51 1.184-1.159 1.184-.648 0-1.159-.525-1.159-1.184 0-.66.51-1.184 1.16-1.184.647 0 1.158.525 1.158 1.184zM8.761 6.205h3.273v1.227H8.761V6.205zM9.614 8.932h2.42v1.227h-2.42V8.932z"/></svg>