<svg fill="currentColor" xmlns="http://www.w3.org/2000/svg" viewBox="0 0 13 11"><path d="M8 7.667v-1h2.333v1H8zM2.667 7.667v-1H7v1H2.667z"/><path d="M13 9.167c0 .644-.522 1.166-1.167 1.166H1.167A1.167 1.167 0 0 1 0 9.167v-8C0 .522.522 0 1.167 0h10.666C12.478 0 13 .522 13 1.167v8zM12 1H1v8.333h11V1z"/><path d="M3.936 5.207c-.382 0-.68-.092-.896-.276-.214-.187-.327-.456-.34-.808-.003-.072-.004-.19-.004-.352 0-.166.001-.286.004-.36.013-.347.13-.614.348-.8.218-.19.514-.284.888-.284.234 0 .445.04.632.12.186.077.333.189.44.336.11.144.165.313.168.508v.008c0 .021-.01.04-.028.056a.085.085 0 0 1-.056.02h-.54a.136.136 0 0 1-.08-.02.188.188 0 0 1-.048-.084c-.038-.136-.096-.231-.176-.284a.54.54 0 0 0-.316-.084c-.315 0-.478.176-.488.528a9.92 9.92 0 0 0-.004.332c0 .149.001.262.004.34.01.352.173.528.488.528a.56.56 0 0 0 .32-.084.468.468 0 0 0 .172-.284c.01-.04.025-.067.044-.08.018-.016.046-.024.084-.024h.54c.024 0 .044.008.06.024a.065.065 0 0 1 .024.06.854.854 0 0 1-.168.512 1.045 1.045 0 0 1-.44.336 1.638 1.638 0 0 1-.632.116zM5.696 5.167a.106.106 0 0 1-.072-.028.106.106 0 0 1-.028-.072v-2.6c0-.03.01-.054.028-.072a.106.106 0 0 1 .072-.028h1.12c.342 0 .61.078.804.236.198.157.296.386.296.688 0 .298-.097.524-.292.676-.194.149-.464.224-.808.224H6.34v.876c0 .029-.01.053-.032.072a.097.097 0 0 1-.072.028h-.54zm1.1-1.528c.118 0 .21-.03.276-.088.067-.062.1-.151.1-.268a.351.351 0 0 0-.096-.26c-.06-.067-.154-.1-.28-.1h-.468v.716h.468zM8.4 5.167a.106.106 0 0 1-.072-.028.106.106 0 0 1-.028-.072v-2.6c0-.03.009-.054.028-.072a.106.106 0 0 1 .072-.028h1.84c.029 0 .053.009.072.028a.097.097 0 0 1 .027.072v.404c0 .026-.009.05-.027.072a.097.097 0 0 1-.072.028H9.003v.588h1.155c.03 0 .054.01.072.032a.097.097 0 0 1 .028.072v.4c0 .026-.009.05-.027.072a.097.097 0 0 1-.072.028H9.003v.904c0 .029-.01.053-.028.072a.097.097 0 0 1-.072.028H8.4z"/></svg>