<svg fill="currentColor" xmlns="http://www.w3.org/2000/svg" viewBox="0 0 16 13"><path d="M15.291 2.554C14.571 1.07 12.964.254 11.13.05 9.29-.152 7.17.252 5.329 1.27 3.412 2.328 1.846 3.806.919 5.388c-.927 1.58-1.232 3.298-.547 4.795.692 1.51 2.123 2.417 3.853 2.71 1.726.294 3.766-.017 5.74-.951.113-.048.226-.103.338-.167.098-.05.195-.101.293-.155 2.05-1.119 3.586-2.613 4.432-4.214.848-1.603 1.005-3.323.263-4.852zM5.177 5.26c.484-1.18.729-2.016.79-2.98.23-.113.516-.144.89-.073.444.085.991.31 1.666.686l.338.193 1.655 1.009.002.001c.652.39 1.058.607 1.404.71-.116.5-.317 1.044-.655 1.812l-.389.857c-.742 1.632-1.028 2.407-1.02 3.262a2.417 2.417 0 0 1-.22.115c-.79.357-1.618.115-2.998-.875l-1-.733-.001-.002c-.68-.49-1.07-.736-1.453-.806 0-.28.04-.572.119-.892l.073-.265c.103-.341.159-.499.42-1.119l.378-.898v-.002zm3.85-3.369a10.212 10.212 0 0 0-.983-.487c1.233-.307 2.471-.35 3.535-.14 1.305.257 2.305.88 2.755 1.806.54 1.113.453 2.415-.208 3.71-.594 1.167-1.65 2.317-3.103 3.278.108-.432.327-.985.717-1.852l.24-.526c.68-1.481.99-2.32 1.109-3.296.037-.312-.189-.653-.553-.638h-.103c-.242-.01-.528-.123-1.456-.68h-.001l-1.398-.855-.002-.002a18.98 18.98 0 0 0-.549-.318zM1.341 9.69c-.47-1.03-.292-2.3.43-3.588.64-1.145 1.697-2.274 3.034-3.196-.106.556-.301 1.14-.619 1.912l-.545 1.3-.001.004c-.14.347-.2.524-.288.818-.23.762-.304 1.457-.187 2.164.047.278.298.514.613.463a.576.576 0 0 1 .196-.005c.062.01.14.035.255.094.238.122.584.36 1.194.81l.372.275c.521.386 1.003.704 1.459.94-1.233.259-2.4.243-3.38-.02-1.184-.318-2.085-.992-2.533-1.971z"/></svg>