<svg fill="currentColor" xmlns="http://www.w3.org/2000/svg" viewBox="0 0 13 13"><path d="M2.848 2.97A2.97 2.97 0 1 1 7.55 5.386l-.169.121h1.363c.359 0 .791.116 1.21.391-.78.005-1.508.23-2.127.614h-4.34c-.688 0-1.171.154-1.512.37-.34.217-.573.518-.727.87-.274.627-.285 1.394-.189 1.992l.006.034.031.015c1.649.802 3.348 1.06 4.885 1.027.073.35.19.684.346.994C4.483 11.9 2.4 11.61.389 10.561l-.205-.107-.052-.225c-.174-.746-.236-1.892.196-2.882.221-.505.574-.974 1.108-1.313.533-.34 1.212-.528 2.053-.528h.766l-.168-.121a2.967 2.967 0 0 1-1.24-2.414zm2.97-1.965a1.966 1.966 0 1 0 0 3.931 1.966 1.966 0 0 0 0-3.93zM10.195 9.44V8.316h-.756V9.44H8.317v.756H9.44v1.122h.756v-1.122h1.122v-.756h-1.122z"/><path d="M6.634 9.817a3.183 3.183 0 1 0 6.366 0 3.183 3.183 0 0 0-6.366 0zm5.61 0a2.427 2.427 0 1 1-4.854 0 2.427 2.427 0 0 1 4.854 0z"/></svg>