<svg fill="currentColor" xmlns="http://www.w3.org/2000/svg" viewBox="0 0 11 15"><path d="M9.545 0c.754 0 1.364.61 1.364 1.364v12.272c0 .754-.61 1.364-1.364 1.364H1.364C.61 15 0 14.39 0 13.636V1.364C0 .61.61 0 1.364 0h8.181zm0 5.455V4.09H1.364v1.364h8.181zM4.091 8.182V6.818H2.727v1.364h1.364zm-1.364 2.045h1.364V8.864H2.727v1.363zm5.455 2.046v-3.41H6.818v3.41h1.364zm-5.455 0h1.364v-1.364H2.727v1.364zm2.046 0h1.363v-1.364H4.773v1.364zm1.363-2.046V8.864H4.773v1.363h1.363zM4.773 8.182h1.363V6.818H4.773v1.364zm3.409 0V6.818H6.818v1.364h1.364z"/></svg>