<svg fill="currentColor" xmlns="http://www.w3.org/2000/svg" viewBox="0 0 14 15"><path d="M11.908 2.784v-.093l-.173-.107c-.22-.137-.501-.312-.659-.416C10.05 1.482 8.56 1.014 7 1.014c-.856 0-1.846.235-2.654.512L3.571.751C4.467.391 5.733 0 7 0c1.989 0 3.65.665 4.639 1.324.239.159.441.282.608.383.285.172.444.271.542.383.083.096.127.21.127.445v.016l.001.013.001.036.002.124.002.416c.002.345.002.811.002 1.335 0 1.05-.003 2.33-.006 3.33l-.002 1.491c0 .23-.036.46-.107.693l-.907-.907v-.627l.004-1.32.002-1.145c.002-1.509.002-2.804 0-3.206zM2.549 11.871c.984.875 2.465 1.759 4.451 2.649 1.72-.769 3.062-1.534 4.03-2.294l.118-.093 2.135 2.135.717-.717L.717.268 0 .985l1.157 1.157-.034.1a.896.896 0 0 0-.039.293v6.761c0 .831.468 1.69 1.465 2.575zm7.882-.455-.156.117c-.776.584-1.84 1.203-3.203 1.84l-.071.033-.072-.034c-1.62-.758-2.818-1.491-3.614-2.17-.788-.67-1.217-1.317-1.217-1.906V3.083l8.333 8.333z"/></svg>