<svg fill="currentColor" xmlns="http://www.w3.org/2000/svg" viewBox="0 0 13 15"><path d="M1.044 1.044v12.877H5.22v1.044H1.218A1.218 1.218 0 0 1 0 13.747V1.218C0 .545.545 0 1.218 0h7.177l3.786 3.786V7.31h-1.044V5.22H8.179A1.218 1.218 0 0 1 6.96 4.002V1.044H1.044zm6.96.042v3.09h3.09l-3.09-3.09z"/><path d="m6.695 12.22 3.626-3.626a.982.982 0 0 1 .684-.276c.251 0 .47.1.644.276l.988.988a.887.887 0 0 1 .275.643c0 .249-.098.507-.275.684L9.04 14.504l-.007.007A1.45 1.45 0 0 1 8.02 15H6.23l.001-1.829c.03-.374.204-.722.464-.951zm4.29-2.953-.852.851.979.979.852-.852-.979-.978zm-.542 2.498-.979-.979-2.122 2.122a.514.514 0 0 0-.166.29v.857H7.992a.52.52 0 0 0 .352-.192l.003-.003 2.095-2.095z"/></svg>