<svg fill="currentColor" xmlns="http://www.w3.org/2000/svg" viewBox="0 0 16 7"><path d="M.68 3.234v-.17H.51a.51.51 0 0 1 0-1.021h.395L.95 1.94a3.235 3.235 0 0 1 5.742-.364l.086.143.144-.082A2.192 2.192 0 0 1 8 1.362c.396 0 .77.1 1.078.275l.144.082.086-.143a3.235 3.235 0 0 1 5.742.364l.045.103h.394a.51.51 0 0 1 0 1.02h-.17v.171a3.234 3.234 0 1 1-6.452-.324l.019-.187h-.087a.667.667 0 0 0-.22-.2A1.176 1.176 0 0 0 8 2.384c-.233 0-.433.057-.58.14a.667.667 0 0 0-.22.2h-.086l.019.187a3.234 3.234 0 1 1-6.452.324zm3.235 2.213a2.213 2.213 0 1 0 0-4.426 2.213 2.213 0 0 0 0 4.426zm8.17 0a2.213 2.213 0 1 0 0-4.426 2.213 2.213 0 0 0 0 4.426z"/></svg>