<svg fill="currentColor" xmlns="http://www.w3.org/2000/svg" viewBox="0 0 14 14"><path d="m13.958 13.11-.847.848-3.937-3.937-.06.06a2.924 2.924 0 0 0-3.984 0l-.847-.847a4.11 4.11 0 0 1 2.972-1.132L5.788 6.635a5.714 5.714 0 0 0-2.651 1.452l-.848-.847a6.91 6.91 0 0 1 2.535-1.569L3.612 4.46a8.543 8.543 0 0 0-2.416 1.688l-.847-.848a9.753 9.753 0 0 1 2.369-1.734L0 .847.847 0l13.11 13.11zM5.826 3.776 4.814 2.764A9.755 9.755 0 0 1 14 5.194l-.847.848a8.55 8.55 0 0 0-7.327-2.266zM8.77 6.72 7.334 5.284c1.672.05 3.329.702 4.62 1.955l-.848.847A5.714 5.714 0 0 0 8.77 6.72z"/><path d="m7.122 12.073-.844-.844a1.304 1.304 0 0 1 1.688 0l-.844.844z"/></svg>