<svg fill="currentColor" xmlns="http://www.w3.org/2000/svg" viewBox="0 0 12 15"><path d="M1.003 13.37h3.342v1.003H1.17A1.17 1.17 0 0 1 0 13.203V1.17C0 .524.524 0 1.17 0h6.893l3.636 3.636V7.02h-1.003V5.014h-2.84a1.17 1.17 0 0 1-1.17-1.17V1.003H1.002V13.37zm9.653-9.359L7.688 1.043v2.968h2.968z"/><path d="M6.318 7.721h-.936v2.608h2.607v-.936h-1.13c.423-.474 1-.736 1.665-.736a2.54 2.54 0 0 1 2.54 2.54v.135H12v-.134A3.476 3.476 0 0 0 8.524 7.72c-.856 0-1.624.317-2.206.885V7.72zM5.983 11.064h-.936v.134a3.476 3.476 0 0 0 3.477 3.476c.855 0 1.624-.316 2.206-.884v.884h.936v-2.607H9.058v.936h1.13c-.422.474-1 .735-1.664.735a2.54 2.54 0 0 1-2.54-2.54v-.134z"/></svg>