<svg fill="currentColor" xmlns="http://www.w3.org/2000/svg" viewBox="0 0 13 13"><path d="M4.271 5.571H1.3c-.715 0-1.3-.585-1.3-1.3V1.3C0 .585.585 0 1.3 0h2.971c.715 0 1.3.585 1.3 1.3v2.971c0 .715-.585 1.3-1.3 1.3zm.186-4.457H1.114v3.343h3.343V1.114zM4.271 13H1.3C.585 13 0 12.415 0 11.7V8.729c0-.715.585-1.3 1.3-1.3h2.971c.715 0 1.3.585 1.3 1.3V11.7c0 .715-.585 1.3-1.3 1.3zm.186-4.457H1.114v3.343h3.343V8.543zM7.429 4.271V1.3c0-.715.585-1.3 1.3-1.3H11.7c.715 0 1.3.585 1.3 1.3v2.971c0 .715-.585 1.3-1.3 1.3H8.729c-.715 0-1.3-.585-1.3-1.3zm1.114.186h3.343V1.114H8.543v3.343zM13 12.071v.743c0 .106-.08.186-.186.186h-.743a.182.182 0 0 1-.185-.186v-.743c0-.105.08-.185.185-.185h.743c.106 0 .186.08.186.185zM7.429 8.357v-.743c0-.105.08-.185.185-.185h.743c.106 0 .186.08.186.185v.743c0 .106-.08.186-.186.186h-.743a.182.182 0 0 1-.185-.186zM9.1 8.914h.743c.105 0 .186.08.186.186v.743c0 .105-.08.186-.186.186H9.1a.182.182 0 0 1-.186-.186V9.1c0-.105.08-.186.186-.186zM7.429 11.329v-.743c0-.106.08-.186.185-.186h.743c.106 0 .186.08.186.186v.743c0 .105-.08.185-.186.185h-.743a.182.182 0 0 1-.185-.185zM9.843 13H9.1a.182.182 0 0 1-.186-.186v-.743c0-.105.08-.185.186-.185h.743c.105 0 .186.08.186.185v.743c0 .106-.08.186-.186.186zM11.329 11.514h-.743a.182.182 0 0 1-.186-.185v-.743c0-.106.08-.186.186-.186h.743c.105 0 .185.08.185.186v.743c0 .105-.08.185-.185.185zM10.586 7.429h.743c.105 0 .185.08.185.185v.743c0 .106-.08.186-.185.186h-.743a.182.182 0 0 1-.186-.186v-.743c0-.105.08-.185.186-.185zM12.814 10.029h-.743a.182.182 0 0 1-.185-.186V9.1c0-.105.08-.186.185-.186h.743c.106 0 .186.08.186.186v.743c0 .105-.08.186-.186.186z"/></svg>