<svg fill="currentColor" xmlns="http://www.w3.org/2000/svg" viewBox="0 0 13 14"><path d="M9.763 4.33 5.065 9.104a.658.658 0 0 1-.937.001.7.7 0 0 1 0-.978l4.175-4.24-.77-.76-4.177 4.242a1.782 1.782 0 0 0 0 2.493 1.74 1.74 0 0 0 2.482-.002h.001l4.695-4.77A3.022 3.022 0 0 0 10.536.86C9.399-.3 7.458-.274 6.345.86L1.217 6.067a4.262 4.262 0 0 0-.001 5.963c1.605 1.637 4.32 1.611 5.9 0L13 6.052l-.77-.759-5.887 5.978c-1.159 1.183-3.177 1.202-4.355.001a3.18 3.18 0 0 1 0-4.448l5.129-5.206c.693-.707 1.938-.723 2.646 0a1.94 1.94 0 0 1 0 2.713z"/></svg>