<svg fill="currentColor" xmlns="http://www.w3.org/2000/svg" viewBox="0 0 16 15"><path d="m14.274 14.845-3.992-3.991-.009-.006a3.292 3.292 0 0 1-.973-.973l-.005-.009-2.076-2.075.004.25v.057a3.274 3.274 0 0 1-6.548 0v-.101H.574a.574.574 0 0 1 0-1.148H.92l.027-.06a3.275 3.275 0 0 1 3.058-1.965l.25.004L.24.812 1.05 0l14.034 14.034-.811.811zm-10.325-4.62a2.127 2.127 0 1 0 0-4.254 2.127 2.127 0 0 0 0 4.254zM15.426 7.997h-.101v.1a3.271 3.271 0 0 1-1.47 2.733l-.837-.838a2.126 2.126 0 1 0-2.862-2.861l-.838-.838a3.275 3.275 0 0 1 5.734.495l.027.06h.347a.574.574 0 0 1 0 1.149z"/></svg>