<svg fill="currentColor" xmlns="http://www.w3.org/2000/svg" viewBox="0 0 13 14"><path d="m5.684 2.767.006.008.006.007a.683.683 0 0 1 .195.553c-.021.194-.12.404-.284.625a3.47 3.47 0 0 1-.277.323 9.736 9.736 0 0 1-.184.187l-.51.512a.197.197 0 0 0-.056.138c0 .03.005.058.01.081a.997.997 0 0 0 .057.16c.051.12.134.275.245.453.223.358.567.819 1.02 1.272.454.454.914.798 1.271 1.02.179.112.335.195.453.247a.993.993 0 0 0 .16.056.34.34 0 0 0 .082.01.197.197 0 0 0 .138-.055l.51-.511c.281-.28.42-.406.61-.53.196-.13.39-.203.57-.212a.69.69 0 0 1 .508.192l.007.006.007.005c1.282.917 1.992 1.469 2.333 1.824.624.648.545 1.651.003 2.224-.204.216-.465.477-.774.774l-.002.003c-.878.878-2.263 1.07-3.836.647-1.568-.42-3.29-1.447-4.79-2.948S.637 6.614.215 5.045C-.207 3.472-.016 2.087.86 1.21V1.21c.336-.34.446-.45.772-.772.55-.542 1.602-.624 2.235 0 .357.354.939 1.1 1.817 2.329zM1.26 5.055c.412 1.301 1.303 2.768 2.61 4.076 1.306 1.307 2.772 2.2 4.074 2.61 1.288.407 2.471.357 3.146-.317a24 24 0 0 0 .75-.75.629.629 0 0 0 .158-.408.596.596 0 0 0-.156-.435c-.277-.288-.94-.803-2.056-1.604l-.103-.074-.098.08c-.09.071-.196.172-.35.327l-.511.511c-.37.37-.878.416-1.498.177-.622-.24-1.324-.759-2.02-1.455-.695-.696-1.213-1.398-1.453-2.021-.239-.62-.194-1.127.177-1.498l.51-.51.167-.17c.063-.067.117-.127.161-.181l.08-.1-.074-.102C3.998 2.13 3.46 1.443 3.165 1.15a.59.59 0 0 0-.43-.147c-.138.004-.3.047-.402.147-.322.318-.43.425-.764.765-.67.67-.717 1.853-.31 3.14z"/></svg>