<svg fill="currentColor" xmlns="http://www.w3.org/2000/svg" viewBox="0 0 15 15"><path fill-rule="evenodd" d="M3.1 3.622.34.862 1.204 0l13.456 13.456-.862.863-2.896-2.896-.045.03c-1.084.679-2.205 1.06-3.356 1.06-1.824 0-3.575-.957-5.215-2.544A15.724 15.724 0 0 1 .21 7.488L0 7.159l.21-.328A15.724 15.724 0 0 1 2.284 4.35a13.3 13.3 0 0 1 .758-.681l.058-.047zm2.15 2.15L3.968 4.489l-.048.039c-.264.213-.527.446-.788.698A14.518 14.518 0 0 0 1.493 7.12l-.029.04.03.04a14.518 14.518 0 0 0 1.64 1.893c1.422 1.377 2.914 2.2 4.366 2.2.806 0 1.624-.254 2.435-.714l.078-.044-1.125-1.126-.046.027a2.643 2.643 0 0 1-3.62-3.62l.028-.044zm2.732 2.732L6.156 6.677l-.03.114a1.425 1.425 0 0 0 1.743 1.743l.113-.03z" clip-rule="evenodd"/><path d="m6.451 3.164-.97-.971A5.646 5.646 0 0 1 7.5 1.806c1.824 0 3.575.957 5.215 2.543a15.733 15.733 0 0 1 2.075 2.482l.21.328-.21.329c-.104.162-.294.436-.563.785-.373.483-.787.966-1.24 1.427l-.863-.863A14.761 14.761 0 0 0 13.508 7.2l.029-.04-.03-.04a14.518 14.518 0 0 0-1.64-1.893c-1.422-1.377-2.914-2.2-4.366-2.2a4.18 4.18 0 0 0-1.049.138z"/></svg>