<svg fill="currentColor" xmlns="http://www.w3.org/2000/svg" viewBox="0 0 15 11"><path fill-rule="evenodd" d="M7.5 7.92a2.583 2.583 0 1 1 0-5.165 2.583 2.583 0 0 1 0 5.165zm0-1.033a1.55 1.55 0 1 0 0-3.1 1.55 1.55 0 0 0 0 3.1z" clip-rule="evenodd"/><path fill-rule="evenodd" d="M7.5 0c1.816 0 3.571.953 5.229 2.556a15.874 15.874 0 0 1 2.093 2.503l.178.278-.178.279a15.875 15.875 0 0 1-2.093 2.503C11.07 9.722 9.316 10.675 7.5 10.675c-1.816 0-3.571-.953-5.229-2.556A15.879 15.879 0 0 1 .178 5.616L0 5.337l.178-.278a15.878 15.878 0 0 1 2.093-2.503C3.93.953 5.684 0 7.5 0zM1.311 5.236l-.073.101.073.101A14.862 14.862 0 0 0 2.99 7.376C4.445 8.784 5.985 9.642 7.5 9.642c1.515 0 3.055-.858 4.51-2.266a14.853 14.853 0 0 0 1.679-1.938l.073-.1-.073-.102a14.852 14.852 0 0 0-1.678-1.938C10.555 1.891 9.015 1.033 7.5 1.033c-1.515 0-3.055.858-4.51 2.265A14.86 14.86 0 0 0 1.31 5.236z" clip-rule="evenodd"/></svg>