<svg fill="currentColor" xmlns="http://www.w3.org/2000/svg" viewBox="0 0 13 14"><path d="M3.055 10.034a.433.433 0 0 0-.59.166c-.092.165-.136.23-.253.403-.116.173-.232.33-.358.488a.433.433 0 1 0 .677.54 8.665 8.665 0 0 0 .69-1.007.433.433 0 0 0-.166-.59zM3.47 9.086a.434.434 0 0 0 .537-.295l.052-.185A8.248 8.248 0 0 0 4.332 6.5a2.158 2.158 0 0 1 2.166-2.166.433.433 0 0 0 0-.867A3.035 3.035 0 0 0 3.465 6.5a7.352 7.352 0 0 1-.244 1.883l-.046.165a.433.433 0 0 0 .294.538zM9.503 7.4c.02-.298.03-.601.03-.9a3.052 3.052 0 0 0-.24-1.18 3.042 3.042 0 0 0-.761-1.071.433.433 0 1 0-.584.64l.083.079a2.159 2.159 0 0 1 .634 1.535 12.587 12.587 0 0 1-.349 2.947.433.433 0 0 0 .842.204 12.81 12.81 0 0 0 .256-1.37c.04-.29.069-.588.089-.884zM8.348 10.882a.432.432 0 0 0-.564.242l-.068.167a12.265 12.265 0 0 1-.697 1.427.434.434 0 0 0 .753.43 14.06 14.06 0 0 0 .747-1.526l.072-.178a.433.433 0 0 0-.243-.562z"/><path d="M7.488 9.189a11.967 11.967 0 0 0 .275-1.772c.023-.3.036-.61.036-.917a1.308 1.308 0 0 0-.103-.506 1.305 1.305 0 0 0-1.458-.767A1.3 1.3 0 0 0 5.198 6.5a.433.433 0 1 0 .867 0 .44.44 0 0 1 .127-.306.438.438 0 0 1 .476-.094.472.472 0 0 1 .14.095.43.43 0 0 1 .126.303 10.858 10.858 0 0 1-1.107 4.776 9.896 9.896 0 0 1-.38.704c-.134.228-.279.456-.425.667l-.435.607a.433.433 0 1 0 .705.505l.44-.614a11.59 11.59 0 0 0 1.227-2.28 11.61 11.61 0 0 0 .53-1.674z"/><path d="M5.214 10.533a10.062 10.062 0 0 0 .536-1.539c.066-.257.103-.403.151-.685a.433.433 0 1 0-.855-.145 9.2 9.2 0 0 1-.95 2.678 9.02 9.02 0 0 1-.8 1.224.433.433 0 1 0 .685.53c.162-.208.318-.428.464-.65a10.251 10.251 0 0 0 .769-1.413zM2.105 8.98a6.7 6.7 0 0 0 .31-.95 6.465 6.465 0 0 0 .183-1.528.433.433 0 0 0-.867 0A5.602 5.602 0 0 1 .683 9.768a.433.433 0 1 0 .706.503 6.316 6.316 0 0 0 .716-1.29zM2.124 4.604a.434.434 0 0 0 .798.338 3.923 3.923 0 0 1 1.396-1.676 3.89 3.89 0 0 1 2.967-.587A3.892 3.892 0 0 1 9.733 4.32l.06.087c.087.117.159.245.212.38a.433.433 0 0 0 .799-.337 2.471 2.471 0 0 0-.295-.532l-.057-.084a4.764 4.764 0 0 0-7.904 0c-.167.242-.31.5-.424.77zM10.833 6.067a.433.433 0 0 0-.434.433 14.357 14.357 0 0 1-.158 2.144 14.107 14.107 0 0 1-.464 2.043c-.068.221-.14.44-.217.656-.076.216-.161.429-.249.64a.434.434 0 0 0 .8.333 14.77 14.77 0 0 0 .495-1.373 14.286 14.286 0 0 0 .364-1.432 15.513 15.513 0 0 0 .224-1.484 14.542 14.542 0 0 0 .072-1.526.433.433 0 0 0-.433-.434zM.431 6.934c.24 0 .434-.194.434-.434a5.644 5.644 0 0 1 .442-2.192 5.654 5.654 0 0 1 1.167-1.75.433.433 0 1 0-.619-.607A6.51 6.51 0 0 0 .13 5.19C.043 5.62 0 6.06 0 6.5c0 .238.192.433.431.434z"/><path d="M3.378 1.73a.43.43 0 0 0 .223-.062A5.593 5.593 0 0 1 5.364.981a5.71 5.71 0 0 1 2.753.12.433.433 0 1 0 .249-.83A6.579 6.579 0 0 0 5.19.131a6.46 6.46 0 0 0-2.038.795.433.433 0 0 0 .224.804h.001zM10.482 2.516a5.614 5.614 0 0 1 1.65 3.984 17.379 17.379 0 0 1-.016.722c-.006.12-.012.24-.02.358a16.938 16.938 0 0 1-.16 1.412c-.018.116-.038.231-.059.346a.434.434 0 1 0 .854.151c.022-.12.044-.243.062-.364.017-.121.037-.245.053-.367A16.753 16.753 0 0 0 13 6.5c0-.44-.043-.88-.13-1.31a6.53 6.53 0 0 0-2.66-4.029.433.433 0 1 0-.496.712c.275.191.532.407.768.643z"/></svg>