<svg fill="currentColor" xmlns="http://www.w3.org/2000/svg" viewBox="0 0 12 15"><path d="M1.2 0h7.07L12 3.73v9.813a1.2 1.2 0 0 1-1.2 1.2H1.2a1.2 1.2 0 0 1-1.2-1.2V1.2A1.2 1.2 0 0 1 1.2 0zm5.657 1.029H1.03v12.685h9.942V5.143H8.057a1.2 1.2 0 0 1-1.2-1.2V1.029zm4.073 3.085L7.886 1.07v3.044h3.044z"/><path d="m6.153 5.113.005-.023c.096-.395.216-.887.122-1.333a.567.567 0 0 0-.543-.5c-.261-.01-.494.138-.552.354-.109.397-.012.939.167 1.63-.225.535-.583 1.313-.846 1.775-.489.253-1.144.643-1.242 1.135-.02.091.003.207.058.311a.523.523 0 0 0 .272.248c.05.018.11.033.179.033.29 0 .761-.235 1.389-1.312.096-.031.195-.064.29-.097.45-.152.916-.311 1.337-.382.466.25.996.41 1.356.41.357 0 .497-.212.55-.339.092-.223.048-.504-.103-.654-.218-.215-.748-.271-1.574-.169-.406-.248-.672-.585-.865-1.087zm-.392.61c.177.305.4.568.646.763-.357.081-.682.215-.973.334l-.203.082c.22-.398.403-.849.53-1.18zM3.192 12.171a.082.082 0 0 1-.055-.021.082.082 0 0 1-.022-.056V10.09c0-.023.007-.042.022-.056a.082.082 0 0 1 .055-.022h.864c.264 0 .47.061.62.183.153.12.229.298.229.53 0 .23-.075.405-.225.522-.15.115-.358.172-.624.172H3.69v.676a.07.07 0 0 1-.025.056.075.075 0 0 1-.055.021h-.417zm.849-1.178c.09 0 .161-.023.213-.068.051-.048.077-.116.077-.207a.271.271 0 0 0-.074-.2c-.047-.052-.12-.078-.216-.078H3.68v.553h.36zM5.278 12.171a.082.082 0 0 1-.056-.021.082.082 0 0 1-.022-.056V10.09c0-.023.008-.042.022-.056a.082.082 0 0 1 .056-.022h.802c.302 0 .537.072.703.216.167.144.255.353.263.627a7.222 7.222 0 0 1 0 .472c-.01.286-.096.499-.256.639-.159.137-.39.206-.695.206h-.817zm.802-.444c.136 0 .235-.032.3-.096.063-.065.097-.17.101-.311.004-.06.006-.137.006-.232 0-.094-.002-.17-.006-.228-.004-.138-.041-.24-.111-.305-.068-.066-.17-.1-.306-.1h-.308v1.272h.324zM7.486 12.171a.082.082 0 0 1-.055-.021.082.082 0 0 1-.022-.056V10.09c0-.023.008-.042.022-.056a.082.082 0 0 1 .055-.022h1.42c.022 0 .041.008.055.022a.075.075 0 0 1 .022.056v.311c0 .02-.007.04-.022.056a.075.075 0 0 1-.055.021h-.954v.454h.892a.07.07 0 0 1 .056.025.075.075 0 0 1 .021.055v.309c0 .02-.007.039-.021.055a.075.075 0 0 1-.056.022h-.892v.697a.075.075 0 0 1-.021.056.075.075 0 0 1-.056.021h-.389z"/></svg>