<svg fill="currentColor" xmlns="http://www.w3.org/2000/svg" viewBox="0 0 14 14"><path d="M3.591 11.682a5.792 5.792 0 0 0 6.72.071l.708.979A7 7 0 1 1 6.999 0c2.277 0 4.023.637 5.2 1.82C13.377 3.004 14 4.75 14 7c0 1.245-.288 2.104-.766 2.651-.476.545-1.154.796-1.97.796-.466 0-.822-.076-1.094-.226a1.285 1.285 0 0 1-.38-.318 1.658 1.658 0 0 1-.23-.384l-.06-.14-.11.106a3.447 3.447 0 1 1-.32-5.243l.17.128v-.817h1.207V7c0 .874.033 1.425.145 1.759.058.17.14.295.26.375.118.08.258.105.413.105.48 0 .875-.114 1.143-.474.261-.35.384-.914.384-1.765 0-1.896-.475-3.349-1.448-4.327-.915-.92-2.253-1.404-4.002-1.46A10.839 10.839 0 0 0 7 1.208 5.792 5.792 0 0 0 3.59 11.682zM9.15 7.63A2.24 2.24 0 1 0 4.76 7a2.239 2.239 0 0 0 4.388.63z"/></svg>