<svg fill="currentColor" xmlns="http://www.w3.org/2000/svg" viewBox="0 0 15 15"><path d="M6.85 12.296zM12.296 8.15zM4.602 3.625zM3.625 10.398zM8.088.023v2.57a4.99 4.99 0 0 0-1.176 0V.022a7.605 7.605 0 0 1 1.176 0zM7.5 10.852a3.353 3.353 0 1 1 0-6.705 3.353 3.353 0 0 1 0 6.705zm0-1.175a2.177 2.177 0 1 0 0-4.354 2.177 2.177 0 0 0 0 4.354zM7.5 12.442c.199 0 .395-.011.588-.034v2.57a7.615 7.615 0 0 1-1.176 0v-2.57c.193.023.39.034.588.034zM12.442 7.5c0-.199-.011-.395-.034-.588h2.57a7.615 7.615 0 0 1 0 1.176h-2.57c.023-.193.034-.39.034-.588zM.023 6.912h2.57a4.99 4.99 0 0 0 0 1.176H.022a7.605 7.605 0 0 1 0-1.176zM10.555 3.614l1.817-1.817c.298.255.576.533.83.831l-1.816 1.817a4.968 4.968 0 0 0-.831-.83zM1.797 2.628l1.817 1.817c.243-.308.523-.588.831-.83L2.628 1.796a7.547 7.547 0 0 0-.83.831zM10.555 11.386c.309-.243.588-.522.83-.831l1.818 1.817a7.547 7.547 0 0 1-.831.83l-1.817-1.816zM3.614 10.555c.243.309.523.588.831.83l-1.817 1.818a7.547 7.547 0 0 1-.83-.831l1.816-1.817z"/></svg>