<svg fill="currentColor" xmlns="http://www.w3.org/2000/svg" viewBox="0 0 11 14"><path d="m5.165.931.125.111.113-.122c.058-.062.12-.122.187-.18.587-.515 1.505-.854 2.849-.704l.567.062-.793 3.567.003.026c.022.235.145.488.394.819.137.18.298.368.481.578l.043.05c.168.193.352.404.531.629.8 1.001 1.565 2.333 1.27 4.4-.198 1.387-.982 2.209-2.007 2.655-.977.426-2.166.51-3.25.512h-.012c-.844.058-2.135-.013-3.267-.43-1.147-.423-2.245-1.255-2.37-2.768-.185-2.21.563-3.53 1.348-4.5.179-.22.36-.424.524-.608l.03-.034c.176-.197.327-.369.456-.536.23-.299.344-.533.365-.767l.002-.026L1.963.106l.558-.07c.59-.073 1.378.12 2.01.458.21.111.433.257.634.437zm.745 1.04c-.02.04-.034.076-.045.108H4.768a.85.85 0 0 0-.144-.242 1.895 1.895 0 0 0-.576-.441 3.156 3.156 0 0 0-.538-.226l-.282-.088.449 2.02H7.29l.464-2.086-.231.019c-.626.05-1.018.262-1.259.474a1.442 1.442 0 0 0-.354.463zm1.346 2.154H3.712l-.039.116a2.952 2.952 0 0 1-.475.84c-.154.202-.33.4-.503.593l-.026.03c-.167.188-.333.374-.497.576-.665.821-1.281 1.889-1.124 3.771.079.948.741 1.538 1.705 1.893.966.356 2.116.421 2.865.368l.018-.001h.018c1.07 0 2.087-.088 2.865-.427.363-.158.68-.372.925-.677.245-.306.408-.693.478-1.186.241-1.685-.357-2.74-1.056-3.615a18.482 18.482 0 0 0-.506-.598L8.32 5.76c-.18-.208-.364-.42-.525-.634a3.212 3.212 0 0 1-.498-.885l-.04-.116z"/><path d="m4.487 9.351.01.005c.012.006.03.018.05.04.07.128.176.231.31.311h.001v.001c.155.089.353.128.58.128.257 0 .476-.04.637-.135a.486.486 0 0 0 .263-.43c0-.13-.05-.245-.15-.332a1.006 1.006 0 0 0-.362-.187 6.722 6.722 0 0 0-.652-.164h-.002c-.514-.1-.878-.249-1.107-.436-.218-.177-.333-.43-.333-.78 0-.301.11-.554.334-.767.226-.217.537-.355.947-.408l.123-.015v-.567c0-.009.001-.012.002-.014a.03.03 0 0 1 .02-.008h.54a.04.04 0 0 1 .013.002.01.01 0 0 1 .004.003.01.01 0 0 1 .002.003c0 .001.002.005.002.014v.575l.118.02c.27.044.495.127.68.246l.003.002c.194.119.336.252.43.397a.867.867 0 0 1 .153.412H6.25a.171.171 0 0 1-.063-.01.112.112 0 0 1-.024-.022.568.568 0 0 0-.27-.305.948.948 0 0 0-.495-.122c-.208 0-.39.036-.526.125a.472.472 0 0 0-.219.414c0 .12.04.23.122.317l.004.004c.08.078.195.142.333.196l.005.002c.143.05.341.1.59.151l.004.001c.397.071.704.16.927.263h.002c.22.099.372.222.467.364.094.142.146.33.146.575 0 .336-.122.603-.368.814-.25.215-.595.356-1.043.412l-.123.016v.567a.038.038 0 0 1-.002.014s0 .002-.002.003a.01.01 0 0 1-.004.003.04.04 0 0 1-.014.001h-.54a.03.03 0 0 1-.019-.006v-.001a.038.038 0 0 1-.002-.014v-.562l-.124-.014a2.174 2.174 0 0 1-.774-.226 1.286 1.286 0 0 1-.463-.4 1.005 1.005 0 0 1-.16-.486l.003-.002h.818c.031 0 .042.006.042.006l.009.006z"/></svg>