<svg fill="currentColor" xmlns="http://www.w3.org/2000/svg" viewBox="0 0 18 15"><path d="m8.866 9.158.015.007a.292.292 0 0 1 .075.06c.104.193.26.35.459.471l.002.001c.23.135.521.193.857.193.383 0 .706-.06.945-.203.246-.147.39-.367.39-.65a.647.647 0 0 0-.223-.502c-.128-.118-.314-.21-.536-.283a9.792 9.792 0 0 0-.965-.247H9.88c-.761-.152-1.3-.377-1.64-.66-.323-.268-.493-.65-.493-1.178 0-.456.163-.84.495-1.16v-.001c.334-.327.795-.537 1.403-.616l.182-.024V3.51a.06.06 0 0 1 .002-.02l.001-.002a.044.044 0 0 1 .03-.01h.798c.013 0 .02.002.021.003.002 0 .003 0 .005.003l.002.002a.018.018 0 0 1 .002.004.06.06 0 0 1 .003.02v.87l.174.03c.4.066.734.192 1.008.372l.004.003c.287.18.497.38.638.6.14.22.213.427.226.623h-1.264a.249.249 0 0 1-.094-.014.167.167 0 0 1-.034-.034c-.064-.196-.209-.348-.4-.461a1.382 1.382 0 0 0-.734-.184c-.308 0-.577.054-.78.189a.717.717 0 0 0-.324.626c0 .181.058.346.181.478l.006.006c.118.118.289.215.493.297l.008.002c.212.075.505.152.874.23h.006c.588.108 1.043.242 1.373.398l.003.001c.327.149.551.334.692.55.139.214.216.499.216.869 0 .507-.18.911-.545 1.23-.372.325-.882.538-1.546.624l-.181.023v.857a.06.06 0 0 1-.003.021v.001l-.001.001-.001.002-.002.002a.034.034 0 0 1-.003.002l-.002.001a.058.058 0 0 1-.02.003h-.8a.045.045 0 0 1-.029-.01v-.002a.06.06 0 0 1-.003-.02v-.85l-.184-.022c-.454-.055-.835-.17-1.147-.341-.31-.173-.535-.375-.686-.604a1.54 1.54 0 0 1-.236-.736l.002-.002H8.79c.046 0 .062.009.062.009l.013.009z"/><path d="M0 7.5a7.5 7.5 0 0 0 8.876 7.374 7.5 7.5 0 1 0 0-14.748A7.5 7.5 0 0 0 0 7.5zm6.074-6.23A7.493 7.493 0 0 0 2.752 7.5a7.493 7.493 0 0 0 3.322 6.23 6.391 6.391 0 0 1 0-12.46zM16.64 7.5a6.389 6.389 0 1 1-12.778 0 6.389 6.389 0 0 1 12.778 0z"/></svg>