<svg fill="currentColor" xmlns="http://www.w3.org/2000/svg" viewBox="0 0 11 15"><path d="M9.23 8.832c.487.74.744 1.59.744 2.46v1.147c.544.181.935.67.935 1.243 0 .727-.63 1.318-1.403 1.318H1.403C.629 15 0 14.409 0 13.682c0-.573.39-1.062.935-1.243v-1.147c0-.87.257-1.72.744-2.46A4.804 4.804 0 0 1 2.997 7.5a4.804 4.804 0 0 1-1.318-1.332 4.47 4.47 0 0 1-.744-2.46V2.56C.391 2.38 0 1.891 0 1.318 0 .591.63 0 1.403 0h8.103c.774 0 1.403.591 1.403 1.318 0 .573-.39 1.062-.935 1.243v1.147c0 .87-.257 1.72-.743 2.46A4.804 4.804 0 0 1 7.912 7.5c.526.357.974.809 1.319 1.332zm.744-7.514c0-.242-.21-.44-.468-.44H1.403c-.258 0-.468.198-.468.44 0 .243.21.44.468.44h8.103c.258 0 .468-.197.468-.44zM4.105 7.893c-1.378.648-2.235 1.95-2.235 3.4v1.07h.943l.008-.476.003-.04c.116-.988.75-1.843 1.7-2.289l.463-.218V6.54l-.464-.218c-.83-.39-1.426-1.099-1.635-1.944a.42.42 0 0 1 .089-.373.48.48 0 0 1 .366-.166h4.223a.48.48 0 0 1 .366.166.42.42 0 0 1 .09.373c-.21.845-.806 1.554-1.636 1.944l-.464.218V9.34l.464.218c.948.446 1.584 1.301 1.699 2.289a.413.413 0 0 1 .003.04l.008.476h.943v-1.07c0-1.45-.856-2.752-2.235-3.4a.438.438 0 0 1-.259-.393c0-.166.1-.319.259-.393 1.379-.648 2.235-1.95 2.235-3.4v-1.07H1.87v1.07c0 1.45.857 2.752 2.235 3.4a.438.438 0 0 1 .259.393c0 .166-.1.319-.259.393zm-3.17 5.789c0 .242.21.44.468.44h8.103c.258 0 .468-.198.468-.44 0-.243-.21-.44-.468-.44H1.403c-.258 0-.468.197-.468.44z"/></svg>