<svg fill="currentColor" xmlns="http://www.w3.org/2000/svg" viewBox="0 0 12 14"><path d="M6.746 0c1.657 0 3.222.594 4.44 1.649l.046-.045a.453.453 0 0 1 .636 0 .44.44 0 0 1 .065.548l-.065.08-4.253 4.204a.894.894 0 0 1-.869 1.12.894.894 0 0 1-.9-.89.894.894 0 0 1 1.13-.859l1.008-.996a2.256 2.256 0 0 0-1.238-.367c-1.242 0-2.249.995-2.249 2.223 0 1.227 1.007 2.222 2.249 2.222.514 0 1-.17 1.394-.479a.453.453 0 0 1 .632.073.44.44 0 0 1-.074.624 3.16 3.16 0 0 1-1.952.67c-1.739 0-3.148-1.392-3.148-3.11 0-1.719 1.41-3.111 3.148-3.111a3.16 3.16 0 0 1 1.887.62l-.004-.003.64-.63-.072-.06a4.06 4.06 0 0 0-2.451-.816c-2.236 0-4.048 1.79-4.048 4 0 2.209 1.812 4 4.048 4 .487 0 .962-.085 1.41-.25a.451.451 0 0 1 .577.263.443.443 0 0 1-.265.57 4.99 4.99 0 0 1-1.722.306c-2.732 0-4.947-2.19-4.947-4.89 0-2.7 2.215-4.888 4.947-4.888 1.173 0 2.284.406 3.165 1.132l.637-.63-.1-.085A5.863 5.863 0 0 0 6.746.889C3.516.889.899 3.476.899 6.667c0 3.19 2.618 5.777 5.847 5.777.485 0 .962-.058 1.423-.172a.444.444 0 1 1 .218.862 6.836 6.836 0 0 1-1.641.2C3.02 13.333 0 10.348 0 6.666S3.02 0 6.746 0zm4.635 10.9a.44.44 0 0 1-.02.628 6.76 6.76 0 0 1-1.739 1.17.452.452 0 0 1-.599-.212.442.442 0 0 1 .215-.591 5.859 5.859 0 0 0 1.508-1.015.453.453 0 0 1 .635.02zm-1.191-.584a.505.505 0 0 0 .021-.695.462.462 0 0 0-.67-.023 4.332 4.332 0 0 1-.36.315.504.504 0 0 0-.096.689.463.463 0 0 0 .664.098c.153-.12.3-.248.44-.384z"/></svg>