<svg fill="currentColor" xmlns="http://www.w3.org/2000/svg" viewBox="0 0 15 15"><path fill-rule="evenodd" d="M11.5 4.23a2.41 2.41 0 1 0-3.162 0H8.07c-.696 0-1.273.156-1.732.448a2.43 2.43 0 0 0-.482.403 4.173 4.173 0 1 0 .778 7.19L9.363 15l.91-.91-2.73-2.729c.391-.534.658-1.165.758-1.85 2.616.41 5.005-.334 6.108-.908l.318-.166v-.359c0-1.395-.338-2.354-.842-2.978-.501-.62-1.14-.87-1.644-.87h-.742zM8.304 8.311c2.133.383 4.136-.123 5.23-.602-.052-.982-.313-1.55-.57-1.867-.288-.357-.596-.432-.724-.432H8.07c-.518 0-.864.115-1.098.264a1.278 1.278 0 0 0-.084.058 4.166 4.166 0 0 1 1.416 2.579zm2.842-5.902a1.228 1.228 0 1 1-2.457 0 1.228 1.228 0 0 1 2.457 0zM7.059 8.9a2.886 2.886 0 1 0-5.772 0 2.886 2.886 0 0 0 5.772 0z" clip-rule="evenodd"/></svg>