<svg fill="currentColor" xmlns="http://www.w3.org/2000/svg" viewBox="0 0 16 12"><path d="M4.575 3.176c-1.057 1.475-1.372 3.418-1.45 4.05a69.07 69.07 0 0 1-1.267.86l-.428.285c-.51.344-.94.644-1.213.897a.674.674 0 0 0-.098.878.702.702 0 0 0 .95.197l.003-.002c.011-.007.552-.341 2.05-.135.67.093 1.13.245 1.486.414.284.134.504.28.726.426l.187.122c.29.186.6.36 1.033.468.43.107.97.146 1.724.081 2.524-.223 4.09-1.904 4.583-2.51.447.021.883.05 1.32.105.37.08.756.035 1.096-.128l.01-.006.01-.006c.31-.195.521-.51.58-.868.095-.5.135-1.01.12-1.519-.003-1.475-.434-2.709-1.228-3.685-.766-.94-1.858-1.629-3.199-2.068a1.012 1.012 0 0 0-.332-.69c-.218-.2-.512-.31-.804-.336a1.384 1.384 0 0 0-.855.193 1.05 1.05 0 0 0-.461.633c-1.288.183-3.38.724-4.543 2.344zm.772.529c.556-.778 1.416-1.264 2.275-1.567-.673.698-1.138 1.557-1.458 2.38-.379.975-.562 1.915-.648 2.515a9.036 9.036 0 0 0-1.397-.048c.123-.78.456-2.206 1.228-3.28zM3.25 9.293a6.83 6.83 0 0 0-1.45-.06l.38-.255.237-.157c.413-.273.87-.576 1.336-.902 1.15-.156 2.405.096 3.796.427l.503.12c1.134.274 2.348.567 3.629.687a5.854 5.854 0 0 1-3.488 1.65c-.667.06-1.113.022-1.45-.068-.335-.089-.578-.233-.843-.408l-.117-.079c-.234-.157-.499-.335-.848-.496-.412-.19-.938-.355-1.685-.459zm9.46-.999c-.255-.01-.496-.02-.751-.041.272-.977.497-2.165.513-3.317.014-1-.131-1.995-.563-2.8 1.513.64 2.61 1.684 3.003 3.285.194.888.212 1.804.053 2.7-.046.208-.111.264-.169.289-.085.037-.225.04-.486.007a16.396 16.396 0 0 0-1.422-.115l-.178-.008zM7.68 7.447a39.119 39.119 0 0 0-1.244-.287c.095-.675.327-1.836.859-2.925.576-1.18 1.488-2.248 2.937-2.56 1.04.615 1.34 1.923 1.306 3.307-.03 1.27-.339 2.525-.52 3.16a33.025 33.025 0 0 1-2.633-.527c-.244-.057-.48-.114-.705-.168z"/></svg>