<svg fill="currentColor" xmlns="http://www.w3.org/2000/svg" viewBox="0 0 15 15"><path d="M4.091 9.218zM10.915 9.15l.012-.14-.002.024-.01.117zM5.782 10.909l.209.018-.025-.002c-.062-.005-.123-.01-.184-.017zM9.218 4.091z"/><path d="M7.5 0a7.5 7.5 0 1 1 0 15 7.5 7.5 0 0 1 0-15zM5.32 1.75l.217-.417-.436.174a6.474 6.474 0 0 0-3.594 3.594l-.174.436.416-.216c.702-.364 1.584-.652 2.587-.847l.116-.022.022-.116c.195-1.003.483-1.885.847-2.587zm5.206 2.586.023.116.115.022c1.003.195 1.885.483 2.587.847l.416.216-.174-.436a6.474 6.474 0 0 0-3.594-3.594l-.436-.174.216.416c.364.702.652 1.584.847 2.587zm-6.26 1.463.022-.242-.237.056c-.877.207-1.613.485-2.135.797a2.48 2.48 0 0 0-.624.502c-.15.178-.245.377-.245.588 0 .211.095.41.245.588s.364.346.624.502c.522.312 1.258.59 2.135.797l.237.056-.023-.242A17.99 17.99 0 0 1 4.186 7.5c0-.584.027-1.154.08-1.701zm6.469 3.402-.023.242.237-.056c.877-.207 1.614-.485 2.135-.797a2.48 2.48 0 0 0 .624-.502c.15-.178.245-.377.245-.588 0-.211-.095-.41-.245-.588a2.48 2.48 0 0 0-.624-.502c-.521-.312-1.258-.59-2.135-.797l-.237-.056.023.242c.052.547.079 1.117.079 1.701 0 .584-.027 1.154-.08 1.701zm-6.261 1.463-.022-.115-.116-.023c-1.003-.195-1.885-.483-2.587-.847l-.416-.216.174.436a6.474 6.474 0 0 0 3.594 3.594l.436.174-.216-.416c-.364-.702-.652-1.584-.847-2.587zm5.205 2.587-.216.416.436-.174a6.473 6.473 0 0 0 3.594-3.594l.174-.436-.416.216c-.702.364-1.584.652-2.587.847l-.115.023-.023.115c-.195 1.003-.483 1.885-.847 2.587zM5.506 5.354l-.135.017-.017.135A16.184 16.184 0 0 0 5.233 7.5c0 .698.043 1.368.121 1.994l.017.135.135.017c.626.078 1.296.121 1.994.121s1.368-.043 1.994-.121l.135-.017.017-.135c.078-.626.121-1.296.121-1.994s-.043-1.368-.121-1.994l-.017-.135-.135-.017A16.184 16.184 0 0 0 7.5 5.233c-.698 0-1.368.043-1.994.121zm.293 5.38-.242-.022.056.237c.207.877.485 1.614.797 2.135.156.26.324.474.502.624.178.15.377.245.588.245.211 0 .41-.095.588-.245a2.48 2.48 0 0 0 .502-.624c.312-.521.59-1.258.797-2.135l.056-.237-.242.023c-.547.052-1.117.079-1.701.079-.584 0-1.154-.027-1.701-.08zm-.186-6.683-.056.237.242-.023A17.99 17.99 0 0 1 7.5 4.186c.584 0 1.154.027 1.701.08l.242.022-.056-.237c-.207-.877-.485-1.613-.797-2.135a2.48 2.48 0 0 0-.502-.624c-.178-.15-.377-.245-.588-.245-.211 0-.41.095-.588.245a2.48 2.48 0 0 0-.502.624c-.312.522-.59 1.258-.797 2.135z"/></svg>