<svg fill="currentColor" xmlns="http://www.w3.org/2000/svg" viewBox="0 0 13 13"><path d="m8.98 8.608-.101-.274h2.287c.582 0 1.037-.205 1.347-.528.311-.325.486-.782.486-1.306 0-1.973-.207-3.617-.634-4.76C11.937.592 11.313 0 10.5 0L5.856.002h-.003A4.327 4.327 0 0 0 4.33.245a3.09 3.09 0 0 0-.638.311l-.137.088L3.464.51A1.165 1.165 0 0 0 2.5 0H1.167C.522 0 0 .522 0 1.167v6c0 .644.522 1.166 1.167 1.166H2.5c.116 0 .227-.017.333-.048l.116-.035.069.1c.457.666 1.623 2 2.572 3.084l.002.002.002.002c.509.582.954 1.09 1.182 1.375l.15.187h.24c.4 0 .735-.03 1.12-.142.424-.123.768-.326 1.006-.604.235-.275.374-.633.374-1.087a4.09 4.09 0 0 0-.168-1.083 10.32 10.32 0 0 0-.29-.872 76.064 76.064 0 0 0-.106-.281L9.1 8.928l-.121-.32zm-.938.347c.02.056.076.203.129.341v.001l.1.265c.115.309.198.554.263.788.086.312.132.585.132.817 0 .182-.05.342-.173.472-.117.122-.286.2-.487.26-.174.05-.343.077-.52.09l-.086.007-.055-.066c-.35-.417-.85-.989-1.367-1.58h-.001c-.5-.57-1.016-1.159-1.421-1.638a20.31 20.31 0 0 1-.512-.626 5.032 5.032 0 0 1-.168-.228 1.094 1.094 0 0 1-.102-.172 1.276 1.276 0 0 1-.107-.52V2.5c0-.33.083-.605.26-.828.175-.22.43-.373.741-.485A3.373 3.373 0 0 1 5.811 1H10.5c.261 0 .473.203.636.463.169.27.32.655.446 1.13.254.952.418 2.3.418 3.907 0 .238-.057.453-.207.61-.15.156-.368.224-.626.224H8.5c-.35 0-.525.13-.611.3-.095.186-.103.46-.025.775.037.148.092.314.178.546zM2.667 7.333H1V1h1.667v6.333z"/></svg>