<svg fill="currentColor" xmlns="http://www.w3.org/2000/svg" viewBox="0 0 14 14"><path d="M0 11.098c0-.66.535-1.196 1.195-1.196h4.098c.66 0 1.195.536 1.195 1.196v1.365c0 .66-.535 1.196-1.195 1.196H1.195c-.66 0-1.195-.536-1.195-1.196v-1.365zm5.463-.171H1.024v1.707h4.44v-1.707zM7.512 9.049c0-.66.535-1.195 1.195-1.195h4.098c.66 0 1.195.535 1.195 1.195v3.414c0 .66-.535 1.196-1.195 1.196H8.707c-.66 0-1.195-.536-1.195-1.196V9.05zm5.464-.17h-4.44v3.755h4.44V8.878zM12.976 1.812 8.768 6.32 6.024 4.262 1.337 8.949l-.725-.725L5.928 2.91l2.719 2.04 3.662-3.925H9.561V0H14v4.439h-1.024V1.812z"/></svg>