<svg fill="currentColor" xmlns="http://www.w3.org/2000/svg" viewBox="0 0 14 13"><path d="M10.167 10.85zM2.784 10.086zM2.914 2.784zM2.918 3.135l.322.11-.11-.322A2.367 2.367 0 0 1 3 2.15C3 .988 3.924 0 5.114 0c.473 0 .92.129 1.295.37L6.5.43 6.59.37C6.962.13 7.4 0 7.85 0 9.012 0 10 .924 10 2.114c0 .284-.048.55-.135.804l-.11.322.322-.11c.245-.084.501-.13.773-.13C12.012 3 13 3.924 13 5.114c0 .473-.129.92-.37 1.295l-.059.09.059.091c.24.372.37.81.37 1.26 0 .967-.64 1.815-1.541 2.07l-.313.09.254.202c.176.14.35.284.515.43.362.322.703.67.958 1.02.214.294.404.64.45 1.005h-1.024a1.702 1.702 0 0 0-.235-.417 5.7 5.7 0 0 0-.813-.86 12.72 12.72 0 0 0-.99-.786l-.278-.201.015.343.002.104C10 12.012 9.076 13 7.886 13c-.473 0-.92-.129-1.295-.37l-.09-.059-.091.059c-.372.24-.81.37-1.26.37C3.988 13 3 12.076 3 10.886c0-.284.048-.55.135-.804l.11-.322-.322.11c-.245.084-.501.13-.773.13C.988 10 0 9.076 0 7.886c0-.473.129-.92.37-1.295L.43 6.5.37 6.41A2.32 2.32 0 0 1 0 5.15C0 3.988.924 3 2.114 3c.284 0 .55.048.804.135zm3.47 2.095.112.102.112-.102c.77-.703 1.345-1.244 1.747-1.726.466-.559.641-.971.641-1.39C9 1.505 8.49 1 7.85 1c-.377 0-.732.158-.977.433l-.373.419-.373-.42A1.326 1.326 0 0 0 5.114 1C4.505 1 4 1.51 4 2.15c0 .397.171.8.64 1.358.403.478.978 1.019 1.748 1.722zM5.23 6.612l.102-.112-.102-.112c-.703-.77-1.244-1.345-1.726-1.747C2.945 4.175 2.533 4 2.114 4 1.505 4 1 4.51 1 5.15c0 .377.158.732.433.977l.419.373-.42.373A1.326 1.326 0 0 0 1 7.886C1 8.495 1.51 9 2.15 9c.397 0 .8-.171 1.358-.64.478-.403 1.019-.978 1.722-1.748zm2.545-.224-.102.112.102.112c.7.77 1.24 1.345 1.722 1.747.558.466.97.641 1.389.641C11.495 9 12 8.49 12 7.85c0-.377-.158-.732-.432-.977l-.42-.373.42-.373c.27-.242.432-.595.432-1.013C12 4.505 11.49 4 10.85 4c-.397 0-.8.171-1.357.64-.477.402-1.017.978-1.718 1.748zM6.612 7.77 6.5 7.668l-.112.102c-.77.703-1.345 1.244-1.747 1.726-.466.559-.641.971-.641 1.39C4 11.495 4.51 12 5.15 12c.377 0 .732-.158.977-.432l.373-.42.373.42c.242.27.595.432 1.013.432C8.495 12 9 11.49 9 10.85c0-.397-.171-.8-.64-1.358-.403-.478-.978-1.019-1.748-1.722z"/></svg>