<svg fill="currentColor" xmlns="http://www.w3.org/2000/svg" viewBox="0 0 9 7"><path d="M2.608 6.69c-.542-.003-1.009-.137-1.4-.401-.389-.265-.689-.65-.899-1.152C.101 4.635-.002 4.03 0 3.324c0-.704.104-1.305.312-1.8.21-.497.51-.874.9-1.133C1.601.131 2.067 0 2.607 0c.54 0 1.005.13 1.394.391.391.26.692.64.902 1.135.21.494.314 1.094.312 1.798 0 .709-.105 1.314-.315 1.817-.208.502-.507.886-.896 1.15-.389.266-.854.398-1.397.398zm0-1.133c.37 0 .666-.186.886-.558.221-.372.33-.93.328-1.675 0-.49-.05-.898-.151-1.224-.099-.326-.24-.57-.423-.734a.922.922 0 0 0-.64-.246c-.368 0-.662.184-.883.551-.22.368-.332.92-.334 1.653 0 .496.05.91.148 1.243.101.33.243.578.426.744a.933.933 0 0 0 .643.246zM9 .088v6.46H7.634V1.383h-.037l-1.48.928V1.1l1.6-1.013H9z"/></svg>