<svg fill="currentColor" xmlns="http://www.w3.org/2000/svg" viewBox="0 0 14 14"><path d="M7.312 3.168a.674.674 0 0 1-.191.472.642.642 0 0 1-.918 0 .674.674 0 0 1 0-.943.642.642 0 0 1 .918 0 .674.674 0 0 1 .19.471z"/><path d="m7.377.238.162.121 5.415 4.034c.66.492.314 1.551-.493 1.551h-.264v4.613l.054.028c.323.168.594.424.783.74.19.316.29.68.29 1.05v1.151a.48.48 0 0 1-.136.336.456.456 0 0 1-.327.138H.463A.469.469 0 0 1 0 13.526v-1.15c0-.371.1-.735.29-1.05.189-.317.46-.573.783-.74l.054-.029V5.944H.863c-.806 0-1.153-1.06-.493-1.551L5.947.238a1.196 1.196 0 0 1 1.43 0zm-.716.71a.287.287 0 0 0-.171.057L1.133 4.996h11.058L6.833 1.005A.287.287 0 0 0 6.66.948zm4.611 9.419V5.944H9.566v4.423h1.706zm-2.63 0V5.944H7.124v4.423h1.518zm-2.442 0V5.944H4.682v4.423H6.2zM.924 13.052H12.4v-.677c0-.583-.464-1.06-1.04-1.06H1.965c-.576 0-1.04.477-1.04 1.06v.677zm1.128-7.108v4.423h1.705V5.944H2.052z"/></svg>