<svg fill="currentColor" xmlns="http://www.w3.org/2000/svg" viewBox="0 0 14 13"><path d="M7 5.398a4.367 4.367 0 0 0-3.356 1.84 6.09 6.09 0 0 0-1.35 3.606 1.668 1.668 0 0 0 .554 1.33c.356.282.805.423 1.26.394a9.12 9.12 0 0 0 1.626-.215c.416-.096.84-.158 1.266-.187.396.026.79.084 1.177.173 1.08.208 2.297.443 3.01-.18a1.666 1.666 0 0 0 .519-1.315 6.09 6.09 0 0 0-1.384-3.605A4.367 4.367 0 0 0 7 5.398zm3.599 6.035c-.38.332-1.384.131-2.25 0A7.308 7.308 0 0 0 7 11.218c-.49.02-.976.085-1.453.194-.796.152-1.793.346-2.153 0-.041-.035-.18-.16-.18-.595A5.149 5.149 0 0 1 4.35 7.82 3.46 3.46 0 0 1 7 6.353a3.46 3.46 0 0 1 2.65 1.495 5.148 5.148 0 0 1 1.136 2.996c0 .423-.139.547-.187.589zM9.076 5.336a1.689 1.689 0 0 0 1.384-.852 3.364 3.364 0 0 0 .492-1.813A3.35 3.35 0 0 0 10.46.858 1.682 1.682 0 0 0 9.076 0a1.675 1.675 0 0 0-1.384.851 3.412 3.412 0 0 0-.498 1.82 3.37 3.37 0 0 0 .498 1.813 1.675 1.675 0 0 0 1.384.852zM8.453 1.39a.823.823 0 0 1 .623-.436.81.81 0 0 1 .623.436c.231.386.349.83.34 1.28.008.45-.11.894-.34 1.28a.824.824 0 0 1-.623.43.83.83 0 0 1-.623-.43 2.415 2.415 0 0 1-.339-1.28c-.011-.45.104-.893.332-1.28h.007zM4.924 5.336a1.675 1.675 0 0 0 1.384-.852 3.37 3.37 0 0 0 .498-1.813 3.391 3.391 0 0 0-.498-1.82A1.675 1.675 0 0 0 4.924 0 1.689 1.689 0 0 0 3.54.851a3.391 3.391 0 0 0-.485 1.82 3.363 3.363 0 0 0 .485 1.813 1.689 1.689 0 0 0 1.384.852zM4.3 1.39a.81.81 0 0 1 .623-.436.824.824 0 0 1 .623.436c.233.386.353.83.346 1.28.008.45-.11.894-.34 1.28a.83.83 0 0 1-.622.43.823.823 0 0 1-.623-.43 2.415 2.415 0 0 1-.34-1.28c-.009-.45.109-.894.34-1.28H4.3zM13.92 4.969a1.48 1.48 0 0 0-.865-1.031A1.294 1.294 0 0 0 11.997 4a2.215 2.215 0 0 0-1.06 1.315c-.165.47-.185.98-.055 1.46a1.46 1.46 0 0 0 .859 1.031c.141.062.295.093.45.09.21-.001.42-.05.608-.145a2.235 2.235 0 0 0 1.06-1.315 2.54 2.54 0 0 0 .062-1.467zm-.954 1.156c-.093.319-.303.591-.589.76a.429.429 0 0 1-.339.035c-.325-.131-.45-.747-.263-1.294.09-.322.3-.597.588-.768a.52.52 0 0 1 .215-.055.284.284 0 0 1 .131 0c.319.152.443.789.257 1.322zM3.145 6.775c.13-.48.111-.99-.055-1.46A2.215 2.215 0 0 0 2.03 4a1.294 1.294 0 0 0-1.059-.062 1.48 1.48 0 0 0-.893 1.03 2.54 2.54 0 0 0 .063 1.468c.167.56.547 1.032 1.059 1.315.189.094.397.144.609.145.154.003.308-.028.45-.09a1.46 1.46 0 0 0 .885-1.03zm-1.183.145a.43.43 0 0 1-.34-.034 1.28 1.28 0 0 1-.587-.761C.848 5.57.972 4.955 1.29 4.83a.298.298 0 0 1 .131 0c.075.002.148.021.215.056.282.164.492.428.588.74.187.547.062 1.163-.263 1.294z"/></svg>