<svg fill="currentColor" xmlns="http://www.w3.org/2000/svg" viewBox="0 0 14 15"><path d="M1.025 13.668h4.1v1.025h-3.93c-.66 0-1.195-.536-1.195-1.196V1.196C0 .536.535 0 1.196 0h7.046l3.717 3.717v2.775h-1.025V5.125H8.03c-.66 0-1.196-.535-1.196-1.196V1.025H1.025v12.643zM10.893 4.1 7.859 1.067V4.1h3.034z"/><path d="M10.358 7.21h-1.23l-.514.903-.19.078-1-.28-.87.87.275 1.001-.08.19-.906.512v1.23l.902.514.079.19-.28 1.002.87.87 1.001-.275.19.08.512.905h1.23l.514-.902.19-.079 1.002.28.87-.871-.275-1 .08-.192.906-.51v-1.231l-.903-.513-.079-.19.28-1.002-.872-.87-1 .276-.19-.08-.512-.906zM9.284 8.872l.4-.706H9.8l.397.705.798.335.783-.216.081.082-.217.78.33.799.705.4v.116l-.705.398-.334.798.215.782-.082.082-.78-.218-.798.33-.402.704h-.115l-.398-.704-.798-.335-.782.216-.082-.082.218-.78-.33-.798-.704-.402v-.116l.705-.397.334-.798-.215-.783.08-.08.78.217.8-.33z"/><path d="M10.763 11.105a1.025 1.025 0 1 1-2.05 0 1.025 1.025 0 0 1 2.05 0z"/></svg>