<svg fill="currentColor" xmlns="http://www.w3.org/2000/svg" viewBox="0 0 13 14"><path d="M7.123 4.172a2.056 2.056 0 0 1-.705-.196 1.185 1.185 0 0 1-.433-.356.874.874 0 0 1-.152-.45c0-.017.007-.031.022-.046a.087.087 0 0 1 .062-.025h.714a.15.15 0 0 1 .084.019l.002.002h.003c.023.012.048.03.075.057a.616.616 0 0 0 .245.237.97.97 0 0 0 .463.096c.218 0 .391-.032.514-.1.123-.07.19-.167.19-.291a.27.27 0 0 0-.105-.218.81.81 0 0 0-.286-.14 6.035 6.035 0 0 0-.56-.133c-.453-.084-.786-.21-1.001-.377-.212-.163-.32-.396-.32-.703 0-.27.105-.5.317-.69.21-.193.5-.313.871-.358l.036-.004V.094c0-.03.009-.05.026-.067A.114.114 0 0 1 7.26 0h.47c.032 0 .056.01.073.026a.087.087 0 0 1 .028.068v.411l.034.006c.245.038.453.11.624.215h.001c.177.104.31.221.4.353a.76.76 0 0 1 .147.386.078.078 0 0 1-.023.052.078.078 0 0 1-.055.02h-.747a.228.228 0 0 1-.094-.017.177.177 0 0 1-.056-.051c-.027-.09-.098-.164-.203-.222a.775.775 0 0 0-.39-.09c-.173 0-.312.029-.413.09a.31.31 0 0 0-.154.28c0 .082.028.153.085.21v.001a.797.797 0 0 0 .264.146h.001c.12.04.288.08.504.123h.001c.35.06.625.134.828.224a.991.991 0 0 1 .442.329c.093.132.14.304.14.516a.898.898 0 0 1-.348.73c-.234.191-.55.312-.952.36l-.036.005v.402c0 .03-.01.051-.028.068a.101.101 0 0 1-.073.026h-.47a.114.114 0 0 1-.074-.027.087.087 0 0 1-.026-.067v-.397l-.036-.004z"/><path d="M7.167 6.333a2.33 2.33 0 0 1-.89 1.834h.192c.124-.143.278-.272.464-.377.338-.19.755-.29 1.252-.29h.033a1.733 1.733 0 1 1 2.564 0h.37c.362 0 .834.16 1.212.576.384.422.636 1.068.636 1.984v.32l-.29.134c-.603.279-1.736.62-3.068.65.016.188.025.385.025.593v.314l-.284.136c-1.509.726-5.39 1.737-9.003 0l-.21-.101-.058-.227c-.146-.582-.202-1.483.17-2.268.19-.402.494-.772.946-1.037.448-.264 1.014-.407 1.706-.407h.456a2.333 2.333 0 1 1 3.777-1.833z"/></svg>