<svg fill="currentColor" xmlns="http://www.w3.org/2000/svg" viewBox="0 0 14 9"><path d="M12.524 2.33zM.499 2.361.023 1.74A.13.13 0 0 1 0 1.675c0-.04.014-.063.047-.082l.006-.004L1.92.144a.254.254 0 0 1 .137-.039H3.07c.036 0 .058.01.074.028.017.016.027.038.027.074V5.48a.114.114 0 0 1-.029.076c-.016.016-.038.025-.072.025H2.016a.113.113 0 0 1-.074-.027.113.113 0 0 1-.027-.074V1.413L.64 2.39l-.004.004c-.023.019-.04.024-.056.024-.017 0-.044-.008-.081-.057zM4.404 4.584l.844-.828c.49-.377.863-.671 1.118-.883.257-.213.456-.411.592-.593.138-.184.215-.37.215-.556 0-.229-.056-.42-.187-.552-.131-.133-.32-.19-.547-.19-.243 0-.444.075-.587.236a1.085 1.085 0 0 0-.259.54.13.13 0 0 1-.05.079.222.222 0 0 1-.126.03H4.402a.064.064 0 0 1-.05-.02.064.064 0 0 1-.019-.048c.01-.328.1-.627.269-.897.173-.276.416-.494.731-.654A2.375 2.375 0 0 1 6.44 0c.444 0 .818.071 1.127.21.309.14.538.332.694.579.156.246.236.535.236.87 0 .356-.112.68-.337.978-.225.298-.573.626-1.05.986l-.007.004-.922.933h2.328c.036 0 .057.01.074.027l.005.005c.02.018.03.038.03.07v.819c0 .031-.01.052-.03.07l-.005.004c-.016.017-.038.027-.074.027H4.346a.125.125 0 0 1-.085-.03c-.016-.015-.025-.037-.025-.071v-.576c0-.13.051-.232.163-.317l.005-.004zM10.746 3.03c0 .027.008.05.028.075.024.02.048.027.074.027h.9c.292 0 .53.055.695.183.171.132.25.327.25.567a.75.75 0 0 1-.272.606c-.175.145-.415.21-.705.21-.492 0-.843-.144-.976-.48a.2.2 0 0 0-.064-.077.194.194 0 0 0-.096-.02H9.517a.092.092 0 0 0-.06.022.064.064 0 0 0-.017.046c.01.22.091.444.25.673.16.22.406.41.746.567.34.155.765.234 1.28.234.443 0 .839-.07 1.187-.211a1.86 1.86 0 0 0 .81-.592c.19-.252.287-.546.287-.888 0-.477-.14-.828-.405-1.07h-.001c-.268-.253-.638-.414-1.12-.477h-.008l-.237-.069 1.368-1.268a.245.245 0 0 0 .095-.191v-.69a.084.084 0 0 0-.03-.07l-.006-.004c-.016-.017-.038-.028-.074-.028H9.85a.114.114 0 0 0-.077.03c-.015.016-.025.038-.025.072V.97c0 .026.008.05.028.074.024.02.048.027.074.027h2.532l-1.546 1.31c-.059.044-.09.104-.09.195v.454zM.438 7.137h13.32v1.15H.438v-1.15z"/></svg>