<svg xmlns="http://www.w3.org/2000/svg" viewBox="0 0 12 12" fill="currentColor"><path d="M4 6.154v.923h-.923v-.923H4zM6.462 7.077h-.924v-.923h.924v.923zM8.923 6.154v.923H8v-.923h.923zM3.077 9.538v-.923H4v.923h-.923zM5.538 8.615h.924v.923h-.924v-.923z"/><path d="M3.385 0h-.923v.615H1.077C.482.615 0 1.098 0 1.692v9.231C0 11.518.482 12 1.077 12h9.846c.595 0 1.077-.482 1.077-1.077v-9.23c0-.595-.482-1.078-1.077-1.078H9.538V0h-.923v.615h-5.23V0zm6.153 1.538h1.539v2.154H.923V1.538h1.539v.616h.923v-.616h5.23v.616h.923v-.616zm1.539 9.539H.923V4.615h10.154v6.462z"/></svg>