<svg fill="currentColor" xmlns="http://www.w3.org/2000/svg" viewBox="0 0 13 14"><path d="M7.548.813c1.842.538 3.266 2.33 3.266 4.912 0 1.67.338 2.61.963 3.293.107.116.396.382.587.559.088.081.155.143.175.163l.183.186v2.169H8.825a2.55 2.55 0 0 1-3.792 1.532c-.663-.405-1.03-.857-1.16-1.532H0v-2.17l.183-.185c.021-.022.092-.086.183-.17.191-.176.475-.437.58-.55.625-.68.962-1.62.962-3.295 0-2.59 1.422-4.378 3.267-4.913a1.272 1.272 0 0 1 2.373.001zM5.202 12.095c.09.167.243.293.494.446a1.277 1.277 0 0 0 1.77-.446H5.202z"/></svg>