<svg fill="currentColor" xmlns="http://www.w3.org/2000/svg" viewBox="0 0 15 15"><path d="M8.95 7.264a.587.587 0 1 0 0-1.174.587.587 0 0 0 0 1.174zM2.818 5.608c.2.101.44.169.721.2l.037.005v.406c0 .03.01.052.028.07a.117.117 0 0 0 .075.026h.482c.033 0 .056-.009.075-.026a.09.09 0 0 0 .028-.07v-.412l.036-.004c.412-.05.736-.173.976-.368a.92.92 0 0 0 .357-.748.903.903 0 0 0-.144-.53 1.015 1.015 0 0 0-.453-.336 3.71 3.71 0 0 0-.848-.23h-.001a4.493 4.493 0 0 1-.516-.125H3.67a.817.817 0 0 1-.27-.15.294.294 0 0 1-.087-.216c0-.123.052-.22.157-.286.103-.064.246-.093.424-.093.156 0 .29.03.399.092.107.06.18.135.208.227.019.026.038.043.056.053.024.01.055.017.097.017h.765a.08.08 0 0 0 .057-.02.08.08 0 0 0 .023-.054.779.779 0 0 0-.15-.395 1.247 1.247 0 0 0-.41-.36V2.28a1.712 1.712 0 0 0-.64-.22l-.035-.006v-.422a.09.09 0 0 0-.028-.07.104.104 0 0 0-.075-.026h-.482a.117.117 0 0 0-.075.027.09.09 0 0 0-.028.07v.411l-.036.005c-.38.046-.676.169-.893.366a.914.914 0 0 0-.324.707c0 .314.11.552.327.72.22.17.562.3 1.027.386.251.05.443.096.572.136a.83.83 0 0 1 .294.143.277.277 0 0 1 .106.223c0 .127-.068.227-.194.298-.126.07-.303.102-.526.102a.993.993 0 0 1-.474-.097.63.63 0 0 1-.251-.243.27.27 0 0 0-.077-.058l-.003-.001-.003-.002a.154.154 0 0 0-.086-.02h-.73a.09.09 0 0 0-.064.027.063.063 0 0 0-.022.047c.007.162.06.315.156.46.1.141.247.263.443.365z"/><path d="M3.926 0a3.926 3.926 0 0 0-2.39 7.04v6.24c-.007.07-.007.14 0 .211v.11a1.27 1.27 0 0 0 1.27 1.174H13.73a1.277 1.277 0 0 0 1.27-1.27V5.312a1.277 1.277 0 0 0-1.27-1.27H12.27V2.806a1.268 1.268 0 0 0-1.618-1.222l-3.078.887A3.927 3.927 0 0 0 3.926 0zm7.1 11.013-8.315 2.396V7.66a3.926 3.926 0 0 0 5.128-4.053l3.256-.93v8.337h-.069zM1.024 3.926a2.902 2.902 0 1 1 5.803 0 2.902 2.902 0 0 1-5.803 0zm10.323 8.213a1.27 1.27 0 0 0 .922-1.215V7.947h1.557V13.6H6.998v-.19l4.35-1.27zm.922-6.923h1.557v1.557h-1.557V5.216z"/></svg>