<svg fill="currentColor" xmlns="http://www.w3.org/2000/svg" viewBox="0 0 15 15"><path d="M7.5 10.116a2.616 2.616 0 1 1 0-5.232 2.616 2.616 0 0 1 0 5.232zm0-1.046a1.57 1.57 0 1 0 0-3.14 1.57 1.57 0 0 0 0 3.14z"/><path d="m13.245 9.492-.283.677.534 1.94-1.404 1.403-1.94-.54-.676.279-.996 1.748H6.496l-.99-1.754-.676-.283-1.94.534-1.403-1.403.54-1.94-.279-.677L0 8.48V6.496l1.755-.99.283-.676-.534-1.94 1.402-1.402 1.94.541.676-.279L6.517 0H8.5l.99 1.755.676.283 1.94-.534 1.404 1.403-.54 1.94.279.676 1.75.995v1.984l-1.755.99zm-1.46 2.848.54-.54-.468-1.701.562-1.342 1.534-.866v-.764l-1.533-.872-.554-1.343.473-1.697-.54-.54-1.703.468-1.34-.562-.866-1.534h-.764L6.254 2.58l-1.342.554-1.698-.474-.539.54.468 1.7-.562 1.341-1.534.866v.765l1.532.873.554 1.343-.473 1.697.54.54 1.7-.468 1.341.562.866 1.534h.765l.872-1.533 1.343-.553 1.698.473z"/></svg>