<svg fill="currentColor" xmlns="http://www.w3.org/2000/svg" viewBox="0 0 15 15"><path d="M0 7.5a7.5 7.5 0 1 0 15 0 7.5 7.5 0 0 0-15 0zm5.71 3.047a2.018 2.018 0 0 1-.722-.639 1.647 1.647 0 0 1-.254-.806c0-.03.012-.057.037-.083a.14.14 0 0 1 .103-.046h1.191c.067 0 .112.014.14.035l.005.003.005.002c.038.02.08.052.125.1.088.174.226.316.409.427.198.116.457.17.772.17.365 0 .654-.057.858-.18.207-.123.317-.298.317-.521a.5.5 0 0 0-.174-.391c-.105-.098-.267-.18-.478-.25a9.492 9.492 0 0 0-.934-.239c-.758-.15-1.313-.377-1.672-.676-.354-.294-.533-.71-.533-1.262 0-.485.175-.897.528-1.237.352-.346.835-.562 1.454-.643l.06-.007v-.722c0-.053.016-.09.044-.12a.183.183 0 0 1 .124-.048H7.9c.053 0 .092.016.122.046s.046.068.046.122v.738l.057.01c.408.068.755.197 1.042.387h.001c.296.185.518.396.67.632.151.237.231.468.244.693 0 .03-.012.061-.039.093a.125.125 0 0 1-.092.035H8.703a.357.357 0 0 1-.157-.03.305.305 0 0 1-.092-.091c-.046-.162-.163-.294-.34-.398a1.221 1.221 0 0 0-.65-.161c-.29 0-.522.051-.69.162a.568.568 0 0 0-.257.501c0 .148.047.276.141.378l.002.002c.098.097.246.183.439.26l.003.001c.2.071.48.145.84.22h.002c.583.107 1.043.242 1.382.402h.001c.338.154.582.351.737.59.155.238.235.546.235.927 0 .536-.194.97-.582 1.31-.39.342-.919.559-1.59.646l-.06.008v.721a.163.163 0 0 1-.045.122.163.163 0 0 1-.122.046h-.785a.183.183 0 0 1-.124-.047.163.163 0 0 1-.044-.12v-.713l-.06-.008c-.46-.056-.851-.173-1.176-.351z"/></svg>