<svg fill="currentColor" xmlns="http://www.w3.org/2000/svg" viewBox="0 0 14 14"><path d="M1.208 12.792h11.584V7.817H14v4.868c0 .726-.589 1.315-1.315 1.315H1.315A1.315 1.315 0 0 1 0 12.685V1.315C0 .589.589 0 1.315 0h4.868v1.208H1.208v11.584z"/><path d="M10.864 0c.437 0 .856.174 1.161.483l1.494 1.493a1.643 1.643 0 0 1 0 2.323L7.605 10.21l-.005.006a2.77 2.77 0 0 1-1.93.943H2.844v-.604l.002-2.28a2.77 2.77 0 0 1 .904-1.84L9.702.485c.307-.31.726-.484 1.162-.484zM4.051 9.951l1.573.002h.008c.408-.03.786-.22 1.087-.562l4.38-4.381-2.107-2.108-4.413 4.41a1.578 1.578 0 0 0-.528 1.006v1.633zm6.507-8.616-.712.713 2.108 2.108.71-.71a.435.435 0 0 0 0-.616L11.17 1.335a.43.43 0 0 0-.612 0z"/></svg>