<svg fill="currentColor" xmlns="http://www.w3.org/2000/svg" viewBox="0 0 11 15"><path d="M8.372 13.954V9.07H9.42v4.71A1.22 1.22 0 0 1 8.198 15H1.22A1.22 1.22 0 0 1 0 13.78V1.22C0 .548.547 0 1.22 0h6.978c.674 0 1.22.547 1.22 1.22v.524H8.373v-.697H5.93v.174a.523.523 0 0 1-.523.523H4.012a.523.523 0 0 1-.524-.523v-.174H1.047v12.907h7.325z"/><path d="m4.594 6.64 3.633-3.632a1.02 1.02 0 0 1 .71-.287c.262 0 .49.104.67.287l.991.99a.925.925 0 0 1 .286.669c0 .258-.102.526-.286.71L6.992 8.981l-.004.005a1.488 1.488 0 0 1-1.04.502H4.116l.002-1.869v-.001c.03-.384.209-.741.476-.977zm4.324-2.884-.805.804.932.932.804-.804-.931-.932zm-.593 2.455-.932-.931L5.29 7.382a.481.481 0 0 0-.155.27l-.001.007v.812l.773.001h.009a.486.486 0 0 0 .33-.18l.003-.005 2.076-2.076zM2.79 11.163h3.838v1.046H2.79v-1.046z"/></svg>