<svg fill="currentColor" xmlns="http://www.w3.org/2000/svg" viewBox="0 0 25 24"><path fill-rule="evenodd" d="M21.64 0H2.516A2.508 2.508 0 0 0 0 2.5v19C0 22.88 1.127 24 2.516 24H21.64c1.39 0 2.516-1.12 2.516-2.5v-19c0-1.38-1.127-2.5-2.516-2.5zm-1.098 6.968H18.56c-.822 0-1.488.673-1.488 1.503v2.505h3.471a.502.502 0 0 1 .47.66l-.992 3.005a.496.496 0 0 1-.47.342h-2.479V24h-3.967v-9.017h-2.48a.498.498 0 0 1-.495-.5v-3.006c0-.277.222-.501.496-.501h2.48V8.47c0-3.043 2.441-5.51 5.454-5.51h1.983c.274 0 .496.224.496.5v3.006a.498.498 0 0 1-.496.501z" clip-rule="evenodd"/></svg>