<svg fill="currentColor" xmlns="http://www.w3.org/2000/svg" viewBox="0 0 14 14"><path d="M12.792 1.208H9.949V0h2.866C13.46 0 14 .579 14 1.315V4.05h-1.208V1.208zM1.208 9.95v2.842h2.843V14H1.186C.54 14 0 13.421 0 12.685V9.95h1.208zM9.95 12.792h2.842V9.949H14v2.736c0 .736-.54 1.315-1.185 1.315H9.949v-1.208zM4.05 1.208H1.209v2.843H0V1.315C0 .579.54 0 1.186 0H4.05v1.208zM6.29 7.107h-.397v1.208h.396c.374 0 .698-.181.916-.4.218-.217.399-.54.4-.915v-.002c-.002-.354-.003-1.242-.003-2.041V3.553H6.394v1.404c0 .776 0 1.637.002 2.013V7l-.02.032-.025.03-.03.025-.032.02zM7 11.157c-2.383 0-3.38-1.58-3.443-2.63H4.77c.032.207.156.52.435.8.339.338.9.622 1.794.622s1.455-.284 1.794-.622c.28-.28.403-.593.435-.8h1.214c-.063 1.05-1.06 2.63-3.443 2.63zM9.239 5.472V3.553h1.208v1.92H9.239zM3.553 3.553h1.208v1.92H3.553v-1.92z"/></svg>