<svg fill="currentColor" xmlns="http://www.w3.org/2000/svg" viewBox="0 0 13 13"><path d="m11.76.575 1.208 2.087L11.76.574zM10.352 1.142 8.78 2.21l1.571-1.068z"/><path d="m11.615.658 1.209 2.088a1.315 1.315 0 0 1-.572 1.843l-9.98 4.794a1.324 1.324 0 0 1-1.716-.528l-.38-.657a1.313 1.313 0 0 1 .4-1.745L9.727.229a1.322 1.322 0 0 1 1.888.43zm-1.357.346-.1.069-1.6 1.086 1.434 2.475 1.853-.889a.38.38 0 0 0 .163-.53L10.8 1.127a.385.385 0 0 0-.042-.06l.136-.092h-.258a.38.38 0 0 0-.378.03zm-1.116 4.04-1.32-2.282h-.149L3.28 5.75 4.235 7.4l4.907-2.357zM3.384 7.808 2.667 6.57 2.5 6.167l-.277.302-1.117.76a.379.379 0 0 0-.115.5l.38.658a.38.38 0 0 0 .493.151l1.52-.73zM9.392 11.902a.471.471 0 0 1-.302-.196L7.187 8.93v2.933a.468.468 0 0 1-.47.47.471.471 0 0 1-.47-.47V8.931l-1.903 2.775a.47.47 0 0 1-.777-.53l1.74-2.537a.47.47 0 0 1 .185-.158l1.536-.737a.472.472 0 0 1 .578.137l2.26 3.295a.468.468 0 0 1-.474.726z"/></svg>