<svg fill="currentColor" xmlns="http://www.w3.org/2000/svg" viewBox="0 0 14 14"><path d="m5.824 3.514.005.008.007.007a.7.7 0 0 1 .2.567c-.022.198-.123.414-.29.64-.08.106-.171.212-.285.332-.055.057-.097.1-.188.191l-.524.524a.201.201 0 0 0-.057.142c0 .03.005.06.01.083.012.048.033.104.059.164.053.122.138.281.252.464.228.367.58.839 1.045 1.303A7.52 7.52 0 0 0 7.36 8.985c.183.114.342.2.464.252.06.026.116.047.165.058.023.006.052.01.083.01a.202.202 0 0 0 .141-.056l.524-.524c.287-.287.429-.416.623-.543.202-.133.4-.208.584-.217a.708.708 0 0 1 .521.196l.007.006.008.006c1.313.939 2.04 1.505 2.39 1.868.639.664.558 1.693.003 2.28-.21.22-.476.488-.793.793l-.002.002c-.9.9-2.32 1.096-3.93.664-1.608-.432-3.372-1.483-4.908-3.021C1.704 9.22.653 7.455.22 5.848c-.432-1.612-.237-3.03.66-3.928l.002-.001c.343-.35.456-.462.79-.791.564-.556 1.642-.64 2.29 0 .366.362.962 1.127 1.862 2.386zM1.29 5.86c.422 1.333 1.335 2.836 2.674 4.175 1.338 1.34 2.84 2.254 4.174 2.675 1.32.417 2.532.365 3.224-.325.313-.302.57-.559.768-.768a.644.644 0 0 0 .162-.419.611.611 0 0 0-.16-.445c-.284-.295-.963-.823-2.106-1.644l-.106-.076-.1.082c-.092.073-.201.177-.36.336l-.523.523c-.38.38-.9.426-1.534.181-.638-.246-1.357-.777-2.07-1.49C4.622 7.95 4.09 7.23 3.845 6.593c-.244-.635-.198-1.155.181-1.534l.524-.524c.084-.084.123-.124.17-.174.065-.068.12-.13.165-.185l.082-.102-.076-.105c-.794-1.106-1.344-1.812-1.648-2.112-.121-.12-.298-.155-.44-.15-.142.004-.307.047-.411.15-.331.327-.44.436-.783.784C.92 3.328.873 4.54 1.29 5.859zM8.944 4.334c.56.425 1.07 1.126 1.282 2.234l1.013-.16c-.51-2.756-2.55-3.599-3.722-3.674v1.027c.385.036.923.19 1.427.573z"/><path d="M7.517 1.025c1.578.078 4.687 1.23 5.443 5.543l1.012-.16C13.117 1.476 9.468.078 7.517 0v1.025z"/></svg>