<svg fill="currentColor" xmlns="http://www.w3.org/2000/svg" viewBox="0 0 13 15"><path d="M3.167.667h.725l.046-.04C4.405.232 5.091 0 5.833 0s1.43.232 1.895.627l.047.04H8.5c.644 0 1.167.522 1.167 1.166V2h.833c.644 0 1.167.522 1.167 1.167V7h-1V3H9.559l-.048.083c-.202.35-.58.584-1.011.584H3.167c-.432 0-.809-.235-1.011-.584L2.108 3H1v10.333h4v1H1.167A1.167 1.167 0 0 1 0 13.167v-10C0 2.522.522 2 1.167 2H2v-.167C2 1.19 2.522.667 3.167.667zm1.162 1H3v1h5.667v-1h-1.33l-.149-.173C6.926 1.192 6.402 1 5.833 1c-.568 0-1.092.192-1.354.494l-.15.173z"/><path d="m7.104 11.725 3.471-3.47A.907.907 0 0 1 11.207 8c.23 0 .431.092.593.254l.946.947a.817.817 0 0 1 .254.592c0 .23-.09.469-.254.632l-3.449 3.447-.004.004c-.232.267-.561.43-.947.457H6.667l.001-1.716c.029-.35.191-.675.432-.889l.004-.003zm3.22-2.034.985.984.863-.862-.984-.985-.863.863zm-.593.593-2.056 2.055a.525.525 0 0 0-.168.298l-.001.01v.848H8.325a.531.531 0 0 0 .36-.195l.001-.002 2.03-2.03-.985-.984zM3.333 7V6h5v1h-5zM7 8.667v1H3.333v-1H7z"/></svg>