<svg fill="currentColor" xmlns="http://www.w3.org/2000/svg" viewBox="0 0 12 15"><path d="M2.244 9.143h7.512v.8H2.244v-.8zM2.244 11.429h5.548v.8H2.244v-.8zM9.756 12.229h-1.06v-.8h1.06v.8z"/><path d="m11.897 7.296-.037.075.037.076c.066.135.103.285.103.444v5.818c0 .566-.473 1.034-1.063 1.034H1.063c-.59 0-1.063-.468-1.063-1.034V7.89c0-.159.037-.31.103-.444l.037-.076-.037-.075A1.004 1.004 0 0 1 0 6.852V1.034C0 .468.473 0 1.063 0h9.874C11.527 0 12 .468 12 1.034v5.818c0 .159-.037.31-.103.444zM.89 6.857H11.11V.95L.89.943v5.914zm0 1.029v5.907l10.218.007V7.886H.89z"/><path d="M2.346 3.313c0-.782.672-1.427 1.499-1.427.827 0 1.499.645 1.499 1.427 0 .396-.178.753-.456 1.014l-.065.06.074.048c.258.166.469.389.615.65.134.24.21.506.222.778h-.647C5.05 5.23 4.509 4.74 3.845 4.74c-.665 0-1.206.49-1.242 1.122h-.647a1.75 1.75 0 0 1 .222-.778c.146-.261.357-.484.614-.65l.074-.048-.064-.06a1.39 1.39 0 0 1-.456-1.014zm1.499-.816c-.473 0-.852.358-.852.816 0 .459.38.817.852.817s.852-.358.852-.817c0-.458-.38-.816-.852-.816zM7.048 3.577V2.8h2.998v.777H7.048zM7.66 5.406v-.777h2.386v.777H7.66z"/></svg>