<svg fill="currentColor" xmlns="http://www.w3.org/2000/svg" viewBox="0 0 13 12"><path d="M13 10.5c0 .644-.522 1.167-1.167 1.167H1.167A1.167 1.167 0 0 1 0 10.5V1.167C0 .522.522 0 1.167 0h10.666C12.478 0 13 .522 13 1.167V10.5zM12 1H1v9.667h11V1z"/><path d="M11.167 4.024v-.857H6.5v.857h4.667zM9.767 4.881v.857H6.5v-.857h3.267zM11.167 7.452v-.857H6.5v.857h4.667zM9.767 9.167V8.31H6.5v.857h3.267zM2.857 7.012l.008.005a.25.25 0 0 1 .065.058c.07.146.176.265.314.358l.002.001c.156.101.356.146.59.146.269 0 .492-.046.654-.154a.543.543 0 0 0 .258-.471.484.484 0 0 0-.145-.358.988.988 0 0 0-.367-.215 6.352 6.352 0 0 0-.68-.192h-.001c-.54-.12-.925-.296-1.17-.523-.238-.218-.363-.53-.363-.955 0-.37.121-.682.362-.94.242-.263.574-.429 1.006-.491l.1-.015v-.632c0-.027.006-.04.014-.05.015-.014.028-.017.04-.017h.565c.02 0 .03.005.038.014.008.01.016.024.016.053v.643l.095.018c.285.053.525.152.722.296l.003.002c.205.143.358.303.46.481.105.18.159.354.167.52a.056.056 0 0 1-.012.03l-.004.003a.027.027 0 0 1-.01.001h-.898a.176.176 0 0 1-.078-.014.162.162 0 0 1-.04-.043.611.611 0 0 0-.268-.345.878.878 0 0 0-.504-.14c-.216 0-.4.042-.536.143a.534.534 0 0 0-.212.453c0 .13.037.248.117.343l.003.003c.08.088.195.16.338.224l.005.002c.147.058.353.117.613.178h.003c.416.085.74.19.976.314h.002c.234.118.398.267.502.444.104.177.16.409.16.705 0 .41-.134.739-.398.995-.269.26-.635.428-1.106.496l-.1.014v.633c0 .029-.008.043-.016.052-.008.01-.018.015-.038.015h-.564c-.013 0-.026-.004-.041-.018-.008-.009-.014-.023-.014-.05v-.625l-.1-.014a2.108 2.108 0 0 1-.82-.27 1.446 1.446 0 0 1-.496-.485 1.346 1.346 0 0 1-.174-.61c0-.007.002-.012.01-.02a.053.053 0 0 1 .015-.013.02.02 0 0 1 .009-.002h.856c.038 0 .054.009.06.013l.007.006z"/></svg>