<svg fill="currentColor" xmlns="http://www.w3.org/2000/svg" viewBox="0 0 15 12"><path d="m5.383 2 .01-.016-.01.016zM12.686 4.629a.514.514 0 1 1-1.029 0 .514.514 0 0 1 1.029 0zM7.371 9.943a3.257 3.257 0 1 1 0-6.514 3.257 3.257 0 0 1 0 6.514zm0-1.029a2.229 2.229 0 1 0 0-4.457 2.229 2.229 0 0 0 0 4.457z"/><path d="m4.361 1.37.059-.096c.283-.463.516-.78.76-.984C5.416.093 5.667 0 6 0h2.743c.333 0 .584.093.82.29.244.203.477.522.76.985l.058.095.145.238c.07.113.126.2.178.272.034.047.066.087.093.119l.051.058h2.01c1.04 0 1.885.844 1.885 1.886v6.171A1.886 1.886 0 0 1 12.857 12H1.886A1.886 1.886 0 0 1 0 10.114V3.943C0 2.9.844 2.057 1.886 2.057h2.009L3.945 2a1.62 1.62 0 0 0 .094-.12c.052-.071.108-.158.178-.271l.144-.238zM10.8 3.086c-.374 0-.636-.196-.931-.606a5.58 5.58 0 0 1-.218-.332 57.059 57.059 0 0 1-.155-.254l-.05-.083a4.909 4.909 0 0 0-.387-.56 1.176 1.176 0 0 0-.137-.144.422.422 0 0 0-.068-.048.231.231 0 0 0-.111-.03H6c-.05 0-.09.018-.11.03a.422.422 0 0 0-.07.048 1.176 1.176 0 0 0-.136.143c-.1.12-.23.304-.387.562l-.05.082-.155.254c-.083.135-.15.239-.218.332-.295.41-.558.606-.931.606H1.886a.857.857 0 0 0-.857.857v6.171c0 .474.383.857.857.857h10.971a.857.857 0 0 0 .857-.857V3.943a.857.857 0 0 0-.857-.857H10.8z"/></svg>