<svg fill="currentColor" xmlns="http://www.w3.org/2000/svg" viewBox="0 0 15 15"><path d="m6.114 9.158.015.007a.292.292 0 0 1 .075.06c.103.193.26.35.459.471l.002.001c.23.135.521.193.857.193.382 0 .705-.06.945-.203.245-.147.39-.367.39-.65a.648.648 0 0 0-.223-.502c-.128-.118-.314-.21-.536-.283a9.79 9.79 0 0 0-.966-.247H7.13c-.761-.152-1.3-.377-1.64-.66-.323-.268-.494-.65-.494-1.178 0-.456.164-.84.496-1.16v-.001c.333-.327.795-.537 1.403-.616l.181-.024V3.51a.06.06 0 0 1 .003-.02v-.002a.044.044 0 0 1 .03-.01h.799c.013 0 .019.002.02.003.002 0 .004 0 .006.003a.014.014 0 0 1 .004.006c0 .001.002.007.002.02v.87l.175.03c.4.066.734.192 1.007.372l.005.003c.287.18.497.38.638.6.14.22.212.427.226.623H8.726a.25.25 0 0 1-.094-.014.167.167 0 0 1-.034-.034c-.064-.196-.21-.348-.4-.461a1.382 1.382 0 0 0-.734-.184c-.309 0-.577.054-.78.189a.717.717 0 0 0-.324.626c0 .181.058.346.18.478l.006.006c.119.118.29.215.494.297l.008.002c.212.075.505.152.874.23h.005c.588.108 1.044.242 1.374.398l.003.001c.326.149.551.334.691.55.14.214.217.499.217.869 0 .507-.181.911-.545 1.23-.372.325-.882.538-1.546.624l-.182.023v.857a.059.059 0 0 1-.002.021.015.015 0 0 1-.004.005.015.015 0 0 1-.005.004.058.058 0 0 1-.021.003h-.8a.045.045 0 0 1-.028-.01l-.001-.002a.06.06 0 0 1-.003-.02v-.85l-.183-.022c-.454-.055-.835-.17-1.147-.341-.31-.173-.535-.375-.686-.604a1.54 1.54 0 0 1-.236-.736.038.038 0 0 1 .003-.003H6.04c.046 0 .061.01.062.01l.013.009z"/><path d="M7.5 15a7.5 7.5 0 1 1 0-15 7.5 7.5 0 0 1 0 15zm0-1.111a6.389 6.389 0 1 0 0-12.778 6.389 6.389 0 0 0 0 12.778z"/></svg>