<svg fill="currentColor" xmlns="http://www.w3.org/2000/svg" viewBox="0 0 12 15"><path d="M6 2.743a3.257 3.257 0 1 1 0 6.514 3.257 3.257 0 0 1 0-6.514zM6 3.77A2.229 2.229 0 1 0 6 8.23 2.229 2.229 0 0 0 6 3.77z"/><path d="M6.338 14.616 6 14.911l-.338-.295C1.872 11.307 0 8.46 0 6c0-3.5 2.728-6 6-6s6 2.5 6 6c0 2.46-1.872 5.307-5.662 8.616zm-.453-1.177.115.104.115-.104c1.615-1.456 2.827-2.806 3.635-4.044.808-1.237 1.221-2.373 1.221-3.395 0-2.913-2.25-4.971-4.971-4.971-2.72 0-4.971 2.058-4.971 4.971 0 1.022.413 2.158 1.22 3.395.81 1.238 2.02 2.588 3.636 4.044z"/></svg>