<svg fill="currentColor" xmlns="http://www.w3.org/2000/svg" viewBox="0 0 12 13"><path d="M5.833 7.833a2.667 2.667 0 1 1 0-5.333 2.667 2.667 0 0 1 0 5.333zm1.95-2.222a9.038 9.038 0 0 1-.643.12 4.26 4.26 0 0 1-.259 1.14c.45-.278.782-.729.903-1.26zm-.617-.559a8.91 8.91 0 0 0 .652-.135 2 2 0 0 0-.937-1.454c.173.437.273.99.285 1.59zm-.666.085c-.003-.573-.101-1.105-.266-1.489-.14-.326-.297-.481-.4-.481-.104 0-.262.155-.401.481-.165.384-.263.916-.266 1.49a7.694 7.694 0 0 0 1.333 0zm-1.973.594a9.452 9.452 0 0 1-.644-.121c.12.532.452.983.903 1.26a4.26 4.26 0 0 1-.259-1.139zm-.026-.679c.011-.6.112-1.152.285-1.59a2 2 0 0 0-.937 1.454 8.829 8.829 0 0 0 .652.137zm1.958.757a8.326 8.326 0 0 1-1.251 0c.044.333.12.634.225.876.14.326.297.482.4.482.104 0 .261-.156.401-.482.104-.242.181-.543.225-.876zM8.333 9.333v1h-5v-1h5z"/><path d="M0 13V0h9.833c1.013 0 1.834.82 1.834 1.833v9.334c0 1.012-.821 1.833-1.834 1.833H0zM9.833 1H1v11h8.833c.248 0 .46-.132.604-.322.145-.19.23-.446.23-.721V2.043c0-.275-.085-.53-.23-.72A.764.764 0 0 0 9.833 1z"/></svg>