<svg fill="currentColor" xmlns="http://www.w3.org/2000/svg" viewBox="0 0 13 13"><path d="M7.94 3.667v-1h1v1h-1zM6.44 6.667a2.827 2.827 0 0 1-2.22-1.072l-.818.576A3.827 3.827 0 0 0 6.44 7.667c1.207 0 2.32-.562 3.039-1.496l-.819-.576a2.827 2.827 0 0 1-2.22 1.072zM4.94 2.667v1h-1v-1h1z"/><path d="M11.833 10.333H6.51l-3.843 2.402v-2.402h-1.5A1.167 1.167 0 0 1 0 9.167v-8C0 .522.522 0 1.167 0h10.666C12.478 0 13 .522 13 1.167v8c0 .644-.522 1.166-1.167 1.166zm.167-1V1H1v8.333h2.667v1.598l2.556-1.598H12z"/></svg>