<svg fill="currentColor" xmlns="http://www.w3.org/2000/svg" viewBox="0 0 12 15"><path d="M3.74 6.439 5.31 8.01l2.942-2.942.727.727-3.668 3.669-2.298-2.298.727-.727z"/><path d="M10.508 12.035c-.998.887-2.499 1.782-4.512 2.682-2.013-.902-3.514-1.798-4.512-2.685C.474 11.134 0 10.264 0 9.422V2.57c0-.238.045-.355.129-.452.098-.113.26-.213.55-.388l.002-.002c.169-.102.373-.226.613-.386l.01-.006a1.657 1.657 0 0 1 .118-.066A12.456 12.456 0 0 1 2.816.647C3.697.317 4.847 0 5.996 0c2.016 0 3.7.674 4.702 1.342.242.161.447.285.616.388.289.175.45.275.55.388.083.097.128.214.128.452v.015a.762.762 0 0 0 .002.05l.002.126.003.422v1.353c0 1.063-.002 2.361-.004 3.375l-.003 1.511c0 .845-.475 1.715-1.484 2.613zm.463-9.213v-.095l-.175-.108a30.199 30.199 0 0 1-.668-.422c-1.042-.695-2.552-1.17-4.132-1.17-.765 0-1.635.186-2.389.421-.751.235-1.408.526-1.743.749-.158.106-.443.282-.665.42l-.171.106v6.7c0 .596.434 1.252 1.233 1.931.806.688 2.02 1.43 3.663 2.2l.073.033.072-.034c1.642-.767 2.856-1.509 3.663-2.196.798-.68 1.232-1.336 1.232-1.935l.001-.853.003-1.338.002-1.16c.003-1.53.002-2.842 0-3.249z"/></svg>