<svg fill="currentColor" xmlns="http://www.w3.org/2000/svg" viewBox="0 0 15 15"><path d="M8.024 10.29a.523.523 0 1 1-1.047 0 .523.523 0 0 1 1.047 0zM8.027 8.72H6.98c.02-.477.123-.813.308-1.08.209-.303.536-.538 1.024-.782.28-.14.487-.254.61-.427.129-.18.148-.397.148-.675 0-.379-.148-.694-.433-.91-.278-.21-.67-.311-1.137-.311A1.57 1.57 0 0 0 5.94 5.93H4.89A2.616 2.616 0 0 1 7.5 3.488c.764 0 1.42.221 1.88.61.458.386.736.947.736 1.658 0 .572-.105.957-.311 1.256-.209.302-.536.537-1.024.782-.28.14-.487.253-.61.426-.1.14-.134.304-.144.5z"/><path d="M7.5 15a7.5 7.5 0 1 1 0-15 7.5 7.5 0 0 1 0 15zm0-1.046a6.453 6.453 0 1 0 0-12.907 6.453 6.453 0 0 0 0 12.906z"/></svg>