<svg fill="currentColor" xmlns="http://www.w3.org/2000/svg" viewBox="0 0 15 15"><path d="m12.304 3.314.131-.115c-.688-.787-1.414-1.328-2.227-1.67-.812-.342-1.7-.482-2.708-.482a6.453 6.453 0 1 0 6.451 6.627h1.047A7.5 7.5 0 1 1 7.5 0c2.202 0 3.932.62 5.455 2.218l.3.315V.692h1.047v3.843h-3.837V3.488h1.84v-.174z"/><path d="M8 8.43a.395.395 0 1 1-.79 0 .395.395 0 0 1 .79 0z"/><path d="M5.744 6.174h.07v-1a1.79 1.79 0 1 1 3.581 0v1h.07c.466 0 .86.338.86.783v2.946c0 .446-.394.783-.86.783h-3.72c-.467 0-.861-.337-.861-.783V6.957c0-.445.394-.783.86-.783zm.86 0h2v-1a1 1 0 1 0-2 0v1zm2.93.791h-3.86v2.93h3.86v-2.93z"/></svg>