<svg xmlns="http://www.w3.org/2000/svg" fill="none" viewBox="0 0 96 96"><path fill="url(#a)" d="M81.342 0H14.658C6.563 0 0 6.563 0 14.658v66.684C0 89.437 6.563 96 14.658 96h66.684C89.437 96 96 89.437 96 81.342V14.658C96 6.563 89.437 0 81.342 0z"/><path fill="url(#b)" d="M75.526 73.27H20.474a7.534 7.534 0 0 0-7.526 7.526v.433a7.534 7.534 0 0 0 7.526 7.525h55.052a7.534 7.534 0 0 0 7.526-7.525v-.433a7.534 7.534 0 0 0-7.526-7.526z"/><path fill="#fff" d="m30.74 79.12-.201.453c-.102.227-.176.329-.377.329-.127 0-.283-.026-.492-.026-.994 0-1.622.866-1.622 2.264v2.378a.34.34 0 0 1-.34.34h-.704a.341.341 0 0 1-.34-.34v-5.573a.34.34 0 0 1 .34-.34 1.083 1.083 0 0 1 .968.88 2.242 2.242 0 0 1 1.873-.93c.213-.006.425.016.631.064.238.063.388.25.264.501zM37.266 81.735a3.189 3.189 0 1 1-6.378.018 3.189 3.189 0 0 1 6.378-.018zm-1.384 0a1.8 1.8 0 1 0-1.09 1.731 1.796 1.796 0 0 0 1.09-1.73zM47.427 81.229v3.308a.342.342 0 0 1-.343.34h-.702a.34.34 0 0 1-.34-.34v-3.554c0-.85-.503-1.107-1.168-1.107-.957 0-1.398.917-1.398 2.425v2.228a.34.34 0 0 1-.34.34h-.702a.34.34 0 0 1-.34-.34v-3.546c0-.85-.503-1.107-1.171-1.107-.815 0-1.395.753-1.395 2.1v2.547a.34.34 0 0 1-.34.34h-.696a.34.34 0 0 1-.34-.34v-5.578a.338.338 0 0 1 .34-.34c.226 0 .727.037.979.917a2.118 2.118 0 0 1 1.75-.968c1.004 0 1.672.416 1.997 1.132a2.15 2.15 0 0 1 1.95-1.132c1.628 0 2.259 1.045 2.259 2.675zM54.67 81.735a3.19 3.19 0 1 1-6.38.017 3.19 3.19 0 0 1 6.38-.017zm-1.385 0a1.801 1.801 0 1 0-3.599.148 1.801 1.801 0 0 0 3.6-.148zM59.385 84.342c.048.263-.065.326-.34.428a5.4 5.4 0 0 1-1.333.135c-1.415 0-1.95-.88-1.95-2.4v-2.578h-.665a.334.334 0 0 1-.328-.328v-.666a.33.33 0 0 1 .328-.328h.66c-.038-.69.339-1.508 1.03-1.508a.335.335 0 0 1 .34.34v1.168h1.66a.331.331 0 0 1 .326.328c0 .753-.614.994-1.344.994h-.643v2.853c0 .49.04.818.606.818.381-.022.76-.077 1.132-.164a.317.317 0 0 1 .365.252l.156.656zM65.86 81.735a3.19 3.19 0 1 1-6.379.017 3.19 3.19 0 0 1 6.38-.017zm-1.384 0a1.8 1.8 0 1 0-3.598.148 1.8 1.8 0 0 0 3.598-.148zM70.813 79.12l-.2.453c-.103.227-.176.329-.377.329-.127 0-.283-.026-.493-.026-.993 0-1.621.866-1.621 2.264v2.378a.34.34 0 0 1-.34.34h-.705a.34.34 0 0 1-.34-.34v-5.573a.34.34 0 0 1 .34-.34 1.09 1.09 0 0 1 .971.88 2.232 2.232 0 0 1 1.874-.93c.211-.006.422.016.628.064.238.063.388.25.263.501zM76.862 78.945v5.584a.351.351 0 0 1-.351.34h-.051c-.54 0-.818-.38-.931-.92a2.312 2.312 0 0 1-1.925.968c-1.608 0-2.547-1.243-2.547-2.93 0-2.213 1.308-3.433 2.68-3.433.686 0 1.358.196 1.936.566a.829.829 0 0 1 .793-.515h.05a.348.348 0 0 1 .346.34zm-1.384 2.264v-1.056a3.463 3.463 0 0 0-1.17-.283c-1.069 0-1.873.515-1.873 2.038 0 1.067.54 1.684 1.46 1.684.92 0 1.583-.874 1.583-2.363v-.02zM22.962 77.224h-3.06a.764.764 0 0 0 0 1.528h3.06a1.146 1.146 0 1 1 0 2.293h-3.06a.764.764 0 0 0-.764.764v2.296a.764.764 0 1 0 1.529 0v-1.532h2.295a2.675 2.675 0 0 0 0-5.349z"/><path fill="url(#c)" d="M50.843 7.056H32.79a4.514 4.514 0 0 0 0 9.026h18.054a6.77 6.77 0 0 1 0 13.54H32.79a4.512 4.512 0 0 0-4.512 4.511v13.54a4.529 4.529 0 0 0 4.512 4.514 4.528 4.528 0 0 0 4.528-4.514v-9.026h13.54a15.795 15.795 0 1 0 0-31.591h-.014z"/><path fill="url(#d)" d="M53.099 29.622h-20.31a4.511 4.511 0 0 0-4.512 4.511 4.528 4.528 0 0 0 4.512 4.528h20.31a9.026 9.026 0 1 1 0 18.052h-20.31a4.528 4.528 0 0 0 0 9.029h20.31a18.055 18.055 0 1 0 0-36.106v-.014z"/><defs><radialGradient id="a" cx="0" cy="0" r="1" gradientTransform="translate(48.347 47.506) scale(67.4482)" gradientUnits="userSpaceOnUse"><stop stop-color="#fff"/><stop offset=".39" stop-color="#FAFBFC"/><stop offset=".84" stop-color="#EDEEF3"/><stop offset="1" stop-color="#E6E8EF"/></radialGradient><linearGradient id="b" x1="12.592" x2="81.696" y1="81.014" y2="81.014" gradientUnits="userSpaceOnUse"><stop stop-color="#5889FA"/><stop offset=".99" stop-color="#2B3EA1"/></linearGradient><linearGradient id="c" x1="3862.39" x2="9063.83" y1="4730.52" y2="4730.52" gradientUnits="userSpaceOnUse"><stop stop-color="#5889FA"/><stop offset=".99" stop-color="#2B3EA1"/></linearGradient><linearGradient id="d" x1="28.277" x2="71.153" y1="47.673" y2="47.673" gradientUnits="userSpaceOnUse"><stop offset=".01" stop-color="#FFBE2D"/><stop offset="1" stop-color="#FF6518"/></linearGradient></defs></svg>