<svg width="185" height="27" fill="none" xmlns="http://www.w3.org/2000/svg"><path d="M56.322 20.47c.16.402-.07.733-.485.883a8.182 8.182 0 0 1-3.776.848 5.715 5.715 0 0 1-2.28-.407 5.81 5.81 0 0 1-1.944-1.283c-.557-.556-1-1.22-1.3-1.954a6.052 6.052 0 0 1-.453-2.318 5.953 5.953 0 0 1 .402-2.265c.28-.72.697-1.376 1.227-1.93a5.719 5.719 0 0 1 1.863-1.297 5.622 5.622 0 0 1 2.209-.461c2.236 0 3.962 1.038 4.446 2.941.714 2.707-1.267 3.86-3.845 4.023-1.406.093-2.652.212-3.525.283a3.393 3.393 0 0 0 1.26 1.613 3.286 3.286 0 0 0 1.94.573 5.445 5.445 0 0 0 2.717-.68c.277-.141.809-.309 1.016.208l.528 1.223zm-7.643-5.127 3.824-.305c.74-.044 1.431-.283 1.362-1.104-.07-.822-.947-1.413-2.007-1.387a3.28 3.28 0 0 0-2.077.82 3.405 3.405 0 0 0-1.102 1.976zM75.13 15.272v6.183a.638.638 0 0 1-.187.442.612.612 0 0 1-.437.18H73.21a.606.606 0 0 1-.442-.184.632.632 0 0 1-.181-.451v-6.625c0-1.577-.922-2.067-2.141-2.067-1.752 0-2.557 1.714-2.557 4.536v4.173a.638.638 0 0 1-.182.435.612.612 0 0 1-.428.184h-1.297a.607.607 0 0 1-.442-.185.633.633 0 0 1-.181-.451v-6.625c0-1.577-.921-2.067-2.141-2.067-1.501 0-2.56 1.409-2.56 3.926v4.783a.638.638 0 0 1-.185.437.612.612 0 0 1-.43.182h-1.298a.607.607 0 0 1-.439-.187.634.634 0 0 1-.18-.45V11.038a.642.642 0 0 1 .18-.45.617.617 0 0 1 .44-.186c.432 0 1.336.07 1.799 1.718.692-1.272 2.232-1.816 3.2-1.816 1.843 0 3.063.778 3.664 2.094a3.99 3.99 0 0 1 1.496-1.56 3.88 3.88 0 0 1 2.073-.534c3.001-.017 4.152 1.935 4.152 4.969zM33.133 4.443c-.34.02-.661.172-.895.425a1.38 1.38 0 0 0-.365.937c0 .349.13.684.365.937.234.254.554.406.895.426h5.334c.53 0 1.038.215 1.413.597.374.383.585.902.585 1.443s-.21 1.06-.586 1.443a1.978 1.978 0 0 1-1.412.598h-5.334a1.319 1.319 0 0 0-.936.401c-.248.255-.387.6-.387.959v4.085c0 .36.14.707.39.962s.588.398.942.398c.353 0 .692-.143.942-.398s.39-.601.39-.962v-2.72h4.001a4.62 4.62 0 0 0 3.3-1.396 4.817 4.817 0 0 0 1.367-3.37 4.816 4.816 0 0 0-1.367-3.37 4.619 4.619 0 0 0-3.3-1.395h-5.342z" fill="#fff"/><path d="M39.133 11.249h-6a1.319 1.319 0 0 0-.936.401c-.248.255-.387.6-.387.959a1.384 1.384 0 0 0 .388.964 1.33 1.33 0 0 0 .944.4h6c.706 0 1.384.287 1.883.797.5.51.78 1.203.78 1.924a2.75 2.75 0 0 1-.78 1.924c-.5.51-1.177.797-1.884.797h-6.008c-.34.02-.661.172-.895.425a1.38 1.38 0 0 0-.365.937c0 .348.13.684.365.937.234.254.554.406.895.426h6a5.278 5.278 0 0 0 3.77-1.596 5.504 5.504 0 0 0 1.563-3.85c0-1.444-.562-2.83-1.562-3.85a5.278 5.278 0 0 0-3.771-1.595zM98.421 11.372l-.367.848c-.186.442-.325.614-.692.614-.23 0-.532-.048-.9-.048-1.825 0-2.976 1.625-2.976 4.266v4.452a.642.642 0 0 1-.181.45.619.619 0 0 1-.442.186h-1.297a.606.606 0 0 1-.442-.185.632.632 0 0 1-.181-.451V11.037a.643.643 0 0 1 .18-.451.62.62 0 0 1 .443-.185c.968 0 1.682.989 1.777 1.651.39-.562.91-1.018 1.514-1.326a4.029 4.029 0 0 1 1.947-.44c.387-.012.774.028 1.15.12.42.14.697.494.468.966zM110.965 16.274a6.055 6.055 0 0 1-.981 3.325 5.884 5.884 0 0 1-2.625 2.207 5.743 5.743 0 0 1-3.385.343 5.814 5.814 0 0 1-2.999-1.636 6.01 6.01 0 0 1-1.603-3.063 6.092 6.092 0 0 1 .337-3.455 5.946 5.946 0 0 1 2.161-2.681 5.763 5.763 0 0 1 7.382.747 6.032 6.032 0 0 1 1.713 4.213zm-2.539 0c0-.893-.347-1.75-.966-2.382a3.267 3.267 0 0 0-2.334-.987c-.875 0-1.715.355-2.334.987a3.405 3.405 0 0 0-.966 2.383 3.429 3.429 0 0 0 .904 2.496c.309.332.68.596 1.092.777a3.248 3.248 0 0 0 2.608 0c.411-.18.783-.445 1.092-.777a3.429 3.429 0 0 0 .904-2.497zM129.695 15.307v6.183a.657.657 0 0 1-.182.451.614.614 0 0 1-.441.185h-1.298a.608.608 0 0 1-.442-.185.647.647 0 0 1-.181-.45v-6.625c0-1.581-.925-2.076-2.163-2.076-1.751 0-2.56 1.722-2.56 4.549v4.165a.647.647 0 0 1-.181.451.618.618 0 0 1-.442.184h-1.298a.607.607 0 0 1-.441-.184.63.63 0 0 1-.182-.451v-6.625c0-1.581-.921-2.076-2.162-2.076-1.501 0-2.561 1.413-2.561 3.935v4.766a.637.637 0 0 1-.384.588.607.607 0 0 1-.239.048h-1.297a.611.611 0 0 1-.577-.392.637.637 0 0 1-.046-.244V11.037a.637.637 0 0 1 .383-.59.611.611 0 0 1 .24-.046c.432 0 1.336.07 1.799 1.722.692-1.272 2.241-1.815 3.209-1.815 1.847 0 3.067.777 3.668 2.098a3.996 3.996 0 0 1 1.499-1.565 3.881 3.881 0 0 1 2.079-.533c3.049.004 4.2 1.96 4.2 5zM143.078 16.274a6.071 6.071 0 0 1-.981 3.325 5.88 5.88 0 0 1-2.626 2.207 5.74 5.74 0 0 1-3.384.343 5.813 5.813 0 0 1-3-1.636 6.014 6.014 0 0 1-1.602-3.063 6.083 6.083 0 0 1 .336-3.455 5.949 5.949 0 0 1 2.161-2.681 5.765 5.765 0 0 1 3.256-1.002 5.79 5.79 0 0 1 4.127 1.75 6.041 6.041 0 0 1 1.713 4.213zm-2.539 0a3.429 3.429 0 0 0-.967-2.382 3.297 3.297 0 0 0-1.071-.73 3.239 3.239 0 0 0-2.526 0c-.4.169-.764.417-1.07.73a3.37 3.37 0 0 0-.716 1.093 3.428 3.428 0 0 0-.251 1.29 3.429 3.429 0 0 0 .904 2.496 3.31 3.31 0 0 0 1.093.777 3.24 3.24 0 0 0 2.607 0c.412-.18.783-.445 1.092-.777a3.39 3.39 0 0 0 .704-1.153c.155-.43.223-.886.201-1.343zM151.992 21.194c.091.495-.116.61-.622.8a9.473 9.473 0 0 1-2.449.26c-2.595 0-3.577-1.651-3.577-4.5v-4.858h-1.22a.603.603 0 0 1-.422-.182.625.625 0 0 1-.179-.432v-1.245a.625.625 0 0 1 .179-.432.603.603 0 0 1 .422-.182h1.22c-.069-1.294.623-2.827 1.895-2.827a.608.608 0 0 1 .441.185.63.63 0 0 1 .182.451v2.208h3.027a.602.602 0 0 1 .428.17.628.628 0 0 1 .191.427c0 1.413-1.129 1.863-2.47 1.863h-1.176v5.331c0 .919.069 1.528 1.107 1.528.708-.04 1.411-.142 2.102-.305.15-.026.303.01.428.098.124.088.21.223.238.375l.255 1.267zM164.376 16.274a6.065 6.065 0 0 1-.981 3.326 5.882 5.882 0 0 1-2.628 2.207 5.738 5.738 0 0 1-3.385.341 5.81 5.81 0 0 1-2.999-1.638 6.02 6.02 0 0 1-1.601-3.065 6.095 6.095 0 0 1 .34-3.456 5.948 5.948 0 0 1 2.165-2.68 5.763 5.763 0 0 1 7.379.755 6.033 6.033 0 0 1 1.71 4.21zm-2.539 0c0-.893-.348-1.75-.967-2.382a3.263 3.263 0 0 0-2.333-.987c-.876 0-1.715.355-2.334.987a3.406 3.406 0 0 0-.967 2.383c-.022.457.046.914.201 1.343.156.429.395.821.704 1.153.309.332.68.596 1.092.777a3.248 3.248 0 0 0 2.607 0 3.31 3.31 0 0 0 1.093-.777 3.429 3.429 0 0 0 .904-2.497zM173.736 11.372l-.367.848c-.186.442-.325.614-.692.614-.234 0-.532-.048-.904-.048-1.821 0-2.976 1.625-2.976 4.266v4.452a.647.647 0 0 1-.181.451.618.618 0 0 1-.442.184h-1.298a.607.607 0 0 1-.441-.184.63.63 0 0 1-.182-.451V11.037a.657.657 0 0 1 .182-.451.615.615 0 0 1 .441-.185c.969 0 1.687.989 1.778 1.651a4.134 4.134 0 0 1 1.504-1.32 4.042 4.042 0 0 1 1.935-.446 4.35 4.35 0 0 1 1.155.12c.437.14.718.494.488.966zM185 11.037v10.467a.667.667 0 0 1-.198.452.637.637 0 0 1-.451.184h-.091c-.99 0-1.501-.707-1.708-1.718a4.282 4.282 0 0 1-1.546 1.351 4.182 4.182 0 0 1-1.984.464c-2.954 0-4.684-2.332-4.684-5.49 0-4.147 2.4-6.435 4.913-6.435a6.441 6.441 0 0 1 3.556 1.06c.117-.292.319-.542.579-.714.26-.173.565-.261.874-.253h.091a.639.639 0 0 1 .45.182c.121.118.192.279.199.45zm-2.539 2.27a6.276 6.276 0 0 0-2.163-.521c-1.964 0-3.439.967-3.439 3.82 0 2 .991 3.153 2.678 3.153 1.687 0 2.924-1.656 2.924-4.452v-2zM84.835 4.443H79.42a1.333 1.333 0 0 0-1.01.377 1.389 1.389 0 0 0-.425 1.007 1.412 1.412 0 0 0 .425 1.008 1.354 1.354 0 0 0 1.01.377h5.415a1.995 1.995 0 0 1 1.498.572 2.113 2.113 0 0 1 0 3.002 1.997 1.997 0 0 1-1.498.572H79.42c-.36.001-.705.146-.96.406-.254.259-.397.61-.398.977v7.95c0 .368.143.72.397.98.255.26.6.407.96.407s.704-.146.958-.405c.254-.26.397-.611.397-.978v-6.567h4.061a4.665 4.665 0 0 0 1.942-.242 4.74 4.74 0 0 0 1.681-1.02 4.858 4.858 0 0 0 1.139-1.624 4.945 4.945 0 0 0 0-3.909 4.857 4.857 0 0 0-1.138-1.624 4.739 4.739 0 0 0-1.682-1.02 4.666 4.666 0 0 0-1.942-.242v-.004z" fill="#fff"/><path fill-rule="evenodd" clip-rule="evenodd" d="M13 0c7.18 0 13 5.943 13 13.274 0 7.33-5.82 13.273-13 13.273S0 20.604 0 13.273C0 5.944 5.82 0 13 0zm1.37 6.987H8.884a1.345 1.345 0 0 1-1.02-.38 1.4 1.4 0 0 1-.429-1.018 1.425 1.425 0 0 1 .43-1.017 1.367 1.367 0 0 1 1.019-.38h5.484c.842 0 1.67.228 2.398.659a4.84 4.84 0 0 1 1.751 1.797 4.969 4.969 0 0 1-.018 4.897 6.06 6.06 0 0 0-2.647-1.025 2.138 2.138 0 0 0 .39-2.262 2.089 2.089 0 0 0-.751-.92 2.024 2.024 0 0 0-1.123-.351zm.687 4.191H8.885c-.363 0-.711.147-.969.409a1.415 1.415 0 0 0-.001 1.977c.257.262.606.41.97.41h6.172a2.713 2.713 0 0 1 1.865.856c.49.52.764 1.215.764 1.937s-.274 1.416-.764 1.937c-.49.52-1.158.828-1.865.857H8.885a1.345 1.345 0 0 0-1.02.38 1.402 1.402 0 0 0-.429 1.017 1.425 1.425 0 0 0 .43 1.018 1.366 1.366 0 0 0 1.019.38h6.172a5.424 5.424 0 0 0 3.772-1.691 5.653 5.653 0 0 0 1.55-3.898 5.653 5.653 0 0 0-1.55-3.897 5.424 5.424 0 0 0-3.772-1.692zm-6.172 6.987a1.343 1.343 0 0 0 .971-.401 1.399 1.399 0 0 0 .408-.986v-2.106h-1.38a2.036 2.036 0 0 1-1.358-.544v2.65c.004.367.148.718.402.977.254.26.597.406.957.41z" fill="#fff"/></svg>