<svg xmlns="http://www.w3.org/2000/svg" fill="none" viewBox="0 0 91 90"><circle cx="46" cy="45" r="45" fill="#fff"/><path fill="#FBBD00" d="M30.628 45.493c0-3.22.854-6.237 2.339-8.82V25.718H22.416c-4.188 5.647-6.458 12.53-6.458 19.775 0 7.245 2.27 14.127 6.458 19.774h10.55V54.312a17.657 17.657 0 0 1-2.338-8.82z"/><path fill="#0F9D58" d="M47.234 62.756 39.9 70.372l7.335 7.616c6.978 0 13.606-2.357 19.045-6.705V60.34H55.74a16.162 16.162 0 0 1-8.505 2.417z"/><path fill="#31AA52" d="M32.977 54.316 22.426 65.27a32.656 32.656 0 0 0 2.709 3.204c5.91 6.137 13.77 9.517 22.13 9.517V62.76c-6.067 0-11.384-3.392-14.288-8.444z"/><path fill="#3C79E6" d="M78.552 45.498c0-1.977-.172-3.958-.512-5.887l-.275-1.561H47.257v15.232h14.847c-1.442 2.978-3.659 5.408-6.343 7.063l10.54 10.944a32.2 32.2 0 0 0 3.085-2.813c5.911-6.138 9.166-14.298 9.166-22.978z"/><path fill="#CF2D48" d="m58.99 33.288 1.297 1.346 10.374-10.77-1.297-1.347C63.453 16.38 55.594 13 47.234 13L39.9 20.616l7.335 7.616c4.441 0 8.616 1.795 11.757 5.056z"/><path fill="#EB4132" d="M47.185 28.232V13c-8.36 0-16.218 3.38-22.13 9.517a32.656 32.656 0 0 0-2.708 3.203l10.55 10.956c2.905-5.053 8.222-8.444 14.288-8.444z"/></svg>