<svg xmlns="http://www.w3.org/2000/svg" fill="none" viewBox="0 0 75 96"><path fill="url(#a)" d="M39.396.002H25.554c-.919 0-1.8.369-2.449 1.025a3.517 3.517 0 0 0-1.014 2.474c0 .928.365 1.818 1.014 2.475A3.445 3.445 0 0 0 25.554 7h13.842c1.377 0 2.698.553 3.671 1.537a5.274 5.274 0 0 1 1.521 3.71 5.274 5.274 0 0 1-1.52 3.71 5.165 5.165 0 0 1-3.672 1.536H25.554a3.426 3.426 0 0 0-2.449 1.022 3.497 3.497 0 0 0-1.014 2.472V31.48a3.526 3.526 0 0 0 1.013 2.475 3.455 3.455 0 0 0 2.45 1.024A3.428 3.428 0 0 0 28 33.954a3.525 3.525 0 0 0 1.011-2.474v-6.994h10.384c1.61.032 3.212-.262 4.709-.863a12.106 12.106 0 0 0 4.01-2.638 12.25 12.25 0 0 0 2.688-4 12.357 12.357 0 0 0 0-9.48 12.251 12.251 0 0 0-2.688-4.002 12.106 12.106 0 0 0-4.01-2.638 12.006 12.006 0 0 0-4.709-.863z"/><path fill="url(#b)" d="M41.13 17.493H25.554a3.426 3.426 0 0 0-2.448 1.022 3.498 3.498 0 0 0-1.015 2.473 3.526 3.526 0 0 0 1.013 2.475 3.428 3.428 0 0 0 2.45 1.023H41.13a6.892 6.892 0 0 1 4.782 2.111 7.036 7.036 0 0 1 1.967 4.885 7.036 7.036 0 0 1-1.966 4.885 6.892 6.892 0 0 1-4.783 2.111H25.554a3.43 3.43 0 0 0-2.53.978 3.53 3.53 0 0 0 0 5.037 3.432 3.432 0 0 0 2.529.978H41.13c1.84.034 3.666-.303 5.375-.99a13.833 13.833 0 0 0 4.578-3.016 13.998 13.998 0 0 0 3.066-4.57 14.118 14.118 0 0 0 0-10.825 14 14 0 0 0-3.066-4.57 13.836 13.836 0 0 0-4.578-3.016 13.72 13.72 0 0 0-5.375-.991z"/><path fill="url(#c)" d="M42.462 77.957c.275.684-.122 1.25-.84 1.533a14.264 14.264 0 0 1-6.537 1.45c-6.019 0-10.384-4.593-10.384-10.232 0-5.638 4.302-10.191 9.882-10.191 3.87 0 6.858 1.774 7.676 5.018 1.237 4.63-2.19 6.606-6.655 6.889-2.434.16-4.583.36-6.1.483a5.824 5.824 0 0 0 2.181 2.762 5.731 5.731 0 0 0 3.359.984 9.533 9.533 0 0 0 4.704-1.168c.479-.242 1.395-.525 1.752.36l.962 2.112zm-13.215-8.763 6.619-.525c1.273-.082 2.47-.483 2.352-1.893-.163-1.492-1.635-2.418-3.468-2.377-3.01.119-4.925 2.217-5.503 4.795z"/><path fill="url(#d)" d="M75 69.07v10.593a1.092 1.092 0 0 1-.313.77 1.069 1.069 0 0 1-.762.316h-2.257a1.06 1.06 0 0 1-.761-.316 1.082 1.082 0 0 1-.313-.77V68.304c0-2.696-1.594-3.545-3.707-3.545-3.03 0-4.425 2.943-4.425 7.756v7.13a1.09 1.09 0 0 1-.313.77 1.069 1.069 0 0 1-.761.316H59.13a1.061 1.061 0 0 1-.76-.317 1.081 1.081 0 0 1-.314-.769v-11.36c0-2.695-1.594-3.544-3.707-3.544-2.591 0-4.424 2.418-4.424 6.73v8.174a1.095 1.095 0 0 1-.317.77 1.073 1.073 0 0 1-.762.316h-2.23a1.061 1.061 0 0 1-.762-.317 1.081 1.081 0 0 1-.313-.769V61.762a1.093 1.093 0 0 1 .313-.769 1.069 1.069 0 0 1 .761-.317c.718 0 2.312.12 3.111 2.938 1.192-2.176 3.865-3.102 5.54-3.102 3.187 0 5.3 1.332 6.32 3.586a6.855 6.855 0 0 1 2.588-2.673 6.762 6.762 0 0 1 3.589-.913C73.009 60.531 75 63.874 75 69.07z"/><path fill="url(#e)" d="M11.558 50.526H2.33c-.612 0-1.199.246-1.632.683a2.344 2.344 0 0 0-.675 1.648c0 .618.243 1.212.675 1.649.433.437 1.02.682 1.632.682h9.228a3.44 3.44 0 0 1 2.445 1.024 3.513 3.513 0 0 1 1.013 2.47c0 .928-.364 1.816-1.013 2.472a3.44 3.44 0 0 1-2.445 1.023H2.33c-.612 0-1.199.246-1.632.683a2.344 2.344 0 0 0-.675 1.648v6.994a2.352 2.352 0 0 0 .669 1.66 2.306 2.306 0 0 0 1.638.69 2.286 2.286 0 0 0 1.631-.683 2.334 2.334 0 0 0 .676-1.649v-4.68h6.92a8 8 0 0 0 3.09-.621c.98-.41 1.87-1.01 2.619-1.768a8.163 8.163 0 0 0 1.75-2.647 8.23 8.23 0 0 0 0-6.243c-.406-.99-1-1.888-1.75-2.646a8.066 8.066 0 0 0-2.619-1.768 8 8 0 0 0-3.09-.62z"/><path fill="url(#f)" d="M12.71 62.177H2.324c-.612 0-1.199.246-1.631.683a2.344 2.344 0 0 0-.676 1.648c0 .619.243 1.212.676 1.649.432.437 1.02.683 1.631.683H12.71a4.59 4.59 0 0 1 3.263 1.365 4.687 4.687 0 0 1 1.351 3.297 4.687 4.687 0 0 1-1.351 3.297 4.59 4.59 0 0 1-3.263 1.365H2.325c-.612 0-1.199.246-1.631.683a2.343 2.343 0 0 0-.676 1.649c0 .618.243 1.21.676 1.648.432.437 1.02.683 1.631.683H12.71a9.145 9.145 0 0 0 3.532-.71 9.223 9.223 0 0 0 2.994-2.021 9.332 9.332 0 0 0 2-3.026 9.408 9.408 0 0 0 0-7.136 9.333 9.333 0 0 0-2-3.025 9.223 9.223 0 0 0-2.994-2.022 9.145 9.145 0 0 0-3.532-.71z"/><path fill="url(#g)" d="m15.075 88.368-.262.593c-.13.296-.23.429-.492.429-.163 0-.375-.032-.637-.032-1.29 0-2.108 1.14-2.108 2.988v3.12c0 .121-.048.237-.132.323a.449.449 0 0 1-.32.133h-.902a.45.45 0 0 1-.32-.133.459.459 0 0 1-.132-.323v-7.33c0-.122.048-.238.132-.323a.449.449 0 0 1 .32-.134c.305.029.593.157.82.365.227.208.38.485.44.79a2.88 2.88 0 0 1 2.415-1.209c.274-.008.549.02.817.081.33.082.537.333.36.662z"/><path fill="url(#h)" d="M23.554 91.803a4.22 4.22 0 0 1-.695 2.33 4.154 4.154 0 0 1-1.86 1.547 4.105 4.105 0 0 1-2.396.24 4.132 4.132 0 0 1-2.125-1.147 4.201 4.201 0 0 1-1.134-2.146 4.228 4.228 0 0 1 .238-2.422 4.178 4.178 0 0 1 1.53-1.879 4.114 4.114 0 0 1 5.228.525 4.21 4.21 0 0 1 1.214 2.952zm-1.806 0a2.38 2.38 0 0 0-.44-1.286 2.341 2.341 0 0 0-1.068-.828 2.315 2.315 0 0 0-2.515.572 2.387 2.387 0 0 0-.466 2.563c.18.426.479.79.861 1.045.383.256.83.392 1.29.393a2.314 2.314 0 0 0 1.695-.721 2.361 2.361 0 0 0 .652-1.738h-.01z"/><path fill="url(#i)" d="M36.755 91.123v4.343a.458.458 0 0 1-.132.323.45.45 0 0 1-.32.133h-.902a.45.45 0 0 1-.32-.133.459.459 0 0 1-.132-.323v-4.653c0-1.109-.654-1.455-1.521-1.455-1.242 0-1.806 1.204-1.806 3.193v2.924a.459.459 0 0 1-.133.323.45.45 0 0 1-.319.134h-.903a.45.45 0 0 1-.319-.134.459.459 0 0 1-.132-.323v-4.653c0-1.108-.65-1.455-1.517-1.455-1.061 0-1.806.99-1.806 2.737v3.353a.458.458 0 0 1-.132.323.449.449 0 0 1-.32.133h-.903a.449.449 0 0 1-.319-.133.458.458 0 0 1-.132-.323v-7.322c0-.12.047-.237.132-.322a.449.449 0 0 1 .32-.134c.293 0 .948.046 1.273 1.204.243-.383.577-.7.97-.922a2.72 2.72 0 0 1 1.287-.35c1.31 0 2.172.547 2.6 1.468a2.802 2.802 0 0 1 1.06-1.095c.446-.26.954-.389 1.469-.373 2.14.013 2.957 1.382 2.957 3.512z"/><path fill="url(#j)" d="M46.164 91.803c.002.83-.24 1.64-.695 2.33a4.155 4.155 0 0 1-1.86 1.547 4.104 4.104 0 0 1-2.398.24 4.13 4.13 0 0 1-2.124-1.148 4.202 4.202 0 0 1-1.134-2.148 4.228 4.228 0 0 1 .24-2.422 4.179 4.179 0 0 1 1.533-1.878 4.114 4.114 0 0 1 5.226.528 4.21 4.21 0 0 1 1.212 2.951zm-1.806 0a2.379 2.379 0 0 0-.44-1.286 2.342 2.342 0 0 0-1.069-.828 2.317 2.317 0 0 0-2.516.574 2.386 2.386 0 0 0-.463 2.564c.18.426.48.79.864 1.044.383.256.831.391 1.29.39a2.314 2.314 0 0 0 1.692-.722 2.363 2.363 0 0 0 .651-1.736h-.009z"/><path fill="url(#k)" d="M52.272 95.234c.068.346-.08.428-.451.56a6.835 6.835 0 0 1-1.734.183c-1.806 0-2.533-1.154-2.533-3.152v-3.399h-.835a.45.45 0 0 1-.294-.134.459.459 0 0 1-.13-.3v-.87a.458.458 0 0 1 .424-.43h.867c-.05-.912.452-1.984 1.355-1.984a.45.45 0 0 1 .319.134.459.459 0 0 1 .132.322v1.538h2.158a.45.45 0 0 1 .424.429c0 .99-.799 1.304-1.747 1.304h-.835v3.746c0 .643.05 1.072.785 1.072.5-.03.998-.1 1.486-.215a.408.408 0 0 1 .451.333l.158.863z"/><path fill="url(#l)" d="M60.706 91.803c.002.83-.24 1.64-.695 2.33a4.154 4.154 0 0 1-1.86 1.547 4.105 4.105 0 0 1-2.396.24 4.132 4.132 0 0 1-2.124-1.147 4.201 4.201 0 0 1-1.135-2.146 4.229 4.229 0 0 1 .238-2.422 4.179 4.179 0 0 1 1.53-1.879 4.114 4.114 0 0 1 5.228.525 4.21 4.21 0 0 1 1.214 2.952zm-1.806 0a2.379 2.379 0 0 0-.44-1.286 2.342 2.342 0 0 0-1.067-.828 2.315 2.315 0 0 0-2.516.572 2.386 2.386 0 0 0-.466 2.563c.18.426.48.79.862 1.045.382.256.83.392 1.288.393a2.315 2.315 0 0 0 1.696-.721 2.364 2.364 0 0 0 .652-1.738H58.9z"/><path fill="url(#m)" d="m67.144 88.368-.262.593c-.13.296-.23.429-.492.429-.162 0-.374-.032-.636-.032-1.292 0-2.109 1.14-2.109 2.988v3.12c0 .121-.047.237-.132.323a.45.45 0 0 1-.32.133h-.902a.45.45 0 0 1-.32-.133.459.459 0 0 1-.132-.323v-7.33c0-.122.048-.238.133-.323a.449.449 0 0 1 .319-.134c.305.028.593.155.82.364.226.208.379.486.435.79a2.925 2.925 0 0 1 1.07-.916 2.891 2.891 0 0 1 1.368-.306c.275-.007.549.02.817.082a.45.45 0 0 1 .35.245.459.459 0 0 1-.007.43z"/><path fill="url(#n)" d="M75 88.135v7.331c0 .121-.048.237-.132.323a.449.449 0 0 1-.32.133h-.067c-.7 0-1.061-.497-1.206-1.204a3.02 3.02 0 0 1-1.093.938c-.434.22-.914.33-1.399.321-2.09 0-3.318-1.633-3.318-3.846 0-2.906 1.702-4.507 3.48-4.507a4.593 4.593 0 0 1 2.515.744c.083-.205.226-.38.41-.5.184-.122.4-.182.62-.175h.068a.45.45 0 0 1 .308.132c.083.082.13.193.134.31zm-1.806 2.988v-1.4a4.42 4.42 0 0 0-1.508-.36c-1.39 0-2.438.674-2.438 2.673 0 1.405.704 2.212 1.896 2.212s2.06-1.159 2.06-3.125h-.01z"/><path fill="url(#o)" d="M4.966 85.877H.993a.988.988 0 0 0-.702.294 1.01 1.01 0 0 0 0 1.42.988.988 0 0 0 .702.293h3.973c.395 0 .774.159 1.054.441a1.513 1.513 0 0 1 0 2.13c-.28.282-.659.44-1.054.44H.993a.988.988 0 0 0-.702.294c-.186.188-.291.444-.291.71v3.01c.001.266.106.521.292.709a.992.992 0 0 0 .701.295.988.988 0 0 0 .703-.294c.186-.188.29-.443.29-.71v-2.007h2.98c.922 0 1.807-.37 2.458-1.028a3.532 3.532 0 0 0 1.019-2.484c0-.932-.367-1.825-1.019-2.484a3.458 3.458 0 0 0-2.458-1.029z"/><defs><linearGradient id="a" x1="22.091" x2="51.748" y1="17.489" y2="17.489" gradientUnits="userSpaceOnUse"><stop stop-color="#5889FA"/><stop offset="1" stop-color="#2B3EA1"/></linearGradient><linearGradient id="b" x1="21.966" x2="55.227" y1="31.482" y2="31.482" gradientUnits="userSpaceOnUse"><stop stop-color="#FFBE2D"/><stop offset="1" stop-color="#FF6518"/></linearGradient><linearGradient id="c" x1=".018" x2="75" y1="65.735" y2="65.735" gradientUnits="userSpaceOnUse"><stop stop-color="#FFBE2D"/><stop offset="1" stop-color="#FF6518"/></linearGradient><linearGradient id="d" x1=".018" x2="75" y1="65.735" y2="65.735" gradientUnits="userSpaceOnUse"><stop stop-color="#FFBE2D"/><stop offset="1" stop-color="#FF6518"/></linearGradient><linearGradient id="e" x1=".018" x2="75" y1="65.735" y2="65.735" gradientUnits="userSpaceOnUse"><stop stop-color="#FFBE2D"/><stop offset="1" stop-color="#FF6518"/></linearGradient><linearGradient id="f" x1=".018" x2="75" y1="65.735" y2="65.735" gradientUnits="userSpaceOnUse"><stop stop-color="#FFBE2D"/><stop offset="1" stop-color="#FF6518"/></linearGradient><linearGradient id="g" x1="0" x2="75" y1="90.854" y2="90.854" gradientUnits="userSpaceOnUse"><stop stop-color="#5889FA"/><stop offset="1" stop-color="#2B3EA1"/></linearGradient><linearGradient id="h" x1="0" x2="75" y1="90.854" y2="90.854" gradientUnits="userSpaceOnUse"><stop stop-color="#5889FA"/><stop offset="1" stop-color="#2B3EA1"/></linearGradient><linearGradient id="i" x1="0" x2="75" y1="90.854" y2="90.854" gradientUnits="userSpaceOnUse"><stop stop-color="#5889FA"/><stop offset="1" stop-color="#2B3EA1"/></linearGradient><linearGradient id="j" x1="0" x2="75" y1="90.854" y2="90.854" gradientUnits="userSpaceOnUse"><stop stop-color="#5889FA"/><stop offset="1" stop-color="#2B3EA1"/></linearGradient><linearGradient id="k" x1="0" x2="75" y1="90.854" y2="90.854" gradientUnits="userSpaceOnUse"><stop stop-color="#5889FA"/><stop offset="1" stop-color="#2B3EA1"/></linearGradient><linearGradient id="l" x1="0" x2="75" y1="90.854" y2="90.854" gradientUnits="userSpaceOnUse"><stop stop-color="#5889FA"/><stop offset="1" stop-color="#2B3EA1"/></linearGradient><linearGradient id="m" x1="0" x2="75" y1="90.854" y2="90.854" gradientUnits="userSpaceOnUse"><stop stop-color="#5889FA"/><stop offset="1" stop-color="#2B3EA1"/></linearGradient><linearGradient id="n" x1="0" x2="75" y1="90.854" y2="90.854" gradientUnits="userSpaceOnUse"><stop stop-color="#5889FA"/><stop offset="1" stop-color="#2B3EA1"/></linearGradient><linearGradient id="o" x1="0" x2="75" y1="90.854" y2="90.854" gradientUnits="userSpaceOnUse"><stop stop-color="#5889FA"/><stop offset="1" stop-color="#2B3EA1"/></linearGradient></defs></svg>