<svg width="185" height="26" fill="none" xmlns="http://www.w3.org/2000/svg"><path d="M56.322 19.83c.16.39-.07.71-.485.856a8.402 8.402 0 0 1-3.776.821 5.878 5.878 0 0 1-2.28-.395 5.83 5.83 0 0 1-1.944-1.242 5.756 5.756 0 0 1-1.3-1.893 5.703 5.703 0 0 1-.453-2.245 5.606 5.606 0 0 1 .402-2.194 5.654 5.654 0 0 1 1.227-1.87 5.727 5.727 0 0 1 1.863-1.257 5.779 5.779 0 0 1 2.209-.447c2.236 0 3.962 1.006 4.446 2.85.714 2.622-1.267 3.739-3.845 3.897-1.406.09-2.652.206-3.525.274a3.305 3.305 0 0 0 1.26 1.562c.573.38 1.251.574 1.94.556a5.586 5.586 0 0 0 2.717-.659c.277-.137.809-.3 1.016.201l.528 1.185zm-7.643-4.967 3.824-.295c.74-.043 1.431-.274 1.362-1.07-.07-.795-.947-1.369-2.007-1.343-.764.02-1.498.3-2.077.794a3.273 3.273 0 0 0-1.102 1.914z" fill="url(#a)"/><path d="M75.13 14.795v5.99a.609.609 0 0 1-.187.428.622.622 0 0 1-.437.175H73.21a.623.623 0 0 1-.577-.38.608.608 0 0 1-.046-.236v-6.418c0-1.527-.922-2.002-2.141-2.002-1.752 0-2.557 1.66-2.557 4.394v4.043a.609.609 0 0 1-.182.421.622.622 0 0 1-.428.178h-1.297a.624.624 0 0 1-.577-.38.606.606 0 0 1-.046-.236v-6.418c0-1.527-.921-2.002-2.141-2.002-1.501 0-2.56 1.364-2.56 3.803v4.634a.609.609 0 0 1-.185.422.621.621 0 0 1-.43.177h-1.298a.625.625 0 0 1-.439-.181.611.611 0 0 1-.18-.436v-10.08a.604.604 0 0 1 .18-.435.62.62 0 0 1 .44-.18c.432 0 1.336.068 1.799 1.664.692-1.232 2.232-1.759 3.2-1.759 1.843 0 3.063.753 3.664 2.028a3.922 3.922 0 0 1 1.496-1.51 3.98 3.98 0 0 1 2.073-.518c3.001-.017 4.152 1.874 4.152 4.814z" fill="url(#b)"/><path d="M33.133 4.304c-.34.02-.661.167-.895.412a1.314 1.314 0 0 0 0 1.816c.234.245.554.393.895.412h5.334c.53 0 1.038.208 1.413.579.374.37.585.873.585 1.397 0 .525-.21 1.027-.586 1.398a2.01 2.01 0 0 1-1.412.579h-5.334a1.34 1.34 0 0 0-.936.389 1.31 1.31 0 0 0-.387.929v3.957c0 .35.14.685.39.932a1.34 1.34 0 0 0 1.884 0c.25-.247.39-.582.39-.932v-2.635h4.001a4.693 4.693 0 0 0 3.3-1.352 4.59 4.59 0 0 0 1.367-3.265 4.59 4.59 0 0 0-1.367-3.264 4.693 4.693 0 0 0-3.3-1.352h-5.342z" fill="url(#c)"/><path d="M39.133 10.897h-6a1.34 1.34 0 0 0-.936.389 1.31 1.31 0 0 0 .001 1.863 1.331 1.331 0 0 0 .944.388h6a2.68 2.68 0 0 1 1.883.772c.5.494.78 1.164.78 1.863 0 .7-.28 1.37-.78 1.864a2.68 2.68 0 0 1-1.884.772h-6.008c-.34.019-.661.166-.895.412a1.314 1.314 0 0 0 0 1.816c.234.245.554.392.895.412h6a5.363 5.363 0 0 0 3.77-1.546c1.001-.989 1.563-2.33 1.563-3.73 0-1.399-.562-2.74-1.562-3.73a5.363 5.363 0 0 0-3.771-1.545z" fill="url(#d)"/><path d="m98.421 11.017-.367.821c-.186.428-.325.595-.692.595-.23 0-.532-.047-.9-.047-1.825 0-2.976 1.575-2.976 4.133v4.313a.606.606 0 0 1-.384.57.625.625 0 0 1-.239.046h-1.297a.625.625 0 0 1-.577-.38.606.606 0 0 1-.046-.236v-10.14a.606.606 0 0 1 .384-.57.623.623 0 0 1 .239-.046c.968 0 1.682.958 1.777 1.6.39-.545.91-.986 1.514-1.285a4.137 4.137 0 0 1 1.947-.427c.387-.011.774.028 1.15.116.42.137.697.48.468.937z" fill="url(#e)"/><path d="M110.965 15.766a5.733 5.733 0 0 1-.981 3.22 5.842 5.842 0 0 1-2.625 2.138 5.914 5.914 0 0 1-3.385.333 5.871 5.871 0 0 1-2.999-1.585 5.765 5.765 0 0 1-1.603-2.967 5.73 5.73 0 0 1 .337-3.347 5.799 5.799 0 0 1 2.161-2.598 5.896 5.896 0 0 1 3.256-.97 5.878 5.878 0 0 1 4.126 1.694 5.75 5.75 0 0 1 1.713 4.082zm-2.539 0c0-.866-.347-1.696-.966-2.308a3.32 3.32 0 0 0-2.334-.957 3.32 3.32 0 0 0-2.334.957 3.246 3.246 0 0 0-.966 2.308 3.25 3.25 0 0 0 .904 2.419 3.306 3.306 0 0 0 2.396 1.017 3.317 3.317 0 0 0 2.396-1.017 3.265 3.265 0 0 0 .904-2.42z" fill="url(#f)"/><path d="M129.695 14.829v5.99a.62.62 0 0 1-.384.57.623.623 0 0 1-.239.046h-1.298a.623.623 0 0 1-.577-.38.618.618 0 0 1-.046-.236V14.4c0-1.531-.925-2.01-2.163-2.01-1.751 0-2.56 1.668-2.56 4.406v4.035a.618.618 0 0 1-.181.436.618.618 0 0 1-.442.18h-1.298a.625.625 0 0 1-.441-.18.61.61 0 0 1-.182-.436v-6.418c0-1.532-.921-2.01-2.162-2.01-1.501 0-2.561 1.368-2.561 3.811v4.617a.6.6 0 0 1-.181.436.618.618 0 0 1-.442.18h-1.297a.63.63 0 0 1-.442-.18.61.61 0 0 1-.181-.436v-10.14a.6.6 0 0 1 .181-.437.626.626 0 0 1 .442-.18c.432 0 1.336.07 1.799 1.67.692-1.233 2.241-1.76 3.209-1.76 1.847 0 3.067.754 3.668 2.033a3.929 3.929 0 0 1 1.499-1.515 3.98 3.98 0 0 1 2.079-.517c3.049.004 4.2 1.9 4.2 4.843z" fill="url(#g)"/><path d="M143.078 15.766a5.749 5.749 0 0 1-.981 3.22 5.839 5.839 0 0 1-2.626 2.138 5.912 5.912 0 0 1-3.384.333 5.87 5.87 0 0 1-3-1.585 5.768 5.768 0 0 1-1.602-2.967 5.722 5.722 0 0 1 .336-3.347 5.802 5.802 0 0 1 2.161-2.598 5.898 5.898 0 0 1 3.256-.97 5.882 5.882 0 0 1 4.127 1.694 5.758 5.758 0 0 1 1.713 4.082zm-2.539 0c0-.429-.086-.853-.252-1.25a3.271 3.271 0 0 0-1.786-1.766 3.33 3.33 0 0 0-3.596.708 3.258 3.258 0 0 0-.967 2.308 3.265 3.265 0 0 0 1.997 3.17 3.332 3.332 0 0 0 3.699-.751 3.261 3.261 0 0 0 .905-2.419z" fill="url(#h)"/><path d="M151.992 20.532c.091.48-.116.59-.622.774a9.763 9.763 0 0 1-2.449.253c-2.595 0-3.577-1.6-3.577-4.36v-4.706h-1.22a.612.612 0 0 1-.422-.177.596.596 0 0 1-.179-.418v-1.206a.596.596 0 0 1 .179-.418.612.612 0 0 1 .422-.177h1.22c-.069-1.254.623-2.738 1.895-2.738a.625.625 0 0 1 .441.18.61.61 0 0 1 .182.436v2.14h3.027a.612.612 0 0 1 .428.164.6.6 0 0 1 .191.413c0 1.369-1.129 1.805-2.47 1.805h-1.176v5.164c0 .89.069 1.48 1.107 1.48a12.475 12.475 0 0 0 2.102-.295.586.586 0 0 1 .428.095c.124.085.21.216.238.363l.255 1.228z" fill="url(#i)"/><path d="M164.376 15.766a5.744 5.744 0 0 1-.981 3.222 5.84 5.84 0 0 1-2.628 2.137 5.911 5.911 0 0 1-3.385.331 5.866 5.866 0 0 1-2.999-1.587 5.774 5.774 0 0 1-1.601-2.97 5.733 5.733 0 0 1 .34-3.347 5.801 5.801 0 0 1 2.165-2.596 5.896 5.896 0 0 1 3.258-.966 5.879 5.879 0 0 1 4.121 1.697 5.75 5.75 0 0 1 1.71 4.079zm-2.539 0c0-.866-.348-1.696-.967-2.308a3.316 3.316 0 0 0-2.333-.957c-.876 0-1.715.345-2.334.957a3.246 3.246 0 0 0-.967 2.308 3.261 3.261 0 0 0 .905 2.419 3.306 3.306 0 0 0 2.396 1.017 3.332 3.332 0 0 0 2.396-1.017 3.265 3.265 0 0 0 .904-2.42z" fill="url(#j)"/><path d="m173.736 11.017-.367.821c-.186.428-.325.595-.692.595-.234 0-.532-.047-.904-.047-1.821 0-2.976 1.575-2.976 4.133v4.313a.618.618 0 0 1-.181.436.618.618 0 0 1-.442.18h-1.298a.625.625 0 0 1-.441-.18.61.61 0 0 1-.182-.436v-10.14a.62.62 0 0 1 .384-.57.623.623 0 0 1 .239-.046c.969 0 1.687.958 1.778 1.6.388-.542.905-.98 1.504-1.279a4.15 4.15 0 0 1 1.935-.433c.388-.011.777.028 1.155.116.437.137.718.48.488.937z" fill="url(#k)"/><path d="M185 10.692v10.14a.637.637 0 0 1-.198.438.648.648 0 0 1-.451.178h-.091c-.99 0-1.501-.685-1.708-1.665a4.243 4.243 0 0 1-1.546 1.31 4.292 4.292 0 0 1-1.984.449c-2.954 0-4.684-2.26-4.684-5.318 0-4.018 2.4-6.234 4.913-6.234a6.592 6.592 0 0 1 3.556 1.027c.117-.284.319-.525.579-.693.26-.167.565-.252.874-.244h.091a.65.65 0 0 1 .45.176c.121.114.192.27.199.436zm-2.539 2.199a6.443 6.443 0 0 0-2.163-.505c-1.964 0-3.439.937-3.439 3.7 0 1.939.991 3.056 2.678 3.056 1.687 0 2.924-1.605 2.924-4.313v-1.938z" fill="url(#l)"/><path d="M84.835 4.304H79.42a1.372 1.372 0 0 0-1.01.365 1.345 1.345 0 0 0-.425.976 1.331 1.331 0 0 0 .425.977 1.36 1.36 0 0 0 1.01.365h5.415a2.053 2.053 0 0 1 1.498.554 2.01 2.01 0 0 1 .629 1.454 1.992 1.992 0 0 1-.63 1.455 2.038 2.038 0 0 1-1.497.554H79.42c-.36 0-.705.141-.96.392a1.337 1.337 0 0 0-.398.947v7.701c0 .357.143.698.397.95a1.366 1.366 0 0 0 1.918.002c.254-.252.397-.592.397-.947v-6.362h4.061a4.806 4.806 0 0 0 1.942-.235 4.77 4.77 0 0 0 1.681-.988c.486-.44.874-.976 1.139-1.573a4.663 4.663 0 0 0 0-3.787 4.708 4.708 0 0 0-1.138-1.573 4.77 4.77 0 0 0-1.682-.988 4.807 4.807 0 0 0-1.942-.235v-.004z" fill="url(#m)"/><path d="M26 12.859C26 5.757 20.18 0 13 0S0 5.757 0 12.859c0 7.101 5.82 12.859 13 12.859s13-5.758 13-12.86z" fill="url(#n)"/><path d="M15.057 10.829H8.884c-.362 0-.71.142-.968.395a1.349 1.349 0 0 0-.403.957c0 .36.145.704.402.959.257.254.606.397.97.397h6.172a2.752 2.752 0 0 1 1.865.83c.49.504.764 1.176.764 1.876s-.274 1.372-.764 1.877a2.752 2.752 0 0 1-1.865.83H8.884a1.384 1.384 0 0 0-1.019.368 1.357 1.357 0 0 0-.429.985 1.344 1.344 0 0 0 .43.986 1.375 1.375 0 0 0 1.018.368h6.173a5.504 5.504 0 0 0 3.772-1.638 5.386 5.386 0 0 0 1.55-3.776c0-1.41-.556-2.765-1.55-3.776a5.504 5.504 0 0 0-3.772-1.638z" fill="#fff"/><path d="M8.884 17.597a1.379 1.379 0 0 0 .972-.388 1.351 1.351 0 0 0 .408-.955v-2.041h-1.38a2.072 2.072 0 0 1-1.358-.526v2.567c.004.355.148.695.402.946s.597.394.956.397zM8.884 6.768h5.485c.4.003.79.121 1.123.34.332.219.593.529.75.892a2.012 2.012 0 0 1-.39 2.191 6.178 6.178 0 0 1 2.648.993 4.697 4.697 0 0 0 .018-4.744 4.762 4.762 0 0 0-1.752-1.74 4.829 4.829 0 0 0-2.397-.64H8.884a1.385 1.385 0 0 0-1.019.369 1.356 1.356 0 0 0-.429.985 1.344 1.344 0 0 0 .43.986 1.374 1.374 0 0 0 1.018.368z" fill="#fff"/><defs><linearGradient id="a" x1="31.81" y1="12.907" x2="75.129" y2="12.907" gradientUnits="userSpaceOnUse"><stop stop-color="#FFBE2D"/><stop offset="1" stop-color="#FF6518"/></linearGradient><linearGradient id="b" x1="31.81" y1="12.907" x2="75.129" y2="12.907" gradientUnits="userSpaceOnUse"><stop stop-color="#FFBE2D"/><stop offset="1" stop-color="#FF6518"/></linearGradient><linearGradient id="c" x1="31.81" y1="12.907" x2="75.129" y2="12.907" gradientUnits="userSpaceOnUse"><stop stop-color="#FFBE2D"/><stop offset="1" stop-color="#FF6518"/></linearGradient><linearGradient id="d" x1="31.81" y1="12.907" x2="75.129" y2="12.907" gradientUnits="userSpaceOnUse"><stop stop-color="#FFBE2D"/><stop offset="1" stop-color="#FF6518"/></linearGradient><linearGradient id="e" x1="77.985" y1="12.929" x2="185" y2="12.929" gradientUnits="userSpaceOnUse"><stop stop-color="#5889FA"/><stop offset="1" stop-color="#2B3EA1"/></linearGradient><linearGradient id="f" x1="77.985" y1="12.929" x2="185" y2="12.929" gradientUnits="userSpaceOnUse"><stop stop-color="#5889FA"/><stop offset="1" stop-color="#2B3EA1"/></linearGradient><linearGradient id="g" x1="77.985" y1="12.929" x2="185" y2="12.929" gradientUnits="userSpaceOnUse"><stop stop-color="#5889FA"/><stop offset="1" stop-color="#2B3EA1"/></linearGradient><linearGradient id="h" x1="77.985" y1="12.929" x2="185" y2="12.929" gradientUnits="userSpaceOnUse"><stop stop-color="#5889FA"/><stop offset="1" stop-color="#2B3EA1"/></linearGradient><linearGradient id="i" x1="77.985" y1="12.929" x2="185" y2="12.929" gradientUnits="userSpaceOnUse"><stop stop-color="#5889FA"/><stop offset="1" stop-color="#2B3EA1"/></linearGradient><linearGradient id="j" x1="77.985" y1="12.929" x2="185" y2="12.929" gradientUnits="userSpaceOnUse"><stop stop-color="#5889FA"/><stop offset="1" stop-color="#2B3EA1"/></linearGradient><linearGradient id="k" x1="77.985" y1="12.929" x2="185" y2="12.929" gradientUnits="userSpaceOnUse"><stop stop-color="#5889FA"/><stop offset="1" stop-color="#2B3EA1"/></linearGradient><linearGradient id="l" x1="77.985" y1="12.929" x2="185" y2="12.929" gradientUnits="userSpaceOnUse"><stop stop-color="#5889FA"/><stop offset="1" stop-color="#2B3EA1"/></linearGradient><linearGradient id="m" x1="77.985" y1="12.929" x2="185" y2="12.929" gradientUnits="userSpaceOnUse"><stop stop-color="#5889FA"/><stop offset="1" stop-color="#2B3EA1"/></linearGradient><linearGradient id="n" x1="0" y1="12.859" x2="26" y2="12.859" gradientUnits="userSpaceOnUse"><stop stop-color="#FFBE2D"/><stop offset="1" stop-color="#FF6518"/></linearGradient></defs></svg>