<svg xmlns="http://www.w3.org/2000/svg" fill="none" viewBox="0 0 68 67"><path fill="#FAFAFA" d="M67.003 33.077c0 18.265-14.935 33.075-33.358 33.075a33.432 33.432 0 0 1-15.524-3.793 1.642 1.642 0 0 0-1.251-.116L2.138 66.921c-1.281.405-2.48-.816-2.048-2.088l4.733-13.952a1.644 1.644 0 0 0-.126-1.352A32.71 32.71 0 0 1 .284 33.077C.287 14.808 15.22 0 33.645 0c18.423 0 33.358 14.808 33.358 33.077z"/><path fill="#69AF1A" d="M61.69 33.077c0 15.333-12.582 27.807-28.045 27.807a28.04 28.04 0 0 1-14.815-4.206 1.626 1.626 0 0 0-1.345-.16l-6.958 2.207c-1.282.406-2.48-.816-2.048-2.087l2.193-6.468a1.629 1.629 0 0 0-.2-1.45A27.493 27.493 0 0 1 5.6 33.075c0-15.338 12.579-27.81 28.048-27.81 15.46.003 28.044 12.477 28.044 27.812z"/><path fill="#FAFAFA" d="M47.942 39.75c-.819-.405-4.84-2.367-5.59-2.637-.748-.27-1.298-.406-1.84.405-.546.812-2.112 2.638-2.592 3.179-.475.543-.952.607-1.768.201-.82-.405-3.456-1.264-6.578-4.022-2.428-2.152-4.071-4.804-4.55-5.615-.475-.811-.048-1.248.358-1.653.368-.366.819-.947 1.227-1.419.41-.474.546-.816.82-1.356.272-.541.137-1.013-.07-1.419-.202-.405-1.84-4.395-2.52-6.02-.677-1.62-1.36-1.56-1.84-1.56-.475 0-1.358.142-1.358.142s-1.64.201-2.388 1.012c-.748.812-2.86 2.773-2.86 6.76 0 3.99 2.926 7.847 3.337 8.386.41.543 5.654 8.996 13.97 12.241 8.313 3.245 8.313 2.164 9.813 2.026 1.498-.133 4.837-1.96 5.519-3.854.68-1.893.68-3.518.48-3.855-.21-.334-.756-.536-1.57-.942z"/></svg>