<svg xmlns="http://www.w3.org/2000/svg" fill="none" viewBox="0 0 90 90"><circle cx="45" cy="45" r="45" fill="#fff"/><path fill="#212121" d="M61.78 47.001c.089 9.685 8.352 12.908 8.444 12.95-.07.227-1.32 4.593-4.354 9.102-2.622 3.899-5.343 7.783-9.63 7.864-4.212.079-5.567-2.541-10.383-2.541-4.814 0-6.319 2.46-10.306 2.62-4.138.16-7.29-4.216-9.933-8.1-5.402-7.946-9.53-22.453-3.987-32.246 2.754-4.863 7.675-7.942 13.017-8.021 4.063-.08 7.898 2.78 10.383 2.78 2.482 0 7.143-3.439 12.042-2.934 2.051.087 7.81.843 11.506 6.349-.298.188-6.87 4.08-6.798 12.177zM53.865 23.22c2.197-2.706 3.676-6.472 3.272-10.219-3.166.13-6.996 2.147-9.267 4.85-2.035 2.395-3.818 6.227-3.337 9.9 3.53.278 7.135-1.824 9.332-4.531"/></svg>