<svg width="58" height="61" viewBox="0 0 58 61" fill="none" xmlns="http://www.w3.org/2000/svg">
<path d="M43.2127 29.6196V30.8534C43.2127 32.6207 42.6539 34.3427 41.6147 35.7782L39.0159 39.3724V58.3218C39.0159 59.2973 38.2178 60.0882 37.2332 60.0882H18.7029C17.7185 60.0882 16.9203 59.2974 16.9203 58.3218V45.5454V16.5225H43.2127V29.6196Z" fill="#FED2A4"/>
<path d="M43.2127 17.7682V16.5225H18.8664H16.9203V45.5454V58.3217C16.9203 59.2973 17.7183 60.0881 18.7029 60.0881H25.6662C25.615 59.9235 25.5872 59.7487 25.5872 59.5674V47.5704C27.7471 46.2746 29.194 43.9236 29.194 41.2437V37.6874C29.194 34.702 28.0213 31.8958 25.8909 29.7847C25.7915 29.6864 25.6899 29.5906 25.5872 29.4962V17.7682H43.2127Z" fill="#FFBD86"/>
<path d="M55.775 2.85107C56.5042 2.85107 57.0955 3.43687 57.0955 4.15953V28.1879C57.0955 28.9104 56.5043 29.4962 55.775 29.4962H2.22232C1.49314 29.4962 0.901978 28.9104 0.901978 28.1879V4.15953C0.901978 3.43687 1.49314 2.85107 2.22232 2.85107H55.775Z" fill="#97DA7B"/>
<path d="M13.1705 28.1879V4.15953C13.1705 3.43687 13.7617 2.85107 14.4909 2.85107H2.22232C1.49314 2.85107 0.901978 3.43687 0.901978 4.15953V28.1879C0.901978 28.9104 1.49314 29.4962 2.22232 29.4962H14.4909C13.7617 29.4962 13.1705 28.9104 13.1705 28.1879Z" fill="#80D261"/>
<path d="M19.0235 16.6732C17.7966 15.4551 16.1638 14.7842 14.4261 14.7842C14.3819 14.7842 14.3372 14.7847 14.2926 14.7855C10.7825 14.8563 7.92688 17.7758 7.92688 21.2935V29.4961H25.5847C24.3278 28.3418 22.8213 27.4875 21.1954 26.9963C21.0361 26.9482 20.9256 26.8049 20.9256 26.6399V21.2244C20.9256 19.5027 20.2487 17.8849 19.0235 16.6732Z" fill="#80D261"/>
<path d="M50.8371 6.43115C50.8371 7.87863 52.0213 9.05201 53.482 9.05201V23.2956C52.0213 23.2956 50.8371 24.469 50.8371 25.9165H7.15894C7.15894 24.469 5.9748 23.2956 4.51404 23.2956V9.05201C5.9748 9.05201 7.15894 7.87863 7.15894 6.43115H50.8371Z" fill="#DBF1D0"/>
<path d="M19.0241 16.6735C17.7972 15.4554 16.1644 14.7845 14.4267 14.7845C14.3825 14.7845 14.3378 14.785 14.2932 14.7858C14.2893 14.786 14.2855 14.786 14.2816 14.7861C13.6744 14.7994 13.1697 14.3287 13.1697 13.7268V6.43115H7.15894C7.15894 7.87863 5.9748 9.05201 4.51404 9.05201V23.2956C5.9748 23.2956 7.15894 24.469 7.15894 25.9165H20.9262V21.2248C20.9262 19.5031 20.2493 17.8852 19.0241 16.6735Z" fill="#D5EFC8"/>
<path d="M29.007 22.5861C32.8954 22.5861 36.0476 19.4626 36.0476 15.6095C36.0476 11.7564 32.8954 8.63281 29.007 8.63281C25.1185 8.63281 21.9663 11.7564 21.9663 15.6095C21.9663 19.4626 25.1185 22.5861 29.007 22.5861Z" fill="#97DA7B"/>
<path d="M39.8179 2.9277V6.43005C39.8179 8.08636 38.4619 9.42882 36.7904 9.42882C35.1189 9.42882 33.7642 8.08636 33.7642 6.43005V2.9277C33.7642 1.80481 34.683 0.895508 35.8162 0.895508H37.7659C38.8991 0.895508 39.8179 1.80481 39.8179 2.9277Z" fill="#FED2A4"/>
<path d="M33.764 6.43005V7.67109C33.764 9.32739 32.4092 10.6699 30.7377 10.6699C29.0662 10.6699 27.7114 9.32739 27.7114 7.67109V2.9277C27.7114 1.80481 28.6291 0.895508 29.7623 0.895508H31.7132C32.8463 0.895508 33.764 1.80481 33.764 2.9277V6.43005Z" fill="#FED2A4"/>
<path d="M27.7125 7.67109V8.68181C27.7125 10.3381 26.3565 11.6806 24.685 11.6806C23.0135 11.6806 21.6587 10.3381 21.6587 8.68181V7.67109V2.9277C21.6587 1.80481 22.5775 0.895508 23.7107 0.895508H25.6604C26.7936 0.895508 27.7125 1.80481 27.7125 2.9277V7.67109Z" fill="#FED2A4"/>
<path d="M21.6582 2.9277V7.67109C21.6582 9.32739 20.3034 10.6699 18.6319 10.6699C16.9604 10.6699 15.6056 9.32739 15.6056 7.67109V2.9277C15.6056 1.80481 16.5232 0.895508 17.6564 0.895508H19.6073C20.7405 0.895508 21.6582 1.80481 21.6582 2.9277Z" fill="#FED2A4"/>
<path d="M36.6772 6.43005V2.9277C36.6772 1.96948 37.3521 1.16782 38.2525 0.952906C38.0978 0.915913 37.9321 0.895508 37.7659 0.895508H35.8162C34.683 0.895508 33.7642 1.80481 33.7642 2.9277V6.43005C33.7642 8.08636 35.1189 9.42882 36.7904 9.42882C37.3185 9.42882 37.8149 9.29458 38.2471 9.05902C37.3114 8.549 36.6772 7.56309 36.6772 6.43005Z" fill="#FFBD86"/>
<path d="M30.6245 7.67109V2.9277C30.6245 1.96936 31.2986 1.16746 32.1991 0.952786C32.0446 0.915913 31.8792 0.895508 31.7132 0.895508H29.7623C28.6291 0.895508 27.7114 1.80481 27.7114 2.9277V7.67109C27.7114 9.32739 29.0662 10.6699 30.7377 10.6699C31.2658 10.6699 31.762 10.5356 32.1942 10.2999C31.2587 9.78992 30.6245 8.80401 30.6245 7.67109Z" fill="#FFBD86"/>
<path d="M24.5718 8.68181V7.67109V2.9277C24.5718 1.96948 25.2482 1.16818 26.1486 0.953383C25.9939 0.916391 25.8266 0.895508 25.6604 0.895508H23.7107C22.5775 0.895508 21.6587 1.80481 21.6587 2.9277V7.67109V8.68181C21.6587 10.3381 23.0135 11.6806 24.685 11.6806C25.213 11.6806 25.7094 11.5463 26.1416 11.3108C25.2059 10.8008 24.5718 9.81486 24.5718 8.68181Z" fill="#FFBD86"/>
<path d="M18.5187 7.67109V2.9277C18.5187 1.96936 19.1932 1.16758 20.0936 0.952906C19.9391 0.916033 19.7734 0.895508 19.6073 0.895508H17.6564C16.5232 0.895508 15.6056 1.80481 15.6056 2.9277V7.67109C15.6056 9.32739 16.9604 10.6699 18.6319 10.6699C19.1599 10.6699 19.6563 10.5356 20.0884 10.2999C19.1528 9.78992 18.5187 8.80401 18.5187 7.67109Z" fill="#FFBD86"/>
<path d="M26.1809 41.2436C26.1809 43.7156 24.1291 45.7041 21.635 45.6491L16.9178 45.5452L12.786 41.451C11.6022 40.278 10.9375 38.6873 10.9375 37.0298V21.2937C10.9375 19.4009 12.4439 17.8067 14.3537 17.7683C15.3458 17.7484 16.2457 18.1385 16.8925 18.7807C17.5248 19.406 17.9149 20.2699 17.9149 21.2246V28.5949C17.9149 29.0832 18.2883 29.4904 18.7785 29.5407C20.7159 29.74 22.4548 30.6024 23.7604 31.8951C25.2561 33.3772 26.1809 35.4249 26.1809 37.6874V41.2436Z" fill="#FED2A4"/>
<path d="M21.0722 45.0411L21.0733 45.0401L17.4513 41.451C16.2675 40.278 15.6028 38.6873 15.6028 37.0298V21.2937C15.6028 20.2603 16.0524 19.3166 16.771 18.6658C16.1353 18.0924 15.2852 17.7496 14.3537 17.7683C12.4439 17.8067 10.9375 19.4009 10.9375 21.2937V37.0299C10.9375 38.6874 11.6022 40.2781 12.786 41.4511L16.9178 45.5453L21.635 45.6493C21.652 45.6496 21.6687 45.6488 21.6856 45.649L21.0722 45.0411Z" fill="#FFBD86"/>
<path d="M55.7762 1.95594H51.827C51.3281 1.95594 50.9238 2.35654 50.9238 2.85092C50.9238 3.34531 51.3281 3.7459 51.827 3.7459H55.7762C56.0062 3.7459 56.1935 3.93134 56.1935 4.15926V28.1876C56.1935 28.4155 56.0062 28.601 55.7762 28.601H18.8203V26.8111H43.2123C43.7112 26.8111 44.1155 26.4106 44.1155 25.9162C44.1155 25.4218 43.7112 25.0212 43.2123 25.0212H18.8203V21.2247C18.8203 18.8253 16.8502 16.8731 14.4286 16.8731C12.0072 16.8731 10.0371 18.8252 10.0371 21.2247V25.0212H7.94758C7.62303 23.8006 6.65096 22.8373 5.41913 22.5157V16.1567C5.41913 15.6624 5.01486 15.2618 4.51594 15.2618C4.01702 15.2618 3.61275 15.6624 3.61275 16.1567V23.2953C3.61275 23.7897 4.01702 24.1903 4.51594 24.1903C5.47633 24.1903 6.25765 24.9645 6.25765 25.9162C6.25765 26.4106 6.66192 26.8111 7.16084 26.8111H10.0372V28.601H2.22353C1.99352 28.601 1.80638 28.4155 1.80638 28.1876V4.15914C1.80638 3.93122 1.99352 3.74578 2.22353 3.74578H14.7016V5.53574H7.16084C6.66192 5.53574 6.25765 5.93633 6.25765 6.43071C6.25765 7.38237 5.47633 8.15659 4.51594 8.15659C4.01702 8.15659 3.61275 8.55718 3.61275 9.05157V12.3425C3.61275 12.8368 4.01702 13.2374 4.51594 13.2374C5.01486 13.2374 5.41913 12.8368 5.41913 12.3425V9.83127C6.65096 9.50968 7.62303 8.54644 7.94758 7.32581H14.7016V7.6708C14.7016 9.81791 16.4645 11.5648 18.6315 11.5648C19.6366 11.5648 20.5544 11.1885 21.2501 10.5711C21.9221 11.7656 23.2094 12.5758 24.6847 12.5758C26.16 12.5758 27.4474 11.7656 28.1193 10.5711C28.815 11.1884 29.7327 11.5648 30.7379 11.5648C32.2772 11.5648 33.6119 10.6828 34.2564 9.40252C34.9412 9.97686 35.8258 10.3242 36.7911 10.3242C38.6468 10.3242 40.2053 9.04262 40.6147 7.32593H50.0524C50.377 8.54656 51.349 9.5098 52.5809 9.83139V22.5159C51.349 22.8374 50.377 23.8007 50.0524 25.0213H47.0614C46.5625 25.0213 46.1582 25.4219 46.1582 25.9163C46.1582 26.4107 46.5625 26.8113 47.0614 26.8113H50.8392C51.3381 26.8113 51.7423 26.4107 51.7423 25.9163C51.7423 24.9646 52.5237 24.1904 53.4841 24.1904C53.983 24.1904 54.3872 23.7898 54.3872 23.2954V9.05169C54.3872 8.5573 53.983 8.15671 53.4841 8.15671C52.5237 8.15671 51.7423 7.38249 51.7423 6.43083C51.7423 5.93645 51.3381 5.53586 50.8392 5.53586H40.7209V3.7459H47.9781C48.477 3.7459 48.8813 3.34531 48.8813 2.85092C48.8813 2.35654 48.477 1.95594 47.9781 1.95594H40.5529C40.1473 0.817891 39.0517 0 37.7662 0H35.8156C35.0194 0 34.2962 0.314316 33.7644 0.823618C33.2326 0.314316 32.5094 0 31.7131 0H29.7626C28.9663 0 28.2431 0.314316 27.7113 0.823618C27.1794 0.314316 26.4562 0 25.6598 0H23.7094C22.9132 0 22.1899 0.314316 21.6581 0.823618C21.1262 0.314316 20.403 0 19.6068 0H17.6563C16.3708 0 15.2751 0.817891 14.8697 1.95594H2.22353C0.997481 1.95594 0 2.94436 0 4.15926V28.1876C0 29.4025 0.997481 30.3909 2.22353 30.3909H10.0372V37.0292C10.0372 38.9385 10.7874 40.7334 12.1498 42.0834L16.0173 45.9156V60.0874C16.0173 60.5818 16.4215 60.9824 16.9205 60.9824C17.4194 60.9824 17.8236 60.5818 17.8236 60.0874V45.5449C17.8236 45.3076 17.7285 45.08 17.5592 44.912L13.4272 40.8176C12.406 39.8058 11.8436 38.4602 11.8436 37.0291V21.2246C11.8436 19.8121 13.0033 18.6629 14.4287 18.6629C15.8542 18.6629 17.014 19.8121 17.014 21.2246V29.496C17.014 29.9904 17.4183 30.3909 17.9172 30.3909C21.9776 30.3909 25.2809 33.6643 25.2809 37.6876V38.261C25.2809 38.7554 25.6851 39.156 26.184 39.156C26.683 39.156 27.0872 38.7554 27.0872 38.261V37.6876C27.0872 34.7012 25.6247 32.0481 23.3732 30.3908H42.3091V30.8532C42.3091 32.4422 41.8152 33.965 40.8811 35.2565L38.2813 38.8507C38.1714 39.0027 38.1123 39.1851 38.1123 39.3721V60.0873C38.1123 60.5816 38.5165 60.9822 39.0155 60.9822C39.5144 60.9822 39.9186 60.5816 39.9186 60.0873V39.6599L42.3493 36.2995C43.5049 34.702 44.1156 32.8188 44.1156 30.8533V30.3909H55.7764C57.0025 30.3909 58 29.4025 58 28.1876V4.15914C57.9999 2.94436 57.0024 1.95594 55.7762 1.95594ZM35.8156 1.78996H37.7662C38.3992 1.78996 38.9143 2.30033 38.9143 2.92765V6.43C38.9143 7.59025 37.9617 8.53415 36.7908 8.53415C35.6199 8.53415 34.6675 7.59025 34.6675 6.43V2.92765C34.6676 2.30033 35.1826 1.78996 35.8156 1.78996ZM29.7626 1.78996H31.7131C32.3462 1.78996 32.8613 2.30033 32.8613 2.92765V7.67068C32.8613 8.83092 31.9087 9.77471 30.7378 9.77471C29.5669 9.77471 28.6143 8.83092 28.6143 7.67068V2.92765C28.6143 2.30033 29.1295 1.78996 29.7626 1.78996ZM23.7094 1.78996H25.6598C26.2929 1.78996 26.808 2.30033 26.808 2.92765V8.68176C26.808 9.84201 25.8555 10.7858 24.6846 10.7858H24.6845C23.5136 10.7858 22.5612 9.84201 22.5612 8.68176V2.92765C22.5613 2.30033 23.0763 1.78996 23.7094 1.78996ZM16.508 2.92765C16.508 2.30033 17.0231 1.78996 17.6561 1.78996H19.6067C20.2397 1.78996 20.7548 2.30033 20.7548 2.92765V7.67068C20.7548 8.83092 19.8022 9.77471 18.6313 9.77471C17.4604 9.77471 16.5079 8.83092 16.5079 7.67068V2.92765H16.508Z" fill="black"/>
<path d="M22.1869 13.6551C21.6951 13.5799 21.2328 13.9151 21.1569 14.4037C21.0954 14.8005 21.0641 15.2061 21.0641 15.609C21.0641 19.9494 24.6277 23.4807 29.0079 23.4807C33.3882 23.4807 36.9518 19.9494 36.9518 15.609C36.9518 14.873 36.8471 14.1397 36.6407 13.4291C36.5027 12.9539 36.0012 12.6794 35.5231 12.8166C35.0438 12.9533 34.7669 13.4492 34.9049 13.9241C35.0645 14.4736 35.1454 15.0404 35.1454 15.6089C35.1454 18.9625 32.3922 21.6906 29.0079 21.6906C25.6236 21.6906 22.8705 18.9625 22.8705 15.6089C22.8705 15.2968 22.8946 14.9828 22.9424 14.6756C23.0183 14.1872 22.6801 13.7303 22.1869 13.6551Z" fill="black"/>
</svg>
