<svg width="59" height="59" viewBox="0 0 59 59" fill="none" xmlns="http://www.w3.org/2000/svg">
<path d="M54.4924 52.6758H29.0627C28.581 52.6758 28.119 52.4844 27.7784 52.1438C27.4377 51.8031 27.2463 51.3411 27.2463 50.8594V47.2266C27.2463 46.7448 27.4377 46.2828 27.7784 45.9422C28.119 45.6015 28.581 45.4102 29.0627 45.4102H33.6038L37.0549 41.2678C37.3959 40.8588 37.8226 40.5296 38.3049 40.3038C38.7872 40.0779 39.3133 39.9609 39.8458 39.9609H50.0668C50.5993 39.9609 51.1254 40.0779 51.6077 40.3038C52.09 40.5296 52.5167 40.8588 52.8577 41.2678L55.8883 44.9052C56.1601 45.2316 56.3089 45.6429 56.3088 46.0677V50.8594C56.3088 51.3411 56.1175 51.8031 55.7768 52.1438C55.4362 52.4844 54.9742 52.6758 54.4924 52.6758Z" fill="#B52F28"/>
<path d="M53.5842 49.043V44.2513C53.584 43.8264 53.4349 43.4151 53.1628 43.0888L50.6062 40.0209C50.4282 39.9872 50.2478 39.9671 50.0668 39.9609H39.8458C39.3133 39.9609 38.7872 40.0779 38.3049 40.3038C37.8226 40.5296 37.3959 40.8588 37.0549 41.2678L33.6038 45.4102H29.0627C28.581 45.4102 28.119 45.6015 27.7784 45.9422C27.4377 46.2828 27.2463 46.7448 27.2463 47.2266V50.8594H51.7678C52.2496 50.8594 52.7116 50.668 53.0522 50.3274C53.3929 49.9867 53.5842 49.5247 53.5842 49.043Z" fill="#D23F34"/>
<path d="M43.5935 39.9609V43.5938C43.5935 44.0755 43.4021 44.5375 43.0615 44.8781C42.7209 45.2188 42.2588 45.4102 41.7771 45.4102H33.6033L37.0544 41.2678C37.3954 40.8588 37.8222 40.5296 38.3045 40.3038C38.7867 40.0779 39.3128 39.9609 39.8454 39.9609H43.5935Z" fill="#C0DAFC"/>
<path d="M41.7773 39.9609H39.8455C39.313 39.9609 38.7869 40.0779 38.3046 40.3038C37.8223 40.5296 37.3956 40.8588 37.0546 41.2678L35.1174 43.5938H39.9609C40.4426 43.5938 40.9046 43.4024 41.2453 43.0617C41.5859 42.7211 41.7773 42.2591 41.7773 41.7773V39.9609Z" fill="#F7FAFD"/>
<path d="M27.2461 50.8594H3.63281V47.2266H27.2479" fill="#4C6CB5"/>
<path d="M25.4297 48.1348V47.2266H3.63281V49.043H24.5215C24.7624 49.043 24.9934 48.9473 25.1637 48.777C25.334 48.6066 25.4297 48.3756 25.4297 48.1348Z" fill="#5576B7"/>
<path d="M29.0625 45.4102V37.2363C29.0625 36.032 28.5841 34.877 27.7325 34.0253C26.8809 33.1737 25.7258 32.6953 24.5215 32.6953C23.3171 32.6953 22.1621 33.1737 21.3105 34.0253C20.4589 34.877 19.9805 36.032 19.9805 37.2363V47.2266H27.2461C27.2461 46.7448 27.4375 46.2828 27.7781 45.9422C28.1188 45.6015 28.5808 45.4102 29.0625 45.4102Z" fill="#5E87CA"/>
<path d="M24.5215 6.35742L44.502 20.8887L47.2266 18.1641L24.5215 1.81641L1.81641 18.1641L4.54102 20.8887L24.5215 6.35742Z" fill="#5E87CA"/>
<path d="M36.3281 56.3086C38.3345 56.3086 39.9609 54.6821 39.9609 52.6758C39.9609 50.6694 38.3345 49.043 36.3281 49.043C34.3218 49.043 32.6953 50.6694 32.6953 52.6758C32.6953 54.6821 34.3218 56.3086 36.3281 56.3086Z" fill="#474747"/>
<path d="M49.043 56.3086C51.0493 56.3086 52.6758 54.6821 52.6758 52.6758C52.6758 50.6694 51.0493 49.043 49.043 49.043C47.0366 49.043 45.4102 50.6694 45.4102 52.6758C45.4102 54.6821 47.0366 56.3086 49.043 56.3086Z" fill="#474747"/>
<path d="M49.0434 49.043C48.3798 49.042 47.7286 49.2231 47.1608 49.5665C46.593 49.9099 46.1303 50.4025 45.823 50.9906C45.5157 51.5788 45.3756 52.24 45.4181 52.9022C45.4605 53.5644 45.6838 54.2023 46.0636 54.7465C46.7621 55.2346 47.6101 55.4611 48.459 55.3865C49.3078 55.3118 50.1033 54.9407 50.7059 54.3382C51.3085 53.7357 51.6798 52.9403 51.7546 52.0915C51.8294 51.2426 51.6029 50.3946 51.115 49.696C50.5078 49.2709 49.7846 49.0429 49.0434 49.043Z" fill="#545454"/>
<path d="M36.3285 49.043C35.6649 49.042 35.0138 49.2231 34.446 49.5665C33.8782 49.9099 33.4154 50.4025 33.1081 50.9906C32.8009 51.5788 32.6608 52.24 32.7032 52.9022C32.7456 53.5644 32.9689 54.2023 33.3487 54.7465C34.0472 55.2346 34.8953 55.4611 35.7441 55.3865C36.593 55.3118 37.3885 54.9407 37.9911 54.3382C38.5937 53.7357 38.9649 52.9403 39.0397 52.0915C39.1145 51.2426 38.8881 50.3946 38.4001 49.696C37.793 49.2709 37.0697 49.0429 36.3285 49.043Z" fill="#545454"/>
<path d="M24.5215 32.6953C24.2165 32.6949 23.9122 32.7254 23.6133 32.7861V47.2266H25.4297V32.7861C25.1308 32.7254 24.8265 32.6949 24.5215 32.6953Z" fill="#3B5892"/>
<path d="M10.8984 29.0625H16.3477V36.3281H10.8984V29.0625Z" fill="#78A0D4"/>
<path d="M32.6953 29.0625H38.1445V36.3281H32.6953V29.0625Z" fill="#78A0D4"/>
<path d="M36.3281 33.6035V29.0625H32.6953V34.5117H35.4199C35.6608 34.5117 35.8918 34.416 36.0621 34.2457C36.2324 34.0754 36.3281 33.8444 36.3281 33.6035Z" fill="#86B1E0"/>
<path d="M14.5312 33.6035V29.0625H10.8984V34.5117H13.623C13.8639 34.5117 14.0949 34.416 14.2652 34.2457C14.4356 34.0754 14.5312 33.8444 14.5312 33.6035Z" fill="#86B1E0"/>
<path d="M50.8594 1.81641V7.26563H56.3086" fill="#9DA1BF"/>
<path d="M37.2363 4.54102H48.1348V6.35742H37.2363V4.54102Z" fill="#9DA1BF"/>
<path d="M42.6855 9.99023H53.584V11.8066H42.6855V9.99023Z" fill="#9DA1BF"/>
<path d="M46.3184 13.623H53.584V15.4395H46.3184V13.623Z" fill="#9DA1BF"/>
<path d="M44.502 29.9707H53.584V31.7871H44.502V29.9707Z" fill="#9DA1BF"/>
<path d="M44.502 26.3379H53.584V28.1543H44.502V26.3379Z" fill="#9DA1BF"/>
<path d="M16.3479 28.1543H10.8987C10.6578 28.1543 10.4268 28.25 10.2565 28.4203C10.0862 28.5906 9.99048 28.8216 9.99048 29.0625V36.3281C9.99048 36.569 10.0862 36.8 10.2565 36.9703C10.4268 37.1406 10.6578 37.2363 10.8987 37.2363H16.3479C16.5888 37.2363 16.8198 37.1406 16.9901 36.9703C17.1604 36.8 17.2561 36.569 17.2561 36.3281V29.0625C17.2561 28.8216 17.1604 28.5906 16.9901 28.4203C16.8198 28.25 16.5888 28.1543 16.3479 28.1543ZM15.4397 35.4199H11.8069V29.9707H15.4397V35.4199Z" fill="black"/>
<path d="M38.1445 28.1543H32.6953C32.4544 28.1543 32.2234 28.25 32.0531 28.4203C31.8828 28.5906 31.7871 28.8216 31.7871 29.0625V36.3281C31.7871 36.569 31.8828 36.8 32.0531 36.9703C32.2234 37.1406 32.4544 37.2363 32.6953 37.2363H38.1445C38.3854 37.2363 38.6164 37.1406 38.7867 36.9703C38.9571 36.8 39.0527 36.569 39.0527 36.3281V29.0625C39.0527 28.8216 38.9571 28.5906 38.7867 28.4203C38.6164 28.25 38.3854 28.1543 38.1445 28.1543ZM37.2363 35.4199H33.6035V29.9707H37.2363V35.4199Z" fill="black"/>
<path d="M56.3086 37.2366C56.5495 37.2366 56.7805 37.1409 56.9508 36.9705C57.1211 36.8002 57.2168 36.5692 57.2168 36.3284V7.26585C57.2168 7.025 57.121 6.79403 56.9507 6.62375L51.5015 1.17453C51.3312 1.0042 51.1002 0.908478 50.8594 0.908427H34.5117C34.2709 0.908427 34.0399 1.00411 33.8695 1.17443C33.6992 1.34475 33.6035 1.57576 33.6035 1.81663V7.23679L25.0519 1.07917C24.8974 0.968008 24.7118 0.908203 24.5215 0.908203C24.3312 0.908203 24.1456 0.968008 23.9911 1.07917L1.28603 17.4268C1.17916 17.5037 1.09028 17.6029 1.02555 17.7176C0.960821 17.8322 0.921792 17.9595 0.911166 18.0908C0.90054 18.222 0.918572 18.354 0.964012 18.4775C1.00945 18.6011 1.08121 18.7133 1.17432 18.8064L3.89893 21.531C4.05233 21.6849 4.25581 21.7786 4.47243 21.7953C4.68905 21.8119 4.90447 21.7504 5.0796 21.6218L6.35744 20.6909V46.3186H3.63283C3.39196 46.3186 3.16095 46.4143 2.99063 46.5846C2.82031 46.7549 2.72463 46.9859 2.72463 47.2268V50.8596C2.72463 51.1005 2.82031 51.3315 2.99063 51.5018C3.16095 51.6721 3.39196 51.7678 3.63283 51.7678H26.505C26.6922 52.2972 27.0383 52.7558 27.4961 53.081C27.9539 53.4061 28.501 53.5819 29.0625 53.5842H31.8779C32.0864 54.6107 32.6433 55.5336 33.4544 56.1965C34.2654 56.8594 35.2807 57.2216 36.3281 57.2216C37.3756 57.2216 38.3909 56.8594 39.2019 56.1965C40.013 55.5336 40.5699 54.6107 40.7783 53.5842H44.5928C44.8012 54.6107 45.3582 55.5336 46.1692 56.1965C46.9802 56.8594 47.9955 57.2216 49.043 57.2216C50.0905 57.2216 51.1057 56.8594 51.9168 56.1965C52.7278 55.5336 53.2847 54.6107 53.4932 53.5842H54.4922C55.2148 53.5842 55.9078 53.2971 56.4188 52.7862C56.9298 52.2752 57.2168 51.5822 57.2168 50.8596V46.0679C57.215 45.4303 56.9901 44.8134 56.5811 44.3242L53.5549 40.6877C53.1292 40.1755 52.5958 39.7635 51.9927 39.4809C51.3896 39.1984 50.7316 39.0523 50.0656 39.053H42.6856V37.2366H56.3086ZM51.7676 4.00903L54.1162 6.35765H51.7676V4.00903ZM35.4199 2.72483H49.9512V7.26585C49.9512 7.50672 50.0469 7.73772 50.2172 7.90805C50.3875 8.07837 50.6185 8.17405 50.8594 8.17405H55.4004V35.4201H42.6856V20.6909L43.9679 21.6236C44.1431 21.7522 44.3585 21.8138 44.5751 21.7971C44.7917 21.7804 44.9952 21.6867 45.1486 21.5328L47.8732 18.8082C47.9663 18.7151 48.0381 18.6029 48.0835 18.4793C48.129 18.3558 48.147 18.2238 48.1364 18.0926C48.1258 17.9614 48.0867 17.834 48.022 17.7194C47.9573 17.6047 47.8684 17.5055 47.7615 17.4286L35.4199 8.5446V2.72483ZM4.63185 19.6973L3.21415 18.2778L24.5215 2.93554L45.8289 18.2778L44.4112 19.6973L25.0555 5.62291C24.9003 5.51009 24.7134 5.44932 24.5215 5.44932C24.3296 5.44932 24.1427 5.51009 23.9875 5.62291L4.63185 19.6973ZM4.54103 48.135H26.3379V49.9514H4.54103V48.135ZM28.1543 44.6693C27.7745 44.805 27.4295 45.0233 27.1443 45.3085C26.859 45.5937 26.6407 45.9387 26.505 46.3186H25.4297V33.7327C26.2073 33.9335 26.8964 34.3862 27.3893 35.0201C27.8823 35.6541 28.1513 36.4335 28.1543 37.2366V44.6693ZM23.6133 46.3186H20.8887V37.2366C20.8917 36.4335 21.1607 35.6541 21.6537 35.0201C22.1466 34.3862 22.8357 33.9335 23.6133 33.7327V46.3186ZM36.3281 55.4006C35.7893 55.4006 35.2625 55.2408 34.8144 54.9414C34.3664 54.6421 34.0172 54.2165 33.8109 53.7187C33.6047 53.2208 33.5508 52.673 33.6559 52.1445C33.761 51.6159 34.0205 51.1305 34.4016 50.7494C34.7826 50.3684 35.2681 50.1089 35.7966 50.0037C36.3251 49.8986 36.8729 49.9526 37.3708 50.1588C37.8687 50.365 38.2942 50.7142 38.5936 51.1623C38.893 51.6104 39.0527 52.1371 39.0527 52.676C39.0527 53.3986 38.7657 54.0916 38.2547 54.6026C37.7438 55.1136 37.0508 55.4006 36.3281 55.4006ZM49.043 55.4006C48.5041 55.4006 47.9773 55.2408 47.5293 54.9414C47.0812 54.6421 46.732 54.2165 46.5258 53.7187C46.3196 53.2208 46.2656 52.673 46.3707 52.1445C46.4759 51.6159 46.7354 51.1305 47.1164 50.7494C47.4974 50.3684 47.9829 50.1089 48.5114 50.0037C49.04 49.8986 49.5878 49.9526 50.0856 50.1588C50.5835 50.365 51.009 50.7142 51.3084 51.1623C51.6078 51.6104 51.7676 52.1371 51.7676 52.676C51.7676 53.3986 51.4805 54.0916 50.9696 54.6026C50.4586 55.1136 49.7656 55.4006 49.043 55.4006ZM52.159 41.8502L55.1897 45.483C55.3258 45.6462 55.4003 45.8519 55.4004 46.0643V50.8596C55.4004 51.1005 55.3047 51.3315 55.1344 51.5018C54.9641 51.6721 54.7331 51.7678 54.4922 51.7678H53.4932C53.2847 50.7413 52.7278 49.8184 51.9168 49.1555C51.1057 48.4926 50.0905 48.1304 49.043 48.1304C47.9955 48.1304 46.9802 48.4926 46.1692 49.1555C45.3582 49.8184 44.8012 50.7413 44.5928 51.7678H40.7783C40.5699 50.7413 40.013 49.8184 39.2019 49.1555C38.3909 48.4926 37.3756 48.1304 36.3281 48.1304C35.2807 48.1304 34.2654 48.4926 33.4544 49.1555C32.6433 49.8184 32.0864 50.7413 31.8779 51.7678H29.0625C28.8216 51.7678 28.5906 51.6721 28.4203 51.5018C28.25 51.3315 28.1543 51.1005 28.1543 50.8596V47.2268C28.1543 46.9859 28.25 46.7549 28.4203 46.5846C28.5906 46.4143 28.8216 46.3186 29.0625 46.3186H41.7774C42.5 46.3186 43.193 46.0315 43.7039 45.5206C44.2149 45.0096 44.502 44.3166 44.502 43.594V40.8694H50.0656C50.4652 40.8689 50.86 40.9565 51.2218 41.1261C51.5837 41.2956 51.9037 41.5429 52.159 41.8502ZM35.5425 44.5022L37.7531 41.8502C38.008 41.5435 38.3272 41.2966 38.6883 41.127C39.0493 40.9575 39.4432 40.8695 39.842 40.8694H42.6856V43.594C42.6856 43.8348 42.5899 44.0658 42.4196 44.2362C42.2492 44.4065 42.0182 44.5022 41.7774 44.5022H35.5425ZM39.8465 39.053C39.1806 39.0521 38.5227 39.1982 37.9198 39.4808C37.3168 39.7634 36.7836 40.1755 36.3581 40.6877L33.1794 44.5022H29.9707V37.2366C29.9707 35.7913 29.3966 34.4053 28.3747 33.3834C27.3528 32.3614 25.9667 31.7873 24.5215 31.7873C23.0763 31.7873 21.6902 32.3614 20.6683 33.3834C19.6464 34.4053 19.0723 35.7913 19.0723 37.2366V46.3186H8.17385V19.3704L24.5215 7.48018L40.8692 19.3695V39.053H39.8465Z" fill="black"/>
<path d="M37.2363 4.54102H48.1348V6.35742H37.2363V4.54102Z" fill="black"/>
<path d="M42.6855 9.99023H53.584V11.8066H42.6855V9.99023Z" fill="black"/>
<path d="M46.3184 13.623H53.584V15.4395H46.3184V13.623Z" fill="black"/>
<path d="M44.502 29.9707H53.584V31.7871H44.502V29.9707Z" fill="black"/>
<path d="M44.502 26.3379H53.584V28.1543H44.502V26.3379Z" fill="black"/>
</svg>
