<svg width="54" height="62" viewBox="0 0 54 62" fill="none" xmlns="http://www.w3.org/2000/svg">
<path d="M46.0913 24.3703H34.4226C33.5867 24.3703 32.9091 23.6927 32.9091 22.8568V21.1254C32.9091 20.2895 33.5867 19.6118 34.4226 19.6118H46.0913C46.9273 19.6118 47.6049 20.2895 47.6049 21.1254V22.8568C47.6049 23.6927 46.9273 24.3703 46.0913 24.3703Z" fill="#F6E266"/>
<path d="M44.5182 52.9212H32.8495C32.0135 52.9212 31.3359 52.2435 31.3359 51.4076V49.6762C31.3359 48.8403 32.0135 48.1627 32.8495 48.1627H44.5182C45.3541 48.1627 46.0317 48.8403 46.0317 49.6762V51.4076C46.0317 52.2435 45.3541 52.9212 44.5182 52.9212Z" fill="#F6E266"/>
<path d="M44.5182 43.4042H32.8495C32.0135 43.4042 31.3359 42.7266 31.3359 41.8906V40.1592C31.3359 39.3233 32.0135 38.6457 32.8495 38.6457H44.5182C45.3541 38.6457 46.0317 39.3233 46.0317 40.1592V41.8906C46.0317 42.7266 45.3541 43.4042 44.5182 43.4042Z" fill="#F6E266"/>
<path d="M50.9354 33.8872H39.2666C38.4307 33.8872 37.7531 33.2095 37.7531 32.3736V30.6422C37.7531 29.8063 38.4307 29.1287 39.2666 29.1287H50.9354C51.7713 29.1287 52.4489 29.8063 52.4489 30.6422V32.3736C52.4489 33.2095 51.7713 33.8872 50.9354 33.8872Z" fill="#F6E266"/>
<path d="M27.9847 55.2832C33.0399 55.2832 37.138 51.1851 37.138 46.1298C37.138 41.0746 33.0399 36.9765 27.9847 36.9765C22.9294 36.9765 18.8313 41.0746 18.8313 46.1298C18.8313 51.1851 22.9294 55.2832 27.9847 55.2832Z" fill="#F6E266"/>
<path d="M44.5182 57.6799H32.8495C32.0136 57.6799 31.3359 57.0023 31.3359 56.1663V54.4349C31.3359 53.599 32.0136 52.9214 32.8495 52.9214H44.5182C45.3541 52.9214 46.0318 53.599 46.0318 54.4349V56.1663C46.0318 57.0023 45.3541 57.6799 44.5182 57.6799Z" fill="#EAB14D"/>
<path d="M46.4546 48.1628H34.7859C33.95 48.1628 33.2723 47.4852 33.2723 46.6493V44.9179C33.2723 44.082 33.95 43.4043 34.7859 43.4043H46.4546C47.2905 43.4043 47.9682 44.082 47.9682 44.9179V46.6493C47.9682 47.4852 47.2905 48.1628 46.4546 48.1628Z" fill="#EAB14D"/>
<path d="M46.4575 38.646H34.7888C33.9528 38.646 33.2752 37.9683 33.2752 37.1324V35.401C33.2752 34.5651 33.9528 33.8875 34.7888 33.8875H46.4575C47.2934 33.8875 47.971 34.5651 47.971 35.401V37.1324C47.971 37.9683 47.2934 38.646 46.4575 38.646Z" fill="#EAB14D"/>
<path d="M44.5182 29.1291H32.8495C32.0136 29.1291 31.3359 28.4515 31.3359 27.6155V25.8842C31.3359 25.0482 32.0136 24.3706 32.8495 24.3706H44.5182C45.3541 24.3706 46.0318 25.0482 46.0318 25.8842V27.6155C46.0318 28.4515 45.3541 29.1291 44.5182 29.1291Z" fill="#EAB14D"/>
<path d="M44.5186 52.9214H42.0991C42.935 52.9214 43.6127 53.599 43.6127 54.4349V56.1663C43.6127 57.0022 42.935 57.6799 42.0991 57.6799H44.5186C45.3545 57.6799 46.0321 57.0022 46.0321 56.1663V54.4349C46.0321 53.599 45.3545 52.9214 44.5186 52.9214Z" fill="#E49542"/>
<path d="M46.4546 43.4045H44.0352C44.8711 43.4045 45.5487 44.0821 45.5487 44.918V46.6494C45.5487 47.4853 44.8711 48.163 44.0352 48.163H46.4546C47.2905 48.163 47.9682 47.4853 47.9682 46.6494V44.918C47.9682 44.082 47.2905 43.4045 46.4546 43.4045Z" fill="#E49542"/>
<path d="M46.4569 33.8875H44.0374C44.8733 33.8875 45.551 34.5651 45.551 35.401V37.1324C45.551 37.9683 44.8733 38.646 44.0374 38.646H46.4569C47.2928 38.646 47.9704 37.9683 47.9704 37.1324V35.401C47.9704 34.5651 47.2928 33.8875 46.4569 33.8875Z" fill="#E49542"/>
<path d="M44.5186 24.3706H42.0991C42.935 24.3706 43.6127 25.0482 43.6127 25.8842V27.6155C43.6127 28.4515 42.935 29.1291 42.0991 29.1291H44.5186C45.3545 29.1291 46.0321 28.4515 46.0321 27.6155V25.8842C46.0321 25.0482 45.3545 24.3706 44.5186 24.3706Z" fill="#E49542"/>
<path d="M46.0911 19.6118H43.6717C44.5076 19.6118 45.1852 20.2895 45.1852 21.1254V22.8568C45.1852 23.6927 44.5076 24.3703 43.6717 24.3703H46.0911C46.927 24.3703 47.6047 23.6927 47.6047 22.8568V21.1254C47.6047 20.2895 46.927 19.6118 46.0911 19.6118Z" fill="#ECBE6B"/>
<path d="M44.5185 48.1627H42.0991C42.935 48.1627 43.6126 48.8403 43.6126 49.6762V51.4076C43.6126 52.2435 42.935 52.9212 42.0991 52.9212H44.5185C45.3544 52.9212 46.0321 52.2435 46.0321 51.4076V49.6762C46.0321 48.8403 45.3544 48.1627 44.5185 48.1627Z" fill="#ECBE6B"/>
<path d="M44.5185 38.6457H42.0991C42.935 38.6457 43.6126 39.3233 43.6126 40.1592V41.8906C43.6126 42.7266 42.935 43.4042 42.0991 43.4042H44.5185C45.3544 43.4042 46.0321 42.7266 46.0321 41.8906V40.1592C46.0321 39.3233 45.3544 38.6457 44.5185 38.6457Z" fill="#ECBE6B"/>
<path d="M50.9351 29.1288H48.5157C49.3516 29.1288 50.0292 29.8065 50.0292 30.6424V32.3738C50.0292 33.2097 49.3516 33.8873 48.5157 33.8873H50.9351C51.771 33.8873 52.4487 33.2097 52.4487 32.3738V30.6424C52.4487 29.8063 51.771 29.1288 50.9351 29.1288Z" fill="#ECBE6B"/>
<path d="M27.9849 36.9765C27.343 36.9765 26.7168 37.0432 26.1123 37.1689C30.2693 38.0333 33.3931 41.7164 33.3931 46.1298C33.3931 50.5432 30.2693 54.2264 26.1123 55.0908C26.7169 55.2164 27.3431 55.2832 27.9849 55.2832C33.0402 55.2832 37.1383 51.1851 37.1383 46.1298C37.1383 41.0745 33.0401 36.9765 27.9849 36.9765Z" fill="#ECBE6B"/>
<path d="M50.935 28.2209H46.8606C46.9107 28.0271 46.9402 27.825 46.9402 27.6156V25.8841C46.9402 25.6329 46.9017 25.3905 46.8304 25.1625C47.8052 24.8492 48.513 23.9346 48.513 22.8571V21.1257C48.513 19.7904 47.4265 18.7039 46.0912 18.7039H42.4358C41.9341 18.7039 41.5276 19.1104 41.5276 19.6121C41.5276 20.1138 41.9341 20.5203 42.4358 20.5203H46.0912C46.4251 20.5203 46.6966 20.7918 46.6966 21.1257V22.8571C46.6966 23.1909 46.4251 23.4624 46.0912 23.4624C44.6937 23.4624 36.5199 23.4624 34.8759 23.4624V20.5203H38.8046C39.3062 20.5203 39.7128 20.1138 39.7128 19.6121C39.7128 19.1104 39.3062 18.7039 38.8046 18.7039H34.8759V0.908233C34.8759 0.549917 34.6652 0.225022 34.3381 0.0788623C34.0111 -0.0669346 33.6285 -0.00723535 33.3616 0.231925L29.9152 3.32139L26.4686 0.231925C26.1237 -0.0772275 25.6012 -0.0773486 25.2561 0.232046L21.8104 3.32127L18.3644 0.232046C18.0193 -0.0773486 17.4969 -0.0773486 17.1518 0.232046L13.7062 3.32127L10.2605 0.232046C9.91534 -0.0773486 9.39294 -0.0773486 9.04782 0.232046L5.60271 3.32127L2.15771 0.232046C1.89094 -0.00735644 1.5084 -0.0670557 1.18121 0.0788623C0.854013 0.225022 0.643311 0.549917 0.643311 0.908233V10.0829C0.643311 10.5846 1.04982 10.9911 1.55151 10.9911C2.05321 10.9911 2.45972 10.5846 2.45972 10.0829V2.94249L4.99651 5.21723C5.34163 5.52663 5.86427 5.52663 6.20914 5.21723L9.65426 2.12801L13.1 5.21723C13.4451 5.52663 13.9675 5.52663 14.3126 5.21723L17.7582 2.12801L21.2042 5.21723C21.5493 5.52663 22.0717 5.52663 22.4168 5.21723L25.8625 2.12789L29.309 5.21735C29.6539 5.52651 30.1765 5.52651 30.5214 5.21735L33.0596 2.942V37.4475C31.5686 36.5728 29.835 36.0686 27.9849 36.0686C24.9499 36.0686 22.2266 37.4214 20.3803 39.5532H9.72437C9.22268 39.5532 8.81617 39.9598 8.81617 40.4614C8.81617 40.9631 9.22268 41.3697 9.72437 41.3697H19.1234C18.4684 42.5841 18.0582 43.9481 17.9532 45.3957H9.72449C9.2228 45.3957 8.81629 45.8022 8.81629 46.3039C8.81629 46.8055 9.2228 47.2121 9.72449 47.2121H17.9809C18.1007 48.3388 18.4082 49.427 18.9007 50.4588C19.1169 50.9117 19.6594 51.1035 20.1116 50.8873C20.5642 50.6712 20.756 50.1291 20.54 49.6764C20.009 48.5641 19.7399 47.3709 19.7399 46.1302C19.7399 41.5839 23.4387 37.8851 27.9851 37.8851C32.5314 37.8851 36.2302 41.5839 36.2302 46.1302C36.2302 50.6766 32.5314 54.3754 27.9851 54.3754C25.9732 54.3754 24.0347 53.6411 22.5269 52.3074C22.151 51.9752 21.5771 52.0104 21.2449 52.386C20.9126 52.7619 20.9478 53.3358 21.3235 53.6681C23.1637 55.2954 25.5295 56.1918 27.9851 56.1918C29.8351 56.1918 31.5687 55.6877 33.0597 54.8129V59.0582L30.5215 56.7828C30.1766 56.4737 29.654 56.4737 29.3091 56.7828L25.8627 59.8723L22.4169 56.7829C22.0718 56.4736 21.5494 56.4736 21.2043 56.7829L17.7583 59.8722L14.3127 56.7829C13.9676 56.4736 13.4452 56.4736 13.1001 56.7829L9.65438 59.8722L6.20926 56.7829C5.86415 56.4736 5.34175 56.4736 4.99663 56.7829L2.45984 59.0577V13.7141C2.45984 13.2124 2.05333 12.8059 1.55163 12.8059C1.04994 12.8059 0.643432 13.2124 0.643432 13.7141V61.0918C0.643432 61.4501 0.854134 61.775 1.18133 61.9212C1.50877 62.0671 1.89106 62.0071 2.15783 61.768L5.60271 58.6788L9.04782 61.768C9.39294 62.0774 9.91534 62.0774 10.2605 61.768L13.7062 58.6788L17.1518 61.768C17.4969 62.0774 18.0193 62.0774 18.3644 61.768L21.8104 58.6787L25.2561 61.768C25.6012 62.0774 26.1237 62.0773 26.4686 61.7681L29.9151 58.6787L33.3615 61.7681C33.6283 62.0073 34.0108 62.0671 34.3379 61.9212C34.6651 61.775 34.8758 61.4501 34.8758 61.0918V58.5881H44.5185C45.8538 58.5881 46.9402 57.5016 46.9402 56.1663V54.4348C46.9402 53.8623 46.7395 53.3364 46.406 52.9214C46.7395 52.5064 46.9402 51.9804 46.9402 51.4078V49.6763C46.9402 49.4542 46.9077 49.24 46.8515 49.0356C47.9981 48.8452 48.8762 47.8491 48.8762 46.6493V44.9179C48.8762 43.7181 47.9981 42.7219 46.8513 42.5317C46.9077 42.3271 46.9401 42.1129 46.9401 41.8908V40.1596C46.9401 39.9376 46.9075 39.7235 46.8515 39.5192C47.9994 39.3301 48.8788 38.3335 48.8788 37.1326V35.4011C48.8788 35.1917 48.8493 34.9897 48.7991 34.7958H50.9348C52.2701 34.7958 53.3565 33.7094 53.3565 32.3741V30.6426C53.3567 29.3073 52.2703 28.2209 50.935 28.2209ZM44.5185 25.2788C44.8523 25.2788 45.1238 25.5503 45.1238 25.8841V27.6156C45.1238 27.9494 44.8523 28.2209 44.5185 28.2209C42.5448 28.2209 36.8476 28.2209 34.8758 28.2209V25.2788H44.5185ZM36.9242 32.9794H34.8759V30.0373H36.9243C36.8742 30.2312 36.8447 30.4333 36.8447 30.6426V32.3741C36.8445 32.5833 36.8741 32.7856 36.9242 32.9794ZM45.1238 40.1596V41.891C45.1238 42.2248 44.8523 42.4963 44.5185 42.4963H37.3644C36.9429 41.4122 36.3391 40.4192 35.5902 39.5542H44.5185C44.8523 39.5542 45.1238 39.8257 45.1238 40.1596ZM45.1238 49.6763V51.4078C45.1238 51.7417 44.8523 52.0132 44.5185 52.0132H36.1394C36.7791 51.1288 37.2799 50.1379 37.6067 49.0711H44.5185C44.8523 49.0711 45.1238 49.3427 45.1238 49.6763ZM45.1238 56.1663C45.1238 56.5002 44.8523 56.7717 44.5185 56.7717H34.8758V53.8296H44.5185C44.8523 53.8296 45.1238 54.1011 45.1238 54.4348V56.1663ZM47.0599 44.9181V46.6495C47.0599 46.9833 46.7884 47.2548 46.4545 47.2548C44.0033 47.2548 40.7439 47.2548 37.9818 47.2548C38.0231 46.8853 38.0463 46.5106 38.0463 46.1302C38.0463 45.5095 37.9868 44.9027 37.8787 44.3127H46.4544C46.7884 44.3127 47.0599 44.5842 47.0599 44.9181ZM47.0625 35.4011V37.1326C47.0625 37.4663 46.791 37.7378 46.4573 37.7378C44.6634 37.7378 36.2684 37.7378 34.8758 37.7378V34.7958H46.4573C46.791 34.7958 47.0625 35.0673 47.0625 35.4011ZM51.5403 32.3741C51.5403 32.7079 51.2689 32.9794 50.935 32.9794C49.4957 32.9794 40.5309 32.9794 39.2663 32.9794C38.9325 32.9794 38.6611 32.7079 38.6611 32.3741V30.6426C38.6611 30.3088 38.9325 30.0373 39.2663 30.0373H50.935C51.2689 30.0373 51.5403 30.3088 51.5403 30.6426V32.3741Z" fill="black"/>
<path d="M6.27852 18.1868C5.85869 17.9122 5.29585 18.0299 5.02121 18.4496C4.74657 18.8693 4.86427 19.4322 5.28398 19.7069C6.08986 20.2342 6.6774 20.4386 7.41196 20.5078V21.0339C7.41196 21.5356 7.81847 21.9421 8.32016 21.9421C8.82185 21.9421 9.22836 21.5356 9.22836 21.0339V20.4219C10.6937 20.0411 11.6328 18.7859 11.841 17.5478C12.1102 15.9465 11.2408 14.4994 9.67762 13.947C9.52964 13.8947 9.37912 13.8404 9.22836 13.7846V10.9135C9.93882 11.0164 10.4755 11.2721 10.4966 11.2826C10.9449 11.5054 11.4883 11.3241 11.7128 10.8765C11.9377 10.4282 11.7566 9.88247 11.3083 9.6576C11.254 9.63023 10.3858 9.20301 9.22836 9.08592V8.68316C9.22836 8.18147 8.82185 7.77496 8.32016 7.77496C7.81847 7.77496 7.41196 8.18147 7.41196 8.68316V9.21307C7.36328 9.2259 7.3146 9.23886 7.26592 9.25351C6.21083 9.57138 5.42299 10.4718 5.20987 11.6033C5.01418 12.6424 5.35215 13.6484 6.09167 14.2284C6.43558 14.4983 6.8542 14.7457 7.41196 15.0024V18.6809C7.03172 18.6227 6.73856 18.488 6.27852 18.1868ZM10.0497 17.2468C9.97273 17.7052 9.69397 18.1865 9.22848 18.4703V15.7229C10.1282 16.1235 10.1059 16.9128 10.0497 17.2468ZM7.21276 12.7994C7.01174 12.6417 6.92625 12.3042 6.99491 11.9397C7.04226 11.6883 7.17461 11.4001 7.41196 11.1986V12.9413C7.34124 12.8947 7.27403 12.8474 7.21276 12.7994Z" fill="black"/>
<path d="M18.8787 13.7509H23.1404C23.6421 13.7509 24.0486 13.3444 24.0486 12.8427C24.0486 12.341 23.6421 11.9345 23.1404 11.9345H18.8787C18.377 11.9345 17.9705 12.341 17.9705 12.8427C17.9705 13.3444 18.377 13.7509 18.8787 13.7509Z" fill="black"/>
<path d="M18.8787 18.146H27.9842C28.4859 18.146 28.8924 17.7395 28.8924 17.2378C28.8924 16.7361 28.4859 16.3296 27.9842 16.3296H18.8787C18.377 16.3296 17.9705 16.7361 17.9705 17.2378C17.9705 17.7395 18.377 18.146 18.8787 18.146Z" fill="black"/>
<path d="M8.81591 28.7767C8.81591 29.2783 9.22242 29.6849 9.72411 29.6849H25.7948C26.2965 29.6849 26.703 29.2783 26.703 28.7767C26.703 28.275 26.2965 27.8684 25.7948 27.8684H9.72411C9.22254 27.8684 8.81591 28.275 8.81591 28.7767Z" fill="black"/>
<path d="M25.7948 33.7108H9.72411C9.22242 33.7108 8.81591 34.1173 8.81591 34.619C8.81591 35.1207 9.22242 35.5272 9.72411 35.5272H25.7948C26.2965 35.5272 26.703 35.1207 26.703 34.619C26.703 34.1173 26.2965 33.7108 25.7948 33.7108Z" fill="black"/>
</svg>
