<svg width="345" height="353" viewBox="0 0 345 353" fill="none" xmlns="http://www.w3.org/2000/svg">
<circle cx="29.3379" cy="71.3074" r="23" fill="white" stroke="white" stroke-width="2"/>
<rect width="34.2857" height="34.2857" transform="translate(12.1951 54.1646)" fill="white"/>
<path d="M19.2395 79.3402C19.0361 78.0821 19.0614 76.4768 19.6321 75.1725C19.9497 74.4466 20.428 73.8289 21.1262 73.3847C21.8269 72.9389 22.8294 72.6169 24.2757 72.6169H35.4821C35.945 72.6169 36.8782 72.8734 37.7213 73.9168C38.4938 74.8728 39.2358 76.554 39.3473 79.4052C35.4997 81.1565 27.0927 83.1585 19.2395 79.3402ZM19.8226 71.3357C18.6574 72.077 17.8877 73.1009 17.4072 74.199C16.4677 76.3463 16.6062 78.8248 16.9804 80.4329L17.107 80.9767L17.6022 81.2347C27.0445 86.1526 37.1978 83.2863 41.1369 81.2347L41.7902 80.8944V80.1577C41.7902 76.4663 40.8945 73.9797 39.6102 72.3904C38.3309 70.8072 36.7172 70.1883 35.4821 70.1883H24.2757C22.462 70.1883 20.9855 70.5958 19.8226 71.3357Z" fill="#2B3EA1"/>
<path d="M29.2426 68.974C27.0072 68.974 25.195 67.1618 25.195 64.9264C25.195 62.6909 27.0072 60.8788 29.2426 60.8788C31.4781 60.8788 33.2902 62.6909 33.2902 64.9264C33.2902 67.1618 31.4781 68.974 29.2426 68.974ZM29.2426 71.4026C32.8193 71.4026 35.7188 68.5031 35.7188 64.9264C35.7188 61.3497 32.8193 58.4502 29.2426 58.4502C25.6659 58.4502 22.7664 61.3497 22.7664 64.9264C22.7664 68.5031 25.6659 71.4026 29.2426 71.4026Z" fill="#2B3EA1"/>
<path d="M14.6785 108.126H12.2872L15.8021 118.307H18.5763L22.0862 108.126H19.6998L17.2339 115.861H17.1395L14.6785 108.126ZM25.8472 118.457C28.164 118.457 29.6057 116.871 29.6057 114.519C29.6057 112.153 28.164 110.572 25.8472 110.572C23.5305 110.572 22.0887 112.153 22.0887 114.519C22.0887 116.871 23.5305 118.457 25.8472 118.457ZM25.8572 116.816C24.7883 116.816 24.2414 115.836 24.2414 114.504C24.2414 113.172 24.7883 112.187 25.8572 112.187C26.9062 112.187 27.453 113.172 27.453 114.504C27.453 115.836 26.9062 116.816 25.8572 116.816ZM34.4331 118.457C36.4665 118.457 37.7442 117.263 37.8437 115.508H35.8451C35.7208 116.324 35.1839 116.781 34.458 116.781C33.4687 116.781 32.8273 115.951 32.8273 114.489C32.8273 113.047 33.4736 112.222 34.458 112.222C35.2336 112.222 35.7307 112.734 35.8451 113.495H37.8437C37.7542 111.73 36.4168 110.572 34.4232 110.572C32.1064 110.572 30.6746 112.177 30.6746 114.519C30.6746 116.841 32.0816 118.457 34.4331 118.457ZM42.6798 118.457C44.569 118.457 45.8417 117.537 46.14 116.12L44.1812 115.991C43.9674 116.572 43.4205 116.876 42.7146 116.876C41.6556 116.876 40.9845 116.175 40.9845 115.036V115.031H46.1847V114.449C46.1847 111.854 44.6137 110.572 42.5953 110.572C40.3481 110.572 38.8914 112.167 38.8914 114.524C38.8914 116.945 40.3282 118.457 42.6798 118.457ZM41.5463 109.766L42.5455 108.553L43.5448 109.766H45.3495V109.697L43.3311 107.509H41.7551L39.7416 109.697V109.766H41.5463ZM40.9845 113.719C41.0292 112.849 41.6904 112.153 42.6301 112.153C43.5498 112.153 44.1862 112.809 44.1911 113.719H40.9845Z" fill="white"/>
<path d="M172.204 106.488H170.051V116.67H172.204V106.488ZM176.053 112.255C176.058 111.271 176.645 110.694 177.5 110.694C178.35 110.694 178.862 111.251 178.857 112.185V116.67H180.975V111.807C180.975 110.028 179.931 108.934 178.34 108.934C177.207 108.934 176.386 109.491 176.043 110.381H175.954V109.033H173.936V116.67H176.053V112.255ZM188.998 111.211C188.809 109.804 187.676 108.934 185.747 108.934C183.793 108.934 182.505 109.839 182.51 111.31C182.505 112.454 183.226 113.195 184.718 113.493L186.04 113.756C186.706 113.891 187.01 114.134 187.019 114.517C187.01 114.969 186.517 115.293 185.777 115.293C185.021 115.293 184.519 114.969 184.39 114.348L182.306 114.457C182.505 115.919 183.748 116.819 185.772 116.819C187.75 116.819 189.167 115.81 189.172 114.303C189.167 113.2 188.446 112.538 186.965 112.235L185.583 111.957C184.872 111.802 184.608 111.559 184.613 111.191C184.608 110.734 185.125 110.435 185.782 110.435C186.517 110.435 186.955 110.838 187.059 111.33L188.998 111.211ZM194.568 109.033H193.131V107.204H191.013V109.033H189.969V110.624H191.013V114.601C191.003 116.098 192.022 116.839 193.558 116.774C194.105 116.754 194.493 116.645 194.707 116.575L194.374 114.999C194.269 115.019 194.046 115.069 193.847 115.069C193.424 115.069 193.131 114.91 193.131 114.323V110.624H194.568V109.033ZM195.947 116.67H198.065V109.033H195.947V116.67ZM197.011 108.049C197.643 108.049 198.16 107.567 198.16 106.975C198.16 106.388 197.643 105.906 197.011 105.906C196.385 105.906 195.868 106.388 195.868 106.975C195.868 107.567 196.385 108.049 197.011 108.049ZM203.823 109.033H202.387V107.204H200.269V109.033H199.225V110.624H200.269V114.601C200.259 116.098 201.278 116.839 202.814 116.774C203.361 116.754 203.749 116.645 203.963 116.575L203.63 114.999C203.525 115.019 203.301 115.069 203.103 115.069C202.68 115.069 202.387 114.91 202.387 114.323V110.624H203.823V109.033ZM210.1 113.418C210.105 114.442 209.404 114.979 208.643 114.979C207.843 114.979 207.326 114.418 207.321 113.518V109.033H205.203V113.896C205.208 115.68 206.252 116.769 207.788 116.769C208.937 116.769 209.762 116.177 210.105 115.283H210.185V116.67H212.218V109.033H210.1V113.418ZM213.912 116.67H216.03V109.033H213.912V116.67ZM214.976 108.049C215.607 108.049 216.124 107.567 216.124 106.975C216.124 106.388 215.607 105.906 214.976 105.906C214.35 105.906 213.833 106.388 213.833 106.975C213.833 107.567 214.35 108.049 214.976 108.049ZM221.624 116.799C223.394 116.635 224.498 115.491 224.587 113.871H222.589C222.464 114.686 221.928 115.143 221.202 115.143C220.212 115.143 219.571 114.313 219.571 112.851C219.571 111.41 220.217 110.584 221.202 110.584C221.977 110.584 222.474 111.097 222.589 111.857H224.587C224.498 110.092 223.16 108.934 221.167 108.934C218.85 108.934 217.418 110.54 217.418 112.881C217.418 115.024 218.616 116.56 220.645 116.789L220.456 117.639C221.147 117.724 221.465 117.918 221.45 118.325C221.435 118.748 220.933 118.947 220.098 118.947L220.118 119.891C221.783 119.891 222.748 119.26 222.743 118.271C222.738 117.575 222.256 117.167 221.575 117.062L221.624 116.799ZM228.121 116.814C229.249 116.814 229.98 116.322 230.353 115.611H230.413V116.67H232.421V111.519C232.421 109.7 230.88 108.934 229.18 108.934C227.35 108.934 226.147 109.809 225.854 111.201L227.813 111.36C227.957 110.853 228.409 110.48 229.17 110.48C229.891 110.48 230.303 110.843 230.303 111.469V111.499C230.303 111.991 229.781 112.056 228.454 112.185C226.943 112.325 225.585 112.832 225.585 114.537C225.585 116.048 226.664 116.814 228.121 116.814ZM227.837 108.094C227.837 107.631 228.066 107.338 228.409 107.338C228.673 107.338 228.872 107.482 229.09 107.646C229.369 107.85 229.687 108.089 230.244 108.084C231.144 108.079 231.85 107.378 231.86 106.12L230.701 106.085C230.696 106.543 230.492 106.851 230.11 106.856C229.861 106.856 229.652 106.712 229.423 106.548C229.125 106.344 228.792 106.105 228.275 106.11C227.37 106.115 226.659 106.816 226.659 108.079L227.837 108.094ZM228.727 115.352C228.076 115.352 227.609 115.049 227.609 114.467C227.609 113.871 228.101 113.577 228.847 113.473C229.309 113.408 230.065 113.299 230.318 113.13V113.94C230.318 114.741 229.657 115.352 228.727 115.352ZM237.515 116.819C239.831 116.819 241.273 115.233 241.273 112.881C241.273 110.515 239.831 108.934 237.515 108.934C235.198 108.934 233.756 110.515 233.756 112.881C233.756 115.233 235.198 116.819 237.515 116.819ZM237.525 115.178C236.456 115.178 235.909 114.199 235.909 112.866C235.909 111.534 236.456 110.55 237.525 110.55C238.574 110.55 239.121 111.534 239.121 112.866C239.121 114.199 238.574 115.178 237.525 115.178ZM170.585 132.67H172.737V128.464H176.879V126.689H172.737V124.263H177.326V122.488H170.585V132.67ZM178.734 132.67H180.852V125.033H178.734V132.67ZM179.798 124.049C180.43 124.049 180.947 123.567 180.947 122.975C180.947 122.388 180.43 121.906 179.798 121.906C179.172 121.906 178.655 122.388 178.655 122.975C178.655 123.567 179.172 124.049 179.798 124.049ZM184.667 128.255C184.672 127.271 185.258 126.694 186.113 126.694C186.964 126.694 187.476 127.251 187.471 128.185V132.67H189.589V127.807C189.589 126.028 188.545 124.934 186.954 124.934C185.82 124.934 185 125.491 184.657 126.381H184.567V125.033H182.549V132.67H184.667V128.255ZM193.435 132.814C194.564 132.814 195.295 132.322 195.668 131.611H195.727V132.67H197.736V127.519C197.736 125.7 196.195 124.934 194.494 124.934C192.665 124.934 191.462 125.809 191.168 127.201L193.127 127.36C193.271 126.853 193.724 126.48 194.484 126.48C195.205 126.48 195.618 126.843 195.618 127.469V127.499C195.618 127.991 195.096 128.056 193.768 128.185C192.257 128.325 190.9 128.832 190.9 130.537C190.9 132.048 191.979 132.814 193.435 132.814ZM194.042 131.352C193.391 131.352 192.923 131.049 192.923 130.467C192.923 129.871 193.415 129.577 194.161 129.473C194.624 129.408 195.379 129.299 195.633 129.13V129.94C195.633 130.741 194.972 131.352 194.042 131.352ZM201.497 128.255C201.502 127.271 202.088 126.694 202.943 126.694C203.794 126.694 204.306 127.251 204.301 128.185V132.67H206.419V127.807C206.419 126.028 205.375 124.934 203.784 124.934C202.65 124.934 201.83 125.491 201.487 126.381H201.397V125.033H199.379V132.67H201.497V128.255ZM211.538 132.819C213.572 132.819 214.849 131.626 214.949 129.871H212.95C212.826 130.686 212.289 131.143 211.563 131.143C210.574 131.143 209.932 130.313 209.932 128.851C209.932 127.41 210.579 126.584 211.563 126.584C212.339 126.584 212.836 127.097 212.95 127.857H214.949C214.859 126.092 213.522 124.934 211.528 124.934C209.211 124.934 207.78 126.54 207.78 128.881C207.78 131.203 209.187 132.819 211.538 132.819ZM219.785 132.819C221.674 132.819 222.947 131.899 223.245 130.482L221.286 130.353C221.072 130.935 220.526 131.238 219.82 131.238C218.761 131.238 218.089 130.537 218.089 129.398V129.393H223.29V128.812C223.29 126.217 221.719 124.934 219.7 124.934C217.453 124.934 215.996 126.53 215.996 128.886C215.996 131.307 217.433 132.819 219.785 132.819ZM218.089 128.081C218.134 127.211 218.795 126.515 219.735 126.515C220.655 126.515 221.291 127.171 221.296 128.081H218.089ZM224.672 132.67H226.79V125.033H224.672V132.67ZM225.736 124.049C226.367 124.049 226.884 123.567 226.884 122.975C226.884 122.388 226.367 121.906 225.736 121.906C225.109 121.906 224.592 122.388 224.592 122.975C224.592 123.567 225.109 124.049 225.736 124.049ZM228.486 132.67H230.604V128.349C230.604 127.41 231.29 126.763 232.225 126.763C232.518 126.763 232.921 126.813 233.12 126.878V124.999C232.931 124.954 232.667 124.924 232.454 124.924C231.598 124.924 230.898 125.421 230.619 126.366H230.54V125.033H228.486V132.67ZM236.174 132.814C237.302 132.814 238.033 132.322 238.406 131.611H238.466V132.67H240.474V127.519C240.474 125.7 238.933 124.934 237.233 124.934C235.403 124.934 234.2 125.809 233.907 127.201L235.865 127.36C236.01 126.853 236.462 126.48 237.223 126.48C237.943 126.48 238.356 126.843 238.356 127.469V127.499C238.356 127.991 237.834 128.056 236.507 128.185C234.995 128.325 233.638 128.832 233.638 130.537C233.638 132.048 234.717 132.814 236.174 132.814ZM236.78 131.352C236.129 131.352 235.662 131.049 235.662 130.467C235.662 129.871 236.154 129.577 236.899 129.473C237.362 129.408 238.117 129.299 238.371 129.13V129.94C238.371 130.741 237.71 131.352 236.78 131.352ZM188.821 143.579C188.821 140.248 186.753 138.349 184.053 138.349C181.339 138.349 179.286 140.248 179.286 143.579C179.286 146.895 181.339 148.809 184.053 148.809C186.753 148.809 188.821 146.91 188.821 143.579ZM186.639 143.579C186.639 145.736 185.614 146.905 184.053 146.905C182.487 146.905 181.468 145.736 181.468 143.579C181.468 141.421 182.487 140.253 184.053 140.253C185.614 140.253 186.639 141.421 186.639 143.579ZM190.376 148.67H192.494V144.349C192.494 143.41 193.18 142.763 194.115 142.763C194.408 142.763 194.811 142.813 195.009 142.878V140.999C194.821 140.954 194.557 140.924 194.343 140.924C193.488 140.924 192.787 141.421 192.509 142.366H192.429V141.033H190.376V148.67ZM196.104 148.67H198.222V141.033H196.104V148.67ZM197.168 140.049C197.8 140.049 198.317 139.567 198.317 138.975C198.317 138.388 197.8 137.906 197.168 137.906C196.542 137.906 196.025 138.388 196.025 138.975C196.025 139.567 196.542 140.049 197.168 140.049ZM203.359 151.692C205.542 151.692 207.093 150.698 207.093 148.744V141.033H204.99V142.316H204.91C204.627 141.695 204.006 140.934 202.728 140.934C201.052 140.934 199.636 142.236 199.636 144.837C199.636 147.377 201.013 148.56 202.733 148.56C203.951 148.56 204.632 147.949 204.91 147.317H205V148.714C205 149.763 204.329 150.171 203.409 150.171C202.474 150.171 202.002 149.763 201.828 149.301L199.869 149.565C200.123 150.768 201.301 151.692 203.359 151.692ZM203.404 146.969C202.365 146.969 201.798 146.144 201.798 144.827C201.798 143.529 202.355 142.619 203.404 142.619C204.433 142.619 205.01 143.489 205.01 144.827C205.01 146.174 204.423 146.969 203.404 146.969ZM208.778 148.67H210.896V141.033H208.778V148.67ZM209.842 140.049C210.474 140.049 210.991 139.567 210.991 138.975C210.991 138.388 210.474 137.906 209.842 137.906C209.216 137.906 208.699 138.388 208.699 138.975C208.699 139.567 209.216 140.049 209.842 140.049ZM214.711 144.255C214.716 143.271 215.302 142.694 216.157 142.694C217.008 142.694 217.52 143.251 217.515 144.185V148.67H219.633V143.807C219.633 142.028 218.588 140.934 216.998 140.934C215.864 140.934 215.044 141.491 214.701 142.381H214.611V141.033H212.593V148.67H214.711V144.255ZM223.479 148.814C224.608 148.814 225.339 148.322 225.712 147.611H225.771V148.67H227.78V143.519C227.78 141.7 226.239 140.934 224.538 140.934C222.709 140.934 221.506 141.809 221.212 143.201L223.171 143.36C223.315 142.853 223.768 142.48 224.528 142.48C225.249 142.48 225.662 142.843 225.662 143.469V143.499C225.662 143.991 225.14 144.056 223.812 144.185C222.301 144.325 220.944 144.832 220.944 146.537C220.944 148.048 222.023 148.814 223.479 148.814ZM224.086 147.352C223.435 147.352 222.967 147.049 222.967 146.467C222.967 145.871 223.459 145.577 224.205 145.473C224.667 145.408 225.423 145.299 225.677 145.13V145.94C225.677 146.741 225.015 147.352 224.086 147.352ZM231.541 138.488H229.423V148.67H231.541V138.488Z" fill="white"/>
<path d="M102.145 5.50264H103.168C103.121 4.18588 101.907 3.2015 100.219 3.2015C98.5489 3.2015 97.2364 4.1731 97.2364 5.639C97.2364 6.81514 98.0886 7.514 99.4523 7.90605L100.526 8.21287C101.447 8.46855 102.265 8.79241 102.265 9.66173C102.265 10.6163 101.344 11.247 100.134 11.247C99.0943 11.247 98.1739 10.7867 98.0886 9.7981H96.9977C97.1 11.2299 98.2591 12.2015 100.134 12.2015C102.145 12.2015 103.288 11.0936 103.288 9.67878C103.288 8.04241 101.736 7.514 100.833 7.27537L99.9466 7.03673C99.2989 6.86628 98.2591 6.52537 98.2591 5.58787C98.2591 4.75264 99.0261 4.139 100.185 4.139C101.242 4.139 102.043 4.64185 102.145 5.50264ZM107.548 12.1845C109.321 12.1845 110.514 10.8379 110.514 8.80946C110.514 6.764 109.321 5.41741 107.548 5.41741C105.775 5.41741 104.582 6.764 104.582 8.80946C104.582 10.8379 105.775 12.1845 107.548 12.1845ZM107.548 11.2811C106.201 11.2811 105.588 10.122 105.588 8.80946C105.588 7.49696 106.201 6.32082 107.548 6.32082C108.894 6.32082 109.508 7.49696 109.508 8.80946C109.508 10.122 108.894 11.2811 107.548 11.2811ZM113.055 3.32082H112.049V12.0481H113.055V3.32082ZM114.897 12.0481H115.902V5.50264H114.897V12.0481ZM115.408 4.41173C115.8 4.41173 116.124 4.10491 116.124 3.72991C116.124 3.35491 115.8 3.0481 115.408 3.0481C115.016 3.0481 114.692 3.35491 114.692 3.72991C114.692 4.10491 115.016 4.41173 115.408 4.41173ZM120.403 12.1845C121.852 12.1845 122.807 11.2981 122.977 10.139H121.971C121.784 10.8549 121.187 11.2811 120.403 11.2811C119.21 11.2811 118.443 10.2924 118.443 8.77537C118.443 7.29241 119.227 6.32082 120.403 6.32082C121.29 6.32082 121.818 6.86628 121.971 7.46287H122.977C122.807 6.2356 121.767 5.41741 120.386 5.41741C118.614 5.41741 117.437 6.81514 117.437 8.80946C117.437 10.7697 118.562 12.1845 120.403 12.1845ZM124.447 12.0481H125.453V5.50264H124.447V12.0481ZM124.959 4.41173C125.351 4.41173 125.675 4.10491 125.675 3.72991C125.675 3.35491 125.351 3.0481 124.959 3.0481C124.567 3.0481 124.243 3.35491 124.243 3.72991C124.243 4.10491 124.567 4.41173 124.959 4.41173ZM130.142 5.50264H128.744V3.93446H127.738V5.50264H126.75V6.35491H127.738V10.4458C127.738 11.5879 128.659 12.1333 129.511 12.1333C129.886 12.1333 130.125 12.0651 130.261 12.014L130.056 11.1106C129.971 11.1276 129.835 11.1617 129.613 11.1617C129.17 11.1617 128.744 11.0254 128.744 10.1731V6.35491H130.142V5.50264ZM133.58 12.2015C134.723 12.2015 135.319 11.5879 135.524 11.1617H135.575V12.0481H136.58V7.7356C136.58 5.65605 134.995 5.41741 134.16 5.41741C133.171 5.41741 132.046 5.75832 131.535 6.9515L132.49 7.29241C132.711 6.81514 133.235 6.30378 134.194 6.30378C135.119 6.30378 135.575 6.79383 135.575 7.63332V7.66741C135.575 8.15321 135.08 8.1106 133.887 8.264C132.673 8.42168 131.348 8.69014 131.348 10.1901C131.348 11.4686 132.336 12.2015 133.58 12.2015ZM133.734 11.2981C132.933 11.2981 132.353 10.9401 132.353 10.2413C132.353 9.47423 133.052 9.2356 133.836 9.13332C134.262 9.08219 135.404 8.96287 135.575 8.75832V9.67878C135.575 10.497 134.927 11.2981 133.734 11.2981ZM104.12 22.0481C103.796 20.2583 102.364 19.2015 100.609 19.2015C98.3758 19.2015 96.7564 20.9231 96.7564 23.6845C96.7564 26.4458 98.3758 28.1674 100.609 28.1674C102.364 28.1674 103.796 27.1106 104.12 25.3208H103.063C102.808 26.5311 101.768 27.1788 100.609 27.1788C99.0235 27.1788 97.7792 25.9515 97.7792 23.6845C97.7792 21.4174 99.0235 20.1901 100.609 20.1901C101.768 20.1901 102.808 20.8379 103.063 22.0481H104.12ZM105.691 28.0481H106.697V23.9061C106.697 23.0197 107.396 22.372 108.351 22.372C108.619 22.372 108.896 22.4231 108.964 22.4401V21.4174C108.849 21.4089 108.585 21.4004 108.436 21.4004C107.652 21.4004 106.97 21.8435 106.731 22.4913H106.663V21.5026H105.691V28.0481ZM112.701 28.1845C114.031 28.1845 115.003 27.5197 115.309 26.5311L114.338 26.2583C114.082 26.9401 113.49 27.2811 112.701 27.2811C111.521 27.2811 110.707 26.5183 110.66 25.1163H115.412V24.6901C115.412 22.2526 113.963 21.4174 112.599 21.4174C110.826 21.4174 109.65 22.8151 109.65 24.8265C109.65 26.8379 110.809 28.1845 112.701 28.1845ZM110.66 24.247C110.728 23.2285 111.449 22.3208 112.599 22.3208C113.69 22.3208 114.389 23.139 114.389 24.247H110.66ZM112.088 20.6163H112.974L114.304 18.639H113.128L112.088 20.6163ZM119.413 28.1845C120.674 28.1845 121.101 27.4004 121.322 27.0424H121.441V28.0481H122.413V19.3208H121.407V22.5424H121.322C121.101 22.2015 120.708 21.4174 119.43 21.4174C117.777 21.4174 116.635 22.7299 116.635 24.7924C116.635 26.872 117.777 28.1845 119.413 28.1845ZM119.549 27.2811C118.288 27.2811 117.64 26.1731 117.64 24.7754C117.64 23.3947 118.271 22.3208 119.549 22.3208C120.777 22.3208 121.424 23.3095 121.424 24.7754C121.424 26.2583 120.76 27.2811 119.549 27.2811ZM124.395 28.0481H125.4V21.5026H124.395V28.0481ZM124.906 20.4117C125.298 20.4117 125.622 20.1049 125.622 19.7299C125.622 19.3549 125.298 19.0481 124.906 19.0481C124.514 19.0481 124.19 19.3549 124.19 19.7299C124.19 20.1049 124.514 20.4117 124.906 20.4117ZM130.089 21.5026H128.691V19.9345H127.685V21.5026H126.697V22.3549H127.685V26.4458C127.685 27.5879 128.606 28.1333 129.458 28.1333C129.833 28.1333 130.072 28.0651 130.208 28.014L130.004 27.1106C129.918 27.1276 129.782 27.1617 129.56 27.1617C129.117 27.1617 128.691 27.0254 128.691 26.1731V22.3549H130.089V21.5026ZM134.19 28.1845C135.963 28.1845 137.156 26.8379 137.156 24.8095C137.156 22.764 135.963 21.4174 134.19 21.4174C132.418 21.4174 131.224 22.764 131.224 24.8095C131.224 26.8379 132.418 28.1845 134.19 28.1845ZM134.19 27.2811C132.844 27.2811 132.23 26.122 132.23 24.8095C132.23 23.497 132.844 22.3208 134.19 22.3208C135.537 22.3208 136.151 23.497 136.151 24.8095C136.151 26.122 135.537 27.2811 134.19 27.2811Z" fill="white"/>
<path d="M91.3376 123.807H92.3944V120.398H94.3035C94.3802 120.398 94.4526 120.398 94.5251 120.394L96.366 123.807H97.5933L95.6203 120.202C96.7325 119.823 97.2524 118.915 97.2524 117.756C97.2524 116.214 96.3319 115.08 94.2864 115.08H91.3376V123.807ZM92.3944 119.444V116.018H94.2524C95.6671 116.018 96.2126 116.708 96.2126 117.756C96.2126 118.805 95.6671 119.444 94.2694 119.444H92.3944ZM101.551 123.944C102.881 123.944 103.852 123.279 104.159 122.29L103.187 122.018C102.932 122.699 102.339 123.04 101.551 123.04C100.371 123.04 99.5567 122.278 99.5098 120.876H104.261V120.449C104.261 118.012 102.812 117.177 101.449 117.177C99.676 117.177 98.4999 118.574 98.4999 120.586C98.4999 122.597 99.659 123.944 101.551 123.944ZM99.5098 120.006C99.578 118.988 100.298 118.08 101.449 118.08C102.54 118.08 103.239 118.898 103.239 120.006H99.5098ZM108.45 123.944C109.899 123.944 110.854 123.057 111.024 121.898H110.018C109.831 122.614 109.234 123.04 108.45 123.04C107.257 123.04 106.49 122.052 106.49 120.535C106.49 119.052 107.274 118.08 108.45 118.08C109.337 118.08 109.865 118.626 110.018 119.222H111.024C110.854 117.995 109.814 117.177 108.433 117.177C106.66 117.177 105.484 118.574 105.484 120.569C105.484 122.529 106.609 123.944 108.45 123.944ZM115.239 123.944C116.568 123.944 117.54 123.279 117.846 122.29L116.875 122.018C116.619 122.699 116.027 123.04 115.239 123.04C114.058 123.04 113.244 122.278 113.197 120.876H117.949V120.449C117.949 118.012 116.5 117.177 115.136 117.177C113.364 117.177 112.187 118.574 112.187 120.586C112.187 122.597 113.346 123.944 115.239 123.944ZM113.197 120.006C113.265 118.988 113.986 118.08 115.136 118.08C116.227 118.08 116.926 118.898 116.926 120.006H113.197ZM119.615 123.807H120.587V122.802H120.706C120.927 123.16 121.354 123.944 122.615 123.944C124.251 123.944 125.393 122.631 125.393 120.552C125.393 118.489 124.251 117.177 122.598 117.177C121.319 117.177 120.927 117.961 120.706 118.302H120.621V115.08H119.615V123.807ZM120.604 120.535C120.604 119.069 121.251 118.08 122.479 118.08C123.757 118.08 124.388 119.154 124.388 120.535C124.388 121.932 123.74 123.04 122.479 123.04C121.268 123.04 120.604 122.018 120.604 120.535ZM129.676 123.944C131.006 123.944 131.977 123.279 132.284 122.29L131.312 122.018C131.057 122.699 130.464 123.04 129.676 123.04C128.496 123.04 127.682 122.278 127.635 120.876H132.386V120.449C132.386 118.012 130.937 117.177 129.574 117.177C127.801 117.177 126.625 118.574 126.625 120.586C126.625 122.597 127.784 123.944 129.676 123.944ZM127.635 120.006C127.703 118.988 128.423 118.08 129.574 118.08C130.665 118.08 131.364 118.898 131.364 120.006H127.635ZM139.95 123.944C141.723 123.944 142.916 122.597 142.916 120.569C142.916 118.523 141.723 117.177 139.95 117.177C138.177 117.177 136.984 118.523 136.984 120.569C136.984 122.597 138.177 123.944 139.95 123.944ZM139.95 123.04C138.604 123.04 137.99 121.881 137.99 120.569C137.99 119.256 138.604 118.08 139.95 118.08C141.297 118.08 141.91 119.256 141.91 120.569C141.91 121.881 141.297 123.04 139.95 123.04ZM104.12 133.807C103.796 132.018 102.364 130.961 100.609 130.961C98.3758 130.961 96.7564 132.682 96.7564 135.444C96.7564 138.205 98.3758 139.927 100.609 139.927C102.364 139.927 103.796 138.87 104.12 137.08H103.063C102.808 138.29 101.768 138.938 100.609 138.938C99.0235 138.938 97.7792 137.711 97.7792 135.444C97.7792 133.177 99.0235 131.949 100.609 131.949C101.768 131.949 102.808 132.597 103.063 133.807H104.12ZM105.691 139.807H106.697V135.665C106.697 134.779 107.396 134.131 108.351 134.131C108.619 134.131 108.896 134.182 108.964 134.199V133.177C108.849 133.168 108.585 133.16 108.436 133.16C107.652 133.16 106.97 133.603 106.731 134.251H106.663V133.262H105.691V139.807ZM112.701 139.944C114.031 139.944 115.003 139.279 115.309 138.29L114.338 138.018C114.082 138.699 113.49 139.04 112.701 139.04C111.521 139.04 110.707 138.278 110.66 136.876H115.412V136.449C115.412 134.012 113.963 133.177 112.599 133.177C110.826 133.177 109.65 134.574 109.65 136.586C109.65 138.597 110.809 139.944 112.701 139.944ZM110.66 136.006C110.728 134.988 111.449 134.08 112.599 134.08C113.69 134.08 114.389 134.898 114.389 136.006H110.66ZM112.088 132.376H112.974L114.304 130.398H113.128L112.088 132.376ZM119.413 139.944C120.674 139.944 121.101 139.16 121.322 138.802H121.441V139.807H122.413V131.08H121.407V134.302H121.322C121.101 133.961 120.708 133.177 119.43 133.177C117.777 133.177 116.635 134.489 116.635 136.552C116.635 138.631 117.777 139.944 119.413 139.944ZM119.549 139.04C118.288 139.04 117.64 137.932 117.64 136.535C117.64 135.154 118.271 134.08 119.549 134.08C120.777 134.08 121.424 135.069 121.424 136.535C121.424 138.018 120.76 139.04 119.549 139.04ZM124.395 139.807H125.4V133.262H124.395V139.807ZM124.906 132.171C125.298 132.171 125.622 131.864 125.622 131.489C125.622 131.114 125.298 130.807 124.906 130.807C124.514 130.807 124.19 131.114 124.19 131.489C124.19 131.864 124.514 132.171 124.906 132.171ZM130.089 133.262H128.691V131.694H127.685V133.262H126.697V134.114H127.685V138.205C127.685 139.347 128.606 139.893 129.458 139.893C129.833 139.893 130.072 139.824 130.208 139.773L130.004 138.87C129.918 138.887 129.782 138.921 129.56 138.921C129.117 138.921 128.691 138.785 128.691 137.932V134.114H130.089V133.262ZM134.19 139.944C135.963 139.944 137.156 138.597 137.156 136.569C137.156 134.523 135.963 133.177 134.19 133.177C132.418 133.177 131.224 134.523 131.224 136.569C131.224 138.597 132.418 139.944 134.19 139.944ZM134.19 139.04C132.844 139.04 132.23 137.881 132.23 136.569C132.23 135.256 132.844 134.08 134.19 134.08C135.537 134.08 136.151 135.256 136.151 136.569C136.151 137.881 135.537 139.04 134.19 139.04Z" fill="white"/>
<path d="M100.458 242.802H101.481C101.434 241.485 100.219 240.501 98.5318 240.501C96.8614 240.501 95.5489 241.472 95.5489 242.938C95.5489 244.114 96.4011 244.813 97.7648 245.205L98.8386 245.512C99.7591 245.768 100.577 246.091 100.577 246.961C100.577 247.915 99.6568 248.546 98.4466 248.546C97.4068 248.546 96.4864 248.086 96.4011 247.097H95.3102C95.4125 248.529 96.5716 249.501 98.4466 249.501C100.458 249.501 101.6 248.393 101.6 246.978C101.6 245.341 100.049 244.813 99.1455 244.574L98.2591 244.336C97.6114 244.165 96.5716 243.824 96.5716 242.887C96.5716 242.052 97.3386 241.438 98.4977 241.438C99.5546 241.438 100.356 241.941 100.458 242.802ZM105.86 249.484C107.633 249.484 108.826 248.137 108.826 246.109C108.826 244.063 107.633 242.716 105.86 242.716C104.088 242.716 102.894 244.063 102.894 246.109C102.894 248.137 104.088 249.484 105.86 249.484ZM105.86 248.58C104.514 248.58 103.9 247.421 103.9 246.109C103.9 244.796 104.514 243.62 105.86 243.62C107.207 243.62 107.821 244.796 107.821 246.109C107.821 247.421 107.207 248.58 105.86 248.58ZM111.367 240.62H110.361V249.347H111.367V240.62ZM113.209 249.347H114.215V242.802H113.209V249.347ZM113.72 241.711C114.112 241.711 114.436 241.404 114.436 241.029C114.436 240.654 114.112 240.347 113.72 240.347C113.328 240.347 113.004 240.654 113.004 241.029C113.004 241.404 113.328 241.711 113.72 241.711ZM118.716 249.484C120.165 249.484 121.119 248.597 121.29 247.438H120.284C120.096 248.154 119.5 248.58 118.716 248.58C117.523 248.58 116.756 247.591 116.756 246.074C116.756 244.591 117.54 243.62 118.716 243.62C119.602 243.62 120.131 244.165 120.284 244.762H121.29C121.119 243.535 120.079 242.716 118.699 242.716C116.926 242.716 115.75 244.114 115.75 246.109C115.75 248.069 116.875 249.484 118.716 249.484ZM122.76 249.347H123.765V242.802H122.76V249.347ZM123.271 241.711C123.663 241.711 123.987 241.404 123.987 241.029C123.987 240.654 123.663 240.347 123.271 240.347C122.879 240.347 122.555 240.654 122.555 241.029C122.555 241.404 122.879 241.711 123.271 241.711ZM128.454 242.802H127.056V241.234H126.051V242.802H125.062V243.654H126.051V247.745C126.051 248.887 126.971 249.432 127.823 249.432C128.198 249.432 128.437 249.364 128.573 249.313L128.369 248.41C128.284 248.427 128.147 248.461 127.926 248.461C127.482 248.461 127.056 248.324 127.056 247.472V243.654H128.454V242.802ZM131.893 249.501C133.035 249.501 133.632 248.887 133.836 248.461H133.887V249.347H134.893V245.035C134.893 242.955 133.308 242.716 132.473 242.716C131.484 242.716 130.359 243.057 129.848 244.251L130.802 244.591C131.024 244.114 131.548 243.603 132.507 243.603C133.431 243.603 133.887 244.093 133.887 244.932V244.966C133.887 245.452 133.393 245.41 132.2 245.563C130.985 245.721 129.66 245.989 129.66 247.489C129.66 248.768 130.649 249.501 131.893 249.501ZM132.046 248.597C131.245 248.597 130.666 248.239 130.666 247.54C130.666 246.773 131.365 246.535 132.149 246.432C132.575 246.381 133.717 246.262 133.887 246.057V246.978C133.887 247.796 133.24 248.597 132.046 248.597ZM80.2868 265.347H81.3436V262.16H83.2527C85.2854 262.16 86.2016 260.924 86.2016 259.381C86.2016 257.839 85.2854 256.62 83.2357 256.62H80.2868V265.347ZM81.3436 261.222V257.557H83.2016C84.6206 257.557 85.1618 258.333 85.1618 259.381C85.1618 260.43 84.6206 261.222 83.2186 261.222H81.3436ZM90.3564 265.484C92.1291 265.484 93.3223 264.137 93.3223 262.109C93.3223 260.063 92.1291 258.716 90.3564 258.716C88.5837 258.716 87.3905 260.063 87.3905 262.109C87.3905 264.137 88.5837 265.484 90.3564 265.484ZM90.3564 264.58C89.0098 264.58 88.3962 263.421 88.3962 262.109C88.3962 260.796 89.0098 259.62 90.3564 259.62C91.703 259.62 92.3166 260.796 92.3166 262.109C92.3166 263.421 91.703 264.58 90.3564 264.58ZM94.8575 265.347H95.8631V261.205C95.8631 260.319 96.562 259.671 97.5166 259.671C97.785 259.671 98.062 259.722 98.1302 259.739V258.716C98.0151 258.708 97.7509 258.699 97.6018 258.699C96.8177 258.699 96.1359 259.143 95.8972 259.79H95.8291V258.802H94.8575V265.347ZM102.579 258.802H101.181V257.234H100.176V258.802H99.187V259.654H100.176V263.745C100.176 264.887 101.096 265.432 101.948 265.432C102.323 265.432 102.562 265.364 102.698 265.313L102.494 264.41C102.409 264.427 102.272 264.461 102.051 264.461C101.607 264.461 101.181 264.324 101.181 263.472V259.654H102.579V258.802ZM106.018 265.501C107.16 265.501 107.757 264.887 107.961 264.461H108.012V265.347H109.018V261.035C109.018 258.955 107.433 258.716 106.598 258.716C105.609 258.716 104.484 259.057 103.973 260.251L104.927 260.591C105.149 260.114 105.673 259.603 106.632 259.603C107.556 259.603 108.012 260.093 108.012 260.932V260.966C108.012 261.452 107.518 261.41 106.325 261.563C105.11 261.721 103.785 261.989 103.785 263.489C103.785 264.768 104.774 265.501 106.018 265.501ZM106.171 264.597C105.37 264.597 104.791 264.239 104.791 263.54C104.791 262.773 105.49 262.535 106.274 262.432C106.7 262.381 107.842 262.262 108.012 262.057V262.978C108.012 263.796 107.365 264.597 106.171 264.597ZM110.99 265.347H111.962V264.341H112.081C112.302 264.699 112.729 265.484 113.99 265.484C115.626 265.484 116.768 264.171 116.768 262.091C116.768 260.029 115.626 258.716 113.973 258.716C112.694 258.716 112.302 259.501 112.081 259.841H111.996V256.62H110.99V265.347ZM111.979 262.074C111.979 260.609 112.626 259.62 113.854 259.62C115.132 259.62 115.763 260.694 115.763 262.074C115.763 263.472 115.115 264.58 113.854 264.58C112.643 264.58 111.979 263.557 111.979 262.074ZM118.307 265.347H119.312V258.802H118.307V265.347ZM118.818 257.711C119.21 257.711 119.534 257.404 119.534 257.029C119.534 256.654 119.21 256.347 118.818 256.347C118.426 256.347 118.102 256.654 118.102 257.029C118.102 257.404 118.426 257.711 118.818 257.711ZM122.16 256.62H121.154V265.347H122.16V256.62ZM124.002 265.347H125.008V258.802H124.002V265.347ZM124.513 257.711C124.905 257.711 125.229 257.404 125.229 257.029C125.229 256.654 124.905 256.347 124.513 256.347C124.121 256.347 123.797 256.654 123.797 257.029C123.797 257.404 124.121 257.711 124.513 257.711ZM129.321 265.484C130.583 265.484 131.009 264.699 131.23 264.341H131.35V265.347H132.321V256.62H131.316V259.841H131.23C131.009 259.501 130.617 258.716 129.338 258.716C127.685 258.716 126.543 260.029 126.543 262.091C126.543 264.171 127.685 265.484 129.321 265.484ZM129.458 264.58C128.196 264.58 127.549 263.472 127.549 262.074C127.549 260.694 128.179 259.62 129.458 259.62C130.685 259.62 131.333 260.609 131.333 262.074C131.333 263.557 130.668 264.58 129.458 264.58ZM136.229 265.501C137.371 265.501 137.968 264.887 138.172 264.461H138.223V265.347H139.229V261.035C139.229 258.955 137.644 258.716 136.808 258.716C135.82 258.716 134.695 259.057 134.183 260.251L135.138 260.591C135.36 260.114 135.884 259.603 136.843 259.603C137.767 259.603 138.223 260.093 138.223 260.932V260.966C138.223 261.452 137.729 261.41 136.536 261.563C135.321 261.721 133.996 261.989 133.996 263.489C133.996 264.768 134.985 265.501 136.229 265.501ZM136.382 264.597C135.581 264.597 135.002 264.239 135.002 263.54C135.002 262.773 135.701 262.535 136.485 262.432C136.911 262.381 138.053 262.262 138.223 262.057V262.978C138.223 263.796 137.576 264.597 136.382 264.597ZM143.536 265.484C144.797 265.484 145.224 264.699 145.445 264.341H145.564V265.347H146.536V256.62H145.53V259.841H145.445C145.224 259.501 144.832 258.716 143.553 258.716C141.9 258.716 140.758 260.029 140.758 262.091C140.758 264.171 141.9 265.484 143.536 265.484ZM143.672 264.58C142.411 264.58 141.763 263.472 141.763 262.074C141.763 260.694 142.394 259.62 143.672 259.62C144.9 259.62 145.547 260.609 145.547 262.074C145.547 263.557 144.883 264.58 143.672 264.58ZM151.262 265.484C152.591 265.484 153.563 264.819 153.87 263.83L152.898 263.557C152.643 264.239 152.05 264.58 151.262 264.58C150.082 264.58 149.268 263.817 149.221 262.415H153.972V261.989C153.972 259.552 152.523 258.716 151.16 258.716C149.387 258.716 148.211 260.114 148.211 262.126C148.211 264.137 149.37 265.484 151.262 265.484ZM149.221 261.546C149.289 260.528 150.009 259.62 151.16 259.62C152.251 259.62 152.949 260.438 152.949 261.546H149.221Z" fill="white"/>
<path d="M58.8185 330.833H59.8754V327.424H61.7844C61.8612 327.424 61.9336 327.424 62.006 327.419L63.8469 330.833H65.0742L63.1012 327.228C64.2134 326.848 64.7333 325.941 64.7333 324.782C64.7333 323.239 63.8129 322.105 61.7674 322.105H58.8185V330.833ZM59.8754 326.469V323.043H61.7333C63.1481 323.043 63.6935 323.733 63.6935 324.782C63.6935 325.83 63.1481 326.469 61.7504 326.469H59.8754ZM69.032 330.969C70.3615 330.969 71.3331 330.304 71.6399 329.316L70.6683 329.043C70.4126 329.725 69.8203 330.066 69.032 330.066C67.8516 330.066 67.0376 329.303 66.9908 327.901H71.7422V327.475C71.7422 325.037 70.2933 324.202 68.9297 324.202C67.157 324.202 65.9808 325.6 65.9808 327.611C65.9808 329.623 67.1399 330.969 69.032 330.969ZM66.9908 327.032C67.0589 326.013 67.7791 325.105 68.9297 325.105C70.0206 325.105 70.7195 325.924 70.7195 327.032H66.9908ZM73.272 333.287H74.2777V329.827H74.3629C74.5845 330.185 75.0107 330.969 76.272 330.969C77.9084 330.969 79.0504 329.657 79.0504 327.577C79.0504 325.515 77.9084 324.202 76.255 324.202C74.9766 324.202 74.5845 324.986 74.3629 325.327H74.2436V324.287H73.272V333.287ZM74.2607 327.56C74.2607 326.094 74.9084 325.105 76.1357 325.105C77.4141 325.105 78.0447 326.179 78.0447 327.56C78.0447 328.958 77.397 330.066 76.1357 330.066C74.9254 330.066 74.2607 329.043 74.2607 327.56ZM82.5107 330.986C83.6527 330.986 84.2493 330.373 84.4538 329.946H84.505V330.833H85.5107V326.52C85.5107 324.441 83.9254 324.202 83.0902 324.202C82.1016 324.202 80.9766 324.543 80.4652 325.736L81.4197 326.077C81.6413 325.6 82.1655 325.088 83.1243 325.088C84.049 325.088 84.505 325.579 84.505 326.418V326.452C84.505 326.938 84.0107 326.895 82.8175 327.049C81.603 327.206 80.2777 327.475 80.2777 328.975C80.2777 330.253 81.2663 330.986 82.5107 330.986ZM82.6641 330.083C81.8629 330.083 81.2834 329.725 81.2834 329.026C81.2834 328.259 81.9822 328.02 82.7663 327.918C83.1925 327.867 84.3345 327.748 84.505 327.543V328.463C84.505 329.282 83.8572 330.083 82.6641 330.083ZM91.9826 325.753C91.6673 324.824 90.9599 324.202 89.6644 324.202C88.2837 324.202 87.261 324.986 87.261 326.094C87.261 326.998 87.7979 327.603 88.9996 327.884L90.0906 328.14C90.7511 328.293 91.0621 328.608 91.0621 329.06C91.0621 329.623 90.4656 330.083 89.5281 330.083C88.7056 330.083 88.19 329.729 88.011 329.026L87.0565 329.265C87.2908 330.377 88.207 330.969 89.5451 330.969C91.0664 330.969 92.1019 330.138 92.1019 329.009C92.1019 328.097 91.5309 327.522 90.3633 327.236L89.3917 326.998C88.6161 326.806 88.2667 326.546 88.2667 326.043C88.2667 325.48 88.8633 325.071 89.6644 325.071C90.5423 325.071 90.9045 325.557 91.0792 326.009L91.9826 325.753ZM98.2521 325.753C97.9368 324.824 97.2294 324.202 95.9339 324.202C94.5533 324.202 93.5305 324.986 93.5305 326.094C93.5305 326.998 94.0675 327.603 95.2692 327.884L96.3601 328.14C97.0206 328.293 97.3317 328.608 97.3317 329.06C97.3317 329.623 96.7351 330.083 95.7976 330.083C94.9751 330.083 94.4595 329.729 94.2805 329.026L93.326 329.265C93.5604 330.377 94.4766 330.969 95.8146 330.969C97.3359 330.969 98.3714 330.138 98.3714 329.009C98.3714 328.097 97.8004 327.522 96.6328 327.236L95.6612 326.998C94.8857 326.806 94.5362 326.546 94.5362 326.043C94.5362 325.48 95.1328 325.071 95.9339 325.071C96.8118 325.071 97.174 325.557 97.3487 326.009L98.2521 325.753ZM101.811 330.986C102.953 330.986 103.55 330.373 103.755 329.946H103.806V330.833H104.811V326.52C104.811 324.441 103.226 324.202 102.391 324.202C101.402 324.202 100.277 324.543 99.766 325.736L100.721 326.077C100.942 325.6 101.466 325.088 102.425 325.088C103.35 325.088 103.806 325.579 103.806 326.418V326.452C103.806 326.938 103.311 326.895 102.118 327.049C100.904 327.206 99.5785 327.475 99.5785 328.975C99.5785 330.253 100.567 330.986 101.811 330.986ZM101.965 330.083C101.164 330.083 100.584 329.725 100.584 329.026C100.584 328.259 101.283 328.02 102.067 327.918C102.493 327.867 103.635 327.748 103.806 327.543V328.463C103.806 329.282 103.158 330.083 101.965 330.083ZM115.374 324.287H114.283L112.477 329.503H112.408L110.602 324.287H109.511L111.931 330.833H112.954L115.374 324.287ZM118.429 330.986C119.571 330.986 120.167 330.373 120.372 329.946H120.423V330.833H121.429V326.52C121.429 324.441 119.843 324.202 119.008 324.202C118.02 324.202 116.895 324.543 116.383 325.736L117.338 326.077C117.559 325.6 118.083 325.088 119.042 325.088C119.967 325.088 120.423 325.579 120.423 326.418V326.452C120.423 326.938 119.929 326.895 118.735 327.049C117.521 327.206 116.196 327.475 116.196 328.975C116.196 330.253 117.184 330.986 118.429 330.986ZM118.582 330.083C117.781 330.083 117.201 329.725 117.201 329.026C117.201 328.259 117.9 328.02 118.684 327.918C119.11 327.867 120.252 327.748 120.423 327.543V328.463C120.423 329.282 119.775 330.083 118.582 330.083ZM124.27 322.105H123.264V330.833H124.27V322.105ZM128.771 330.969C130.544 330.969 131.737 329.623 131.737 327.594C131.737 325.549 130.544 324.202 128.771 324.202C126.998 324.202 125.805 325.549 125.805 327.594C125.805 329.623 126.998 330.969 128.771 330.969ZM128.771 330.066C127.424 330.066 126.811 328.907 126.811 327.594C126.811 326.282 127.424 325.105 128.771 325.105C130.118 325.105 130.731 326.282 130.731 327.594C130.731 328.907 130.118 330.066 128.771 330.066ZM133.272 330.833H134.278V326.691C134.278 325.804 134.977 325.157 135.931 325.157C136.2 325.157 136.477 325.208 136.545 325.225V324.202C136.43 324.194 136.165 324.185 136.016 324.185C135.232 324.185 134.55 324.628 134.312 325.276H134.244V324.287H133.272V330.833ZM140.282 330.969C141.612 330.969 142.583 330.304 142.89 329.316L141.918 329.043C141.663 329.725 141.07 330.066 140.282 330.066C139.102 330.066 138.288 329.303 138.241 327.901H142.992V327.475C142.992 325.037 141.543 324.202 140.18 324.202C138.407 324.202 137.231 325.6 137.231 327.611C137.231 329.623 138.39 330.969 140.282 330.969ZM138.241 327.032C138.309 326.013 139.029 325.105 140.18 325.105C141.271 325.105 141.969 325.924 141.969 327.032H138.241ZM149.158 325.753C148.843 324.824 148.136 324.202 146.84 324.202C145.46 324.202 144.437 324.986 144.437 326.094C144.437 326.998 144.974 327.603 146.175 327.884L147.266 328.14C147.927 328.293 148.238 328.608 148.238 329.06C148.238 329.623 147.641 330.083 146.704 330.083C145.881 330.083 145.366 329.729 145.187 329.026L144.232 329.265C144.467 330.377 145.383 330.969 146.721 330.969C148.242 330.969 149.278 330.138 149.278 329.009C149.278 328.097 148.707 327.522 147.539 327.236L146.567 326.998C145.792 326.806 145.442 326.546 145.442 326.043C145.442 325.48 146.039 325.071 146.84 325.071C147.718 325.071 148.08 325.557 148.255 326.009L149.158 325.753ZM154.167 333.287H155.172V329.827H155.257C155.479 330.185 155.905 330.969 157.167 330.969C158.803 330.969 159.945 329.657 159.945 327.577C159.945 325.515 158.803 324.202 157.15 324.202C155.871 324.202 155.479 324.986 155.257 325.327H155.138V324.287H154.167V333.287ZM155.155 327.56C155.155 326.094 155.803 325.105 157.03 325.105C158.309 325.105 158.939 326.179 158.939 327.56C158.939 328.958 158.292 330.066 157.03 330.066C155.82 330.066 155.155 329.043 155.155 327.56ZM164.138 330.969C165.911 330.969 167.104 329.623 167.104 327.594C167.104 325.549 165.911 324.202 164.138 324.202C162.365 324.202 161.172 325.549 161.172 327.594C161.172 329.623 162.365 330.969 164.138 330.969ZM164.138 330.066C162.792 330.066 162.178 328.907 162.178 327.594C162.178 326.282 162.792 325.105 164.138 325.105C165.485 325.105 166.098 326.282 166.098 327.594C166.098 328.907 165.485 330.066 164.138 330.066ZM168.639 330.833H169.645V326.691C169.645 325.804 170.344 325.157 171.298 325.157C171.567 325.157 171.844 325.208 171.912 325.225V324.202C171.797 324.194 171.533 324.185 171.384 324.185C170.599 324.185 169.918 324.628 169.679 325.276H169.611V324.287H168.639V330.833ZM176.361 324.287H174.963V322.719H173.957V324.287H172.969V325.14H173.957V329.23C173.957 330.373 174.878 330.918 175.73 330.918C176.105 330.918 176.344 330.85 176.48 330.799L176.276 329.895C176.19 329.912 176.054 329.946 175.832 329.946C175.389 329.946 174.963 329.81 174.963 328.958V325.14H176.361V324.287ZM179.8 330.986C180.942 330.986 181.538 330.373 181.743 329.946H181.794V330.833H182.8V326.52C182.8 324.441 181.214 324.202 180.379 324.202C179.391 324.202 178.266 324.543 177.754 325.736L178.709 326.077C178.93 325.6 179.455 325.088 180.413 325.088C181.338 325.088 181.794 325.579 181.794 326.418V326.452C181.794 326.938 181.3 326.895 180.107 327.049C178.892 327.206 177.567 327.475 177.567 328.975C177.567 330.253 178.555 330.986 179.8 330.986ZM179.953 330.083C179.152 330.083 178.572 329.725 178.572 329.026C178.572 328.259 179.271 328.02 180.055 327.918C180.482 327.867 181.624 327.748 181.794 327.543V328.463C181.794 329.282 181.146 330.083 179.953 330.083ZM184.772 330.833H185.743V329.827H185.863C186.084 330.185 186.51 330.969 187.772 330.969C189.408 330.969 190.55 329.657 190.55 327.577C190.55 325.515 189.408 324.202 187.755 324.202C186.476 324.202 186.084 324.986 185.863 325.327H185.777V322.105H184.772V330.833ZM185.76 327.56C185.76 326.094 186.408 325.105 187.635 325.105C188.914 325.105 189.544 326.179 189.544 327.56C189.544 328.958 188.897 330.066 187.635 330.066C186.425 330.066 185.76 329.043 185.76 327.56ZM192.088 330.833H193.094V324.287H192.088V330.833ZM192.6 323.196C192.992 323.196 193.316 322.89 193.316 322.515C193.316 322.14 192.992 321.833 192.6 321.833C192.208 321.833 191.884 322.14 191.884 322.515C191.884 322.89 192.208 323.196 192.6 323.196ZM195.942 322.105H194.936V330.833H195.942V322.105ZM197.784 330.833H198.789V324.287H197.784V330.833ZM198.295 323.196C198.687 323.196 199.011 322.89 199.011 322.515C199.011 322.14 198.687 321.833 198.295 321.833C197.903 321.833 197.579 322.14 197.579 322.515C197.579 322.89 197.903 323.196 198.295 323.196ZM203.103 330.969C204.364 330.969 204.79 330.185 205.012 329.827H205.131V330.833H206.103V322.105H205.097V325.327H205.012C204.79 324.986 204.398 324.202 203.12 324.202C201.467 324.202 200.325 325.515 200.325 327.577C200.325 329.657 201.467 330.969 203.103 330.969ZM203.239 330.066C201.978 330.066 201.33 328.958 201.33 327.56C201.33 326.179 201.961 325.105 203.239 325.105C204.467 325.105 205.114 326.094 205.114 327.56C205.114 329.043 204.45 330.066 203.239 330.066ZM210.011 330.986C211.153 330.986 211.749 330.373 211.954 329.946H212.005V330.833H213.011V326.52C213.011 324.441 211.425 324.202 210.59 324.202C209.602 324.202 208.477 324.543 207.965 325.736L208.92 326.077C209.141 325.6 209.665 325.088 210.624 325.088C211.549 325.088 212.005 325.579 212.005 326.418V326.452C212.005 326.938 211.511 326.895 210.317 327.049C209.103 327.206 207.778 327.475 207.778 328.975C207.778 330.253 208.766 330.986 210.011 330.986ZM210.164 330.083C209.363 330.083 208.783 329.725 208.783 329.026C208.783 328.259 209.482 328.02 210.266 327.918C210.692 327.867 211.835 327.748 212.005 327.543V328.463C212.005 329.282 211.357 330.083 210.164 330.083ZM217.318 330.969C218.579 330.969 219.005 330.185 219.227 329.827H219.346V330.833H220.318V322.105H219.312V325.327H219.227C219.005 324.986 218.613 324.202 217.335 324.202C215.681 324.202 214.539 325.515 214.539 327.577C214.539 329.657 215.681 330.969 217.318 330.969ZM217.454 330.066C216.193 330.066 215.545 328.958 215.545 327.56C215.545 326.179 216.176 325.105 217.454 325.105C218.681 325.105 219.329 326.094 219.329 327.56C219.329 329.043 218.664 330.066 217.454 330.066ZM225.044 330.969C226.373 330.969 227.345 330.304 227.652 329.316L226.68 329.043C226.424 329.725 225.832 330.066 225.044 330.066C223.863 330.066 223.049 329.303 223.002 327.901H227.754V327.475C227.754 325.037 226.305 324.202 224.941 324.202C223.169 324.202 221.993 325.6 221.993 327.611C221.993 329.623 223.152 330.969 225.044 330.969ZM223.002 327.032C223.071 326.013 223.791 325.105 224.941 325.105C226.032 325.105 226.731 325.924 226.731 327.032H223.002ZM235.318 330.969C237.091 330.969 238.284 329.623 238.284 327.594C238.284 325.549 237.091 324.202 235.318 324.202C233.545 324.202 232.352 325.549 232.352 327.594C232.352 329.623 233.545 330.969 235.318 330.969ZM235.318 330.066C233.971 330.066 233.358 328.907 233.358 327.594C233.358 326.282 233.971 325.105 235.318 325.105C236.664 325.105 237.278 326.282 237.278 327.594C237.278 328.907 236.664 330.066 235.318 330.066ZM243.944 328.157C243.944 329.384 243.006 329.946 242.256 329.946C241.421 329.946 240.825 329.333 240.825 328.378V324.287H239.819V328.446C239.819 330.117 240.705 330.918 241.933 330.918C242.921 330.918 243.569 330.39 243.876 329.725H243.944V330.833H244.95V324.287H243.944V328.157ZM58.7583 349.287H59.764V345.827H59.8493C60.0708 346.185 60.497 346.969 61.7583 346.969C63.3947 346.969 64.5368 345.657 64.5368 343.577C64.5368 341.515 63.3947 340.202 61.7413 340.202C60.4629 340.202 60.0708 340.986 59.8493 341.327H59.7299V340.287H58.7583V349.287ZM59.747 343.56C59.747 342.094 60.3947 341.105 61.622 341.105C62.9004 341.105 63.5311 342.179 63.5311 343.56C63.5311 344.958 62.8833 346.066 61.622 346.066C60.4118 346.066 59.747 345.043 59.747 343.56ZM68.7299 346.969C70.5027 346.969 71.6958 345.623 71.6958 343.594C71.6958 341.549 70.5027 340.202 68.7299 340.202C66.9572 340.202 65.764 341.549 65.764 343.594C65.764 345.623 66.9572 346.969 68.7299 346.969ZM68.7299 346.066C67.3833 346.066 66.7697 344.907 66.7697 343.594C66.7697 342.282 67.3833 341.105 68.7299 341.105C70.0765 341.105 70.6902 342.282 70.6902 343.594C70.6902 344.907 70.0765 346.066 68.7299 346.066ZM73.231 346.833H74.2367V342.691C74.2367 341.804 74.9355 341.157 75.8901 341.157C76.1586 341.157 76.4355 341.208 76.5037 341.225V340.202C76.3887 340.194 76.1245 340.185 75.9753 340.185C75.1912 340.185 74.5094 340.628 74.2708 341.276H74.2026V340.287H73.231V346.833ZM80.9526 340.287H79.5549V338.719H78.5492V340.287H77.5605V341.14H78.5492V345.23C78.5492 346.373 79.4696 346.918 80.3219 346.918C80.6969 346.918 80.9355 346.85 81.0719 346.799L80.8674 345.895C80.7821 345.912 80.6458 345.946 80.4242 345.946C79.981 345.946 79.5549 345.81 79.5549 344.958V341.14H80.9526V340.287ZM84.3915 346.986C85.5336 346.986 86.1301 346.373 86.3347 345.946H86.3858V346.833H87.3915V342.52C87.3915 340.441 85.8063 340.202 84.9711 340.202C83.9824 340.202 82.8574 340.543 82.3461 341.736L83.3006 342.077C83.5222 341.6 84.0463 341.088 85.0051 341.088C85.9299 341.088 86.3858 341.579 86.3858 342.418V342.452C86.3858 342.938 85.8915 342.895 84.6983 343.049C83.4838 343.206 82.1586 343.475 82.1586 344.975C82.1586 346.253 83.1472 346.986 84.3915 346.986ZM84.5449 346.083C83.7438 346.083 83.1642 345.725 83.1642 345.026C83.1642 344.259 83.8631 344.02 84.6472 343.918C85.0733 343.867 86.2154 343.748 86.3858 343.543V344.463C86.3858 345.282 85.7381 346.083 84.5449 346.083ZM89.3635 346.833H90.335V345.827H90.4544C90.676 346.185 91.1021 346.969 92.3635 346.969C93.9998 346.969 95.1419 345.657 95.1419 343.577C95.1419 341.515 93.9998 340.202 92.3464 340.202C91.068 340.202 90.676 340.986 90.4544 341.327H90.3691V338.105H89.3635V346.833ZM90.3521 343.56C90.3521 342.094 90.9998 341.105 92.2271 341.105C93.5055 341.105 94.1362 342.179 94.1362 343.56C94.1362 344.958 93.4885 346.066 92.2271 346.066C91.0169 346.066 90.3521 345.043 90.3521 343.56ZM96.6802 346.833H97.6859V340.287H96.6802V346.833ZM97.1916 339.196C97.5836 339.196 97.9075 338.89 97.9075 338.515C97.9075 338.14 97.5836 337.833 97.1916 337.833C96.7995 337.833 96.4757 338.14 96.4757 338.515C96.4757 338.89 96.7995 339.196 97.1916 339.196ZM100.534 338.105H99.5279V346.833H100.534V338.105ZM102.376 346.833H103.381V340.287H102.376V346.833ZM102.887 339.196C103.279 339.196 103.603 338.89 103.603 338.515C103.603 338.14 103.279 337.833 102.887 337.833C102.495 337.833 102.171 338.14 102.171 338.515C102.171 338.89 102.495 339.196 102.887 339.196ZM107.695 346.969C108.956 346.969 109.382 346.185 109.604 345.827H109.723V346.833H110.695V338.105H109.689V341.327H109.604C109.382 340.986 108.99 340.202 107.712 340.202C106.058 340.202 104.916 341.515 104.916 343.577C104.916 345.657 106.058 346.969 107.695 346.969ZM107.831 346.066C106.57 346.066 105.922 344.958 105.922 343.56C105.922 342.179 106.553 341.105 107.831 341.105C109.058 341.105 109.706 342.094 109.706 343.56C109.706 345.043 109.041 346.066 107.831 346.066ZM114.602 346.986C115.744 346.986 116.341 346.373 116.546 345.946H116.597V346.833H117.602V342.52C117.602 340.441 116.017 340.202 115.182 340.202C114.193 340.202 113.068 340.543 112.557 341.736L113.512 342.077C113.733 341.6 114.257 341.088 115.216 341.088C116.141 341.088 116.597 341.579 116.597 342.418V342.452C116.597 342.938 116.102 342.895 114.909 343.049C113.695 343.206 112.369 343.475 112.369 344.975C112.369 346.253 113.358 346.986 114.602 346.986ZM114.756 346.083C113.955 346.083 113.375 345.725 113.375 345.026C113.375 344.259 114.074 344.02 114.858 343.918C115.284 343.867 116.426 343.748 116.597 343.543V344.463C116.597 345.282 115.949 346.083 114.756 346.083ZM121.91 346.969C123.171 346.969 123.597 346.185 123.819 345.827H123.938V346.833H124.91V338.105H123.904V341.327H123.819C123.597 340.986 123.205 340.202 121.927 340.202C120.273 340.202 119.131 341.515 119.131 343.577C119.131 345.657 120.273 346.969 121.91 346.969ZM122.046 346.066C120.785 346.066 120.137 344.958 120.137 343.56C120.137 342.179 120.768 341.105 122.046 341.105C123.273 341.105 123.921 342.094 123.921 343.56C123.921 345.043 123.256 346.066 122.046 346.066ZM129.635 346.969C130.965 346.969 131.937 346.304 132.243 345.316L131.272 345.043C131.016 345.725 130.424 346.066 129.635 346.066C128.455 346.066 127.641 345.303 127.594 343.901H132.346V343.475C132.346 341.037 130.897 340.202 129.533 340.202C127.76 340.202 126.584 341.6 126.584 343.611C126.584 345.623 127.743 346.969 129.635 346.969ZM127.594 343.032C127.662 342.013 128.383 341.105 129.533 341.105C130.624 341.105 131.323 341.924 131.323 343.032H127.594ZM139.807 346.236H140.762V343.901H143.097V342.946H140.762V340.611H139.807V342.946H137.472V343.901H139.807V346.236ZM148.536 346.833H149.541V342.691C149.541 341.804 150.24 341.157 151.195 341.157C151.463 341.157 151.74 341.208 151.808 341.225V340.202C151.693 340.194 151.429 340.185 151.28 340.185C150.496 340.185 149.814 340.628 149.575 341.276H149.507V340.287H148.536V346.833ZM155.546 346.969C156.875 346.969 157.847 346.304 158.154 345.316L157.182 345.043C156.926 345.725 156.334 346.066 155.546 346.066C154.365 346.066 153.551 345.303 153.504 343.901H158.256V343.475C158.256 341.037 156.807 340.202 155.443 340.202C153.671 340.202 152.494 341.6 152.494 343.611C152.494 345.623 153.654 346.969 155.546 346.969ZM153.504 343.032C153.573 342.013 154.293 341.105 155.443 341.105C156.534 341.105 157.233 341.924 157.233 343.032H153.504ZM162.7 340.287H161.235V339.623C161.235 338.975 161.507 338.634 162.172 338.634C162.462 338.634 162.632 338.702 162.735 338.736L163.024 337.867C162.871 337.799 162.564 337.696 162.07 337.696C161.132 337.696 160.229 338.259 160.229 339.384V340.287H159.172V341.14H160.229V346.833H161.235V341.14H162.7V340.287ZM164.11 346.833H165.116V340.287H164.11V346.833ZM164.621 339.196C165.013 339.196 165.337 338.89 165.337 338.515C165.337 338.14 165.013 337.833 164.621 337.833C164.229 337.833 163.905 338.14 163.905 338.515C163.905 338.89 164.229 339.196 164.621 339.196ZM167.963 342.895C167.963 341.753 168.671 341.105 169.634 341.105C170.567 341.105 171.134 341.715 171.134 342.742V346.833H172.139V342.674C172.139 341.003 171.249 340.202 169.923 340.202C168.935 340.202 168.321 340.645 168.014 341.31H167.929V340.287H166.958V346.833H167.963V342.895ZM175.903 346.986C177.045 346.986 177.642 346.373 177.846 345.946H177.898V346.833H178.903V342.52C178.903 340.441 177.318 340.202 176.483 340.202C175.494 340.202 174.369 340.543 173.858 341.736L174.812 342.077C175.034 341.6 175.558 341.088 176.517 341.088C177.442 341.088 177.898 341.579 177.898 342.418V342.452C177.898 342.938 177.403 342.895 176.21 343.049C174.996 343.206 173.67 343.475 173.67 344.975C173.67 346.253 174.659 346.986 175.903 346.986ZM176.057 346.083C175.256 346.083 174.676 345.725 174.676 345.026C174.676 344.259 175.375 344.02 176.159 343.918C176.585 343.867 177.727 343.748 177.898 343.543V344.463C177.898 345.282 177.25 346.083 176.057 346.083ZM181.744 342.895C181.744 341.753 182.452 341.105 183.415 341.105C184.348 341.105 184.915 341.715 184.915 342.742V346.833H185.921V342.674C185.921 341.003 185.03 340.202 183.705 340.202C182.716 340.202 182.102 340.645 181.796 341.31H181.71V340.287H180.739V346.833H181.744V342.895ZM189.684 346.986C190.827 346.986 191.423 346.373 191.628 345.946H191.679V346.833H192.684V342.52C192.684 340.441 191.099 340.202 190.264 340.202C189.275 340.202 188.15 340.543 187.639 341.736L188.594 342.077C188.815 341.6 189.339 341.088 190.298 341.088C191.223 341.088 191.679 341.579 191.679 342.418V342.452C191.679 342.938 191.184 342.895 189.991 343.049C188.777 343.206 187.452 343.475 187.452 344.975C187.452 346.253 188.44 346.986 189.684 346.986ZM189.838 346.083C189.037 346.083 188.457 345.725 188.457 345.026C188.457 344.259 189.156 344.02 189.94 343.918C190.366 343.867 191.508 343.748 191.679 343.543V344.463C191.679 345.282 191.031 346.083 189.838 346.083ZM197.179 346.969C198.628 346.969 199.583 346.083 199.753 344.924H198.747C198.56 345.64 197.963 346.066 197.179 346.066C195.986 346.066 195.219 345.077 195.219 343.56C195.219 342.077 196.003 341.105 197.179 341.105C198.066 341.105 198.594 341.651 198.747 342.248H199.753C199.583 341.02 198.543 340.202 197.162 340.202C195.389 340.202 194.213 341.6 194.213 343.594C194.213 345.554 195.338 346.969 197.179 346.969ZM201.223 346.833H202.229V340.287H201.223V346.833ZM201.735 339.196C202.127 339.196 202.45 338.89 202.45 338.515C202.45 338.14 202.127 337.833 201.735 337.833C201.343 337.833 201.019 338.14 201.019 338.515C201.019 338.89 201.343 339.196 201.735 339.196ZM205.997 346.986C207.139 346.986 207.736 346.373 207.94 345.946H207.991V346.833H208.997V342.52C208.997 340.441 207.412 340.202 206.577 340.202C205.588 340.202 204.463 340.543 203.952 341.736L204.906 342.077C205.128 341.6 205.652 341.088 206.611 341.088C207.535 341.088 207.991 341.579 207.991 342.418V342.452C207.991 342.938 207.497 342.895 206.304 343.049C205.089 343.206 203.764 343.475 203.764 344.975C203.764 346.253 204.753 346.986 205.997 346.986ZM206.15 346.083C205.349 346.083 204.77 345.725 204.77 345.026C204.77 344.259 205.469 344.02 206.253 343.918C206.679 343.867 207.821 343.748 207.991 343.543V344.463C207.991 345.282 207.344 346.083 206.15 346.083ZM210.833 346.833H211.838V342.742C211.838 341.783 212.537 341.105 213.321 341.105C214.084 341.105 214.617 341.604 214.617 342.35V346.833H215.639V342.571C215.639 341.728 216.168 341.105 217.088 341.105C217.804 341.105 218.418 341.485 218.418 342.452V346.833H219.423V342.452C219.423 340.914 218.597 340.202 217.429 340.202C216.492 340.202 215.806 340.632 215.469 341.31H215.401C215.077 340.611 214.506 340.202 213.645 340.202C212.793 340.202 212.162 340.611 211.889 341.31H211.804V340.287H210.833V346.833ZM224.007 346.969C225.336 346.969 226.308 346.304 226.615 345.316L225.643 345.043C225.387 345.725 224.795 346.066 224.007 346.066C222.826 346.066 222.012 345.303 221.965 343.901H226.717V343.475C226.717 341.037 225.268 340.202 223.904 340.202C222.132 340.202 220.955 341.6 220.955 343.611C220.955 345.623 222.115 346.969 224.007 346.969ZM221.965 343.032C222.034 342.013 222.754 341.105 223.904 341.105C224.995 341.105 225.694 341.924 225.694 343.032H221.965ZM229.252 342.895C229.252 341.753 229.96 341.105 230.923 341.105C231.856 341.105 232.423 341.715 232.423 342.742V346.833H233.428V342.674C233.428 341.003 232.538 340.202 231.213 340.202C230.224 340.202 229.61 340.645 229.303 341.31H229.218V340.287H228.247V346.833H229.252V342.895ZM238.113 340.287H236.715V338.719H235.709V340.287H234.721V341.14H235.709V345.23C235.709 346.373 236.63 346.918 237.482 346.918C237.857 346.918 238.096 346.85 238.232 346.799L238.028 345.895C237.942 345.912 237.806 345.946 237.584 345.946C237.141 345.946 236.715 345.81 236.715 344.958V341.14H238.113V340.287ZM242.214 346.969C243.987 346.969 245.18 345.623 245.18 343.594C245.18 341.549 243.987 340.202 242.214 340.202C240.442 340.202 239.248 341.549 239.248 343.594C239.248 345.623 240.442 346.969 242.214 346.969ZM242.214 346.066C240.868 346.066 240.254 344.907 240.254 343.594C240.254 342.282 240.868 341.105 242.214 341.105C243.561 341.105 244.175 342.282 244.175 343.594C244.175 344.907 243.561 346.066 242.214 346.066Z" fill="white"/>
<path d="M312.935 140.335C312.935 137.574 311.315 135.852 309.082 135.852C306.849 135.852 305.23 137.574 305.23 140.335C305.23 143.096 306.849 144.818 309.082 144.818C309.653 144.818 310.182 144.707 310.655 144.494L311.418 145.517H312.577L311.439 144.004C312.368 143.241 312.935 141.971 312.935 140.335ZM308.741 141.971L310.037 143.667C309.739 143.774 309.419 143.829 309.082 143.829C307.497 143.829 306.253 142.602 306.253 140.335C306.253 138.068 307.497 136.841 309.082 136.841C310.668 136.841 311.912 138.068 311.912 140.335C311.912 141.652 311.494 142.615 310.83 143.194L309.901 141.971H308.741ZM318.7 142.023C318.7 143.25 317.763 143.812 317.013 143.812C316.178 143.812 315.581 143.199 315.581 142.244V138.153H314.575V142.312C314.575 143.983 315.462 144.784 316.689 144.784C317.678 144.784 318.325 144.256 318.632 143.591H318.7V144.699H319.706V138.153H318.7V142.023ZM321.548 144.699H322.554V138.153H321.548V144.699ZM322.059 137.062C322.451 137.062 322.775 136.756 322.775 136.381C322.775 136.006 322.451 135.699 322.059 135.699C321.667 135.699 321.343 136.006 321.343 136.381C321.343 136.756 321.667 137.062 322.059 137.062ZM327.242 138.153H325.844V136.585H324.839V138.153H323.85V139.006H324.839V143.096C324.839 144.239 325.759 144.784 326.611 144.784C326.986 144.784 327.225 144.716 327.361 144.665L327.157 143.761C327.072 143.778 326.935 143.812 326.714 143.812C326.271 143.812 325.844 143.676 325.844 142.824V139.006H327.242V138.153ZM330.681 144.852C331.823 144.852 332.42 144.239 332.624 143.812H332.675V144.699H333.681V140.386C333.681 138.307 332.096 138.068 331.261 138.068C330.272 138.068 329.147 138.409 328.636 139.602L329.59 139.943C329.812 139.466 330.336 138.954 331.295 138.954C332.219 138.954 332.675 139.444 332.675 140.284V140.318C332.675 140.804 332.181 140.761 330.988 140.915C329.773 141.072 328.448 141.341 328.448 142.841C328.448 144.119 329.437 144.852 330.681 144.852ZM330.834 143.949C330.033 143.949 329.454 143.591 329.454 142.892C329.454 142.125 330.153 141.886 330.937 141.784C331.363 141.733 332.505 141.614 332.675 141.409V142.329C332.675 143.148 332.028 143.949 330.834 143.949ZM308.264 160.699C310.923 160.699 312.423 159.045 312.423 156.318C312.423 153.608 310.923 151.971 308.383 151.971H305.571V160.699H308.264ZM306.628 159.761V152.909H308.315C310.361 152.909 311.401 154.204 311.401 156.318C311.401 158.449 310.361 159.761 308.196 159.761H306.628ZM314.06 160.699H315.065V154.153H314.06V160.699ZM314.111 153.267H314.997L316.327 151.29H315.151L314.111 153.267ZM322.26 154.153H321.169L319.362 159.369H319.294L317.487 154.153H316.396L318.816 160.699H319.839L322.26 154.153ZM323.587 160.699H324.593V154.153H323.587V160.699ZM324.098 153.062C324.49 153.062 324.814 152.756 324.814 152.381C324.814 152.006 324.49 151.699 324.098 151.699C323.706 151.699 323.382 152.006 323.382 152.381C323.382 152.756 323.706 153.062 324.098 153.062ZM328.906 160.835C330.168 160.835 330.594 160.051 330.815 159.693H330.935V160.699H331.906V151.971H330.901V155.193H330.815C330.594 154.852 330.202 154.068 328.923 154.068C327.27 154.068 326.128 155.381 326.128 157.443C326.128 159.523 327.27 160.835 328.906 160.835ZM329.043 159.932C327.781 159.932 327.133 158.824 327.133 157.426C327.133 156.045 327.764 154.971 329.043 154.971C330.27 154.971 330.918 155.96 330.918 157.426C330.918 158.909 330.253 159.932 329.043 159.932ZM335.814 160.852C336.956 160.852 337.553 160.239 337.757 159.812H337.808V160.699H338.814V156.386C338.814 154.307 337.229 154.068 336.393 154.068C335.405 154.068 334.28 154.409 333.768 155.602L334.723 155.943C334.945 155.466 335.469 154.954 336.428 154.954C337.352 154.954 337.808 155.444 337.808 156.284V156.318C337.808 156.804 337.314 156.761 336.121 156.915C334.906 157.072 333.581 157.341 333.581 158.841C333.581 160.119 334.57 160.852 335.814 160.852ZM335.967 159.949C335.166 159.949 334.587 159.591 334.587 158.892C334.587 158.125 335.285 157.886 336.07 157.784C336.496 157.733 337.638 157.614 337.808 157.409V158.329C337.808 159.148 337.16 159.949 335.967 159.949Z" fill="white"/>
<circle cx="205.486" cy="71.1829" r="24" fill="white"/>
<path d="M206.859 60.6607C206.859 61.0351 206.713 61.3933 206.455 61.6567C206.197 61.9199 205.849 62.067 205.486 62.067C205.123 62.067 204.775 61.9199 204.517 61.6567C204.259 61.3933 204.113 61.0351 204.113 60.6607C204.113 60.2863 204.259 59.9281 204.517 59.6647C204.775 59.4014 205.123 59.2544 205.486 59.2544C205.849 59.2544 206.197 59.4014 206.455 59.6647C206.713 59.9281 206.859 60.2863 206.859 60.6607Z" fill="#2B3EA1"/>
<path d="M206.996 54.4716L207.338 54.7269V54.7251L218.775 63.2472C220.169 64.2858 219.439 66.5236 217.735 66.5236H217.176V76.2674L217.292 76.3274C217.973 76.6824 218.546 77.223 218.946 77.8902C219.346 78.5574 219.558 79.3249 219.557 80.1078V82.5388C219.557 82.8057 219.454 83.0609 219.27 83.2483C219.086 83.4356 218.839 83.5399 218.581 83.5399H192.391C191.856 83.5399 191.415 83.0941 191.415 82.5388V80.1078C191.414 79.3249 191.626 78.5574 192.026 77.8902C192.426 77.223 192.999 76.6824 193.68 76.3274L193.796 76.2674V66.5236H193.237C191.534 66.5236 190.802 64.2854 192.197 63.2472L203.976 54.4716C204.415 54.1445 204.944 53.9685 205.486 53.9685C206.028 53.9685 206.557 54.1445 206.996 54.4716ZM205.485 55.9701C205.354 55.9701 205.228 56.0125 205.123 56.0906L193.808 64.5213H217.164L205.847 56.0905C205.743 56.0125 205.616 55.9701 205.485 55.9701ZM215.224 75.8655V66.5236H211.621V75.8655H215.224ZM209.669 75.8655V66.5236H206.462V75.8655H209.669ZM204.51 75.8655V66.5236H201.303V75.8655H204.51ZM193.367 81.5376H217.605V80.1079C217.605 78.8755 216.624 77.8678 215.407 77.8678H195.565C194.348 77.8678 193.367 78.8755 193.367 80.1079V81.5376ZM195.748 66.5236V75.8655H199.351V66.5236H195.748Z" fill="#2B3EA1"/>
<path d="M189.741 264.347H194.091C196.378 264.347 197.596 263.154 197.596 261.533C197.596 260.027 196.517 259.117 195.359 259.062V258.963C196.418 258.724 197.198 257.974 197.198 256.775C197.198 255.249 196.065 254.165 193.818 254.165H189.741V264.347ZM191.894 262.587V259.883H193.698C194.732 259.883 195.374 260.479 195.374 261.319C195.374 262.085 194.852 262.587 193.649 262.587H191.894ZM191.894 258.426V255.905H193.529C194.484 255.905 195.026 256.398 195.026 257.133C195.026 257.939 194.369 258.426 193.489 258.426H191.894ZM202.437 264.496C204.326 264.496 205.599 263.577 205.897 262.16L203.939 262.03C203.725 262.612 203.178 262.915 202.472 262.915C201.413 262.915 200.742 262.214 200.742 261.076V261.071H205.942V260.489C205.942 257.894 204.371 256.611 202.353 256.611C200.105 256.611 198.649 258.207 198.649 260.564C198.649 262.985 200.086 264.496 202.437 264.496ZM200.742 259.758C200.787 258.888 201.448 258.192 202.387 258.192C203.307 258.192 203.943 258.849 203.948 259.758H200.742ZM207.324 264.347H209.442V259.763C209.442 258.918 209.979 258.356 210.685 258.356C211.381 258.356 211.848 258.834 211.848 259.584V264.347H213.902V259.684C213.902 258.893 214.354 258.356 215.125 258.356C215.801 258.356 216.308 258.779 216.308 259.629V264.347H218.421V259.212C218.421 257.556 217.436 256.611 216.015 256.611C214.896 256.611 214.026 257.183 213.713 258.058H213.633C213.39 257.173 212.609 256.611 211.56 256.611C210.531 256.611 209.75 257.158 209.432 258.058H209.343V256.711H207.324V264.347Z" fill="white"/>
<path d="M290.703 226.395H253.656" stroke="white" stroke-width="2"/>
<path d="M170.754 57.1209C171.145 56.7304 171.145 56.0972 170.754 55.7067L164.391 49.3428C164 48.9522 163.367 48.9522 162.976 49.3428C162.586 49.7333 162.586 50.3664 162.976 50.757L168.633 56.4138L162.976 62.0707C162.586 62.4612 162.586 63.0944 162.976 63.4849C163.367 63.8754 164 63.8754 164.391 63.4849L170.754 57.1209ZM61.3379 57.4138L170.047 57.4138L170.047 55.4138L61.3379 55.4138L61.3379 57.4138Z" fill="#5889FA"/>
<path d="M60.6308 91.1003C60.2402 91.4908 60.2402 92.1239 60.6308 92.5145L66.9947 98.8784C67.3853 99.269 68.0184 99.269 68.4089 98.8784C68.7995 98.4879 68.7995 97.8547 68.4089 97.4642L62.7521 91.8074L68.4089 86.1505C68.7995 85.76 68.7995 85.1268 68.4089 84.7363C68.0184 84.3458 67.3853 84.3458 66.9947 84.7363L60.6308 91.1003ZM170.047 90.8074L61.3379 90.8074L61.3379 92.8074L170.047 92.8074L170.047 90.8074Z" fill="#5889FA"/>
<path d="M45.7539 140.307L45.7539 223.392" stroke="#5889FA" stroke-width="2" stroke-linejoin="round"/>
<path d="M170.755 223.102C171.145 222.712 171.145 222.078 170.755 221.688L164.391 215.324C164 214.933 163.367 214.933 162.976 215.324C162.586 215.714 162.586 216.348 162.976 216.738L168.633 222.395L162.976 228.052C162.586 228.442 162.586 229.076 162.976 229.466C163.367 229.857 164 229.857 164.391 229.466L170.755 223.102ZM45.7539 223.395H170.047V221.395H45.7539V223.395Z" fill="#5889FA"/>
<path d="M290.703 78.8174L290.703 211.395" stroke="#5889FA" stroke-width="2"/>
<path d="M290.703 226.395L290.703 307.828" stroke="#5889FA" stroke-width="2"/>
<path d="M250.341 79.1003C249.95 79.4908 249.95 80.124 250.341 80.5145L256.705 86.8784C257.095 87.269 257.728 87.269 258.119 86.8784C258.509 86.4879 258.509 85.8548 258.119 85.4642L252.462 79.8074L258.119 74.1505C258.509 73.76 258.509 73.1268 258.119 72.7363C257.728 72.3458 257.095 72.3458 256.705 72.7363L250.341 79.1003ZM290.703 78.8074H251.048V80.8074H290.703V78.8074Z" fill="#5889FA"/>
<path d="M291.703 226.395H253.656" stroke="#5889FA" stroke-width="2"/>
<path d="M21.3717 138.6C20.9811 138.21 20.348 138.21 19.9574 138.6L13.5935 144.964C13.203 145.355 13.203 145.988 13.5935 146.378C13.984 146.769 14.6172 146.769 15.0077 146.378L20.6645 140.722L26.3214 146.378C26.7119 146.769 27.3451 146.769 27.7356 146.378C28.1261 145.988 28.1261 145.355 27.7356 144.964L21.3717 138.6ZM21.6646 306.833L21.6645 139.307L19.6645 139.307L19.6646 306.833L21.6646 306.833Z" fill="#5889FA"/>
<path d="M290.703 210.395H253.656" stroke="#5889FA" stroke-width="2"/>
<path d="M290.703 306.833L19.6719 306.833" stroke="#5889FA" stroke-width="2"/>
<circle cx="290.703" cy="148.699" r="12" fill="#08175B"/>
<path d="M287.552 150.909H291.66V152.699H292.666V150.909H293.859V149.971H292.666V143.971H291.387L287.552 150.04V150.909ZM291.66 149.971H288.694V149.903L291.592 145.318H291.66V149.971Z" fill="white"/>
<circle cx="150.188" cy="306.833" r="12" fill="#08175B"/>
<path d="M150.668 310.952C152.33 310.952 153.549 309.725 153.549 308.054C153.549 306.363 152.373 305.123 150.771 305.123C150.182 305.123 149.611 305.331 149.254 305.617H149.202L149.509 303.043H153.157V302.105H148.623L148.094 306.401L149.083 306.52C149.445 306.26 150.063 306.073 150.6 306.077C151.712 306.086 152.526 306.929 152.526 308.071C152.526 309.192 151.742 310.015 150.668 310.015C149.773 310.015 149.062 309.439 148.981 308.651H147.958C148.022 309.98 149.168 310.952 150.668 310.952Z" fill="white"/>
<circle cx="116.906" cy="223.07" r="12" fill="#08175B"/>
<path d="M116.938 227.189C118.629 227.189 119.887 226.128 119.887 224.701C119.887 223.593 119.23 222.787 118.131 222.604V222.536C119.013 222.268 119.563 221.543 119.563 220.559C119.563 219.323 118.587 218.223 116.972 218.223C115.463 218.223 114.21 219.152 114.159 220.525H115.182C115.22 219.655 116.047 219.144 116.955 219.144C117.918 219.144 118.54 219.728 118.54 220.61C118.54 221.53 117.82 222.127 116.784 222.127H116.085V223.064H116.784C118.11 223.064 118.847 223.738 118.847 224.701C118.847 225.625 118.041 226.252 116.921 226.252C115.911 226.252 115.11 225.732 115.046 224.888H113.972C114.036 226.26 115.246 227.189 116.938 227.189Z" fill="white"/>
<circle cx="116.906" cy="56.4138" r="12" fill="#08175B"/>
<path d="M118.088 51.6865H117.031L114.85 53.1354V54.2093L116.98 52.7945H117.031V60.4138H118.088V51.6865Z" fill="white"/>
<circle cx="116.906" cy="91.8074" r="12" fill="#08175B"/>
<path d="M114.176 95.8074H119.682V94.8699H115.625V94.8017L117.585 92.7051C119.085 91.0986 119.529 90.3486 119.529 89.3812C119.529 88.0346 118.438 86.9608 116.904 86.9608C115.374 86.9608 114.21 88.0006 114.21 89.5346H115.216C115.216 88.5417 115.86 87.8812 116.87 87.8812C117.816 87.8812 118.54 88.4608 118.54 89.3812C118.54 90.1866 118.067 90.7832 117.057 91.8869L114.176 95.0403V95.8074Z" fill="white"/>
</svg>
