<svg width="26" height="40" viewBox="0 0 26 40" fill="none" xmlns="http://www.w3.org/2000/svg">
<g clip-path="url(#clip0)">
<path d="M25.8065 13.0618C25.8063 10.6876 25.1669 8.35837 23.9568 6.32451C22.7468 4.29066 21.0119 2.62914 18.9388 1.5186C16.8656 0.408067 14.5326 -0.109469 12.1907 0.0216433C9.84869 0.152756 7.58632 0.927556 5.64682 2.26273C3.70732 3.59791 2.16406 5.44295 1.18297 7.59948C0.201884 9.756 -0.179912 12.1424 0.078635 14.5021C0.337182 16.8619 1.22629 19.1056 2.65036 20.9921C4.07443 22.8787 5.97959 24.3366 8.16099 25.2092L12.9032 39.9976L17.1625 25.3832C19.6869 24.4891 21.8746 22.8232 23.4231 20.6159C24.9716 18.4087 25.8044 15.769 25.8065 13.0618Z" fill="#CA4A21"/>
<path d="M2.62695 16.7544V9.31847H5.29973C5.96047 9.27711 6.61848 9.43514 7.19044 9.77256C7.40064 9.91161 7.57194 10.1031 7.68784 10.3286C7.80374 10.5541 7.86034 10.806 7.85219 11.06C7.85364 11.4473 7.70919 11.8206 7.44826 12.1039C7.17187 12.41 6.81359 12.6282 6.41697 12.732V12.7511C6.88975 12.7927 7.33314 13.0008 7.66999 13.3392C7.82267 13.495 7.94275 13.6804 8.02308 13.8843C8.1034 14.0881 8.14232 14.3063 8.13751 14.5257C8.15216 14.8364 8.09427 15.1463 7.96855 15.4301C7.84283 15.7139 7.65281 15.9638 7.41389 16.1594C6.84916 16.5878 6.1541 16.8026 5.44927 16.7666L2.62695 16.7544ZM4.2839 10.5433V12.3022H5.01097C5.30138 12.3186 5.58797 12.2291 5.81881 12.05C5.91744 11.9647 5.99527 11.8575 6.04625 11.7368C6.09724 11.6161 6.11999 11.4851 6.11273 11.354C6.11273 10.8066 5.71167 10.5329 4.90955 10.5329L4.2839 10.5433ZM4.2839 13.5532V15.5157H5.17769C5.50009 15.5351 5.81894 15.439 6.07836 15.2443C6.18481 15.1553 6.2694 15.0425 6.32547 14.9148C6.38155 14.7871 6.40757 14.6479 6.4015 14.5083C6.40623 14.3747 6.37938 14.2418 6.32318 14.1208C6.26698 13.9997 6.18304 13.894 6.07836 13.8124C5.81747 13.6306 5.50423 13.5418 5.188 13.5601L4.2839 13.5532Z" fill="#F5F5F5"/>
<path d="M13.9073 14.5674H10.4851C10.5413 15.3364 11.0214 15.7209 11.9255 15.7209C12.4604 15.7342 12.9878 15.5917 13.445 15.3103V16.4934C12.856 16.7789 12.2066 16.9127 11.5542 16.8831C11.1948 16.9051 10.8347 16.8532 10.4956 16.7306C10.1565 16.608 9.8454 16.4172 9.58104 16.1698C9.33786 15.9028 9.15041 15.589 9.02991 15.247C8.90941 14.905 8.85834 14.5419 8.87975 14.1794C8.86094 13.7979 8.91821 13.4164 9.04814 13.0577C9.17807 12.699 9.37801 12.3705 9.63604 12.0917C9.87935 11.8427 10.1706 11.6469 10.4916 11.5164C10.8127 11.3859 11.1568 11.3235 11.5027 11.3331C11.8306 11.3136 12.1589 11.3656 12.4652 11.4857C12.7715 11.6058 13.0488 11.7911 13.2782 12.029C13.7139 12.5434 13.9389 13.2069 13.9073 13.8837V14.5674ZM12.4068 13.5601C12.4068 12.798 12.1031 12.4176 11.4958 12.4187C11.3662 12.4188 11.2383 12.4482 11.1214 12.5048C11.0045 12.5614 10.9016 12.6437 10.8203 12.7458C10.627 12.9758 10.5071 13.2597 10.4765 13.5601H12.4068Z" fill="#F5F5F5"/>
<path d="M23.2039 16.7543H21.5882V13.7236C21.5882 12.9546 21.3086 12.5701 20.7494 12.5701C20.6216 12.5694 20.4957 12.6008 20.3829 12.6616C20.2701 12.7223 20.174 12.8104 20.1031 12.918C19.9276 13.1724 19.8389 13.4779 19.8505 13.7879V16.7543H18.2365V13.694C18.2365 12.9424 17.9615 12.5701 17.4132 12.5701C17.2844 12.5659 17.1565 12.5935 17.0407 12.6505C16.9248 12.7074 16.8243 12.7921 16.748 12.8972C16.5704 13.1628 16.4835 13.4799 16.5005 13.8001V16.7404H14.8848V11.4427H16.5005V12.2726H16.5194C16.6974 11.9816 16.9458 11.7414 17.2412 11.5749C17.5366 11.4083 17.8691 11.3209 18.2073 11.3209C18.5313 11.2971 18.8544 11.3798 19.1284 11.5565C19.4024 11.7333 19.6128 11.9948 19.7284 12.3021C19.9058 11.99 20.1646 11.7332 20.4766 11.5601C20.7886 11.387 21.1417 11.3043 21.4971 11.3209C22.643 11.3209 23.2159 12.0325 23.2159 13.4556L23.2039 16.7543Z" fill="#F5F5F5"/>
</g>
<defs>
<clipPath id="clip0">
<rect width="25.8065" height="40" fill="white"/>
</clipPath>
</defs>
</svg>
