<svg width="467" height="672" viewBox="0 0 467 672" fill="none" xmlns="http://www.w3.org/2000/svg">
<g clip-path="url(#clip6)">
<path d="M342.499 115.337C342.499 170.14 299.646 213.259 244.876 211.569C187.876 209.819 139.938 160.59 139.938 101.682C139.938 42.7727 187.876 0.00670338 244.876 5.94165C299.646 11.6454 342.499 60.5342 342.499 115.337Z" fill="url(#paint0_linear)"/>
<path d="M357.299 110.612C357.299 165.414 314.447 208.534 259.677 206.843C202.676 205.093 154.738 155.861 154.738 96.9629C154.738 38.0651 202.676 -4.71898 259.677 1.20874C314.447 6.91966 357.299 55.8085 357.299 110.612Z" fill="url(#paint1_linear)"/>
<path d="M349.921 110.114C349.921 160.775 310.247 200.513 259.678 198.822C207.212 197.061 163.215 151.686 163.215 97.5343C163.215 43.3826 207.212 3.94814 259.678 9.25255C310.247 14.3673 349.921 59.453 349.921 110.114Z" fill="url(#paint2_linear)"/>
<path d="M255.366 26.481C258.058 26.7375 260.244 29.1603 260.244 31.901V41.2289C265.681 41.839 271.076 42.7736 276.401 44.0274C280.376 44.9633 284.328 46.0762 288.259 47.3662C290.607 48.1395 292.213 50.5152 291.973 52.9669L290.828 64.6634C290.522 67.7654 287.456 69.5884 284.567 68.3002C281.982 67.1469 279.327 66.1573 276.618 65.3373C271.733 63.8752 266.706 62.9353 261.623 62.5333L260.246 62.4213V89.1276C274.284 93.0554 284.595 98.3417 291.258 104.985C297.888 111.6 301.2 119.851 301.194 129.737C301.194 140.438 297.532 149.016 290.208 155.469C282.834 161.973 272.476 165.621 259.133 166.412V176.711C259.133 179.446 256.952 181.576 254.255 181.468H254.168C251.469 181.361 249.278 179.05 249.278 176.306V166.145L247.11 166.047C241.074 165.789 235.06 165.148 229.106 164.127C224.904 163.401 220.745 162.446 216.647 161.265C214.201 160.559 212.521 158.228 212.745 155.722L214.092 140.687C214.383 137.435 217.648 135.545 220.739 136.765C224.313 138.177 227.967 139.376 231.682 140.356C237.411 141.869 243.267 142.847 249.176 143.28L249.263 113.565C235.786 110.23 225.722 105.292 219.07 98.75C212.41 92.1773 209.077 83.7738 209.07 73.5396C209.07 62.956 212.683 54.7941 219.91 49.0536C227.092 43.3481 237.303 40.5116 250.474 40.5189V30.9814C250.479 28.2389 252.669 26.2244 255.366 26.481ZM250.488 62.1394C246.323 62.4405 243.078 63.5848 240.752 65.5721C238.426 67.5595 237.256 70.2322 237.243 73.5902C237.243 76.7699 238.321 79.4264 240.475 81.5594C242.63 83.6925 245.965 85.3944 250.479 86.6651L250.488 62.1394ZM259.126 115.946V143.195C263.653 143.204 267.127 142.125 269.547 139.955C271.966 137.786 273.176 134.729 273.175 130.783C273.175 127.18 272.051 124.191 269.803 121.815C267.556 119.438 263.994 117.482 259.117 115.946H259.126Z" fill="url(#paint3_linear)"/>
<path style="mix-blend-mode:multiply" opacity="0.3" d="M243.345 122.52C246.395 92.406 274.072 79.6563 270.46 51.9563C268.234 34.8831 255.284 20.4947 240.858 9.26074C197.073 13.8552 163.215 50.108 163.215 97.5262C163.215 151.678 207.212 197.053 259.676 198.814C264.656 198.982 269.642 198.741 274.583 198.092C253.748 177.36 240.726 148.392 243.345 122.52Z" fill="url(#paint4_linear)"/>
<path d="M145.384 303.467L145.796 303.35C139.858 301.14 131.198 296.624 126.149 293.879C125.952 293.858 125.744 293.785 125.547 293.764C119.133 292.989 112.814 291.571 106.683 289.532C100.012 287.348 93.1336 284.112 86.4795 279.966C85.6322 279.484 84.8318 278.882 84.0062 278.34C83.5997 278.06 83.1805 277.78 82.7722 277.494L82.1562 277.084C81.9484 276.938 81.7533 276.781 81.5509 276.633C80.7524 276.03 79.9478 275.428 79.1372 274.826L78.532 274.374L77.9484 273.883C77.5558 273.561 77.1661 273.239 76.7795 272.915C75.1842 271.65 73.7081 270.226 72.1851 268.857C71.4353 268.152 70.7163 267.395 69.9863 266.667C69.625 266.306 69.2528 265.944 68.9023 265.57C68.5518 265.196 68.1995 264.797 67.8527 264.418C62.1646 258.216 57.4024 251.226 53.7136 243.663L52.3676 240.797C51.9448 239.832 51.569 238.839 51.168 237.874L50.57 236.411L50.0587 234.915L49.5365 233.424C49.3685 232.927 49.1752 232.443 49.0415 231.93C48.7506 230.924 48.4543 229.917 48.1635 228.906C48.093 228.658 48.0009 228.394 47.9521 228.159L47.7967 227.475L47.4878 226.107L47.1752 224.75C47.1463 224.631 47.1228 224.548 47.0903 224.389L46.8048 222.985L46.4128 221.113L46.1273 219.71L46.0767 219.475L46.0587 219.39C46.0587 219.39 45.9232 218.911 46.1653 219.71L45.7624 216.617C45.7009 216.107 45.607 215.599 45.5817 215.081L45.4625 213.542L45.3378 212.004L45.2764 211.238C45.2547 210.982 45.2601 210.725 45.2493 210.472C45.2222 209.453 45.1878 208.434 45.168 207.417C45.1355 206.909 45.168 206.4 45.177 205.898L45.2204 204.384L45.2439 202.877L45.3577 201.377C45.4408 200.376 45.4841 199.39 45.5944 198.403C45.7046 197.417 45.8383 196.44 45.9683 195.464C47.0322 187.954 49.1804 180.638 52.3459 173.746L52.8879 172.512L53.5112 171.312C53.9195 170.519 54.2971 169.712 54.7289 168.945C54.7434 168.913 54.7687 168.884 54.7813 168.852C55.6558 167.348 56.4543 165.851 57.4046 164.452C57.6287 164.091 57.8599 163.73 58.093 163.368L58.429 162.826L58.8048 162.31C59.289 161.623 59.7786 160.938 60.2592 160.259C60.3784 160.091 60.4886 159.916 60.6205 159.746L61.0072 159.265C61.2637 158.936 61.5221 158.613 61.7714 158.293C62.2917 157.657 62.7488 156.994 63.3016 156.398C67.4751 151.504 71.8779 147.43 76.2826 144.259C80.2159 141.406 84.4269 138.957 88.8517 136.949L90.2971 136.324C90.7704 136.129 91.2203 135.896 91.6936 135.739C92.6283 135.392 93.519 135.056 94.3657 134.732C95.2347 134.431 96.0839 134.19 96.8716 133.928C97.2691 133.8 97.6521 133.663 98.026 133.551C98.4 133.439 98.7957 133.37 99.157 133.265L101.213 132.723C101.346 132.687 101.482 132.662 101.619 132.647L101.981 132.595C102.212 132.552 102.19 132.595 102.402 132.553C102.582 132.519 102.669 132.516 102.674 132.532L112.262 166.402L129.256 139.361L168.036 76.7032L73.5184 29.5488L83.7045 65.5288C83.7189 65.5812 83.1173 65.8125 82.6512 66.0058C81.6449 66.4412 80.6638 66.8784 79.475 67.3933C78.8843 67.6607 78.3314 67.9064 77.6955 68.1919C77.3847 68.3346 77.0902 68.4701 76.765 68.6165C76.4398 68.7628 76.0966 68.9055 75.8219 69.0555C74.6494 69.6607 73.41 70.2949 72.0893 70.9688C71.4371 71.3138 70.7686 71.6589 70.0821 72.0202C69.3956 72.3816 68.7126 72.7971 68.0062 73.209C66.5988 74.0293 65.1155 74.8621 63.6034 75.7998C62.0912 76.7375 60.5717 77.7691 58.9656 78.808C58.1544 79.321 57.3829 79.9118 56.5717 80.4864L54.1327 82.2551C46.8558 87.6667 40.1427 93.7976 34.0948 100.555C27.5004 107.909 21.3306 116.635 16.0858 126.418C15.3975 127.618 14.8212 128.893 14.1888 130.143C13.8835 130.776 13.5727 131.408 13.262 132.035L12.8013 132.994L12.3731 133.959C11.813 135.258 11.2457 136.568 10.6748 137.874L10.2539 138.861L9.87265 139.869C9.6143 140.548 9.36136 141.22 9.10843 141.898C8.04791 144.572 7.19877 147.363 6.29904 150.151C5.87266 151.551 5.50771 152.976 5.11746 154.404C4.9368 155.106 4.74168 155.822 4.54475 156.539C4.38215 157.262 4.22015 157.984 4.05875 158.707C1.37056 170.505 0.387368 182.628 1.13916 194.705C1.26201 196.221 1.38306 197.748 1.50049 199.269C1.61793 200.79 1.86183 202.304 2.06056 203.818L2.37673 206.087L2.78324 208.346L3.19155 210.597C3.33247 211.346 3.45532 212.096 3.63779 212.839C3.98468 214.318 4.22496 215.834 4.57365 217.321C4.66037 217.683 4.62605 218.094 4.72903 218.459L5.04159 219.561L5.78413 221.713L6.47428 223.881C6.68205 224.604 6.98557 225.314 7.22767 226.029L8.71999 230.304C9.01628 231.287 8.84285 230.635 8.91873 230.886L8.96569 230.994L9.05784 231.218L9.2385 231.654L9.61068 232.537L10.3532 234.295L10.7254 235.178L10.9061 235.616L11.1428 236.158L12.1346 238.367L13.1373 240.573L13.6414 241.657C13.8094 242.018 13.9865 242.326 14.1599 242.667C14.8555 243.986 15.5565 245.305 16.2484 246.627C16.5845 247.287 16.9711 247.919 17.3559 248.559L18.4941 250.476L19.6269 252.378L20.8446 254.228C21.6649 255.453 22.4598 256.689 23.3071 257.878C24.1545 259.066 25.0397 260.226 25.9051 261.404C32.7457 270.355 40.8382 278.276 49.934 284.924C50.476 285.325 51.018 285.72 51.56 286.118C52.102 286.515 52.6693 286.871 53.2294 287.242C54.3387 287.982 55.4209 288.737 56.541 289.438C58.8102 290.801 61.0071 292.179 63.298 293.361C63.8635 293.666 64.429 293.962 64.9891 294.264L65.8274 294.71L66.6837 295.124C67.8268 295.672 68.9614 296.214 70.0875 296.75L70.9349 297.149L71.7948 297.511C72.3657 297.744 72.9349 297.988 73.5022 298.223C74.6404 298.689 75.7425 299.205 76.8897 299.592C82.698 301.796 88.6714 303.537 94.7542 304.799C97.5599 305.382 100.315 305.83 103.001 306.154C110.41 307.082 117.893 307.264 125.337 306.696C126.159 306.613 126.963 306.546 127.764 306.47C128.564 306.394 129.334 306.342 130.094 306.223C131.616 306.002 133.075 305.8 134.481 305.597C135.883 305.366 137.213 305.079 138.485 304.84C139.115 304.712 139.735 304.604 140.342 304.479C140.949 304.354 141.545 304.298 142.118 304.159C143.265 303.865 144.391 303.74 145.384 303.467Z" fill="url(#paint5_linear)"/>
<path d="M221.081 262.693C221.081 262.693 223.444 253.84 221.771 251.569C220.098 249.298 209.86 240.25 210.844 243.202C211.421 244.954 212.25 246.612 213.305 248.124C213.305 248.124 207.793 250.684 211.336 254.523C214.879 258.362 216.064 259.248 216.259 262.693C216.454 266.138 218.72 267.32 221.081 262.693Z" fill="url(#paint6_linear)"/>
<path d="M319.418 645.084C319.418 645.084 320.67 652.745 320.502 655.471C320.334 658.197 290.083 659.592 289.778 657.55C289.473 655.509 294.781 652.259 298.515 651.113C302.25 649.968 313.184 646.907 313.184 646.907L319.418 645.084Z" fill="url(#paint7_linear)"/>
<path d="M312.07 637.446L313.035 646.972C313.035 646.972 316.551 649.294 319.647 647.502L321.196 637.131L312.07 637.446Z" fill="url(#paint8_linear)"/>
<path d="M373.401 657.504C373.401 657.504 374.653 665.166 374.495 667.892C374.336 670.618 344.075 672.013 343.77 669.97C343.465 667.926 348.773 664.68 352.507 663.533C356.242 662.385 367.176 659.327 367.176 659.327L373.401 657.504Z" fill="url(#paint9_linear)"/>
<path d="M366.062 649.865L367.027 659.392C367.027 659.392 370.541 661.715 373.639 659.923L375.189 649.553L366.062 649.865Z" fill="url(#paint10_linear)"/>
<path d="M317.562 388.743L307.069 410.015C304.256 450.484 302.857 494.484 303.755 541.541C304.424 576.551 306.296 609.718 308.982 640.851L323.21 640.197C330.075 626.587 338.162 605.969 338.908 580.516C339.685 553.967 331.636 550.443 332.146 525.022C332.807 492.074 346.622 483.288 353.985 443.653C356.8 428.497 358.695 408.701 356.442 384.685L317.562 388.743Z" fill="#1436AC"/>
<g style="mix-blend-mode:multiply" opacity="0.3">
<path d="M356.442 384.682L335.445 386.873C322.845 408.797 319.327 431.617 321.533 441.711C324.661 455.993 332.935 460.568 332.48 474.905C332.03 489.093 323.672 492.773 318.37 509.494C314.699 521.073 315.66 531.716 317.755 552.535C321.961 594.468 332.086 607.292 323.605 621.041C321.195 624.947 316.852 629.599 308.344 633.145C308.552 635.718 308.758 638.296 308.977 640.842C313.72 640.625 318.462 640.408 323.204 640.19C330.07 626.578 338.156 605.96 338.903 580.508C339.679 553.958 331.631 550.432 332.14 525.012C332.801 492.065 346.617 483.277 353.979 443.644C356.8 428.49 358.695 408.698 356.442 384.682Z" fill="#071972"/>
</g>
<path d="M336.379 401.502C342.944 437.303 348.744 475.621 353.269 516.257C358.731 565.323 361.647 611.579 362.794 654.528L378.409 654.969C398.919 614.394 400.173 586.884 397.215 568.971C396.075 562.067 392.98 548.535 392.274 528.309C391.782 514.217 392.68 503.482 393.804 490.582C396.268 462.304 399.257 456.131 399.687 434.499C400.089 414.198 400.173 403.927 394.378 397.93C379.11 382.138 339.392 400.104 336.379 401.502Z" fill="#1436AC"/>
<path d="M223.808 261.327L213.423 260.604C205.257 293.604 211.114 325.614 229.546 337.388C258.341 355.782 311.857 321.128 323.454 283.398C328.545 266.836 327.385 242.928 317.212 238.29C314.388 237.002 310.006 236.801 300.512 242.131C272.158 258.05 271.414 288.136 257 290.684C250.592 291.813 240.243 287.726 223.808 261.327Z" fill="#EEEEEE"/>
<path d="M303.087 417.269C298.101 408.995 304.365 401.009 305.797 385.336C307.412 367.567 300.569 364.608 293.799 335.163C289.297 315.578 284.975 296.776 290.133 274.769C292.607 264.222 296.798 246.334 311.604 237.692C319.244 233.233 329.671 233.68 350.227 234.755C375.642 236.084 388.348 236.742 397.824 241.737C399.212 242.469 428.043 258.151 430.026 283.712C432.046 309.728 403.714 313.226 399.934 347.92C398.24 363.493 401.262 387.448 403.224 402.984C405.107 417.901 406.402 421.723 403.459 426.238C396.363 437.125 374.639 434.021 331.192 427.818C314.144 425.383 306.804 423.444 303.087 417.269Z" fill="#EEEEEE"/>
<g style="mix-blend-mode:multiply" opacity="0.3">
<path d="M369.193 342.339C371.03 349.099 377.637 354.151 382.235 370.599C383.229 374.149 390.302 399.437 381.128 405.663C375.829 409.258 371.072 402.447 358.21 401.556C335.925 400.015 325.309 418.745 310.75 413.63C308.221 412.742 304.891 410.85 301.562 406.503C300.898 410.42 301.02 413.824 303.088 417.269C306.81 423.444 314.145 425.383 331.187 427.818C374.633 434.021 396.356 437.125 403.455 426.237C406.398 421.721 405.102 417.901 403.22 402.984C401.258 387.446 398.235 363.493 399.93 347.92C403.709 313.231 432.042 309.728 430.022 283.712C429.48 276.756 426.924 270.565 423.503 265.174C387.563 279.717 363.419 321.089 369.193 342.339Z" fill="#DDEAFF"/>
</g>
<path d="M414.588 393.516L407.397 398.107C406.105 396.616 403.115 393.608 398.449 392.58C393.189 391.426 387.153 393.082 387.014 394.761C386.9 396.105 390.577 397.471 391.144 397.671C395.733 399.364 399.137 397.959 400.992 399.803C401.648 400.455 402.465 401.668 404.345 402.791C404.757 403.042 405.186 403.264 405.628 403.454C408.691 404.645 413.939 399.314 414.396 398.849L414.588 393.516Z" fill="url(#paint11_linear)"/>
<path d="M393.344 299.199C388.141 286.733 384.538 267.665 392.753 239.334C446.892 260.668 474.504 311.24 463.723 351.33C454.836 384.38 422.502 400.472 415.29 403.863L410.254 392.404C418.614 383.096 428.032 369.332 426.695 353.627C424.854 331.854 403.875 324.424 393.344 299.199Z" fill="#EEEEEE"/>
<path d="M354.697 189.218C354.697 189.218 355.496 206.978 361.009 220.279C365.993 232.3 392.997 238.806 398.31 241.489C403.622 244.172 387.557 253.065 372.23 254.607C356.902 256.148 313.126 252.665 305.235 246.855C297.344 241.044 304.725 239.904 315.662 235.889C326.599 231.874 339.793 212.056 337.848 202.343C335.903 192.629 354.697 189.218 354.697 189.218Z" fill="#F9AB9A"/>
<path d="M330.451 182.779C322.499 174.963 321.388 174.052 320.521 171.352C317.044 160.51 325.454 145.664 336.482 142.008C337.058 141.818 344.454 139.45 347.276 142.658C349.675 145.386 346.144 149.15 347.821 154.401C349.393 159.317 353.656 159.687 361.556 166.134C368.065 171.443 372.107 174.743 373.042 179.388C374.963 188.959 363.376 202.837 353.117 202.457C349.427 202.322 348.424 200.438 330.451 182.779Z" fill="url(#paint12_linear)"/>
<path d="M352.111 203.939C352.111 203.939 343.641 213.511 330.767 210.346C319.247 207.514 322.178 181.046 330.618 176.805C333.43 175.395 338.546 175.514 342.394 177.367C344.664 178.461 345.298 179.6 349.045 181.317C352.501 182.9 353.599 182.673 354.527 183.798C355.689 185.19 356.19 188.202 352.545 195.435C355.171 193.575 357.996 193.186 359.731 194.419C360.317 194.884 360.762 195.504 361.015 196.208C362.13 199.498 358.721 202.835 352.111 203.939Z" fill="#F9AB9A"/>
<path d="M182.167 249.578C182.167 288.432 151.786 318.998 112.955 317.805C72.5438 316.564 38.5547 281.672 38.5547 239.896C38.5547 198.12 72.5438 167.809 112.955 172.02C151.786 176.064 182.167 210.725 182.167 249.578Z" fill="url(#paint13_linear)"/>
<path d="M192.66 246.227C192.66 285.082 162.278 315.645 123.446 314.453C83.036 313.213 49.0469 278.319 49.0469 236.545C49.0469 194.771 83.036 164.458 123.446 168.668C162.278 172.711 192.66 207.373 192.66 246.227Z" fill="url(#paint14_linear)"/>
<path d="M189.613 246.014C189.613 283.157 160.544 312.319 123.447 311.125C84.9127 309.878 52.5586 276.57 52.5586 236.774C52.5586 196.978 84.9127 168.034 123.447 171.981C160.544 175.79 189.613 208.879 189.613 246.014Z" fill="url(#paint15_linear)"/>
<path d="M121.022 186.574C122.93 186.754 124.475 188.473 124.475 190.411V197.024C128.332 197.457 132.159 198.12 135.936 199.011C138.756 199.673 141.558 200.462 144.343 201.378C145.163 201.65 145.869 202.19 146.346 202.91C146.823 203.631 147.045 204.491 146.975 205.352L146.164 213.645C146.127 214.149 145.968 214.637 145.7 215.066C145.432 215.494 145.063 215.851 144.626 216.106C144.189 216.36 143.696 216.503 143.191 216.524C142.686 216.545 142.183 216.442 141.727 216.225C139.892 215.408 138.009 214.706 136.086 214.124C132.621 213.087 129.056 212.421 125.45 212.137L124.475 212.057V230.995C134.428 233.781 141.738 237.526 146.46 242.238C151.183 246.949 153.506 252.771 153.506 259.788C153.506 267.376 150.91 273.458 145.716 278.035C140.489 282.64 133.142 285.226 123.675 285.793V293.092C123.682 293.544 123.597 293.993 123.425 294.411C123.253 294.828 122.998 295.207 122.674 295.522C122.351 295.838 121.966 296.084 121.544 296.246C121.122 296.408 120.672 296.482 120.22 296.463H120.159C119.223 296.412 118.342 296.004 117.697 295.323C117.052 294.642 116.693 293.741 116.692 292.803V285.598L115.152 285.529C110.873 285.347 106.61 284.892 102.388 284.167C99.414 283.652 96.4696 282.975 93.5684 282.14C91.8322 281.638 90.6416 279.985 90.8005 278.209L91.7563 267.549C91.9622 265.244 94.2856 263.903 96.4699 264.769C99.0031 265.769 101.593 266.619 104.226 267.314C108.288 268.387 112.44 269.081 116.63 269.387L116.692 248.319C107.138 245.956 100.003 242.455 95.2865 237.817C90.5639 233.157 88.2001 227.199 88.1953 219.943C88.1953 212.441 90.7578 206.654 95.8827 202.583C100.974 198.539 108.213 196.527 117.552 196.532V189.772C117.559 187.826 119.111 186.393 121.022 186.574ZM117.559 211.867C114.607 212.083 112.306 212.894 110.656 214.301C109.005 215.708 108.179 217.601 108.175 219.979C108.175 222.232 108.939 224.115 110.466 225.629C111.993 227.143 114.356 228.347 117.555 229.242L117.559 211.867ZM123.682 250.015V269.32C126.892 269.327 129.355 268.562 131.071 267.024C132.787 265.485 133.644 263.317 133.642 260.519C133.642 257.965 132.845 255.846 131.252 254.162C129.658 252.478 127.135 251.093 123.682 250.008V250.015Z" fill="url(#paint16_linear)"/>
<path style="mix-blend-mode:multiply" opacity="0.3" d="M111.869 254.67C114.037 233.32 133.652 224.281 131.092 204.643C129.513 192.538 120.339 182.338 110.104 174.372C79.0622 177.624 55.0586 203.331 55.0586 236.95C55.0586 275.342 86.251 307.513 123.447 308.762C126.978 308.879 130.513 308.706 134.016 308.245C119.244 293.546 110.012 273.013 111.869 254.67Z" fill="url(#paint17_linear)"/>
</g>
<defs>
<linearGradient id="paint0_linear" x1="206.504" y1="119.624" x2="88.3713" y2="157.535" gradientUnits="userSpaceOnUse">
<stop stop-color="#FCB148"/>
<stop offset="0.05" stop-color="#FDBA46"/>
<stop offset="0.14" stop-color="#FFC244"/>
<stop offset="0.32" stop-color="#FFC444"/>
<stop offset="0.48" stop-color="#FDB946"/>
<stop offset="0.78" stop-color="#F99C4D"/>
<stop offset="0.87" stop-color="#F8924F"/>
<stop offset="1" stop-color="#F8924F"/>
</linearGradient>
<linearGradient id="paint1_linear" x1="302.066" y1="2.0344" x2="196.604" y2="234.702" gradientUnits="userSpaceOnUse">
<stop stop-color="#FFDB44"/>
<stop offset="1" stop-color="#FEEF06"/>
</linearGradient>
<linearGradient id="paint2_linear" x1="376494" y1="70617.6" x2="465742" y2="256691" gradientUnits="userSpaceOnUse">
<stop stop-color="#FCB148"/>
<stop offset="0.05" stop-color="#FDBA46"/>
<stop offset="0.14" stop-color="#FFC244"/>
<stop offset="0.32" stop-color="#FFC444"/>
<stop offset="0.48" stop-color="#FDB946"/>
<stop offset="0.78" stop-color="#F99C4D"/>
<stop offset="0.87" stop-color="#F8924F"/>
<stop offset="1" stop-color="#F8924F"/>
</linearGradient>
<linearGradient id="paint3_linear" x1="184194" y1="24733.9" x2="238466" y2="145618" gradientUnits="userSpaceOnUse">
<stop stop-color="#FFDB44"/>
<stop offset="1" stop-color="#FEEF06"/>
</linearGradient>
<linearGradient id="paint4_linear" x1="209431" y1="82523.5" x2="320625" y2="221170" gradientUnits="userSpaceOnUse">
<stop stop-color="#FCB148"/>
<stop offset="0.05" stop-color="#FDBA46"/>
<stop offset="0.14" stop-color="#FFC244"/>
<stop offset="0.32" stop-color="#FFC444"/>
<stop offset="0.48" stop-color="#FDB946"/>
<stop offset="0.78" stop-color="#F99C4D"/>
<stop offset="0.87" stop-color="#F8924F"/>
<stop offset="1" stop-color="#F8924F"/>
</linearGradient>
<linearGradient id="paint5_linear" x1="0.894531" y1="168.284" x2="168.036" y2="168.284" gradientUnits="userSpaceOnUse">
<stop stop-color="#49A9FE"/>
<stop offset="1" stop-color="#2E6ECE"/>
</linearGradient>
<linearGradient id="paint6_linear" x1="204.637" y1="243.302" x2="245.153" y2="284.543" gradientUnits="userSpaceOnUse">
<stop stop-color="#FFC444"/>
<stop offset="1" stop-color="#F36F56"/>
</linearGradient>
<linearGradient id="paint7_linear" x1="305.072" y1="635.043" x2="304.73" y2="543.551" gradientUnits="userSpaceOnUse">
<stop stop-color="#AA80F9"/>
<stop offset="1" stop-color="#6165D7"/>
</linearGradient>
<linearGradient id="paint8_linear" x1="-8049.18" y1="37373.4" x2="-7775.61" y2="34482.7" gradientUnits="userSpaceOnUse">
<stop stop-color="#FFC444"/>
<stop offset="1" stop-color="#F36F56"/>
</linearGradient>
<linearGradient id="paint9_linear" x1="82663.2" y1="47839.4" x2="82652.1" y2="41032.4" gradientUnits="userSpaceOnUse">
<stop stop-color="#AA80F9"/>
<stop offset="1" stop-color="#6165D7"/>
</linearGradient>
<linearGradient id="paint10_linear" x1="-5235.5" y1="37650.1" x2="-4962.08" y2="34759.5" gradientUnits="userSpaceOnUse">
<stop stop-color="#FFC444"/>
<stop offset="1" stop-color="#F36F56"/>
</linearGradient>
<linearGradient id="paint11_linear" x1="84487.8" y1="23257.8" x2="83305.5" y2="27110.4" gradientUnits="userSpaceOnUse">
<stop stop-color="#FFC444"/>
<stop offset="1" stop-color="#F36F56"/>
</linearGradient>
<linearGradient id="paint12_linear" x1="369.071" y1="248.593" x2="338.585" y2="148.311" gradientUnits="userSpaceOnUse">
<stop stop-color="#444B8C"/>
<stop offset="1" stop-color="#3E4177"/>
</linearGradient>
<linearGradient id="paint13_linear" x1="167275" y1="204066" x2="100479" y2="225123" gradientUnits="userSpaceOnUse">
<stop stop-color="#FCB148"/>
<stop offset="0.05" stop-color="#FDBA46"/>
<stop offset="0.14" stop-color="#FFC244"/>
<stop offset="0.32" stop-color="#FFC444"/>
<stop offset="0.48" stop-color="#FDB946"/>
<stop offset="0.78" stop-color="#F99C4D"/>
<stop offset="0.87" stop-color="#F8924F"/>
<stop offset="1" stop-color="#F8924F"/>
</linearGradient>
<linearGradient id="paint14_linear" x1="221140" y1="136596" x2="159919" y2="269266" gradientUnits="userSpaceOnUse">
<stop stop-color="#FFDB44"/>
<stop offset="1" stop-color="#FEEF06"/>
</linearGradient>
<linearGradient id="paint15_linear" x1="200613" y1="264901" x2="189283" y2="204101" gradientUnits="userSpaceOnUse">
<stop stop-color="#FCB148"/>
<stop offset="0.05" stop-color="#FDBA46"/>
<stop offset="0.14" stop-color="#FFC244"/>
<stop offset="0.32" stop-color="#FFC444"/>
<stop offset="0.48" stop-color="#FDB946"/>
<stop offset="0.78" stop-color="#F99C4D"/>
<stop offset="0.87" stop-color="#F8924F"/>
<stop offset="1" stop-color="#F8924F"/>
</linearGradient>
<linearGradient id="paint16_linear" x1="83749" y1="114572" x2="111032" y2="175337" gradientUnits="userSpaceOnUse">
<stop stop-color="#FFDB44"/>
<stop offset="1" stop-color="#FEEF06"/>
</linearGradient>
<linearGradient id="paint17_linear" x1="94586" y1="166362" x2="150479" y2="236052" gradientUnits="userSpaceOnUse">
<stop stop-color="#FCB148"/>
<stop offset="0.05" stop-color="#FDBA46"/>
<stop offset="0.14" stop-color="#FFC244"/>
<stop offset="0.32" stop-color="#FFC444"/>
<stop offset="0.48" stop-color="#FDB946"/>
<stop offset="0.78" stop-color="#F99C4D"/>
<stop offset="0.87" stop-color="#F8924F"/>
<stop offset="1" stop-color="#F8924F"/>
</linearGradient>
<clipPath id="clip6">
<rect width="466" height="671" fill="white" transform="translate(0.777344 0.660156)"/>
</clipPath>
</defs>
</svg>
