<svg width="200" height="189" viewBox="0 0 200 189" fill="none" xmlns="http://www.w3.org/2000/svg">
<g filter="url(#filter0_d)">
<path d="M168.938 71.2613C168.938 95.4566 150.879 114.493 127.799 113.747C103.778 112.974 83.5762 91.2403 83.5762 65.2329C83.5762 39.2254 103.778 20.3448 127.799 22.965C150.879 25.4831 168.938 47.0669 168.938 71.2613Z" fill="url(#paint0_linear)"/>
<path d="M175.174 69.1758C175.174 93.3702 157.116 112.407 134.035 111.661C110.014 110.888 89.8125 89.1524 89.8125 63.1497C89.8125 37.1471 110.014 18.2585 134.035 20.8755C157.116 23.3968 175.174 44.9806 175.174 69.1758Z" fill="url(#paint1_linear)"/>
<path d="M173.363 69.0474C173.363 92.1786 156.084 110.341 134.035 109.593C111.13 108.816 91.8984 88.0748 91.8984 63.2941C91.8984 38.5134 111.13 20.4887 134.035 22.9494C156.084 25.3135 173.363 45.921 173.363 69.0474Z" fill="url(#paint2_linear)"/>
<path d="M172.065 68.9555C172.065 91.3218 155.345 108.866 134.035 108.119C111.925 107.341 93.3848 87.3089 93.3848 63.4016C93.3848 39.4944 111.925 22.0846 134.035 24.4264C155.345 26.6845 172.065 46.5893 172.065 68.9555Z" fill="url(#paint3_linear)"/>
<path d="M132.221 32.0327C133.355 32.1459 134.276 33.2156 134.276 34.4256V38.5437C136.567 38.8131 138.841 39.2256 141.085 39.7792C142.76 40.1924 144.426 40.6837 146.082 41.2532C147.072 41.5946 147.748 42.6435 147.647 43.7259L147.165 48.8897C147.036 50.2592 145.744 51.064 144.526 50.4953C143.437 49.9862 142.318 49.5493 141.176 49.1872C139.118 48.5418 136.999 48.1268 134.857 47.9493L134.277 47.8999V59.6904C140.193 61.4244 144.538 63.7583 147.346 66.6912C150.14 69.6115 151.536 73.254 151.533 77.6186C151.533 82.3433 149.99 86.1301 146.903 88.9792C143.796 91.8507 139.431 93.4611 133.808 93.8105V98.3569C133.808 99.5645 132.889 100.505 131.752 100.457H131.716C130.578 100.41 129.655 99.3899 129.655 98.1783V93.6924L128.741 93.6493C126.198 93.5352 123.664 93.252 121.154 92.8015C119.384 92.4811 117.631 92.0593 115.904 91.538C114.873 91.2262 114.165 90.1972 114.26 89.0909L114.827 82.4531C114.95 81.0173 116.326 80.183 117.629 80.7214C119.135 81.3447 120.674 81.8742 122.24 82.3071C124.654 82.9748 127.122 83.4068 129.612 83.5976L129.649 70.4791C123.97 69.0067 119.728 66.8265 116.925 63.9385C114.119 61.0368 112.714 57.3267 112.711 52.8085C112.711 48.136 114.234 44.5325 117.279 41.9982C120.305 39.4793 124.609 38.227 130.159 38.2302V34.0196C130.161 32.8088 131.084 31.9194 132.221 32.0327ZM130.165 47.7754C128.41 47.9084 127.042 48.4135 126.062 49.2909C125.082 50.1683 124.589 51.3483 124.584 52.8308C124.584 54.2346 125.038 55.4074 125.946 56.3491C126.854 57.2909 128.259 58.0422 130.161 58.6032L130.165 47.7754ZM133.805 71.5304V83.5602C135.713 83.5644 137.177 83.0877 138.197 82.13C139.216 81.1723 139.726 79.8225 139.725 78.0805C139.725 76.49 139.252 75.1702 138.305 74.121C137.358 73.0719 135.856 72.2083 133.801 71.5304H133.805Z" fill="url(#paint4_linear)"/>
<path style="mix-blend-mode:multiply" opacity="0.3" d="M127.152 74.4326C128.438 61.1378 140.101 55.5089 138.579 43.2797C137.641 35.7421 132.183 29.3898 126.104 24.4302C107.653 26.4585 93.3848 42.4637 93.3848 63.3982C93.3848 87.3055 111.925 107.338 134.034 108.116C136.133 108.19 138.234 108.083 140.316 107.797C131.536 98.6438 126.048 85.8546 127.152 74.4326Z" fill="url(#paint5_linear)"/>
<path d="M85.8702 154.319L86.0437 154.267C83.5412 153.291 79.892 151.297 77.764 150.086C77.681 150.076 77.5935 150.044 77.5105 150.035C74.8076 149.693 72.1445 149.067 69.5612 148.166C66.7495 147.202 63.851 145.774 61.0469 143.943C60.6899 143.73 60.3526 143.464 60.0046 143.225C59.8333 143.102 59.6567 142.978 59.4846 142.852L59.225 142.671C59.1374 142.606 59.0552 142.537 58.97 142.471C58.6334 142.206 58.2944 141.94 57.9528 141.674L57.6977 141.474L57.4518 141.257C57.2863 141.115 57.1221 140.973 56.9592 140.83C56.2869 140.272 55.6649 139.643 55.0231 139.038C54.7071 138.727 54.4041 138.393 54.0965 138.072C53.9442 137.912 53.7874 137.753 53.6397 137.588C53.492 137.422 53.3435 137.246 53.1974 137.079C50.8004 134.341 48.7935 131.255 47.239 127.916L46.6718 126.651C46.4936 126.225 46.3353 125.786 46.1662 125.36L45.9142 124.714L45.6988 124.053L45.4787 123.395C45.4079 123.176 45.3265 122.962 45.2701 122.736C45.1475 122.291 45.0227 121.847 44.9001 121.401C44.8704 121.291 44.8316 121.175 44.811 121.071L44.7456 120.769L44.6154 120.165L44.4836 119.566C44.4715 119.513 44.4616 119.477 44.4479 119.406L44.3276 118.787L44.1624 117.96L44.0421 117.341L44.0207 117.237L44.0131 117.199C44.0131 117.199 43.956 116.988 44.0581 117.341L43.8883 115.975C43.8624 115.75 43.8228 115.526 43.8121 115.297L43.7619 114.618L43.7093 113.939L43.6835 113.601C43.6743 113.487 43.6766 113.374 43.672 113.262C43.6606 112.812 43.6462 112.363 43.6378 111.914C43.6241 111.689 43.6378 111.464 43.6416 111.243L43.6599 110.574L43.6698 109.909L43.7177 109.247C43.7527 108.805 43.771 108.37 43.8175 107.934C43.8639 107.499 43.9202 107.067 43.9751 106.636C44.4234 103.321 45.3287 100.091 46.6626 97.0482L46.8911 96.5034L47.1537 95.9738C47.3258 95.6236 47.4849 95.2671 47.6669 94.9289C47.673 94.9145 47.6836 94.9018 47.689 94.8874C48.0574 94.2238 48.394 93.5626 48.7944 92.9452C48.8888 92.7857 48.9863 92.6261 49.0845 92.4666L49.2261 92.2273L49.3845 91.9992C49.5885 91.6961 49.7949 91.3938 49.9974 91.0939C50.0476 91.0197 50.0941 90.9424 50.1497 90.8674L50.3126 90.6552C50.4207 90.51 50.5296 90.3673 50.6346 90.2261C50.8539 89.9453 51.0465 89.6526 51.2795 89.3894C53.0382 87.2286 54.8937 85.43 56.7498 84.0301C58.4074 82.7706 60.1819 81.6894 62.0466 80.8029L62.6557 80.5269C62.8552 80.4408 63.0447 80.3379 63.2442 80.2685C63.6381 80.1154 64.0134 79.9673 64.3703 79.8242C64.7365 79.691 65.0943 79.5849 65.4262 79.4693C65.5937 79.4127 65.7552 79.352 65.9128 79.3026C66.0704 79.2531 66.2371 79.2228 66.3894 79.1766L67.2558 78.9373C67.3119 78.9212 67.3692 78.91 67.4271 78.9038L67.5794 78.8806C67.6768 78.8615 67.6677 78.8806 67.7568 78.8623C67.8329 78.8471 67.8694 78.8456 67.8717 78.8527L71.9122 93.8058L79.0735 81.8678L95.416 54.2053L55.585 33.3872L59.8775 49.2719C59.8836 49.2951 59.63 49.3972 59.4336 49.4825C59.0095 49.6747 58.5961 49.8678 58.0952 50.0951C57.8462 50.2131 57.6132 50.3216 57.3452 50.4476C57.2143 50.5107 57.0902 50.5705 56.9531 50.6351C56.8161 50.6997 56.6714 50.7627 56.5557 50.8289C56.0616 51.0961 55.5393 51.3761 54.9827 51.6736C54.7079 51.8259 54.4262 51.9783 54.1369 52.1378C53.8476 52.2973 53.5598 52.4808 53.2621 52.6627C52.669 53.0248 52.0439 53.3925 51.4067 53.8064C50.7694 54.2204 50.1291 54.6759 49.4522 55.1345C49.1104 55.361 48.7853 55.6219 48.4435 55.8755L47.4156 56.6564C44.3491 59.0455 41.5201 61.7522 38.9714 64.7355C36.1925 67.9819 33.5925 71.8344 31.3822 76.1536C31.0922 76.6832 30.8493 77.2463 30.5828 77.7983C30.4542 78.0774 30.3232 78.3566 30.1922 78.6334L29.9981 79.0569L29.8177 79.4829C29.5816 80.0564 29.3426 80.6346 29.102 81.2113L28.9246 81.6468L28.7639 82.0919C28.6551 82.3918 28.5485 82.6885 28.4419 82.9876C27.995 84.1681 27.6371 85.4004 27.258 86.6312C27.0783 87.2493 26.9245 87.8787 26.7601 88.5088C26.6839 88.8191 26.6017 89.1349 26.5187 89.4516C26.4502 89.7706 26.3819 90.0897 26.3139 90.4087C25.1811 95.6175 24.7667 100.97 25.0836 106.301C25.1353 106.971 25.1863 107.645 25.2358 108.316C25.2853 108.988 25.3881 109.656 25.4718 110.325L25.6051 111.327L25.7764 112.324L25.9485 113.317C26.0078 113.648 26.0596 113.979 26.1365 114.307C26.2827 114.96 26.3839 115.63 26.5309 116.286C26.5674 116.446 26.553 116.628 26.5964 116.789L26.7281 117.275L27.041 118.225L27.3318 119.182C27.4194 119.501 27.5473 119.815 27.6493 120.131L28.2782 122.018C28.4031 122.452 28.33 122.164 28.362 122.275L28.3817 122.323L28.4206 122.421L28.4967 122.614L28.6535 123.004L28.9665 123.78L29.1233 124.17L29.1994 124.363L29.2992 124.602L29.7172 125.578L30.1397 126.552L30.3521 127.03C30.4229 127.19 30.4975 127.325 30.5706 127.476C30.8638 128.058 31.1592 128.641 31.4508 129.224C31.5924 129.516 31.7553 129.795 31.9175 130.077L32.3971 130.923L32.8745 131.763L33.3877 132.58C33.7333 133.121 34.0683 133.666 34.4254 134.191C34.7825 134.716 35.1555 135.228 35.5202 135.748C38.4029 139.7 41.8132 143.197 45.6462 146.132C45.8746 146.309 46.103 146.483 46.3315 146.659C46.5599 146.834 46.7989 146.992 47.0349 147.155C47.5024 147.482 47.9585 147.816 48.4305 148.125C49.3868 148.726 50.3126 149.335 51.278 149.857C51.5163 149.991 51.7546 150.122 51.9906 150.255L52.3439 150.452L52.7048 150.635C53.1864 150.877 53.6646 151.116 54.1392 151.353L54.4962 151.529L54.8586 151.689C55.0992 151.792 55.3391 151.899 55.5781 152.003C56.0578 152.209 56.5222 152.437 57.0057 152.608C59.4533 153.581 61.9706 154.349 64.5339 154.906C65.7163 155.164 66.8774 155.362 68.0095 155.505C71.1315 155.915 74.2849 155.995 77.4222 155.744C77.7686 155.707 78.1074 155.678 78.4447 155.644C78.7819 155.611 79.1063 155.588 79.4268 155.535C80.0679 155.438 80.683 155.348 81.2754 155.259C81.8662 155.157 82.4265 155.03 82.9625 154.925C83.2283 154.868 83.4894 154.82 83.7452 154.765C84.001 154.71 84.2523 154.685 84.4936 154.624C84.9771 154.494 85.4514 154.439 85.8702 154.319Z" fill="url(#paint6_linear)"/>
<path style="mix-blend-mode:multiply" opacity="0.4" d="M85.8711 154.318L86.0446 154.267C83.5421 153.291 79.8929 151.297 77.7649 150.085C77.6819 150.076 77.5944 150.044 77.5114 150.034C74.8085 149.692 72.1454 149.067 69.5621 148.166C66.7504 147.202 63.8519 145.773 61.0478 143.943C60.6908 143.73 60.3535 143.464 60.0055 143.225C59.8342 143.101 59.6576 142.978 59.4855 142.852L59.2259 142.671C59.1384 142.606 59.0561 142.537 58.9709 142.471C58.6343 142.205 58.2953 141.939 57.9537 141.674L57.6986 141.474L57.4527 141.257C57.2873 141.115 57.1231 140.973 56.9601 140.83C56.2878 140.271 55.6658 139.643 55.024 139.038C54.708 138.727 54.405 138.393 54.0974 138.072C53.9452 137.912 53.7883 137.752 53.6406 137.587C53.4929 137.422 53.3445 137.246 53.1983 137.078C50.8013 134.341 48.7944 131.254 47.2399 127.915L46.6727 126.65C46.4945 126.224 46.3362 125.786 46.1672 125.36L45.9151 124.714L45.6997 124.053L45.4797 123.395C45.4088 123.176 45.3274 122.962 45.271 122.736C45.1485 122.291 45.0236 121.847 44.901 121.4C44.8713 121.291 44.8325 121.175 44.8119 121.071L44.7465 120.769L44.6163 120.165L44.4846 119.566C44.4724 119.513 44.4625 119.476 44.4488 119.406L44.3285 118.787L44.1633 117.96L44.043 117.34L44.0217 117.237L44.014 117.199C44.014 117.199 43.9569 116.988 44.059 117.34L43.8892 115.975C43.8633 115.75 43.8237 115.526 43.813 115.297L43.7628 114.617L43.7103 113.939L43.6844 113.6C43.6752 113.487 43.6775 113.374 43.673 113.262C43.6615 112.812 43.6471 112.362 43.6387 111.913C43.625 111.689 43.6387 111.464 43.6425 111.243L43.6608 110.574L43.6707 109.909L43.7186 109.247C43.7537 108.805 43.7719 108.369 43.8184 107.934C43.8648 107.498 43.9212 107.067 43.976 106.636C44.4243 103.321 45.3296 100.091 46.6636 97.048L46.892 96.5032L47.1546 95.9736C47.3267 95.6234 47.4858 95.2669 47.6678 94.9287C47.6739 94.9143 47.6845 94.9016 47.6899 94.8872C41.5701 103.953 39.3546 116.355 42.671 128.627C46.0682 141.2 54.4789 150.7 64.5432 154.914C65.7256 155.172 66.8867 155.37 68.0188 155.512C71.1408 155.922 74.2942 156.003 77.4314 155.752C77.7779 155.715 78.1167 155.686 78.4539 155.652C78.7912 155.619 79.1156 155.595 79.4361 155.543C80.0772 155.445 80.6923 155.356 81.2847 155.267C81.8755 155.165 82.4358 155.038 82.9718 154.933C83.2375 154.876 83.4987 154.828 83.7545 154.773C84.0103 154.718 84.2616 154.693 84.5029 154.632C84.978 154.494 85.4523 154.439 85.8711 154.318Z" fill="url(#paint7_linear)"/>
<path d="M101.372 130.527C101.372 147.681 88.5687 161.175 72.2049 160.648C55.1749 160.1 40.8516 144.696 40.8516 126.252C40.8516 107.809 55.1749 94.427 72.2049 96.2863C88.5687 98.0714 101.372 113.374 101.372 130.527Z" fill="url(#paint8_linear)"/>
<path d="M105.794 129.048C105.794 146.202 92.9906 159.695 76.626 159.169C59.5968 158.622 45.2734 143.216 45.2734 124.773C45.2734 106.331 59.5968 92.9482 76.626 94.8066C92.9906 96.5917 105.794 111.894 105.794 129.048Z" fill="url(#paint9_linear)"/>
<path d="M104.51 128.954C104.51 145.352 92.2601 158.227 76.6272 157.699C60.3883 157.149 46.7539 142.444 46.7539 124.875C46.7539 107.305 60.3883 94.5266 76.6272 96.2694C92.2601 97.9508 104.51 112.559 104.51 128.954Z" fill="url(#paint10_linear)"/>
<path d="M103.59 128.892C103.59 144.749 91.7353 157.187 76.6262 156.656C60.9514 156.104 47.8066 141.9 47.8066 124.952C47.8066 108.004 60.9514 95.657 76.6262 97.32C91.7353 98.9224 103.59 113.035 103.59 128.892Z" fill="url(#paint11_linear)"/>
<path d="M75.6053 102.712C76.4093 102.792 77.0603 103.55 77.0603 104.406V107.325C78.6855 107.517 80.2984 107.81 81.8903 108.203C83.0785 108.495 84.2594 108.843 85.4329 109.248C85.7786 109.368 86.0758 109.606 86.2769 109.924C86.4781 110.242 86.5715 110.622 86.5422 111.002L86.2003 114.664C86.1847 114.886 86.1176 115.101 86.0046 115.291C85.8917 115.48 85.7364 115.638 85.5522 115.75C85.368 115.862 85.1604 115.925 84.9475 115.935C84.7347 115.944 84.5228 115.898 84.3304 115.803C83.5574 115.442 82.7635 115.132 81.9535 114.875C80.4933 114.417 78.9909 114.123 77.4714 113.997L77.0603 113.962V122.323C81.2546 123.553 84.335 125.207 86.3252 127.287C88.3154 129.367 89.2945 131.937 89.2945 135.035C89.2945 138.385 88.2002 141.07 86.0115 143.091C83.8087 145.124 80.7125 146.265 76.723 146.516V149.738C76.7261 149.938 76.6904 150.136 76.6179 150.32C76.5454 150.505 76.4377 150.672 76.3014 150.811C76.1651 150.951 76.0031 151.059 75.8253 151.131C75.6474 151.202 75.4576 151.235 75.2673 151.227H75.2414C74.8469 151.204 74.4757 151.024 74.204 150.723C73.9323 150.423 73.7807 150.025 73.7803 149.611V146.43L73.1317 146.399C71.3283 146.319 69.5317 146.118 67.7527 145.798C66.4992 145.571 65.2583 145.272 64.0358 144.903C63.3041 144.681 62.8024 143.952 62.8694 143.168L63.2721 138.462C63.3589 137.444 64.338 136.852 65.2585 137.234C66.326 137.675 67.4174 138.051 68.527 138.358C70.2387 138.831 71.9887 139.138 73.7545 139.273L73.7803 129.972C69.7543 128.928 66.7474 127.383 64.7598 125.335C62.7696 123.278 61.7735 120.647 61.7715 117.444C61.7715 114.132 62.8513 111.577 65.011 109.78C67.1565 107.995 70.2073 107.106 74.1427 107.108V104.124C74.1458 103.265 74.7998 102.632 75.6053 102.712ZM74.1458 113.879C72.9017 113.974 71.932 114.332 71.2366 114.953C70.5413 115.574 70.1928 116.41 70.1913 117.46C70.1913 118.454 70.5131 119.286 71.1567 119.954C71.8003 120.623 72.7962 121.154 74.1443 121.549L74.1458 113.879ZM76.726 130.721V139.243C78.0787 139.246 79.1167 138.908 79.84 138.229C80.5633 137.55 80.9244 136.593 80.9234 135.358C80.9234 134.23 80.5876 133.294 79.9161 132.551C79.2446 131.808 78.1812 131.196 76.726 130.717V130.721Z" fill="url(#paint12_linear)"/>
<path style="mix-blend-mode:multiply" opacity="0.3" d="M71.7475 132.775C72.6611 123.35 80.9271 119.359 79.8483 110.689C79.1828 105.345 75.3167 100.841 71.0036 97.3247C57.922 98.7604 47.8066 110.11 47.8066 124.952C47.8066 141.902 60.9514 156.105 76.6262 156.656C78.1143 156.708 79.604 156.632 81.0801 156.428C74.8553 149.939 70.9648 140.874 71.7475 132.775Z" fill="url(#paint13_linear)"/>
</g>
<defs>
<filter id="filter0_d" x="0.980469" y="0.633301" width="198.194" height="188.03" filterUnits="userSpaceOnUse" color-interpolation-filters="sRGB">
<feFlood flood-opacity="0" result="BackgroundImageFix"/>
<feColorMatrix in="SourceAlpha" type="matrix" values="0 0 0 0 0 0 0 0 0 0 0 0 0 0 0 0 0 0 127 0"/>
<feOffset dy="4"/>
<feGaussianBlur stdDeviation="12"/>
<feColorMatrix type="matrix" values="0 0 0 0 0 0 0 0 0 0 0 0 0 0 0 0 0 0 0.15 0"/>
<feBlend mode="normal" in2="BackgroundImageFix" result="effect1_dropShadow"/>
<feBlend mode="normal" in="SourceGraphic" in2="effect1_dropShadow" result="shape"/>
</filter>
<linearGradient id="paint0_linear" x1="111.628" y1="73.1541" x2="61.429" y2="88.5315" gradientUnits="userSpaceOnUse">
<stop stop-color="#FCB148"/>
<stop offset="0.05" stop-color="#FDBA46"/>
<stop offset="0.14" stop-color="#FFC244"/>
<stop offset="0.32" stop-color="#FFC444"/>
<stop offset="0.48" stop-color="#FDB946"/>
<stop offset="0.78" stop-color="#F99C4D"/>
<stop offset="0.87" stop-color="#F8924F"/>
<stop offset="1" stop-color="#F8924F"/>
</linearGradient>
<linearGradient id="paint1_linear" x1="151.898" y1="21.24" x2="103.918" y2="122.28" gradientUnits="userSpaceOnUse">
<stop stop-color="#FFDB44"/>
<stop offset="1" stop-color="#FEEF06"/>
</linearGradient>
<linearGradient id="paint2_linear" x1="183747" y1="118834" x2="173355" y2="65607.4" gradientUnits="userSpaceOnUse">
<stop stop-color="#FCB148"/>
<stop offset="0.05" stop-color="#FDBA46"/>
<stop offset="0.14" stop-color="#FFC244"/>
<stop offset="0.32" stop-color="#FFC444"/>
<stop offset="0.48" stop-color="#FDB946"/>
<stop offset="0.78" stop-color="#F99C4D"/>
<stop offset="0.87" stop-color="#F8924F"/>
<stop offset="1" stop-color="#F8924F"/>
</linearGradient>
<linearGradient id="paint3_linear" x1="158683" y1="31197.1" x2="199222" y2="111874" gradientUnits="userSpaceOnUse">
<stop stop-color="#FCB148"/>
<stop offset="0.05" stop-color="#FDBA46"/>
<stop offset="0.14" stop-color="#FFC244"/>
<stop offset="0.32" stop-color="#FFC444"/>
<stop offset="0.48" stop-color="#FDB946"/>
<stop offset="0.78" stop-color="#F99C4D"/>
<stop offset="0.87" stop-color="#F8924F"/>
<stop offset="1" stop-color="#F8924F"/>
</linearGradient>
<linearGradient id="paint4_linear" x1="77645.8" y1="10940" x2="102344" y2="63449.6" gradientUnits="userSpaceOnUse">
<stop stop-color="#FFDB44"/>
<stop offset="1" stop-color="#FEEF06"/>
</linearGradient>
<linearGradient id="paint5_linear" x1="88280.9" y1="36453.4" x2="137819" y2="95412.5" gradientUnits="userSpaceOnUse">
<stop stop-color="#FCB148"/>
<stop offset="0.05" stop-color="#FDBA46"/>
<stop offset="0.14" stop-color="#FFC244"/>
<stop offset="0.32" stop-color="#FFC444"/>
<stop offset="0.48" stop-color="#FDB946"/>
<stop offset="0.78" stop-color="#F99C4D"/>
<stop offset="0.87" stop-color="#F8924F"/>
<stop offset="1" stop-color="#F8924F"/>
</linearGradient>
<linearGradient id="paint6_linear" x1="24.9805" y1="94.6369" x2="95.416" y2="94.6369" gradientUnits="userSpaceOnUse">
<stop stop-color="#49A9FE"/>
<stop offset="1" stop-color="#2E6ECE"/>
</linearGradient>
<linearGradient id="paint7_linear" x1="68850.6" y1="92044.2" x2="86747.6" y2="73987.5" gradientUnits="userSpaceOnUse">
<stop stop-color="#311944"/>
<stop offset="1" stop-color="#893976"/>
</linearGradient>
<linearGradient id="paint8_linear" x1="70515.9" y1="90113" x2="42139.5" y2="98651.5" gradientUnits="userSpaceOnUse">
<stop stop-color="#FCB148"/>
<stop offset="0.05" stop-color="#FDBA46"/>
<stop offset="0.14" stop-color="#FFC244"/>
<stop offset="0.32" stop-color="#FFC444"/>
<stop offset="0.48" stop-color="#FDB946"/>
<stop offset="0.78" stop-color="#F99C4D"/>
<stop offset="0.87" stop-color="#F8924F"/>
<stop offset="1" stop-color="#F8924F"/>
</linearGradient>
<linearGradient id="paint9_linear" x1="93215.4" y1="60325.6" x2="65376" y2="117911" gradientUnits="userSpaceOnUse">
<stop stop-color="#FFDB44"/>
<stop offset="1" stop-color="#FEEF06"/>
</linearGradient>
<linearGradient id="paint10_linear" x1="84565.2" y1="116971" x2="79341.6" y2="90215.7" gradientUnits="userSpaceOnUse">
<stop stop-color="#FCB148"/>
<stop offset="0.05" stop-color="#FDBA46"/>
<stop offset="0.14" stop-color="#FFC244"/>
<stop offset="0.32" stop-color="#FFC444"/>
<stop offset="0.48" stop-color="#FDB946"/>
<stop offset="0.78" stop-color="#F99C4D"/>
<stop offset="0.87" stop-color="#F8924F"/>
<stop offset="1" stop-color="#F8924F"/>
</linearGradient>
<linearGradient id="paint11_linear" x1="72234.3" y1="70969.1" x2="92611.8" y2="111522" gradientUnits="userSpaceOnUse">
<stop stop-color="#FCB148"/>
<stop offset="0.05" stop-color="#FDBA46"/>
<stop offset="0.14" stop-color="#FFC244"/>
<stop offset="0.32" stop-color="#FFC444"/>
<stop offset="0.48" stop-color="#FDB946"/>
<stop offset="0.78" stop-color="#F99C4D"/>
<stop offset="0.87" stop-color="#F8924F"/>
<stop offset="1" stop-color="#F8924F"/>
</linearGradient>
<linearGradient id="paint12_linear" x1="35317.4" y1="50602.4" x2="47733.1" y2="76997.4" gradientUnits="userSpaceOnUse">
<stop stop-color="#FFDB44"/>
<stop offset="1" stop-color="#FEEF06"/>
</linearGradient>
<linearGradient id="paint13_linear" x1="39884.2" y1="73467.1" x2="64784.8" y2="103102" gradientUnits="userSpaceOnUse">
<stop stop-color="#FCB148"/>
<stop offset="0.05" stop-color="#FDBA46"/>
<stop offset="0.14" stop-color="#FFC244"/>
<stop offset="0.32" stop-color="#FFC444"/>
<stop offset="0.48" stop-color="#FDB946"/>
<stop offset="0.78" stop-color="#F99C4D"/>
<stop offset="0.87" stop-color="#F8924F"/>
<stop offset="1" stop-color="#F8924F"/>
</linearGradient>
</defs>
</svg>
